<svg width="130" height="130" viewBox="0 0 130 130" fill="none" xmlns="http://www.w3.org/2000/svg">
<g filter="url(#filter0_d)">
<path fill-rule="evenodd" clip-rule="evenodd" d="M65 119C95.3757 119 120 94.3757 120 64C120 33.6243 95.3757 9 65 9C34.6243 9 10 33.6243 10 64C10 94.3757 34.6243 119 65 119Z" fill="white"/>
<path fill-rule="evenodd" clip-rule="evenodd" d="M65 119C95.3757 119 120 94.3757 120 64C120 33.6243 95.3757 9 65 9C34.6243 9 10 33.6243 10 64C10 94.3757 34.6243 119 65 119Z" stroke="#1AAAFF"/>
</g>
<path d="M73.5 66L86 78.5C86.75 79.25 87.125 80.1667 87.125 81.25C87.125 82.3333 86.75 83.2917 86 84.125L83.25 86.875C82.4167 87.625 81.4583 88 80.375 88C79.2917 88 78.375 87.625 77.625 86.875L65.125 74.375L52.625 86.875C51.875 87.625 50.9583 88 49.875 88C48.7917 88 47.8333 87.625 47 86.875L44.25 84.125C43.5 83.2917 43.125 82.3333 43.125 81.25C43.125 80.1667 43.5 79.25 44.25 78.5L56.75 66L44.25 53.5C43.5 52.75 43.125 51.8333 43.125 50.75C43.125 49.6667 43.5 48.7083 44.25 47.875L47 45.125C47.8333 44.375 48.7917 44 49.875 44C50.9583 44 51.875 44.375 52.625 45.125L65.125 57.625L77.625 45.125C78.375 44.375 79.2917 44 80.375 44C81.4583 44 82.4167 44.375 83.25 45.125L86 47.875C86.75 48.7083 87.125 49.6667 87.125 50.75C87.125 51.8333 86.75 52.75 86 53.5L73.5 66Z" fill="#8776CC"/>
<path d="M73.5 66L86 78.5C86.75 79.25 87.125 80.1667 87.125 81.25C87.125 82.3333 86.75 83.2917 86 84.125L83.25 86.875C82.4167 87.625 81.4583 88 80.375 88C79.2917 88 78.375 87.625 77.625 86.875L65.125 74.375L52.625 86.875C51.875 87.625 50.9583 88 49.875 88C48.7917 88 47.8333 87.625 47 86.875L44.25 84.125C43.5 83.2917 43.125 82.3333 43.125 81.25C43.125 80.1667 43.5 79.25 44.25 78.5L56.75 66L44.25 53.5C43.5 52.75 43.125 51.8333 43.125 50.75C43.125 49.6667 43.5 48.7083 44.25 47.875L47 45.125C47.8333 44.375 48.7917 44 49.875 44C50.9583 44 51.875 44.375 52.625 45.125L65.125 57.625L77.625 45.125C78.375 44.375 79.2917 44 80.375 44C81.4583 44 82.4167 44.375 83.25 45.125L86 47.875C86.75 48.7083 87.125 49.6667 87.125 50.75C87.125 51.8333 86.75 52.75 86 53.5L73.5 66Z" fill="#E83939"/>
<defs>
<filter id="filter0_d" x="0" y="0" width="130" height="130" filterUnits="userSpaceOnUse" color-interpolation-filters="sRGB">
<feFlood flood-opacity="0" result="BackgroundImageFix"/>
<feColorMatrix in="SourceAlpha" type="matrix" values="0 0 0 0 0 0 0 0 0 0 0 0 0 0 0 0 0 0 127 0"/>
<feOffset dy="1"/>
<feGaussianBlur stdDeviation="5"/>
<feColorMatrix type="matrix" values="0 0 0 0 0.100596 0 0 0 0 0.667459 0 0 0 0 1 0 0 0 1 0"/>
<feBlend mode="normal" in2="BackgroundImageFix" result="effect1_dropShadow"/>
<feBlend mode="normal" in="SourceGraphic" in2="effect1_dropShadow" result="shape"/>
</filter>
</defs>
</svg>
