<svg width="176" height="88" viewBox="0 0 176 88" fill="none" xmlns="http://www.w3.org/2000/svg">
<g filter="url(#filter0_d)">
<rect x="8" y="2" width="160" height="72" rx="8" fill="#D72340"/>
</g>
<path fill-rule="evenodd" clip-rule="evenodd" d="M72.4514 23.3917C71.4242 23.3917 71.0796 23.7826 70.6555 24.9225L67.0968 34.4321H64.8503L62.0073 27.5335L59.2969 34.4321H56.9642L53.2664 25.0749C52.8423 24.0013 52.2127 23.3917 51.2783 23.3917H51V22H57.3221V23.3917H56.7124C56.0033 23.3917 55.6852 23.5772 55.7118 23.9748C55.6977 24.1054 55.7159 24.2373 55.7648 24.3592C55.7648 24.3592 57.2094 27.7787 58.3559 31.1452H58.5282L61.0067 24.9291C60.9006 23.9019 60.556 23.3718 59.4825 23.3718H58.6409V22H65.2678V23.3917H64.2539C63.6243 23.3917 63.3857 23.5308 63.3857 23.8953C63.3852 24.0752 63.4213 24.2533 63.4918 24.4188C63.4918 24.4188 64.9828 28.0371 66.0763 31.1849H66.2221L68.6276 24.8893C68.7389 24.5862 68.7906 24.2644 68.7801 23.9417C68.7801 23.5507 68.4355 23.385 67.7264 23.385H66.8583V22H71.908V23.3917H72.4514ZM72.9153 23.3917V22H85.3408V26.8178H83.916C83.8365 23.9218 83.1605 23.4646 80.6025 23.4646H77.1499V27.1624H78.0445C79.6284 27.1624 79.8404 26.6322 79.9663 24.7634H81.3977V31.0656H79.9398C79.8338 28.9318 79.6284 28.6336 78.071 28.6336H77.1499V32.9742H81.126C83.3925 32.9742 83.9359 31.9073 84.1347 29.4354H85.5528V34.4321H71.9146V33.0405H72.6502C73.737 33.0405 74.3401 32.9411 74.3401 31.9006V24.5315C74.3401 23.5043 73.737 23.3917 72.6502 23.3917H72.9153ZM86.6794 34.4321V33.0405H87.3951C88.4753 33.0405 88.9458 32.9411 88.9458 31.8741V24.5845C88.9458 23.5308 88.3163 23.4182 87.256 23.4182H86.5933V22H94.0751V23.3917H93.1804C91.9743 23.3917 91.7623 23.5043 91.7623 24.5315V32.9742H94.7974C96.2686 32.9742 97.1433 32.782 97.5343 32.0531C97.9415 31.239 98.1201 30.3297 98.0512 29.4222H99.4959V34.4321H86.6794ZM100.596 34.4321V33.0405H100.788C101.875 33.0405 102.345 32.9411 102.345 31.8741V24.5845C102.345 23.5308 101.835 23.4182 100.788 23.4182H99.9929V22H107.481V23.3917H106.587C105.367 23.3917 105.169 23.5043 105.169 24.5315V32.9742H108.19C109.668 32.9742 110.543 32.782 110.934 32.0531C111.337 31.2423 111.518 30.3389 111.458 29.4354H112.902V34.4321H100.596ZM120.341 34.9646C123.655 34.9646 125.895 33.944 125.895 31.0945V31.0481C125.895 28.0991 123.827 27.549 121.176 27.105L118.565 26.6478C118.438 26.6283 118.313 26.6109 118.192 26.594C117.201 26.4556 116.465 26.3526 116.465 25.4549C116.465 24.4476 117.439 23.606 118.917 23.553C120.978 23.5 123.323 24.2356 123.628 26.6478H125.027V22.274H123.927L123.277 23.3012C121.989 22.3845 120.429 21.9293 118.85 22.0089C116.1 22.0089 114.046 23.5132 114.125 25.7797C114.198 27.8605 115.225 28.7817 118.413 29.3383L120.553 29.7293C120.803 29.7751 121.061 29.8101 121.317 29.8446C122.539 30.0099 123.697 30.1665 123.549 31.4656C123.396 32.8241 122.025 33.3476 120.037 33.2615C117.744 33.1554 116.153 32.1216 115.756 29.7359H114.311V34.7592H115.577L116.001 33.4338C117.258 34.3746 118.772 34.9088 120.341 34.9646ZM65.2719 45.2559C65.3013 44.398 65.1312 43.5451 64.7749 42.7642C64.3508 42.0286 63.4893 41.9159 62.0115 41.9159H58.9035V45.6336H59.8842C61.4615 45.6336 61.7 45.342 61.7 43.4202H62.8796V49.6363H61.7C61.7 47.5554 61.4548 47.1313 59.9041 47.1313H58.9035V50.3719C58.9035 51.4057 59.0691 51.5051 60.1427 51.5051H61.5542V52.9034H53.9134V51.4852H54.6291C55.7026 51.4852 56.0738 51.3858 56.0738 50.3454V42.9828C56.0738 41.9557 55.7026 41.843 54.6291 41.843H53.9134V40.4514H66.7034V45.2559H65.2719ZM72.7336 51.4852V52.8835H80.0299V52.8769H86.7703V51.4786H85.6239C84.537 51.4786 84.3846 51.3792 84.3846 50.3454V47.0319H85.657C87.8108 47.0319 88.4734 47.4494 88.553 49.5369L88.606 50.9816C88.6855 52.6979 89.7922 53.1684 91.5086 53.1684C93.0063 53.1684 94.06 52.2738 94.06 50.0074V50.014C94.0739 49.7934 94.0739 49.572 94.06 49.3513H92.8472C92.9069 50.8291 92.8472 51.3858 92.0918 51.4388C91.7206 51.4653 91.4291 51.1207 91.376 50.3851C91.3891 50.1291 91.3891 49.8725 91.376 49.6164C91.2303 47.9398 90.9387 47.1446 88.7253 46.6144C91.0977 46.2963 92.496 45.1962 92.496 43.4003C92.496 41.399 91.0513 40.4514 87.8571 40.4514H79.3018V41.843H80.3488C81.4224 41.843 81.5881 41.9557 81.5881 42.9828V50.3255C81.5881 51.2268 80.9784 51.4852 80.2627 51.4852H80.0299V52.8769H79.1626V51.4852H79.4268C78.7244 51.4852 78.3201 51.2201 77.9556 50.2725L73.9795 40.4514H70.9311L66.8025 50.2725C66.4314 51.1406 66.1398 51.4852 65.1657 51.4852H64.5957V52.8901H71.1166V51.4918H69.7913C69.1286 51.4918 68.7906 51.4653 68.7906 51.0743C68.8013 50.8716 68.8532 50.6732 68.943 50.4912L69.6057 48.9338H74.4036L74.9271 50.3851C75.0267 50.5707 75.0918 50.7728 75.1193 50.9816C75.1193 51.4057 74.7747 51.4852 74.059 51.4852H72.7336ZM72.0577 42.7178L70.1889 47.4892H73.953L72.0577 42.7178ZM89.6663 43.7715C89.6663 42.3268 88.8247 41.896 87.0553 41.896H84.4045V45.6668H87.1216C88.8644 45.6668 89.6796 45.1101 89.6796 43.8178L89.6663 43.7715ZM101.371 41.9458C103.432 41.9458 104.678 42.8206 105.274 44.6827V44.6629H106.606V40.4879H105.612L104.949 41.7802C103.995 40.8192 102.372 40.4548 100.973 40.4548C99.3496 40.401 97.7696 40.9863 96.5729 42.085C95.3228 43.3171 94.6452 45.016 94.7041 46.7702C94.6474 48.5781 95.3321 50.3306 96.5994 51.6211C97.7336 52.7774 99.2942 53.4151 100.914 53.3839C102.427 53.4088 103.908 52.9439 105.135 52.0585L105.798 53.0923H106.792V48.9306C106.792 47.9489 106.928 47.95 107.658 47.9555C107.694 47.9558 107.731 47.9561 107.77 47.9563C107.794 47.9564 107.819 47.9565 107.845 47.9565H108.316V46.5317H102.537V47.983H103.16C104.353 47.983 104.558 47.983 104.558 48.818V49.4806C104.558 50.9121 103.061 51.7471 101.371 51.7471C99.0514 51.7206 97.7857 49.9379 97.7592 46.7702C97.7326 43.6026 99.3099 41.9458 101.371 41.9458ZM116.594 53.4004C112.463 53.3962 109.267 50.8127 109.267 46.8994C109.267 42.9828 112.475 40.4514 116.557 40.4514C120.639 40.4514 123.814 43.0027 123.814 46.9259C123.814 50.8459 120.691 53.3963 116.594 53.4004ZM116.594 53.4004L116.603 53.4004H116.584L116.594 53.4004ZM116.55 42.0087C119.002 42.0087 120.785 43.7118 120.785 46.9789H120.759C120.759 50.2393 118.969 51.9822 116.55 51.9822C114.132 51.9822 112.289 50.2924 112.289 46.9789C112.289 43.6654 114.098 42.0087 116.55 42.0087Z" fill="#FFD900"/>
<defs>
<filter id="filter0_d" x="0" y="0" width="176" height="88" filterUnits="userSpaceOnUse" color-interpolation-filters="sRGB">
<feFlood flood-opacity="0" result="BackgroundImageFix"/>
<feColorMatrix in="SourceAlpha" type="matrix" values="0 0 0 0 0 0 0 0 0 0 0 0 0 0 0 0 0 0 127 0"/>
<feOffset dy="6"/>
<feGaussianBlur stdDeviation="4"/>
<feColorMatrix type="matrix" values="0 0 0 0 0.843137 0 0 0 0 0.137255 0 0 0 0 0.25098 0 0 0 0.17 0"/>
<feBlend mode="normal" in2="BackgroundImageFix" result="effect1_dropShadow"/>
<feBlend mode="normal" in="SourceGraphic" in2="effect1_dropShadow" result="shape"/>
</filter>
</defs>
</svg>
