<svg width="176" height="88" viewBox="0 0 176 88" fill="none" xmlns="http://www.w3.org/2000/svg">
<g filter="url(#filter0_d)">
<rect x="8" y="2" width="160" height="72" rx="8" fill="#0287CA"/>
</g>
<path fill-rule="evenodd" clip-rule="evenodd" d="M116.875 34.91H119.898L119.896 26.2045H117.719V32.2652L113.994 26.2045H110.76V34.4375L107.173 26.2045H104.021L101.042 33.0486H100.085C99.5167 33.0466 98.9312 32.9464 98.6167 32.6048C98.2021 32.1548 98.0167 31.4695 98.0167 30.5593C98.0167 29.6491 98.2667 28.9557 98.6417 28.5895C99.0521 28.1866 99.4958 28.072 100.279 28.072H102.258V26.1943H100.235C98.775 26.1943 97.6937 26.5257 97.0125 27.217C96.1104 28.1416 95.8771 29.3239 95.8771 30.6125C95.8771 32.1977 96.2625 33.202 96.9979 33.9364C97.7333 34.6707 99.0354 34.9018 100.077 34.9018H102.54L103.352 32.9545H107.756L108.571 34.91H112.877V28.3891L116.875 34.91ZM69.3042 26.2045H72.8271V34.91H70.6562V28.0986L67.5833 34.91H65.725L62.6479 28.0843V34.91H58.3333L57.525 32.9545H53.125L52.3083 34.91H50L53.7917 26.2045H56.9437L60.5312 34.4436V26.2045H63.9937L66.7542 32.1098L69.3042 26.2045ZM53.8771 31.1525L53.8779 31.1505H56.7667L55.3208 27.6916L53.8779 31.1505H53.8771V31.1525ZM80.0813 42.0021H86.9638L86.9744 42C88.677 42 90.594 42.4845 90.594 44.9746C90.594 47.4647 88.7258 47.9894 86.8428 47.9894H84.1658V50.9979H79.9645L77.3109 48.036L74.5511 50.9979H66V42H74.6849L77.3215 44.9535L80.0813 42.0021ZM78.6908 46.5212L82.0025 42.9753V50.1685L78.6908 46.5212ZM73.4472 49.1255H68.1399V47.3441H72.8634V45.4951H68.1569V43.8724H73.5555L75.9204 46.4894L73.4472 49.1255ZM84.1616 46.1425H86.9447H86.9553C87.7726 46.1425 88.2821 45.7511 88.2821 44.9725C88.2821 44.1939 87.7514 43.8724 86.9744 43.8724H84.1616V46.1425ZM97.451 45.6961C97.1581 45.8674 96.8141 45.878 96.3896 45.878H93.7741V43.8724H96.4341C96.7838 43.8456 97.1349 43.8977 97.4616 44.0247C97.7492 44.1911 97.9189 44.5041 97.9011 44.835C97.9198 45.1791 97.7521 45.5069 97.4616 45.6939L97.451 45.6961ZM99.1769 42.4379C98.4785 42.036 97.6739 42.0021 96.5806 42.0021H91.6172V51H93.7741V47.725H96.0902C96.8736 47.725 97.347 47.7906 97.6569 48.1185C98.0174 48.5026 98.0121 49.1885 98.008 49.7105V49.7112V49.7118L98.0075 49.7833L98.0072 49.8639V50.9979H100.177V49.2123C100.177 48.4316 100.124 48.019 99.8223 47.5811C99.5471 47.2321 99.1795 46.9668 98.7609 46.8152C99.7167 46.4093 100.326 45.4616 100.296 44.4267C100.298 43.4217 99.8775 42.8315 99.1854 42.4379H99.1769ZM103.641 49.1298H108.688V50.9979H101.491V42H108.688V43.8724H103.641V45.4951H108.567V47.3441H103.641V49.1298ZM116.912 46.2588C116.426 45.7553 115.638 45.5564 114.449 45.5331L113.292 45.5056C113.013 45.5137 112.734 45.478 112.466 45.3999C112.177 45.3062 111.985 45.0341 111.993 44.7313C111.973 44.4723 112.098 44.2232 112.318 44.0839C112.53 43.9379 112.789 43.9295 113.182 43.9295H117.137V42H112.812C110.547 42 109.721 43.3815 109.721 44.6721C109.721 47.3702 111.978 47.4158 113.926 47.4551C114.041 47.4575 114.156 47.4598 114.269 47.4626C114.536 47.4439 114.802 47.5187 115.02 47.6742C115.195 47.8209 115.292 48.0393 115.284 48.2666C115.285 48.4901 115.193 48.7041 115.029 48.8568C114.85 49.0197 114.566 49.0684 114.163 49.0684H109.978V50.9937H114.182C116.366 50.9937 117.578 50.0691 117.578 48.1566C117.57 47.2299 117.351 46.701 116.918 46.2567L116.912 46.2588ZM122.597 51C124.79 51 125.994 50.067 125.994 48.1629L126 48.1671C126 47.2299 125.779 46.701 125.346 46.263C124.864 45.7595 124.081 45.5606 122.881 45.5374L121.724 45.5099C121.446 45.5176 121.168 45.4819 120.901 45.4041C120.611 45.3116 120.418 45.0388 120.427 44.7355C120.406 44.4789 120.528 44.2313 120.744 44.0903C120.958 43.9358 121.219 43.9358 121.606 43.9358H125.544V42.0063H121.243C118.973 42.0021 118.152 43.3879 118.152 44.6784C118.152 47.3655 120.39 47.4161 122.332 47.46L122.333 47.46C122.456 47.4628 122.578 47.4656 122.699 47.469C122.964 47.4518 123.226 47.5266 123.442 47.6805C123.616 47.8272 123.713 48.0457 123.705 48.2729C123.706 48.4965 123.614 48.7104 123.45 48.8632C123.274 49.0176 122.985 49.0748 122.582 49.0748H118.434V51H122.597ZM87.6271 29.9539C88.0438 29.9539 88.3813 29.9436 88.6688 29.778L88.6729 29.78C88.9599 29.6015 89.1264 29.2847 89.1083 28.9516C89.1266 28.6315 88.9588 28.3289 88.675 28.1702C88.3551 28.0449 88.01 27.9938 87.6667 28.0209H85.0583V29.9539H87.6271ZM107.002 31.1505L105.552 27.6916L104.11 31.1505H107.002ZM81.475 33.0977H76.5229V31.3775H81.3563V29.5877H76.5229V28.0209H81.475V26.2045H74.4042V34.91H81.475V33.0977ZM87.8208 26.2045C88.8917 26.2045 89.6833 26.2434 90.3687 26.632C91.0417 27.0227 91.4583 27.5832 91.4583 28.5589C91.4874 29.5588 90.8909 30.4747 89.9542 30.8682C90.3638 31.0159 90.7242 31.2713 90.9958 31.6066C91.2917 32.03 91.3458 32.4309 91.3458 33.1836V34.908H89.2125V33.8095C89.2125 33.7621 89.2129 33.7127 89.2133 33.6617V33.6614C89.2172 33.1557 89.2224 32.4956 88.8667 32.1241C88.5667 31.807 88.1 31.7416 87.3292 31.7416H85.0583V34.91H82.9417V26.2045H87.8208ZM92.6771 34.91H94.8458V26.2045H92.675L92.6771 34.91Z" fill="white"/>
<defs>
<filter id="filter0_d" x="0" y="0" width="176" height="88" filterUnits="userSpaceOnUse" color-interpolation-filters="sRGB">
<feFlood flood-opacity="0" result="BackgroundImageFix"/>
<feColorMatrix in="SourceAlpha" type="matrix" values="0 0 0 0 0 0 0 0 0 0 0 0 0 0 0 0 0 0 127 0"/>
<feOffset dy="6"/>
<feGaussianBlur stdDeviation="4"/>
<feColorMatrix type="matrix" values="0 0 0 0 0.00784314 0 0 0 0 0.529412 0 0 0 0 0.792157 0 0 0 0.17 0"/>
<feBlend mode="normal" in2="BackgroundImageFix" result="effect1_dropShadow"/>
<feBlend mode="normal" in="SourceGraphic" in2="effect1_dropShadow" result="shape"/>
</filter>
</defs>
</svg>
