<svg width="176" height="88" viewBox="0 0 176 88" fill="none" xmlns="http://www.w3.org/2000/svg">
<g filter="url(#filter0_d)">
<rect x="8" y="2" width="160" height="72" rx="8" fill="#0665B0"/>
</g>
<path fill-rule="evenodd" clip-rule="evenodd" d="M86.1168 44.1131C86.5712 43.4037 86.9701 42.7541 87.4053 42.128C87.4768 42.0213 87.6997 41.9893 87.8533 41.9883C89.8875 41.9787 91.9216 41.9883 93.9557 41.9819C94.9829 41.9819 95.208 41.7536 95.2101 40.7275C95.2101 40.4853 95.2101 40.2443 95.2101 40.0021C95.2027 39.1637 94.9776 38.9355 94.1435 38.9355C92.4933 38.9355 90.8432 38.9611 89.1941 38.9184C88.6722 38.8994 88.1587 38.7818 87.6805 38.5717C86.9477 38.2517 86.5339 37.6011 86.3525 36.8363C86.1284 35.9055 86.1222 34.9356 86.3344 34.0021C86.5771 32.8611 87.5434 32.0169 88.7067 31.9296C89.2987 31.872 89.8992 31.8816 90.4965 31.8795C92.6441 31.8731 94.792 31.8731 96.9403 31.8795C97.0373 31.8795 97.1355 31.8891 97.3253 31.8976C97.0128 32.3936 96.6853 32.8213 96.4592 33.2949C96.1851 33.8549 95.7947 34.0075 95.1845 33.9936C93.3648 33.9509 91.544 33.9776 89.7232 33.9808C88.9264 33.9808 88.7077 34.1995 88.6992 34.9899C88.6992 35.2747 88.6928 35.5595 88.6992 35.8432C88.7205 36.4757 88.9605 36.7211 89.5909 36.7243C91.1419 36.7317 92.6917 36.7243 94.2427 36.7307C94.5694 36.7298 94.8958 36.7508 95.2197 36.7936C96.5477 36.9792 97.4341 37.7536 97.6144 39.0816C97.7379 39.9662 97.7379 40.8637 97.6144 41.7483C97.3947 43.2416 96.3141 44.0789 94.6213 44.1045C91.8267 44.144 89.0213 44.1131 86.1168 44.1131ZM102.475 33.9712V36.7691H109.164V38.8309H102.493V41.9819H102.99C105.011 41.9819 107.03 41.9819 109.05 41.9765C109.321 41.9765 109.492 42.0448 109.635 42.2891C109.986 42.8843 110.367 43.4624 110.77 44.0949H99.9963V43.6373C99.9963 39.8684 99.9945 36.0996 99.9909 32.3307C99.9909 32.0171 100.045 31.8784 100.405 31.8805C103.719 31.8933 107.033 31.888 110.347 31.8891C110.444 31.8891 110.541 31.9051 110.723 31.9211C110.284 32.6069 109.885 33.2544 109.453 33.8795C109.393 33.9669 109.173 33.9701 109.027 33.9701C107.007 33.9758 104.987 33.9758 102.967 33.9701L102.475 33.9712ZM60.456 36.7125H67.2507V36.0149C67.2507 34.7776 67.2592 33.5403 67.2453 32.3029C67.2453 32.0011 67.3115 31.8677 67.6453 31.8763C68.3088 31.8997 68.9733 31.8827 69.6635 31.8827V44.0981H67.2592V38.8789H60.4773V44.0949H58.0635V31.92H60.456V36.7125ZM71.0917 44.1227C71.1824 43.9093 71.2432 43.7536 71.3136 43.6032C73.1028 39.8265 74.8916 36.0487 76.68 32.2699C76.8144 31.9851 76.9669 31.8635 77.288 31.8784C77.8555 31.904 78.4272 31.8688 78.9947 31.8976C79.1638 31.9147 79.3165 32.0067 79.4107 32.1483C81.2916 36.0843 83.1646 40.026 85.0299 43.9733C85.0404 44.021 85.0457 44.0696 85.0459 44.1184C84.184 44.1184 83.3275 44.1259 82.472 44.1067C82.3931 44.1067 82.2949 43.9435 82.2459 43.8379C81.9493 43.1915 81.6539 42.5451 81.3808 41.8891C81.2837 41.6555 81.1504 41.5776 80.9008 41.5787C79.0228 41.5879 77.1447 41.5879 75.2667 41.5787C75.016 41.5787 74.8837 41.6576 74.7867 41.8901C74.5125 42.5451 74.2256 43.1968 73.9131 43.8347C73.8315 43.9815 73.6881 44.0838 73.5227 44.1131C72.7408 44.1355 71.9579 44.1227 71.0917 44.1227ZM80.3067 39.4933L78.0763 34.4011L75.8608 39.4933H80.3067ZM56.5573 44.1152C53.8288 44.1152 51.1973 44.1632 48.568 44.1003C46.3867 44.048 45.048 42.6219 45.0171 40.4341C44.9943 38.7986 44.9943 37.163 45.0171 35.5275C45.048 33.3941 46.3099 31.9947 48.4304 31.9243C51.0725 31.8357 53.7189 31.8901 56.3643 31.8848C56.4218 31.8969 56.4777 31.9159 56.5307 31.9413C56.104 32.6133 55.6976 33.2747 55.2603 33.9147C55.1973 34.0075 54.9861 34.0331 54.8443 34.0331C53.1099 34.0405 51.3744 34.0331 49.64 34.0384C49.512 34.0384 49.384 34.0384 49.256 34.0384C48.0571 34.0661 47.5707 34.5387 47.56 35.7344C47.5465 37.2128 47.5465 38.6916 47.56 40.1707C47.5707 41.3835 48.0603 41.8773 49.2837 41.8891C51.0608 41.9061 52.8389 41.9093 54.6171 41.8837C55.0299 41.8773 55.2571 42.0075 55.4587 42.3584C55.7733 42.9397 56.1563 43.4869 56.5573 44.1152ZM130.867 34.4459H130.44C127.357 34.4459 124.275 34.4395 121.192 34.4544C120.788 34.4544 120.647 34.3477 120.659 33.9317C120.686 32.8811 120.666 31.8293 120.668 30.7787C120.668 30.1888 120.842 30.0064 121.415 30.0043C122.908 30.0043 124.402 29.9968 125.895 30.0107C126.088 30.0096 126.276 30.0743 126.428 30.1941C127.88 31.5413 129.306 32.9045 130.738 34.2667C130.785 34.3235 130.828 34.3833 130.867 34.4459V34.4459ZM127.02 45.4123C127.012 45.232 127 45.1093 127 44.9856C127 41.8987 127.006 38.8107 126.99 35.7237C126.99 35.3067 127.115 35.1904 127.524 35.1989C128.562 35.2245 129.601 35.2064 130.639 35.2085C131.24 35.2085 131.386 35.3429 131.386 35.9243C131.386 37.4464 131.396 38.9685 131.378 40.4907C131.374 40.713 131.294 40.9274 131.153 41.0987C129.863 42.4853 128.553 43.8485 127.249 45.2181C127.191 45.2768 127.125 45.3237 127.02 45.4123ZM116.084 41.5883H125.674C126.234 41.5883 126.234 41.5883 126.235 42.1579C126.235 43.1808 126.235 44.2037 126.235 45.2267C126.235 45.7856 126.051 45.9733 125.496 45.9733C123.976 45.9733 122.455 45.9797 120.935 45.9669C120.755 45.9679 120.58 45.9073 120.439 45.7952C119.03 44.4736 117.635 43.1371 116.236 41.8027C116.181 41.7347 116.13 41.6631 116.084 41.5883L116.084 41.5883ZM119.83 30.6347C119.839 30.8267 119.853 30.9632 119.853 31.0987C119.853 34.1419 119.846 37.1851 119.863 40.2283C119.863 40.6549 119.745 40.7947 119.309 40.7829C118.258 40.7531 117.205 40.7765 116.152 40.7712C115.626 40.7712 115.474 40.6123 115.473 40.0768C115.473 38.5547 115.465 37.0336 115.479 35.5115C115.477 35.3183 115.541 35.1303 115.66 34.9781C116.971 33.5765 118.299 32.1888 119.623 30.8C119.689 30.7411 119.758 30.6859 119.83 30.6347V30.6347Z" fill="white"/>
<defs>
<filter id="filter0_d" x="0" y="0" width="176" height="88" filterUnits="userSpaceOnUse" color-interpolation-filters="sRGB">
<feFlood flood-opacity="0" result="BackgroundImageFix"/>
<feColorMatrix in="SourceAlpha" type="matrix" values="0 0 0 0 0 0 0 0 0 0 0 0 0 0 0 0 0 0 127 0"/>
<feOffset dy="6"/>
<feGaussianBlur stdDeviation="4"/>
<feColorMatrix type="matrix" values="0 0 0 0 0.0235294 0 0 0 0 0.396078 0 0 0 0 0.690196 0 0 0 0.17 0"/>
<feBlend mode="normal" in2="BackgroundImageFix" result="effect1_dropShadow"/>
<feBlend mode="normal" in="SourceGraphic" in2="effect1_dropShadow" result="shape"/>
</filter>
</defs>
</svg>
