<svg width="130" height="130" viewBox="0 0 130 130" fill="none" xmlns="http://www.w3.org/2000/svg">
<g filter="url(#filter0_d)">
<path fill-rule="evenodd" clip-rule="evenodd" d="M65 119C95.3757 119 120 94.3757 120 64C120 33.6243 95.3757 9 65 9C34.6243 9 10 33.6243 10 64C10 94.3757 34.6243 119 65 119Z" fill="white"/>
<path fill-rule="evenodd" clip-rule="evenodd" d="M65 119C95.3757 119 120 94.3757 120 64C120 33.6243 95.3757 9 65 9C34.6243 9 10 33.6243 10 64C10 94.3757 34.6243 119 65 119Z" stroke="#1AAAFF"/>
</g>
<path fill-rule="evenodd" clip-rule="evenodd" d="M82.5466 55.6204C82.5466 56.1991 82.3151 56.7778 81.8985 57.1944L61.9911 77.1019C61.5744 77.5185 60.9957 77.75 60.417 77.75C59.8383 77.75 59.2596 77.5185 58.8429 77.1019L47.3151 65.5741C46.8985 65.1574 46.667 64.5787 46.667 64C46.667 63.4213 46.8985 62.8426 47.3151 62.4259L50.4633 59.2778C50.88 58.8611 51.4587 58.6296 52.0374 58.6296C52.6161 58.6296 53.1948 58.8611 53.6114 59.2778L60.417 66.1065L75.6022 50.8981C76.0188 50.4815 76.5975 50.25 77.1763 50.25C77.755 50.25 78.3337 50.4815 78.7503 50.8981L81.8985 54.0463C82.3151 54.463 82.5466 55.0417 82.5466 55.6204Z" fill="#1AAAFF"/>
<defs>
<filter id="filter0_d" x="0" y="0" width="130" height="130" filterUnits="userSpaceOnUse" color-interpolation-filters="sRGB">
<feFlood flood-opacity="0" result="BackgroundImageFix"/>
<feColorMatrix in="SourceAlpha" type="matrix" values="0 0 0 0 0 0 0 0 0 0 0 0 0 0 0 0 0 0 127 0"/>
<feOffset dy="1"/>
<feGaussianBlur stdDeviation="5"/>
<feColorMatrix type="matrix" values="0 0 0 0 0.100596 0 0 0 0 0.667459 0 0 0 0 1 0 0 0 1 0"/>
<feBlend mode="normal" in2="BackgroundImageFix" result="effect1_dropShadow"/>
<feBlend mode="normal" in="SourceGraphic" in2="effect1_dropShadow" result="shape"/>
</filter>
</defs>
</svg>
