<svg width="176" height="88" viewBox="0 0 176 88" fill="none" xmlns="http://www.w3.org/2000/svg">
<g filter="url(#filter0_d)">
<rect x="8" y="2" width="160" height="72" rx="8" fill="#073A61"/>
</g>
<path d="M77 32V41.0849C77 46.1615 80.017 47 82.5407 47C86.2716 47 88 44.4647 88 41.0332V32H85.5296V41.3406C85.5296 42.5199 85.1548 44.7234 82.5407 44.6808C80.1621 44.6382 79.7267 42.386 79.7267 40.9419V32H77Z" fill="white"/>
<path d="M97.5845 32.8045C96.5305 32.3045 95.3864 32.0307 94.2238 32C91.997 32 89.1966 33.1684 89.1966 36.3444C89.1966 38.5504 90.7905 39.597 91.8802 40.1338C92.4554 40.4211 93.1592 40.7353 93.7358 41.0556C94.0315 41.2195 95.2144 41.6256 95.2144 42.9338C95.2144 44.3278 93.7151 44.8045 93.0394 44.8045C91.6185 44.8124 90.2222 44.4272 89 43.6902L89.2514 46.4902C89.2514 46.4902 90.2331 46.9985 93.174 47C95.9832 46.9925 98 45.1609 98 42.6391C98 40.6962 96.6974 39.5429 95.5855 38.994C94.7087 38.5534 94.2001 38.3203 93.4386 37.9534C92.6772 37.5865 91.8921 36.9579 91.8921 35.9789C91.8921 34.9263 92.8324 34.1744 94.2208 34.1744C96.2612 34.1744 97.0833 35.1128 97.5816 35.4105L97.5845 32.8045Z" fill="white"/>
<path fill-rule="evenodd" clip-rule="evenodd" d="M115.761 32H118.813L124 46.9984H120.947L120.067 44.3827H114.842L113.958 46.9984H108.746L107.868 44.3827H102.642L101.76 47H99L104.055 33.2566L103.568 32.0016H106.621L111.505 46.1473L116.248 33.255L115.761 32ZM103.326 42.3495L105.354 36.475L107.161 42.3495H103.326ZM115.527 42.3495L117.551 36.475L119.361 42.3495H115.527Z" fill="white"/>
<path fill-rule="evenodd" clip-rule="evenodd" d="M61.9723 31.2339L62.5589 33.8055L70.5762 38.5718C70.5762 38.5718 71.2068 39 71.8254 39C72.4439 39 73 38.5523 73 38.5523L72.9403 36.3735C72.9403 36.3735 72.4368 36.7692 71.8254 36.7692C71.2139 36.7692 70.5762 36.336 70.5762 36.336L64.3734 32.65L63.9473 30.9963C63.9494 30.9456 63.9831 30.9019 64.0311 30.888L65.0815 30.5536C65.205 30.5548 65.3045 30.6569 65.3045 30.7825L65.3599 30.9003C65.3975 30.9205 65.5559 30.8418 65.568 30.8353V30.1853C65.5702 29.9682 65.4867 29.7593 65.3361 29.6055C65.1854 29.4516 64.9804 29.3657 64.7669 29.3671H63.7179C63.6056 29.1364 63.3716 28.9932 63.1185 29.0002H61.1258C60.5995 29.0002 60.4724 29.5058 60.4724 29.5058L59.089 35.2058L53.426 31.8347C53.426 31.8347 52.8124 31.4058 52.1725 31.4058C51.5326 31.4058 51 31.8528 51 31.8528L51.0597 34.0308C51.3812 33.7848 51.7703 33.6472 52.1725 33.6372C52.8117 33.6372 53.426 34.0705 53.426 34.0705L60.3929 38.215L61.9723 31.2339ZM51.0579 36.8426L51 34.4872C51 34.4872 51.5647 34 52.139 34C52.7133 34 53.3551 34.4614 53.3551 34.4614L60 38.8702L59.5691 41L53.3545 36.8801C53.3545 36.8801 52.7084 36.4164 52.1383 36.4164C51.5681 36.4164 51.0579 36.8426 51.0579 36.8426ZM51 37.5112L51.0617 39.9987C51.0617 39.9987 51.6052 39.5477 52.2126 39.5477C52.82 39.5477 53.5082 40.0424 53.5082 40.0424L59.5402 44L60 41.7524L53.5089 37.4898C53.5089 37.4898 52.8251 37 52.2133 37C51.6015 37 51 37.5112 51 37.5112ZM51 40.4579L51.0587 42.7142C51.0587 42.7142 51.5755 42.305 52.153 42.305C52.7306 42.305 53.385 42.7539 53.385 42.7539L58.5621 46L59 43.9599L53.385 40.4436C53.385 40.4436 52.7348 40 52.153 40C51.5713 40 51 40.4579 51 40.4579ZM63.626 37.4616L63 35L71.4071 39.4579C71.4071 39.4579 72.0483 39.8661 72.7434 39.8661C73.174 39.8601 73.5914 39.7304 73.9354 39.4957L74 41.5718C74 41.5718 73.3831 42 72.7434 42C72.1037 42 71.4071 41.587 71.4071 41.587L63.626 37.4616ZM64 38L64.6143 40.6208L71.4589 44.5604C71.4589 44.5604 72.1431 45 72.7693 45C73.3954 45 74 44.545 74 44.545L73.9419 42.3309C73.605 42.5823 73.1958 42.7221 72.773 42.7302C72.0917 42.7302 71.4626 42.2957 71.4626 42.2957L64 38ZM65.5998 43.7978L65 41L71.5203 45.1059C71.5203 45.1059 72.1353 45.5758 72.8005 45.5758C73.2136 45.5669 73.6133 45.4166 73.9418 45.1466L74 47.5105C74 47.5105 73.4097 48 72.7983 48C72.1869 48 71.5181 47.53 71.5181 47.53L65.5998 43.7978Z" fill="white"/>
<defs>
<filter id="filter0_d" x="0" y="0" width="176" height="88" filterUnits="userSpaceOnUse" color-interpolation-filters="sRGB">
<feFlood flood-opacity="0" result="BackgroundImageFix"/>
<feColorMatrix in="SourceAlpha" type="matrix" values="0 0 0 0 0 0 0 0 0 0 0 0 0 0 0 0 0 0 127 0"/>
<feOffset dy="6"/>
<feGaussianBlur stdDeviation="4"/>
<feColorMatrix type="matrix" values="0 0 0 0 0.027451 0 0 0 0 0.227451 0 0 0 0 0.380392 0 0 0 0.17 0"/>
<feBlend mode="normal" in2="BackgroundImageFix" result="effect1_dropShadow"/>
<feBlend mode="normal" in="SourceGraphic" in2="effect1_dropShadow" result="shape"/>
</filter>
</defs>
</svg>
