<svg width="176" height="88" viewBox="0 0 176 88" fill="none" xmlns="http://www.w3.org/2000/svg">
<g filter="url(#filter0_d)">
<rect x="8" y="2" width="160" height="72" rx="8" fill="#E7193F"/>
</g>
<path fill-rule="evenodd" clip-rule="evenodd" d="M82.2774 41C83.5322 41.4741 84.7818 41.984 86 42.5601C82.0987 44.0785 78.3276 45.8975 74.7226 48C73.5044 47.3882 72.2496 46.7764 71 46.236C74.6131 44.206 78.3838 42.4553 82.2774 41V41ZM77.0123 39C73.2023 40.2153 69.5153 41.7855 66 43.6897C67.116 44.1182 68.237 44.5419 69.3185 45C72.7088 42.9985 76.2861 41.3306 80 40.0197C79.0123 39.6601 78.0247 39.3005 77.0074 39.0049L77.0123 39ZM106.136 46.6833C106.191 46.8039 106.351 46.8816 106.524 46.8718C106.615 46.8817 106.707 46.8651 106.781 46.8255C106.821 46.7932 106.843 46.7516 106.844 46.7082C106.844 46.6121 106.747 46.5659 106.616 46.5659L106.388 46.5197C106.325 46.4948 106.228 46.4948 106.16 46.4485C106.096 46.3972 106.061 46.3297 106.063 46.26C106.063 46.0715 106.291 46.0004 106.514 46.0004C106.722 45.993 106.909 46.0919 106.966 46.2387L106.805 46.2636C106.805 46.1675 106.645 46.0964 106.48 46.0964C106.315 46.0964 106.223 46.1427 106.223 46.2387C106.223 46.3347 106.32 46.381 106.451 46.4059L106.645 46.4307C106.733 46.4506 106.819 46.4743 106.902 46.5019C106.968 46.5625 107.002 46.638 107 46.7153C107.005 46.7977 106.957 46.8772 106.869 46.9287C106.762 46.9769 106.639 47.0016 106.514 46.9998C106.273 47.0052 106.059 46.8869 106 46.7153L106.131 46.6904L106.136 46.6833ZM107.1 47H107V46H107.178L107.514 46.7978L107.795 46H108V47H107.873V46.1273V46.1273L107.541 47H107.436L107.1 46.1273V46.1273V47V47V47ZM90 40.829C86.9074 39.3158 83.7108 38.036 80.436 37C79.2569 37.3472 78.1133 37.7254 77 38.1036C80.3706 39.1409 83.6579 40.4435 86.8322 42C87.8747 41.5855 88.9221 41.2073 90 40.829V40.829ZM96 39.1363C92.8208 37.8719 89.5422 36.8236 86.1914 36C85.1055 36.1848 84.0553 36.4018 83 36.6467C86.3213 37.5314 89.5601 38.6527 92.6863 40C93.7722 39.6905 94.8937 39.3857 95.9796 39.1409L96 39.1363ZM104.196 42C96.2857 44.7331 88.8078 48.6381 82 53.5911C83.698 54.6682 85.3246 55.7818 86.9206 57C93.3473 51.7784 100.439 47.4812 108 44.2273C106.746 43.4273 105.486 42.6954 104.196 42V42ZM97.8074 39C89.6888 41.1811 81.9813 44.7277 75 49.4948C76.542 50.2835 78.084 51.1082 79.5957 52C86.4552 47.1456 94.0146 43.4185 102 40.9536C100.624 40.268 99.2486 39.5825 97.8074 39V39ZM75 23C76.9916 23 78 24.4884 78 26.4848C78 28.4811 77.022 30 75 30C72.978 30 72 28.5472 72 26.4848C72 24.4224 73.0135 23 75 23ZM75 28.6488C75.5422 28.6488 75.7753 28.1763 75.7753 26.4848C75.7753 24.9303 75.6081 24.3563 75 24.3563C74.3919 24.3563 74.2247 24.9303 74.2247 26.4848C74.2247 28.1763 74.4628 28.6488 75 28.6488ZM79.8398 24.6579H79V23.1158H79.8398V22.3474C79.8398 20.6316 80.6165 20 81.9709 20C82.3154 20.0146 82.659 20.0497 83 20.1053V21.8211C82.8742 21.7784 82.7434 21.7553 82.6117 21.7526C82.0631 21.7526 81.8689 22 81.8689 22.4158V23.1158H83V24.6579H81.8738V30H79.8398V24.6579ZM54.5337 25.0382C54.5337 24.6295 54.359 24.3588 53.9727 24.3588C53.4117 24.3588 53.2317 24.8338 53.2317 25.2425L51.2576 24.8338C51.5064 23.5415 52.7713 23 54.0415 23C55.3117 23 56.7883 23.5415 56.7883 25.0433V28.7825C56.7883 29.5283 56.8942 29.7683 57 29.8705H54.6925C54.6578 29.6676 54.6348 29.4629 54.6237 29.2575C54.1746 29.6907 53.5791 29.9536 52.946 29.9982C52.4063 30.0214 51.8828 29.8174 51.5111 29.4391C51.1394 29.0608 50.9562 28.5453 51.0089 28.0265C51.0301 26.2692 53.073 25.7584 54.5337 25.5796V25.0382ZM54.5337 26.637C53.761 26.7034 53.1577 27.0099 53.1577 27.863C53.1577 28.3381 53.4064 28.5781 53.8245 28.5781C54.1111 28.5516 54.3698 28.4014 54.5284 28.1695V26.637H54.5337ZM60.3313 25.117V30H58V23.169H60.2708L60.3313 23.8688V23.8688C60.8539 23.3158 61.5998 23.0005 62.3822 23.0019C62.8288 22.9803 63.2632 23.1442 63.5724 23.451C63.8817 23.7578 64.0353 24.1771 63.9932 24.6V30H61.6234V25.2998C61.6234 24.9185 61.4749 24.7096 61.0736 24.7096C60.7735 24.7298 60.5016 24.8851 60.3423 25.1274L60.3313 25.117ZM65 20H67.194V25.0697H67.23L68.8421 22.9614H71L69.182 25.1073L71 30H68.7391L67.6781 26.926H67.6421L67.194 27.4624V30H65V20V20V20ZM49.1667 24.7957C50.262 25.1227 51.0106 26.1503 50.9999 27.3118C50.9999 29.0269 49.6633 30 47.7667 30H44V20H47.8671C49.6263 20 50.7516 21.0753 50.7516 22.4355C50.7587 23.4652 50.1218 24.3856 49.1667 24.7258V24.7957ZM46.3932 28.1613H47.3071C47.6473 28.2013 47.9872 28.0837 48.2329 27.8409C48.4787 27.5981 48.6042 27.2559 48.575 26.9086C48.5984 26.5629 48.471 26.2242 48.2267 25.9828C47.9824 25.7415 47.646 25.6219 47.3071 25.6559H46.3932V28.1613V28.1613ZM46.3932 23.9731H47.2384C48.1154 23.9731 48.4694 23.4731 48.4694 22.8978C48.4694 21.9301 47.8354 21.7903 47.2754 21.7903H46.3932V23.9731ZM126.583 25.0369C126.583 24.6285 126.372 24.3579 125.988 24.3579C125.461 24.3579 125.287 24.8327 125.251 25.2411L123.323 24.8327C123.571 23.5411 124.829 23 126.093 23C127.357 23 128.826 23.5411 128.826 25.042V28.7788C128.78 29.1499 128.841 29.526 129 29.8662H126.72C126.685 29.6634 126.662 29.4589 126.651 29.2536C126.193 29.6985 125.582 29.9638 124.935 29.9989C124.399 30.017 123.882 29.8116 123.513 29.4347C123.144 29.0578 122.96 28.5457 123.007 28.0284C123.076 26.2978 125.114 25.7516 126.583 25.5831V25.0369V25.0369ZM126.583 26.6347C125.814 26.7011 125.214 27.0074 125.214 27.8599C125.214 28.3347 125.461 28.5746 125.846 28.5746C126.141 28.55 126.411 28.4006 126.583 28.1662V26.6347V26.6347ZM105.251 26.9919C105.214 27.5658 105.394 28.5816 106.306 28.5816C106.845 28.5589 107.296 28.1793 107.392 27.6674L108.9 28.1753C108.483 29.3001 107.36 30.037 106.121 29.9986C103.981 29.9986 103 28.3429 103 26.484C103 24.6252 104.054 23 106.09 23C108.23 23 109 24.7928 109 26.5551V26.997L105.251 26.9919ZM106.933 25.707C106.933 25.0975 106.865 24.356 106.09 24.356C105.457 24.356 105.214 25.0975 105.246 25.707H106.933ZM114 23H116V30H114V23V23V23ZM114 20H116V22H114V20V20V20ZM121.019 25.6713C121.038 25.3866 121.002 25.101 120.912 24.8289C120.839 24.549 120.573 24.3534 120.269 24.3569C119.519 24.3569 119.411 25.2348 119.411 26.5847C119.411 28.0716 119.663 28.5791 120.269 28.5791C121.051 28.5791 121.126 27.8026 121.126 27.2952L122.911 27.5337C122.734 29.1525 121.732 30 120.092 30C118.072 29.9949 117 28.3203 117 26.6507C117 24.8289 118.072 23.002 120.215 23.002C120.968 22.9739 121.699 23.2473 122.228 23.7552C122.757 24.2632 123.036 24.9587 122.996 25.6713H121.019ZM87.1212 20H90.1054L92 30H89.8209L89.469 27.9624H87.3767L86.9621 30H85L87.1212 20ZM87.666 26.2366H89.146L88.5 22.1452H88.4373L87.666 26.2366ZM109 23.1751H110.983V24.0777H111.017C111.461 23.3687 112.212 22.9616 113 23.0029V25.2257C112.736 25.1087 112.454 25.0502 112.169 25.0535C111.741 25.02 111.323 25.2145 111.05 25.5753V30H109V23.1751ZM98.5927 25.1221V30H96.4189V25.3047C96.4189 24.9239 96.3151 24.6787 95.9001 24.6787C95.6105 24.7091 95.3469 24.8606 95.1738 25.096V30H93V23.1762H95.1167L95.153 23.87V23.87C95.6783 23.3452 96.3795 23.0364 97.1193 23.004C97.7161 22.9782 98.2613 23.343 98.4682 23.9066H98.5045C98.9942 23.3449 99.6969 23.0172 100.44 23.004C100.861 22.9725 101.276 23.1272 101.575 23.4278C101.873 23.7285 102.027 24.1452 101.996 24.5691V30H99.8378V25.3047C99.8378 24.9239 99.734 24.6787 99.319 24.6787C99.0318 24.7167 98.771 24.8666 98.5927 25.096V25.1221ZM130 29.0161C129.991 28.464 130.431 28.0092 130.984 28.0001C131.536 27.9911 131.991 28.4313 132 28.9834C132.009 29.5356 131.569 29.9905 131.017 29.9996C130.75 30.007 130.493 29.9068 130.301 29.7217C130.11 29.5366 130.002 29.2823 130 29.0161V29.0161ZM130.18 29.0161C130.186 29.2298 130.278 29.432 130.436 29.5763C130.594 29.7206 130.803 29.7945 131.017 29.7811C131.224 29.7869 131.426 29.7093 131.576 29.5655C131.725 29.4217 131.811 29.2238 131.814 29.0161C131.819 28.8007 131.737 28.5925 131.587 28.4376C131.437 28.2827 131.232 28.194 131.017 28.1911C130.8 28.1852 130.589 28.2662 130.432 28.4159C130.275 28.5657 130.185 28.7719 130.18 28.9888V29.0161ZM131.952 29H131.754L131.395 28.5355H131.198V29H131V28.0012H131.557C131.652 27.996 131.748 28.008 131.838 28.0361C131.942 28.0811 132.006 28.1729 132 28.2708C132 28.4706 131.802 28.5355 131.599 28.5355L131.958 29H131.952ZM131.395 28.4007C131.557 28.4007 131.796 28.4357 131.796 28.2658C131.796 28.096 131.676 28.101 131.515 28.101H131.198V28.4007H131.395Z" fill="white"/>
<defs>
<filter id="filter0_d" x="0" y="0" width="176" height="88" filterUnits="userSpaceOnUse" color-interpolation-filters="sRGB">
<feFlood flood-opacity="0" result="BackgroundImageFix"/>
<feColorMatrix in="SourceAlpha" type="matrix" values="0 0 0 0 0 0 0 0 0 0 0 0 0 0 0 0 0 0 127 0"/>
<feOffset dy="6"/>
<feGaussianBlur stdDeviation="4"/>
<feColorMatrix type="matrix" values="0 0 0 0 0.905882 0 0 0 0 0.0980392 0 0 0 0 0.247059 0 0 0 0.17 0"/>
<feBlend mode="normal" in2="BackgroundImageFix" result="effect1_dropShadow"/>
<feBlend mode="normal" in="SourceGraphic" in2="effect1_dropShadow" result="shape"/>
</filter>
</defs>
</svg>
