<svg width="176" height="88" viewBox="0 0 176 88" fill="none" xmlns="http://www.w3.org/2000/svg">
<g filter="url(#filter0_d)">
<rect x="8" y="2" width="160" height="72" rx="8" fill="#041E7D"/>
</g>
<path fill-rule="evenodd" clip-rule="evenodd" d="M53 29V43.7392L65.4832 48L78 43.7392V29H53V29V29Z" fill="#DF1E3A"/>
<path fill-rule="evenodd" clip-rule="evenodd" d="M66 43.6936H62.1049V42.3429C61.3344 43.426 60.2318 44 58.6567 44C56.7837 44 55 42.8262 55 40.3535V33.0173H59.0441V38.6661C59.0441 39.8701 59.1931 40.7462 60.3808 40.7462C61.0364 40.7462 61.9559 40.4139 61.9559 38.6661V33H65.9957V43.6936H66Z" fill="white"/>
<path fill-rule="evenodd" clip-rule="evenodd" d="M73.3131 36.2442C73.2917 35.926 73.1243 35.639 72.8647 35.4754C72.6289 35.2463 72.3162 35.1262 71.996 35.1417C71.5196 35.1417 70.8791 35.2896 70.8791 35.9866C70.8897 36.2598 71.0741 36.4908 71.3275 36.5484C71.968 36.8441 73.3971 36.9032 74.6821 37.3932C75.8831 37.8157 77 38.5718 77 40.2826C77 43.2016 74.4019 44 71.972 44C69.6261 44 67.0801 42.9988 67 40.2826H70.6029C70.6453 40.655 70.8269 40.9942 71.1073 41.2247C71.4034 41.4345 71.7558 41.5382 72.1121 41.5204C72.5885 41.5204 73.3971 41.3429 73.3971 40.7262C73.3971 40.1094 73.0328 39.9616 71.2714 39.6363C68.3931 39.1041 67.2202 38.1029 67.2202 36.3329C67.2202 33.6801 69.9303 33 71.9159 33C74.0937 33 76.6677 33.621 76.7518 36.3034L73.3131 36.2442Z" fill="white"/>
<path fill-rule="evenodd" clip-rule="evenodd" d="M79 29H82.8506V33.8187H82.9078C83.561 32.9703 84.5837 32.479 85.663 32.495C89.0598 32.495 90 35.32 90 37.6769C90 40.183 88.602 43 85.7488 43C83.8644 43 83.2676 42.2695 82.7525 41.648H82.7239V42.7175H79V29ZM84.4039 35.2837C83.0346 35.2837 82.7198 36.5509 82.7198 37.7334C82.7198 38.9158 83.0346 40.2436 84.4039 40.2436C85.7733 40.2436 86.1167 38.9199 86.1167 37.7374C86.1167 36.5549 85.8019 35.2877 84.4039 35.2877V35.2837ZM99.5796 40.6152C99.5256 41.3467 99.6711 42.0793 100 42.7312H96.4114C96.315 42.4382 96.2705 42.13 96.28 41.821H96.2538C95.503 42.7312 94.3769 43 93.2508 43C91.4677 43 90 42.0899 90 40.1045C90 37.1283 93.4309 37.2089 95.2553 36.8594C95.7282 36.7788 96.2237 36.6444 96.2237 36.03C96.2237 35.4155 95.6456 35.1198 95.045 35.1198C93.9452 35.1198 93.735 35.6843 93.735 36.1106H90.4092C90.488 33.4224 92.9767 33 95.1764 33C99.6321 33 99.5796 34.8779 99.5796 36.725V40.6152V40.6152ZM96.2012 38.4724C95.7639 38.6967 95.2955 38.8508 94.8123 38.9293C94.0015 39.1175 93.5811 39.3134 93.5811 39.9739C93.5811 40.404 94.0541 40.8303 94.6809 40.8303C95.0753 40.8538 95.4614 40.7082 95.7464 40.4283C96.0314 40.1484 96.1894 39.7597 96.1824 39.3556V38.457L96.2012 38.4724ZM101 33.2206H104.873V34.4578H104.933C105.706 33.4965 106.752 33 108.392 33C110.271 33 112 34.0717 112 36.3018V43H107.986V37.8976C107.986 36.7431 107.837 35.9708 106.675 35.9708C105.958 35.9708 105.035 36.3018 105.035 37.8424V42.9842H101.013V33.2206H101ZM113 29H116.778V35.7838L119.184 32.7935H123.467L119.942 36.6487L124 43H119.436L117.451 39.3507L116.778 40.0962V43H113V29V29V29Z" fill="white"/>
<defs>
<filter id="filter0_d" x="0" y="0" width="176" height="88" filterUnits="userSpaceOnUse" color-interpolation-filters="sRGB">
<feFlood flood-opacity="0" result="BackgroundImageFix"/>
<feColorMatrix in="SourceAlpha" type="matrix" values="0 0 0 0 0 0 0 0 0 0 0 0 0 0 0 0 0 0 127 0"/>
<feOffset dy="6"/>
<feGaussianBlur stdDeviation="4"/>
<feColorMatrix type="matrix" values="0 0 0 0 0.0156863 0 0 0 0 0.117647 0 0 0 0 0.490196 0 0 0 0.17 0"/>
<feBlend mode="normal" in2="BackgroundImageFix" result="effect1_dropShadow"/>
<feBlend mode="normal" in="SourceGraphic" in2="effect1_dropShadow" result="shape"/>
</filter>
</defs>
</svg>
