<svg width="45" height="44" viewBox="0 0 45 44" fill="none" xmlns="http://www.w3.org/2000/svg">
<path d="M30.5 22L43 34.5C43.75 35.25 44.125 36.1667 44.125 37.25C44.125 38.3333 43.75 39.2917 43 40.125L40.25 42.875C39.4167 43.625 38.4583 44 37.375 44C36.2917 44 35.375 43.625 34.625 42.875L22.125 30.375L9.625 42.875C8.875 43.625 7.95833 44 6.875 44C5.79167 44 4.83333 43.625 4 42.875L1.25 40.125C0.5 39.2917 0.125 38.3333 0.125 37.25C0.125 36.1667 0.5 35.25 1.25 34.5L13.75 22L1.25 9.5C0.5 8.75 0.125 7.83333 0.125 6.75C0.125 5.66667 0.5 4.70833 1.25 3.875L4 1.125C4.83333 0.375 5.79167 0 6.875 0C7.95833 0 8.875 0.375 9.625 1.125L22.125 13.625L34.625 1.125C35.375 0.375 36.2917 0 37.375 0C38.4583 0 39.4167 0.375 40.25 1.125L43 3.875C43.75 4.70833 44.125 5.66667 44.125 6.75C44.125 7.83333 43.75 8.75 43 9.5L30.5 22Z" fill="#8776CC"/>
<path d="M30.5 22L43 34.5C43.75 35.25 44.125 36.1667 44.125 37.25C44.125 38.3333 43.75 39.2917 43 40.125L40.25 42.875C39.4167 43.625 38.4583 44 37.375 44C36.2917 44 35.375 43.625 34.625 42.875L22.125 30.375L9.625 42.875C8.875 43.625 7.95833 44 6.875 44C5.79167 44 4.83333 43.625 4 42.875L1.25 40.125C0.5 39.2917 0.125 38.3333 0.125 37.25C0.125 36.1667 0.5 35.25 1.25 34.5L13.75 22L1.25 9.5C0.5 8.75 0.125 7.83333 0.125 6.75C0.125 5.66667 0.5 4.70833 1.25 3.875L4 1.125C4.83333 0.375 5.79167 0 6.875 0C7.95833 0 8.875 0.375 9.625 1.125L22.125 13.625L34.625 1.125C35.375 0.375 36.2917 0 37.375 0C38.4583 0 39.4167 0.375 40.25 1.125L43 3.875C43.75 4.70833 44.125 5.66667 44.125 6.75C44.125 7.83333 43.75 8.75 43 9.5L30.5 22Z" fill="#E83939"/>
</svg>
