<?xml version="1.0" encoding="UTF-8"?>
<svg width="18px" height="18px" viewBox="0 0 18 18" version="1.1" xmlns="http://www.w3.org/2000/svg" xmlns:xlink="http://www.w3.org/1999/xlink">
    <!-- Generator: Sketch 52.2 (67145) - http://www.bohemiancoding.com/sketch -->
    <title>Nonprofit</title>
    <desc>Created with Sketch.</desc>
    <g id="Page-2" stroke="none" stroke-width="1" fill="none" fill-rule="evenodd">
        <g id="Project-Volunteer--&gt;-elements" transform="translate(-245.000000, -122.000000)">
            <g id="Nonprofit" transform="translate(246.000000, 123.000000)">
                <circle id="Oval-3" stroke="#FFFFFF" fill="#A994FF" fill-rule="nonzero" cx="8" cy="8" r="8.5"></circle>
                <g id="002-heart" transform="translate(3.500000, 2.500000)" fill="#FFFFFF">
                    <path d="M7.72749153,8.36402053 C7.24369249,8.85007598 5.44613317,9.34717659 4.21498547,9.31496715 C4.01234383,9.30970431 3.9496707,8.99002669 4.2302615,8.98494456 C4.80691525,8.97446407 4.89950847,9.03140657 6.1059661,8.75667762 C6.42353753,8.68439836 6.71192978,8.63088912 6.88831235,8.48750513 C7.16147215,8.26556263 7.11771429,7.73354209 6.62992736,7.63038604 C6.04874092,7.50746612 5.19025424,7.64280903 4.65860048,7.64280903 C4.12699031,7.64280903 3.92260533,7.25656674 3.1563632,7.30937577 C2.02273366,7.38748255 1.78851574,7.5060883 1.29752542,7.60474949 L1.29752542,7.55648049 C1.29752542,7.31585832 1.11778692,7.1207269 0.896121065,7.1207269 L0.409423729,7.1207269 C0.187714286,7.1207269 0.00801937046,7.31585832 0.00801937046,7.55648049 L0.00801937046,9.96927515 C0.00801937046,10.2098747 0.187714286,10.4049836 0.409423729,10.4049836 L0.896186441,10.4049836 C1.1178523,10.4049836 1.2975908,10.2098747 1.2975908,9.96927515 L1.2975908,9.92617864 C1.68548426,10.183809 3.05060775,11.0072505 4.62900726,10.9901068 C6.49954722,10.9696879 8.92063438,9.3349117 8.97969007,8.66138193 C9.03874576,7.98785216 8.21126877,7.87791992 7.72749153,8.36402053 Z" id="Path"></path>
                    <path d="M8.58124939,0.585349076 L8.09448668,0.585349076 C7.87279903,0.585349076 7.69308232,0.780457906 7.69308232,1.02105749 L7.69308232,1.064154 C7.30518886,0.806523614 5.94006538,-0.016963039 4.36166586,0.000271047228 C2.49112591,0.0206899384 0.0700823245,1.65546612 0.0109830508,2.32895072 C-0.0480726392,3.00241273 0.77942615,3.11234497 1.26320339,2.62631211 C1.74700242,2.14025667 3.54453995,1.64315606 4.77564407,1.67532033 C4.97830751,1.68060575 5.04098063,2.00023819 4.76041162,2.0053655 C4.18373608,2.01589117 4.09114286,1.95894867 2.88468523,2.23367762 C2.5671138,2.30595688 2.27872155,2.35946612 2.10231719,2.50282752 C1.8291138,2.72474743 1.87291525,3.25676797 2.36072397,3.3599692 C2.94191041,3.48288912 3.80041889,3.34756879 4.33205085,3.34756879 C4.86366102,3.34756879 5.068046,3.73376591 5.83430993,3.68095688 C6.96793947,3.60282752 7.20215738,3.48424435 7.6931477,3.38558316 L7.6931477,3.43385216 C7.6931477,3.67449692 7.87286441,3.86960575 8.09455206,3.86960575 L8.58131477,3.86960575 C8.80302421,3.86960575 8.98271913,3.67449692 8.98271913,3.43385216 L8.98271913,1.02105749 C8.98265375,0.780457906 8.80295884,0.585349076 8.58124939,0.585349076 Z" id="Path"></path>
                    <path d="M5.3698184,3.99625257 C5.08787651,3.99625257 4.83234625,4.11287064 4.64515496,4.3018809 C4.45796368,4.11287064 4.20243341,3.99625257 3.92049153,3.99625257 C3.3466707,3.99625257 2.88150363,4.47837782 2.88150363,5.07314579 C2.88150363,5.30401027 2.95184746,5.51773101 3.07117918,5.6930308 C3.11870702,5.77009856 3.17582324,5.84018686 3.24087167,5.90142094 L4.31862712,7.02021355 C4.42653995,7.1320883 4.53449637,7.24396304 4.64243099,7.24396304 C4.64332446,7.24396304 4.64423971,7.24380493 4.64513317,7.24380493 C4.64602663,7.24380493 4.64694189,7.24396304 4.64783535,7.24396304 C4.75576998,7.24396304 4.8637046,7.1320883 4.97161743,7.02021355 L6.04937288,5.90142094 C6.11442131,5.84018686 6.17153753,5.77014374 6.21906538,5.6930308 C6.33844068,5.51768583 6.40874092,5.30398768 6.40874092,5.07314579 C6.4088063,4.47835524 5.94363923,3.99625257 5.3698184,3.99625257 Z" id="Path"></path>
                </g>
            </g>
        </g>
    </g>
</svg>