<?xml version="1.0" encoding="UTF-8"?>
<svg width="18px" height="18px" viewBox="0 0 18 18" version="1.1" xmlns="http://www.w3.org/2000/svg" xmlns:xlink="http://www.w3.org/1999/xlink">
    <!-- Generator: Sketch 52.2 (67145) - http://www.bohemiancoding.com/sketch -->
    <title>Student</title>
    <desc>Created with Sketch.</desc>
    <g id="Page-2" stroke="none" stroke-width="1" fill="none" fill-rule="evenodd">
        <g id="Project-Volunteer--&gt;-elements" transform="translate(-214.000000, -121.000000)">
            <g id="Student" transform="translate(215.000000, 122.000000)">
                <circle id="Oval-3" stroke="#FFFFFF" fill="#4888D2" fill-rule="nonzero" cx="8" cy="8" r="8.5"></circle>
                <g id="001-students-cap" transform="translate(2.000000, 4.500000)" fill="#FFFFFF">
                    <path d="M5.99854545,4.70241739 L2.41971212,3.59611304 L2.41971212,4.68452174 L2.41971212,5.4438087 C2.41971212,6.29800652 4.02254545,6.99056522 5.99962121,6.99056522 C7.97659091,6.99056522 9.57969697,6.29800652 9.57969697,5.4438087 C9.57969697,5.43708261 9.5775,5.43032609 9.57736364,5.42375217 L9.57736364,3.59611304 L5.99854545,4.70241739 Z" id="Path"></path>
                    <path d="M0,2.32421304 L1.2785303,2.78355 L1.38748485,2.54918696 L1.85718182,2.50908913 L1.92415152,2.57907391 L1.52110606,2.67506522 L1.46236364,2.84968478 C1.46225758,2.84968478 0.551954545,4.76105 0.685651515,5.69609783 C0.685651515,5.69609783 1.25386364,6.03651087 1.82183333,5.69609783 L1.97277273,3.13957609 L1.97277273,2.92677609 L2.81822727,2.73521957 L2.75851515,2.88290435 L2.12815152,3.08878043 L2.41969697,3.19338478 L5.9985303,4.29968913 L9.57733333,3.19338478 L11.9970152,2.32422826 L5.9985303,0.00642173913 L0,2.32421304 Z" id="Path"></path>
                </g>
            </g>
        </g>
    </g>
</svg>