<svg xmlns="http://www.w3.org/2000/svg" width="10" height="11" fill="none">
  <path fill="#4788C7" d="M8.13 1.57H10V11H0V1.57h1.88V.94c0-.25.09-.47.27-.66A.9.9 0 0 1 2.81 0c.26 0 .48.1.67.28.18.19.27.4.27.66v.63h2.5V.94c0-.25.1-.47.28-.66A.9.9 0 0 1 7.19 0c.25 0 .48.1.66.28.18.19.28.4.28.66v.63zM2.5.94v1.57a.31.31 0 0 0 .2.3.3.3 0 0 0 .11.02.3.3 0 0 0 .3-.2.31.31 0 0 0 .02-.12V.94a.29.29 0 0 0-.1-.22.28.28 0 0 0-.22-.1.28.28 0 0 0-.22.1.29.29 0 0 0-.09.22zm4.38 0v1.57c0 .1.03.17.08.23.07.06.14.09.23.09.08 0 .16-.03.22-.09a.33.33 0 0 0 .09-.23V.94a.31.31 0 0 0-.2-.29.3.3 0 0 0-.11-.02.3.3 0 0 0-.3.2.31.31 0 0 0-.01.11zm2.5 9.43V4.1H.62v6.28h8.76zM3.12 4.71v1.26H1.88V4.71h1.25zm1.25 0h1.25v1.26H4.38V4.71zm2.5 1.26V4.71h1.25v1.26H6.88zm-3.75.63v1.26H1.88V6.6h1.25zm1.25 0h1.25v1.26H4.38V6.6zm2.5 1.26V6.6h1.25v1.26H6.88zm-3.75.63v1.25H1.88V8.5h1.25zm2.5 1.25H4.38V8.5h1.25v1.25zm2.5 0H6.88V8.5h1.25v1.25z"/>
</svg>
