<svg xmlns="http://www.w3.org/2000/svg" width="10" height="14" fill="none">
  <path fill="#4788C7" fill-rule="evenodd" d="M1.42 5.93C.06 3.18 2.32.87 5 .87c2.69 0 4.94 2.31 3.58 5.06A44.97 44.97 0 0 1 5 11.8l-1.01-1.5a44.97 44.97 0 0 1-2.57-4.37zm3.15 6.94l.43-.23.43.23c-.1.13-.26.2-.43.2a.53.53 0 0 1-.43-.2zm0 0l.43-.23.43.23.03-.04a31.98 31.98 0 0 0 .4-.56c.25-.37.62-.9 1.03-1.54.83-1.26 1.85-2.9 2.61-4.46C11.17 2.92 8.37 0 5 0S-1.17 2.92.5 6.27c.76 1.55 1.78 3.2 2.6 4.46a67.73 67.73 0 0 0 1.44 2.1l.02.03.01.01zM3.85 5a1.15 1.15 0 1 1 2.3 0 1.15 1.15 0 0 1-2.3 0zM5 3.08a1.92 1.92 0 1 0 0 3.84 1.92 1.92 0 0 0 0-3.84z" clip-rule="evenodd"/>
</svg>
