<svg width="30" height="30" viewBox="0 0 30 30" fill="none" xmlns="http://www.w3.org/2000/svg">
<path d="M29.7241 14.2891L15.7225 0.287464C15.5333 0.0982118 15.285 0.00545497 15.0377 0.00732412C15.0302 0.00732412 15.0246 0.00358582 15.017 0.00358582H0.962926C0.445715 0.00358582 0.0260124 0.423367 0.0260124 0.9405C0.0260124 0.947976 0.0297507 0.953584 0.0297507 0.961138C0.0288161 1.20849 0.121573 1.45678 0.30989 1.64603L13.6575 14.9937L0.281775 28.3693C-0.093925 28.745 -0.093925 29.3541 0.281775 29.7298C0.50475 29.9527 0.807397 30.0268 1.09688 29.9855H14.8802C15.1697 30.0267 15.4723 29.9527 15.6953 29.7298L29.7231 15.7019C29.918 15.5071 30.007 15.2503 29.9995 14.9945C30.0071 14.7406 29.9181 14.4839 29.7241 14.2891ZM14.5935 28.1117H3.26027L15.669 15.7029C15.8639 15.5081 15.9529 15.2513 15.9454 14.9955C15.9529 14.7407 15.8639 14.4839 15.669 14.2891L3.2584 1.87741H14.5963L27.7125 14.9936L14.5935 28.1117Z" fill="#1AAAFF"/>
</svg>
