<svg width="30" height="30" viewBox="0 0 30 30" fill="none" xmlns="http://www.w3.org/2000/svg">
<path d="M0.275932 14.2891L14.2775 0.287464C14.4667 0.0982118 14.715 0.00545497 14.9623 0.00732412C14.9698 0.00732412 14.9754 0.00358582 14.983 0.00358582H29.0371C29.5543 0.00358582 29.974 0.423367 29.974 0.9405C29.974 0.947976 29.9702 0.953584 29.9702 0.961138C29.9712 1.20849 29.8784 1.45678 29.6901 1.64603L16.3425 14.9937L29.7182 28.3693C30.0939 28.745 30.0939 29.3541 29.7182 29.7298C29.4953 29.9527 29.1926 30.0268 28.9031 29.9855H15.1198C14.8303 30.0267 14.5277 29.9527 14.3047 29.7298L0.276865 15.7019C0.0820065 15.5071 -0.00701332 15.2503 0.000463486 14.9945C-0.00709152 14.7406 0.0819283 14.4839 0.275932 14.2891ZM15.4065 28.1117H26.7397L14.331 15.7029C14.1361 15.5081 14.0471 15.2513 14.0546 14.9955C14.0471 14.7407 14.1361 14.4839 14.331 14.2891L26.7416 1.87741H15.4037L2.28753 14.9936L15.4065 28.1117Z" fill="#1AAAFF"/>
</svg>
