<svg width="26" height="26" viewBox="0 0 26 26" fill="none" xmlns="http://www.w3.org/2000/svg">
<path d="M15.327 22.5068H5.0998C4.84558 22.5068 4.63989 22.7125 4.63989 22.9667C4.63989 23.221 4.84558 23.4267 5.0998 23.4267H15.3268C15.581 23.4267 15.7867 23.221 15.7867 22.9667C15.7867 22.7125 15.5813 22.5068 15.327 22.5068Z" fill="#1AAAFF"/>
<path d="M15.327 22.5068H5.0998C4.84558 22.5068 4.63989 22.7125 4.63989 22.9667C4.63989 23.221 4.84558 23.4267 5.0998 23.4267H15.3268C15.581 23.4267 15.7867 23.221 15.7867 22.9667C15.7867 22.7125 15.5813 22.5068 15.327 22.5068Z" fill="#1AAAFF"/>
<path d="M15.327 17.6299H5.0998C4.84558 17.6299 4.63989 17.8359 4.63989 18.0898C4.63989 18.344 4.84558 18.55 5.0998 18.55H15.3268C15.581 18.55 15.7867 18.344 15.7867 18.0898C15.7867 17.8356 15.5813 17.6299 15.327 17.6299Z" fill="#1AAAFF"/>
<path d="M15.327 17.6299H5.0998C4.84558 17.6299 4.63989 17.8359 4.63989 18.0898C4.63989 18.344 4.84558 18.55 5.0998 18.55H15.3268C15.581 18.55 15.7867 18.344 15.7867 18.0898C15.7867 17.8356 15.5813 17.6299 15.327 17.6299Z" fill="#1AAAFF"/>
<path fill-rule="evenodd" clip-rule="evenodd" d="M25.0802 9.27969C25.0802 9.02547 25.2859 8.81978 25.5401 8.81978C25.7943 8.81978 26 9.02547 26 9.27969V22.7535C26 24.5434 24.5434 26 22.7532 26H3.24653C1.45658 26 0 24.5434 0 22.7532V3.24653C0 1.45658 1.45658 0 3.24653 0H17.1802C18.9702 0 20.4265 1.45658 20.4262 3.24653V22.7535C20.4262 24.0367 21.4702 25.0805 22.7532 25.0805C24.0367 25.0805 25.0802 24.0364 25.0802 22.7535V9.27969ZM0.919533 22.7532C0.919533 24.0364 1.96358 25.0802 3.24653 25.0802H20.492C19.8848 24.4894 19.5069 23.6649 19.5069 22.7532V3.24653C19.5069 1.96329 18.4632 0.919533 17.1802 0.919533H3.24653C1.96329 0.919533 0.919533 1.96358 0.919533 3.24653V22.7532Z" fill="#1AAAFF"/>
<path fill-rule="evenodd" clip-rule="evenodd" d="M25.0802 9.27969C25.0802 9.02547 25.2859 8.81978 25.5401 8.81978C25.7943 8.81978 26 9.02547 26 9.27969V22.7535C26 24.5434 24.5434 26 22.7532 26H3.24653C1.45658 26 0 24.5434 0 22.7532V3.24653C0 1.45658 1.45658 0 3.24653 0H17.1802C18.9702 0 20.4265 1.45658 20.4262 3.24653V22.7535C20.4262 24.0367 21.4702 25.0805 22.7532 25.0805C24.0367 25.0805 25.0802 24.0364 25.0802 22.7535V9.27969ZM0.919533 22.7532C0.919533 24.0364 1.96358 25.0802 3.24653 25.0802H20.492C19.8848 24.4894 19.5069 23.6649 19.5069 22.7532V3.24653C19.5069 1.96329 18.4632 0.919533 17.1802 0.919533H3.24653C1.96329 0.919533 0.919533 1.96358 0.919533 3.24653V22.7532Z" fill="#1AAAFF"/>
<path fill-rule="evenodd" clip-rule="evenodd" d="M6.0334 7.18018H14.3933C15.4151 7.18018 16.2465 8.01189 16.2465 9.0334V11.82C16.2465 12.8424 15.4151 13.6732 14.3933 13.6732H6.0334C5.01131 13.6732 4.18018 12.8424 4.18018 11.82V9.0334C4.18018 8.01189 5.01131 7.18018 6.0334 7.18018ZM14.3936 12.7531C14.9084 12.7531 15.327 12.3348 15.327 11.8197H15.3267V9.03311C15.3267 8.51802 14.9081 8.09971 14.3933 8.09971H6.0334C5.51831 8.09971 5.1 8.51802 5.1 9.03311V11.8197C5.1 12.3348 5.51831 12.7531 6.0334 12.7531H14.3936Z" fill="#1AAAFF"/>
<path fill-rule="evenodd" clip-rule="evenodd" d="M6.0334 7.18018H14.3933C15.4151 7.18018 16.2465 8.01189 16.2465 9.0334V11.82C16.2465 12.8424 15.4151 13.6732 14.3933 13.6732H6.0334C5.01131 13.6732 4.18018 12.8424 4.18018 11.82V9.0334C4.18018 8.01189 5.01131 7.18018 6.0334 7.18018ZM14.3936 12.7531C14.9084 12.7531 15.327 12.3348 15.327 11.8197H15.3267V9.03311C15.3267 8.51802 14.9081 8.09971 14.3933 8.09971H6.0334C5.51831 8.09971 5.1 8.51802 5.1 9.03311V11.8197C5.1 12.3348 5.51831 12.7531 6.0334 12.7531H14.3936Z" fill="#1AAAFF"/>
</svg>
