<svg width="28" height="23" viewBox="0 0 28 23" fill="none" xmlns="http://www.w3.org/2000/svg">
<path fill-rule="evenodd" clip-rule="evenodd" d="M27.0981 8.31143L15.7254 0.495392C15.2609 0.176219 14.6477 0 14 0C13.3516 0 12.7394 0.176219 12.2746 0.495392L0.901911 8.31143C0.387956 8.66469 0 9.36544 0 9.94083V11.0014C0 11.6816 0.625956 12.2347 1.39564 12.2347H3.34631C3.56969 12.2347 3.75138 12.3953 3.75138 12.5924V19.9105C3.75138 21.6139 5.32 23 7.24764 23H20.752C22.68 23 24.2486 21.6139 24.2486 19.9105V12.5924C24.2486 12.3953 24.4303 12.2347 24.6537 12.2347H26.6044C27.374 12.2347 28 11.6813 28 11.0014V9.94083C28 9.36544 27.612 8.66469 27.0981 8.31143ZM11.0441 22.1246V16.9936C11.0441 15.5531 12.3701 14.3817 14 14.3817C15.6299 14.3817 16.9558 15.5531 16.9558 16.9936V22.1246H11.0441ZM26.604 11.3599C26.8277 11.3599 27.0094 11.1991 27.0094 11.0017V9.94082C27.0094 9.63622 26.7615 9.18921 26.4902 9.00227L15.1172 1.18596C14.8297 0.988572 14.4225 0.875308 13.9997 0.875308C13.5769 0.875308 13.1697 0.988572 12.8825 1.18596L1.50952 9.00227C1.2373 9.18921 0.989962 9.63622 0.989962 9.94082V11.0014C0.989962 11.1988 1.17165 11.3596 1.39503 11.3596H3.3457C4.11538 11.3596 4.74134 11.9122 4.74134 12.5924V19.9105C4.74134 21.1314 5.86569 22.1247 7.24703 22.1247H10.0529V16.9937C10.0529 15.0704 11.8232 13.5062 13.9994 13.5062C16.1756 13.5062 17.9458 15.0707 17.9458 16.9937V22.1249H20.7517C22.134 22.1249 23.2577 21.1314 23.2577 19.9108V12.5926C23.2577 11.9128 23.8837 11.3599 24.6534 11.3599H26.604Z" fill="#1AAAFF"/>
</svg>
