<svg width="27" height="24" viewBox="0 0 27 24" fill="none" xmlns="http://www.w3.org/2000/svg">
<path fill-rule="evenodd" clip-rule="evenodd" d="M5.72156 6.20495C5.72156 2.84141 8.39483 0.104126 11.6813 0.104126C14.9678 0.104126 17.6411 2.84112 17.6411 6.20495C17.6411 9.56879 14.9678 12.3058 11.6813 12.3058C8.39483 12.3058 5.72156 9.56879 5.72156 6.20495ZM6.64524 6.20495C6.64524 9.0473 8.90456 11.36 11.6813 11.36C14.4578 11.36 16.7171 9.0473 16.7171 6.20495C16.7171 3.36261 14.4578 1.05021 11.6813 1.05021C8.90456 1.05021 6.64524 3.36261 6.64524 6.20495Z" fill="#1AAAFF"/>
<path fill-rule="evenodd" clip-rule="evenodd" d="M0.684204 20.8494C0.684204 19.0798 2.65986 14.4862 11.6812 14.4862C20.7025 14.4862 22.6776 19.0798 22.6779 20.8494C22.6779 22.5463 21.3106 23.5613 19.9889 23.5613H3.37315C2.0512 23.5613 0.684204 22.5463 0.684204 20.8494ZM3.37315 22.6152H19.9889C20.8445 22.6152 21.7536 21.9965 21.7539 20.8494C21.7539 19.444 19.9034 15.432 11.6812 15.432C3.45868 15.432 1.60817 19.444 1.60817 20.8494C1.60817 21.9965 2.51732 22.6152 3.37315 22.6152Z" fill="#1AAAFF"/>
<path d="M25.8801 8.85875H23.1387V6.05288C23.1387 5.79141 22.932 5.57983 22.6765 5.57983C22.4211 5.57983 22.2147 5.79141 22.2147 6.05288V8.85875H19.4736C19.2181 8.85875 19.0117 9.07032 19.0117 9.3315C19.0117 9.59268 19.2184 9.80454 19.4736 9.80454H22.2147V12.6101C22.2147 12.8716 22.4214 13.0832 22.6765 13.0832C22.932 13.0832 23.1387 12.8713 23.1387 12.6101V9.80454H25.8801C26.1355 9.80454 26.3419 9.59268 26.3419 9.3315C26.3419 9.07032 26.1352 8.85875 25.8801 8.85875Z" fill="#1AAAFF"/>
</svg>
