<svg width="25" height="25" viewBox="0 0 25 25" fill="none" xmlns="http://www.w3.org/2000/svg">
<path fill-rule="evenodd" clip-rule="evenodd" d="M25 4.46139C25 6.92111 22.9983 8.9225 20.5383 8.9225C18.9211 8.9225 17.5064 8.05472 16.7239 6.76278L8.52056 10.6594C8.77667 11.2211 8.92306 11.8433 8.92306 12.5C8.92306 13.1567 8.77639 13.7786 8.52056 14.3406L16.7236 18.2364C17.5061 16.945 18.9211 16.0769 20.5383 16.0769C22.9986 16.0769 25 18.0783 25 20.5383C25 22.9983 22.9986 25 20.5383 25C18.0786 25 16.0772 22.9983 16.0772 20.5386C16.0772 20.0108 16.1742 19.5061 16.3433 19.0353L8.07389 15.1075C7.26278 16.2283 5.94778 16.9617 4.46139 16.9617C2.00167 16.9617 0 14.9594 0 12.5C0 10.0397 2.00167 8.03833 4.46139 8.03833C5.94778 8.03833 7.26278 8.77167 8.07389 9.8925L16.3433 5.96472C16.1739 5.49417 16.0769 4.98944 16.0769 4.46167C16.0769 2.00111 18.0786 0 20.5383 0C22.9986 0 25 2.00111 25 4.46139ZM24.1156 4.46167C24.1156 2.48889 22.5111 0.884167 20.5383 0.884167C18.5661 0.884167 16.9617 2.48889 16.9614 4.46167C16.9614 6.43417 18.5658 8.03861 20.5383 8.03861C22.5111 8.03861 24.1156 6.43417 24.1156 4.46167ZM4.46139 16.0772C2.48889 16.0772 0.884444 14.4728 0.884444 12.5C0.884444 10.5272 2.48917 8.9225 4.46139 8.9225C6.43389 8.9225 8.03861 10.5272 8.03861 12.5C8.03861 14.4728 6.43389 16.0772 4.46139 16.0772ZM24.1156 20.5386C24.1156 18.5661 22.5111 16.9617 20.5383 16.9617C18.5661 16.9617 16.9617 18.5661 16.9614 20.5386C16.9614 22.5114 18.5658 24.1158 20.5383 24.1158C22.5111 24.1158 24.1156 22.5114 24.1156 20.5386Z" fill="#1AAAFF"/>
<path fill-rule="evenodd" clip-rule="evenodd" d="M25 4.46139C25 6.92111 22.9983 8.9225 20.5383 8.9225C18.9211 8.9225 17.5064 8.05472 16.7239 6.76278L8.52056 10.6594C8.77667 11.2211 8.92306 11.8433 8.92306 12.5C8.92306 13.1567 8.77639 13.7786 8.52056 14.3406L16.7236 18.2364C17.5061 16.945 18.9211 16.0769 20.5383 16.0769C22.9986 16.0769 25 18.0783 25 20.5383C25 22.9983 22.9986 25 20.5383 25C18.0786 25 16.0772 22.9983 16.0772 20.5386C16.0772 20.0108 16.1742 19.5061 16.3433 19.0353L8.07389 15.1075C7.26278 16.2283 5.94778 16.9617 4.46139 16.9617C2.00167 16.9617 0 14.9594 0 12.5C0 10.0397 2.00167 8.03833 4.46139 8.03833C5.94778 8.03833 7.26278 8.77167 8.07389 9.8925L16.3433 5.96472C16.1739 5.49417 16.0769 4.98944 16.0769 4.46167C16.0769 2.00111 18.0786 0 20.5383 0C22.9986 0 25 2.00111 25 4.46139ZM24.1156 4.46167C24.1156 2.48889 22.5111 0.884167 20.5383 0.884167C18.5661 0.884167 16.9617 2.48889 16.9614 4.46167C16.9614 6.43417 18.5658 8.03861 20.5383 8.03861C22.5111 8.03861 24.1156 6.43417 24.1156 4.46167ZM4.46139 16.0772C2.48889 16.0772 0.884444 14.4728 0.884444 12.5C0.884444 10.5272 2.48917 8.9225 4.46139 8.9225C6.43389 8.9225 8.03861 10.5272 8.03861 12.5C8.03861 14.4728 6.43389 16.0772 4.46139 16.0772ZM24.1156 20.5386C24.1156 18.5661 22.5111 16.9617 20.5383 16.9617C18.5661 16.9617 16.9617 18.5661 16.9614 20.5386C16.9614 22.5114 18.5658 24.1158 20.5383 24.1158C22.5111 24.1158 24.1156 22.5114 24.1156 20.5386Z" fill="#1AAAFF"/>
</svg>
