<svg width="22" height="23" viewBox="0 0 22 23" fill="none" xmlns="http://www.w3.org/2000/svg">
<path fill-rule="evenodd" clip-rule="evenodd" d="M11 0.125244C14.235 0.125244 16.8668 2.74334 16.8668 5.96142C16.8668 9.17899 14.235 11.7971 11 11.7971C7.76507 11.7971 5.13324 9.17899 5.13324 5.96142C5.13324 2.74334 7.76507 0.125244 11 0.125244ZM11 0.922874C8.20728 0.922874 5.93556 3.18324 5.93556 5.96142C5.93556 8.73909 8.20728 10.9995 11 10.9995C13.7928 10.9995 16.0645 8.73909 16.0645 5.96142C16.0645 3.18324 13.793 0.922874 11 0.922874Z" fill="#1AAAFF"/>
<path fill-rule="evenodd" clip-rule="evenodd" d="M11 0.125244C14.235 0.125244 16.8668 2.74334 16.8668 5.96142C16.8668 9.17899 14.235 11.7971 11 11.7971C7.76507 11.7971 5.13324 9.17899 5.13324 5.96142C5.13324 2.74334 7.76507 0.125244 11 0.125244ZM11 0.922874C8.20728 0.922874 5.93556 3.18324 5.93556 5.96142C5.93556 8.73909 8.20728 10.9995 11 10.9995C13.7928 10.9995 16.0645 8.73909 16.0645 5.96142C16.0645 3.18324 13.793 0.922874 11 0.922874Z" fill="#1AAAFF"/>
<path d="M16.9927 5.96143C16.9927 2.67419 14.3045 0 11 0V0.250512C14.1654 0.250512 16.7409 2.81252 16.7409 5.96143H16.9927ZM11 11.9224C14.3045 11.9224 16.9927 9.2482 16.9927 5.96143H16.7409C16.7409 9.10981 14.1654 11.6718 11 11.6718V11.9224ZM5.00732 5.96143C5.00732 9.2482 7.69554 11.9224 11 11.9224V11.6718C7.8346 11.6718 5.25915 9.10981 5.25915 5.96143H5.00732ZM11 0C7.69554 0 5.00732 2.67419 5.00732 5.96143H5.25915C5.25915 2.81252 7.8346 0.250512 11 0.250512V0ZM6.06147 5.96143C6.06147 3.25242 8.27683 1.04814 11 1.04814V0.79763C8.13772 0.79763 5.80964 3.11409 5.80964 5.96143H6.06147ZM11 10.8742C8.27683 10.8742 6.06147 8.66994 6.06147 5.96143H5.80964C5.80964 8.80827 8.13772 11.1247 11 11.1247V10.8742ZM15.9386 5.96143C15.9386 8.66994 13.7232 10.8742 11 10.8742V11.1247C13.8623 11.1247 16.1904 8.80827 16.1904 5.96143H15.9386ZM11 1.04814C13.7235 1.04814 15.9386 3.25242 15.9386 5.96143H16.1904C16.1904 3.11409 13.8626 0.79763 11 0.79763V1.04814Z" fill="#1AAAFF"/>
<path d="M16.9927 5.96143C16.9927 2.67419 14.3045 0 11 0V0.250512C14.1654 0.250512 16.7409 2.81252 16.7409 5.96143H16.9927ZM11 11.9224C14.3045 11.9224 16.9927 9.2482 16.9927 5.96143H16.7409C16.7409 9.10981 14.1654 11.6718 11 11.6718V11.9224ZM5.00732 5.96143C5.00732 9.2482 7.69554 11.9224 11 11.9224V11.6718C7.8346 11.6718 5.25915 9.10981 5.25915 5.96143H5.00732ZM11 0C7.69554 0 5.00732 2.67419 5.00732 5.96143H5.25915C5.25915 2.81252 7.8346 0.250512 11 0.250512V0ZM6.06147 5.96143C6.06147 3.25242 8.27683 1.04814 11 1.04814V0.79763C8.13772 0.79763 5.80964 3.11409 5.80964 5.96143H6.06147ZM11 10.8742C8.27683 10.8742 6.06147 8.66994 6.06147 5.96143H5.80964C5.80964 8.80827 8.13772 11.1247 11 11.1247V10.8742ZM15.9386 5.96143C15.9386 8.66994 13.7232 10.8742 11 10.8742V11.1247C13.8623 11.1247 16.1904 8.80827 16.1904 5.96143H15.9386ZM11 1.04814C13.7235 1.04814 15.9386 3.25242 15.9386 5.96143H16.1904C16.1904 3.11409 13.8626 0.79763 11 0.79763V1.04814Z" fill="#1AAAFF"/>
<path fill-rule="evenodd" clip-rule="evenodd" d="M2.74056 22.6713C1.45575 22.6713 0.125854 21.7126 0.125854 20.1093C0.125854 18.4156 2.07952 14.0199 10.9999 14.0199C19.9204 14.0199 21.874 18.4154 21.874 20.1093C21.874 21.7126 20.5444 22.6713 19.2593 22.6713H2.74056ZM21.072 20.1093C21.072 18.7365 19.2215 14.8178 10.9999 14.8178C2.77834 14.8178 0.92792 18.7365 0.92792 20.1093C0.92792 21.2552 1.86194 21.8737 2.74056 21.8737H19.2593C20.1379 21.8737 21.072 21.2552 21.072 20.1093Z" fill="#1AAAFF"/>
<path fill-rule="evenodd" clip-rule="evenodd" d="M2.74056 22.6713C1.45575 22.6713 0.125854 21.7126 0.125854 20.1093C0.125854 18.4156 2.07952 14.0199 10.9999 14.0199C19.9204 14.0199 21.874 18.4154 21.874 20.1093C21.874 21.7126 20.5444 22.6713 19.2593 22.6713H2.74056ZM21.072 20.1093C21.072 18.7365 19.2215 14.8178 10.9999 14.8178C2.77834 14.8178 0.92792 18.7365 0.92792 20.1093C0.92792 21.2552 1.86194 21.8737 2.74056 21.8737H19.2593C20.1379 21.8737 21.072 21.2552 21.072 20.1093Z" fill="#1AAAFF"/>
<path d="M0 20.1094C0 21.7942 1.39946 22.7966 2.74062 22.7966V22.5461C1.51215 22.5461 0.251826 21.631 0.251826 20.1094H0ZM11 13.8947C2.0343 13.8947 0 18.3246 0 20.1094H0.251826C0.251826 18.5067 2.12486 14.1452 11 14.1452V13.8947ZM22 20.1094C22 18.3243 19.9657 13.8947 11 13.8947V14.1452C19.8751 14.1452 21.7482 18.5065 21.7482 20.1094H22ZM19.2594 22.7966C20.6008 22.7966 22 21.7942 22 20.1094H21.7482C21.7482 21.631 20.4881 22.5461 19.2594 22.5461V22.7966ZM2.74062 22.7966H19.2594V22.5461H2.74062V22.7966ZM11 14.943C19.1836 14.943 20.9461 18.8333 20.9461 20.1094H21.1979C21.1979 18.6398 19.2597 14.6925 11 14.6925V14.943ZM1.05389 20.1094C1.05389 18.8333 2.81644 14.943 11 14.943V14.6925C2.74034 14.6925 0.802065 18.6398 0.802065 20.1094H1.05389ZM2.74062 21.7485C1.9148 21.7485 1.05389 21.1705 1.05389 20.1094H0.802065C0.802065 21.3399 1.80919 21.999 2.74062 21.999V21.7485ZM19.2594 21.7485H2.74062V21.999H19.2594V21.7485ZM20.9461 20.1094C20.9461 21.1705 20.0852 21.7485 19.2594 21.7485V21.999C20.1908 21.999 21.1979 21.3399 21.1979 20.1094H20.9461Z" fill="#1AAAFF"/>
<path d="M0 20.1094C0 21.7942 1.39946 22.7966 2.74062 22.7966V22.5461C1.51215 22.5461 0.251826 21.631 0.251826 20.1094H0ZM11 13.8947C2.0343 13.8947 0 18.3246 0 20.1094H0.251826C0.251826 18.5067 2.12486 14.1452 11 14.1452V13.8947ZM22 20.1094C22 18.3243 19.9657 13.8947 11 13.8947V14.1452C19.8751 14.1452 21.7482 18.5065 21.7482 20.1094H22ZM19.2594 22.7966C20.6008 22.7966 22 21.7942 22 20.1094H21.7482C21.7482 21.631 20.4881 22.5461 19.2594 22.5461V22.7966ZM2.74062 22.7966H19.2594V22.5461H2.74062V22.7966ZM11 14.943C19.1836 14.943 20.9461 18.8333 20.9461 20.1094H21.1979C21.1979 18.6398 19.2597 14.6925 11 14.6925V14.943ZM1.05389 20.1094C1.05389 18.8333 2.81644 14.943 11 14.943V14.6925C2.74034 14.6925 0.802065 18.6398 0.802065 20.1094H1.05389ZM2.74062 21.7485C1.9148 21.7485 1.05389 21.1705 1.05389 20.1094H0.802065C0.802065 21.3399 1.80919 21.999 2.74062 21.999V21.7485ZM19.2594 21.7485H2.74062V21.999H19.2594V21.7485ZM20.9461 20.1094C20.9461 21.1705 20.0852 21.7485 19.2594 21.7485V21.999C20.1908 21.999 21.1979 21.3399 21.1979 20.1094H20.9461Z" fill="#1AAAFF"/>
</svg>
