<svg width="28" height="30" viewBox="0 0 28 30" fill="none" xmlns="http://www.w3.org/2000/svg">
<path d="M0.895752 21.1593V24.1055C0.895752 24.4064 1.13966 24.6509 1.4412 24.6509H8.98017C9.2816 24.6509 9.52562 24.4063 9.52562 24.1055V21.1289L11.0773 22.1474V26.6618C11.0773 26.9628 11.3213 27.2072 11.6227 27.2072H14.3958C14.5417 27.2072 14.6802 27.1492 14.7831 27.0463C14.8859 26.9436 14.9424 26.804 14.9413 26.6586L14.8981 20.29C14.8971 20.1116 14.8092 19.9453 14.6617 19.8442L11.6572 17.7795L12.0135 17.29V17.4344C12.0135 17.736 12.2572 17.9798 12.5589 17.9798H18.5981C18.9001 17.9798 19.1435 17.7359 19.1435 17.4344V14.7481C19.1435 14.4469 18.9001 14.2027 18.5981 14.2027H15.4175V11.9319C15.4175 11.7545 15.3323 11.5889 15.1869 11.4863L11.937 9.18992C11.8448 9.12498 11.7351 9.09006 11.6223 9.09006H4.56081C4.25904 9.09006 4.01536 9.33453 4.01536 9.6355V15.831C4.01536 16.1308 4.25744 16.3743 4.55738 16.3763L5.56119 16.3823C5.51325 16.4658 5.48746 16.5623 5.48849 16.6593L5.52626 20.6143H1.4412C1.14023 20.6138 0.895752 20.8583 0.895752 21.1593ZM7.84283 12.6064H8.22952L7.84922 13.1444L7.84283 12.6064ZM1.98664 21.7047H6.07696C6.22271 21.7047 6.36172 21.6467 6.46478 21.5433C6.56728 21.44 6.62411 21.2998 6.6224 21.1545L6.58109 16.8244L9.72889 12.3764C9.84656 12.21 9.86128 11.9918 9.76747 11.8107C9.67422 11.6296 9.48704 11.5156 9.28297 11.5156H7.29077C7.14456 11.5156 7.00543 11.5739 6.90294 11.6778C6.80045 11.7814 6.74373 11.9215 6.74532 12.0677L6.77306 14.4605L6.14213 15.2947L5.10682 15.2889V10.1809H11.4505L14.3277 12.2145V14.7481C14.3277 15.0491 14.5717 15.2936 14.8731 15.2936H18.0537V16.8889H13.1048V15.6147C13.1048 15.3782 12.953 15.1692 12.7283 15.0959C12.5064 15.0235 12.2582 15.1026 12.1186 15.2936L10.4463 17.5899C10.36 17.7087 10.3247 17.8585 10.3497 18.0027C10.3741 18.148 10.4567 18.2764 10.5782 18.3607L13.8101 20.5825L13.8471 26.1174H12.1686V21.8535C12.1686 21.6703 12.0759 21.4988 11.9228 21.3975L9.28 19.6645C9.11245 19.5554 8.89857 19.5464 8.72143 19.6411C8.5451 19.7365 8.43564 19.9208 8.43564 20.1211V23.5621H1.98664V21.7047Z" fill="black"/>
<path d="M12.4802 7.54467C12.4802 9.35597 13.9539 10.8299 15.7656 10.8299C17.5767 10.8299 19.0506 9.35597 19.0506 7.54467C19.0506 5.73257 17.5767 4.25888 15.7656 4.25888C13.9539 4.25888 12.4802 5.73257 12.4802 7.54467ZM13.5711 7.54467C13.5711 6.33417 14.5555 5.34988 15.7656 5.34988C16.9749 5.34988 17.9598 6.33428 17.9598 7.54467C17.9598 8.75494 16.9749 9.739 15.7656 9.739C14.5555 9.73911 13.5711 8.75437 13.5711 7.54467Z" fill="black"/>
<path d="M8.29376 25.8995V29.1818C8.29376 29.6341 8.66024 30 9.11187 30H26.286C26.7376 30 27.1041 29.6341 27.1041 29.1818V0.818109C27.1041 0.365912 26.7376 0 26.286 0H9.15342C8.70168 0 8.33531 0.365912 8.33531 0.818109V7.94027H9.97164V1.63633H25.4678V28.3637H9.93009V25.8995H8.29376Z" fill="black"/>
</svg>
