<svg width="28" height="27" viewBox="0 0 28 27" fill="none" xmlns="http://www.w3.org/2000/svg">
<path fill-rule="evenodd" clip-rule="evenodd" d="M3.49624 0H8.74807C10.6757 0 12.2443 1.51259 12.2443 3.37138V8.43564C12.2443 10.2944 10.6757 11.8067 8.74807 11.8067H3.49624C1.56861 11.8067 0 10.2944 0 8.43564V3.37138C0 1.51259 1.56861 0 3.49624 0ZM8.74778 10.8518C10.1294 10.8518 11.2535 9.76763 11.2535 8.43564V3.37137C11.2535 2.03848 10.1291 0.95459 8.74778 0.95459H3.49595C2.114 0.95459 0.989967 2.03878 0.989967 3.37137V8.43564C0.989967 9.76793 2.11432 10.8518 3.49595 10.8518H8.74778Z" fill="#CCCCCC"/>
<path fill-rule="evenodd" clip-rule="evenodd" d="M19.2518 0H24.5036C26.4313 0 27.9999 1.51259 27.9999 3.37138V8.43564C27.9999 10.2944 26.4313 11.8067 24.5036 11.8067H19.2518C17.3242 11.8067 15.7556 10.2944 15.7556 8.43564V3.37138C15.7556 1.51259 17.3242 0 19.2518 0ZM24.5035 10.8518C25.8858 10.8518 27.0095 9.76763 27.0095 8.43564H27.0098V3.37137C27.0098 2.03848 25.8858 0.95459 24.5039 0.95459H19.252C17.8701 0.95459 16.7463 2.03878 16.7463 3.37137V8.43564C16.7463 9.76793 17.8704 10.8518 19.252 10.8518H24.5035Z" fill="#CCCCCC"/>
<path fill-rule="evenodd" clip-rule="evenodd" d="M3.49624 15.193H8.74807C10.6757 15.193 12.2443 16.7056 12.2443 18.5644V23.6286C12.2443 25.4874 10.6757 27 8.74807 27H3.49624C1.56861 27 0 25.4874 0 23.6286V18.5644C0 16.7056 1.56861 15.193 3.49624 15.193ZM8.74778 26.045C10.1294 26.045 11.2535 24.9608 11.2535 23.6285V18.5643C11.2535 17.2314 10.1291 16.1481 8.74778 16.1481H3.49595C2.114 16.1481 0.989967 17.2317 0.989967 18.5643V23.6285C0.989967 24.9611 2.11432 26.045 3.49595 26.045H8.74778Z" fill="#CCCCCC"/>
<path fill-rule="evenodd" clip-rule="evenodd" d="M19.2518 15.1929H24.5036C26.4313 15.1929 27.9999 16.7055 27.9999 18.5642V23.6285C27.9999 25.4873 26.4313 26.9999 24.5036 26.9999H19.2518C17.3242 26.9999 15.7556 25.4873 15.7556 23.6285V18.5642C15.7556 16.7055 17.3242 15.1929 19.2518 15.1929ZM24.5035 26.0449C25.8858 26.0449 27.0095 24.9607 27.0095 23.6284H27.0098V18.5641C27.0098 17.2312 25.8858 16.1479 24.5039 16.1479H19.252C17.8701 16.1479 16.7463 17.2315 16.7463 18.5641V23.6284C16.7463 24.961 17.8704 26.0449 19.252 26.0449H24.5035Z" fill="#CCCCCC"/>
</svg>
