<svg width="27" height="30" viewBox="0 0 27 30" fill="none" xmlns="http://www.w3.org/2000/svg">
<path fill-rule="evenodd" clip-rule="evenodd" d="M17.2362 9.54598H24.9481C25.709 9.54598 26.3286 10.1816 26.3289 10.9633V14.5087C26.3289 15.2901 25.709 15.9257 24.9481 15.9257H24.4327V28.3286C24.4327 29.11 23.8131 29.746 23.0519 29.746H3.94772C3.18651 29.746 2.56724 29.1096 2.56724 28.3286V15.9261H2.05214C1.29028 15.9261 0.671021 15.2901 0.671021 14.509V10.9633C0.671021 10.1816 1.2906 9.54598 2.05214 9.54598H9.77865C8.06379 9.02669 6.21265 8.16902 5.40221 6.78394C4.9646 6.03485 4.85978 5.20457 5.09131 4.31661C5.58863 2.41483 7.49944 1.28303 9.34995 1.79189C11.1788 2.29585 12.4075 4.75927 13.1459 6.89836C13.2615 6.88727 13.3796 6.88141 13.5 6.88141C13.5382 6.88141 13.5754 6.88356 13.6126 6.88568C13.6335 6.88688 13.6543 6.88809 13.6753 6.8889C14.5352 4.24457 15.9891 1.15329 18.1943 0.546317C20.3087 -0.0349049 22.4907 1.25891 23.0585 3.42994C23.3247 4.45027 23.2024 5.40211 22.6949 6.25978C21.6984 7.9438 19.3566 8.95334 17.2362 9.54598ZM15.5197 9.39212C15.2933 8.45817 14.574 7.91935 13.5 7.91935C12.4259 7.91935 11.7066 8.45817 11.4802 9.39212C11.4596 9.47688 11.5164 9.54631 11.6009 9.54631H15.399C15.4835 9.54631 15.5404 9.47688 15.5197 9.39212ZM10.3922 28.7081H3.94772C3.74384 28.7081 3.57807 28.5379 3.57807 28.3283V15.9257H10.3922V28.7081ZM10.3922 14.8888V10.5907V10.5836H2.05214C1.84826 10.5836 1.68217 10.7537 1.68217 10.9633V14.509C1.68217 14.7183 1.84826 14.8888 2.05214 14.8888H10.3922ZM10.6396 8.71374C8.40073 8.12273 6.85701 7.25499 6.26916 6.24965C5.97257 5.74407 5.90681 5.19903 6.06719 4.58487C6.41972 3.2363 7.77636 2.43342 9.08795 2.79428C10.1979 3.09972 11.2798 4.63735 12.1582 7.14448C11.4564 7.44438 10.9276 7.99005 10.6396 8.71374ZM11.4031 28.7081H15.5966V15.9257H11.4031V28.7081ZM15.5966 14.8888H11.4031V10.5907H15.5966V14.8888ZM18.4557 1.54903C17.0676 1.93108 15.7347 3.8899 14.6794 7.08091C15.4597 7.36224 16.0466 7.93173 16.3571 8.70657C19.161 8.01255 21.0969 6.9603 21.8308 5.72093C22.1944 5.10612 22.2767 4.44505 22.082 3.6992C21.659 2.08103 20.0343 1.1158 18.4557 1.54903ZM23.4216 28.3283C23.4216 28.5379 23.2561 28.7081 23.0519 28.7081H16.6077V15.9257H23.4216V28.3283ZM24.9481 14.8888C25.1517 14.8888 25.3175 14.7183 25.3175 14.509V10.9633C25.3175 10.7537 25.1517 10.5836 24.9481 10.5836H16.6077V10.5907V14.8888H24.9481Z" fill="#CCCCCC"/>
</svg>
