<svg width="29" height="21" viewBox="0 0 29 21" fill="none" xmlns="http://www.w3.org/2000/svg">
<path d="M22.2478 10.09C22.8468 10.09 23.3324 9.60439 23.3324 9.00538C23.3324 8.40637 22.8468 7.92078 22.2478 7.92078C21.6488 7.92078 21.1632 8.40637 21.1632 9.00538C21.1632 9.60439 21.6488 10.09 22.2478 10.09Z" fill="#8776CC"/>
<path d="M22.2478 10.09C22.8468 10.09 23.3324 9.60439 23.3324 9.00538C23.3324 8.40637 22.8468 7.92078 22.2478 7.92078C21.6488 7.92078 21.1632 8.40637 21.1632 9.00538C21.1632 9.60439 21.6488 10.09 22.2478 10.09Z" fill="#CCCCCC"/>
<path d="M17.5997 10.09C18.1987 10.09 18.6843 9.60439 18.6843 9.00538C18.6843 8.40637 18.1987 7.92078 17.5997 7.92078C17.0007 7.92078 16.5151 8.40637 16.5151 9.00538C16.5151 9.60439 17.0007 10.09 17.5997 10.09Z" fill="#8776CC"/>
<path d="M17.5997 10.09C18.1987 10.09 18.6843 9.60439 18.6843 9.00538C18.6843 8.40637 18.1987 7.92078 17.5997 7.92078C17.0007 7.92078 16.5151 8.40637 16.5151 9.00538C16.5151 9.60439 17.0007 10.09 17.5997 10.09Z" fill="#CCCCCC"/>
<path d="M11.5538 6.38268H9.69747V4.52635C9.69747 4.18319 9.41939 3.90479 9.07623 3.90479C8.73306 3.90479 8.45466 4.18286 8.45466 4.52635V6.38268H6.59801C6.25516 6.38268 5.97644 6.66076 5.97644 7.00425C5.97644 7.34774 6.25484 7.62614 6.59801 7.62614H8.45466V9.48214C8.45466 9.82499 8.73274 10.1037 9.07623 10.1037C9.41907 10.1037 9.69747 9.82531 9.69747 9.48214V7.62614H11.5538C11.897 7.62614 12.1757 7.34774 12.1757 7.00425C12.1757 6.66076 11.8973 6.38268 11.5538 6.38268Z" fill="#8776CC"/>
<path d="M11.5538 6.38268H9.69747V4.52635C9.69747 4.18319 9.41939 3.90479 9.07623 3.90479C8.73306 3.90479 8.45466 4.18286 8.45466 4.52635V6.38268H6.59801C6.25516 6.38268 5.97644 6.66076 5.97644 7.00425C5.97644 7.34774 6.25484 7.62614 6.59801 7.62614H8.45466V9.48214C8.45466 9.82499 8.73274 10.1037 9.07623 10.1037C9.41907 10.1037 9.69747 9.82531 9.69747 9.48214V7.62614H11.5538C11.897 7.62614 12.1757 7.34774 12.1757 7.00425C12.1757 6.66076 11.8973 6.38268 11.5538 6.38268Z" fill="#CCCCCC"/>
<path d="M19.9242 7.76299C20.5234 7.76299 21.0091 7.27724 21.0091 6.67806C21.0091 6.07889 20.5234 5.59314 19.9242 5.59314C19.325 5.59314 18.8392 6.07889 18.8392 6.67806C18.8392 7.27724 19.325 7.76299 19.9242 7.76299Z" fill="#8776CC"/>
<path d="M19.9242 7.76299C20.5234 7.76299 21.0091 7.27724 21.0091 6.67806C21.0091 6.07889 20.5234 5.59314 19.9242 5.59314C19.325 5.59314 18.8392 6.07889 18.8392 6.67806C18.8392 7.27724 19.325 7.76299 19.9242 7.76299Z" fill="#CCCCCC"/>
<path d="M19.9238 12.414C20.5229 12.414 21.0084 11.9284 21.0084 11.3294C21.0084 10.7303 20.5229 10.2448 19.9238 10.2448C19.3249 10.2448 18.8392 10.7303 18.8392 11.3294C18.8392 11.9284 19.3249 12.414 19.9238 12.414Z" fill="#8776CC"/>
<path d="M19.9238 12.414C20.5229 12.414 21.0084 11.9284 21.0084 11.3294C21.0084 10.7303 20.5229 10.2448 19.9238 10.2448C19.3249 10.2448 18.8392 10.7303 18.8392 11.3294C18.8392 11.9284 19.3249 12.414 19.9238 12.414Z" fill="#CCCCCC"/>
<path fill-rule="evenodd" clip-rule="evenodd" d="M8.59385 0H20.4059C24.5223 0 27.1961 5.11594 28.3265 9.90386C29.3589 14.2793 29.3405 19.2403 27.307 20.2569C26.726 20.5475 26.1947 20.6883 25.682 20.6883C24.0273 20.6883 23.0691 19.2085 22.1421 17.7771L22.1417 17.7764C21.6065 16.9489 21.0529 16.0941 20.3653 15.487C19.2855 14.5336 18.2267 14.4388 15.8906 14.4388L14.4999 14.442L13.1092 14.4388C10.7731 14.4388 9.71422 14.5336 8.63446 15.487C7.94683 16.0938 7.39325 16.9489 6.85804 17.7764L6.85652 17.7788C5.92962 19.2097 4.97181 20.6883 3.31777 20.6883C2.80479 20.6883 2.27377 20.5475 1.6928 20.2569C-0.340425 19.2403 -0.358792 14.279 0.673289 9.90386C1.80365 5.11594 4.4781 0 8.59385 0ZM25.682 19.6637C26.0268 19.6637 26.4192 19.5544 26.8484 19.3402C27.9939 18.7679 28.4596 14.9341 27.3286 10.1397C26.2884 5.73332 23.9239 1.02499 20.4062 1.02499H8.59418C5.07679 1.02499 2.71232 5.73332 1.67218 10.1397C0.54021 14.9341 1.00647 18.7679 2.15133 19.3402C2.58085 19.5544 2.97364 19.6637 3.3181 19.6637C4.41488 19.663 5.14823 18.5306 5.99719 17.2196L5.99738 17.2193C6.57029 16.3338 7.16286 15.4187 7.95585 14.7185C9.36203 13.476 10.8307 13.4129 13.1092 13.4129L14.4999 13.4161L15.8909 13.4129C18.1697 13.4129 19.6381 13.4763 21.0442 14.7182C21.8372 15.4187 22.4298 16.3338 23.0027 17.2193C23.8514 18.5311 24.5848 19.6637 25.682 19.6637Z" fill="#8776CC"/>
<path fill-rule="evenodd" clip-rule="evenodd" d="M8.59385 0H20.4059C24.5223 0 27.1961 5.11594 28.3265 9.90386C29.3589 14.2793 29.3405 19.2403 27.307 20.2569C26.726 20.5475 26.1947 20.6883 25.682 20.6883C24.0273 20.6883 23.0691 19.2085 22.1421 17.7771L22.1417 17.7764C21.6065 16.9489 21.0529 16.0941 20.3653 15.487C19.2855 14.5336 18.2267 14.4388 15.8906 14.4388L14.4999 14.442L13.1092 14.4388C10.7731 14.4388 9.71422 14.5336 8.63446 15.487C7.94683 16.0938 7.39325 16.9489 6.85804 17.7764L6.85652 17.7788C5.92962 19.2097 4.97181 20.6883 3.31777 20.6883C2.80479 20.6883 2.27377 20.5475 1.6928 20.2569C-0.340425 19.2403 -0.358792 14.279 0.673289 9.90386C1.80365 5.11594 4.4781 0 8.59385 0ZM25.682 19.6637C26.0268 19.6637 26.4192 19.5544 26.8484 19.3402C27.9939 18.7679 28.4596 14.9341 27.3286 10.1397C26.2884 5.73332 23.9239 1.02499 20.4062 1.02499H8.59418C5.07679 1.02499 2.71232 5.73332 1.67218 10.1397C0.54021 14.9341 1.00647 18.7679 2.15133 19.3402C2.58085 19.5544 2.97364 19.6637 3.3181 19.6637C4.41488 19.663 5.14823 18.5306 5.99719 17.2196L5.99738 17.2193C6.57029 16.3338 7.16286 15.4187 7.95585 14.7185C9.36203 13.476 10.8307 13.4129 13.1092 13.4129L14.4999 13.4161L15.8909 13.4129C18.1697 13.4129 19.6381 13.4763 21.0442 14.7182C21.8372 15.4187 22.4298 16.3338 23.0027 17.2193C23.8514 18.5311 24.5848 19.6637 25.682 19.6637Z" fill="#CCCCCC"/>
</svg>
