<svg width="24" height="24" viewBox="0 0 24 24" fill="none" xmlns="http://www.w3.org/2000/svg">
<g clip-path="url(#clip0)">
<path d="M5.14845 23.2598L4.44275 22.2657C4.29294 22.0546 4.0003 22.005 3.78918 22.1548C3.5781 22.3047 3.52841 22.5973 3.67832 22.8084L4.38402 23.8025C4.47542 23.9312 4.61989 23.9999 4.76666 23.9999C4.8605 23.9999 4.95523 23.9718 5.03759 23.9133C5.24867 23.7635 5.29836 23.4709 5.14845 23.2598Z" fill="#1AAAFF"/>
<path d="M10.5574 23.4349L9.78945 19.7745C9.416 17.9946 8.37913 16.4555 6.86995 15.4407L5.23022 14.3381C4.57271 13.8961 3.68893 13.9911 3.13937 14.5515V8.90331C3.13937 8.16194 2.63392 7.53203 1.91017 7.37139C1.44306 7.26761 0.961285 7.38002 0.588114 7.67941C0.214991 7.9788 0.00100708 8.4249 0.00100708 8.90331V16.1713C0.00100708 17.1235 0.292381 18.0372 0.843582 18.8137L1.6795 19.9913C1.77091 20.12 1.91537 20.1887 2.06214 20.1887C2.15598 20.1887 2.25072 20.1606 2.33308 20.1021C2.54415 19.9523 2.59384 19.6597 2.44394 19.4485L1.60802 18.271C1.17002 17.654 0.938503 16.9279 0.938503 16.1713V8.90331C0.938503 8.71075 1.02466 8.53117 1.17485 8.41061C1.32499 8.29009 1.51891 8.24486 1.70706 8.28662C1.99839 8.35126 2.20187 8.60486 2.20187 8.90331V14.6697C2.20187 15.4859 2.50178 16.2636 3.0466 16.8687C3.06995 16.8967 3.09395 16.9244 3.11931 16.9512C3.4306 17.2811 3.7966 17.6698 4.14132 18.0362L4.6239 18.5498C4.62544 18.5514 4.62713 18.5528 4.62872 18.5544C5.04155 18.9935 5.346 19.3177 5.35238 19.3245C5.52952 19.5131 5.82623 19.5225 6.01495 19.3453C6.20367 19.168 6.213 18.8714 6.03572 18.6827C6.02719 18.6736 5.47847 18.0893 4.85185 17.4233L3.77705 16.2794C3.77434 16.2765 3.77185 16.2734 3.76913 16.2705C3.51713 15.9691 3.52027 15.5321 3.78441 15.2339C4.01809 14.9702 4.41483 14.9196 4.70719 15.1161L6.34683 16.2187C7.6522 17.0964 8.54896 18.4276 8.87193 19.967L9.63997 23.6274C9.68633 23.8484 9.88119 24 10.0983 24C10.1301 24 10.1625 23.9967 10.195 23.9899C10.4483 23.9368 10.6106 23.6882 10.5574 23.4349Z" fill="#1AAAFF"/>
<path d="M3.47289 20.8995L3.46989 20.8953C3.31942 20.6845 3.02674 20.6356 2.81603 20.786C2.60533 20.9364 2.55639 21.2291 2.70672 21.4398L2.70972 21.444C2.80122 21.5722 2.94536 21.6406 3.0917 21.6406C3.18592 21.6406 3.28103 21.6122 3.36358 21.5533C3.57423 21.4029 3.62322 21.1102 3.47289 20.8995Z" fill="#1AAAFF"/>
<path d="M23.4128 7.67945C23.0397 7.38006 22.5577 7.26785 22.0908 7.37144C21.367 7.53203 20.8615 8.16198 20.8615 8.90335V14.5516C20.312 13.9912 19.4282 13.8961 18.7707 14.3382L17.131 15.4407C15.6217 16.4555 14.5849 17.9946 14.2115 19.7745L13.4435 23.4349C13.3903 23.6883 13.5526 23.9368 13.8059 23.9899C13.8384 23.9967 13.8708 24 13.9026 24C14.1198 24 14.3146 23.8483 14.3609 23.6274L15.1289 19.967C15.452 18.4276 16.3487 17.0964 17.654 16.2187L19.2938 15.1161C19.586 14.9196 19.9828 14.9702 20.2165 15.2339C20.4804 15.5317 20.4839 15.968 20.2328 16.2695C20.2298 16.2727 20.227 16.2761 20.224 16.2794C20.224 16.2794 17.9737 18.6737 17.9652 18.6827C17.788 18.8714 17.7973 19.168 17.986 19.3453C18.1747 19.5225 18.4714 19.5132 18.6486 19.3245C18.655 19.3177 20.5704 17.2812 20.8817 16.9513C20.907 16.9244 20.931 16.8967 20.9544 16.8687C21.4991 16.2637 21.7991 15.486 21.7991 14.6697V8.90331C21.7991 8.60486 22.0026 8.35126 22.2939 8.28662C22.4821 8.2449 22.6759 8.29014 22.8262 8.41061C22.9763 8.53112 23.0625 8.7107 23.0625 8.90331V16.1713C23.0625 16.928 22.831 17.654 22.393 18.2711L18.8516 23.2598C18.7017 23.4709 18.7513 23.7635 18.9624 23.9134C19.0448 23.9718 19.1395 24 19.2333 24C19.3801 24 19.5246 23.9312 19.616 23.8025L23.1574 18.8138C23.7086 18.0373 24 17.1236 24 16.1714V8.90331C23.9999 8.4249 23.7859 7.97884 23.4128 7.67945Z" fill="#1AAAFF"/>
<path d="M17.937 8.98403L17.1031 8.78481V8.63528C17.6451 8.25559 18.0005 7.62686 18.0005 6.91633V5.83216C18.0005 4.67534 17.0594 3.73423 15.9025 3.73423C15.3834 3.73423 14.9081 3.92417 14.5414 4.23767C14.1331 3.23783 13.1507 2.53124 12.0058 2.53124C10.8596 2.53124 9.87613 3.23966 9.46879 4.24142C9.10153 3.92567 8.62448 3.73414 8.10323 3.73414C6.94641 3.73414 6.00531 4.67525 6.00531 5.83207V5.90412V6.91624C6.00531 7.62676 6.36071 8.2555 6.90272 8.63518V8.78471L6.06877 8.98393C5.07306 9.22182 4.37762 10.1029 4.37762 11.1267V12.0021C4.37762 12.261 4.58753 12.4709 4.84637 12.4709H7.00036C6.99704 12.5277 6.99474 12.5849 6.99474 12.6425V14.328C6.99474 14.5869 7.20464 14.7967 7.46349 14.7967H10.2811C10.54 14.7967 10.7499 14.5869 10.7499 14.328C10.7499 14.0691 10.54 13.8592 10.2811 13.8592H9.79682V12.8906C9.79682 12.6317 9.58692 12.4218 9.32807 12.4218C9.06923 12.4218 8.85933 12.6317 8.85933 12.8906V13.8593H7.93228V12.6426C7.93228 11.7385 8.54634 10.9599 9.42543 10.7493L10.7118 10.441L11.5726 12.3996C11.6474 12.5698 11.8158 12.6797 12.0017 12.6797H12.0017C12.1876 12.6797 12.356 12.5698 12.4308 12.3996L13.2908 10.444L14.573 10.7503C15.453 10.9605 16.0675 11.7392 16.0675 12.6439V13.8593H15.1405V12.8906C15.1405 12.6317 14.9306 12.4218 14.6718 12.4218C14.4129 12.4218 14.203 12.6317 14.203 12.8906V13.8593H13.6718C13.4129 13.8593 13.203 14.0692 13.203 14.3281C13.203 14.587 13.4129 14.7968 13.6718 14.7968H16.5363C16.7952 14.7968 17.0051 14.587 17.0051 14.3281V12.6439C17.0051 12.5858 17.0027 12.5283 16.9994 12.4709H19.1595C19.4183 12.4709 19.6282 12.2611 19.6282 12.0022V11.1268C19.6282 10.103 18.9328 9.22187 17.937 8.98403ZM15.9025 4.67164C16.5167 4.67164 17.0209 5.15121 17.0604 5.75552H16.4087C15.8609 5.75552 15.3217 5.62362 14.8371 5.37246C15.0153 4.96053 15.4259 4.67164 15.9025 4.67164ZM14.7421 6.8478C14.7427 6.82497 14.7438 6.80224 14.7438 6.77927V6.3618C15.2698 6.57949 15.8355 6.69302 16.4087 6.69302H17.063V6.91628C17.063 7.55612 16.5424 8.07672 15.9025 8.07672C15.2627 8.07672 14.7421 7.55612 14.7421 6.91624V6.8478ZM10.2054 5.2692C10.2054 4.27643 11.013 3.46873 12.0058 3.46873C12.9013 3.46873 13.6461 4.12583 13.7836 4.98307L12.9945 4.51943C12.7971 4.40347 12.5448 4.44701 12.3978 4.62256C12.0121 5.08277 11.4466 5.34673 10.8461 5.34673H10.2054V5.2692ZM8.10328 4.67164C8.57995 4.67164 8.99043 4.96057 9.16875 5.37241C8.68406 5.62357 8.14495 5.75548 7.59708 5.75548H6.94538C6.98494 5.15121 7.48917 4.67164 8.10328 4.67164ZM6.94285 6.69297H7.59708C8.17097 6.69297 8.73722 6.57921 9.26371 6.36105V6.91619C9.26371 7.55603 8.74317 8.07662 8.10328 8.07662C7.46339 8.07662 6.94285 7.55612 6.94285 6.91624V6.69297ZM9.207 9.83757C8.28478 10.0585 7.56 10.7015 7.21505 11.5334H5.31512V11.1267C5.31512 10.5386 5.71459 10.0324 6.2866 9.89579L7.48041 9.6106C7.69139 9.56021 7.84027 9.37163 7.84027 9.1547V8.9971C7.92652 9.00793 8.01417 9.01416 8.10328 9.01416C8.19173 9.01416 8.27878 9.00802 8.36437 8.99734V9.13107C8.36405 9.13806 8.36391 9.14504 8.36386 9.15202C8.36376 9.30582 8.43937 9.45648 8.57822 9.54629C8.63053 9.58018 8.68706 9.60221 8.74476 9.61322L9.444 9.78076L9.207 9.83757ZM10.5145 9.10988C10.3941 9.05677 10.2686 9.01431 10.1392 8.98332L9.30182 8.78265V8.63659C9.45295 8.53098 9.58959 8.40615 9.70809 8.26543C9.91743 8.58793 10.1925 8.8637 10.5145 9.07374V9.10988ZM12.5504 9.79861L12.0019 11.0462L11.4521 9.79543V9.46093C11.631 9.49782 11.8162 9.51727 12.0058 9.51727C12.1923 9.51727 12.3743 9.49838 12.5504 9.46271V9.79861ZM12.0058 8.57973C11.013 8.57978 10.2054 7.77208 10.2054 6.77927V6.28418H10.8461C11.5895 6.28418 12.2962 6.00776 12.8379 5.51473L13.8046 6.08266V6.84785C13.7684 7.80892 12.9757 8.57973 12.0058 8.57973ZM13.4879 9.11138V9.07965C13.8125 8.86974 14.09 8.59328 14.301 8.26937C14.4187 8.4085 14.5542 8.53196 14.7039 8.63659V8.78265L13.8664 8.98332C13.7359 9.01463 13.6093 9.05762 13.4879 9.11138ZM18.6907 11.5334H16.7843C16.439 10.7015 15.7137 10.0589 14.7909 9.83846L14.5556 9.78226L15.2585 9.61379C15.317 9.60291 15.3745 9.5806 15.4275 9.54629C15.5661 9.45662 15.6415 9.30596 15.6415 9.15216C15.6415 9.14851 15.6415 9.1448 15.6414 9.14115V8.99734C15.727 9.00802 15.814 9.01416 15.9025 9.01416C15.9916 9.01416 16.0792 9.00793 16.1655 8.9971V9.1547C16.1655 9.37163 16.3143 9.56021 16.5253 9.6106L17.7191 9.89579C18.2911 10.0325 18.6907 10.5386 18.6907 11.1267V11.5334Z" fill="#1AAAFF"/>
<path d="M12.3313 13.9964C12.2437 13.9092 12.1232 13.8595 12 13.8595C11.8762 13.8595 11.7557 13.9092 11.6686 13.9964C11.5809 14.084 11.5312 14.2045 11.5312 14.3282C11.5312 14.4515 11.5809 14.572 11.6686 14.6596C11.7557 14.7468 11.8762 14.797 12 14.797C12.1232 14.797 12.2437 14.7468 12.3313 14.6596C12.4185 14.572 12.4687 14.4515 12.4687 14.3282C12.4687 14.2045 12.4186 14.084 12.3313 13.9964Z" fill="#1AAAFF"/>
<path d="M11.9996 0C11.7408 0 11.5309 0.209859 11.5309 0.468748V1.17014C11.5309 1.42903 11.7408 1.63888 11.9996 1.63888C12.2585 1.63888 12.4684 1.42903 12.4684 1.17014V0.468748C12.4684 0.209859 12.2585 0 11.9996 0Z" fill="#1AAAFF"/>
<path d="M10.2729 1.52902L9.78122 1.03777C9.59807 0.854774 9.30131 0.854915 9.11831 1.03805C8.93531 1.2212 8.9355 1.51801 9.11864 1.70096L9.6104 2.19221C9.7019 2.28366 9.82181 2.32936 9.94167 2.32936C10.0617 2.32936 10.1817 2.28352 10.2733 2.19193C10.4562 2.00879 10.4561 1.71197 10.2729 1.52902Z" fill="#1AAAFF"/>
<path d="M14.8698 1.04977C14.6866 0.866822 14.3898 0.866915 14.2069 1.0501L13.7189 1.53849C13.536 1.72163 13.5361 2.01844 13.7193 2.2014C13.8108 2.29285 13.9307 2.33855 14.0506 2.33855C14.1706 2.33855 14.2907 2.29271 14.3822 2.20107L14.8701 1.71268C15.0531 1.52954 15.0529 1.23273 14.8698 1.04977Z" fill="#1AAAFF"/>
</g>
<defs>
<clipPath id="clip0">
<rect width="24" height="24" fill="white"/>
</clipPath>
</defs>
</svg>
