<svg width="28" height="27" viewBox="0 0 28 27" fill="none" xmlns="http://www.w3.org/2000/svg">
<path fill-rule="evenodd" clip-rule="evenodd" d="M19.4911 8.0161L26.2772 9.00288C27.4572 9.17438 27.8228 9.78294 27.9357 10.1303C28.0483 10.4774 28.1099 11.1846 27.2563 12.017L22.3455 16.8073C22.1218 17.0255 21.96 17.5236 22.0129 17.832L23.1721 24.5959C23.3276 25.5036 23.0806 26.0259 22.8457 26.3045C22.586 26.613 22.202 26.7826 21.7652 26.7826C21.4072 26.7826 21.0183 26.6734 20.6095 26.4586L14.5389 23.2655C14.277 23.1276 13.7232 23.1276 13.4618 23.2655L7.39063 26.4586C6.48315 26.9364 5.62729 26.8657 5.15443 26.3045C4.91954 26.0262 4.67252 25.5032 4.82838 24.5959L5.98724 17.8324C6.04013 17.5236 5.87866 17.0255 5.65466 16.8076L0.743565 12.017C-0.11042 11.1846 -0.0481989 10.4777 0.0644215 10.1303C0.17673 9.78294 0.54259 9.17438 1.72261 9.00288L8.50873 8.0161C8.81891 7.97097 9.24233 7.66313 9.38047 7.38266L12.4159 1.22925C12.9436 0.159687 13.6348 0 14.0001 0C14.3653 0 15.0566 0.159687 15.5842 1.22956L18.6197 7.38266C18.7581 7.66313 19.1809 7.97066 19.4911 8.0161ZM21.6542 16.0979L26.565 11.3073C26.9035 10.9776 27.0634 10.6517 26.9931 10.4363C26.9227 10.2209 26.602 10.0519 26.1344 9.98372L19.3477 8.99665C18.7108 8.90419 18.0155 8.39868 17.7308 7.82155L14.6957 1.66815C14.4866 1.24388 14.2262 0.990807 13.9998 0.990807C13.7733 0.990807 13.5129 1.24419 13.3038 1.66815L10.2687 7.82155C9.98402 8.39868 9.28838 8.90388 8.65122 8.99665L1.8651 9.98372C1.39751 10.0519 1.07676 10.2209 1.00645 10.4363C0.936448 10.6523 1.09667 10.9776 1.43515 11.3073L6.34657 16.0979C6.80733 16.5468 7.07299 17.3645 6.9641 17.9998L5.80524 24.7627C5.73493 25.1727 5.77413 25.5017 5.91226 25.6657C5.9384 25.6969 6.01866 25.7918 6.23613 25.7918C6.37022 25.7918 6.60013 25.7557 6.93081 25.5814L13.0008 22.3876C13.2749 22.2438 13.6298 22.1641 14.0004 22.1641C14.3709 22.1641 14.7259 22.2438 15.0003 22.3876L21.0706 25.5814C21.401 25.7557 21.6305 25.7918 21.7652 25.7918C21.9824 25.7918 22.0624 25.6972 22.0888 25.6657C22.2272 25.5017 22.2664 25.1727 22.1961 24.763L21.0367 17.9998C20.9278 17.3645 21.1935 16.5468 21.6542 16.0979Z" fill="#8776CC"/>
<path fill-rule="evenodd" clip-rule="evenodd" d="M19.4911 8.0161L26.2772 9.00288C27.4572 9.17438 27.8228 9.78294 27.9357 10.1303C28.0483 10.4774 28.1099 11.1846 27.2563 12.017L22.3455 16.8073C22.1218 17.0255 21.96 17.5236 22.0129 17.832L23.1721 24.5959C23.3276 25.5036 23.0806 26.0259 22.8457 26.3045C22.586 26.613 22.202 26.7826 21.7652 26.7826C21.4072 26.7826 21.0183 26.6734 20.6095 26.4586L14.5389 23.2655C14.277 23.1276 13.7232 23.1276 13.4618 23.2655L7.39063 26.4586C6.48315 26.9364 5.62729 26.8657 5.15443 26.3045C4.91954 26.0262 4.67252 25.5032 4.82838 24.5959L5.98724 17.8324C6.04013 17.5236 5.87866 17.0255 5.65466 16.8076L0.743565 12.017C-0.11042 11.1846 -0.0481989 10.4777 0.0644215 10.1303C0.17673 9.78294 0.54259 9.17438 1.72261 9.00288L8.50873 8.0161C8.81891 7.97097 9.24233 7.66313 9.38047 7.38266L12.4159 1.22925C12.9436 0.159687 13.6348 0 14.0001 0C14.3653 0 15.0566 0.159687 15.5842 1.22956L18.6197 7.38266C18.7581 7.66313 19.1809 7.97066 19.4911 8.0161ZM21.6542 16.0979L26.565 11.3073C26.9035 10.9776 27.0634 10.6517 26.9931 10.4363C26.9227 10.2209 26.602 10.0519 26.1344 9.98372L19.3477 8.99665C18.7108 8.90419 18.0155 8.39868 17.7308 7.82155L14.6957 1.66815C14.4866 1.24388 14.2262 0.990807 13.9998 0.990807C13.7733 0.990807 13.5129 1.24419 13.3038 1.66815L10.2687 7.82155C9.98402 8.39868 9.28838 8.90388 8.65122 8.99665L1.8651 9.98372C1.39751 10.0519 1.07676 10.2209 1.00645 10.4363C0.936448 10.6523 1.09667 10.9776 1.43515 11.3073L6.34657 16.0979C6.80733 16.5468 7.07299 17.3645 6.9641 17.9998L5.80524 24.7627C5.73493 25.1727 5.77413 25.5017 5.91226 25.6657C5.9384 25.6969 6.01866 25.7918 6.23613 25.7918C6.37022 25.7918 6.60013 25.7557 6.93081 25.5814L13.0008 22.3876C13.2749 22.2438 13.6298 22.1641 14.0004 22.1641C14.3709 22.1641 14.7259 22.2438 15.0003 22.3876L21.0706 25.5814C21.401 25.7557 21.6305 25.7918 21.7652 25.7918C21.9824 25.7918 22.0624 25.6972 22.0888 25.6657C22.2272 25.5017 22.2664 25.1727 22.1961 24.763L21.0367 17.9998C20.9278 17.3645 21.1935 16.5468 21.6542 16.0979Z" fill="#CCCCCC"/>
</svg>
