<svg width="27" height="20" viewBox="0 0 27 20" fill="none" xmlns="http://www.w3.org/2000/svg">
<path fill-rule="evenodd" clip-rule="evenodd" d="M20.2206 6.85522C20.4909 6.85522 20.8125 6.98179 21.0032 7.16286L23.8806 9.88574C24.0707 10.066 24.2044 10.3704 24.2044 10.6262V11.2072C24.2044 11.7256 23.7591 12.1474 23.2112 12.1474H19.8899C19.3429 12.1474 18.897 11.7259 18.897 11.2078V7.79514C18.897 7.27674 19.3423 6.85522 19.8888 6.85522H20.2206ZM23.2112 11.2885C23.2571 11.2885 23.2967 11.251 23.2967 11.2078V10.6262C23.2947 10.5936 23.262 10.5178 23.2377 10.4924L20.3606 7.76924C20.3347 7.74738 20.2546 7.71581 20.2186 7.71392L19.8899 7.71446C19.8435 7.71446 19.8044 7.75116 19.8044 7.79541V11.2078C19.8044 11.251 19.8443 11.2885 19.8899 11.2885H23.2112Z" fill="#CCCCCC"/>
<path fill-rule="evenodd" clip-rule="evenodd" d="M21.9842 5.43372C21.6201 5.08965 20.9579 4.82978 20.4427 4.82978H17.6805V3.32342C17.6805 1.93824 16.4903 0.811035 15.0266 0.811035H3.32519C1.86126 0.811035 0.671021 1.93824 0.671021 3.32342V15.8654C0.671021 16.8196 1.49122 17.5965 2.49986 17.5965H4.33525C4.55392 18.8765 5.72648 19.859 7.13966 19.859C8.55284 19.859 9.72512 18.8765 9.94378 17.5965H18.1965C18.4149 18.8765 19.5872 19.859 21.0003 19.859C22.4135 19.859 23.5867 18.8765 23.8047 17.5965H24.5001C25.5081 17.5965 26.3289 16.8196 26.3289 15.8654V10.401C26.3289 9.91392 26.0538 9.2865 25.6903 8.94189L21.9842 5.43372ZM1.57817 3.32342C1.57817 2.41157 2.36188 1.67054 3.32519 1.67054H15.0266C15.9896 1.67054 16.7728 2.41157 16.7728 3.32342V12.6646C16.7728 12.7423 16.7035 12.8079 16.6217 12.8079H1.57817V3.32342ZM5.20306 17.1667C5.20306 18.1773 6.07172 18.9993 7.13938 18.9993C8.20731 18.9993 9.07569 18.1776 9.07569 17.1667C9.07569 16.1558 8.20703 15.334 7.13938 15.334C6.07172 15.334 5.20306 16.1558 5.20306 17.1667ZM21.0003 18.9993C19.933 18.9993 19.0646 18.1773 19.0646 17.1667C19.0646 16.1558 19.933 15.334 21.0003 15.334C22.068 15.334 22.9367 16.1558 22.9367 17.1667C22.9367 18.1776 22.068 18.9993 21.0003 18.9993ZM24.5001 16.7368C25.0081 16.7368 25.4212 16.3457 25.4212 15.8651V10.401C25.4212 10.1447 25.2402 9.73096 25.0483 9.54934L21.3422 6.04117C21.1509 5.8601 20.7138 5.68901 20.4424 5.68901H17.6802V12.6643C17.6802 13.217 17.2055 13.6669 16.6214 13.6669H1.57788V15.8651C1.57788 16.3457 1.99155 16.7368 2.49957 16.7368H4.33497C4.55363 15.4566 5.7262 14.4748 7.13938 14.4748C8.55256 14.4748 9.72484 15.4566 9.9435 16.7368H18.1965C18.4149 15.4566 19.5872 14.4748 21.0003 14.4748C22.4135 14.4748 23.5861 15.4566 23.8047 16.7368H24.5001Z" fill="#CCCCCC"/>
</svg>
