<svg width="24" height="30" viewBox="0 0 24 30" fill="none" xmlns="http://www.w3.org/2000/svg">
<path fill-rule="evenodd" clip-rule="evenodd" d="M19.0795 25.9732C19.0795 27.6972 17.6938 29.0994 15.9905 29.0994H3.08928C1.38569 29.0994 0 27.6972 0 25.9732V7.6955C0 5.97153 1.38569 4.56958 3.08928 4.56958H4.51588V3.63355C4.51588 1.63021 5.90157 0 7.60453 0H10.1848H16.6644C17.1356 0 17.743 0.254458 18.0759 0.591688L23.0103 5.58483C23.3439 5.92206 23.5953 6.53638 23.5953 7.01361V13.5704V20.8966C23.5953 22.9 21.9847 24.5298 20.0048 24.5298H19.0795V25.9732ZM21.8589 5.8755L17.7897 1.75728V4.8305C17.7897 5.40635 18.2523 5.8755 18.8217 5.8755H21.8589ZM5.53286 3.63355C5.53286 2.19733 6.46198 1.02883 7.60453 1.02883H10.1848H16.6643C16.697 1.02883 16.7337 1.03368 16.772 1.04014V4.83018C16.772 5.97379 17.6912 6.904 18.8216 6.904H22.5665C22.5733 6.9428 22.5781 6.97998 22.5781 7.01361V13.57V20.8966C22.5781 22.3322 21.4237 23.5007 20.0045 23.5007H8.10647C6.68723 23.5007 5.53254 22.3325 5.53254 20.8966V3.63355H5.53286ZM1.0173 7.6955V25.9732C1.0173 27.1294 1.94674 28.07 3.08928 28.07H15.9905C17.1327 28.07 18.0619 27.1294 18.0619 25.9732V24.5298H8.10647C6.12679 24.5298 4.51588 22.9 4.51588 20.8966V5.59873H3.08928C1.94674 5.59873 1.0173 6.53896 1.0173 7.6955Z" fill="#CCCCCC"/>
<path d="M9.40306 18.0019H18.7076C18.9885 18.0019 19.2163 17.7717 19.2163 17.4871C19.2163 17.2026 18.9885 16.9724 18.7076 16.9724H9.40306C9.12254 16.9724 8.89441 17.2026 8.89441 17.4871C8.89441 17.7717 9.12254 18.0019 9.40306 18.0019Z" fill="#8776CC"/>
<path d="M9.40306 13.4328H18.7076C18.9885 13.4328 19.2163 13.2023 19.2163 12.9178C19.2163 12.6332 18.9885 12.403 18.7076 12.403H9.40306C9.12254 12.403 8.89441 12.6332 8.89441 12.9178C8.89441 13.2023 9.12254 13.4328 9.40306 13.4328Z" fill="#8776CC"/>
<path d="M9.40306 8.86277H14.8372C15.1183 8.86277 15.3458 8.63224 15.3458 8.34803C15.3458 8.06415 15.1183 7.83362 14.8372 7.83362H9.40306C9.12254 7.83362 8.89441 8.06415 8.89441 8.34803C8.89441 8.63224 9.12254 8.86277 9.40306 8.86277Z" fill="#8776CC"/>
</svg>
