<svg width="26" height="20" viewBox="0 0 26 20" fill="none" xmlns="http://www.w3.org/2000/svg">
<path fill-rule="evenodd" clip-rule="evenodd" d="M17.8175 1.88234C17.3562 1.88234 16.8954 1.91793 16.4424 1.9853C14.7062 0.745472 12.4916 0 10.0819 0C4.52256 0 0 3.96127 0 8.83017C0 10.6903 0.6526 12.4697 1.88731 13.975L1.88757 13.9756L1.8876 13.9761C2.20538 14.3634 2.33104 14.486 2.35271 14.5067C2.60144 14.7409 2.74993 15.1684 2.7118 15.3805L2.58382 16.0877V16.0889L2.06498 18.9603C1.95838 19.5503 2.23976 19.8066 2.36571 19.8901C2.43302 19.9341 2.56331 20 2.74502 20C2.90333 20 3.10064 19.9501 3.32944 19.7938L5.70527 18.1739L6.70367 17.4938C6.8926 17.3643 7.28289 17.2888 7.50562 17.3389C7.56456 17.3521 8.95844 17.6589 10.0816 17.6589C12.246 17.6589 14.2512 17.0569 15.8955 16.0364C16.5218 16.1688 17.1664 16.2391 17.8169 16.2391C18.7105 16.2391 19.8127 15.9998 19.8996 15.981L19.9036 15.9801C20.0564 15.9454 20.347 16.002 20.4773 16.0912L21.2784 16.6375L23.1854 17.9374C23.3864 18.0748 23.5624 18.1185 23.7048 18.1185C23.8744 18.1185 23.9966 18.0567 24.0598 18.015C24.176 17.938 24.4362 17.7029 24.3409 17.1753L23.9243 14.8703V14.8698L23.8218 14.3028C23.799 14.1742 23.898 13.8583 24.0829 13.6839C24.1086 13.66 24.2118 13.557 24.4637 13.2502C25.4687 12.0247 26 10.5766 26 9.06087C26 5.10223 22.3294 1.88234 17.8175 1.88234ZM10.0819 16.7303C9.0911 16.7303 7.79977 16.4532 7.70828 16.4335L7.70322 16.4325C7.23667 16.3292 6.58493 16.4543 6.18916 16.7247L5.19076 17.4048L3.01224 18.8903L3.48833 16.2551L3.48862 16.2546L3.61631 15.5473C3.71482 15.001 3.44124 14.262 2.98336 13.8309L2.98324 13.8308C2.97925 13.8268 2.8717 13.7199 2.59596 13.3838C2.59567 13.3838 2.59567 13.3832 2.59567 13.3832C1.49933 12.046 0.919533 10.4716 0.919533 8.83046C0.919533 4.47371 5.02984 0.928632 10.0819 0.928632C15.134 0.928632 19.244 4.47342 19.244 8.83046C19.244 13.1861 15.134 16.7303 10.0819 16.7303ZM23.4569 13.0034C23.4688 12.9911 23.5543 12.903 23.7556 12.6573C24.622 11.6012 25.0802 10.3573 25.0805 9.06116C25.0805 5.61467 21.8221 2.81069 17.8175 2.81069C17.7387 2.81069 17.6603 2.8151 17.5819 2.81951C17.5427 2.82171 17.5036 2.82391 17.4645 2.82556C19.1377 4.40255 20.1639 6.51267 20.1639 8.83046C20.1639 11.3661 18.9346 13.6544 16.9728 15.2659C17.2524 15.2936 17.5341 15.3102 17.8175 15.3102C18.6004 15.3102 19.6188 15.0921 19.7013 15.0745C19.7044 15.0738 19.7062 15.0734 19.7066 15.0734C20.1041 14.985 20.657 15.092 20.993 15.3219L21.7938 15.8681L23.3633 16.9379L23.0195 15.0369V15.0363L22.917 14.4688C22.8332 14.0024 23.0643 13.373 23.4555 13.0049C23.4554 13.0049 23.4559 13.0044 23.4569 13.0034Z" fill="#8776CC"/>
<path fill-rule="evenodd" clip-rule="evenodd" d="M17.8175 1.88234C17.3562 1.88234 16.8954 1.91793 16.4424 1.9853C14.7062 0.745472 12.4916 0 10.0819 0C4.52256 0 0 3.96127 0 8.83017C0 10.6903 0.6526 12.4697 1.88731 13.975L1.88757 13.9756L1.8876 13.9761C2.20538 14.3634 2.33104 14.486 2.35271 14.5067C2.60144 14.7409 2.74993 15.1684 2.7118 15.3805L2.58382 16.0877V16.0889L2.06498 18.9603C1.95838 19.5503 2.23976 19.8066 2.36571 19.8901C2.43302 19.9341 2.56331 20 2.74502 20C2.90333 20 3.10064 19.9501 3.32944 19.7938L5.70527 18.1739L6.70367 17.4938C6.8926 17.3643 7.28289 17.2888 7.50562 17.3389C7.56456 17.3521 8.95844 17.6589 10.0816 17.6589C12.246 17.6589 14.2512 17.0569 15.8955 16.0364C16.5218 16.1688 17.1664 16.2391 17.8169 16.2391C18.7105 16.2391 19.8127 15.9998 19.8996 15.981L19.9036 15.9801C20.0564 15.9454 20.347 16.002 20.4773 16.0912L21.2784 16.6375L23.1854 17.9374C23.3864 18.0748 23.5624 18.1185 23.7048 18.1185C23.8744 18.1185 23.9966 18.0567 24.0598 18.015C24.176 17.938 24.4362 17.7029 24.3409 17.1753L23.9243 14.8703V14.8698L23.8218 14.3028C23.799 14.1742 23.898 13.8583 24.0829 13.6839C24.1086 13.66 24.2118 13.557 24.4637 13.2502C25.4687 12.0247 26 10.5766 26 9.06087C26 5.10223 22.3294 1.88234 17.8175 1.88234ZM10.0819 16.7303C9.0911 16.7303 7.79977 16.4532 7.70828 16.4335L7.70322 16.4325C7.23667 16.3292 6.58493 16.4543 6.18916 16.7247L5.19076 17.4048L3.01224 18.8903L3.48833 16.2551L3.48862 16.2546L3.61631 15.5473C3.71482 15.001 3.44124 14.262 2.98336 13.8309L2.98324 13.8308C2.97925 13.8268 2.8717 13.7199 2.59596 13.3838C2.59567 13.3838 2.59567 13.3832 2.59567 13.3832C1.49933 12.046 0.919533 10.4716 0.919533 8.83046C0.919533 4.47371 5.02984 0.928632 10.0819 0.928632C15.134 0.928632 19.244 4.47342 19.244 8.83046C19.244 13.1861 15.134 16.7303 10.0819 16.7303ZM23.4569 13.0034C23.4688 12.9911 23.5543 12.903 23.7556 12.6573C24.622 11.6012 25.0802 10.3573 25.0805 9.06116C25.0805 5.61467 21.8221 2.81069 17.8175 2.81069C17.7387 2.81069 17.6603 2.8151 17.5819 2.81951C17.5427 2.82171 17.5036 2.82391 17.4645 2.82556C19.1377 4.40255 20.1639 6.51267 20.1639 8.83046C20.1639 11.3661 18.9346 13.6544 16.9728 15.2659C17.2524 15.2936 17.5341 15.3102 17.8175 15.3102C18.6004 15.3102 19.6188 15.0921 19.7013 15.0745C19.7044 15.0738 19.7062 15.0734 19.7066 15.0734C20.1041 14.985 20.657 15.092 20.993 15.3219L21.7938 15.8681L23.3633 16.9379L23.0195 15.0369V15.0363L22.917 14.4688C22.8332 14.0024 23.0643 13.373 23.4555 13.0049C23.4554 13.0049 23.4559 13.0044 23.4569 13.0034Z" fill="#CCCCCC"/>
</svg>
