<svg width="12" height="13" viewBox="0 0 12 13" fill="none" xmlns="http://www.w3.org/2000/svg">
<path d="M11.8359 10.8828L9.49219 8.53906C9.38281 8.42969 9.25 8.375 9.09375 8.375H8.71875C9.40625 7.5 9.75 6.5 9.75 5.375C9.75 4.48438 9.53125 3.67187 9.09375 2.9375C8.65625 2.1875 8.0625 1.59375 7.3125 1.15625C6.57812 0.71875 5.76562 0.5 4.875 0.5C3.98438 0.5 3.16406 0.71875 2.41406 1.15625C1.67969 1.59375 1.09375 2.1875 0.65625 2.9375C0.21875 3.67187 0 4.48438 0 5.375C0 6.26562 0.21875 7.08594 0.65625 7.83594C1.09375 8.57031 1.67969 9.15625 2.41406 9.59375C3.16406 10.0312 3.98438 10.25 4.875 10.25C6 10.25 7 9.90625 7.875 9.21875V9.59375C7.875 9.75 7.92969 9.88281 8.03906 9.99219L10.3828 12.3359C10.4922 12.4453 10.625 12.5 10.7812 12.5C10.9375 12.5 11.0703 12.4453 11.1797 12.3359L11.8359 11.6797C11.9453 11.5703 12 11.4375 12 11.2812C12 11.125 11.9453 10.9922 11.8359 10.8828ZM4.875 8.375C4.32812 8.375 3.82031 8.24219 3.35156 7.97656C2.89844 7.71094 2.53906 7.35156 2.27344 6.89844C2.00781 6.42969 1.875 5.92188 1.875 5.375C1.875 4.82812 2.00781 4.32812 2.27344 3.875C2.53906 3.40625 2.89844 3.03906 3.35156 2.77344C3.82031 2.50781 4.32812 2.375 4.875 2.375C5.42188 2.375 5.92188 2.50781 6.375 2.77344C6.84375 3.03906 7.21094 3.40625 7.47656 3.875C7.74219 4.32812 7.875 4.82812 7.875 5.375C7.875 5.92188 7.74219 6.42969 7.47656 6.89844C7.21094 7.35156 6.84375 7.71094 6.375 7.97656C5.92188 8.24219 5.42188 8.375 4.875 8.375Z" fill="#CCCCCC"/>
</svg>
