<svg width="30" height="30" viewBox="0 0 30 30" fill="none" xmlns="http://www.w3.org/2000/svg">
<g clip-path="url(#clip0)">
<path d="M29.4144 19.5597H28.4449C28.2979 19.0484 28.0949 18.5572 27.8379 18.0915L28.5227 17.4069C28.6323 17.297 28.6941 17.148 28.6941 16.9928C28.6941 16.8374 28.6323 16.6884 28.5227 16.5788L26.5378 14.5939C26.3092 14.3653 25.9386 14.3653 25.7097 14.5939L25.0272 15.2764C24.5608 15.018 24.0689 14.8139 23.5569 14.666V13.7022C23.5569 13.3788 23.2946 13.1167 22.9714 13.1167H20.1644C19.841 13.1167 19.5789 13.3788 19.5789 13.7022V14.6637C19.0658 14.8111 18.573 15.0151 18.1056 15.2735L17.4261 14.5939C17.3162 14.4841 17.1674 14.4225 17.012 14.4225C16.9617 14.4225 16.912 14.4296 16.8639 14.4422V11.6988C16.8639 11.3754 16.6019 11.1131 16.2785 11.1131H15.3089C15.162 10.602 14.959 10.1108 14.7019 9.64506L15.3867 8.96025C15.6154 8.7316 15.6154 8.36081 15.3867 8.13216L13.4019 6.14753C13.1732 5.91888 12.8027 5.91888 12.5738 6.14753L11.8913 6.83005C11.4248 6.57165 10.933 6.36726 10.4209 6.21963V5.25558C10.4209 4.93217 10.1587 4.6701 9.83547 4.6701H7.02848C6.7053 4.6701 6.443 4.93217 6.443 5.25558V6.21711C5.92985 6.36451 5.43707 6.56867 4.96969 6.82708L4.29014 6.14753C4.18028 6.03767 4.03151 5.97587 3.8761 5.97587C3.72092 5.97587 3.57192 6.03767 3.46205 6.14753L1.4772 8.13216C1.24855 8.36081 1.24855 8.7316 1.4772 8.96025L2.15674 9.6398C1.89857 10.1072 1.69441 10.6002 1.54701 11.1131H0.585477C0.262298 11.1131 0 11.3754 0 11.6988V14.5056C0 14.829 0.262298 15.0911 0.585477 15.0911H1.5493C1.69715 15.6031 1.90131 16.0952 2.15972 16.5614L1.4772 17.2439C1.36756 17.3538 1.30577 17.5028 1.30577 17.658C1.30577 17.8134 1.36756 17.9621 1.4772 18.072L3.46205 20.0569C3.69071 20.2855 4.06149 20.2855 4.29014 20.0569L4.97496 19.372C5.44073 19.6291 5.93191 19.8321 6.443 19.979V20.9486C6.443 21.272 6.7053 21.5341 7.02848 21.5341H9.83547C10.1589 21.5341 10.4209 21.272 10.4209 20.9486V19.9767C10.9311 19.8293 11.4214 19.6261 11.8862 19.3691L12.5738 20.0569C12.6837 20.1665 12.8327 20.2283 12.9878 20.2283C13.0384 20.2283 13.0879 20.2212 13.1359 20.2086V22.952C13.1359 23.2754 13.3982 23.5377 13.7214 23.5377H14.6852C14.8331 24.0497 15.0372 24.5415 15.2957 25.008L14.6131 25.6905C14.5035 25.8002 14.4417 25.9492 14.4417 26.1046C14.4417 26.2598 14.5035 26.4088 14.6131 26.5186L16.598 28.5032C16.8266 28.7319 17.1974 28.7319 17.4261 28.5032L18.1109 27.8184C18.5767 28.0755 19.0678 28.2785 19.5789 28.4254V29.395C19.5789 29.7184 19.8412 29.9804 20.1644 29.9804H22.9714C23.2948 29.9804 23.5569 29.7184 23.5569 29.395V28.4231C24.0671 28.276 24.5573 28.0727 25.0222 27.8157L25.7097 28.5032C25.9384 28.7319 26.3092 28.7321 26.5378 28.5032L28.5227 26.5186C28.6325 26.4088 28.6941 26.2598 28.6941 26.1046C28.6941 25.9492 28.6325 25.8002 28.5227 25.6905L27.8351 25.0027C28.0922 24.5379 28.2952 24.0476 28.4426 23.5377H29.4144C29.7378 23.5377 30.0001 23.2754 30.0001 22.952V20.1452C29.9999 19.8218 29.7376 19.5597 29.4144 19.5597ZM15.2014 18.2574C14.9858 18.6735 14.8125 19.1088 14.6829 19.5597H13.899L15.2014 18.2574ZM14.7717 16.4199C14.9944 15.9958 15.1734 15.5516 15.3064 15.0911H16.1009L14.7717 16.4199ZM12.3921 18.2187C12.1971 18.0239 11.8931 17.9912 11.6613 18.1402C11.0623 18.5252 10.4058 18.7973 9.7105 18.9491C9.44157 19.0077 9.24977 19.2459 9.24977 19.521V20.3629H7.61418V19.5229C7.61418 19.2473 7.42192 19.009 7.15253 18.9507C6.45627 18.7996 5.79893 18.5279 5.19903 18.1432C4.9674 17.9944 4.66345 18.0271 4.46867 18.2219L3.8761 18.8147L2.71933 17.658L3.31053 17.067C3.50531 16.8722 3.53804 16.5676 3.38881 16.3359C3.002 15.7356 2.72895 15.0778 2.57697 14.3808C2.51815 14.1119 2.28011 13.9201 2.00477 13.9201H1.17118V12.2843H2.00317C2.27874 12.2843 2.517 12.092 2.57537 11.8229C2.72666 11.125 2.99926 10.4661 3.38584 9.86479C3.53461 9.63293 3.50188 9.32898 3.3071 9.1342L2.71933 8.5462L3.8761 7.38967L4.46386 7.97743C4.65864 8.17221 4.96283 8.20471 5.19468 8.05594C5.79595 7.66936 6.45467 7.39676 7.15253 7.24547C7.42192 7.18711 7.61418 6.94884 7.61418 6.67304V5.84129H9.24977V6.67487C9.24977 6.95022 9.44157 7.18848 9.7105 7.24708C10.4074 7.39905 11.0652 7.67211 11.6658 8.05892C11.8975 8.20792 12.2019 8.17542 12.3969 7.98064L12.9878 7.38967L14.1446 8.5462L13.5518 9.13901C13.3573 9.33355 13.3243 9.63751 13.4728 9.86914C13.8578 10.4693 14.1295 11.1264 14.2806 11.8226C14.3389 12.092 14.5772 12.2843 14.8528 12.2843H15.6928V13.9199H14.8509C14.5758 13.9199 14.3376 14.1117 14.279 14.3808C14.1272 15.0762 13.8551 15.7324 13.4701 16.3314C13.3211 16.563 13.3538 16.8674 13.5486 17.0622L14.1446 17.658L12.9878 18.8147L12.3921 18.2187ZM28.8287 22.3665H27.9869C27.7118 22.3665 27.4735 22.5583 27.4149 22.8272C27.2632 23.5226 26.991 24.1788 26.606 24.778C26.457 25.0096 26.4898 25.3138 26.6845 25.5086L27.2805 26.1046L26.1238 27.2611L25.5278 26.6653C25.333 26.4706 25.029 26.4378 24.7972 26.5868C24.198 26.9718 23.5418 27.2439 22.8464 27.3955C22.5775 27.4543 22.3857 27.6923 22.3857 27.9677V28.8095H20.7499V27.9695C20.7499 27.6939 20.5579 27.4557 20.2885 27.3973C19.5922 27.2462 18.9349 26.9746 18.335 26.5896C18.1033 26.441 17.7994 26.4738 17.6046 26.6685L17.012 27.2611L15.8553 26.1046L16.4462 25.5136C16.6412 25.3186 16.6737 25.0142 16.5245 24.7823C16.1379 24.182 15.8649 23.5242 15.7129 22.8272C15.6541 22.5583 15.416 22.3665 15.1407 22.3665H14.3069V20.7307H15.1389C15.4144 20.7307 15.6527 20.5386 15.7111 20.2693C15.8624 19.5714 16.1352 18.9124 16.5215 18.3112C16.6705 18.0796 16.6378 17.7751 16.443 17.5806L15.8553 16.9926L17.012 15.8361L17.5998 16.4238C17.7946 16.6186 18.0988 16.6513 18.3304 16.5023C18.9317 16.116 19.5906 15.8432 20.2885 15.6919C20.5579 15.6335 20.7499 15.3952 20.7499 15.1197V14.2877H22.3857V15.1215C22.3857 15.3968 22.5775 15.6349 22.8464 15.6935C23.5434 15.8457 24.2012 16.1187 24.8015 16.5053C25.0332 16.6545 25.3378 16.622 25.5326 16.427L26.1238 15.8361L27.2803 16.9928L26.6877 17.5854C26.4932 17.7799 26.4602 18.0839 26.6088 18.3155C26.9938 18.9157 27.2654 19.573 27.4165 20.2693C27.4749 20.5386 27.7131 20.7307 27.9887 20.7307H28.8287V22.3665Z" fill="black"/>
<path d="M19.0836 19.65C19.2335 19.65 19.3832 19.5927 19.4977 19.4783L19.5048 19.4712C19.7346 19.2437 19.7362 18.8729 19.5087 18.6431C19.2809 18.4133 18.9101 18.4117 18.6806 18.6392L18.6694 18.6502C18.4407 18.8789 18.4407 19.2496 18.6694 19.4785C18.7838 19.5927 18.9337 19.65 19.0836 19.65Z" fill="black"/>
<path d="M20.5698 17.5726C20.256 17.6511 20.0653 17.969 20.1438 18.2828C20.2223 18.5966 20.5405 18.7871 20.8538 18.7088C21.863 18.4561 22.9039 18.744 23.6382 19.4783C24.7798 20.6199 24.7798 22.4773 23.6382 23.6188C23.0852 24.172 22.35 24.4764 21.5679 24.4764C20.7861 24.4764 20.0507 24.172 19.4977 23.6188C18.809 22.9301 18.5085 21.9468 18.6939 20.9889C18.7554 20.6714 18.5478 20.3641 18.2301 20.3027C17.9127 20.2414 17.6055 20.4487 17.5442 20.7662C17.2844 22.1068 17.7053 23.4826 18.6696 24.4469C19.4439 25.2212 20.4732 25.6476 21.5679 25.6476C22.6629 25.6476 23.6922 25.2212 24.4663 24.4469C26.0645 22.8488 26.0645 20.2482 24.4663 18.6502C23.4537 17.6376 21.9607 17.2247 20.5698 17.5726Z" fill="black"/>
<path d="M23.3246 21.5485C23.3246 20.5799 22.5366 19.7918 21.5679 19.7918C20.5993 19.7918 19.8113 20.5799 19.8113 21.5485C19.8113 22.5171 20.5993 23.3052 21.5679 23.3052C22.5366 23.3052 23.3246 22.5171 23.3246 21.5485ZM20.9825 21.5485C20.9825 21.2258 21.245 20.963 21.5679 20.963C21.8909 20.963 22.1534 21.2258 22.1534 21.5485C22.1534 21.8715 21.8909 22.1342 21.5679 22.1342C21.245 22.1342 20.9825 21.8715 20.9825 21.5485Z" fill="black"/>
<path d="M10.5144 11.044C10.6281 11.1568 10.7764 11.2131 10.9247 11.2131C11.0756 11.2131 11.2264 11.155 11.3411 11.0392C11.5688 10.8096 11.5661 10.4375 11.3365 10.2097L11.3287 10.2022C11.0989 9.97443 10.7295 9.97718 10.502 10.2067C10.274 10.4363 10.277 10.8085 10.5066 11.0362L10.5144 11.044Z" fill="black"/>
<path d="M11.8513 12.1024C11.5302 12.1406 11.3008 12.432 11.339 12.7531C11.4462 13.6517 11.1413 14.5335 10.5022 15.1724C9.36081 16.3138 7.50343 16.314 6.36177 15.1724C5.80879 14.6194 5.50415 13.8842 5.50415 13.1021C5.50415 12.32 5.80879 11.5849 6.36177 11.0319C7.0237 10.37 7.97127 10.0633 8.89755 10.2113C9.21684 10.2624 9.51714 10.0449 9.56818 9.72566C9.61922 9.40637 9.40178 9.10607 9.08249 9.0548C7.78725 8.84767 6.46042 9.27705 5.53368 10.2038C4.75937 10.9779 4.33319 12.0074 4.33319 13.1021C4.33319 14.1971 4.75937 15.2264 5.53368 16.0005C6.3327 16.7997 7.38213 17.1991 8.43201 17.1991C9.48143 17.1989 10.5313 16.7995 11.3303 16.0005C12.2248 15.106 12.6519 13.8719 12.502 12.6144C12.4635 12.2933 12.1713 12.0644 11.8513 12.1024Z" fill="black"/>
<path d="M6.67535 13.1021C6.67535 14.0708 7.46339 14.8588 8.43202 14.8588C9.40065 14.8588 10.1887 14.0708 10.1887 13.1021C10.1887 12.1335 9.40065 11.3455 8.43202 11.3455C7.46339 11.3455 6.67535 12.1335 6.67535 13.1021ZM9.0175 13.1021C9.0175 13.4251 8.75497 13.6876 8.43202 13.6876C8.10907 13.6876 7.84654 13.4251 7.84654 13.1021C7.84654 12.7792 8.10907 12.5166 8.43202 12.5166C8.75497 12.5166 9.0175 12.7792 9.0175 13.1021Z" fill="black"/>
<path d="M29.4145 4.49296H28.2598C28.0885 4.08601 27.8679 3.70446 27.5999 3.35221L28.1778 2.35131C28.3396 2.07116 28.2435 1.71296 27.9636 1.55137L25.4127 0.078744C25.2781 0.000924154 25.1183 -0.020133 24.9684 0.0201502C24.8183 0.0604334 24.6906 0.158395 24.6127 0.292977L24.0351 1.29388C23.5986 1.23963 23.1539 1.23963 22.7176 1.29388L22.1399 0.292977C21.9781 0.012826 21.6199 -0.0830755 21.34 0.0785151L18.7891 1.55137C18.6547 1.62896 18.5565 1.75691 18.5163 1.90682C18.4762 2.05697 18.4973 2.21673 18.5748 2.35108L19.1528 3.35198C18.885 3.70446 18.6643 4.08601 18.4931 4.49273H17.3382C17.015 4.49273 16.7527 4.75503 16.7527 5.07844V8.02369C16.7527 8.3471 17.015 8.6094 17.3382 8.6094H18.4931C18.6643 9.01612 18.885 9.39767 19.1528 9.75015L18.5748 10.751C18.4973 10.8854 18.4762 11.0454 18.5163 11.1953C18.5565 11.3452 18.6547 11.4732 18.7891 11.5508L21.34 13.0236C21.4322 13.0767 21.5329 13.1021 21.6322 13.1021C21.8346 13.1021 22.0314 12.9971 22.1399 12.8092L22.7176 11.8085C23.1539 11.8625 23.5988 11.8625 24.0351 11.8085L24.613 12.8092C24.6906 12.9437 24.8185 13.0419 24.9684 13.082C25.1183 13.1223 25.2783 13.1012 25.4127 13.0236L27.9636 11.5508C28.2437 11.3892 28.3396 11.031 28.1778 10.751L27.6001 9.75015C27.8679 9.39767 28.0885 9.01612 28.2598 8.6094H29.4145C29.7379 8.6094 29.9999 8.3471 29.9999 8.02369V5.07844C29.9999 4.75503 29.7376 4.49296 29.4145 4.49296ZM28.8288 7.43821H27.8539C27.601 7.43821 27.3767 7.60072 27.2978 7.84104C27.1197 8.38258 26.8356 8.87376 26.4534 9.30108C26.2847 9.48968 26.2563 9.76502 26.3829 9.98429L26.8709 10.8296L25.3344 11.7167L24.8469 10.8724C24.7206 10.6533 24.4681 10.5402 24.2207 10.5917C23.6684 10.7064 23.0845 10.7064 22.5322 10.5917C22.2848 10.5405 22.0323 10.6535 21.906 10.8724L21.4185 11.7167L19.882 10.8296L20.37 9.98429C20.4965 9.76525 20.4682 9.48968 20.2995 9.30108C19.9172 8.87376 19.6332 8.38258 19.4551 7.84104C19.3762 7.60072 19.1519 7.43821 18.8989 7.43821H17.9239V5.66415H18.8989C19.1519 5.66415 19.3762 5.50164 19.4551 5.26131C19.6332 4.71978 19.9172 4.2286 20.2995 3.80128C20.4682 3.61268 20.4965 3.33733 20.37 3.11807L19.882 2.27281L21.4185 1.38566L21.906 2.23C22.0323 2.44882 22.2848 2.56188 22.5322 2.51061C23.0847 2.39594 23.6684 2.39594 24.2207 2.51061C24.4683 2.56188 24.7206 2.44882 24.8469 2.23L25.3344 1.38566L26.8709 2.27281L26.3829 3.11807C26.2563 3.33711 26.2847 3.61268 26.4534 3.80128C26.8356 4.2286 27.1197 4.71978 27.2978 5.26131C27.3767 5.50164 27.601 5.66415 27.8539 5.66415H28.8288V7.43821Z" fill="black"/>
<path d="M23.3763 3.84985C21.8867 3.84985 20.675 5.06178 20.675 6.55112C20.675 8.04068 21.8867 9.25238 23.3763 9.25238C24.8658 9.25238 26.0775 8.04068 26.0775 6.55112C26.0775 5.06178 24.8658 3.84985 23.3763 3.84985ZM23.3763 8.08142C22.5326 8.08142 21.8462 7.395 21.8462 6.55112C21.8462 5.70746 22.5326 5.02104 23.3763 5.02104C24.2199 5.02104 24.9066 5.70746 24.9066 6.55112C24.9066 7.395 24.2199 8.08142 23.3763 8.08142Z" fill="black"/>
</g>
<defs>
<clipPath id="clip0">
<rect width="30" height="30" fill="white"/>
</clipPath>
</defs>
</svg>
