<svg width="153" height="149" viewBox="0 0 153 149" fill="none" xmlns="http://www.w3.org/2000/svg">
<ellipse cx="76.5" cy="74.5" rx="76.5" ry="74.5" fill="white"/>
<path d="M77.2158 124C104.701 124 126.981 102.79 126.981 76.627C126.981 50.4635 104.701 29.2539 77.2158 29.2539C49.731 29.2539 27.4502 50.4635 27.4502 76.627C27.4502 102.79 49.731 124 77.2158 124Z" fill="#1AAAFF"/>
<path d="M77.1746 100.12H58.0098V107.968H77.1746V100.12Z" fill="#445EA0"/>
<path d="M86.1361 111.876C86.1361 112.408 85.6791 112.843 85.1205 112.843H50.0625C49.5039 112.843 49.0469 112.408 49.0469 111.876V108.742C49.0469 108.21 49.5039 107.775 50.0625 107.775H85.1207C85.6793 107.775 86.1363 108.21 86.1363 108.742L86.1361 111.876Z" fill="#293D7C"/>
<path d="M53.0773 111.876V108.742C53.0773 108.21 53.5343 107.775 54.0929 107.775H50.0625C49.5039 107.775 49.0469 108.21 49.0469 108.742V111.876C49.0469 112.408 49.5039 112.843 50.0625 112.843H54.0929C53.5343 112.843 53.0773 112.408 53.0773 111.876Z" fill="#1A2B63"/>
<path d="M96.2815 88.9803H27.0186V98.3808C27.0186 99.4443 27.9326 100.314 29.0498 100.314H96.2813V88.9803H96.2815Z" fill="#293D7C"/>
<path d="M31.0492 98.3808V88.9803H27.0186V98.3808C27.0186 99.4443 27.9326 100.314 29.0498 100.314H33.0802C31.9632 100.314 31.0492 99.4443 31.0492 98.3808Z" fill="#1A2B63"/>
<path d="M106.213 45.3528H98.0932V66.4783C97.041 66.4822 96.1861 67.3005 96.1861 68.3063V85.4598H36.6603V45.3528H28.9692C27.8965 45.3528 27.0186 46.1881 27.0186 47.2094V89.1737H96.2813V68.3063C96.2813 67.2981 97.143 66.4779 98.2021 66.4779H108.164V47.2093C108.164 46.1881 107.286 45.3528 106.213 45.3528Z" fill="#445EA0"/>
<path d="M36.6602 49.0663H31.9355C31.377 49.0663 30.9199 49.5013 30.9199 50.0331V84.493C30.9199 85.0248 31.377 85.4598 31.9355 85.4598H36.6604L36.6602 49.0663Z" fill="#293D7C"/>
<path d="M103.246 49.0663H98.0928V66.4831C98.1291 66.4812 98.1649 66.4779 98.2017 66.4779H104.262V50.0331C104.262 49.5013 103.805 49.0663 103.246 49.0663Z" fill="#293D7C"/>
<path d="M34.9503 84.493V50.0331C34.9503 49.5013 35.4074 49.0663 35.966 49.0663H31.9355C31.377 49.0663 30.9199 49.5013 30.9199 50.0331V84.493C30.9199 85.0248 31.377 85.4598 31.9355 85.4598H35.966C35.4074 85.4598 34.9503 85.0248 34.9503 84.493Z" fill="#1A2B63"/>
<path d="M67.5906 97.1546C68.954 97.1546 70.0592 96.1025 70.0592 94.8047C70.0592 93.5069 68.954 92.4548 67.5906 92.4548C66.2273 92.4548 65.1221 93.5069 65.1221 94.8047C65.1221 96.1025 66.2273 97.1546 67.5906 97.1546Z" fill="#445EA0"/>
<path d="M58.9613 37.6676C58.9613 37.1944 59.3683 36.8069 59.8658 36.8069H83.186V26.0182C83.186 25.4581 82.7047 25 82.1165 25H37.628C37.0398 25 36.5586 25.4581 36.5586 26.0182V85.4598H58.9613V37.6676Z" fill="#C3DDF4"/>
<path d="M41.6585 25H37.628C37.0398 25 36.5586 25.4581 36.5586 26.0182V85.4598H40.5892V26.0182C40.5892 25.4581 41.0704 25 41.6585 25Z" fill="#AEC1ED"/>
<path d="M96.2821 68.3063C96.2821 67.3005 97.1399 66.482 98.1955 66.4783V37.4742C98.1955 37.001 97.7885 36.6136 97.2912 36.6136H59.6633C59.1658 36.6136 58.7588 37.001 58.7588 37.4742V85.4598H96.2819V68.3063H96.2821Z" fill="white"/>
<path d="M63.6939 36.6136H59.6633C59.1658 36.6136 58.7588 37.001 58.7588 37.4742V85.4598H62.7892V37.4742C62.7894 37.0009 63.1965 36.6136 63.6939 36.6136Z" fill="#D9EAFC"/>
<path d="M67.4159 56.0224C66.9767 56.0224 66.5589 55.842 66.2696 55.5274L63.8324 52.877C63.278 52.2743 63.342 51.3582 63.9751 50.8305C64.6079 50.303 65.5705 50.3639 66.1248 50.9664L67.4159 52.3704L69.4687 50.1381C70.0228 49.5354 70.9852 49.4745 71.6183 50.0021C72.2515 50.5298 72.3155 51.446 71.7611 52.0487L68.5621 55.5274C68.2731 55.8418 67.8552 56.0224 67.4159 56.0224Z" fill="#0F9390"/>
<path d="M91.9756 52.378H75.6592C74.8178 52.378 74.1357 51.7289 74.1357 50.9278C74.1357 50.1267 74.8178 49.4776 75.6592 49.4776H91.9756C92.817 49.4776 93.499 50.1267 93.499 50.9278C93.499 51.7287 92.817 52.378 91.9756 52.378Z" fill="#52BBEF"/>
<path d="M91.9756 56.3538H75.6592C74.8178 56.3538 74.1357 55.7047 74.1357 54.9036C74.1357 54.1025 74.8178 53.4534 75.6592 53.4534H91.9756C92.817 53.4534 93.499 54.1025 93.499 54.9036C93.499 55.7047 92.817 56.3538 91.9756 56.3538Z" fill="#52BBEF"/>
<path d="M67.4159 67.9498C66.9767 67.9498 66.5589 67.7694 66.2696 67.455L63.8324 64.8048C63.278 64.2021 63.342 63.2859 63.9751 62.7585C64.6083 62.2308 65.5707 62.2919 66.1248 62.8942L67.4159 64.2982L69.4687 62.0658C70.0228 61.4633 70.9852 61.4024 71.6183 61.9299C72.2515 62.4576 72.3155 63.3737 71.7611 63.9764L68.5621 67.455C68.2731 67.7694 67.8552 67.9498 67.4159 67.9498Z" fill="#0F9390"/>
<path d="M91.9756 64.3053H75.6592C74.8178 64.3053 74.1357 63.6562 74.1357 62.8551C74.1357 62.054 74.8178 61.4049 75.6592 61.4049H91.9756C92.817 61.4049 93.499 62.054 93.499 62.8551C93.499 63.6562 92.817 64.3053 91.9756 64.3053Z" fill="#52BBEF"/>
<path d="M91.9756 68.2814H75.6592C74.8178 68.2814 74.1357 67.6323 74.1357 66.8312C74.1357 66.0301 74.8178 65.381 75.6592 65.381H91.9756C92.817 65.381 93.499 66.0301 93.499 66.8312C93.499 67.6321 92.817 68.2814 91.9756 68.2814Z" fill="#52BBEF"/>
<path d="M67.4159 79.8773C66.9767 79.8773 66.5589 79.6967 66.2696 79.3823L63.8324 76.732C63.278 76.1293 63.342 75.2131 63.9751 74.6854C64.6079 74.158 65.5705 74.2191 66.1248 74.8214L67.4159 76.2254L69.4687 73.9932C70.0228 73.3905 70.9852 73.3298 71.6183 73.8573C72.2515 74.385 72.3155 75.3011 71.7611 75.9038L68.5621 79.3823C68.2731 79.6967 67.8552 79.8773 67.4159 79.8773Z" fill="#0F9390"/>
<path d="M91.9766 76.2329H75.6602C74.8188 76.2329 74.1367 75.5838 74.1367 74.7827C74.1367 73.9816 74.8188 73.3325 75.6602 73.3325H91.9766C92.8179 73.3325 93.5 73.9816 93.5 74.7827C93.5 75.5836 92.8179 76.2329 91.9766 76.2329Z" fill="#52BBEF"/>
<path d="M85.9781 80.2087H75.6592C74.8178 80.2087 74.1357 79.5596 74.1357 78.7585C74.1357 77.9575 74.8178 77.3083 75.6592 77.3083H85.9781C86.8195 77.3083 87.5016 77.9575 87.5016 78.7585C87.5016 79.5596 86.8195 80.2087 85.9781 80.2087Z" fill="#52BBEF"/>
<path d="M54.3597 40.055H42.4727C41.6313 40.055 40.9492 39.4059 40.9492 38.6048C40.9492 37.8037 41.6313 37.1546 42.4727 37.1546H54.3599C55.2013 37.1546 55.8834 37.8037 55.8834 38.6048C55.8832 39.4059 55.2011 40.055 54.3597 40.055Z" fill="#445EA0"/>
<path d="M54.3597 44.0851H42.4727C41.6313 44.0851 40.9492 43.436 40.9492 42.6349C40.9492 41.8339 41.6313 41.1848 42.4727 41.1848H54.3599C55.2013 41.1848 55.8834 41.8339 55.8834 42.6349C55.8834 43.436 55.2011 44.0851 54.3597 44.0851Z" fill="#445EA0"/>
<path d="M54.3597 48.1153H42.4727C41.6313 48.1153 40.9492 47.4662 40.9492 46.6651C40.9492 45.864 41.6313 45.2149 42.4727 45.2149H54.3599C55.2013 45.2149 55.8834 45.864 55.8834 46.6651C55.8834 47.4662 55.2011 48.1153 54.3597 48.1153Z" fill="#445EA0"/>
<path d="M54.3597 55.7515H42.4727C41.6313 55.7515 40.9492 55.1024 40.9492 54.3013C40.9492 53.5002 41.6313 52.8511 42.4727 52.8511H54.3599C55.2013 52.8511 55.8834 53.5002 55.8834 54.3013C55.8832 55.1024 55.2011 55.7515 54.3597 55.7515Z" fill="#445EA0"/>
<path d="M54.3597 59.7819H42.4727C41.6313 59.7819 40.9492 59.1328 40.9492 58.3317C40.9492 57.5306 41.6313 56.8815 42.4727 56.8815H54.3599C55.2013 56.8815 55.8834 57.5306 55.8834 58.3317C55.8832 59.1326 55.2011 59.7819 54.3597 59.7819Z" fill="#445EA0"/>
<path d="M54.3597 63.8123H42.4727C41.6313 63.8123 40.9492 63.1631 40.9492 62.3621C40.9492 61.561 41.6313 60.9119 42.4727 60.9119H54.3599C55.2013 60.9119 55.8834 61.561 55.8834 62.3621C55.8832 63.163 55.2011 63.8123 54.3597 63.8123Z" fill="#445EA0"/>
<path d="M54.3597 71.4484H42.4727C41.6313 71.4484 40.9492 70.7993 40.9492 69.9982C40.9492 69.1971 41.6313 68.548 42.4727 68.548H54.3599C55.2013 68.548 55.8834 69.1971 55.8834 69.9982C55.8832 70.7991 55.2011 71.4484 54.3597 71.4484Z" fill="#445EA0"/>
<path d="M54.3597 75.4784H42.4727C41.6313 75.4784 40.9492 74.8293 40.9492 74.0282C40.9492 73.2271 41.6313 72.578 42.4727 72.578H54.3599C55.2013 72.578 55.8834 73.2271 55.8834 74.0282C55.8832 74.8293 55.2011 75.4784 54.3597 75.4784Z" fill="#445EA0"/>
<path d="M54.3597 79.5086H42.4727C41.6313 79.5086 40.9492 78.8595 40.9492 78.0584C40.9492 77.2573 41.6313 76.6082 42.4727 76.6082H54.3599C55.2013 76.6082 55.8834 77.2573 55.8834 78.0584C55.8832 78.8595 55.2011 79.5086 54.3597 79.5086Z" fill="#445EA0"/>
<path d="M86.6879 43.8524H70.2646C69.4233 43.8524 68.7412 43.2032 68.7412 42.4022C68.7412 41.6011 69.4233 40.952 70.2646 40.952H86.6879C87.5293 40.952 88.2114 41.6011 88.2114 42.4022C88.2114 43.2032 87.5293 43.8524 86.6879 43.8524Z" fill="#445EA0"/>
<path d="M121.458 110.821C121.458 111.933 120.502 112.843 119.334 112.843H98.203C97.0348 112.843 96.0791 111.933 96.0791 110.821V68.3063C96.0791 67.1943 97.0348 66.2845 98.203 66.2845H119.334C120.502 66.2845 121.458 67.1943 121.458 68.3063V110.821Z" fill="#AEC1ED"/>
<path d="M100.11 110.821V68.3063C100.11 67.1943 101.065 66.2845 102.233 66.2845H98.203C97.0348 66.2845 96.0791 67.1943 96.0791 68.3063V110.821C96.0791 111.933 97.0348 112.843 98.203 112.843H102.233C101.065 112.843 100.11 111.933 100.11 110.821Z" fill="#85A0DD"/>
<path d="M104.521 104.886V107.165C104.521 107.697 104.978 108.132 105.536 108.132H112C112.559 108.132 113.016 107.697 113.016 107.165V104.886H104.521Z" fill="#445EA0"/>
<path d="M121.459 72.8352H96.0801V105.08H121.459V72.8352Z" fill="white"/>
<path d="M100.11 72.8352H96.0801V105.08H100.11V72.8352Z" fill="#5DC1D8" fill-opacity="0.08"/>
<path d="M112.378 70.9671H105.157C104.316 70.9671 103.634 70.318 103.634 69.5169C103.634 68.7158 104.316 68.0667 105.157 68.0667H112.378C113.22 68.0667 113.902 68.7158 113.902 69.5169C113.902 70.318 113.22 70.9671 112.378 70.9671Z" fill="#445EA0"/>
<path d="M118.236 83.5111C118.236 84.0429 117.779 84.4779 117.221 84.4779H100.35C99.791 84.4779 99.334 84.0429 99.334 83.5111V76.7517C99.334 76.2199 99.791 75.7849 100.35 75.7849H117.221C117.779 75.7849 118.236 76.2199 118.236 76.7517V83.5111Z" fill="#EEF6FF"/>
<path d="M113.322 89.2603H100.894C100.052 89.2603 99.3701 88.6112 99.3701 87.8101C99.3701 87.009 100.052 86.3599 100.894 86.3599H113.322C114.164 86.3599 114.846 87.009 114.846 87.8101C114.846 88.611 114.164 89.2603 113.322 89.2603Z" fill="#EEF6FF"/>
<path d="M113.322 93.5364H100.894C100.052 93.5364 99.3701 92.8873 99.3701 92.0862C99.3701 91.2852 100.052 90.636 100.894 90.636H113.322C114.164 90.636 114.846 91.2852 114.846 92.0862C114.846 92.8873 114.164 93.5364 113.322 93.5364Z" fill="#EEF6FF"/>
<path d="M113.322 97.8124H100.894C100.052 97.8124 99.3701 97.1633 99.3701 96.3622C99.3701 95.5613 100.052 94.912 100.894 94.912H113.322C114.164 94.912 114.846 95.5613 114.846 96.3622C114.846 97.1633 114.164 97.8124 113.322 97.8124Z" fill="#EEF6FF"/>
<path d="M103.364 83.5111V76.7517C103.364 76.2199 103.821 75.7849 104.38 75.7849H100.35C99.791 75.7849 99.334 76.2199 99.334 76.7517V83.5111C99.334 84.0429 99.791 84.4779 100.35 84.4779H104.38C103.821 84.4779 103.364 84.0429 103.364 83.5111Z" fill="#D9EAFC"/>
<path d="M103.4 87.8101C103.4 87.009 104.082 86.3599 104.923 86.3599H100.893C100.051 86.3599 99.3691 87.009 99.3691 87.8101C99.3691 88.6112 100.051 89.2603 100.893 89.2603H104.923C104.082 89.2603 103.4 88.611 103.4 87.8101Z" fill="#D9EAFC"/>
<path d="M103.4 92.0862C103.4 91.2852 104.082 90.636 104.923 90.636H100.893C100.051 90.636 99.3691 91.2852 99.3691 92.0862C99.3691 92.8873 100.051 93.5364 100.893 93.5364H104.923C104.082 93.5364 103.4 92.8873 103.4 92.0862Z" fill="#D9EAFC"/>
<path d="M103.4 96.3622C103.4 95.5613 104.082 94.912 104.923 94.912H100.893C100.051 94.912 99.3691 95.5613 99.3691 96.3622C99.3691 97.1633 100.051 97.8124 100.893 97.8124H104.923C104.082 97.8124 103.4 97.1633 103.4 96.3622Z" fill="#D9EAFC"/>
<path d="M79.6533 32.9277C79.6533 33.4595 79.1963 33.8945 78.6377 33.8945H41.8721C41.3135 33.8945 40.8564 33.4595 40.8564 32.9277V30.2207C40.8564 29.689 41.3135 29.2539 41.8721 29.2539H78.6377C79.1963 29.2539 79.6533 29.689 79.6533 30.2207V32.9277Z" fill="white"/>
</svg>
