<svg width="60" height="60" viewBox="0 0 60 60" fill="none" xmlns="http://www.w3.org/2000/svg">
<circle cx="30" cy="30" r="30" fill="url(#paint0_linear)"/>
<g filter="url(#filter0_d)">
<path fill-rule="evenodd" clip-rule="evenodd" d="M34.5966 22.9022H45.1164C46.1544 22.9022 46.9996 23.6605 47 24.593V28.8225C47 29.7546 46.1544 30.513 45.1164 30.513H44.4134V45.3092C44.4134 46.2413 43.5682 47 42.5298 47H16.4698C15.4314 47 14.5866 46.2409 14.5866 45.3092V30.5134H13.884C12.8447 30.5134 12 29.7546 12 28.8229V24.593C12 23.6605 12.8452 22.9022 13.884 22.9022H24.4237C22.0845 22.2827 19.5594 21.2595 18.4538 19.6072C17.8569 18.7135 17.7139 17.723 18.0297 16.6638C18.7081 14.395 21.3147 13.0448 23.8389 13.6518C26.3338 14.2531 28.0098 17.1918 29.017 19.7437C29.1747 19.7305 29.3358 19.7234 29.5 19.7234C29.5522 19.7234 29.6029 19.726 29.6537 19.7285C29.6821 19.73 29.7105 19.7314 29.7391 19.7324C30.9122 16.5778 32.8954 12.89 35.9036 12.1659C38.7878 11.4726 41.7643 13.016 42.5389 15.606C42.9019 16.8232 42.7351 17.9587 42.0429 18.9819C40.6835 20.9908 37.4891 22.1952 34.5966 22.9022ZM32.2551 22.7186C31.9463 21.6045 30.9651 20.9617 29.5 20.9617C28.0349 20.9617 27.0537 21.6045 26.7449 22.7186C26.7167 22.8197 26.7942 22.9026 26.9095 22.9026H32.0905C32.2058 22.9026 32.2833 22.8197 32.2551 22.7186ZM25.2607 45.7618H16.4698C16.1916 45.7618 15.9655 45.5588 15.9655 45.3088V30.513H25.2607V45.7618ZM25.2607 29.276V24.1485V24.14H13.884C13.6059 24.14 13.3793 24.343 13.3793 24.593V28.8229C13.3793 29.0726 13.6059 29.276 13.884 29.276H25.2607ZM25.5981 21.9094C22.5441 21.2043 20.4383 20.1691 19.6364 18.9698C19.2319 18.3667 19.1422 17.7164 19.3609 16.9838C19.8418 15.375 21.6924 14.4172 23.4816 14.8477C24.9956 15.212 26.4715 17.0464 27.6697 20.0373C26.7124 20.3951 25.9911 21.046 25.5981 21.9094ZM26.6396 45.7618H32.36V30.513H26.6396V45.7618ZM32.36 29.276H26.6396V24.1485H32.36V29.276ZM36.2601 13.3621C34.3666 13.8179 32.5484 16.1547 31.1089 19.9614C32.1733 20.2971 32.9738 20.9764 33.3975 21.9008C37.2222 21.0729 39.863 19.8176 40.8642 18.339C41.3602 17.6056 41.4724 16.817 41.2068 15.9272C40.6298 13.9968 38.4135 12.8453 36.2601 13.3621ZM43.0341 45.3088C43.0341 45.5588 42.8083 45.7618 42.5298 45.7618H33.7393V30.513H43.0341V45.3088ZM45.1164 29.276C45.3941 29.276 45.6203 29.0726 45.6203 28.8229V24.593C45.6203 24.343 45.3941 24.14 45.1164 24.14H33.7393V24.1485V29.276H45.1164Z" fill="white"/>
</g>
<defs>
<filter id="filter0_d" x="8" y="12" width="43" height="43" filterUnits="userSpaceOnUse" color-interpolation-filters="sRGB">
<feFlood flood-opacity="0" result="BackgroundImageFix"/>
<feColorMatrix in="SourceAlpha" type="matrix" values="0 0 0 0 0 0 0 0 0 0 0 0 0 0 0 0 0 0 127 0"/>
<feOffset dy="4"/>
<feGaussianBlur stdDeviation="2"/>
<feColorMatrix type="matrix" values="0 0 0 0 0 0 0 0 0 0 0 0 0 0 0 0 0 0 0.25 0"/>
<feBlend mode="normal" in2="BackgroundImageFix" result="effect1_dropShadow"/>
<feBlend mode="normal" in="SourceGraphic" in2="effect1_dropShadow" result="shape"/>
</filter>
<linearGradient id="paint0_linear" x1="30" y1="-5" x2="30" y2="60" gradientUnits="userSpaceOnUse">
<stop stop-color="#43A047"/>
<stop offset="1" stop-color="#C3DEA5"/>
</linearGradient>
</defs>
</svg>
