<svg width="22" height="23" viewBox="0 0 22 23" fill="none" xmlns="http://www.w3.org/2000/svg">
<path fill-rule="evenodd" clip-rule="evenodd" d="M21.1783 16.8994L19.9002 15.7371C19.7847 15.6331 19.8001 15.152 19.8001 15.0039V10.0026C19.8001 6.61673 17.2526 3.64595 13.7416 2.58167V2.48865C13.7416 1.1423 12.4888 0 11.0006 0C9.51672 0 8.25839 1.1423 8.25839 2.48865V2.58167C4.74736 3.64595 2.20099 6.61673 2.20099 10.0026V15.0039C2.20099 15.152 2.21529 15.6331 2.1009 15.7371L0.822759 16.8994C0.426779 17.2595 0 17.9277 0 18.5458C0 19.326 0.777661 19.9612 1.73351 19.9612H6.54687C6.99895 21.7007 8.72586 23 10.7806 23C12.8353 23 14.9472 21.7447 15.4003 20.0052L20.2676 19.9612C21.2234 19.9612 22 19.326 22 18.5458C22 17.9297 21.5743 17.2605 21.1783 16.8994ZM10.7805 21.2417C9.80706 21.2417 8.9667 20.7156 8.58612 19.9614H12.9738C12.5932 20.7156 11.7529 21.2417 10.7805 21.2417ZM14.3003 18.0045C14.1485 17.9705 14.4521 17.9705 14.3003 18.0045H7.70065C7.54886 17.9705 7.85245 17.9705 7.70065 18.0045H2.20093C2.24933 17.8325 2.18003 18.0225 2.20093 18.0045L3.47357 16.9782C3.94984 16.5461 4.40082 15.6159 4.40082 15.0037V10.0024C4.40082 7.15368 6.36862 4.76906 9.45397 4.09788C9.88954 4.00286 10.1964 3.64977 10.1964 3.24266V2.48846C10.1964 2.12237 10.5968 2.00034 11.0005 2.00034C11.4152 2.00034 11.8023 2.11537 11.8023 2.48846V3.24266C11.8023 3.64977 12.1103 4.00286 12.5459 4.09788C15.6313 4.76906 17.6002 7.15368 17.6002 10.0024V15.0037C17.6002 15.6159 18.0511 16.5461 18.5274 16.9792L19.8044 18.1395C19.8253 18.1586 19.7803 17.9815 19.8 18.0045H14.3003Z" fill="#CCCCCC"/>
</svg>
