<svg width="84" height="83" viewBox="0 0 84 83" fill="none" xmlns="http://www.w3.org/2000/svg">
<g filter="url(#filter0_d)">
<path d="M41.852 74.6894C62.757 74.6894 79.7039 57.9696 79.7039 37.3447C79.7039 16.7198 62.757 0 41.852 0C20.9469 0 4 16.7198 4 37.3447C4 57.9696 20.9469 74.6894 41.852 74.6894Z" fill="white"/>
</g>
<path d="M52.5464 51.3805C52.1491 51.597 51.7461 51.8203 51.3381 52.0463C47.8854 53.9595 43.9719 56.1277 40.2102 55.7923L26.8911 54.6039C26.8738 54.6024 26.8565 54.6016 26.8391 54.6016H23.1715V48.0136H26.8391C26.9772 48.0136 27.1111 47.9645 27.2168 47.8755C27.2236 47.8698 27.9119 47.2926 29.0071 46.6395C29.2851 46.4737 29.3761 46.1138 29.2106 45.8356C29.0451 45.5573 28.6855 45.4661 28.4076 45.6319C27.5412 46.1486 26.9169 46.6167 26.6324 46.8407H22.5857C22.2623 46.8407 22 47.1033 22 47.4271V55.188C22 55.5119 22.2623 55.7744 22.5857 55.7744H26.8131L40.1062 56.9604C40.4064 56.9873 40.7058 57 41.0054 57C44.8168 57 48.5677 54.9217 51.9052 53.0725C52.3107 52.8478 52.7112 52.6259 53.1062 52.4108C53.3904 52.2561 53.4954 51.8999 53.3408 51.6155C53.1863 51.3309 52.8307 51.2258 52.5464 51.3805Z" fill="#1AAAFF"/>
<path d="M61.5469 44.8806C60.9227 44.0534 59.8348 43.7684 58.8964 44.162C58.8726 43.7863 58.7454 43.4202 58.5224 43.1083C57.9359 42.2877 56.821 42.0232 55.9288 42.493L54.5302 43.2297C54.5125 42.9014 54.4157 42.5784 54.243 42.2932C53.6863 41.3734 52.5102 41.054 51.5655 41.5658L50.5194 42.1326C50.5008 41.7266 50.3634 41.3307 50.1179 40.9967C49.5063 40.165 48.3994 39.9091 47.4855 40.3881L39.95 44.338C39.1038 44.0132 36.4023 43.1331 33.2459 43.7206C32.3832 43.8811 31.4894 44.1527 30.5893 44.5278C30.2906 44.6523 30.1494 44.9956 30.2736 45.2946C30.3979 45.5936 30.7407 45.7351 31.0395 45.6107C31.8637 45.2672 32.678 45.0192 33.4599 44.8737C36.8295 44.2466 39.7132 45.5065 39.7412 45.5189C39.7432 45.5197 39.7451 45.5203 39.7471 45.5212C39.7535 45.5239 39.76 45.5262 39.7665 45.5287C39.7825 45.535 39.7987 45.5407 39.8151 45.5455C39.8229 45.5479 39.8307 45.5499 39.8386 45.5519C39.8547 45.5559 39.8709 45.5592 39.8873 45.5618C39.895 45.5631 39.9025 45.5645 39.9101 45.5655C39.9317 45.5681 39.9535 45.5697 39.9753 45.5699C39.9773 45.5699 39.9793 45.5703 39.9813 45.5703C39.9819 45.5703 39.9825 45.5702 39.9832 45.5702H46.4854C46.4862 45.5702 46.487 45.5703 46.4878 45.5703C46.488 45.5703 46.4882 45.5703 46.4883 45.5703C46.489 45.5703 46.4896 45.5703 46.4902 45.5703H47.8235C48.3816 45.5703 48.8355 46.0248 48.8355 46.5834C48.8355 47.0925 48.455 47.5246 47.9504 47.5885L38.0102 48.8468C37.7168 48.8839 37.4971 49.1343 37.4979 49.4303C37.4988 49.7264 37.7201 49.9754 38.0137 50.0108L42.2353 50.5193C46.3241 51.0119 50.3888 50.2148 53.9898 48.2141L59.2653 45.2831C59.7303 45.0411 60.2959 45.1688 60.6121 45.5878C60.8 45.8369 60.87 46.1546 60.8043 46.4596C60.7384 46.7647 60.5437 47.0251 60.2698 47.1743L54.6065 50.2587C54.3223 50.4135 54.2173 50.7696 54.3719 51.0541C54.4781 51.2496 54.6793 51.3604 54.887 51.3604C54.9815 51.3604 55.0775 51.3374 55.1663 51.289L60.8297 48.2047C61.4034 47.8921 61.8115 47.3464 61.9494 46.7073C62.0874 46.068 61.9406 45.4023 61.5469 44.8806ZM52.123 42.5974C52.5174 42.3835 53.0086 42.517 53.2411 42.9011C53.3624 43.1015 53.3946 43.3361 53.332 43.5619C53.2694 43.7876 53.1209 43.972 52.9138 44.081C52.9136 44.0811 52.9135 44.0813 52.9133 44.0814L49.824 45.7086C49.5843 45.1613 49.1273 44.7305 48.5625 44.5265L49.4346 44.054C49.4347 44.0539 49.4347 44.0538 49.4349 44.0538L52.123 42.5974ZM48.0289 41.4272C48.4264 41.2188 48.9083 41.3301 49.1743 41.692C49.3315 41.9057 49.3862 42.1661 49.3283 42.425C49.2705 42.6839 49.1102 42.8961 48.8773 43.0223L46.3396 44.3973H42.3626L48.0289 41.4272ZM53.4215 47.1885C50.1907 48.9834 46.5631 49.7474 42.8976 49.4103L48.0975 48.7521C49.0611 48.6301 49.8144 47.8856 49.975 46.9544L53.459 45.1193C53.4591 45.1192 53.4592 45.1192 53.4594 45.1191C53.4596 45.1189 53.4598 45.1188 53.4601 45.1187L56.4743 43.531C56.8511 43.3325 57.322 43.4443 57.5698 43.7909C57.7138 43.9924 57.7632 44.2366 57.7088 44.4784C57.6544 44.72 57.5054 44.9193 57.2892 45.0397L53.4215 47.1885Z" fill="#1AAAFF"/>
<path d="M32.1321 29.3835C32.414 29.2247 32.514 28.8671 32.3554 28.5848C31.3489 26.7938 30.9602 24.9961 31.1999 23.2418C31.6009 20.3071 33.4436 18.4201 36.1293 18.1942C38.5731 17.9887 40.8655 19.2683 41.4611 21.1711C41.5368 21.413 41.767 21.5822 42.0201 21.5822C42.2731 21.5822 42.5034 21.4129 42.5791 21.1711C43.1746 19.2683 45.4673 17.9888 47.9109 18.1942C50.5966 18.4202 52.4393 20.3071 52.8403 23.2418C53.0847 25.0309 52.6757 26.8643 51.6244 28.6912C50.7626 30.1885 49.472 31.6854 47.7883 33.1401C45.3705 35.2291 42.8216 36.6324 42.0202 37.0513C40.9115 36.4715 36.4581 34.0062 33.6029 30.4215C33.4011 30.1683 33.0327 30.1267 32.7797 30.3286C32.5268 30.5306 32.4853 30.8995 32.6869 31.1528C36.1155 35.4572 41.535 38.1254 41.764 38.2369C41.9243 38.315 42.116 38.315 42.2763 38.2369C42.4072 38.1732 45.5178 36.646 48.535 34.044C50.3234 32.5016 51.7022 30.9015 52.6329 29.2878C53.8217 27.2268 54.282 25.139 54.001 23.0826C53.7472 21.225 53.0204 19.7362 51.8408 18.6577C50.8084 17.714 49.4835 17.1495 48.009 17.0254C46.6162 16.9079 45.1967 17.2009 44.0116 17.8498C43.1752 18.3078 42.4952 18.9259 42.0201 19.6477C41.545 18.9259 40.8649 18.3078 40.0285 17.8498C38.8435 17.201 37.424 16.908 36.0312 17.0254C34.5567 17.1495 33.2317 17.7139 32.1994 18.6578C31.0199 19.7362 30.2931 21.2251 30.0393 23.0827C29.7641 25.0962 30.1999 27.1408 31.3344 29.1598C31.493 29.4421 31.8501 29.5421 32.1321 29.3835Z" fill="#1AAAFF"/>
<path d="M38.5954 25.6197C38.5954 24.9922 38.0856 24.4818 37.4589 24.4818C36.8321 24.4818 36.3223 24.9922 36.3223 25.6197C36.3223 26.2472 36.8321 26.7576 37.4589 26.7576C38.0856 26.7576 38.5954 26.2472 38.5954 25.6197Z" fill="#1AAAFF"/>
<path d="M47.7185 25.6197C47.7185 24.9922 47.2087 24.4818 46.5819 24.4818C45.9551 24.4818 45.4453 24.9922 45.4453 25.6197C45.4453 26.2472 45.9551 26.7576 46.5819 26.7576C47.2087 26.7576 47.7185 26.2472 47.7185 25.6197Z" fill="#1AAAFF"/>
<path d="M42.0204 29.4802C43.166 29.4802 44.1657 28.7452 44.508 27.6512C44.6047 27.3421 44.4329 27.0131 44.1241 26.9163C43.8154 26.8196 43.4868 26.9916 43.3901 27.3007C43.2017 27.9029 42.6512 28.3073 42.0204 28.3073C41.3895 28.3073 40.8392 27.9028 40.6507 27.3007C40.554 26.9916 40.2253 26.8198 39.9167 26.9163C39.6079 27.0131 39.4361 27.3421 39.5328 27.6512C39.875 28.7452 40.8747 29.4802 42.0204 29.4802Z" fill="#1AAAFF"/>
<defs>
<filter id="filter0_d" x="0" y="0" width="83.7039" height="82.6894" filterUnits="userSpaceOnUse" color-interpolation-filters="sRGB">
<feFlood flood-opacity="0" result="BackgroundImageFix"/>
<feColorMatrix in="SourceAlpha" type="matrix" values="0 0 0 0 0 0 0 0 0 0 0 0 0 0 0 0 0 0 127 0"/>
<feOffset dy="4"/>
<feGaussianBlur stdDeviation="2"/>
<feColorMatrix type="matrix" values="0 0 0 0 0 0 0 0 0 0 0 0 0 0 0 0 0 0 0.25 0"/>
<feBlend mode="normal" in2="BackgroundImageFix" result="effect1_dropShadow"/>
<feBlend mode="normal" in="SourceGraphic" in2="effect1_dropShadow" result="shape"/>
</filter>
</defs>
</svg>
