<svg width="84" height="83" viewBox="0 0 84 83" fill="none" xmlns="http://www.w3.org/2000/svg">
<g filter="url(#filter0_d)">
<path d="M41.852 74.6506C62.757 74.6506 79.7039 57.9395 79.7039 37.3253C79.7039 16.7111 62.757 0 41.852 0C20.9469 0 4 16.7111 4 37.3253C4 57.9395 20.9469 74.6506 41.852 74.6506Z" fill="white"/>
</g>
<path d="M42 17C39.7908 17 38 18.7908 38 21C38 23.2092 39.7908 25 42 25C44.2083 24.9978 45.9978 23.2083 46 21C46 18.7908 44.2092 17 42 17ZM42 23.6667C40.5273 23.6667 39.3333 22.4728 39.3333 21C39.3333 19.5273 40.5273 18.3333 42 18.3333C43.4728 18.3333 44.6667 19.5273 44.6667 21C44.6667 22.4728 43.4728 23.6667 42 23.6667Z" fill="#1AAAFF"/>
<path d="M44.6667 25.6667H44.5093L44.3687 25.7367C42.8769 26.4794 41.1231 26.4794 39.6313 25.7367L39.4907 25.6667H39.3333C37.4933 25.6688 36.0022 27.16 36 29V33C36 34.1046 36.8954 35 38 35H46C47.1046 35 48 34.1046 48 33V29C47.9978 27.16 46.5067 25.6688 44.6667 25.6667ZM46.6667 33C46.6667 33.3682 46.3682 33.6667 46 33.6667H38C37.6318 33.6667 37.3333 33.3682 37.3333 33V29C37.3335 27.9507 38.1446 27.0798 39.1913 27.0053C40.9726 27.832 43.0275 27.832 44.8087 27.0053C45.8553 27.0798 46.6665 27.9507 46.6667 29V33Z" fill="#1AAAFF"/>
<path d="M56 39C53.7908 39 52 40.7908 52 43C52 45.2092 53.7908 47 56 47C58.2092 47 60 45.2092 60 43C59.9978 40.7917 58.2083 39.0022 56 39ZM56 45.6667C54.5273 45.6667 53.3333 44.4728 53.3333 43C53.3333 41.5273 54.5273 40.3333 56 40.3333C57.4728 40.3333 58.6667 41.5273 58.6667 43C58.6667 44.4728 57.4728 45.6667 56 45.6667Z" fill="#1AAAFF"/>
<path d="M58.6667 47.6667H58.5093L58.3687 47.7333C56.8769 48.476 55.1231 48.476 53.6313 47.7333L53.4907 47.6667H53.3333C51.4933 47.6688 50.0022 49.16 50 51V55C50 56.1046 50.8954 57 52 57H60C61.1046 57 62 56.1046 62 55V51C61.9978 49.16 60.5067 47.6688 58.6667 47.6667ZM60.6667 55C60.6667 55.3682 60.3682 55.6667 60 55.6667H52C51.6318 55.6667 51.3333 55.3682 51.3333 55V51C51.3335 49.9507 52.1446 49.0798 53.1913 49.0053C54.9726 49.832 57.0274 49.832 58.8087 49.0053C59.8554 49.0798 60.6665 49.9507 60.6667 51V55Z" fill="#1AAAFF"/>
<path d="M28 39C25.7908 39 24 40.7908 24 43C24 45.2092 25.7908 47 28 47C30.2092 47 32 45.2092 32 43C31.9978 40.7917 30.2083 39.0022 28 39ZM28 45.6667C26.5273 45.6667 25.3333 44.4728 25.3333 43C25.3333 41.5273 26.5273 40.3333 28 40.3333C29.4728 40.3333 30.6667 41.5273 30.6667 43C30.6667 44.4728 29.4728 45.6667 28 45.6667Z" fill="#1AAAFF"/>
<path d="M30.6667 47.6667H30.5093L30.3687 47.7333C28.8769 48.476 27.1231 48.476 25.6313 47.7333L25.4907 47.6667H25.3333C23.4933 47.6688 22.0022 49.16 22 51V55C22 56.1046 22.8954 57 24 57H32C33.1046 57 34 56.1046 34 55V51C33.9978 49.16 32.5067 47.6688 30.6667 47.6667ZM32.6667 55C32.6667 55.3682 32.3682 55.6667 32 55.6667H24C23.6318 55.6667 23.3333 55.3682 23.3333 55V51C23.3335 49.9507 24.1446 49.0798 25.1913 49.0053C26.9726 49.832 29.0274 49.832 30.8087 49.0053C31.8554 49.0798 32.6665 49.9507 32.6667 51V55Z" fill="#1AAAFF"/>
<path d="M48.6144 50.8563C48.614 50.8556 48.6137 50.8548 48.6134 50.854C48.469 50.5153 48.0775 50.3577 47.7388 50.502C44.7284 51.7637 41.385 51.9938 38.2301 51.1567L38.8541 50.9733C39.2076 50.8698 39.4103 50.4995 39.3068 50.146C39.2033 49.7925 38.833 49.5898 38.4795 49.6933L35.8128 50.4753C35.8028 50.4753 35.7955 50.4867 35.7861 50.49C35.7244 50.513 35.6664 50.5452 35.6141 50.5853C35.591 50.5978 35.5687 50.6119 35.5475 50.6274C35.4771 50.6901 35.4214 50.7674 35.3841 50.854C35.348 50.9412 35.3307 51.035 35.3335 51.1293C35.3497 51.2196 35.372 51.3087 35.4001 51.396C35.4041 51.4054 35.4001 51.416 35.4075 51.4253L36.7408 53.9767C36.9113 54.3033 37.3142 54.4298 37.6408 54.2593C37.9674 54.0888 38.094 53.6859 37.9235 53.3593L37.3808 52.322C40.9653 53.3995 44.8137 53.1901 48.2601 51.73C48.5991 51.5866 48.7578 51.1954 48.6144 50.8563Z" fill="#1AAAFF"/>
<path d="M59.8047 34.5287C59.5444 34.2684 59.1224 34.2684 58.862 34.5287L57.9187 35.472C57.3667 29.6328 53.6594 24.5657 48.2614 22.272C47.9226 22.1277 47.531 22.2852 47.3867 22.624C47.2424 22.9627 47.3999 23.3543 47.7387 23.4987C52.5812 25.5567 55.9474 30.0544 56.5567 35.2807L55.8047 34.5287C55.5399 34.2728 55.1179 34.2802 54.862 34.545C54.6125 34.8033 54.6125 35.2129 54.862 35.4713L56.862 37.4713C57.122 37.732 57.5442 37.7326 57.8049 37.4725C57.8053 37.4721 57.8057 37.4717 57.806 37.4713L59.806 35.4713C60.0659 35.2107 60.0654 34.7887 59.8047 34.5287Z" fill="#1AAAFF"/>
<path d="M36.6473 22.7727C36.6452 22.7338 36.6394 22.6952 36.63 22.6573C36.63 22.6513 36.6227 22.6473 36.62 22.6407C36.6173 22.634 36.62 22.6293 36.62 22.624C36.6018 22.5916 36.5808 22.5608 36.5573 22.532C36.5358 22.4929 36.5103 22.4561 36.4813 22.422C36.4419 22.3871 36.3983 22.3573 36.3513 22.3333C36.3279 22.3134 36.3029 22.2953 36.2767 22.2793L33.61 21.0613C33.2694 20.9215 32.8799 21.0843 32.7401 21.4248C32.6078 21.7469 32.7458 22.1166 33.0567 22.2733L34.4373 22.9047C29.2396 25.6864 25.9963 31.1047 26 37C26 37.3682 26.2985 37.6667 26.6667 37.6667C27.0348 37.6667 27.3333 37.3682 27.3333 37C27.33 31.8089 30.0751 27.004 34.5487 24.3707L34.0667 25.378C33.9078 25.7094 34.047 26.1069 34.378 26.2667C34.4679 26.3106 34.5666 26.3334 34.6667 26.3333C34.9227 26.333 35.1558 26.1861 35.2667 25.9553L36.6 23.1733C36.6 23.1667 36.6 23.1593 36.6053 23.1527C36.6227 23.1071 36.6348 23.0597 36.6413 23.0113C36.6528 22.9754 36.6613 22.9387 36.6667 22.9013C36.6644 22.8579 36.658 22.8148 36.6473 22.7727Z" fill="#1AAAFF"/>
<defs>
<filter id="filter0_d" x="0" y="0" width="83.7039" height="82.6506" filterUnits="userSpaceOnUse" color-interpolation-filters="sRGB">
<feFlood flood-opacity="0" result="BackgroundImageFix"/>
<feColorMatrix in="SourceAlpha" type="matrix" values="0 0 0 0 0 0 0 0 0 0 0 0 0 0 0 0 0 0 127 0"/>
<feOffset dy="4"/>
<feGaussianBlur stdDeviation="2"/>
<feColorMatrix type="matrix" values="0 0 0 0 0 0 0 0 0 0 0 0 0 0 0 0 0 0 0.25 0"/>
<feBlend mode="normal" in2="BackgroundImageFix" result="effect1_dropShadow"/>
<feBlend mode="normal" in="SourceGraphic" in2="effect1_dropShadow" result="shape"/>
</filter>
</defs>
</svg>
