<svg width="153" height="149" viewBox="0 0 153 149" fill="none" xmlns="http://www.w3.org/2000/svg">
<ellipse cx="76.5" cy="74.5" rx="76.5" ry="74.5" fill="white"/>
<circle cx="76.5" cy="74.5" r="53.5" fill="#1AAAFF"/>
<path d="M102.464 81.9886C99.1288 82.1579 94.742 84.899 90.5108 86.4755C85.3254 88.4045 77.2523 86.8518 77.2516 86.8518C78.4968 86.3736 83.5572 85.3819 84.5761 85.0116C89.9934 83.0528 89.5352 78.9656 86.9551 78.9999C83.5456 79.0469 81.5451 79.7352 74.7443 80.498C69.5892 81.0749 63.4918 80.8639 60.5674 81.7823C56.439 83.0794 49.7891 91.8068 49.7891 91.8068L60.0692 99.9999C60.0692 99.9999 66.4334 94.846 69.5297 94.846C76.5867 94.846 76.8731 94.766 83.4256 94.4751C86.2104 94.3523 86.7922 94.2585 88.3871 93.8142C96.8802 91.4542 106 85.1634 106.168 84.4065C106.556 82.6539 104.226 81.8985 102.464 81.9886Z" fill="white"/>
<path d="M82.1743 76.166C91.2796 76.166 98.6879 70.0735 98.6879 62.5831C98.6881 55.0928 91.2796 49 82.1743 49C73.0691 49 65.6602 55.0928 65.6602 62.5831C65.6602 70.0735 73.0689 76.166 82.1743 76.166ZM70.9095 68.4579C72.1294 67.9631 71.7575 66.9488 71.3441 66.1066C70.9085 65.2191 70.5784 64.0106 71.3696 63.1775C72.022 62.4863 73.289 62.1886 74.1845 61.7718C75.2649 61.2706 76.1969 60.5384 76.5731 59.545C76.918 58.637 76.3834 57.8111 75.4283 57.3522C74.5955 56.9539 73.5761 57.0035 72.649 56.9792C71.8339 56.9601 70.9066 56.9029 70.5113 56.3804C72.9893 53.2377 77.2913 51.1563 82.1741 51.1563C84.6552 51.1563 86.9875 51.6945 89.007 52.6348C88.9028 53.2784 88.6122 53.865 87.9631 54.309C87.3063 54.7535 86.4082 54.9319 85.618 55.1512C84.8669 55.3562 84.1138 55.6043 83.5489 56.0803C82.8857 56.6392 82.7598 57.417 82.744 58.1628C82.7339 58.6283 82.7374 59.2917 83.2393 59.6055C83.6177 59.8409 84.1154 59.6761 84.4751 59.5006C85.5996 58.9521 86.4132 58.0313 87.6166 57.5802C87.9798 57.4457 88.3598 57.4525 88.6092 57.7315C89.3415 58.5453 88.9609 59.5769 88.3108 60.3237C87.9077 60.7837 87.3817 61.174 86.8866 61.5651C86.5118 61.8627 86.2608 62.0468 85.772 62.1889C84.8745 62.4507 85.0242 63.5902 85.4497 64.1071C85.8136 64.5465 86.283 64.9107 86.6418 65.3612C86.9063 65.6957 87.1953 66.022 87.5434 66.3003C88.1556 66.7896 88.97 66.8992 89.7901 66.9352C91.1298 66.9944 92.6044 67.2458 93.9106 66.9092C94.3316 66.8012 94.6738 66.5113 94.989 66.2725C95.1496 66.1522 95.2925 66.0635 95.4268 66.0135C93.9918 69.7598 90.2674 72.6772 85.6102 73.6563C84.905 73.1448 83.9792 72.7825 83.2267 72.3484C82.949 72.1892 82.2725 71.8536 82.2393 71.5311C82.1837 70.9751 83.1489 71.1013 83.5593 71.1324C84.0866 71.1722 84.6125 71.2501 85.1434 71.2117C85.7386 71.1688 86.2706 70.8489 86.6989 70.5275C87.542 69.8945 87.8197 68.8715 87.3913 68.0073C86.9952 67.2098 86.0716 66.8253 85.2037 66.4315C84.8101 66.253 84.4918 66.1185 84.1651 65.8516C83.7678 65.5275 83.1628 65.4232 82.6182 65.4496C81.684 65.493 81.0085 65.9843 80.063 65.6C79.4053 65.335 78.9419 64.9526 78.1857 64.8743C76.8821 64.7375 75.6111 65.1346 74.8381 66.0295C73.5259 67.5514 74.0939 69.4471 74.8564 71.062C75.1084 71.5944 75.4409 72.2018 75.867 72.7633C73.6059 71.8112 71.7021 70.364 70.3674 68.5972C70.5578 68.5709 70.7426 68.526 70.9095 68.4579Z" fill="white"/>
</svg>
