<svg width="22" height="23" viewBox="0 0 22 23" fill="none" xmlns="http://www.w3.org/2000/svg">
<path fill-rule="evenodd" clip-rule="evenodd" d="M21.4814 0H0.518571C0.231943 0 0 0.415382 0 0.929395C0 1.44285 0.231943 1.85879 0.518571 1.85879H21.4814C21.7681 1.85879 22 1.44285 22 0.929395C22 0.415382 21.7681 0 21.4814 0ZM21.4814 21.1406H0.518571C0.231943 21.1406 0 21.5566 0 22.0706C0 22.5846 0.231943 23 0.518571 23H21.4814C21.7681 23 22 22.5846 22 22.0706C22 21.5566 21.7681 21.1406 21.4814 21.1406ZM0.518571 10.57H21.4814C21.7681 10.57 22 10.9866 22 11.5C22 12.0135 21.7681 12.43 21.4814 12.43H0.518571C0.231943 12.43 0 12.0135 0 11.5C0 10.9866 0.231943 10.57 0.518571 10.57Z" fill="#666666"/>
<path fill-rule="evenodd" clip-rule="evenodd" d="M21.4814 0H0.518571C0.231943 0 0 0.415382 0 0.929395C0 1.44285 0.231943 1.85879 0.518571 1.85879H21.4814C21.7681 1.85879 22 1.44285 22 0.929395C22 0.415382 21.7681 0 21.4814 0ZM21.4814 21.1406H0.518571C0.231943 21.1406 0 21.5566 0 22.0706C0 22.5846 0.231943 23 0.518571 23H21.4814C21.7681 23 22 22.5846 22 22.0706C22 21.5566 21.7681 21.1406 21.4814 21.1406ZM0.518571 10.57H21.4814C21.7681 10.57 22 10.9866 22 11.5C22 12.0135 21.7681 12.43 21.4814 12.43H0.518571C0.231943 12.43 0 12.0135 0 11.5C0 10.9866 0.231943 10.57 0.518571 10.57Z" fill="#CCCCCC"/>
</svg>
