<svg width="1022" height="2706" viewBox="0 0 1022 2706" fill="none" xmlns="http://www.w3.org/2000/svg">
<path d="M0 -257.504H1024V2706H511H0V-257.504Z" fill="url(#paint0_linear)"/>
<path fill-rule="evenodd" clip-rule="evenodd" d="M407.709 -88.6187C430.158 162.108 609.539 266.99 698.107 291.53C970.623 367.037 857.006 548.42 1084.47 520.053C1141.45 512.947 1220.45 401.568 1232.91 393.502C1253.53 380.162 1232.74 335.675 1250.08 260.501C1267.42 185.327 1276.65 188.783 1333.87 178.693C1333.87 178.693 1385.24 147.781 1377.39 103.273C1369.55 58.7634 1455.5 -375.983 1213.02 -379.12C985.191 -382.067 939.475 -358.267 622.615 -358.267C530.795 -358.267 385.26 -339.345 407.709 -88.6187Z" fill="#1AAAFF"/>
<defs>
<linearGradient id="paint0_linear" x1="1465.26" y1="1101.38" x2="-57.7223" y2="92.4748" gradientUnits="userSpaceOnUse">
<stop stop-color="#EEF1F6"/>
<stop offset="1" stop-color="#FCFDFD"/>
</linearGradient>
</defs>
</svg>
