<svg width="38" height="40" viewBox="0 0 38 40" fill="none" xmlns="http://www.w3.org/2000/svg">
<path d="M36.2542 2.66667C36.2541 2.66667 36.2539 2.66667 36.2538 2.66667H25.7805V0.666667C25.7806 0.298583 25.42 8.33508e-05 24.9752 1.74538e-08C24.9751 1.74538e-08 24.9749 1.74538e-08 24.9748 1.74538e-08H12.0846C11.6398 -8.33159e-05 11.2791 0.29825 11.279 0.666333C11.279 0.666417 11.279 0.666583 11.279 0.666667V2.66667H0.80564C0.360826 2.66658 0.000100726 2.96492 2.10923e-08 3.333C2.10923e-08 3.33308 2.10923e-08 3.33325 2.10923e-08 3.33333V39.3333C-0.000100684 39.7014 0.360423 39.9999 0.805237 40C0.805337 40 0.805539 40 0.80564 40H36.2538C36.6986 40.0001 37.0593 39.7018 37.0594 39.3337C37.0594 39.3336 37.0594 39.3334 37.0594 39.3333V3.33333C37.0595 2.96525 36.699 2.66675 36.2542 2.66667ZM12.8902 1.33333H24.1692V5.33333H12.8902V1.33333ZM35.4481 38.6667H1.61128V4H11.279V6C11.2789 6.36808 11.6394 6.66658 12.0842 6.66667C12.0843 6.66667 12.0845 6.66667 12.0846 6.66667H24.9748C25.4196 6.66675 25.7804 6.36842 25.7805 6.00033C25.7805 6.00025 25.7805 6.00008 25.7805 6V4H35.4481V38.6667Z" fill="#1AAAFF"/>
<path d="M20.9468 30.6668H3.22278V32.0001H20.9468V30.6668Z" fill="#1AAAFF"/>
<path d="M33.8367 30.6668H22.5577V32.0001H33.8367V30.6668Z" fill="#1AAAFF"/>
<path d="M33.8371 33.3333H3.22278V34.6667H33.8371V33.3333Z" fill="#1AAAFF"/>
<path d="M16.113 35.9999H3.22278V37.3333H16.113V35.9999Z" fill="#1AAAFF"/>
<path d="M33.8373 35.9999H17.7245V37.3333H33.8373V35.9999Z" fill="#1AAAFF"/>
<path d="M8.86266 19.3331C8.86256 19.3331 8.86236 19.3331 8.86225 19.3331H4.02842C3.5836 19.3331 3.22288 19.6314 3.22278 19.9995C3.22278 19.9996 3.22278 19.9997 3.22278 19.9998V28.6665C3.22268 29.0346 3.5832 29.3331 4.02802 29.3331C4.02812 29.3331 4.02832 29.3331 4.02842 29.3331H8.86225C9.30707 29.3332 9.66779 29.0349 9.66789 28.6668C9.66789 28.6667 9.66789 28.6666 9.66789 28.6665V19.9998C9.66799 19.6317 9.30747 19.3332 8.86266 19.3331ZM8.05661 27.9998H4.83406V20.6665H8.05661V27.9998Z" fill="#1AAAFF"/>
<path d="M16.9188 16.6666C16.9187 16.6666 16.9185 16.6666 16.9184 16.6666H12.0846C11.6398 16.6665 11.279 16.9648 11.2789 17.3329C11.2789 17.333 11.2789 17.3331 11.2789 17.3332V28.6666C11.2788 29.0346 11.6394 29.3331 12.0842 29.3332C12.0843 29.3332 12.0845 29.3332 12.0846 29.3332H16.9184C17.3632 29.3333 17.7239 29.035 17.724 28.6669C17.724 28.6668 17.724 28.6666 17.724 28.6666V17.3332C17.7241 16.9651 17.3636 16.6666 16.9188 16.6666ZM16.1128 27.9999H12.8902V17.9999H16.1128V27.9999Z" fill="#1AAAFF"/>
<path d="M24.9748 14.0002C24.9747 14.0002 24.9745 14.0002 24.9744 14.0002H20.1406C19.6958 14.0001 19.3351 14.2984 19.335 14.6665C19.335 14.6666 19.335 14.6668 19.335 14.6669V28.6669C19.3349 29.0349 19.6954 29.3334 20.1402 29.3335C20.1403 29.3335 20.1405 29.3335 20.1406 29.3335H24.9744C25.4193 29.3336 25.78 29.0353 25.7801 28.6672C25.7801 28.6671 25.7801 28.6669 25.7801 28.6669V14.6669C25.7802 14.2988 25.4197 14.0003 24.9748 14.0002ZM24.1688 28.0002H20.9462V15.3335H24.1688V28.0002Z" fill="#1AAAFF"/>
<path d="M33.0309 11.3334C33.0308 11.3334 33.0306 11.3334 33.0305 11.3334H28.1966C27.7518 11.3333 27.3911 11.6316 27.391 11.9997C27.391 11.9998 27.391 12 27.391 12.0001V28.6667C27.3909 29.0348 27.7514 29.3333 28.1962 29.3334C28.1963 29.3334 28.1965 29.3334 28.1966 29.3334H33.0305C33.4753 29.3335 33.836 29.0351 33.8361 28.6671C33.8361 28.667 33.8361 28.6668 33.8361 28.6667V12.0001C33.8362 11.632 33.4757 11.3335 33.0309 11.3334ZM32.2248 28.0001H29.0023V12.6667H32.2248V28.0001Z" fill="#1AAAFF"/>
<path d="M32.8727 6.6797L24.8163 8.01303C24.7131 8.03011 24.6151 8.06378 24.5275 8.11203L17.4797 12H10.4729C10.3219 12 10.174 12.0352 10.0461 12.1016L3.60095 15.4349L4.45463 16.5652L10.7038 13.3334H17.7236C17.8826 13.3333 18.0381 13.2944 18.1705 13.2214L25.2888 9.29428L33.189 7.98695L32.8727 6.6797Z" fill="#1AAAFF"/>
</svg>
