<svg width="84" height="83" viewBox="0 0 84 83" fill="none" xmlns="http://www.w3.org/2000/svg">
<g filter="url(#filter0_d)">
<path d="M41.852 74.6894C62.757 74.6894 79.7039 57.9696 79.7039 37.3447C79.7039 16.7198 62.757 0 41.852 0C20.9469 0 4 16.7198 4 37.3447C4 57.9696 20.9469 74.6894 41.852 74.6894Z" fill="white"/>
</g>
<path d="M54.8907 51.2189H48.5524C48.7592 50.8209 48.8769 50.3694 48.8769 49.8907C48.8769 48.2968 47.5801 47.0001 45.9862 47.0001H40.6531C39.9029 47.0001 39.1939 46.6725 38.7078 46.1013L36.2907 43.2618C34.3402 40.9705 31.4957 39.6563 28.4867 39.6563H22.7813C22.3499 39.6563 22 40.0061 22 40.4376V50.5668C22 50.8386 22.1413 51.0908 22.3728 51.2328L28.88 55.2227C30.7762 56.3855 32.9543 57.0001 35.1787 57.0001L54.8907 57.0011C54.8909 57.0011 54.8909 57.0011 54.891 57.0011C55.663 57.0011 56.389 56.7004 56.9348 56.1545C57.4808 55.6085 57.7815 54.8826 57.7815 54.1095C57.7814 52.5156 56.4847 51.2189 54.8907 51.2189ZM55.8299 55.0497C55.579 55.3006 55.2456 55.4387 54.8908 55.4387C54.8907 55.4387 54.8907 55.4387 54.8907 55.4387L35.1786 55.4377C33.2428 55.4376 31.3471 54.9027 29.6968 53.8908L23.5625 50.1294V41.2188H28.4864C31.0368 41.2188 33.4476 42.3326 35.1008 44.2746L37.5179 47.1142C38.3014 48.0347 39.4441 48.5626 40.653 48.5626H45.9862C46.7185 48.5626 47.3143 49.1584 47.3143 49.8907C47.3143 50.6231 46.7185 51.2189 45.9862 51.2189H37.5452C36.9925 51.2189 36.4553 51.0596 35.9919 50.7582L33.0232 48.8274C32.8436 48.6083 32.5511 48.4949 32.2546 48.5583C31.8328 48.6488 31.564 49.0641 31.6545 49.486L31.6654 49.5369C31.7087 49.7388 31.8301 49.9154 32.0033 50.0281L35.1399 52.0681C35.8575 52.5349 36.6891 52.7815 37.5451 52.7815H54.8906C55.6229 52.7815 56.2187 53.3773 56.2187 54.1107C56.2189 54.4653 56.0808 54.7988 55.8299 55.0497Z" fill="#1AAAFF"/>
<path d="M52.1227 24.0758C51.9774 23.9305 51.7767 23.8469 51.5704 23.8469C51.3649 23.8469 51.1634 23.9305 51.018 24.0758C50.8727 24.2212 50.7891 24.4227 50.7891 24.6282C50.7891 24.8337 50.8726 25.0352 51.018 25.1806C51.1641 25.3259 51.3649 25.4095 51.5704 25.4095C51.7767 25.4095 51.9774 25.3259 52.1227 25.1806C52.2688 25.0352 52.3524 24.8337 52.3524 24.6282C52.3524 24.4227 52.2688 24.2212 52.1227 24.0758Z" fill="#1AAAFF"/>
<path d="M61.6274 22.7684L55.1202 18.7783C53.2241 17.6156 51.046 17.001 48.8216 17.0009L29.1095 17C29.1095 17 29.1095 17 29.1095 17C28.3373 17 27.6114 17.3007 27.0655 17.8466C26.5195 18.3926 26.2188 19.1185 26.2188 19.8916C26.2188 21.4854 27.5156 22.7822 29.1094 22.7822H35.4477C35.2409 23.1802 35.1232 23.6317 35.1232 24.1104C35.1232 25.7042 36.42 27.001 38.0139 27.001H43.347C44.0972 27.001 44.8062 27.3286 45.2924 27.8998L47.7095 30.7393C49.6599 33.0306 52.5044 34.3448 55.5135 34.3448H61.2188C61.6502 34.3448 62 33.995 62 33.5635V23.4344C62.0002 23.1627 61.859 22.9104 61.6274 22.7684ZM60.4376 32.7823H55.5137C52.9633 32.7823 50.5525 31.6685 48.8993 29.7265L46.4822 26.887C45.6987 25.9664 44.556 25.4385 43.3471 25.4385H38.0139C37.2816 25.4385 36.6858 24.8427 36.6858 24.1104C36.6858 23.378 37.2816 22.7822 38.0139 22.7822H46.455C47.0079 22.7822 47.5449 22.9415 48.0083 23.2429L48.8602 23.7971C49.2219 24.0324 49.7058 23.9298 49.9411 23.5681C50.1764 23.2064 50.0738 22.7224 49.7121 22.4872L48.8602 21.9331C48.1427 21.4664 47.3111 21.2197 46.455 21.2197H29.1095C28.3771 21.2197 27.7813 20.6239 27.7813 19.8906C27.7813 19.5358 27.9195 19.2023 28.1703 18.9514C28.4211 18.7006 28.7548 18.5625 29.1095 18.5625L48.8215 18.5635C50.7574 18.5636 52.6531 19.0986 54.3034 20.1105L60.4377 23.8719V32.7823H60.4376Z" fill="#1AAAFF"/>
<path d="M44.5642 31.0169C43.6384 31.0169 42.7372 31.3292 42.0001 31.891C41.263 31.3291 40.3617 31.0169 39.436 31.0169C37.059 31.0169 35.1251 33.0143 35.1251 35.4696C35.1251 37.131 36.2455 38.9006 38.4551 40.7293C40.0182 42.0228 41.5602 42.8716 41.6251 42.9071C41.7419 42.971 41.871 43.003 42.0001 43.003C42.1293 43.003 42.2583 42.9711 42.3751 42.9071C42.44 42.8716 43.982 42.0227 45.5451 40.7293C47.7547 38.9006 48.8751 37.131 48.8751 35.4696C48.8751 33.0144 46.9412 31.0169 44.5642 31.0169ZM41.9997 41.3225C40.2273 40.2758 36.6876 37.7204 36.6876 35.4697C36.6876 33.876 37.9206 32.5795 39.436 32.5795C40.1929 32.5795 40.8984 32.8966 41.4223 33.4725C41.5703 33.6352 41.7801 33.728 42.0001 33.728C42.2201 33.728 42.43 33.6352 42.5779 33.4725C43.1019 32.8966 43.8073 32.5795 44.5642 32.5795C46.0797 32.5795 47.3126 33.876 47.3126 35.4697C47.3126 37.7157 43.7717 40.2742 41.9997 41.3225Z" fill="#1AAAFF"/>
<path d="M45.4373 33.6871C45.4227 33.6709 45.408 33.6549 45.393 33.6391C45.0966 33.3255 44.6022 33.3116 44.2886 33.6081C43.975 33.9045 43.9611 34.3989 44.2575 34.7125L44.2754 34.732C44.4297 34.9036 44.6427 34.9908 44.8565 34.9908C45.0427 34.9908 45.2294 34.9247 45.3787 34.7905C45.6995 34.5019 45.7258 34.0079 45.4373 33.6871Z" fill="#1AAAFF"/>
<path d="M45.4601 35.97C45.0847 35.7578 44.6079 35.89 44.3956 36.2657C43.8024 37.3149 42.1942 38.3566 41.6246 38.6695C41.2464 38.8768 41.1077 39.3513 41.3147 39.7296C41.4567 39.9889 41.7245 40.1359 42.0008 40.1359C42.1275 40.1359 42.2561 40.105 42.3751 40.0399C42.4745 39.9855 44.8208 38.6885 45.7558 37.0346C45.9681 36.6589 45.8357 36.1824 45.4601 35.97Z" fill="#1AAAFF"/>
<defs>
<filter id="filter0_d" x="0" y="0" width="83.7039" height="82.6894" filterUnits="userSpaceOnUse" color-interpolation-filters="sRGB">
<feFlood flood-opacity="0" result="BackgroundImageFix"/>
<feColorMatrix in="SourceAlpha" type="matrix" values="0 0 0 0 0 0 0 0 0 0 0 0 0 0 0 0 0 0 127 0"/>
<feOffset dy="4"/>
<feGaussianBlur stdDeviation="2"/>
<feColorMatrix type="matrix" values="0 0 0 0 0 0 0 0 0 0 0 0 0 0 0 0 0 0 0.25 0"/>
<feBlend mode="normal" in2="BackgroundImageFix" result="effect1_dropShadow"/>
<feBlend mode="normal" in="SourceGraphic" in2="effect1_dropShadow" result="shape"/>
</filter>
</defs>
</svg>
