<svg width="84" height="83" viewBox="0 0 84 83" fill="none" xmlns="http://www.w3.org/2000/svg">
<g filter="url(#filter0_d)">
<path d="M41.852 74.6894C62.757 74.6894 79.7039 57.9696 79.7039 37.3447C79.7039 16.7198 62.757 0 41.852 0C20.9469 0 4 16.7198 4 37.3447C4 57.9696 20.9469 74.6894 41.852 74.6894Z" fill="white"/>
</g>
<path d="M59.2542 19.6667C59.2541 19.6667 59.2539 19.6667 59.2538 19.6667H48.7805V17.6667C48.7806 17.2986 48.42 17.0001 47.9752 17C47.9751 17 47.9749 17 47.9748 17H35.0846C34.6398 16.9999 34.2791 17.2983 34.279 17.6663C34.279 17.6664 34.279 17.6666 34.279 17.6667V19.6667H23.8056C23.3608 19.6666 23.0001 19.9649 23 20.333C23 20.3331 23 20.3333 23 20.3333V56.3333C22.9999 56.7014 23.3604 56.9999 23.8052 57C23.8053 57 23.8055 57 23.8056 57H59.2538C59.6986 57.0001 60.0593 56.7018 60.0594 56.3337C60.0594 56.3336 60.0594 56.3334 60.0594 56.3333V20.3333C60.0595 19.9653 59.699 19.6668 59.2542 19.6667ZM35.8902 18.3333H47.1692V22.3333H35.8902V18.3333ZM58.4481 55.6667H24.6113V21H34.279V23C34.2789 23.3681 34.6394 23.6666 35.0842 23.6667C35.0843 23.6667 35.0845 23.6667 35.0846 23.6667H47.9748C48.4196 23.6668 48.7804 23.3684 48.7805 23.0003C48.7805 23.0002 48.7805 23.0001 48.7805 23V21H58.4481V55.6667Z" fill="#1AAAFF"/>
<path d="M43.9468 47.6668H26.2228V49.0001H43.9468V47.6668Z" fill="#1AAAFF"/>
<path d="M56.8367 47.6668H45.5577V49.0001H56.8367V47.6668Z" fill="#1AAAFF"/>
<path d="M56.8371 50.3333H26.2228V51.6667H56.8371V50.3333Z" fill="#1AAAFF"/>
<path d="M39.113 52.9999H26.2228V54.3333H39.113V52.9999Z" fill="#1AAAFF"/>
<path d="M56.8373 52.9999H40.7245V54.3333H56.8373V52.9999Z" fill="#1AAAFF"/>
<path d="M31.8627 36.3331C31.8626 36.3331 31.8624 36.3331 31.8623 36.3331H27.0284C26.5836 36.3331 26.2229 36.6314 26.2228 36.9995C26.2228 36.9996 26.2228 36.9997 26.2228 36.9998V45.6665C26.2227 46.0346 26.5832 46.3331 27.028 46.3331C27.0281 46.3331 27.0283 46.3331 27.0284 46.3331H31.8623C32.3071 46.3332 32.6678 46.0349 32.6679 45.6668C32.6679 45.6667 32.6679 45.6666 32.6679 45.6665V36.9998C32.668 36.6317 32.3075 36.3332 31.8627 36.3331ZM31.0566 44.9998H27.8341V37.6665H31.0566V44.9998Z" fill="#1AAAFF"/>
<path d="M39.9187 33.6666C39.9186 33.6666 39.9184 33.6666 39.9183 33.6666H35.0845C34.6397 33.6665 34.279 33.9648 34.2789 34.3329C34.2789 34.333 34.2789 34.3331 34.2789 34.3332V45.6666C34.2788 46.0346 34.6393 46.3331 35.0841 46.3332C35.0842 46.3332 35.0844 46.3332 35.0845 46.3332H39.9183C40.3632 46.3333 40.7239 46.035 40.724 45.6669C40.724 45.6668 40.724 45.6666 40.724 45.6666V34.3332C40.7241 33.9651 40.3636 33.6666 39.9187 33.6666ZM39.1127 44.9999H35.8901V34.9999H39.1127V44.9999Z" fill="#1AAAFF"/>
<path d="M47.9748 31.0002C47.9747 31.0002 47.9745 31.0002 47.9744 31.0002H43.1406C42.6958 31.0001 42.3351 31.2984 42.335 31.6665C42.335 31.6666 42.335 31.6668 42.335 31.6669V45.6669C42.3349 46.0349 42.6954 46.3334 43.1402 46.3335C43.1403 46.3335 43.1405 46.3335 43.1406 46.3335H47.9744C48.4193 46.3336 48.78 46.0353 48.7801 45.6672C48.7801 45.6671 48.7801 45.6669 48.7801 45.6669V31.6669C48.7802 31.2988 48.4197 31.0003 47.9748 31.0002ZM47.1688 45.0002H43.9462V32.3335H47.1688V45.0002Z" fill="#1AAAFF"/>
<path d="M56.0309 28.3334C56.0308 28.3334 56.0306 28.3334 56.0305 28.3334H51.1967C50.7519 28.3333 50.3912 28.6316 50.3911 28.9997C50.3911 28.9998 50.3911 29 50.3911 29.0001V45.6667C50.391 46.0348 50.7515 46.3333 51.1963 46.3334C51.1964 46.3334 51.1966 46.3334 51.1967 46.3334H56.0305C56.4753 46.3335 56.8361 46.0351 56.8362 45.6671C56.8362 45.667 56.8362 45.6668 56.8362 45.6667V29.0001C56.8363 28.632 56.4757 28.3335 56.0309 28.3334ZM55.2249 45.0001H52.0023V29.6667H55.2249V45.0001Z" fill="#1AAAFF"/>
<path d="M55.8727 23.6797L47.8163 25.013C47.7132 25.0301 47.6151 25.0638 47.5276 25.112L40.4798 29H33.4729C33.322 29 33.174 29.0352 33.0461 29.1016L26.601 32.4349L27.4547 33.5652L33.7038 30.3334H40.7237C40.8827 30.3333 41.0382 30.2944 41.1706 30.2214L48.2888 26.2943L56.189 24.9869L55.8727 23.6797Z" fill="#1AAAFF"/>
<defs>
<filter id="filter0_d" x="0" y="0" width="83.7039" height="82.6894" filterUnits="userSpaceOnUse" color-interpolation-filters="sRGB">
<feFlood flood-opacity="0" result="BackgroundImageFix"/>
<feColorMatrix in="SourceAlpha" type="matrix" values="0 0 0 0 0 0 0 0 0 0 0 0 0 0 0 0 0 0 127 0"/>
<feOffset dy="4"/>
<feGaussianBlur stdDeviation="2"/>
<feColorMatrix type="matrix" values="0 0 0 0 0 0 0 0 0 0 0 0 0 0 0 0 0 0 0.25 0"/>
<feBlend mode="normal" in2="BackgroundImageFix" result="effect1_dropShadow"/>
<feBlend mode="normal" in="SourceGraphic" in2="effect1_dropShadow" result="shape"/>
</filter>
</defs>
</svg>
