<svg width="40" height="40" viewBox="0 0 40 40" fill="none" xmlns="http://www.w3.org/2000/svg">
<path d="M16.676 2.66779C8.9469 2.66779 2.68127 8.93341 2.68127 16.6625C2.68127 24.3916 8.9469 30.6572 16.676 30.6572C24.4051 30.6572 30.6707 24.3916 30.6707 16.6625C30.6623 8.93691 24.4016 2.6762 16.676 2.66779ZM16.676 4.00061C20.7924 4.00386 24.6499 6.0101 27.0161 9.37858L25.35 11.0446C24.9446 10.7993 24.4804 10.668 24.0065 10.6648C22.5343 10.6648 21.3409 11.8582 21.3409 13.3304C21.3432 13.8048 21.4737 14.2697 21.7187 14.6759L17.3551 19.0396C16.5288 18.5358 15.4903 18.5358 14.6641 19.0396L11.6332 16.0087C11.8782 15.6026 12.0087 15.1376 12.0111 14.6632C12.0129 13.194 10.8234 12.0014 9.35408 11.9996C8.13896 11.9981 7.07728 12.82 6.77439 13.9968H4.30199C5.56377 8.17012 10.7142 4.00936 16.676 4.00061ZM25.3394 13.3304C25.3394 14.0666 24.7427 14.6632 24.0065 14.6632C23.2704 14.6632 22.6737 14.0666 22.6737 13.3304C22.6737 12.5943 23.2704 11.9976 24.0065 11.9976C24.7427 11.9976 25.3394 12.5943 25.3394 13.3304ZM17.3424 21.3274C17.3424 22.0635 16.7457 22.6602 16.0096 22.6602C15.2734 22.6602 14.6767 22.0635 14.6767 21.3274C14.6767 20.5912 15.2734 19.9946 16.0096 19.9946C16.7457 19.9946 17.3424 20.5912 17.3424 21.3274ZM10.6782 14.6632C10.6782 15.3994 10.0816 15.9961 9.34542 15.9961C8.60928 15.9961 8.01259 15.3994 8.01259 14.6632C8.01259 13.9271 8.60928 13.3304 9.34542 13.3304C10.0816 13.3304 10.6782 13.9271 10.6782 14.6632ZM22.8281 27.7338C20.9462 28.7787 18.8287 29.3262 16.676 29.3243C9.68779 29.329 4.01885 23.6679 4.0141 16.6797C4.01377 16.2287 4.03759 15.778 4.08541 15.3296H6.77439C7.07736 16.5029 8.13363 17.3242 9.34542 17.3288C9.81982 17.3265 10.2847 17.196 10.6909 16.951L13.7218 19.9818C13.4768 20.388 13.3462 20.8529 13.3439 21.3273C13.3439 22.7995 14.5374 23.993 16.0096 23.993C17.4818 23.993 18.6752 22.7995 18.6752 21.3273C18.6729 20.8529 18.5424 20.388 18.2974 19.9818L22.661 15.6181C23.0672 15.8631 23.5321 15.9937 24.0065 15.996C25.4787 15.996 26.6722 14.8025 26.6722 13.3303C26.6699 12.8559 26.5393 12.391 26.2943 11.9848L27.7471 10.5327C31.1388 16.6411 28.9364 24.3422 22.8281 27.7338Z" fill="#1AAAFF"/>
<path d="M33.3359 6.66628C34.5476 6.6617 35.6039 5.84043 35.9069 4.66704H40V3.33421H35.9069C35.6039 2.16082 34.5476 1.33955 33.3359 1.33497C31.8637 1.33497 30.6702 2.52843 30.6702 4.00063C30.6725 4.47503 30.8031 4.93994 31.0481 5.34612L29.8772 6.51701C24.2747 -0.78198 13.816 -2.15729 6.51701 3.44517C-0.78198 9.04763 -2.15729 19.5064 3.44517 26.8054C8.7335 33.6951 18.4274 35.3663 25.7174 30.6452L27.7286 32.6564L28.671 33.5988L34.0356 38.9634C35.4 40.3278 37.612 40.3278 38.9764 38.9634C40.3408 37.599 40.3408 35.387 38.9764 34.0226L33.6117 28.658L32.6694 27.7157L30.6582 25.7044C34.2284 20.2052 34.2284 13.1199 30.6582 7.62059L31.991 6.28776C32.397 6.53283 32.8617 6.66362 33.3359 6.66628ZM33.3359 2.6678C34.072 2.6678 34.6687 3.26449 34.6687 4.00063C34.6687 4.73676 34.072 5.33346 33.3359 5.33346C32.5997 5.33346 32.003 4.73676 32.003 4.00063C32.003 3.26449 32.5998 2.6678 33.3359 2.6678ZM38.0341 34.9649C38.8876 35.7993 38.9032 37.1676 38.0688 38.0211C37.2345 38.8746 35.8661 38.8902 35.0126 38.0558C35.0009 38.0444 34.9894 38.0328 34.9779 38.0211L29.6133 32.6564L32.6694 29.6003L38.0341 34.9649ZM31.7271 28.658L28.671 31.7141L26.8263 29.8695C26.9203 29.7975 27.0083 29.7182 27.1009 29.6443C27.1935 29.5703 27.3008 29.4816 27.4001 29.3983C27.546 29.2757 27.69 29.1518 27.8313 29.0245C27.9039 28.9578 27.9732 28.8912 28.0445 28.8246C28.3178 28.5687 28.5823 28.3041 28.8382 28.0309C28.9049 27.9596 28.9715 27.8903 29.0381 27.8176C29.1654 27.6763 29.2894 27.5324 29.412 27.3864C29.4956 27.2878 29.5775 27.1881 29.6579 27.0872C29.7312 26.9953 29.8105 26.9073 29.8825 26.8133L31.7271 28.658ZM29.1428 25.5625C28.9329 25.8557 28.7163 26.1429 28.4877 26.4195C28.421 26.5001 28.3497 26.5781 28.2811 26.6574C28.0772 26.8946 27.8666 27.1248 27.6493 27.3478C27.5547 27.4455 27.4585 27.5417 27.3608 27.6363C27.1386 27.8536 26.9085 28.0642 26.6704 28.2681C26.5911 28.3347 26.5131 28.4074 26.4325 28.4747C26.1559 28.7033 25.8687 28.9199 25.5755 29.1298C18.6767 34.0583 9.08878 32.4612 4.16023 25.5625C-0.768318 18.6637 0.828827 9.07579 7.72755 4.14724C14.6263 -0.781313 24.2142 0.815749 29.1428 7.71455C32.9564 13.0527 32.9564 20.2243 29.1428 25.5625Z" fill="#1AAAFF"/>
</svg>
