<svg width="40" height="40" viewBox="0 0 40 40" fill="none" xmlns="http://www.w3.org/2000/svg">
<path d="M32.8907 34.2189H26.5524C26.7592 33.8209 26.8769 33.3694 26.8769 32.8907C26.8769 31.2968 25.5801 30.0001 23.9862 30.0001H18.6531C17.9029 30.0001 17.1939 29.6725 16.7078 29.1013L14.2907 26.2617C12.3402 23.9704 9.49575 22.6562 6.48667 22.6562H0.781273C0.349854 22.6562 0 23.006 0 23.4375V33.5667C0 33.8385 0.141254 34.0907 0.372823 34.2328L6.87997 38.2227C8.77619 39.3855 10.9543 40.0001 13.1787 40.0001L32.8907 40.0011C32.8909 40.0011 32.8909 40.0011 32.891 40.0011C33.663 40.0011 34.389 39.7003 34.9348 39.1545C35.4808 38.6085 35.7815 37.8826 35.7815 37.1095C35.7814 35.5155 34.4847 34.2189 32.8907 34.2189ZM33.8299 38.0497C33.579 38.3005 33.2456 38.4387 32.8908 38.4387C32.8907 38.4387 32.8907 38.4387 32.8907 38.4387L13.1786 38.4376C11.2428 38.4376 9.34707 37.9026 7.69679 36.8907L1.56247 33.1294V24.2188H6.48644C9.03683 24.2188 11.4476 25.3326 13.1008 27.2746L15.5179 30.1141C16.3014 31.0347 17.4441 31.5625 18.653 31.5625H23.9862C24.7185 31.5625 25.3143 32.1583 25.3143 32.8907C25.3143 33.6231 24.7185 34.2189 23.9862 34.2189H15.5452C14.9925 34.2189 14.4553 34.0596 13.9919 33.7582L11.0232 31.8274C10.8436 31.6082 10.5511 31.4949 10.2546 31.5583C9.83279 31.6488 9.56403 32.0641 9.6545 32.486L9.66544 32.5368C9.70872 32.7388 9.83013 32.9154 10.0033 33.028L13.1399 35.0681C13.8575 35.5348 14.6891 35.7815 15.5451 35.7815H32.8906C33.6229 35.7815 34.2187 36.3773 34.2187 37.1107C34.2189 37.4653 34.0808 37.7988 33.8299 38.0497Z" fill="#1AAAFF"/>
<path d="M30.1227 7.07584C29.9775 6.93052 29.7767 6.84692 29.5705 6.84692C29.365 6.84692 29.1634 6.93052 29.0181 7.07584C28.8728 7.22115 28.7892 7.42272 28.7892 7.6282C28.7892 7.83367 28.8727 8.03524 29.0181 8.18056C29.1642 8.32587 29.365 8.40947 29.5705 8.40947C29.7767 8.40947 29.9775 8.32587 30.1227 8.18056C30.2688 8.03524 30.3524 7.83367 30.3524 7.6282C30.3524 7.42272 30.2688 7.22115 30.1227 7.07584Z" fill="#1AAAFF"/>
<path d="M39.6274 5.76837L33.1202 1.77833C31.2241 0.615565 29.046 0.00101565 26.8216 0.000937527L7.10954 0C7.10954 0 7.10954 0 7.10946 0C6.33733 0 5.61145 0.300712 5.06549 0.846587C4.51946 1.39262 4.21875 2.1185 4.21875 2.89157C4.21875 4.48544 5.51558 5.7822 7.10938 5.7822H13.4477C13.2409 6.18018 13.1232 6.63168 13.1232 7.11036C13.1232 8.70424 14.42 10.001 16.0139 10.001H21.347C22.0972 10.001 22.8062 10.3286 23.2924 10.8998L25.7095 13.7393C27.6599 16.0306 30.5044 17.3448 33.5135 17.3448H39.2188C39.6502 17.3448 40 16.995 40 16.5635V6.43441C40.0002 6.16268 39.859 5.91041 39.6274 5.76837ZM38.4376 15.7823H33.5137C30.9633 15.7823 28.5525 14.6685 26.8993 12.7265L24.4822 9.88701C23.6987 8.96643 22.556 8.43853 21.3471 8.43853H16.0139C15.2816 8.43853 14.6858 7.84273 14.6858 7.11036C14.6858 6.378 15.2816 5.7822 16.0139 5.7822H24.455C25.0079 5.7822 25.5449 5.9415 26.0083 6.24292L26.8602 6.79707C27.2219 7.03239 27.7058 6.92981 27.9411 6.56808C28.1764 6.20635 28.0738 5.72243 27.7121 5.48719L26.8602 4.93311C26.1427 4.46638 25.3111 4.21973 24.455 4.21973H7.10946C6.37709 4.21973 5.7813 3.62393 5.7813 2.89055C5.7813 2.53578 5.9195 2.20225 6.17029 1.95139C6.42108 1.7006 6.75476 1.56255 7.10946 1.56255L26.8215 1.56348C28.7574 1.56356 30.6531 2.09858 32.3034 3.11048L38.4377 6.87192V15.7823H38.4376Z" fill="#1AAAFF"/>
<path d="M22.5642 14.0168C21.6385 14.0168 20.7372 14.3291 20.0002 14.891C19.263 14.329 18.3618 14.0168 17.4361 14.0168C15.0591 14.0168 13.1251 16.0142 13.1251 18.4696C13.1251 20.1309 14.2455 21.9006 16.4551 23.7292C18.0182 25.0228 19.5602 25.8716 19.6252 25.907C19.742 25.9709 19.871 26.003 20.0002 26.003C20.1293 26.003 20.2584 25.971 20.3752 25.907C20.4401 25.8716 21.9821 25.0227 23.5452 23.7292C25.7548 21.9006 26.8752 20.1309 26.8752 18.4696C26.8751 16.0144 24.9412 14.0168 22.5642 14.0168ZM19.9998 24.3225C18.2274 23.2758 14.6877 20.7204 14.6877 18.4696C14.6877 16.876 15.9207 15.5795 17.4361 15.5795C18.193 15.5795 18.8985 15.8966 19.4223 16.4725C19.5704 16.6352 19.7802 16.728 20.0002 16.728C20.2202 16.728 20.43 16.6352 20.578 16.4725C21.1019 15.8966 21.8073 15.5795 22.5642 15.5795C24.0797 15.5795 25.3127 16.876 25.3127 18.4696C25.3127 20.7157 21.7718 23.2741 19.9998 24.3225Z" fill="#1AAAFF"/>
<path d="M23.4373 16.6871C23.4227 16.6709 23.408 16.6549 23.393 16.6391C23.0966 16.3255 22.6022 16.3116 22.2886 16.6081C21.975 16.9045 21.9611 17.3989 22.2575 17.7125L22.2754 17.732C22.4297 17.9036 22.6427 17.9908 22.8565 17.9908C23.0427 17.9908 23.2294 17.9247 23.3787 17.7905C23.6995 17.5019 23.7258 17.0079 23.4373 16.6871Z" fill="#1AAAFF"/>
<path d="M23.4602 18.97C23.0847 18.7578 22.608 18.89 22.3956 19.2657C21.8025 20.3149 20.1942 21.3566 19.6246 21.6695C19.2465 21.8768 19.1078 22.3513 19.3148 22.7296C19.4568 22.9889 19.7245 23.1359 20.0009 23.1359C20.1276 23.1359 20.2562 23.105 20.3752 23.0399C20.4746 22.9855 22.8209 21.6885 23.7558 20.0346C23.9682 19.6589 23.8358 19.1824 23.4602 18.97Z" fill="#1AAAFF"/>
</svg>
