<svg width="40" height="40" viewBox="0 0 40 40" fill="none" xmlns="http://www.w3.org/2000/svg">
<path d="M20 0C17.7908 0 16 1.79083 16 4C16 6.20917 17.7908 8 20 8C22.2083 7.99783 23.9978 6.20825 24 4C24 1.79083 22.2092 0 20 0ZM20 6.66667C18.5273 6.66667 17.3333 5.47275 17.3333 4C17.3333 2.52725 18.5273 1.33333 20 1.33333C21.4728 1.33333 22.6667 2.52725 22.6667 4C22.6667 5.47275 21.4728 6.66667 20 6.66667Z" fill="#1AAAFF"/>
<path d="M22.6667 8.66669H22.5093L22.3687 8.73669C20.8769 9.47944 19.1231 9.47944 17.6313 8.73669L17.4907 8.66669H17.3333C15.4933 8.66885 14.0022 10.16 14 12V16C14 17.1046 14.8954 18 16 18H24C25.1046 18 26 17.1046 26 16V12C25.9978 10.16 24.5067 8.66885 22.6667 8.66669ZM24.6667 16C24.6667 16.3682 24.3682 16.6667 24 16.6667H16C15.6318 16.6667 15.3333 16.3682 15.3333 16V12C15.3335 10.9507 16.1446 10.0799 17.1913 10.0054C18.9726 10.832 21.0275 10.832 22.8087 10.0054C23.8553 10.0799 24.6665 10.9507 24.6667 12V16Z" fill="#1AAAFF"/>
<path d="M34 22C31.7908 22 30 23.7908 30 26C30 28.2092 31.7908 30 34 30C36.2092 30 38 28.2092 38 26C37.9978 23.7917 36.2083 22.0022 34 22ZM34 28.6667C32.5273 28.6667 31.3333 27.4728 31.3333 26C31.3333 24.5273 32.5273 23.3333 34 23.3333C35.4728 23.3333 36.6667 24.5273 36.6667 26C36.6667 27.4728 35.4728 28.6667 34 28.6667Z" fill="#1AAAFF"/>
<path d="M36.6667 30.6667H36.5093L36.3687 30.7334C34.8769 31.476 33.1231 31.476 31.6313 30.7334L31.4907 30.6667H31.3333C29.4933 30.6689 28.0022 32.16 28 34V38C28 39.1046 28.8954 40 30 40H38C39.1046 40 40 39.1046 40 38V34C39.9978 32.16 38.5067 30.6689 36.6667 30.6667ZM38.6667 38C38.6667 38.3682 38.3682 38.6667 38 38.6667H30C29.6318 38.6667 29.3333 38.3682 29.3333 38V34C29.3335 32.9507 30.1446 32.0799 31.1913 32.0054C32.9726 32.832 35.0274 32.832 36.8087 32.0054C37.8554 32.0799 38.6665 32.9507 38.6667 34V38Z" fill="#1AAAFF"/>
<path d="M6 22C3.79083 22 2 23.7908 2 26C2 28.2092 3.79083 30 6 30C8.20917 30 10 28.2092 10 26C9.99783 23.7917 8.20825 22.0022 6 22ZM6 28.6667C4.52725 28.6667 3.33333 27.4728 3.33333 26C3.33333 24.5273 4.52725 23.3333 6 23.3333C7.47275 23.3333 8.66667 24.5273 8.66667 26C8.66667 27.4728 7.47275 28.6667 6 28.6667Z" fill="#1AAAFF"/>
<path d="M8.66667 30.6667H8.50933L8.36867 30.7334C6.87692 31.476 5.12308 31.476 3.63133 30.7334L3.49067 30.6667H3.33333C1.49333 30.6689 0.00216667 32.16 0 34V38C0 39.1046 0.895417 40 2 40H10C11.1046 40 12 39.1046 12 38V34C11.9978 32.16 10.5067 30.6689 8.66667 30.6667ZM10.6667 38C10.6667 38.3682 10.3682 38.6667 10 38.6667H2C1.63183 38.6667 1.33333 38.3682 1.33333 38V34C1.3335 32.9507 2.14458 32.0799 3.19133 32.0054C4.97258 32.832 7.02742 32.832 8.80867 32.0054C9.85542 32.0799 10.6665 32.9507 10.6667 34V38Z" fill="#1AAAFF"/>
<path d="M26.6143 33.8564C26.614 33.8556 26.6137 33.8549 26.6133 33.854C26.469 33.5153 26.0774 33.3577 25.7387 33.502C22.7283 34.7637 19.385 34.9939 16.2301 34.1567L16.8541 33.9734C17.2076 33.8699 17.4102 33.4995 17.3067 33.146C17.2032 32.7925 16.8329 32.5899 16.4794 32.6934L13.8127 33.4754C13.8027 33.4754 13.7954 33.4867 13.7861 33.49C13.7243 33.513 13.6663 33.5452 13.6141 33.5854C13.5909 33.5979 13.5687 33.6119 13.5474 33.6274C13.4771 33.6901 13.4213 33.7674 13.3841 33.854C13.3479 33.9412 13.3307 34.035 13.3334 34.1294C13.3497 34.2196 13.3719 34.3087 13.4001 34.396C13.4041 34.4054 13.4001 34.416 13.4074 34.4254L14.7407 36.9767C14.9112 37.3033 15.3142 37.4299 15.6407 37.2594C15.9673 37.0889 16.0939 36.6859 15.9234 36.3594L15.3807 35.322C18.9652 36.3995 22.8137 36.1901 26.2601 34.73C26.5991 34.5866 26.7577 34.1954 26.6143 33.8564Z" fill="#1AAAFF"/>
<path d="M37.8047 17.5286C37.5443 17.2684 37.1223 17.2684 36.862 17.5286L35.9187 18.472C35.3667 12.6328 31.6594 7.56564 26.2613 5.27197C25.9226 5.12764 25.531 5.28522 25.3867 5.62397C25.2423 5.96272 25.3999 6.35431 25.7387 6.49864C30.5812 8.55672 33.9473 13.0544 34.5567 18.2806L33.8047 17.5286C33.5398 17.2728 33.1178 17.2801 32.862 17.545C32.6125 17.8033 32.6125 18.2129 32.862 18.4713L34.862 20.4713C35.122 20.732 35.5442 20.7326 35.8048 20.4725C35.8052 20.4721 35.8057 20.4716 35.806 20.4713L37.806 18.4713C38.0659 18.2106 38.0653 17.7886 37.8047 17.5286Z" fill="#1AAAFF"/>
<path d="M14.6473 5.77269C14.6452 5.73377 14.6394 5.69519 14.63 5.65736C14.63 5.65136 14.6227 5.64736 14.62 5.64069C14.6173 5.63402 14.62 5.62936 14.62 5.62402C14.6018 5.59161 14.5808 5.56077 14.5573 5.53202C14.5358 5.49294 14.5103 5.45611 14.4813 5.42202C14.4419 5.38711 14.3983 5.35736 14.3513 5.33336C14.3279 5.31344 14.3029 5.29536 14.2767 5.27936L11.61 4.06136C11.2694 3.92152 10.8799 4.08427 10.7401 4.42486C10.6078 4.74694 10.7458 5.11661 11.0567 5.27336L12.4373 5.90469C7.23959 8.68644 3.99625 14.1047 4 20C4 20.3682 4.2985 20.6667 4.66667 20.6667C5.03484 20.6667 5.33334 20.3682 5.33334 20C5.33 14.8089 8.07509 10.004 12.5487 7.37069L12.0667 8.37802C11.9078 8.70944 12.047 9.10694 12.378 9.26669C12.4679 9.31061 12.5666 9.33344 12.6667 9.33336C12.9227 9.33302 13.1558 9.18611 13.2667 8.95536L14.6 6.17336C14.6 6.16669 14.6 6.15936 14.6053 6.15269C14.6227 6.10711 14.6348 6.05969 14.6413 6.01136C14.6528 5.97544 14.6613 5.93869 14.6667 5.90136C14.6644 5.85794 14.658 5.81486 14.6473 5.77269Z" fill="#1AAAFF"/>
</svg>
