<svg width="84" height="83" viewBox="0 0 84 83" fill="none" xmlns="http://www.w3.org/2000/svg">
<g filter="url(#filter0_d)">
<path d="M41.852 74.6894C62.757 74.6894 79.7039 57.9696 79.7039 37.3447C79.7039 16.7198 62.757 0 41.852 0C20.9469 0 4 16.7198 4 37.3447C4 57.9696 20.9469 74.6894 41.852 74.6894Z" fill="white"/>
</g>
<path d="M38.676 19.6678C30.9469 19.6678 24.6813 25.9334 24.6813 33.6625C24.6813 41.3915 30.9469 47.6572 38.676 47.6572C46.4051 47.6572 52.6707 41.3915 52.6707 33.6625C52.6623 25.9369 46.4016 19.6762 38.676 19.6678ZM38.676 21.0006C42.7924 21.0038 46.6499 23.0101 49.0161 26.3786L47.35 28.0446C46.9446 27.7993 46.4804 27.668 46.0065 27.6647C44.5343 27.6647 43.3409 28.8582 43.3409 30.3304C43.3432 30.8048 43.4737 31.2697 43.7187 31.6759L39.3551 36.0396C38.5288 35.5358 37.4903 35.5358 36.6641 36.0396L33.6332 33.0087C33.8782 32.6025 34.0087 32.1376 34.0111 31.6632C34.0129 30.194 32.8234 29.0014 31.3541 28.9996C30.139 28.9981 29.0773 29.82 28.7744 30.9968H26.302C27.5638 25.1701 32.7142 21.0093 38.676 21.0006ZM47.3394 30.3304C47.3394 31.0665 46.7427 31.6632 46.0065 31.6632C45.2704 31.6632 44.6737 31.0665 44.6737 30.3304C44.6737 29.5943 45.2704 28.9976 46.0065 28.9976C46.7427 28.9976 47.3394 29.5943 47.3394 30.3304ZM39.3424 38.3274C39.3424 39.0635 38.7457 39.6602 38.0096 39.6602C37.2734 39.6602 36.6767 39.0635 36.6767 38.3274C36.6767 37.5912 37.2734 36.9945 38.0096 36.9945C38.7457 36.9945 39.3424 37.5912 39.3424 38.3274ZM32.6782 31.6632C32.6782 32.3994 32.0816 32.9961 31.3454 32.9961C30.6093 32.9961 30.0126 32.3994 30.0126 31.6632C30.0126 30.9271 30.6093 30.3304 31.3454 30.3304C32.0816 30.3304 32.6782 30.9271 32.6782 31.6632ZM44.8281 44.7338C42.9462 45.7787 40.8287 46.3262 38.676 46.3243C31.6878 46.329 26.0189 40.6679 26.0141 33.6797C26.0138 33.2287 26.0376 32.778 26.0854 32.3296H28.7744C29.0774 33.5029 30.1336 34.3242 31.3454 34.3288C31.8198 34.3265 32.2847 34.1959 32.6909 33.9509L35.7218 36.9818C35.4768 37.388 35.3462 37.8529 35.3439 38.3273C35.3439 39.7995 36.5374 40.9929 38.0096 40.9929C39.4818 40.9929 40.6752 39.7995 40.6752 38.3273C40.6729 37.8529 40.5424 37.388 40.2974 36.9818L44.661 32.6181C45.0672 32.8631 45.5321 32.9936 46.0065 32.996C47.4787 32.996 48.6722 31.8025 48.6722 30.3303C48.6699 29.8559 48.5393 29.391 48.2943 28.9848L49.7471 27.5327C53.1388 33.6411 50.9364 41.3422 44.8281 44.7338Z" fill="#1AAAFF"/>
<path d="M55.3359 23.6663C56.5476 23.6617 57.6039 22.8404 57.9069 21.667H62V20.3342H57.9069C57.6039 19.1608 56.5476 18.3396 55.3359 18.335C53.8637 18.335 52.6702 19.5284 52.6702 21.0006C52.6725 21.475 52.8031 21.9399 53.0481 22.3461L51.8772 23.517C46.2747 16.218 35.816 14.8427 28.517 20.4452C21.218 26.0476 19.8427 36.5064 25.4452 43.8054C30.7335 50.6951 40.4274 52.3663 47.7174 47.6452L49.7286 49.6564L50.671 50.5988L56.0356 55.9634C57.4 57.3278 59.612 57.3278 60.9764 55.9634C62.3408 54.599 62.3408 52.387 60.9764 51.0226L55.6117 45.658L54.6694 44.7157L52.6582 42.7044C56.2284 37.2052 56.2284 30.1199 52.6582 24.6206L53.991 23.2878C54.397 23.5328 54.8617 23.6636 55.3359 23.6663ZM55.3359 19.6678C56.072 19.6678 56.6687 20.2645 56.6687 21.0006C56.6687 21.7368 56.072 22.3335 55.3359 22.3335C54.5997 22.3335 54.003 21.7368 54.003 21.0006C54.003 20.2645 54.5998 19.6678 55.3359 19.6678ZM60.0341 51.9649C60.8876 52.7993 60.9032 54.1676 60.0688 55.0211C59.2345 55.8746 57.8661 55.8902 57.0126 55.0558C57.0009 55.0444 56.9894 55.0328 56.9779 55.0211L51.6133 49.6564L54.6694 46.6003L60.0341 51.9649ZM53.7271 45.658L50.671 48.7141L48.8263 46.8695C48.9203 46.7975 49.0083 46.7182 49.1009 46.6443C49.1935 46.5703 49.3008 46.4816 49.4001 46.3983C49.546 46.2757 49.69 46.1518 49.8313 46.0245C49.9039 45.9578 49.9732 45.8912 50.0445 45.8246C50.3178 45.5687 50.5823 45.3041 50.8382 45.0309C50.9049 44.9596 50.9715 44.8903 51.0381 44.8176C51.1654 44.6763 51.2894 44.5324 51.412 44.3864C51.4956 44.2878 51.5775 44.1881 51.6579 44.0872C51.7312 43.9953 51.8105 43.9073 51.8825 43.8133L53.7271 45.658ZM51.1428 42.5625C50.9329 42.8557 50.7163 43.1429 50.4877 43.4195C50.421 43.5001 50.3497 43.5781 50.2811 43.6574C50.0772 43.8946 49.8666 44.1248 49.6493 44.3478C49.5547 44.4455 49.4585 44.5417 49.3608 44.6363C49.1386 44.8536 48.9085 45.0642 48.6704 45.2681C48.5911 45.3347 48.5131 45.4074 48.4325 45.4747C48.1559 45.7033 47.8687 45.9199 47.5755 46.1298C40.6767 51.0583 31.0888 49.4612 26.1602 42.5625C21.2317 35.6637 22.8288 26.0758 29.7275 21.1472C36.6263 16.2187 46.2142 17.8157 51.1428 24.7146C54.9564 30.0527 54.9564 37.2243 51.1428 42.5625Z" fill="#1AAAFF"/>
<defs>
<filter id="filter0_d" x="0" y="0" width="83.7039" height="82.6894" filterUnits="userSpaceOnUse" color-interpolation-filters="sRGB">
<feFlood flood-opacity="0" result="BackgroundImageFix"/>
<feColorMatrix in="SourceAlpha" type="matrix" values="0 0 0 0 0 0 0 0 0 0 0 0 0 0 0 0 0 0 127 0"/>
<feOffset dy="4"/>
<feGaussianBlur stdDeviation="2"/>
<feColorMatrix type="matrix" values="0 0 0 0 0 0 0 0 0 0 0 0 0 0 0 0 0 0 0.25 0"/>
<feBlend mode="normal" in2="BackgroundImageFix" result="effect1_dropShadow"/>
<feBlend mode="normal" in="SourceGraphic" in2="effect1_dropShadow" result="shape"/>
</filter>
</defs>
</svg>
