<svg width="60" height="60" viewBox="0 0 60 60" fill="none" xmlns="http://www.w3.org/2000/svg">
<circle cx="30" cy="30" r="30" fill="url(#paint0_linear)"/>
<g filter="url(#filter0_d)">
<path fill-rule="evenodd" clip-rule="evenodd" d="M38.6665 23.106C39.0352 23.106 39.4739 23.3386 39.734 23.6713L43.6591 28.6745C43.9185 29.0057 44.1009 29.565 44.1009 30.0351V31.1027C44.1009 32.0552 43.4934 32.8302 42.746 32.8302H38.2154C37.4692 32.8302 36.8609 32.0557 36.8609 31.1037V24.8331C36.8609 23.8805 37.4684 23.106 38.2139 23.106H38.6665ZM42.746 31.2519C42.8086 31.2519 42.8627 31.183 42.8627 31.1037V30.0351C42.8599 29.9751 42.8152 29.8358 42.7822 29.7892L38.8575 24.7855C38.8221 24.7453 38.7128 24.6873 38.6638 24.6838L38.2154 24.6848C38.152 24.6848 38.0988 24.7523 38.0988 24.8336V31.1037C38.0988 31.183 38.1532 31.2519 38.2154 31.2519H42.746Z" fill="white"/>
<path fill-rule="evenodd" clip-rule="evenodd" d="M41.0733 20.494C40.5767 19.8618 39.6733 19.3843 38.9706 19.3843H35.2027V16.6164C35.2027 14.0712 33.5791 12 31.5825 12H15.6206C13.6236 12 12 14.0712 12 16.6164V39.6618C12 41.4152 13.1188 42.8427 14.4947 42.8427H16.9984C17.2967 45.1946 18.8962 47 20.8239 47C22.7516 47 24.3507 45.1946 24.649 42.8427H35.9066C36.2044 45.1946 37.8036 47 39.7313 47C41.659 47 43.2593 45.1946 43.5568 42.8427H44.5053C45.8804 42.8427 47 41.4152 47 39.6618V29.6212C47 28.7262 46.6247 27.5733 46.1289 26.9401L41.0733 20.494ZM13.2374 16.6164C13.2374 14.9409 14.3065 13.5793 15.6206 13.5793H31.5825C32.8962 13.5793 33.9644 14.9409 33.9644 16.6164V33.7805C33.9644 33.9233 33.8699 34.0438 33.7583 34.0438H13.2374V16.6164ZM18.1822 42.0528C18.1822 43.9098 19.3671 45.4202 20.8235 45.4202C22.2803 45.4202 23.4648 43.9103 23.4648 42.0528C23.4648 40.1954 22.2799 38.6855 20.8235 38.6855C19.3671 38.6855 18.1822 40.1954 18.1822 42.0528ZM39.7313 45.4202C38.2753 45.4202 37.0907 43.9098 37.0907 42.0528C37.0907 40.1954 38.2753 38.6855 39.7313 38.6855C41.1877 38.6855 42.3726 40.1954 42.3726 42.0528C42.3726 43.9103 41.1877 45.4202 39.7313 45.4202ZM44.5053 41.2629C45.1983 41.2629 45.7618 40.5444 45.7618 39.6613V29.6212C45.7618 29.1502 45.5148 28.39 45.2531 28.0563L40.1976 21.6102C39.9366 21.2775 39.3404 20.9631 38.9702 20.9631H35.2023V33.78C35.2023 34.7955 34.5548 35.6221 33.7579 35.6221H13.2371V39.6613C13.2371 40.5444 13.8013 41.2629 14.4943 41.2629H16.998C17.2963 38.9106 18.8958 37.1067 20.8235 37.1067C22.7512 37.1067 24.3503 38.9106 24.6486 41.2629H35.9066C36.2044 38.9106 37.8036 37.1067 39.7313 37.1067C41.659 37.1067 43.2585 38.9106 43.5568 41.2629H44.5053Z" fill="white"/>
</g>
<defs>
<filter id="filter0_d" x="8" y="12" width="43" height="43" filterUnits="userSpaceOnUse" color-interpolation-filters="sRGB">
<feFlood flood-opacity="0" result="BackgroundImageFix"/>
<feColorMatrix in="SourceAlpha" type="matrix" values="0 0 0 0 0 0 0 0 0 0 0 0 0 0 0 0 0 0 127 0"/>
<feOffset dy="4"/>
<feGaussianBlur stdDeviation="2"/>
<feColorMatrix type="matrix" values="0 0 0 0 0 0 0 0 0 0 0 0 0 0 0 0 0 0 0.25 0"/>
<feBlend mode="normal" in2="BackgroundImageFix" result="effect1_dropShadow"/>
<feBlend mode="normal" in="SourceGraphic" in2="effect1_dropShadow" result="shape"/>
</filter>
<linearGradient id="paint0_linear" x1="30" y1="4.5" x2="30" y2="60" gradientUnits="userSpaceOnUse">
<stop stop-color="#8776CC"/>
<stop offset="1" stop-color="#A994FF"/>
</linearGradient>
</defs>
</svg>
