<svg width="25" height="25" viewBox="0 0 25 25" fill="none" xmlns="http://www.w3.org/2000/svg">
<path d="M10.9865 19.2259C13.1717 19.2259 15.2675 18.3578 16.8126 16.8126C18.3578 15.2674 19.2259 13.1717 19.2259 10.9865C19.2259 8.80129 18.3578 6.70558 16.8126 5.1604C15.2675 3.61522 13.1717 2.74715 10.9865 2.74715C8.8013 2.74715 6.70559 3.61522 5.1604 5.1604C3.61522 6.70558 2.74715 8.80129 2.74715 10.9865C2.74715 13.1717 3.61522 15.2674 5.1604 16.8126C6.70559 18.3578 8.8013 19.2259 10.9865 19.2259ZM19.6653 17.7236L24.5815 22.6397C24.7125 22.7665 24.8171 22.9181 24.8889 23.0857C24.9608 23.2533 24.9985 23.4335 25 23.6158C25.0014 23.7982 24.9665 23.979 24.8974 24.1477C24.8282 24.3164 24.7261 24.4696 24.5971 24.5985C24.4681 24.7273 24.3147 24.8292 24.1459 24.8981C23.9771 24.967 23.7962 25.0017 23.6139 24.9999C23.4315 24.9982 23.2514 24.9602 23.0839 24.8881C22.9164 24.816 22.765 24.7113 22.6384 24.5801L17.7222 19.6639C15.5147 21.3775 12.7371 22.1854 9.95489 21.9232C7.17267 21.6609 4.59497 20.3482 2.74653 18.2523C0.898091 16.1564 -0.0821356 13.4349 0.00539544 10.6417C0.0929265 7.84855 1.24164 5.19372 3.21768 3.21768C5.19372 1.24163 7.84856 0.0929264 10.6417 0.00539543C13.4349 -0.0821355 16.1565 0.89809 18.2524 2.74653C20.3483 4.59497 21.6609 7.17266 21.9232 9.95488C22.1854 12.7371 21.3775 15.5147 19.664 17.7222L19.6653 17.7236Z" fill="#333333"/>
</svg>
