<svg width="153" height="149" viewBox="0 0 153 149" fill="none" xmlns="http://www.w3.org/2000/svg">
<ellipse cx="76.5" cy="74.5" rx="76.5" ry="74.5" fill="white"/>
<circle cx="76.5" cy="74.5" r="53.5" fill="#1AAAFF"/>
<g clip-path="url(#clip0)">
<path d="M103.941 87.6156L102.919 82.6207C102.508 80.6135 101.496 78.7888 99.9928 77.3441L98.198 75.6195V69.7417C99.3197 69.3145 100.116 68.26 100.116 67.0289C100.116 66.6967 100.057 66.3774 99.9501 66.0796C101.221 65.7339 102.155 64.6071 102.155 63.2733C102.155 62.921 102.09 62.5832 101.971 62.2702C103.15 61.8718 103.999 60.7887 103.999 59.5177C103.999 58.2467 103.15 57.1637 101.971 56.7653C102.09 56.4523 102.155 56.1145 102.155 55.7622C102.155 54.1541 100.798 52.846 99.1291 52.846H93.064C93.6207 52.1978 93.8885 51.3283 93.7269 50.445C93.5825 49.6558 93.1252 48.9718 92.4392 48.5188C91.7533 48.0658 90.9261 47.9017 90.1105 48.0568L84.927 49.0417C82.844 49.4376 80.9506 50.4126 79.4514 51.8613L77.6617 53.5908H71.5621C71.1188 52.5099 70.0245 51.7429 68.7471 51.7429C68.4023 51.7429 68.071 51.7995 67.7619 51.9024C67.4031 50.6777 66.2339 49.7773 64.8498 49.7773C64.4843 49.7773 64.1337 49.8402 63.8089 49.9552C63.3955 48.8185 62.2715 48.0008 60.9526 48.0008C59.6335 48.0008 58.5097 48.8186 58.0962 49.9553C57.7715 49.8403 57.4209 49.7774 57.0553 49.7774C55.3866 49.7774 54.029 51.0857 54.029 52.6937V58.5383C53.3566 58.0019 52.4544 57.7439 51.5375 57.8996C50.7185 58.0387 50.0086 58.4794 49.5386 59.1404C49.0685 59.8014 48.8982 60.5984 49.059 61.3845L50.0814 66.3795C50.4922 68.3868 51.504 70.2113 53.0072 71.656L54.8019 73.3806V79.2583C53.6801 79.6855 52.884 80.7401 52.884 81.971C52.884 82.3034 52.9428 82.6225 53.0495 82.9205C51.7786 83.2662 50.8443 84.3929 50.8443 85.7267C50.8443 86.079 50.9095 86.4169 51.0288 86.7298C49.8491 87.1283 49.0007 88.2114 49.0007 89.4823C49.0007 90.7534 49.8492 91.8364 51.0288 92.2347C50.9095 92.5476 50.8443 92.8856 50.8443 93.2379C50.8443 94.8459 52.202 96.1541 53.8706 96.1541H59.9357C59.3791 96.8022 59.1113 97.6717 59.2729 98.555C59.4173 99.3442 59.8746 100.028 60.5605 100.481C61.0778 100.823 61.6755 101 62.2881 101C62.4876 101 62.6888 100.981 62.8894 100.943L68.0729 99.9581C70.1557 99.5624 72.0493 98.5874 73.5485 97.1387L75.3382 95.4091H81.4378C81.8811 96.4901 82.9755 97.2573 84.2529 97.2573C84.5977 97.2573 84.929 97.2007 85.2381 97.0978C85.597 98.3225 86.7663 99.2227 88.1502 99.2227C88.5157 99.2227 88.8665 99.1599 89.1912 99.0449C89.6046 100.182 90.7285 100.999 92.0474 100.999C93.3665 100.999 94.4904 100.182 94.9038 99.0449C95.2285 99.1599 95.5793 99.2227 95.9448 99.2227C97.6135 99.2227 98.971 97.9144 98.971 96.3065V90.4621C99.6436 90.9984 100.545 91.2566 101.463 91.1007C102.282 90.9616 102.991 90.5209 103.461 89.8599C103.931 89.199 104.102 88.4018 103.941 87.6156ZM71.7737 61.6458V58.8242V55.6611H78.1077C78.3932 55.6611 78.6669 55.5515 78.8684 55.3568L80.9728 53.3233C82.1694 52.1671 83.6802 51.3889 85.3427 51.073L90.5262 50.0881C90.7712 50.0417 91.0192 50.0908 91.225 50.2267C91.4308 50.3626 91.568 50.5679 91.6113 50.8046C91.6953 51.2635 91.3932 51.7098 90.9238 51.8207L88.7697 52.3297C88.0902 52.4902 87.6579 53.0924 87.7418 53.7617C87.8257 54.4309 88.3942 54.9167 89.0939 54.9167H99.1294C99.6136 54.9167 100.007 55.2963 100.007 55.7627C100.007 56.195 99.6691 56.5519 99.2343 56.602L93.2889 56.6086C92.6957 56.6086 92.2147 57.0721 92.2147 57.6438C92.2147 58.2155 92.6957 58.679 93.2889 58.679L100.973 58.6723C101.457 58.6723 101.851 59.0519 101.851 59.5184C101.851 59.9848 101.457 60.3644 100.973 60.3644H93.2889C92.6957 60.3644 92.2147 60.8278 92.2147 61.3996C92.2147 61.9713 92.6957 62.4347 93.2889 62.4347H99.2347C99.6693 62.485 100.007 62.8419 100.007 63.274C100.007 63.7405 99.6136 64.1201 99.1294 64.1201H93.2889C92.6957 64.1201 92.2147 64.5835 92.2147 65.1552C92.2147 65.7269 92.6957 66.1904 93.2889 66.1904H97.1947C97.6293 66.2406 97.9677 66.5975 97.9677 67.0298C97.9677 67.4962 97.5739 67.8757 97.0898 67.8757H86.2415C83.9689 67.8757 81.8335 67.0217 80.2288 65.4709L78.8686 64.1565C78.6671 63.9618 78.3934 63.8523 78.108 63.8523H71.7737V61.6458ZM54.5241 70.1897C53.3242 69.0367 52.5167 67.5807 52.1891 65.9787L51.1669 60.9837C51.1185 60.7478 51.1697 60.5087 51.3107 60.3104C51.4518 60.112 51.6648 59.9798 51.9104 59.9381C52.3872 59.8574 52.8496 60.1483 52.9648 60.6007L53.4929 62.6763C53.6593 63.3312 54.2847 63.7471 54.9787 63.667C55.6733 63.5862 56.1775 63.0382 56.1775 62.3641V52.6935C56.1775 52.227 56.5713 51.8474 57.0554 51.8474C57.5039 51.8474 57.8742 52.1733 57.9264 52.5921L57.9333 58.3216C57.9333 58.8933 58.4143 59.3568 59.0075 59.3568C59.6007 59.3568 60.0817 58.8933 60.0817 58.3216V52.6935C60.0817 52.6304 60.0789 52.5681 60.0748 52.506V50.9168C60.0748 50.4504 60.4686 50.0709 60.9528 50.0709C61.4369 50.0709 61.8307 50.4504 61.8307 50.9168V52.5061C61.8267 52.5681 61.8239 52.6305 61.8239 52.6936L61.8307 58.3217C61.8307 58.8934 62.3118 59.3569 62.905 59.3569C63.4981 59.3569 63.9792 58.8934 63.9792 58.3217V52.5921C64.0314 52.1733 64.4018 51.8474 64.8502 51.8474C65.3343 51.8474 65.7281 52.227 65.7281 52.6935C65.7281 52.6935 65.7238 57.7293 65.7281 57.767V58.3217C65.7281 58.8934 66.2092 59.3569 66.8023 59.3569C67.3955 59.3569 67.8766 58.8934 67.8766 58.3217V54.5577C67.9288 54.1389 68.2992 53.813 68.7475 53.813C69.2317 53.813 69.6255 54.1926 69.6255 54.659V65.1128C69.6255 67.271 68.7158 69.3829 67.1301 70.9068L65.766 72.2176C65.5639 72.4118 65.4503 72.6755 65.4503 72.9506V79.0544H63.302V76.3059C63.302 75.7343 62.821 75.2708 62.2278 75.2708C61.6346 75.2708 61.1536 75.7343 61.1536 76.3059V79.0544H56.9502V72.9506C56.9502 72.6755 56.8366 72.4118 56.6345 72.2176L54.5241 70.1897ZM81.2265 93.3386H74.8922V93.3387C74.6068 93.3387 74.333 93.4482 74.1315 93.6428L72.0271 95.6764C70.8306 96.8328 69.3196 97.6109 67.6572 97.9265L62.4737 98.9116C62.2287 98.9582 61.9807 98.909 61.7749 98.773C61.5691 98.6369 61.4319 98.4318 61.3886 98.195C61.3046 97.7362 61.6067 97.29 62.0761 97.1791L64.2304 96.6701C64.9098 96.5096 65.342 95.9074 65.258 95.2382C65.1743 94.569 64.6056 94.0833 63.906 94.0833H53.8707C53.3865 94.0833 52.9927 93.7038 52.9927 93.2373C52.9927 92.8049 53.3312 92.4478 53.7662 92.3978L59.7113 92.3913C60.3045 92.3913 60.7855 91.9278 60.7855 91.3562C60.7855 90.7845 60.3045 90.321 59.7113 90.321L52.0271 90.3275C51.543 90.3275 51.1491 89.948 51.1491 89.4815C51.1491 89.0151 51.543 88.6356 52.0271 88.6356H59.7113C60.3045 88.6356 60.7855 88.172 60.7855 87.6004C60.7855 87.0288 60.3045 86.5653 59.7113 86.5653H53.7662C53.3312 86.5153 52.9927 86.1582 52.9927 85.7258C52.9927 85.2594 53.3865 84.8799 53.8707 84.8799H59.7113C60.3045 84.8799 60.7855 84.4164 60.7855 83.8448C60.7855 83.2731 60.3045 82.8096 59.7113 82.8096H55.8059C55.371 82.7596 55.0326 82.4026 55.0326 81.9702C55.0326 81.5036 55.4264 81.1242 55.9104 81.1242H66.7586C69.0311 81.1242 71.1666 81.9783 72.7713 83.5289L74.1315 84.8434C74.333 85.0382 74.6068 85.1476 74.8922 85.1476H81.2265V93.3386ZM81.2593 83.078H75.338L74.2927 82.0678C72.4808 80.3168 70.1292 79.2752 67.5983 79.0861V73.3801L68.6467 72.3728C70.4351 70.6543 71.5366 68.339 71.7392 65.9218H77.662L78.7074 66.9321C80.5193 68.683 82.8709 69.7246 85.4018 69.9137V75.6198L84.3535 76.6271C82.5364 78.3729 81.4554 80.6392 81.2593 83.078ZM101.689 88.6894C101.548 88.8877 101.335 89.0199 101.089 89.0617C100.613 89.1431 100.15 88.8516 100.035 88.3991L99.5069 86.3232C99.3403 85.6684 98.7143 85.2526 98.0209 85.3329C97.3264 85.4137 96.8223 85.9617 96.8223 86.6357V96.3064C96.8223 96.7729 96.4285 97.1524 95.9445 97.1524C95.4958 97.1524 95.1253 96.8262 95.0734 96.4071L95.0666 90.6782C95.0666 90.1066 94.5856 89.6431 93.9924 89.6431C93.3992 89.6431 92.9182 90.1066 92.9182 90.6782L92.925 98.0831C92.925 98.5496 92.5312 98.9291 92.047 98.9291C91.563 98.9291 91.1692 98.5496 91.1692 98.0831V90.6782C91.1692 90.1066 90.6881 89.6431 90.0949 89.6431C89.5018 89.6431 89.0207 90.1066 89.0207 90.6782V96.4071C88.9688 96.8262 88.5983 97.1524 88.1496 97.1524C87.6655 97.1524 87.2717 96.7729 87.2717 96.3064V90.6782C87.2717 90.1066 86.7906 89.6431 86.1975 89.6431C85.6043 89.6431 85.1232 90.1066 85.1232 90.6782V94.4423C85.071 94.8611 84.7006 95.187 84.2523 95.187C83.7681 95.187 83.3743 94.8075 83.3743 94.3409V90.1761V87.3545V83.8872C83.3743 81.6973 84.2606 79.6395 85.8698 78.093L87.2339 76.7823C87.436 76.5881 87.5496 76.3243 87.5496 76.0493V69.9454H89.8387H91.6928V73.0853C91.6928 73.6571 92.1739 74.1205 92.7671 74.1205C93.3602 74.1205 93.8413 73.6571 93.8413 73.0853V69.9454H96.0492V76.0493C96.0492 76.3243 96.1629 76.5881 96.3648 76.7823L98.4751 78.8102C99.6751 79.9632 100.483 81.4193 100.81 83.0213L101.832 88.0162C101.881 88.252 101.83 88.4912 101.689 88.6894Z" fill="white"/>
<path d="M93.5271 76.2473C93.3272 76.0547 93.05 75.944 92.7676 75.944C92.4851 75.944 92.2079 76.0547 92.0082 76.2473C91.8084 76.4399 91.6934 76.7068 91.6934 76.9802C91.6934 77.2525 91.8083 77.5195 92.0082 77.7121C92.2079 77.9045 92.4851 78.0143 92.7676 78.0143C93.0501 78.0143 93.3272 77.9045 93.5271 77.7121C93.7269 77.5185 93.8418 77.2525 93.8418 76.9802C93.8418 76.708 93.727 76.4409 93.5271 76.2473Z" fill="white"/>
<path d="M62.987 71.6803C62.7872 71.4868 62.5101 71.377 62.2275 71.377C61.945 71.377 61.6679 71.4868 61.4681 71.6803C61.2684 71.8729 61.1533 72.1389 61.1533 72.4122C61.1533 72.6844 61.2683 72.9515 61.4681 73.1441C61.6679 73.3366 61.945 73.4474 62.2275 73.4474C62.5101 73.4474 62.7872 73.3366 62.987 73.1441C63.1867 72.9515 63.3017 72.6844 63.3017 72.4122C63.3017 72.1389 63.1868 71.8729 62.987 71.6803Z" fill="white"/>
</g>
<defs>
<clipPath id="clip0">
<rect width="55" height="53" fill="white" transform="translate(49 48)"/>
</clipPath>
</defs>
</svg>
