<svg width="868" height="521" viewBox="0 0 868 521" fill="none" xmlns="http://www.w3.org/2000/svg">
<rect opacity="0.312783" width="4.84701" height="241" rx="2.42351" transform="matrix(-0.809017 0.587785 0.587785 0.809017 588.921 419)" fill="url(#paint0_linear)"/>
<rect width="4.84701" height="100" rx="2.42351" transform="matrix(-0.809017 0.587785 0.587785 0.809017 535.921 389)" fill="#1AAAFF"/>
<rect opacity="0.169044" width="6.85" height="75" rx="3.425" transform="matrix(-0.809017 0.587785 0.587785 0.809017 40.5417 0)" fill="url(#paint1_linear)"/>
<rect opacity="0.312783" width="8" height="241" rx="4" transform="matrix(-0.809017 0.587785 0.587785 0.809017 725.472 473)" fill="url(#paint2_linear)"/>
<rect width="4.84701" height="241" rx="2.42351" transform="matrix(-0.809017 0.587785 0.587785 0.809017 -49.0786 213)" fill="url(#paint3_linear)"/>
<rect opacity="0.143965" width="12" height="241" rx="6" transform="matrix(-0.809017 0.587785 0.587785 0.809017 -81.2917 213)" fill="url(#paint4_linear)"/>
<defs>
<linearGradient id="paint0_linear" x1="-2.75213" y1="-401.319" x2="-21.1713" y2="-401.187" gradientUnits="userSpaceOnUse">
<stop stop-color="#5EEDFD"/>
<stop offset="1" stop-color="#1AAAFF"/>
</linearGradient>
<linearGradient id="paint1_linear" x1="-3.88942" y1="-124.892" x2="-29.8942" y2="-124.049" gradientUnits="userSpaceOnUse">
<stop stop-color="#5EEDFD"/>
<stop offset="1" stop-color="#1AAAFF"/>
</linearGradient>
<linearGradient id="paint2_linear" x1="-4.54239" y1="-401.319" x2="-34.9406" y2="-400.96" gradientUnits="userSpaceOnUse">
<stop stop-color="#5EEDFD"/>
<stop offset="1" stop-color="#1AAAFF"/>
</linearGradient>
<linearGradient id="paint3_linear" x1="-2.75213" y1="-401.319" x2="-21.1713" y2="-401.187" gradientUnits="userSpaceOnUse">
<stop stop-color="#5EEDFD"/>
<stop offset="1" stop-color="#1AAAFF"/>
</linearGradient>
<linearGradient id="paint4_linear" x1="-6.81358" y1="-401.319" x2="-52.403" y2="-400.513" gradientUnits="userSpaceOnUse">
<stop stop-color="#5EEDFD"/>
<stop offset="1" stop-color="#1AAAFF"/>
</linearGradient>
</defs>
</svg>
