<svg width="153" height="149" viewBox="0 0 153 149" fill="none" xmlns="http://www.w3.org/2000/svg">
<ellipse cx="76.5" cy="74.5" rx="76.5" ry="74.5" fill="white"/>
<g clip-path="url(#clip0)">
<path d="M61.5233 104.616L46.0077 112.672C45.0972 113.145 44.2789 113.726 43.5176 114.359C52.5636 121.62 64.2411 126 76.9997 126C89.6642 126 101.267 121.685 110.288 114.523C109.456 113.855 108.553 113.253 107.552 112.779L90.9377 104.872C88.7909 103.85 87.435 101.762 87.435 99.4774V93.2721C87.902 92.7659 88.4358 92.1159 89.0068 91.3482C91.2712 88.3034 92.9843 84.9542 94.1715 81.4407C96.3025 80.8149 97.8723 78.9414 97.8723 76.7148V70.0912C97.8723 68.6342 97.1914 67.3322 96.1337 66.4207V56.8457C96.1337 56.8457 98.2 41.9453 77.0017 41.9453C55.8033 41.9453 57.8696 56.8457 57.8696 56.8457V66.4207C56.81 67.3322 56.131 68.6342 56.131 70.0912V76.7148C56.131 78.4595 57.0945 79.9949 58.5367 80.8822C60.2753 88.0868 64.8278 93.2721 64.8278 93.2721V99.3242C64.8258 101.528 63.5582 103.559 61.5233 104.616Z" fill="#E7ECED"/>
<path d="M77.8888 27.0074C49.175 26.5405 25.4983 48.3205 25.0077 75.6538C24.7291 91.152 31.9856 105.081 43.5394 114.344C44.2948 113.716 45.1053 113.141 46.0059 112.674L61.5216 104.618C63.5564 103.561 64.8241 101.53 64.8241 99.3223V93.2702C64.8241 93.2702 60.2696 88.0848 58.533 80.8802C57.0927 79.993 56.1273 78.4594 56.1273 76.7129V70.0892C56.1273 68.6323 56.8082 67.3303 57.8659 66.4188V56.8438C57.8659 56.8438 55.7996 41.9434 76.9979 41.9434C98.1963 41.9434 96.13 56.8438 96.13 56.8438V66.4188C97.1896 67.3303 97.8686 68.6323 97.8686 70.0892V76.7129C97.8686 78.9395 96.2988 80.813 94.1678 81.4388C92.9806 84.9523 91.2675 88.3015 89.0031 91.3462C88.4321 92.1139 87.8983 92.764 87.4313 93.2702V99.4754C87.4313 101.76 88.7872 103.85 90.9339 104.87L107.548 112.777C108.545 113.251 109.446 113.851 110.276 114.518C121.481 105.623 128.719 92.3232 128.988 77.3461C129.483 50.0128 106.605 27.4744 77.8888 27.0074Z" fill="#1AAAFF"/>
</g>
<defs>
<clipPath id="clip0">
<rect width="104" height="99" fill="white" transform="translate(25 27)"/>
</clipPath>
</defs>
</svg>
