<svg width="16" height="12" viewBox="0 0 16 12" fill="none" xmlns="http://www.w3.org/2000/svg">
<path fill-rule="evenodd" clip-rule="evenodd" d="M10.9646 1.12941C10.6807 1.12941 10.3972 1.15076 10.1184 1.19118C9.04996 0.447283 7.68711 0 6.20427 0C2.78311 0 0 2.37677 0 5.2981C0 6.41421 0.4016 7.48184 1.16142 8.38499L1.16158 8.38536L1.1616 8.38569C1.35716 8.61807 1.43449 8.69158 1.44782 8.704C1.60089 8.84452 1.69227 9.10106 1.6688 9.22828L1.59004 9.65264V9.65334L1.27076 11.3762C1.20516 11.7302 1.37831 11.884 1.45582 11.934C1.49724 11.9605 1.57742 12 1.68924 12C1.78667 12 1.90809 11.9701 2.04889 11.8763L3.51093 10.9044L4.12533 10.4963C4.2416 10.4186 4.48178 10.3733 4.61884 10.4034C4.65511 10.4112 5.51289 10.5953 6.20409 10.5953C7.536 10.5953 8.76996 10.2341 9.78187 9.62184C10.1673 9.70129 10.5639 9.74346 10.9643 9.74346C11.5142 9.74346 12.1924 9.5999 12.2459 9.58857L12.2484 9.58807C12.3424 9.56723 12.5212 9.60118 12.6014 9.65473L13.0944 9.9825L14.2679 10.7625C14.3916 10.8449 14.4999 10.8711 14.5876 10.8711C14.6919 10.8711 14.7671 10.834 14.806 10.809C14.8775 10.7628 15.0377 10.6218 14.979 10.3052L14.7227 8.92221V8.92186L14.6596 8.58169C14.6455 8.5045 14.7065 8.31499 14.8203 8.21035C14.8361 8.196 14.8996 8.13423 15.0546 7.95012C15.6731 7.2148 16 6.34597 16 5.43652C16 3.06134 13.7412 1.12941 10.9646 1.12941ZM6.20427 10.0382C5.59452 10.0382 4.79986 9.87191 4.74356 9.86012L4.74044 9.85948C4.45333 9.79753 4.05227 9.87261 3.80871 10.0348L3.19431 10.4429L1.85369 11.3342L2.14667 9.75308L2.14684 9.75273L2.22542 9.32838C2.28604 9.00061 2.11769 8.55718 1.83591 8.29854L1.83584 8.29847C1.83339 8.2961 1.7672 8.23195 1.59751 8.03028C1.59733 8.03028 1.59733 8.02993 1.59733 8.02993C0.922667 7.22758 0.565867 6.28296 0.565867 5.29828C0.565867 2.68423 3.09529 0.557179 6.20427 0.557179C9.31324 0.557179 11.8425 2.68405 11.8425 5.29828C11.8425 7.91163 9.31324 10.0382 6.20427 10.0382ZM14.435 7.80203C14.4424 7.79468 14.495 7.74181 14.6188 7.59437C15.152 6.96071 15.434 6.21437 15.4341 5.4367C15.4341 3.3688 13.429 1.68641 10.9646 1.68641C10.9161 1.68641 10.8679 1.68906 10.8196 1.6917C10.7955 1.69303 10.7715 1.69435 10.7474 1.69534C11.7771 2.64153 12.4085 3.9076 12.4085 5.29828C12.4085 6.81967 11.6521 8.19266 10.4448 9.15951C10.6169 9.17614 10.7902 9.1861 10.9646 9.1861C11.4464 9.1861 12.0731 9.05529 12.1239 9.04468C12.1258 9.04428 12.1269 9.04405 12.1271 9.04402C12.3717 8.99099 12.712 9.05522 12.9188 9.19311L13.4116 9.52087L14.3774 10.1627L14.1659 9.02214V9.02179L14.1028 8.68125C14.0512 8.40144 14.1934 8.02379 14.4341 7.80296C14.4341 7.80296 14.4344 7.80266 14.435 7.80203Z" fill="#8776CC"/>
<path fill-rule="evenodd" clip-rule="evenodd" d="M10.9646 1.12941C10.6807 1.12941 10.3972 1.15076 10.1184 1.19118C9.04996 0.447283 7.68711 0 6.20427 0C2.78311 0 0 2.37677 0 5.2981C0 6.41421 0.4016 7.48184 1.16142 8.38499L1.16158 8.38536L1.1616 8.38569C1.35716 8.61807 1.43449 8.69158 1.44782 8.704C1.60089 8.84452 1.69227 9.10106 1.6688 9.22828L1.59004 9.65264V9.65334L1.27076 11.3762C1.20516 11.7302 1.37831 11.884 1.45582 11.934C1.49724 11.9605 1.57742 12 1.68924 12C1.78667 12 1.90809 11.9701 2.04889 11.8763L3.51093 10.9044L4.12533 10.4963C4.2416 10.4186 4.48178 10.3733 4.61884 10.4034C4.65511 10.4112 5.51289 10.5953 6.20409 10.5953C7.536 10.5953 8.76996 10.2341 9.78187 9.62184C10.1673 9.70129 10.5639 9.74346 10.9643 9.74346C11.5142 9.74346 12.1924 9.5999 12.2459 9.58857L12.2484 9.58807C12.3424 9.56723 12.5212 9.60118 12.6014 9.65473L13.0944 9.9825L14.2679 10.7625C14.3916 10.8449 14.4999 10.8711 14.5876 10.8711C14.6919 10.8711 14.7671 10.834 14.806 10.809C14.8775 10.7628 15.0377 10.6218 14.979 10.3052L14.7227 8.92221V8.92186L14.6596 8.58169C14.6455 8.5045 14.7065 8.31499 14.8203 8.21035C14.8361 8.196 14.8996 8.13423 15.0546 7.95012C15.6731 7.2148 16 6.34597 16 5.43652C16 3.06134 13.7412 1.12941 10.9646 1.12941ZM6.20427 10.0382C5.59452 10.0382 4.79986 9.87191 4.74356 9.86012L4.74044 9.85948C4.45333 9.79753 4.05227 9.87261 3.80871 10.0348L3.19431 10.4429L1.85369 11.3342L2.14667 9.75308L2.14684 9.75273L2.22542 9.32838C2.28604 9.00061 2.11769 8.55718 1.83591 8.29854L1.83584 8.29847C1.83339 8.2961 1.7672 8.23195 1.59751 8.03028C1.59733 8.03028 1.59733 8.02993 1.59733 8.02993C0.922667 7.22758 0.565867 6.28296 0.565867 5.29828C0.565867 2.68423 3.09529 0.557179 6.20427 0.557179C9.31324 0.557179 11.8425 2.68405 11.8425 5.29828C11.8425 7.91163 9.31324 10.0382 6.20427 10.0382ZM14.435 7.80203C14.4424 7.79468 14.495 7.74181 14.6188 7.59437C15.152 6.96071 15.434 6.21437 15.4341 5.4367C15.4341 3.3688 13.429 1.68641 10.9646 1.68641C10.9161 1.68641 10.8679 1.68906 10.8196 1.6917C10.7955 1.69303 10.7715 1.69435 10.7474 1.69534C11.7771 2.64153 12.4085 3.9076 12.4085 5.29828C12.4085 6.81967 11.6521 8.19266 10.4448 9.15951C10.6169 9.17614 10.7902 9.1861 10.9646 9.1861C11.4464 9.1861 12.0731 9.05529 12.1239 9.04468C12.1258 9.04428 12.1269 9.04405 12.1271 9.04402C12.3717 8.99099 12.712 9.05522 12.9188 9.19311L13.4116 9.52087L14.3774 10.1627L14.1659 9.02214V9.02179L14.1028 8.68125C14.0512 8.40144 14.1934 8.02379 14.4341 7.80296C14.4341 7.80296 14.4344 7.80266 14.435 7.80203Z" fill="#1AAAFF"/>
</svg>
