<svg width="9" height="11" viewBox="0 0 9 11" fill="none" xmlns="http://www.w3.org/2000/svg">
<path d="M8.78034 10.4739H0.557821C0.436251 10.4739 0.337891 10.571 0.337891 10.691C0.337891 10.811 0.436251 10.9082 0.557821 10.9082H8.78034C8.90191 10.9082 9.00027 10.811 9.00027 10.691C9.00027 10.571 8.90191 10.4739 8.78034 10.4739Z" fill="#645F5F"/>
<path fill-rule="evenodd" clip-rule="evenodd" d="M1.97916 9.84588L0.532356 10.5102C0.532356 10.5102 0.407057 10.5531 0.346825 10.553C0.275126 10.553 0.207434 10.5328 0.149412 10.4927C0.0427629 10.4191 -0.010976 10.2919 0.00187165 10.1437L0.139604 8.57466C0.168339 8.24823 0.339917 7.78218 0.530422 7.51397L5.4374 0.597054C5.88652 -0.0356243 6.77301 -0.190249 7.41401 0.252899C8.05501 0.696046 8.21126 1.5713 7.76241 2.20397L2.85557 9.12089C2.66506 9.38937 2.28005 9.7079 1.97916 9.84588ZM7.16161 0.608507C6.71885 0.302531 6.10714 0.409432 5.79727 0.846035L4.88177 2.13662L6.48635 3.24571L7.40199 1.95513C7.71171 1.51853 7.60382 0.914347 7.16161 0.608507ZM4.62965 2.49209L6.23423 3.60105L2.99399 8.1686L1.38928 7.05978L4.62965 2.49209ZM0.890571 7.76295C0.745655 7.96694 0.599496 8.36386 0.577668 8.6123L0.449744 10.0694L1.7935 9.45237C2.02254 9.34724 2.35037 9.07603 2.49514 8.87205L2.74187 8.52421L1.13703 7.41539L0.890571 7.76295Z" fill="#645F5F"/>
</svg>
