<svg width="20" height="20" viewBox="0 0 20 20" fill="none" xmlns="http://www.w3.org/2000/svg">
<path fill-rule="evenodd" clip-rule="evenodd" d="M13.9222 5.79898L18.7694 6.51284C19.6123 6.63691 19.8734 7.07715 19.9541 7.32846C20.0345 7.57955 20.0785 8.09116 19.4688 8.69331L15.961 12.1587C15.8013 12.3166 15.6857 12.6768 15.7235 12.9L16.5515 17.7931C16.6626 18.4497 16.4861 18.8276 16.3184 19.0291C16.1328 19.2523 15.8586 19.375 15.5466 19.375C15.2908 19.375 15.0131 19.296 14.7211 19.1406L10.3849 16.8306C10.1978 16.7309 9.80227 16.7309 9.6156 16.8306L5.27902 19.1406C4.63082 19.4862 4.01949 19.4351 3.68173 19.0291C3.51396 18.8278 3.33751 18.4495 3.44884 17.7931L4.2766 12.9002C4.31438 12.6768 4.19904 12.3166 4.03904 12.1589L0.531118 8.69331C-0.0788714 8.09116 -0.0344278 7.57977 0.0460153 7.32846C0.126236 7.07715 0.387565 6.63691 1.23044 6.51284L6.07767 5.79898C6.29922 5.76634 6.60167 5.54364 6.70033 5.34074L8.86851 0.889258C9.2454 0.11552 9.73916 0 10 0C10.2609 0 10.7547 0.11552 11.1316 0.889484L13.2998 5.34074C13.3986 5.54364 13.7006 5.76611 13.9222 5.79898ZM15.4673 11.6455L18.975 8.17988C19.2168 7.94141 19.331 7.70564 19.2808 7.54981C19.2305 7.39397 19.0014 7.27171 18.6674 7.22239L13.8198 6.50833C13.3649 6.44144 12.8682 6.07575 12.6649 5.65824L10.4969 1.20677C10.3476 0.899843 10.1616 0.716767 9.99982 0.716767C9.83805 0.716767 9.65205 0.900068 9.50273 1.20677L7.33476 5.65824C7.13145 6.07575 6.63456 6.44122 6.17945 6.50833L1.33221 7.22239C0.99822 7.27171 0.769113 7.39397 0.718891 7.54981C0.668891 7.70609 0.783333 7.94141 1.02511 8.17988L4.53327 11.6455C4.86238 11.9702 5.05213 12.5618 4.97436 13.0214L4.1466 17.9138C4.09638 18.2103 4.12438 18.4484 4.22304 18.567C4.24171 18.5895 4.29905 18.6582 4.45438 18.6582C4.55016 18.6582 4.71438 18.6321 4.95058 18.506L9.28629 16.1956C9.48207 16.0916 9.7356 16.0339 10.0003 16.0339C10.2649 16.0339 10.5185 16.0916 10.7145 16.1956L15.0504 18.506C15.2864 18.6321 15.4504 18.6582 15.5466 18.6582C15.7017 18.6582 15.7588 18.5898 15.7777 18.567C15.8766 18.4484 15.9046 18.2103 15.8544 17.914L15.0262 13.0214C14.9484 12.5618 15.1382 11.9702 15.4673 11.6455Z" fill="url(#paint0_linear)"/>
<defs>
<linearGradient id="paint0_linear" x1="10" y1="0" x2="10" y2="19.375" gradientUnits="userSpaceOnUse">
<stop stop-color="#1AAAFF"/>
<stop offset="1" stop-color="#1AAAFF"/>
</linearGradient>
</defs>
</svg>
