<svg width="16" height="22" viewBox="0 0 16 22" fill="none" xmlns="http://www.w3.org/2000/svg">
<path fill-rule="evenodd" clip-rule="evenodd" d="M0.634075 21.4925C0.502259 21.4925 0.378517 21.4553 0.273063 21.3813C0.0780674 21.2437 -0.0202616 21.0047 0.00348936 20.725L0.40203 20.7589L0.00372687 20.7241L0.294202 17.354C0.343128 16.7823 0.638353 15.9659 0.965639 15.4959L10.9244 1.19543C11.8072 -0.0719152 13.5505 -0.380692 14.8113 0.506235C16.0715 1.39364 16.3788 3.14625 15.4962 4.41359L5.5377 18.7138C5.20994 19.184 4.54823 19.7421 4.03045 19.9838L0.980366 21.4111L0.816958 21.0586L0.979415 21.4116C0.862799 21.4658 0.745705 21.4925 0.634075 21.4925ZM14.3776 1.12904C13.4582 0.482116 12.187 0.707788 11.5438 1.63149L10.3432 3.35592L13.6757 5.70195L14.8766 3.97825C15.52 3.05407 15.296 1.77597 14.3776 1.12904ZM9.90928 3.97825L13.242 6.32428L5.51394 17.4221L2.18121 15.0756L9.90928 3.97825ZM1.58506 15.9319C1.33615 16.2894 1.08463 16.9844 1.04734 17.4195L0.76732 20.6725L3.71148 19.2948C4.10527 19.1104 4.66887 18.6355 4.91802 18.278L5.08048 18.0447L1.748 15.6984L1.58506 15.9319Z" fill="url(#paint0_linear)"/>
<defs>
<linearGradient id="paint0_linear" x1="8" y1="0" x2="8" y2="21.4925" gradientUnits="userSpaceOnUse">
<stop stop-color="#1AAAFF"/>
<stop offset="1" stop-color="$second-color"/>
</linearGradient>
</defs>
</svg>
