<svg width="11" height="14" viewBox="0 0 11 14" fill="none" xmlns="http://www.w3.org/2000/svg">
<path d="M8.91756 4.75726H7.20882C7.09135 4.75726 6.99523 4.87959 6.99523 5.02911C6.99523 5.17862 7.09135 5.30095 7.20882 5.30095H8.91756C9.26999 5.30095 9.55834 5.66794 9.55834 6.11649V12.6408C9.55834 13.0893 9.26999 13.4563 8.91756 13.4563H2.08261C1.73018 13.4563 1.44183 13.0893 1.44183 12.6408V6.11649C1.44183 5.66794 1.73018 5.30095 2.08261 5.30095H4.00494C4.12242 5.30095 4.21853 5.17862 4.21853 5.02911C4.21853 4.87959 4.12242 4.75726 4.00494 4.75726H2.08261C1.49523 4.75726 1.01465 5.36891 1.01465 6.11649V12.6408C1.01465 13.3883 1.49523 14 2.08261 14H8.91756C9.50494 14 9.98552 13.3883 9.98552 12.6408V6.11649C9.98552 5.36891 9.50494 4.75726 8.91756 4.75726Z" fill="#645F5F"/>
<path d="M5.49973 0.951456C5.6172 0.951456 5.71332 0.829126 5.71332 0.679612V0.271845C5.71332 0.12233 5.6172 0 5.49973 0C5.38225 0 5.28613 0.12233 5.28613 0.271845V0.679612C5.28613 0.829126 5.38225 0.951456 5.49973 0.951456Z" fill="#645F5F"/>
<path d="M3.46056 7.19027C3.37513 7.299 3.37513 7.46211 3.46056 7.57085L5.35085 9.97667C5.39357 10.031 5.44697 10.0582 5.50036 10.0582C5.55376 10.0582 5.60716 10.031 5.64988 9.97667L7.54016 7.57085C7.6256 7.46211 7.6256 7.299 7.54016 7.19027C7.45473 7.08153 7.32657 7.08153 7.24114 7.19027L5.71396 9.13395V1.90289C5.71396 1.75337 5.61784 1.63104 5.50036 1.63104C5.38289 1.63104 5.28677 1.75337 5.28677 1.90289V9.13395L3.75959 7.19027C3.67415 7.08153 3.546 7.08153 3.46056 7.19027Z" fill="#645F5F"/>
</svg>
