<svg width="14" height="14" viewBox="0 0 14 14" fill="none" xmlns="http://www.w3.org/2000/svg">
<path fill-rule="evenodd" clip-rule="evenodd" d="M6.68522 3.0863C8.20947 3.0863 9.44973 4.06248 9.44973 5.26236C9.44973 6.46225 8.20947 7.43842 6.68522 7.43842C5.16097 7.43842 3.9209 6.46225 3.9209 5.26236C3.9209 4.06248 5.16097 3.0863 6.68522 3.0863ZM6.68522 3.58045C5.50707 3.58045 4.54862 4.33493 4.54862 5.26236C4.54862 6.18979 5.50707 6.94412 6.68522 6.94412C7.86336 6.94412 8.82181 6.18964 8.82181 5.26236C8.82181 4.33509 7.86336 3.58045 6.68522 3.58045Z" fill="#1AAAFF"/>
<path fill-rule="evenodd" clip-rule="evenodd" d="M7.69265 13.5982C7.4272 13.8393 7.06926 13.972 6.68509 13.972C6.30072 13.972 5.94298 13.8392 5.67754 13.5977C5.44561 13.3876 0 8.40477 0 5.26247C0 2.3608 2.999 0 6.68509 0C10.3712 0 13.3702 2.3608 13.3702 5.26262C13.3702 8.40492 7.92457 13.3878 7.69265 13.5982ZM12.7423 5.26247C12.7423 2.63325 10.0253 0.494143 6.68509 0.494143C3.34491 0.494143 0.627725 2.63325 0.627528 5.26247C0.627528 8.2208 6.09641 13.224 6.15183 13.2743C6.29619 13.4053 6.48551 13.4777 6.68509 13.4777C6.88447 13.4777 7.07399 13.4053 7.21835 13.2743C7.27357 13.224 12.7423 8.22096 12.7423 5.26247Z" fill="#1AAAFF"/>
</svg>
