<svg width="13" height="11" viewBox="0 0 13 11" fill="none" xmlns="http://www.w3.org/2000/svg">
<path d="M9.40575 2.069L8.57437 0H3.5861L2.75472 2.069H0.842337C0.406278 2.069 0.0527344 2.42094 0.0527344 2.85502V8.93126C0.0527344 9.36927 0.409396 9.72431 0.849404 9.72431H11.3109C11.7509 9.72431 12.1075 9.36927 12.1075 8.93126V2.85502C12.1075 2.42094 11.754 2.069 11.3179 2.069H9.40575Z" fill="#1AAAFF"/>
<path d="M6.08024 8.89691C8.03166 8.89691 9.6136 7.32216 9.6136 5.37961C9.6136 3.43705 8.03166 1.8623 6.08024 1.8623C4.12882 1.8623 2.54688 3.43705 2.54688 5.37961C2.54688 7.32216 4.12882 8.89691 6.08024 8.89691Z" fill="#424A60" stroke="#2B313D" stroke-width="2" stroke-miterlimit="10" stroke-linecap="round"/>
<path d="M6.08073 7.65507C7.34341 7.65507 8.36702 6.63612 8.36702 5.37917C8.36702 4.12223 7.34341 3.10327 6.08073 3.10327C4.81804 3.10327 3.79443 4.12223 3.79443 5.37917C3.79443 6.63612 4.81804 7.65507 6.08073 7.65507Z" fill="#7383BF"/>
<path d="M2.48665 9.03467H1.65527V10.0692H2.48665V9.03467Z" fill="#38454F"/>
<path d="M10.6523 4.13813C10.9967 4.13813 11.2759 3.86023 11.2759 3.51743C11.2759 3.17463 10.9967 2.89673 10.6523 2.89673C10.308 2.89673 10.0288 3.17463 10.0288 3.51743C10.0288 3.86023 10.308 4.13813 10.6523 4.13813Z" fill="#EFCE4A"/>
<path d="M6.70361 5.37939C6.70361 6.12319 6.99834 6.78175 7.45185 7.197C8.00618 6.78175 8.36637 6.12319 8.36637 5.37939C8.36637 4.63558 8.00618 3.97702 7.45185 3.56177C6.99834 3.97702 6.70361 4.63558 6.70361 5.37939Z" fill="#879AD8"/>
<path d="M3.79443 5.37939C3.79443 6.12319 4.15463 6.78175 4.70895 7.197C5.16247 6.78175 5.45719 6.12319 5.45719 5.37939C5.45719 4.63558 5.16247 3.97702 4.70895 3.56177C4.15463 3.97702 3.79443 4.63558 3.79443 5.37939Z" fill="#879AD8"/>
<path d="M6.08008 7.86233C4.70477 7.86233 3.58594 6.74859 3.58594 5.37953C3.58594 4.01047 4.70477 2.89673 6.08008 2.89673C7.45538 2.89673 8.57421 4.01047 8.57421 5.37953C8.57421 6.74859 7.45538 7.86233 6.08008 7.86233ZM6.08008 3.31053C4.93402 3.31053 4.00163 4.23868 4.00163 5.37953C4.00163 6.52038 4.93402 7.44853 6.08008 7.44853C7.22613 7.44853 8.15852 6.52038 8.15852 5.37953C8.15852 4.23868 7.22613 3.31053 6.08008 3.31053Z" fill="#556080"/>
<path d="M6.39103 5.37921C6.79279 5.37921 7.11849 5.055 7.11849 4.65506C7.11849 4.25512 6.79279 3.93091 6.39103 3.93091C5.98927 3.93091 5.66357 4.25512 5.66357 4.65506C5.66357 5.055 5.98927 5.37921 6.39103 5.37921Z" fill="#4674E8"/>
<path d="M5.87272 5.3796C6.1023 5.3796 6.28841 5.19434 6.28841 4.9658C6.28841 4.73727 6.1023 4.552 5.87272 4.552C5.64314 4.552 5.45703 4.73727 5.45703 4.9658C5.45703 5.19434 5.64314 5.3796 5.87272 5.3796Z" fill="#BF4D90"/>
<path d="M5.24967 4.9653C5.47925 4.9653 5.66536 4.78003 5.66536 4.5515C5.66536 4.32296 5.47925 4.1377 5.24967 4.1377C5.02009 4.1377 4.83398 4.32296 4.83398 4.5515C4.83398 4.78003 5.02009 4.9653 5.24967 4.9653Z" fill="#BCCEF7"/>
</svg>
