<svg width="13" height="12" viewBox="0 0 13 12" fill="none" xmlns="http://www.w3.org/2000/svg">
<path d="M6.94781 12C10.2766 12 12.9752 9.31371 12.9752 6C12.9752 2.68629 10.2766 0 6.94781 0C3.61897 0 0.92041 2.68629 0.92041 6C0.92041 9.31371 3.61897 12 6.94781 12Z" fill="#FFCA28"/>
<path d="M4.68751 5.25C5.10361 5.25 5.44093 4.91421 5.44093 4.5C5.44093 4.08579 5.10361 3.75 4.68751 3.75C4.2714 3.75 3.93408 4.08579 3.93408 4.5C3.93408 4.91421 4.2714 5.25 4.68751 5.25Z" fill="#6D4C41"/>
<path d="M9.20801 5.25C9.62412 5.25 9.96144 4.91421 9.96144 4.5C9.96144 4.08579 9.62412 3.75 9.20801 3.75C8.79191 3.75 8.45459 4.08579 8.45459 4.5C8.45459 4.91421 8.79191 5.25 9.20801 5.25Z" fill="#6D4C41"/>
<path d="M6.94813 9.74992C5.94155 9.74992 4.996 9.35917 4.28402 8.65117C4.1371 8.50492 4.1371 8.26717 4.28402 8.12092C4.43093 7.97467 4.66977 7.97467 4.81669 8.12092C5.95511 9.25492 7.93963 9.25492 9.07881 8.12092C9.22573 7.97467 9.46456 7.97467 9.61148 8.12092C9.7584 8.26717 9.7584 8.50492 9.61148 8.65117C8.90025 9.35917 7.9547 9.74992 6.94813 9.74992Z" fill="#6D4C41"/>
</svg>
