<svg width="14" height="11" viewBox="0 0 14 11" fill="none" xmlns="http://www.w3.org/2000/svg">
<path d="M9.17012 8.85141L7.04952 7.8633C6.77557 7.73565 6.6024 7.47455 6.6024 7.18904V6.41362C6.6619 6.35051 6.73028 6.26921 6.80309 6.17321C7.09215 5.79294 7.3106 5.3744 7.46223 4.93517C7.73419 4.85718 7.93444 4.62298 7.93444 4.34471V3.51714C7.93444 3.33508 7.84763 3.17226 7.71243 3.05847V1.86202C7.71243 1.86202 7.97595 0 5.27036 0C2.56455 0 2.8283 1.86202 2.8283 1.86202V3.05847C2.6931 3.17226 2.60629 3.33508 2.60629 3.51714V4.34471C2.60629 4.56277 2.72928 4.75456 2.91333 4.86545C3.13511 5.76584 3.71632 6.41362 3.71632 6.41362V7.1698C3.71632 7.44559 3.5547 7.69944 3.29473 7.83144L1.31422 8.83838C0.742106 9.12906 0.38623 9.68787 0.38623 10.2951V10.9652H10.1545V10.3356C10.1545 9.70711 9.77331 9.13258 9.17012 8.85141Z" fill="#1AAAFF"/>
<path d="M12.3902 9.09156L10.2204 8.21579C10.1016 8.16055 10.0048 8.04283 9.93685 7.91517C9.87535 7.79994 9.96704 7.66442 10.1051 7.66442H11.6332C11.6332 7.66442 12.1935 7.71449 12.6258 7.54153C12.8789 7.44015 12.9661 7.14409 12.8078 6.9341C12.3449 6.31984 11.3879 4.87388 11.357 3.38034C11.357 3.38034 11.304 1.08136 8.87011 1.06274C8.38458 1.06647 7.98875 1.16122 7.66284 1.30853C7.74631 1.61866 7.71257 1.86196 7.71257 1.86196V3.05841C7.84777 3.1722 7.93458 3.33503 7.93458 3.51709V4.34465C7.93458 4.62292 7.73433 4.85712 7.46237 4.93512C7.31074 5.37414 7.09228 5.79268 6.80323 6.17315C6.73041 6.26915 6.66204 6.35046 6.60254 6.41356V7.18899C6.60254 7.36547 6.66892 7.53222 6.78414 7.66422H7.39488C7.5474 7.66422 7.61466 7.8438 7.495 7.93173C7.45371 7.96214 7.41419 7.99028 7.37734 8.01572L9.17048 8.85115C9.77345 9.13252 10.1546 9.70706 10.1546 10.3356V10.9652H13.2627V10.4072C13.2627 9.85002 12.9251 9.34065 12.3902 9.09156Z" fill="#5EEDFD"/>
</svg>
