<svg width="23" height="23" viewBox="0 0 23 23" fill="none" xmlns="http://www.w3.org/2000/svg">
<path fill-rule="evenodd" clip-rule="evenodd" d="M22.3778 4.39079C22.332 6.55486 20.5336 8.2784 18.3693 8.23258C16.9465 8.20246 15.718 7.41264 15.0536 6.26141L7.76369 9.53691C7.97855 10.0358 8.09576 10.586 8.08353 11.1637C8.0713 11.7415 7.93068 12.2859 7.69513 12.7756L14.8396 16.3559C15.5521 15.2343 16.8132 14.497 18.2361 14.5271C20.4006 14.5729 22.1242 16.371 22.0784 18.5353C22.0325 20.6996 20.2344 22.4234 18.0699 22.3776C15.9058 22.3318 14.1822 20.5334 14.2281 18.3694C14.2379 17.905 14.3326 17.4628 14.4902 17.0517L7.28786 13.442C6.55337 14.413 5.38277 15.0337 4.07504 15.006C1.91097 14.9602 0.18719 13.1614 0.232999 10.9975C0.278823 8.83298 2.07717 7.10943 4.24124 7.15524C5.54897 7.18293 6.69225 7.85261 7.385 8.85383L14.7336 5.55219C14.5933 5.13503 14.5174 4.68917 14.5273 4.22483C14.5731 2.06003 16.3714 0.336727 18.5355 0.382541C20.7001 0.428365 22.4236 2.22623 22.3778 4.39079ZM21.5997 4.37456C21.6364 2.6389 20.2547 1.19718 18.519 1.16043C16.7839 1.1237 15.3424 2.50565 15.3054 4.2413C15.2687 5.97672 16.6504 7.41819 18.3858 7.45493C20.1214 7.49168 21.5629 6.10997 21.5997 4.37456ZM4.09151 14.2279C2.3561 14.1911 0.974391 12.7497 1.01114 11.014C1.04788 9.27835 2.48961 7.8964 4.22478 7.93314C5.96019 7.96988 7.34214 9.4116 7.30539 11.1473C7.26865 12.8829 5.82692 14.2646 4.09151 14.2279ZM21.3002 18.5191C21.3369 16.7837 19.9552 15.3422 18.2196 15.3055C16.4844 15.2687 15.0429 16.6504 15.006 18.3858C14.9692 20.1215 16.3509 21.563 18.0863 21.5997C19.822 21.6365 21.2635 20.2548 21.3002 18.5191Z" fill="#333333"/>
</svg>
