<svg width="20" height="24" viewBox="0 0 20 24" fill="none" xmlns="http://www.w3.org/2000/svg">
<path fill-rule="evenodd" clip-rule="evenodd" d="M12.9123 7.47579H18.9237C19.5168 7.47579 19.9998 7.99576 20 8.63523V11.5354C20 12.1746 19.5168 12.6946 18.9237 12.6946H18.5219V22.8406C18.5219 23.4797 18.039 24 17.4456 24H2.55415C1.96079 24 1.47808 23.4795 1.47808 22.8406V12.6949H1.07657C0.482709 12.6949 0 12.1746 0 11.5357V8.63523C0 7.99576 0.482956 7.47579 1.07657 7.47579H7.09928C5.76257 7.05099 4.31963 6.34939 3.6879 5.21635C3.34679 4.60357 3.26509 3.92437 3.44556 3.198C3.83321 1.64229 5.32267 0.716438 6.76511 1.1327C8.19072 1.54495 9.14844 3.56011 9.724 5.30995C9.8141 5.30088 9.90617 5.29608 10 5.29608C10.0298 5.29608 10.0588 5.29784 10.0878 5.29957C10.104 5.30056 10.1203 5.30155 10.1366 5.30221C10.807 3.13907 11.9402 0.610304 13.6592 0.113781C15.3073 -0.361677 17.0082 0.696704 17.4508 2.47267C17.6582 3.30733 17.5629 4.08597 17.1674 4.78757C16.3906 6.16515 14.5652 6.99099 12.9123 7.47579ZM11.5744 7.34992C11.3979 6.58592 10.8372 6.14515 10 6.14515C9.16281 6.14515 8.60212 6.58592 8.42563 7.34992C8.40953 7.41925 8.45385 7.47605 8.5197 7.47605H11.4803C11.5461 7.47605 11.5905 7.41925 11.5744 7.34992ZM7.57753 23.151H2.55415C2.39523 23.151 2.26601 23.0118 2.26601 22.8403V12.6946H7.57753V23.151ZM7.57753 11.8464V8.33043V8.32456H1.07657C0.917642 8.32456 0.788178 8.46376 0.788178 8.63523V11.5357C0.788178 11.7069 0.917642 11.8464 1.07657 11.8464H7.57753ZM7.77037 6.79499C6.02521 6.31152 4.8219 5.60168 4.36368 4.77928C4.13249 4.36571 4.08123 3.91984 4.20625 3.41744C4.48104 2.31427 5.53852 1.65749 6.56089 1.95268C7.42605 2.20254 8.26943 3.46037 8.95412 5.51128C8.40706 5.75661 7.99489 6.20299 7.77037 6.79499ZM8.36548 23.151H11.6343V12.6946H8.36548V23.151ZM11.6343 11.8464H8.36548V8.33043H11.6343V11.8464ZM13.8629 0.934032C12.7809 1.24656 11.7419 2.84893 10.9194 5.45928C11.5276 5.68941 11.985 6.15528 12.2271 6.78912C14.4127 6.22139 15.9217 5.36061 16.4938 4.34677C16.7772 3.84384 16.8414 3.30307 16.6896 2.69293C16.3599 1.36922 15.0935 0.579637 13.8629 0.934032ZM17.7338 22.8403C17.7338 23.0118 17.6048 23.151 17.4456 23.151H12.4225V12.6946H17.7338V22.8403ZM18.9237 11.8464C19.0823 11.8464 19.2116 11.7069 19.2116 11.5357V8.63523C19.2116 8.46376 19.0823 8.32456 18.9237 8.32456H12.4225V8.33043V11.8464H18.9237Z" fill="#333333"/>
</svg>
