<svg width="20" height="24" viewBox="0 0 20 24" fill="none" xmlns="http://www.w3.org/2000/svg">
<path d="M16.3301 16.9384H13.9741C13.4872 16.938 13.0086 17.0892 12.5849 17.3772C12.2243 17.6226 11.9124 17.9591 11.6707 18.3633C11.5097 18.3296 11.3466 18.3127 11.1831 18.3128H8.82506C8.6616 18.3127 8.49846 18.3296 8.33747 18.3633C8.09583 17.959 7.78389 17.6226 7.42325 17.3772C6.9996 17.0892 6.52095 16.938 6.03404 16.9384H3.67807C2.11254 16.9425 0.844288 18.4644 0.84082 20.3431V22.2623C0.841976 22.4633 0.978059 22.6255 1.14556 22.6255H5.9794V23.6343C5.9794 23.8362 6.11585 24 6.28414 24H13.7156C13.8839 24 14.0204 23.8362 14.0204 23.6343V22.6255H18.8542C19.0225 22.6255 19.159 22.4617 19.159 22.2598V20.3431C19.1555 18.4683 17.8923 16.9481 16.3301 16.9384ZM6.01092 21.3897V21.4679C6.01092 21.5032 6.01092 21.536 6.01092 21.5713V21.7176V21.8941H1.4503V20.3431C1.45377 18.8683 2.44912 17.6739 3.67807 17.6697H6.03404C6.41555 17.6692 6.79064 17.7874 7.12271 18.0127C7.34533 18.1638 7.54504 18.3591 7.71327 18.5903C6.76495 19.0842 6.11364 20.1553 6.01092 21.3897ZM13.4046 21.7176V23.2711H6.59729V21.6898C6.59729 21.6612 6.59729 21.6335 6.59729 21.6066C6.59729 21.5629 6.59729 21.5191 6.59729 21.4754V21.4099C6.59729 21.3846 6.59729 21.3594 6.59729 21.3342V21.2535V21.2283V21.2005V21.1451L6.6099 21.0845L6.63092 20.9937L6.64563 20.9332C6.94753 19.8352 7.8006 19.0918 8.76411 19.0871L8.82506 19.0467H11.1831C12.3021 19.0517 13.2458 20.0483 13.392 21.3796C13.392 21.4351 13.392 21.4906 13.4046 21.5461C13.4046 21.6032 13.4046 21.6604 13.4046 21.7176ZM18.5579 21.8966H14.0183V21.6772C14.0183 21.6495 14.0183 21.6217 14.0183 21.594C14.0183 21.5654 14.0183 21.5368 14.0183 21.5082C14.0183 21.4679 14.0183 21.425 14.0183 21.3846V21.3468V21.3039V21.2258V21.2132V21.1829V21.1551V21.1375V21.1047V21.0694V21.0517V21.029V21.0063V20.9836V20.9282V20.9029V20.8702V20.8374L14.0036 20.7743V20.7491V20.7264V20.7088V20.6835V20.6507L13.9741 20.5524C13.7003 19.6788 13.1418 18.9768 12.4273 18.6079C12.5537 18.3833 12.7075 18.1827 12.8834 18.0127C13.2154 17.7874 13.5905 17.6692 13.972 17.6697H16.3301C17.559 17.6739 18.5544 18.8683 18.5579 20.3431V21.8966V21.8966Z" fill="black"/>
<path d="M10.0166 5.32209C10.2069 5.32209 10.3612 5.13691 10.3612 4.90848C10.3612 4.68005 10.2069 4.49487 10.0166 4.49487C9.82619 4.49487 9.67188 4.68005 9.67188 4.90848C9.67188 5.13691 9.82619 5.32209 10.0166 5.32209Z" fill="black"/>
<path d="M6.37213 11.9272C5.97056 11.4425 5.42433 11.1701 4.85473 11.1706C3.66965 11.1693 2.70808 12.3211 2.70703 13.7433C2.70598 15.1654 3.66581 16.3193 4.85095 16.3205C6.03608 16.3218 6.99759 15.17 6.99864 13.7478C6.99911 13.0653 6.77382 12.4105 6.37213 11.9272ZM5.94129 15.0469C5.34142 15.767 4.36872 15.7673 3.76859 15.0474C3.16851 14.3276 3.1683 13.1603 3.76817 12.4402C4.36803 11.7201 5.34074 11.7198 5.94087 12.4397C6.22901 12.7853 6.39094 13.2541 6.39105 13.743C6.39163 14.2322 6.2298 14.7014 5.94129 15.0469Z" fill="black"/>
<path d="M12.2441 5.32209C12.4344 5.32209 12.5888 5.13691 12.5888 4.90848C12.5888 4.68005 12.4344 4.49487 12.2441 4.49487C12.0537 4.49487 11.8994 4.68005 11.8994 4.90848C11.8994 5.13691 12.0537 5.32209 12.2441 5.32209Z" fill="black"/>
<path d="M13.5936 1.43313C12.5656 0.48435 11.3008 -0.0203661 10.004 0.00062954C8.70715 -0.0203661 7.44242 0.48435 6.41433 1.43313C5.47279 2.336 4.89062 3.59196 4.89062 4.98158C4.89178 5.68737 5.04142 6.38136 5.32567 6.99919C5.59615 7.58284 5.95964 8.09701 6.39542 8.51239L6.15373 10.4417C6.12856 10.64 6.24216 10.8252 6.4074 10.8554C6.47586 10.8679 6.54579 10.8519 6.60559 10.8099L8.24909 9.6599C8.50954 9.75283 8.77498 9.82446 9.04352 9.87427C9.36203 9.93316 9.68385 9.96266 10.0061 9.96254C11.3029 9.98353 12.5677 9.47882 13.5957 8.53004C14.5352 7.62464 15.1173 6.37121 15.1173 4.98158C15.1173 3.59196 14.5352 2.336 13.5936 1.43313ZM13.2153 7.96511C12.2935 8.80677 11.1622 9.25102 10.004 9.22611C9.71343 9.22662 9.42324 9.20051 9.13599 9.14793C8.85101 9.0968 8.56991 9.01836 8.29533 8.91338C8.21384 8.88255 8.1253 8.89441 8.05153 8.94617L6.85148 9.79609L7.02592 8.40898C7.04258 8.27349 6.99471 8.13818 6.90192 8.05843C6.47087 7.6841 6.11238 7.20233 5.85109 6.64611C5.61738 6.13609 5.49454 5.5636 5.4938 4.98158C5.4938 3.82146 5.9877 2.76727 6.78633 2.00058C7.70817 1.15892 8.8395 0.714671 9.99768 0.739576C11.1559 0.714671 12.2872 1.15892 13.209 2.00058C14.0077 2.75718 14.5016 3.82146 14.5016 4.98158C14.5016 6.1417 14.014 7.1959 13.2153 7.96511Z" fill="black"/>
<path d="M15.1555 11.168C13.9704 11.1668 13.0089 12.3186 13.0078 13.7407C13.0073 14.4232 13.2326 15.0781 13.6343 15.5614C14.0359 16.0461 14.5821 16.3185 15.1517 16.318C16.3368 16.3192 17.2984 15.1674 17.2994 13.7453C17.3005 12.3231 16.3406 11.1693 15.1555 11.168ZM16.2403 15.0458C15.6405 15.7659 14.6678 15.7661 14.0676 15.0463C13.7795 14.7007 13.6176 14.2318 13.6175 13.7429C13.6169 13.2538 13.7787 12.7846 14.0672 12.4391C14.6671 11.719 15.6398 11.7187 16.2399 12.4386C16.84 13.1584 16.8402 14.3257 16.2403 15.0458Z" fill="black"/>
<path d="M7.78901 5.32209C7.97937 5.32209 8.13368 5.13691 8.13368 4.90848C8.13368 4.68005 7.97937 4.49487 7.78901 4.49487C7.59865 4.49487 7.44434 4.68005 7.44434 4.90848C7.44434 5.13691 7.59865 5.32209 7.78901 5.32209Z" fill="black"/>
<path d="M11.5182 13.2929C11.1162 12.8121 10.5716 12.5423 10.004 12.5426C9.43438 12.5421 8.88816 12.8145 8.48658 13.2992C7.65086 14.3055 7.65322 15.9343 8.49184 16.9372C9.33046 17.9401 10.6878 17.9372 11.5235 16.9309C12.3592 15.9245 12.3569 14.2958 11.5182 13.2929ZM10.0036 16.9632C9.15507 16.9628 8.46746 16.1372 8.46767 15.1191C8.46788 14.1009 9.15596 13.2757 10.0044 13.276C10.4118 13.2761 10.8025 13.4704 11.0905 13.8162C11.3791 14.1617 11.5409 14.6309 11.5403 15.1201C11.54 16.1383 10.852 16.9634 10.0036 16.9632Z" fill="black"/>
</svg>
