<svg width="22" height="22" viewBox="0 0 22 22" fill="none" xmlns="http://www.w3.org/2000/svg">
<path fill-rule="evenodd" clip-rule="evenodd" d="M4.31934 5.72182C4.31934 2.56723 6.6115 0 9.42948 0C12.2474 0 14.5396 2.56696 14.5396 5.72182C14.5396 8.87668 12.2474 11.4436 9.42948 11.4436C6.6115 11.4436 4.31934 8.87668 4.31934 5.72182ZM5.11134 5.72182C5.11134 8.38759 7.04857 10.5566 9.42948 10.5566C11.8101 10.5566 13.7474 8.38759 13.7474 5.72182C13.7474 3.05605 11.8101 0.887312 9.42948 0.887312C7.04857 0.887312 5.11134 3.05605 5.11134 5.72182Z" fill="#333333"/>
<path fill-rule="evenodd" clip-rule="evenodd" d="M0 19.4566C0 17.797 1.69401 13.4888 9.42925 13.4888C17.1645 13.4888 18.858 17.797 18.8583 19.4566C18.8583 21.0482 17.6859 22.0001 16.5526 22.0001H2.30561C1.17212 22.0001 0 21.0482 0 19.4566ZM2.30561 21.1128H16.5526C17.2862 21.1128 18.0658 20.5325 18.066 19.4566C18.066 18.1385 16.4793 14.3758 9.42925 14.3758C2.37895 14.3758 0.792249 18.1385 0.792249 19.4566C0.792249 20.5325 1.57179 21.1128 2.30561 21.1128Z" fill="#333333"/>
<path d="M21.604 8.21071H19.2534V5.57915C19.2534 5.33393 19.0762 5.1355 18.8572 5.1355C18.6382 5.1355 18.4612 5.33393 18.4612 5.57915V8.21071H16.1108C15.8918 8.21071 15.7148 8.40914 15.7148 8.65409C15.7148 8.89905 15.8921 9.09775 16.1108 9.09775H18.4612V11.729C18.4612 11.9743 18.6384 12.1727 18.8572 12.1727C19.0762 12.1727 19.2534 11.974 19.2534 11.729V9.09775H21.604C21.8231 9.09775 22 8.89905 22 8.65409C22 8.40914 21.8228 8.21071 21.604 8.21071Z" fill="#333333"/>
</svg>
