<svg width="20" height="17" viewBox="0 0 20 17" fill="none" xmlns="http://www.w3.org/2000/svg">
<path d="M14.5082 15.729V16.1154H0.571754V15.6673C0.571754 14.9777 0.982294 14.3155 1.68864 13.9617L1.68878 13.9616L4.74595 12.4294C5.32429 12.1399 5.71263 11.5653 5.71263 10.9112V9.7604V9.53916L5.56458 9.3765L5.56431 9.3762L5.56418 9.37606L5.56405 9.37591L5.56389 9.37574L5.56371 9.37554L5.55974 9.37105C5.5552 9.36589 5.54756 9.35714 5.53718 9.34493C5.5164 9.3205 5.48471 9.28235 5.44485 9.23164C5.36499 9.13003 5.25323 8.97913 5.13115 8.78821C4.88499 8.40324 4.60741 7.87197 4.45594 7.26576L4.39816 7.03451L4.19323 6.91279C4.05779 6.83234 3.99901 6.71476 3.99901 6.61188V5.35248C3.99901 5.26822 4.03873 5.17439 4.13505 5.09448L4.34173 4.923V4.65445V2.83366V2.7928L4.33654 2.7567L4.33564 2.74802C4.33461 2.73709 4.33302 2.71731 4.33197 2.68997C4.32986 2.63501 4.32998 2.55136 4.34043 2.44892C4.3615 2.24232 4.42304 1.97354 4.58025 1.7086C4.86935 1.22138 5.59091 0.571754 7.53995 0.571754C9.4888 0.571754 10.2104 1.22136 10.4995 1.70862C10.6568 1.97357 10.7183 2.24237 10.7394 2.44898C10.7499 2.55142 10.75 2.63508 10.7479 2.69003C10.7469 2.71737 10.7453 2.73715 10.7443 2.74809L10.7434 2.75677L10.7382 2.79283V2.83366V4.65445V4.923L10.9449 5.09448C11.0412 5.17439 11.0809 5.26822 11.0809 5.35248V6.61188C11.0809 6.73915 10.9829 6.89957 10.7681 6.96028L10.4822 7.04111L10.3841 7.3215C10.1692 7.935 9.86051 8.51737 9.45335 9.04541L9.453 9.04587C9.35014 9.17953 9.25788 9.28704 9.18312 9.3652L9.02455 9.53098V9.7604V10.9405C9.02455 11.618 9.44046 12.2071 10.0479 12.4861L13.3215 13.9898C13.3216 13.9898 13.3216 13.9898 13.3216 13.9899C14.0684 14.333 14.5082 15.0157 14.5082 15.729Z" fill="white" stroke="#28AFFF" stroke-width="1.14351"/>
<path d="M11.2031 12.3877L11.385 12.4712C11.539 12.3294 11.6215 12.1451 11.6366 11.9576M11.2031 12.3877L15.0788 16.1153H15.6506M11.2031 12.3877L10.973 12.0707M11.2031 12.3877L10.7913 12.1986L10.8184 12.211L11.2023 12.3873L10.973 12.0707M11.6366 11.9576L13.7981 12.9504L13.7985 12.9505C14.9135 13.4634 15.6506 14.5293 15.6506 15.729V16.1153M11.6366 11.9576L11.03 11.679L11.0028 11.7381M11.6366 11.9576C11.646 11.8412 11.6293 11.7235 11.5878 11.614C11.4719 11.3091 11.1758 11.0919 10.8184 11.0919H10.1914M15.6506 16.1153H19.3052M15.6506 16.1153V16.6871M15.6506 16.6871H19.3052V16.1153M15.6506 16.6871L18.8937 11.4769C18.2264 11.7401 17.3614 11.664 17.3614 11.664H15.0024C14.7892 11.664 14.6477 11.8702 14.7426 12.0456C14.8475 12.2398 14.9969 12.419 15.1803 12.503L18.5301 13.8358C19.3557 14.2149 19.877 14.99 19.877 15.8379V16.1153H19.3052M15.6506 16.6871L11.8806 2.86534M19.3052 16.1153V15.8379C19.3052 15.237 18.9373 14.6573 18.3041 14.3612L14.9689 13.0343L14.9553 13.0289L14.942 13.0228C14.5982 12.8652 14.3724 12.5635 14.2395 12.3172C13.896 11.6817 14.4498 11.0922 15.0024 11.0922H17.3614H17.3865L17.4105 11.0943L17.4107 11.0943L17.4109 11.0943L17.4112 11.0944L17.4113 11.0944L17.4115 11.0944L17.4146 11.0946L17.4357 11.0961C17.4555 11.0973 17.4863 11.099 17.5259 11.1003C17.6055 11.1029 17.719 11.1041 17.8509 11.098C18.124 11.0854 18.4349 11.0432 18.6837 10.9451C18.7025 10.9377 18.7123 10.9293 18.7171 10.9241C18.7222 10.9185 18.7243 10.9138 18.7251 10.9112C18.7258 10.9087 18.7255 10.9079 18.7256 10.9084C18.7258 10.9096 18.726 10.9069 18.7205 10.8998L18.7205 10.8998C17.9999 9.95714 16.4164 7.62959 16.3635 5.15925L16.3634 5.15755L16.3624 5.13881C16.3613 5.12039 16.3592 5.09053 16.3552 5.05086C16.3473 4.97135 16.332 4.8536 16.3031 4.7105C16.2448 4.42198 16.1336 4.04366 15.9251 3.67011C15.5269 2.9566 14.7486 2.20289 13.0958 2.18913C12.6242 2.19307 12.2225 2.25753 11.878 2.3608C11.8855 2.44046 11.8891 2.51334 11.8904 2.57787C11.8923 2.67226 11.8893 2.75025 11.8854 2.8073C11.8839 2.82995 11.8822 2.84939 11.8806 2.86534M11.8806 2.86534V4.42066C12.0886 4.67075 12.2233 4.99149 12.2233 5.35244V6.61185C12.2233 7.21541 11.8574 7.70133 11.3707 7.94663C11.1235 8.58004 10.7876 9.18597 10.358 9.74342L11.8806 2.86534ZM11.0028 11.7381L10.3579 9.74352C10.293 9.82781 10.229 9.90686 10.167 9.97952M11.0028 11.7381C11.091 11.8288 11.0968 11.9811 10.973 12.0707M11.0028 11.7381L10.973 12.0707M10.1914 11.0919C10.1751 11.0422 10.167 10.9912 10.167 10.9404V9.97952M10.1914 11.0919H9.87556V11.6636M10.1914 11.0919C10.2135 11.1596 10.2509 11.2251 10.3036 11.2846L9.87556 11.6636M10.167 9.97952V9.76036H9.59521L10.0084 10.1556C10.0593 10.1023 10.1124 10.0434 10.167 9.97952ZM9.87556 11.6636H10.5594C10.5847 11.6458 10.6106 11.6273 10.637 11.6081L10.6376 11.6077L9.87556 11.6636Z" fill="white" stroke="#28AFFF" stroke-width="1.14351"/>
</svg>
