<svg width="17" height="14" viewBox="0 0 17 14" fill="none" xmlns="http://www.w3.org/2000/svg">
<path d="M3.20606 5.74394C3.71062 5.74394 4.11964 5.33102 4.11964 4.82167C4.11964 4.31232 3.71062 3.89941 3.20606 3.89941C2.7015 3.89941 2.29248 4.31232 2.29248 4.82167C2.29248 5.33102 2.7015 5.74394 3.20606 5.74394Z" fill="#1AAAFF"/>
<path d="M14.7069 1.58471H12.8976L12.7364 1.24112C12.414 0.590116 11.7691 0.174194 11.0525 0.174194H5.98306C5.26653 0.174194 4.60373 0.590116 4.2992 1.24112L4.13798 1.58471H2.31082C1.03897 1.58471 0 2.63356 0 3.91749V11.3317C0 12.6157 1.03897 13.6645 2.31082 13.6645H14.6889C15.9608 13.6645 16.9998 12.6157 16.9998 11.3317V3.91749C17.0177 2.63356 15.9787 1.58471 14.7069 1.58471ZM15.7638 11.3498C15.7638 11.9466 15.2801 12.4348 14.6889 12.4348H2.31082C1.71968 12.4348 1.23602 11.9466 1.23602 11.3498V3.93557C1.23602 3.33881 1.71968 2.85056 2.31082 2.85056H4.49625C4.72913 2.85056 4.94409 2.70589 5.05157 2.50697L5.39192 1.8198C5.4994 1.60279 5.71436 1.45813 5.96515 1.45813H11.0346C11.2854 1.45813 11.5004 1.60279 11.6079 1.8198L11.9482 2.50697C12.0557 2.72397 12.2706 2.85056 12.5035 2.85056H14.6889C15.2801 2.85056 15.7638 3.33881 15.7638 3.93557V11.3498Z" fill="#1AAAFF"/>
<path d="M8.50875 3.33882C6.39497 3.33882 4.67529 5.07484 4.67529 7.2087C4.67529 9.34256 6.39497 11.0967 8.50875 11.0967C10.6225 11.0967 12.3422 9.36064 12.3422 7.22678C12.3422 5.09292 10.6225 3.33882 8.50875 3.33882ZM8.50875 9.83081C7.07568 9.83081 5.91131 8.65538 5.91131 7.2087C5.91131 5.76202 7.07568 4.60467 8.50875 4.60467C9.94182 4.60467 11.1062 5.7801 11.1062 7.22678C11.1062 8.67347 9.94182 9.83081 8.50875 9.83081Z" fill="#1AAAFF"/>
</svg>
