<svg width="18" height="18" viewBox="0 0 18 18" fill="none" xmlns="http://www.w3.org/2000/svg">
<path d="M9 18C13.9706 18 18 13.9706 18 9C18 4.02944 13.9706 0 9 0C4.02944 0 0 4.02944 0 9C0 13.9706 4.02944 18 9 18Z" fill="#FFCA28"/>
<path d="M5.62354 7.87498C6.24486 7.87498 6.74854 7.37131 6.74854 6.74998C6.74854 6.12866 6.24486 5.62498 5.62354 5.62498C5.00221 5.62498 4.49854 6.12866 4.49854 6.74998C4.49854 7.37131 5.00221 7.87498 5.62354 7.87498Z" fill="#6D4C41"/>
<path d="M12.3755 7.87497C12.9968 7.87497 13.5005 7.37129 13.5005 6.74997C13.5005 6.12865 12.9968 5.62497 12.3755 5.62497C11.7542 5.62497 11.2505 6.12865 11.2505 6.74997C11.2505 7.37129 11.7542 7.87497 12.3755 7.87497Z" fill="#6D4C41"/>
<path d="M8.99751 14.6248C7.49451 14.6248 6.08264 14.0387 5.01951 12.9767C4.80014 12.7573 4.80014 12.4007 5.01951 12.1813C5.23889 11.9619 5.59551 11.9619 5.81489 12.1813C7.51476 13.8823 10.478 13.8823 12.179 12.1813C12.3984 11.9619 12.755 11.9619 12.9744 12.1813C13.1938 12.4007 13.1938 12.7573 12.9744 12.9767C11.9124 14.0387 10.5005 14.6248 8.99751 14.6248Z" fill="#6D4C41"/>
</svg>
