<svg width="16" height="15" viewBox="0 0 16 15" fill="none" xmlns="http://www.w3.org/2000/svg">
<path fill-rule="evenodd" clip-rule="evenodd" d="M14.962 6.22802L8.73398 0L7.69598 1.038L13.2638 6.60581H0V8.07377H13.1162L7.69598 13.494L8.73398 14.532L14.962 8.30402L16 7.26602L14.962 6.22802Z" fill="white"/>
<path fill-rule="evenodd" clip-rule="evenodd" d="M14.962 6.22802L8.73398 0L7.69598 1.038L13.2638 6.60581H0V8.07377H13.1162L7.69598 13.494L8.73398 14.532L14.962 8.30402L16 7.26602L14.962 6.22802Z" fill="white"/>
<path fill-rule="evenodd" clip-rule="evenodd" d="M14.962 6.22802L8.73398 0L7.69598 1.038L13.2638 6.60581H0V8.07377H13.1162L7.69598 13.494L8.73398 14.532L14.962 8.30402L16 7.26602L14.962 6.22802Z" fill="white"/>
</svg>
