<svg width="10" height="18" viewBox="0 0 10 18" fill="none" xmlns="http://www.w3.org/2000/svg">
<path d="M1.35355 5.35355C1.15829 5.54882 0.841709 5.54882 0.646447 5.35355C0.451184 5.15829 0.451184 4.84171 0.646447 4.64645L1.35355 5.35355ZM5 1L4.64645 0.646447C4.84171 0.451184 5.15829 0.451184 5.35355 0.646447L5 1ZM9.35355 4.64645C9.54882 4.84171 9.54882 5.15829 9.35355 5.35355C9.15829 5.54882 8.84171 5.54882 8.64645 5.35355L9.35355 4.64645ZM0.646447 4.64645L4.64645 0.646447L5.35355 1.35355L1.35355 5.35355L0.646447 4.64645ZM5.35355 0.646447L9.35355 4.64645L8.64645 5.35355L4.64645 1.35355L5.35355 0.646447Z" fill="#1AAAFF"/>
<path d="M5.5 17C5.5 17.2761 5.27614 17.5 5 17.5C4.72386 17.5 4.5 17.2761 4.5 17H5.5ZM4.5 1C4.5 0.723858 4.72386 0.5 5 0.5C5.27614 0.5 5.5 0.723858 5.5 1H4.5ZM4.5 17V1H5.5V17H4.5Z" fill="#1AAAFF"/>
</svg>
