<svg width="12" height="14" viewBox="0 0 12 14" fill="none" xmlns="http://www.w3.org/2000/svg">
<path d="M6.81682 12.9128L6.81682 2.10836L10.6055 5.51956C10.7939 5.68786 11.0831 5.67157 11.2514 5.48317C11.4197 5.29478 11.4034 5.00562 11.215 4.83732L6.66672 0.743879L6.64853 0.730234L6.62352 0.709767L6.60305 0.696122L6.57348 0.677929L6.5462 0.664284H6.52345H6.48934H6.46205H6.43931C6.42794 0.664284 6.41657 0.664284 6.4052 0.664284C6.39383 0.664284 6.38473 0.632446 6.36199 0.632446C6.33925 0.632446 6.36199 0.632446 6.36199 0.632446C6.36199 0.632446 6.34152 0.632446 6.33015 0.632446C6.31878 0.632446 6.30741 0.632446 6.29604 0.632446H6.2733H6.24601H6.2119H6.18916L6.16187 0.646091L6.1323 0.664284L6.11184 0.677929L6.08682 0.698396L6.06863 0.712041L1.52036 4.80548C1.33196 4.97378 1.31567 5.26294 1.48397 5.45134C1.65227 5.63973 1.94143 5.65602 2.12983 5.48772L5.90716 2.10836L5.90716 12.9128C5.90716 13.164 6.1108 13.3676 6.36199 13.3676C6.61318 13.3676 6.81682 13.164 6.81682 12.9128Z" fill="white" stroke="white"/>
</svg>
