<svg width="53" height="60" viewBox="0 0 53 60" fill="none" xmlns="http://www.w3.org/2000/svg">
<path d="M45.25 36.5938L48.0625 29.3281C48.2969 28.7031 48.2188 28.1172 47.8281 27.5703C47.4375 27.0234 46.9297 26.75 46.3047 26.75H39.3906C40.7969 24.3281 41.5 21.8281 41.5 19.25C43.8438 18.7812 45.6797 18.2344 47.0078 17.6094C48.3359 16.9062 49 16.2031 49 15.5C49 14.7187 48.2578 14.0156 46.7734 13.3906C45.3672 12.6875 43.375 12.1016 40.7969 11.6328C40.25 9.83594 39.5078 8 38.5703 6.125C37.7109 4.40625 36.8516 3 35.9922 1.90625C35.4453 1.20312 34.7422 0.773437 33.8828 0.617188C33.0234 0.382812 32.2031 0.460938 31.4219 0.851562L28.1406 2.49219C27.0469 3.03906 25.9531 3.03906 24.8594 2.49219L21.5781 0.851562C20.7969 0.460938 19.9766 0.382812 19.1172 0.617188C18.2578 0.773437 17.5547 1.20312 17.0078 1.90625C16.1484 3 15.2891 4.40625 14.4297 6.125C13.4922 8 12.75 9.83594 12.2031 11.6328C9.625 12.1016 7.59375 12.6875 6.10938 13.3906C4.70312 14.0156 4 14.7187 4 15.5C4 16.2031 4.66406 16.9062 5.99219 17.6094C7.32031 18.2344 9.15625 18.7812 11.5 19.25C11.5 21.8281 12.2031 24.3281 13.6094 26.75H6.8125C6.1875 26.75 5.67969 27.0234 5.28906 27.5703C4.89844 28.1172 4.85938 28.7031 5.17188 29.3281L8.10156 36.3594C5.75781 37.7656 3.84375 39.6797 2.35938 42.1016C0.953125 44.5234 0.25 47.1406 0.25 49.9531V55.2266C0.25 56.7109 0.757812 57.9609 1.77344 58.9766C2.78906 59.9922 4.03906 60.5 5.52344 60.5H47.4766C48.9609 60.5 50.2109 59.9922 51.2266 58.9766C52.2422 57.9609 52.75 56.7109 52.75 55.2266V49.9531C52.75 47.2188 52.0469 44.6797 50.6406 42.3359C49.3125 39.9141 47.5156 38 45.25 36.5938ZM20.875 56.75L15.9531 34.25L21.8125 38L24.625 42.6875L20.875 56.75ZM32.125 56.75L28.375 42.6875L31.1875 38L37.0469 34.25L32.125 56.75ZM37.0469 21.7109C36.9688 21.8672 36.8906 22.0625 36.8125 22.2969C36.3438 23.9375 35.7578 25.0703 35.0547 25.6953C34.5859 26.1641 33.9219 26.4766 33.0625 26.6328C31.9688 26.8672 30.9922 26.75 30.1328 26.2812C28.9609 25.5781 28.1016 24.4062 27.5547 22.7656C27.3984 22.2969 27.0469 22.0625 26.5 22.0625C25.9531 22.0625 25.6016 22.2969 25.4453 22.7656C24.8203 24.5625 23.9609 25.7344 22.8672 26.2812C21.9297 26.75 20.9141 26.8672 19.8203 26.6328C19.0391 26.3984 18.4141 26.0859 17.9453 25.6953C17.2422 25.0703 16.6562 23.8984 16.1875 22.1797L15.9531 21.8281C15.9531 21.5938 15.7578 21.3594 15.3672 21.125H15.25V19.8359C18.8438 20.3047 22.6328 20.5391 26.6172 20.5391C30.6016 20.5391 34.3125 20.3047 37.75 19.8359V21.125C37.2812 21.3594 37.0469 21.5547 37.0469 21.7109Z" fill="white"/>
<path d="M45.25 36.5938L48.0625 29.3281C48.2969 28.7031 48.2188 28.1172 47.8281 27.5703C47.4375 27.0234 46.9297 26.75 46.3047 26.75H39.3906C40.7969 24.3281 41.5 21.8281 41.5 19.25C43.8438 18.7812 45.6797 18.2344 47.0078 17.6094C48.3359 16.9062 49 16.2031 49 15.5C49 14.7187 48.2578 14.0156 46.7734 13.3906C45.3672 12.6875 43.375 12.1016 40.7969 11.6328C40.25 9.83594 39.5078 8 38.5703 6.125C37.7109 4.40625 36.8516 3 35.9922 1.90625C35.4453 1.20312 34.7422 0.773437 33.8828 0.617188C33.0234 0.382812 32.2031 0.460938 31.4219 0.851562L28.1406 2.49219C27.0469 3.03906 25.9531 3.03906 24.8594 2.49219L21.5781 0.851562C20.7969 0.460938 19.9766 0.382812 19.1172 0.617188C18.2578 0.773437 17.5547 1.20312 17.0078 1.90625C16.1484 3 15.2891 4.40625 14.4297 6.125C13.4922 8 12.75 9.83594 12.2031 11.6328C9.625 12.1016 7.59375 12.6875 6.10938 13.3906C4.70312 14.0156 4 14.7187 4 15.5C4 16.2031 4.66406 16.9062 5.99219 17.6094C7.32031 18.2344 9.15625 18.7812 11.5 19.25C11.5 21.8281 12.2031 24.3281 13.6094 26.75H6.8125C6.1875 26.75 5.67969 27.0234 5.28906 27.5703C4.89844 28.1172 4.85938 28.7031 5.17188 29.3281L8.10156 36.3594C5.75781 37.7656 3.84375 39.6797 2.35938 42.1016C0.953125 44.5234 0.25 47.1406 0.25 49.9531V55.2266C0.25 56.7109 0.757812 57.9609 1.77344 58.9766C2.78906 59.9922 4.03906 60.5 5.52344 60.5H47.4766C48.9609 60.5 50.2109 59.9922 51.2266 58.9766C52.2422 57.9609 52.75 56.7109 52.75 55.2266V49.9531C52.75 47.2188 52.0469 44.6797 50.6406 42.3359C49.3125 39.9141 47.5156 38 45.25 36.5938ZM20.875 56.75L15.9531 34.25L21.8125 38L24.625 42.6875L20.875 56.75ZM32.125 56.75L28.375 42.6875L31.1875 38L37.0469 34.25L32.125 56.75ZM37.0469 21.7109C36.9688 21.8672 36.8906 22.0625 36.8125 22.2969C36.3438 23.9375 35.7578 25.0703 35.0547 25.6953C34.5859 26.1641 33.9219 26.4766 33.0625 26.6328C31.9688 26.8672 30.9922 26.75 30.1328 26.2812C28.9609 25.5781 28.1016 24.4062 27.5547 22.7656C27.3984 22.2969 27.0469 22.0625 26.5 22.0625C25.9531 22.0625 25.6016 22.2969 25.4453 22.7656C24.8203 24.5625 23.9609 25.7344 22.8672 26.2812C21.9297 26.75 20.9141 26.8672 19.8203 26.6328C19.0391 26.3984 18.4141 26.0859 17.9453 25.6953C17.2422 25.0703 16.6562 23.8984 16.1875 22.1797L15.9531 21.8281C15.9531 21.5938 15.7578 21.3594 15.3672 21.125H15.25V19.8359C18.8438 20.3047 22.6328 20.5391 26.6172 20.5391C30.6016 20.5391 34.3125 20.3047 37.75 19.8359V21.125C37.2812 21.3594 37.0469 21.5547 37.0469 21.7109Z" fill="#DDDDDD"/>
</svg>
