<svg width="20" height="19" viewBox="0 0 20 19" fill="none" xmlns="http://www.w3.org/2000/svg">
<path d="M14.458 9.01787H15.1867C15.5774 9.01787 15.894 8.69809 15.894 8.30385V7.56853C15.894 7.1743 15.5774 6.85474 15.1867 6.85474H14.458C14.0674 6.85474 13.7505 7.1743 13.7505 7.56853V8.30385C13.7507 8.69809 14.0676 9.01787 14.458 9.01787Z" fill="#666666"/>
<path d="M14.458 9.01787H15.1867C15.5774 9.01787 15.894 8.69809 15.894 8.30385V7.56853C15.894 7.1743 15.5774 6.85474 15.1867 6.85474H14.458C14.0674 6.85474 13.7505 7.1743 13.7505 7.56853V8.30385C13.7507 8.69809 14.0676 9.01787 14.458 9.01787Z" fill="#ABA6A6"/>
<path d="M10.0411 9.10869H10.7697C11.1604 9.10869 11.477 8.78891 11.477 8.39468V7.65935C11.477 7.26512 11.1604 6.94556 10.7697 6.94556H10.0411C9.65039 6.94556 9.3335 7.26512 9.3335 7.65935V8.39468C9.33372 8.78891 9.65061 9.10869 10.0411 9.10869Z" fill="#666666"/>
<path d="M10.0411 9.10869H10.7697C11.1604 9.10869 11.477 8.78891 11.477 8.39468V7.65935C11.477 7.26512 11.1604 6.94556 10.7697 6.94556H10.0411C9.65039 6.94556 9.3335 7.26512 9.3335 7.65935V8.39468C9.33372 8.78891 9.65061 9.10869 10.0411 9.10869Z" fill="#ABA6A6"/>
<path d="M4.70756 9.10869H5.43622C5.82689 9.10869 6.14355 8.78891 6.14355 8.39468V7.65935C6.14355 7.26512 5.82689 6.94556 5.43622 6.94556H4.70756C4.31689 6.94556 4 7.26512 4 7.65935V8.39468C4.00022 8.78891 4.31711 9.10869 4.70756 9.10869Z" fill="#666666"/>
<path d="M4.70756 9.10869H5.43622C5.82689 9.10869 6.14355 8.78891 6.14355 8.39468V7.65935C6.14355 7.26512 5.82689 6.94556 5.43622 6.94556H4.70756C4.31689 6.94556 4 7.26512 4 7.65935V8.39468C4.00022 8.78891 4.31711 9.10869 4.70756 9.10869Z" fill="#ABA6A6"/>
<path d="M4.70756 13.1087H5.43622C5.82689 13.1087 6.14355 12.7889 6.14355 12.3947V11.6594C6.14355 11.2651 5.82689 10.9456 5.43622 10.9456H4.70756C4.31689 10.9456 4 11.2651 4 11.6594V12.3947C4.00022 12.7889 4.31711 13.1087 4.70756 13.1087Z" fill="#666666"/>
<path d="M4.70756 13.1087H5.43622C5.82689 13.1087 6.14355 12.7889 6.14355 12.3947V11.6594C6.14355 11.2651 5.82689 10.9456 5.43622 10.9456H4.70756C4.31689 10.9456 4 11.2651 4 11.6594V12.3947C4.00022 12.7889 4.31711 13.1087 4.70756 13.1087Z" fill="#ABA6A6"/>
<path d="M4.70756 17.1087H5.43622C5.82689 17.1087 6.14355 16.7889 6.14355 16.3947V15.6594C6.14355 15.2651 5.82689 14.9456 5.43622 14.9456H4.70756C4.31689 14.9456 4 15.2651 4 15.6594V16.3947C4.00022 16.7889 4.31711 17.1087 4.70756 17.1087Z" fill="#666666"/>
<path d="M4.70756 17.1087H5.43622C5.82689 17.1087 6.14355 16.7889 6.14355 16.3947V15.6594C6.14355 15.2651 5.82689 14.9456 5.43622 14.9456H4.70756C4.31689 14.9456 4 15.2651 4 15.6594V16.3947C4.00022 16.7889 4.31711 17.1087 4.70756 17.1087Z" fill="#ABA6A6"/>
<path d="M10.0411 13.1087H10.7697C11.1604 13.1087 11.477 12.7889 11.477 12.3947V11.6594C11.477 11.2651 11.1604 10.9456 10.7697 10.9456H10.0411C9.65039 10.9456 9.3335 11.2651 9.3335 11.6594V12.3947C9.33372 12.7889 9.65061 13.1087 10.0411 13.1087Z" fill="#666666"/>
<path d="M10.0411 13.1087H10.7697C11.1604 13.1087 11.477 12.7889 11.477 12.3947V11.6594C11.477 11.2651 11.1604 10.9456 10.7697 10.9456H10.0411C9.65039 10.9456 9.3335 11.2651 9.3335 11.6594V12.3947C9.33372 12.7889 9.65061 13.1087 10.0411 13.1087Z" fill="#ABA6A6"/>
<path d="M14.458 12.6953H15.1867C15.5774 12.6953 15.894 12.3756 15.894 11.9813V11.2458C15.894 10.8515 15.5774 10.532 15.1867 10.532H14.458C14.0674 10.532 13.7505 10.8515 13.7505 11.2458V11.9813C13.7507 12.3756 14.0676 12.6953 14.458 12.6953Z" fill="#FE442A"/>
<path d="M14.458 12.6953H15.1867C15.5774 12.6953 15.894 12.3756 15.894 11.9813V11.2458C15.894 10.8515 15.5774 10.532 15.1867 10.532H14.458C14.0674 10.532 13.7505 10.8515 13.7505 11.2458V11.9813C13.7507 12.3756 14.0676 12.6953 14.458 12.6953Z" fill="#FE4029"/>
<path fill-rule="evenodd" clip-rule="evenodd" d="M17.5027 0H2.49733C1.12044 0 0 1.13046 0 2.52015V16.3642C0 17.7538 1.12044 18.8843 2.49733 18.8843H17.5024C18.8796 18.8843 20 17.7538 20 16.3642V2.52015C20 1.13046 18.8796 0 17.5027 0ZM19.2924 16.3642C19.2924 17.3601 18.4898 18.1705 17.5024 18.1705H2.49733C1.51044 18.1705 0.707333 17.3603 0.707333 16.3642V4.49896H19.2924V16.3642ZM0.707556 3.78516H19.2924H19.2927V2.51993C19.2927 1.52357 18.4898 0.713347 17.5027 0.713347H2.49756C1.51044 0.713347 0.707556 1.5238 0.707556 2.51993V3.78516Z" fill="#666666"/>
<path fill-rule="evenodd" clip-rule="evenodd" d="M17.5027 0H2.49733C1.12044 0 0 1.13046 0 2.52015V16.3642C0 17.7538 1.12044 18.8843 2.49733 18.8843H17.5024C18.8796 18.8843 20 17.7538 20 16.3642V2.52015C20 1.13046 18.8796 0 17.5027 0ZM19.2924 16.3642C19.2924 17.3601 18.4898 18.1705 17.5024 18.1705H2.49733C1.51044 18.1705 0.707333 17.3603 0.707333 16.3642V4.49896H19.2924V16.3642ZM0.707556 3.78516H19.2924H19.2927V2.51993C19.2927 1.52357 18.4898 0.713347 17.5027 0.713347H2.49756C1.51044 0.713347 0.707556 1.5238 0.707556 2.51993V3.78516Z" fill="#ABA6A6"/>
</svg>
