<svg width="35" height="35" viewBox="0 0 35 35" fill="none" xmlns="http://www.w3.org/2000/svg">
<rect width="35" height="35" rx="10" fill="url(#paint0_linear)"/>
<path fill-rule="evenodd" clip-rule="evenodd" d="M23.7624 13.981C23.9941 13.981 24.2699 14.1271 24.4334 14.3363L26.9006 17.4811C27.0636 17.6893 27.1783 18.0409 27.1783 18.3364V19.0074C27.1783 19.6062 26.7964 20.0933 26.3266 20.0933H23.4788C23.0098 20.0933 22.6274 19.6065 22.6274 19.0081V15.0665C22.6274 14.4678 23.0093 13.981 23.4779 13.981H23.7624ZM26.3266 19.1013C26.366 19.1013 26.4 19.0579 26.4 19.0081V18.3364C26.3982 18.2987 26.3701 18.2111 26.3494 18.1818L23.8824 15.0366C23.8602 15.0114 23.7915 14.9749 23.7607 14.9727L23.4788 14.9733C23.439 14.9733 23.4055 15.0157 23.4055 15.0669V19.0081C23.4055 19.0579 23.4397 19.1013 23.4788 19.1013H26.3266Z" fill="white"/>
<path fill-rule="evenodd" clip-rule="evenodd" d="M25.2747 12.3391C24.9625 11.9417 24.3947 11.6416 23.953 11.6416H21.5845V9.90175C21.5845 8.30189 20.564 7 19.309 7H9.27578C8.02056 7 7 8.30189 7 9.90175V24.3874C7 25.4895 7.70327 26.3869 8.56811 26.3869H10.1418C10.3293 27.8652 11.3347 29 12.5464 29C13.7582 29 14.7633 27.8652 14.9508 26.3869H22.027C22.2142 27.8652 23.2194 29 24.4311 29C25.6428 29 26.6487 27.8652 26.8357 26.3869H27.4319C28.2962 26.3869 29 25.4895 29 24.3874V18.0762C29 17.5136 28.7641 16.789 28.4524 16.3909L25.2747 12.3391ZM7.77782 9.90175C7.77782 8.84858 8.4498 7.9927 9.27578 7.9927H19.309C20.1347 7.9927 20.8062 8.84858 20.8062 9.90175V20.6906C20.8062 20.7803 20.7468 20.8561 20.6767 20.8561H7.77782V9.90175ZM10.8859 25.8904C10.8859 27.0576 11.6308 28.007 12.5462 28.007C13.4619 28.007 14.2065 27.0579 14.2065 25.8904C14.2065 24.7228 13.4616 23.7737 12.5462 23.7737C11.6308 23.7737 10.8859 24.7228 10.8859 25.8904ZM24.4311 28.007C23.5159 28.007 22.7713 27.0576 22.7713 25.8904C22.7713 24.7228 23.5159 23.7737 24.4311 23.7737C25.3465 23.7737 26.0914 24.7228 26.0914 25.8904C26.0914 27.0579 25.3465 28.007 24.4311 28.007ZM27.4319 25.3939C27.8675 25.3939 28.2217 24.9422 28.2217 24.3871V18.0762C28.2217 17.7801 28.0665 17.3023 27.902 17.0925L24.7242 13.0407C24.5602 12.8315 24.1854 12.6339 23.9527 12.6339H21.5843V20.6903C21.5843 21.3286 21.1773 21.8482 20.6764 21.8482H7.77758V24.3871C7.77758 24.9422 8.13227 25.3939 8.56787 25.3939H10.1416C10.3291 23.9152 11.3345 22.7813 12.5462 22.7813C13.7579 22.7813 14.7631 23.9152 14.9506 25.3939H22.027C22.2142 23.9152 23.2194 22.7813 24.4311 22.7813C25.6428 22.7813 26.6482 23.9152 26.8357 25.3939H27.4319Z" fill="white"/>
<defs>
<linearGradient id="paint0_linear" x1="0" y1="0" x2="0" y2="35" gradientUnits="userSpaceOnUse">
<stop stop-color="#8776CC"/>
<stop offset="1" stop-color="#A994FF"/>
</linearGradient>
</defs>
</svg>