<svg width="35" height="35" viewBox="0 0 35 35" fill="none" xmlns="http://www.w3.org/2000/svg">
<rect width="35" height="35" rx="10" fill="url(#paint0_linear)"/>
<path fill-rule="evenodd" clip-rule="evenodd" d="M20.9123 13.4758H26.9237C27.5168 13.4758 27.9998 13.9958 28 14.6352V17.5354C28 18.1746 27.5168 18.6946 26.9237 18.6946H26.5219V28.8406C26.5219 29.4797 26.039 30 25.4456 30H10.5541C9.96079 30 9.47808 29.4795 9.47808 28.8406V18.6949H9.07657C8.48271 18.6949 8 18.1746 8 17.5357V14.6352C8 13.9958 8.48296 13.4758 9.07657 13.4758H15.0993C13.7626 13.051 12.3196 12.3494 11.6879 11.2163C11.3468 10.6036 11.2651 9.92437 11.4456 9.198C11.8332 7.64229 13.3227 6.71644 14.7651 7.1327C16.1907 7.54495 17.1484 9.56011 17.724 11.3099C17.8141 11.3009 17.9062 11.2961 18 11.2961C18.0298 11.2961 18.0588 11.2978 18.0878 11.2996C18.104 11.3006 18.1203 11.3015 18.1366 11.3022C18.807 9.13907 19.9402 6.6103 21.6592 6.11378C23.3073 5.63832 25.0082 6.6967 25.4508 8.47267C25.6582 9.30733 25.5629 10.086 25.1674 10.7876C24.3906 12.1651 22.5652 12.991 20.9123 13.4758ZM19.5744 13.3499C19.3979 12.5859 18.8372 12.1451 18 12.1451C17.1628 12.1451 16.6021 12.5859 16.4256 13.3499C16.4095 13.4193 16.4539 13.4761 16.5197 13.4761H19.4803C19.5461 13.4761 19.5905 13.4193 19.5744 13.3499ZM15.5775 29.151H10.5541C10.3952 29.151 10.266 29.0118 10.266 28.8403V18.6946H15.5775V29.151ZM15.5775 17.8464V14.3304V14.3246H9.07657C8.91764 14.3246 8.78818 14.4638 8.78818 14.6352V17.5357C8.78818 17.7069 8.91764 17.8464 9.07657 17.8464H15.5775ZM15.7704 12.795C14.0252 12.3115 12.8219 11.6017 12.3637 10.7793C12.1325 10.3657 12.0812 9.91984 12.2062 9.41744C12.481 8.31427 13.5385 7.65749 14.5609 7.95268C15.426 8.20254 16.2694 9.46037 16.9541 11.5113C16.4071 11.7566 15.9949 12.203 15.7704 12.795ZM16.3655 29.151H19.6343V18.6946H16.3655V29.151ZM19.6343 17.8464H16.3655V14.3304H19.6343V17.8464ZM21.8629 6.93403C20.7809 7.24656 19.742 8.84893 18.9194 11.4593C19.5276 11.6894 19.985 12.1553 20.2271 12.7891C22.4127 12.2214 23.9217 11.3606 24.4938 10.3468C24.7772 9.84384 24.8414 9.30307 24.6896 8.69293C24.3599 7.36922 23.0935 6.57964 21.8629 6.93403ZM25.7338 28.8403C25.7338 29.0118 25.6048 29.151 25.4456 29.151H20.4225V18.6946H25.7338V28.8403ZM26.9237 17.8464C27.0823 17.8464 27.2116 17.7069 27.2116 17.5357V14.6352C27.2116 14.4638 27.0823 14.3246 26.9237 14.3246H20.4225V14.3304V17.8464H26.9237Z" fill="white"/>
<defs>
<linearGradient id="paint0_linear" x1="1.11144" y1="36.5431" x2="37.7228" y2="36.5431" gradientUnits="userSpaceOnUse">
<stop offset="0.0001" stop-color="#43A047"/>
<stop offset="1" stop-color="#C3DEA5"/>
</linearGradient>
</defs>
</svg>