<svg width="35" height="35" viewBox="0 0 35 35" fill="none" xmlns="http://www.w3.org/2000/svg">
<rect width="35" height="35" rx="10" fill="url(#paint0_linear)"/>
<path fill-rule="evenodd" clip-rule="evenodd" d="M11.3188 12.7218C11.3188 9.56717 13.611 6.99994 16.429 6.99994C19.247 6.99994 21.5391 9.5669 21.5391 12.7218C21.5391 15.8766 19.247 18.4436 16.429 18.4436C13.611 18.4436 11.3188 15.8766 11.3188 12.7218ZM12.1109 12.7218C12.1109 15.3875 14.0481 17.5565 16.429 17.5565C18.8096 17.5565 20.7469 15.3875 20.7469 12.7218C20.7469 10.056 18.8096 7.88725 16.429 7.88725C14.0481 7.88725 12.1109 10.056 12.1109 12.7218Z" fill="white"/>
<path fill-rule="evenodd" clip-rule="evenodd" d="M7 26.4565C7 24.7968 8.69401 20.4886 16.4293 20.4886C24.1645 20.4886 25.858 24.7968 25.8583 26.4565C25.8583 28.048 24.6859 28.9999 23.5526 28.9999H9.30561C8.17212 28.9999 7 28.048 7 26.4565ZM9.30561 28.1126H23.5526C24.2862 28.1126 25.0658 27.5324 25.066 26.4565C25.066 25.1384 23.4793 21.3757 16.4293 21.3757C9.37895 21.3757 7.79225 25.1384 7.79225 26.4565C7.79225 27.5324 8.57179 28.1126 9.30561 28.1126Z" fill="white"/>
<path d="M28.604 15.2107H26.2534V12.5792C26.2534 12.3339 26.0762 12.1355 25.8572 12.1355C25.6382 12.1355 25.4612 12.3339 25.4612 12.5792V15.2107H23.1108C22.8918 15.2107 22.7148 15.4091 22.7148 15.6541C22.7148 15.899 22.8921 16.0977 23.1108 16.0977H25.4612V18.729C25.4612 18.9743 25.6384 19.1727 25.8572 19.1727C26.0762 19.1727 26.2534 18.974 26.2534 18.729V16.0977H28.604C28.8231 16.0977 29 15.899 29 15.6541C29 15.4091 28.8228 15.2107 28.604 15.2107Z" fill="white"/>
<defs>
<linearGradient id="paint0_linear" x1="0" y1="0" x2="0" y2="35" gradientUnits="userSpaceOnUse">
<stop stop-color="#FB8049"/>
<stop offset="1" stop-color="#F5A623"/>
</linearGradient>
</defs>
</svg>