<svg width="15" height="15" viewBox="0 0 15 15" fill="none" xmlns="http://www.w3.org/2000/svg">
<path d="M7.5 0C3.36433 0 0 3.36433 0 7.5C0 11.6357 3.36433 15 7.5 15C11.6357 15 15 11.6357 15 7.5C15 3.36433 11.6357 0 7.5 0Z" fill="#1AAAFF"/>
<path d="M11.3013 5.91055L7.23873 9.97298C7.11685 10.0949 6.95686 10.1562 6.79688 10.1562C6.63689 10.1562 6.4769 10.0949 6.35502 9.97298L4.32381 7.94176C4.07936 7.69743 4.07936 7.30238 4.32381 7.05805C4.56814 6.81361 4.96307 6.81361 5.20752 7.05805L6.79688 8.64741L10.4176 5.02684C10.6619 4.78239 11.0568 4.78239 11.3013 5.02684C11.5456 5.27117 11.5456 5.66611 11.3013 5.91055Z" fill="#FAFAFA"/>
</svg>
