<svg width="11" height="11" viewBox="0 0 11 11" fill="none" xmlns="http://www.w3.org/2000/svg">
<path fill-rule="evenodd" clip-rule="evenodd" d="M0 5.5C0 2.46742 2.46742 0 5.5 0C8.5327 0 11 2.46742 11 5.5C11 8.53258 8.53258 11 5.5 11C2.46742 11 0 8.5327 0 5.5ZM0.389156 5.5C0.389156 8.31808 2.6818 10.6108 5.5 10.6108C8.3182 10.6108 10.6108 8.3182 10.6108 5.5C10.6108 2.6818 8.3182 0.389156 5.5 0.389156C2.6818 0.389156 0.389156 2.68192 0.389156 5.5Z" fill="#1AAAFF"/>
<path d="M5.72171 5.44634C5.71071 5.43412 5.69567 5.3977 5.69482 5.38218V1.96301C5.69482 1.85558 5.60768 1.76855 5.50024 1.76855C5.39281 1.76855 5.30566 1.85558 5.30566 1.96301V5.38205C5.30566 5.49902 5.36348 5.63848 5.44598 5.72098L7.42573 7.70061C7.46386 7.73862 7.51373 7.75781 7.56335 7.75781C7.61298 7.75781 7.66284 7.73862 7.70097 7.70061C7.77688 7.62459 7.77688 7.50139 7.70097 7.42537L5.72171 5.44634Z" fill="#1AAAFF"/>
</svg>
