<svg width="9" height="9" viewBox="0 0 9 9" fill="none" xmlns="http://www.w3.org/2000/svg">
<path d="M6.07031 4.5L8.41406 2.15625C8.55469 2.01562 8.625 1.84375 8.625 1.64062C8.625 1.4375 8.55469 1.25781 8.41406 1.10156L7.89844 0.585938C7.74219 0.445312 7.5625 0.375 7.35938 0.375C7.15625 0.375 6.98438 0.445312 6.84375 0.585938L4.5 2.92969L2.15625 0.585938C2.01562 0.445312 1.84375 0.375 1.64062 0.375C1.4375 0.375 1.25781 0.445312 1.10156 0.585938L0.585938 1.10156C0.445312 1.25781 0.375 1.4375 0.375 1.64062C0.375 1.84375 0.445312 2.01562 0.585938 2.15625L2.92969 4.5L0.585938 6.84375C0.445312 6.98438 0.375 7.15625 0.375 7.35938C0.375 7.5625 0.445312 7.74219 0.585938 7.89844L1.10156 8.41406C1.25781 8.55469 1.4375 8.625 1.64062 8.625C1.84375 8.625 2.01562 8.55469 2.15625 8.41406L4.5 6.07031L6.84375 8.41406C6.98438 8.55469 7.15625 8.625 7.35938 8.625C7.5625 8.625 7.74219 8.55469 7.89844 8.41406L8.41406 7.89844C8.55469 7.74219 8.625 7.5625 8.625 7.35938C8.625 7.15625 8.55469 6.98438 8.41406 6.84375L6.07031 4.5Z" fill="#8776CC"/>
<path d="M6.07031 4.5L8.41406 2.15625C8.55469 2.01562 8.625 1.84375 8.625 1.64062C8.625 1.4375 8.55469 1.25781 8.41406 1.10156L7.89844 0.585938C7.74219 0.445312 7.5625 0.375 7.35938 0.375C7.15625 0.375 6.98438 0.445312 6.84375 0.585938L4.5 2.92969L2.15625 0.585938C2.01562 0.445312 1.84375 0.375 1.64062 0.375C1.4375 0.375 1.25781 0.445312 1.10156 0.585938L0.585938 1.10156C0.445312 1.25781 0.375 1.4375 0.375 1.64062C0.375 1.84375 0.445312 2.01562 0.585938 2.15625L2.92969 4.5L0.585938 6.84375C0.445312 6.98438 0.375 7.15625 0.375 7.35938C0.375 7.5625 0.445312 7.74219 0.585938 7.89844L1.10156 8.41406C1.25781 8.55469 1.4375 8.625 1.64062 8.625C1.84375 8.625 2.01562 8.55469 2.15625 8.41406L4.5 6.07031L6.84375 8.41406C6.98438 8.55469 7.15625 8.625 7.35938 8.625C7.5625 8.625 7.74219 8.55469 7.89844 8.41406L8.41406 7.89844C8.55469 7.74219 8.625 7.5625 8.625 7.35938C8.625 7.15625 8.55469 6.98438 8.41406 6.84375L6.07031 4.5Z" fill="#333333"/>
</svg>
