<svg width="14" height="11" viewBox="0 0 14 11" fill="none" xmlns="http://www.w3.org/2000/svg">
<path d="M13.75 5.125C13.75 4.23438 13.4453 3.4375 12.8359 2.6875C12.2266 1.9375 11.4062 1.35156 10.375 0.90625C9.34375 0.484375 8.21875 0.25 7 0.25C5.78125 0.25 4.65625 0.484375 3.625 0.90625C2.59375 1.35156 1.77344 1.9375 1.16406 2.6875C0.554688 3.4375 0.25 4.23438 0.25 5.125C0.25 5.6875 0.367188 6.20312 0.601562 6.69531C0.835938 7.21094 1.1875 7.65625 1.63281 8.07812C1.53906 8.64062 1.375 9.10938 1.1875 9.46094C1.04688 9.67188 0.859375 9.90625 0.578125 10.1406L0.390625 10.3047C0.273438 10.4219 0.226562 10.5156 0.25 10.5625C0.25 10.6328 0.296875 10.6797 0.34375 10.7031C0.390625 10.75 0.460938 10.75 0.53125 10.75C1.79688 10.6328 2.89844 10.1875 3.85938 9.4375C4.84375 9.8125 5.875 10 7 10C8.21875 10 9.34375 9.78906 10.375 9.34375C11.4062 8.92188 12.2266 8.33594 12.8359 7.58594C13.4453 6.83594 13.75 6.01562 13.75 5.125Z" fill="#CCCCCC"/>
</svg>
