<svg width="35" height="35" viewBox="0 0 35 35" fill="none" xmlns="http://www.w3.org/2000/svg">
<rect width="35" height="35" rx="10" fill="url(#paint0_linear)"/>
<path fill-rule="evenodd" clip-rule="evenodd" d="M29.3778 11.3908C29.332 13.5549 27.5336 15.2784 25.3693 15.2326C23.9465 15.2025 22.718 14.4126 22.0536 13.2614L14.7637 16.5369C14.9786 17.0358 15.0958 17.586 15.0835 18.1637C15.0713 18.7415 14.9307 19.2859 14.6951 19.7756L21.8396 23.3559C22.5521 22.2343 23.8132 21.497 25.2361 21.5271C27.4006 21.5729 29.1242 23.371 29.0784 25.5353C29.0325 27.6996 27.2344 29.4234 25.0699 29.3776C22.9058 29.3318 21.1822 27.5334 21.2281 25.3694C21.2379 24.905 21.3326 24.4628 21.4902 24.0517L14.2879 20.442C13.5534 21.413 12.3828 22.0337 11.075 22.006C8.91097 21.9602 7.18719 20.1614 7.233 17.9975C7.27882 15.833 9.07717 14.1094 11.2412 14.1552C12.549 14.1829 13.6923 14.8526 14.385 15.8538L21.7336 12.5522C21.5933 12.135 21.5174 11.6892 21.5273 11.2248C21.5731 9.06003 23.3714 7.33673 25.5355 7.38254C27.7001 7.42837 29.4236 9.22623 29.3778 11.3908ZM28.5997 11.3746C28.6364 9.6389 27.2547 8.19718 25.519 8.16043C23.7839 8.1237 22.3424 9.50565 22.3054 11.2413C22.2687 12.9767 23.6504 14.4182 25.3858 14.4549C27.1214 14.4917 28.5629 13.11 28.5997 11.3746ZM11.0915 21.2279C9.3561 21.1911 7.97439 19.7497 8.01114 18.014C8.04788 16.2784 9.48961 14.8964 11.2248 14.9331C12.9602 14.9699 14.3421 16.4116 14.3054 18.1473C14.2686 19.8829 12.8269 21.2646 11.0915 21.2279ZM28.3002 25.5191C28.3369 23.7837 26.9552 22.3422 25.2196 22.3055C23.4844 22.2687 22.0429 23.6504 22.006 25.3858C21.9692 27.1215 23.3509 28.563 25.0863 28.5997C26.822 28.6365 28.2635 27.2548 28.3002 25.5191Z" fill="white"/>
<defs>
<linearGradient id="paint0_linear" x1="0" y1="0" x2="0" y2="35" gradientUnits="userSpaceOnUse">
<stop stop-color="#1AAAFF"/>
</linearGradient>
</defs>
</svg>