<svg width="20" height="20" viewBox="0 0 20 20" fill="none" xmlns="http://www.w3.org/2000/svg">
<path d="M14.7928 1.55173C14.6324 0.765873 13.9362 0.172424 13.1034 0.172424C12.9128 0.172424 12.7586 0.326562 12.7586 0.517252C12.7586 0.707942 12.9128 0.86208 13.1034 0.86208C13.6738 0.86208 14.1379 1.32622 14.1379 1.89656C14.1379 2.46691 13.6738 2.93105 13.1034 2.93105C12.9128 2.93105 12.7586 3.08518 12.7586 3.27587C12.7586 3.46656 12.9128 3.6207 13.1034 3.6207C13.9359 3.6207 14.6324 3.02725 14.7928 2.24139H19.3103V5.34484H0.689655V2.24139H5.51724H6.55172C6.74241 2.24139 6.89655 2.08725 6.89655 1.89656C6.89655 1.70587 6.74241 1.55173 6.55172 1.55173H5.92552C6.06828 1.15105 6.44759 0.86208 6.89655 0.86208C7.4669 0.86208 7.93103 1.32622 7.93103 1.89656C7.93103 2.46691 7.4669 2.93105 6.89655 2.93105C6.70586 2.93105 6.55172 3.08518 6.55172 3.27587C6.55172 3.46656 6.70586 3.6207 6.89655 3.6207C7.84724 3.6207 8.62069 2.84725 8.62069 1.89656C8.62069 0.945873 7.84724 0.172424 6.89655 0.172424C6.06414 0.172424 5.36759 0.765873 5.20724 1.55173H0V6.03449V19.8276H20V6.03449V1.55173H14.7928ZM19.3103 19.1379H0.689655V6.03449H19.3103V19.1379Z" fill="#1AAAFF"/>
<path d="M8.96549 0.862079C9.53584 0.862079 9.99998 1.32622 9.99998 1.89656C9.99998 2.46691 9.53584 2.93104 8.96549 2.93104C8.7748 2.93104 8.62067 3.08518 8.62067 3.27587C8.62067 3.46656 8.7748 3.6207 8.96549 3.6207C9.91618 3.6207 10.6896 2.84725 10.6896 1.89656C10.6896 0.945873 9.91618 0.172424 8.96549 0.172424C8.7748 0.172424 8.62067 0.326562 8.62067 0.517252C8.62067 0.707942 8.7748 0.862079 8.96549 0.862079Z" fill="#1AAAFF"/>
<path d="M11.0345 0.862079C11.6048 0.862079 12.0689 1.32622 12.0689 1.89656C12.0689 2.46691 11.6048 2.93104 11.0345 2.93104C10.8438 2.93104 10.6896 3.08518 10.6896 3.27587C10.6896 3.46656 10.8438 3.6207 11.0345 3.6207C11.9852 3.6207 12.7586 2.84725 12.7586 1.89656C12.7586 0.945873 11.9852 0.172424 11.0345 0.172424C10.8438 0.172424 10.6896 0.326562 10.6896 0.517252C10.6896 0.707942 10.8438 0.862079 11.0345 0.862079Z" fill="#1AAAFF"/>
<path d="M7.58622 8.79314C7.77667 8.79314 7.93105 8.63876 7.93105 8.44831C7.93105 8.25787 7.77667 8.10349 7.58622 8.10349C7.39578 8.10349 7.24139 8.25787 7.24139 8.44831C7.24139 8.63876 7.39578 8.79314 7.58622 8.79314Z" fill="#1AAAFF"/>
<path d="M9.99998 8.79314C10.1904 8.79314 10.3448 8.63876 10.3448 8.44831C10.3448 8.25787 10.1904 8.10349 9.99998 8.10349C9.80954 8.10349 9.65515 8.25787 9.65515 8.44831C9.65515 8.63876 9.80954 8.79314 9.99998 8.79314Z" fill="#1AAAFF"/>
<path d="M12.4138 8.79314C12.6042 8.79314 12.7586 8.63876 12.7586 8.44831C12.7586 8.25787 12.6042 8.10349 12.4138 8.10349C12.2234 8.10349 12.069 8.25787 12.069 8.44831C12.069 8.63876 12.2234 8.79314 12.4138 8.79314Z" fill="#1AAAFF"/>
<path d="M14.8276 8.79314C15.0181 8.79314 15.1724 8.63876 15.1724 8.44831C15.1724 8.25787 15.0181 8.10349 14.8276 8.10349C14.6372 8.10349 14.4828 8.25787 14.4828 8.44831C14.4828 8.63876 14.6372 8.79314 14.8276 8.79314Z" fill="#1AAAFF"/>
<path d="M17.2414 8.79314C17.4318 8.79314 17.5862 8.63876 17.5862 8.44831C17.5862 8.25787 17.4318 8.10349 17.2414 8.10349C17.0509 8.10349 16.8965 8.25787 16.8965 8.44831C16.8965 8.63876 17.0509 8.79314 17.2414 8.79314Z" fill="#1AAAFF"/>
<path d="M2.75865 11.5517C2.94909 11.5517 3.10347 11.3974 3.10347 11.2069C3.10347 11.0165 2.94909 10.8621 2.75865 10.8621C2.5682 10.8621 2.41382 11.0165 2.41382 11.2069C2.41382 11.3974 2.5682 11.5517 2.75865 11.5517Z" fill="#1AAAFF"/>
<path d="M5.1724 11.5517C5.36285 11.5517 5.51723 11.3974 5.51723 11.2069C5.51723 11.0165 5.36285 10.8621 5.1724 10.8621C4.98196 10.8621 4.82758 11.0165 4.82758 11.2069C4.82758 11.3974 4.98196 11.5517 5.1724 11.5517Z" fill="#1AAAFF"/>
<path d="M7.58622 11.5517C7.77667 11.5517 7.93105 11.3974 7.93105 11.2069C7.93105 11.0165 7.77667 10.8621 7.58622 10.8621C7.39578 10.8621 7.24139 11.0165 7.24139 11.2069C7.24139 11.3974 7.39578 11.5517 7.58622 11.5517Z" fill="#1AAAFF"/>
<path d="M9.99998 11.5517C10.1904 11.5517 10.3448 11.3974 10.3448 11.2069C10.3448 11.0165 10.1904 10.8621 9.99998 10.8621C9.80954 10.8621 9.65515 11.0165 9.65515 11.2069C9.65515 11.3974 9.80954 11.5517 9.99998 11.5517Z" fill="#1AAAFF"/>
<path d="M12.4138 11.5517C12.6042 11.5517 12.7586 11.3974 12.7586 11.2069C12.7586 11.0165 12.6042 10.8621 12.4138 10.8621C12.2234 10.8621 12.069 11.0165 12.069 11.2069C12.069 11.3974 12.2234 11.5517 12.4138 11.5517Z" fill="#1AAAFF"/>
<path d="M14.8276 11.5517C15.0181 11.5517 15.1724 11.3974 15.1724 11.2069C15.1724 11.0165 15.0181 10.8621 14.8276 10.8621C14.6372 10.8621 14.4828 11.0165 14.4828 11.2069C14.4828 11.3974 14.6372 11.5517 14.8276 11.5517Z" fill="#1AAAFF"/>
<path d="M17.2414 11.5517C17.4318 11.5517 17.5862 11.3974 17.5862 11.2069C17.5862 11.0165 17.4318 10.8621 17.2414 10.8621C17.0509 10.8621 16.8965 11.0165 16.8965 11.2069C16.8965 11.3974 17.0509 11.5517 17.2414 11.5517Z" fill="#1AAAFF"/>
<path d="M2.75865 13.9655C2.94909 13.9655 3.10347 13.8112 3.10347 13.6207C3.10347 13.4303 2.94909 13.2759 2.75865 13.2759C2.5682 13.2759 2.41382 13.4303 2.41382 13.6207C2.41382 13.8112 2.5682 13.9655 2.75865 13.9655Z" fill="#1AAAFF"/>
<path d="M5.1724 13.9655C5.36285 13.9655 5.51723 13.8112 5.51723 13.6207C5.51723 13.4303 5.36285 13.2759 5.1724 13.2759C4.98196 13.2759 4.82758 13.4303 4.82758 13.6207C4.82758 13.8112 4.98196 13.9655 5.1724 13.9655Z" fill="#1AAAFF"/>
<path d="M7.58622 13.9655C7.77667 13.9655 7.93105 13.8112 7.93105 13.6207C7.93105 13.4303 7.77667 13.2759 7.58622 13.2759C7.39578 13.2759 7.24139 13.4303 7.24139 13.6207C7.24139 13.8112 7.39578 13.9655 7.58622 13.9655Z" fill="#1AAAFF"/>
<path d="M9.99998 13.9655C10.1904 13.9655 10.3448 13.8112 10.3448 13.6207C10.3448 13.4303 10.1904 13.2759 9.99998 13.2759C9.80954 13.2759 9.65515 13.4303 9.65515 13.6207C9.65515 13.8112 9.80954 13.9655 9.99998 13.9655Z" fill="#1AAAFF"/>
<path d="M12.4138 13.9655C12.6042 13.9655 12.7586 13.8112 12.7586 13.6207C12.7586 13.4303 12.6042 13.2759 12.4138 13.2759C12.2234 13.2759 12.069 13.4303 12.069 13.6207C12.069 13.8112 12.2234 13.9655 12.4138 13.9655Z" fill="#1AAAFF"/>
<path d="M14.8276 13.9655C15.0181 13.9655 15.1724 13.8112 15.1724 13.6207C15.1724 13.4303 15.0181 13.2759 14.8276 13.2759C14.6372 13.2759 14.4828 13.4303 14.4828 13.6207C14.4828 13.8112 14.6372 13.9655 14.8276 13.9655Z" fill="#1AAAFF"/>
<path d="M17.2414 13.9655C17.4318 13.9655 17.5862 13.8112 17.5862 13.6207C17.5862 13.4303 17.4318 13.2759 17.2414 13.2759C17.0509 13.2759 16.8965 13.4303 16.8965 13.6207C16.8965 13.8112 17.0509 13.9655 17.2414 13.9655Z" fill="#1AAAFF"/>
<path d="M2.75865 16.7241C2.94909 16.7241 3.10347 16.5698 3.10347 16.3793C3.10347 16.1889 2.94909 16.0345 2.75865 16.0345C2.5682 16.0345 2.41382 16.1889 2.41382 16.3793C2.41382 16.5698 2.5682 16.7241 2.75865 16.7241Z" fill="#1AAAFF"/>
<path d="M5.1724 16.7241C5.36285 16.7241 5.51723 16.5698 5.51723 16.3793C5.51723 16.1889 5.36285 16.0345 5.1724 16.0345C4.98196 16.0345 4.82758 16.1889 4.82758 16.3793C4.82758 16.5698 4.98196 16.7241 5.1724 16.7241Z" fill="#1AAAFF"/>
<path d="M7.58622 16.7241C7.77667 16.7241 7.93105 16.5698 7.93105 16.3793C7.93105 16.1889 7.77667 16.0345 7.58622 16.0345C7.39578 16.0345 7.24139 16.1889 7.24139 16.3793C7.24139 16.5698 7.39578 16.7241 7.58622 16.7241Z" fill="#1AAAFF"/>
<path d="M9.99998 16.7241C10.1904 16.7241 10.3448 16.5698 10.3448 16.3793C10.3448 16.1889 10.1904 16.0345 9.99998 16.0345C9.80954 16.0345 9.65515 16.1889 9.65515 16.3793C9.65515 16.5698 9.80954 16.7241 9.99998 16.7241Z" fill="#1AAAFF"/>
<path d="M12.4138 16.7241C12.6042 16.7241 12.7586 16.5698 12.7586 16.3793C12.7586 16.1889 12.6042 16.0345 12.4138 16.0345C12.2234 16.0345 12.069 16.1889 12.069 16.3793C12.069 16.5698 12.2234 16.7241 12.4138 16.7241Z" fill="#1AAAFF"/>
</svg>
