<svg width="24" height="27" viewBox="0 0 24 27" fill="none" xmlns="http://www.w3.org/2000/svg">
<path d="M5.14851 26.1676L4.44281 25.0493C4.293 24.8118 4.00036 24.7559 3.78924 24.9245C3.57816 25.0931 3.52847 25.4223 3.67838 25.6598L4.38408 26.7781C4.47548 26.923 4.61995 27.0002 4.76672 27.0002C4.86056 27.0002 4.9553 26.9686 5.03765 26.9028C5.24873 26.7343 5.29842 26.4051 5.14851 26.1676Z" fill="#1AAAFF"/>
<path d="M10.5574 26.3639L9.78942 22.246C9.41597 20.2436 8.3791 18.5121 6.86992 17.3705L5.23019 16.1301C4.57268 15.6328 3.6889 15.7397 3.13934 16.3702V10.0159C3.13934 9.18186 2.63389 8.47322 1.91014 8.2925C1.44303 8.17575 0.961254 8.3022 0.588084 8.63902C0.21496 8.97583 0.000976562 9.4777 0.000976562 10.0159V18.1924C0.000976562 19.2636 0.29235 20.2916 0.843551 21.1651L1.67947 22.4899C1.77088 22.6347 1.91534 22.712 2.06211 22.712C2.15595 22.712 2.25069 22.6803 2.33305 22.6146C2.54412 22.446 2.59381 22.1168 2.4439 21.8793L1.60799 20.5546C1.16999 19.8604 0.938473 19.0436 0.938473 18.1924V10.0159C0.938473 9.79927 1.02463 9.59725 1.17482 9.46162C1.32496 9.32604 1.51888 9.27515 1.70703 9.32214C1.99836 9.39486 2.20184 9.68015 2.20184 10.0159V16.5031C2.20184 17.4214 2.50175 18.2963 3.04657 18.977C3.06992 19.0085 3.09392 19.0396 3.11928 19.0698C3.43057 19.4409 3.79657 19.8782 4.14129 20.2904L4.62386 20.8682C4.62541 20.87 4.6271 20.8716 4.62869 20.8734C5.04152 21.3674 5.34597 21.7321 5.35235 21.7397C5.52949 21.952 5.8262 21.9625 6.01492 21.7631C6.20364 21.5637 6.21297 21.23 6.03569 21.0177C6.02716 21.0075 5.47844 20.3502 4.85182 19.6009L3.77702 18.314C3.77431 18.3107 3.77182 18.3073 3.7691 18.304C3.5171 17.9649 3.52024 17.4733 3.78438 17.1378C4.01805 16.8411 4.4148 16.7842 4.70716 17.0053L6.3468 18.2457C7.65216 19.2332 8.54893 20.7307 8.87189 22.4626L9.63994 26.5806C9.6863 26.8291 9.88116 26.9997 10.0982 26.9997C10.1301 26.9997 10.1625 26.996 10.1949 26.9883C10.4483 26.9285 10.6106 26.6489 10.5574 26.3639Z" fill="#1AAAFF"/>
<path d="M3.47298 23.512L3.46998 23.5072C3.31951 23.2701 3.02683 23.2151 2.81613 23.3843C2.60542 23.5534 2.55649 23.8827 2.70681 24.1198L2.70981 24.1245C2.80131 24.2688 2.94545 24.3456 3.0918 24.3456C3.18601 24.3456 3.28112 24.3138 3.36367 24.2475C3.57432 24.0783 3.62331 23.749 3.47298 23.512Z" fill="#1AAAFF"/>
<path d="M23.4128 8.63893C23.0396 8.30212 22.5576 8.17587 22.0908 8.29241C21.367 8.47308 20.8615 9.18177 20.8615 10.0158V16.3701C20.312 15.7396 19.4281 15.6327 18.7707 16.13L17.1309 17.3703C15.6217 18.5119 14.5849 20.2435 14.2114 22.2459L13.4434 26.3638C13.3903 26.6489 13.5526 26.9284 13.8059 26.9882C13.8384 26.9959 13.8708 26.9995 13.9026 26.9995C14.1197 26.9995 14.3146 26.8289 14.3609 26.5804L15.1289 22.4624C15.4519 20.7306 16.3486 19.233 17.654 18.2456L19.2937 17.0052C19.586 16.784 19.9827 16.841 20.2165 17.1377C20.4803 17.4727 20.4838 17.9636 20.2328 18.3027C20.2298 18.3064 20.2269 18.3102 20.2239 18.3139C20.2239 18.3139 17.9737 21.0075 17.9652 21.0176C17.788 21.2299 17.7973 21.5636 17.986 21.763C18.1747 21.9624 18.4713 21.9519 18.6486 21.7396C18.6549 21.732 20.5703 19.4408 20.8816 19.0697C20.907 19.0395 20.931 19.0084 20.9543 18.9769C21.4991 18.2962 21.7991 17.4213 21.7991 16.503V10.0158C21.7991 9.68001 22.0025 9.39472 22.2939 9.322C22.482 9.27506 22.6759 9.32595 22.8261 9.46148C22.9763 9.59706 23.0625 9.79908 23.0625 10.0158V18.1923C23.0625 19.0435 22.831 19.8603 22.393 20.5545L18.8515 26.1668C18.7017 26.4043 18.7513 26.7335 18.9624 26.9021C19.0448 26.9678 19.1395 26.9995 19.2333 26.9995C19.38 26.9995 19.5245 26.9222 19.616 26.7774L23.1574 21.165C23.7086 20.2915 24 19.2635 24 18.1924V10.0158C23.9998 9.47756 23.7859 8.97574 23.4128 8.63893Z" fill="#1AAAFF"/>
<path d="M7 13.6602C7.79427 14.2201 9.04427 14.5 10.75 14.5C12.4557 14.5 13.7057 14.2201 14.5 13.6602V14.5C14.5 14.8385 14.1289 15.1315 13.3867 15.3789C12.6576 15.6263 11.7786 15.75 10.75 15.75C9.72135 15.75 8.83594 15.6263 8.09375 15.3789C7.36458 15.1315 7 14.8385 7 14.5V13.6602ZM15.8867 7.87891C15.1576 8.1263 14.2786 8.25 13.25 8.25C12.2214 8.25 11.3359 8.1263 10.5938 7.87891C9.86458 7.63151 9.5 7.33854 9.5 7C9.5 6.66146 9.86458 6.36849 10.5938 6.12109C11.3359 5.8737 12.2214 5.75 13.25 5.75C14.2786 5.75 15.1576 5.8737 15.8867 6.12109C16.6289 6.36849 17 6.66146 17 7C17 7.33854 16.6289 7.63151 15.8867 7.87891ZM7 11.6094C7.39062 11.9349 7.92448 12.1888 8.60156 12.3711C9.27865 12.5404 9.99479 12.625 10.75 12.625C11.2448 12.625 11.7266 12.5924 12.1953 12.5273C12.6641 12.4492 13.1003 12.332 13.5039 12.1758C13.9076 12.0195 14.2396 11.8307 14.5 11.6094V12.625C14.5 12.9635 14.1289 13.2565 13.3867 13.5039C12.6576 13.7513 11.7786 13.875 10.75 13.875C9.72135 13.875 8.83594 13.7513 8.09375 13.5039C7.36458 13.2565 7 12.9635 7 12.625V11.6094ZM15.125 11.8242V10.5938C15.9453 10.4505 16.5703 10.2227 17 9.91016V10.75C17 10.8672 16.9544 10.9779 16.8633 11.082C16.7721 11.1862 16.6419 11.2904 16.4727 11.3945C16.3164 11.4857 16.1211 11.5703 15.8867 11.6484C15.6654 11.7135 15.4115 11.7721 15.125 11.8242ZM8.09375 9.34375C8.82292 9.03125 9.70833 8.875 10.75 8.875C11.7917 8.875 12.6771 9.03125 13.4062 9.34375C14.1354 9.64323 14.5 10.0078 14.5 10.4375C14.5 10.8672 14.1354 11.2383 13.4062 11.5508C12.6771 11.8503 11.7917 12 10.75 12C9.70833 12 8.82292 11.8503 8.09375 11.5508C7.36458 11.2383 7 10.8672 7 10.4375C7 10.0078 7.36458 9.64323 8.09375 9.34375ZM15.0273 9.96875C14.8711 9.52604 14.4805 9.15495 13.8555 8.85547C15.2878 8.79036 16.3359 8.51693 17 8.03516V8.875C17 9.10938 16.8177 9.32422 16.4531 9.51953C16.1016 9.71484 15.6263 9.86458 15.0273 9.96875Z" fill="#1AAAFF"/>
</svg>
