<svg width="34" height="67" viewBox="0 0 34 67" fill="none" xmlns="http://www.w3.org/2000/svg">
<path fill-rule="evenodd" clip-rule="evenodd" d="M33.0649 41.7689C33.0649 43.6871 31.5087 45.2468 29.5889 45.2468H3.47603C1.55044 45.2468 0 43.6908 0 41.7714V3.47531C0 1.5575 1.5578 0 3.47945 0H21.847C22.7964 0 24.1317 0.550753 24.8111 1.23014L31.8348 8.25383C32.514 8.93308 33.0649 10.2617 33.0649 11.221V41.7689ZM22.6234 7.83122C22.6234 9.26766 23.7984 10.4416 25.2423 10.4416H28.7143C29.1948 10.4416 29.5844 10.8311 29.5844 11.3117C29.5844 11.7922 29.1948 12.1818 28.7143 12.1818H25.2423C22.8376 12.1818 20.8831 10.2291 20.8831 7.83122V4.35065C20.8831 3.87009 21.2727 3.48052 21.7532 3.48052C22.2338 3.48052 22.6234 3.87009 22.6234 4.35065V7.83122ZM10.0467 26.5287C9.36367 25.8461 9.35817 24.7338 10.0344 24.0444L15.2118 18.7223C15.8904 18.0304 16.997 18.0276 17.679 18.7161L22.9432 24.0382C23.6228 24.7242 23.6228 25.8365 22.9432 26.5225C22.2636 27.2086 21.1617 27.2086 20.4821 26.5225L18.1915 24.2021V32.1072C18.1915 33.0774 17.4123 33.8639 16.4512 33.8639C15.4901 33.8639 14.711 33.0774 14.711 32.1072V24.2213L12.5077 26.5163C11.8315 27.2058 10.7297 27.2113 10.0467 26.5287ZM23.4935 47.8571C24.4546 47.8571 25.2338 48.6363 25.2338 49.5974V60.039C25.2338 61.0001 24.4546 61.7792 23.4935 61.7792C22.5324 61.7792 21.7532 61.0001 21.7532 60.039V49.5974C21.7532 48.6363 22.5324 47.8571 23.4935 47.8571ZM18.2727 49.5974C18.2727 48.6363 17.4936 47.8571 16.5325 47.8571C15.5713 47.8571 14.7922 48.6363 14.7922 49.5974V65.2597C14.7922 66.2209 15.5713 67 16.5325 67C17.4936 67 18.2727 66.2209 18.2727 65.2597V49.5974ZM9.57143 47.8571C10.5325 47.8571 11.3117 48.6363 11.3117 49.5974V55.6883C11.3117 56.6494 10.5325 57.4286 9.57143 57.4286C8.61031 57.4286 7.83117 56.6494 7.83117 55.6883V49.5974C7.83117 48.6363 8.61031 47.8571 9.57143 47.8571Z" fill="#CECECE"/>
<path d="M25.2424 10.4415C23.7985 10.4415 22.6236 9.26761 22.6236 7.83117V4.3506C22.6236 3.87004 22.234 3.48047 21.7534 3.48047C21.2729 3.48047 20.8833 3.87004 20.8833 4.3506V7.83117C20.8833 10.2291 22.8378 12.1818 25.2424 12.1818H28.7145C29.195 12.1818 29.5846 11.7922 29.5846 11.3116C29.5846 10.8311 29.195 10.4415 28.7145 10.4415H25.2424Z" fill="#E8E8E8" stroke="#E8E8E8"/>
</svg>
