<svg width="26" height="24" viewBox="0 0 26 24" fill="none" xmlns="http://www.w3.org/2000/svg">
<path fill-rule="evenodd" clip-rule="evenodd" d="M17.8175 2.25881C17.3562 2.25881 16.8954 2.30151 16.4424 2.38236C14.7062 0.894567 12.4916 0 10.0819 0C4.52256 0 0 4.75353 0 10.5962C0 12.8284 0.6526 14.9637 1.88731 16.77L1.88757 16.7707L1.8876 16.7714C2.20538 17.2361 2.33104 17.3832 2.35271 17.408C2.60144 17.689 2.74993 18.2021 2.7118 18.4566L2.58382 19.3053V19.3067L2.06498 22.7523C1.95838 23.4603 2.23976 23.768 2.36571 23.8681C2.43302 23.9209 2.56331 24 2.74502 24C2.90333 24 3.10064 23.9401 3.32944 23.7526L5.70527 21.8087L6.70367 20.9926C6.8926 20.8372 7.28289 20.7465 7.50562 20.8067C7.56456 20.8225 8.95844 21.1906 10.0816 21.1906C12.246 21.1906 14.2512 20.4683 15.8955 19.2437C16.5218 19.4026 17.1664 19.4869 17.8169 19.4869C18.7105 19.4869 19.8127 19.1998 19.8996 19.1771L19.9036 19.1761C20.0564 19.1345 20.347 19.2024 20.4773 19.3095L21.2784 19.965L23.1854 21.5249C23.3864 21.6897 23.5624 21.7422 23.7048 21.7422C23.8744 21.7422 23.9966 21.668 24.0598 21.618C24.176 21.5256 24.4362 21.2435 24.3409 20.6104L23.9243 17.8444V17.8437L23.8218 17.1634C23.799 17.009 23.898 16.63 24.0829 16.4207C24.1086 16.392 24.2118 16.2685 24.4637 15.9002C25.4687 14.4296 26 12.6919 26 10.873C26 6.12268 22.3294 2.25881 17.8175 2.25881ZM10.0819 20.0763C9.0911 20.0763 7.79977 19.7438 7.70828 19.7202L7.70322 19.719C7.23667 19.5951 6.58493 19.7452 6.18916 20.0696L5.19076 20.8858L3.01224 22.6683L3.48833 19.5062L3.48862 19.5055L3.61631 18.6568C3.71482 18.0012 3.44124 17.1144 2.98336 16.5971L2.98324 16.5969C2.97925 16.5922 2.8717 16.4639 2.59596 16.0606C2.59567 16.0606 2.59567 16.0599 2.59567 16.0599C1.49933 14.4552 0.919533 12.5659 0.919533 10.5966C0.919533 5.36845 5.02984 1.11436 10.0819 1.11436C15.134 1.11436 19.244 5.3681 19.244 10.5966C19.244 15.8233 15.134 20.0763 10.0819 20.0763ZM23.4569 15.6041C23.4688 15.5894 23.5543 15.4836 23.7556 15.1887C24.622 13.9214 25.0802 12.4287 25.0805 10.8734C25.0805 6.7376 21.8221 3.37282 17.8175 3.37282C17.7387 3.37282 17.6603 3.37812 17.5819 3.38341C17.5427 3.38605 17.5036 3.38869 17.4645 3.39067C19.1377 5.28306 20.1639 7.8152 20.1639 10.5966C20.1639 13.6393 18.9346 16.3853 16.9728 18.319C17.2524 18.3523 17.5341 18.3722 17.8175 18.3722C18.6004 18.3722 19.6188 18.1106 19.7013 18.0894C19.7044 18.0886 19.7062 18.0881 19.7066 18.088C20.1041 17.982 20.657 18.1104 20.993 18.3862L21.7938 19.0417L23.3633 20.3255L23.0195 18.0443V18.0436L22.917 17.3625C22.8332 16.8029 23.0643 16.0476 23.4555 15.6059C23.4554 15.6059 23.4559 15.6053 23.4569 15.6041Z" fill="#8776CC"/>
<path fill-rule="evenodd" clip-rule="evenodd" d="M17.8175 2.25881C17.3562 2.25881 16.8954 2.30151 16.4424 2.38236C14.7062 0.894567 12.4916 0 10.0819 0C4.52256 0 0 4.75353 0 10.5962C0 12.8284 0.6526 14.9637 1.88731 16.77L1.88757 16.7707L1.8876 16.7714C2.20538 17.2361 2.33104 17.3832 2.35271 17.408C2.60144 17.689 2.74993 18.2021 2.7118 18.4566L2.58382 19.3053V19.3067L2.06498 22.7523C1.95838 23.4603 2.23976 23.768 2.36571 23.8681C2.43302 23.9209 2.56331 24 2.74502 24C2.90333 24 3.10064 23.9401 3.32944 23.7526L5.70527 21.8087L6.70367 20.9926C6.8926 20.8372 7.28289 20.7465 7.50562 20.8067C7.56456 20.8225 8.95844 21.1906 10.0816 21.1906C12.246 21.1906 14.2512 20.4683 15.8955 19.2437C16.5218 19.4026 17.1664 19.4869 17.8169 19.4869C18.7105 19.4869 19.8127 19.1998 19.8996 19.1771L19.9036 19.1761C20.0564 19.1345 20.347 19.2024 20.4773 19.3095L21.2784 19.965L23.1854 21.5249C23.3864 21.6897 23.5624 21.7422 23.7048 21.7422C23.8744 21.7422 23.9966 21.668 24.0598 21.618C24.176 21.5256 24.4362 21.2435 24.3409 20.6104L23.9243 17.8444V17.8437L23.8218 17.1634C23.799 17.009 23.898 16.63 24.0829 16.4207C24.1086 16.392 24.2118 16.2685 24.4637 15.9002C25.4687 14.4296 26 12.6919 26 10.873C26 6.12268 22.3294 2.25881 17.8175 2.25881ZM10.0819 20.0763C9.0911 20.0763 7.79977 19.7438 7.70828 19.7202L7.70322 19.719C7.23667 19.5951 6.58493 19.7452 6.18916 20.0696L5.19076 20.8858L3.01224 22.6683L3.48833 19.5062L3.48862 19.5055L3.61631 18.6568C3.71482 18.0012 3.44124 17.1144 2.98336 16.5971L2.98324 16.5969C2.97925 16.5922 2.8717 16.4639 2.59596 16.0606C2.59567 16.0606 2.59567 16.0599 2.59567 16.0599C1.49933 14.4552 0.919533 12.5659 0.919533 10.5966C0.919533 5.36845 5.02984 1.11436 10.0819 1.11436C15.134 1.11436 19.244 5.3681 19.244 10.5966C19.244 15.8233 15.134 20.0763 10.0819 20.0763ZM23.4569 15.6041C23.4688 15.5894 23.5543 15.4836 23.7556 15.1887C24.622 13.9214 25.0802 12.4287 25.0805 10.8734C25.0805 6.7376 21.8221 3.37282 17.8175 3.37282C17.7387 3.37282 17.6603 3.37812 17.5819 3.38341C17.5427 3.38605 17.5036 3.38869 17.4645 3.39067C19.1377 5.28306 20.1639 7.8152 20.1639 10.5966C20.1639 13.6393 18.9346 16.3853 16.9728 18.319C17.2524 18.3523 17.5341 18.3722 17.8175 18.3722C18.6004 18.3722 19.6188 18.1106 19.7013 18.0894C19.7044 18.0886 19.7062 18.0881 19.7066 18.088C20.1041 17.982 20.657 18.1104 20.993 18.3862L21.7938 19.0417L23.3633 20.3255L23.0195 18.0443V18.0436L22.917 17.3625C22.8332 16.8029 23.0643 16.0476 23.4555 15.6059C23.4554 15.6059 23.4559 15.6053 23.4569 15.6041Z" fill="url(#paint0_linear)"/>
<defs>
<linearGradient id="paint0_linear" x1="13" y1="0" x2="13" y2="24" gradientUnits="userSpaceOnUse">
<stop stop-color="#1AAAFF"/>
<stop offset="1" stop-color="#5EEDFD"/>
</linearGradient>
</defs>
</svg>
