<svg width="9" height="11" viewBox="0 0 9 11" fill="none" xmlns="http://www.w3.org/2000/svg">
<path d="M8.78009 10.4739H0.557577C0.436007 10.4739 0.337646 10.571 0.337646 10.6909C0.337646 10.8109 0.436007 10.9081 0.557577 10.9081H8.78009C8.90166 10.9081 9.00002 10.8109 9.00002 10.6909C9.00002 10.571 8.90166 10.4739 8.78009 10.4739Z" fill="#645F5F"/>
<path fill-rule="evenodd" clip-rule="evenodd" d="M1.97916 9.84588L0.705931 10.4305C0.590287 10.4836 0.474076 10.5533 0.346825 10.553C0.275126 10.553 0.207434 10.5328 0.149412 10.4927C0.0427629 10.4191 -0.010976 10.2919 0.00187165 10.1437L0.139604 8.57466C0.168339 8.24823 0.339917 7.78218 0.530422 7.51397L5.31074 0.775588C5.38096 0.676618 5.51768 0.652472 5.61754 0.721408C5.51842 0.652909 5.49337 0.515122 5.57746 0.428829C6.05361 -0.059819 6.83423 -0.147924 7.41401 0.252899C8.05501 0.696046 8.21126 1.5713 7.76241 2.20397L2.85557 9.12089C2.66506 9.38937 2.28005 9.70789 1.97916 9.84588ZM7.16161 0.608507C6.71885 0.302531 6.10714 0.409432 5.79727 0.846035L5.45295 1.33142C5.13863 1.77452 5.24697 2.38904 5.69387 2.69794C6.13311 3.00155 6.73483 2.89549 7.04379 2.46L7.40199 1.95513C7.71171 1.51853 7.60382 0.914347 7.16161 0.608507ZM4.07229 3.27775C4.38122 2.84229 4.98288 2.73621 5.4221 3.03977C5.86901 3.34863 5.97736 3.96315 5.66303 4.40624L3.5513 7.383C3.2424 7.81844 2.64078 7.92454 2.20156 7.62105C1.75458 7.3122 1.64619 6.69763 1.96055 6.25451L4.07229 3.27775ZM0.890571 7.76295C0.745655 7.96694 0.599496 8.36386 0.577668 8.6123C0.52063 9.26197 1.18632 9.73116 1.77899 9.45903L1.7935 9.45237C2.02254 9.34724 2.35037 9.07603 2.49514 8.87205C2.63091 8.68064 2.58408 8.41519 2.39102 8.2818L1.48757 7.65759C1.29328 7.52335 1.02717 7.57032 0.890571 7.76295Z" fill="#645F5F"/>
</svg>
