<svg width="26" height="24" viewBox="0 0 26 24" fill="none" xmlns="http://www.w3.org/2000/svg">
<path fill-rule="evenodd" clip-rule="evenodd" d="M16.1877 5.48368C16.7046 5.00633 17.3915 4.74365 18.123 4.74365C18.8539 4.74365 19.5409 5.00633 20.0571 5.48341C21.1237 6.46851 21.1237 8.07096 20.0568 9.0558C19.5403 9.53288 18.8533 9.79556 18.1221 9.79556C17.3915 9.79556 16.7046 9.53288 16.1877 9.0558C15.1209 8.0707 15.1212 6.46824 16.1877 5.48368ZM18.1224 8.94699C18.6075 8.94699 19.0639 8.77259 19.4068 8.45551C20.1149 7.80162 20.1152 6.73785 19.4071 6.0837C19.0645 5.76689 18.6083 5.59248 18.1233 5.59248C17.638 5.59248 17.1815 5.76715 16.8383 6.08423C16.13 6.73812 16.13 7.80162 16.8383 8.45551C17.1812 8.77206 17.6374 8.94699 18.1224 8.94699Z" fill="#999999"/>
<path fill-rule="evenodd" clip-rule="evenodd" d="M25.2454 1.70219C25.2537 1.71846 25.4406 2.10514 25.5984 2.57662C26.9655 6.66822 24.6577 10.2528 21.4441 13.0634C19.6879 14.5995 18.825 17.0015 19.6172 19.1961C19.7862 19.6623 19.6291 20.2764 19.2518 20.6242L16.0336 23.5952C15.7478 23.8592 15.4101 24 15.0776 24C14.995 24 14.913 23.9912 14.8324 23.9736C14.4253 23.8848 14.1006 23.5808 13.9411 23.1392L12.8619 20.1504C12.5827 19.3771 11.7123 19.0478 10.9399 19.3294C10.7374 19.4049 10.5123 19.4425 10.2702 19.4425C9.73289 19.4425 9.18833 19.2481 8.8486 18.9348L5.48622 15.8312C4.97922 15.3634 4.79173 14.5154 5.05895 13.9005L5.05953 13.8992C5.36506 13.2135 5.05694 12.3997 4.33948 12.1789L0.93218 11.1302C0.454069 10.9833 0.124736 10.6833 0.0285363 10.3078C-0.0676639 9.93206 0.0819809 9.52751 0.437891 9.19844L3.65726 6.22767C4.0334 5.88019 4.699 5.73486 5.20398 5.89006C7.64522 6.64177 10.2364 5.73458 12.0932 3.98034C14.4699 1.73482 17.356 0 20.6015 0C21.4728 0 22.3527 0.125604 23.2176 0.372545C23.7126 0.514259 24.1171 0.679803 24.1528 0.694401L24.1548 0.695222C24.5844 0.873628 25.053 1.30618 25.2454 1.70219ZM0.923224 10.1123C0.944024 10.1942 1.05611 10.2737 1.22251 10.3249L5.18408 11.5441C5.75622 11.7202 6.37327 11.4765 6.67875 10.9617C7.60472 9.40002 6.9084 7.30936 5.17324 6.77509L4.91364 6.69515C4.73915 6.64102 4.43813 6.70689 4.30755 6.82742L1.08818 9.79872C0.964247 9.91339 0.902135 10.0307 0.923224 10.1123ZM18.7451 19.4646C18.8034 19.6263 18.7326 19.9033 18.6018 20.0239L15.3827 22.9949C15.2585 23.1101 15.1311 23.1672 15.043 23.1472C14.9546 23.1282 14.8685 23.0245 14.813 22.8709L13.5245 19.3025C13.3207 18.738 13.575 18.1114 14.1104 17.8403C14.1489 17.8209 14.1876 17.8013 14.2265 17.7815C15.9391 16.911 18.0926 17.6577 18.7451 19.4646ZM10.5967 18.5417C10.6045 18.539 11.4321 18.2262 13.669 17.0963C18.724 14.5437 26.8813 9.29577 24.7196 2.82756C24.5786 2.40541 24.4084 2.0534 24.4064 2.04967C24.3065 1.84406 24.0008 1.56245 23.7781 1.46938L23.7764 1.46868C23.748 1.45718 23.3809 1.30831 22.9452 1.18377C22.1687 0.961631 21.38 0.849094 20.6015 0.849094C14.6183 0.849094 9.81551 7.43971 7.48504 11.3692C6.27942 13.4024 5.92828 14.1818 5.91259 14.2166L5.91204 14.2178C5.78118 14.5183 5.88835 15.0018 6.13651 15.2306L9.49831 18.3339C9.66615 18.4891 9.97642 18.5937 10.2696 18.5937C10.3921 18.5937 10.5051 18.5761 10.5967 18.5417Z" fill="#999999"/>
<path d="M8.22164 20.4383C7.19522 20.9108 4.3046 21.9303 3.27297 20.9775C2.24135 20.0254 3.34491 17.3568 3.85711 16.4093C3.97064 16.1992 3.8782 15.9445 3.65113 15.84C3.42377 15.7349 3.14817 15.82 3.03464 16.0293C2.81538 16.4344 0.941931 20.027 2.62211 21.578C3.13344 22.0498 3.84931 22.218 4.61053 22.218C6.3508 22.218 8.32766 21.338 8.63273 21.1975C8.85951 21.0924 8.95166 20.8377 8.83813 20.6284C8.72517 20.4191 8.44928 20.3348 8.22164 20.4383Z" fill="#999999"/>
</svg>
