<svg width="28" height="24" viewBox="0 0 28 24" fill="none" xmlns="http://www.w3.org/2000/svg">
<path d="M18.2471 22.6791C23.343 21.1353 26.8623 16.9387 26.8623 12.1412C26.8623 5.97689 21.1029 0.980902 14 0.980902C6.89712 0.980902 1.1377 5.97689 1.1377 12.1412C1.1377 16.7639 4.40628 20.8407 9.23331 22.5104V13.497H3.69194L9.49235 5.75259H18.2471V22.6791ZM5.7809 12.5161H10.371V23.8905L9.62353 23.6773C3.92618 22.0527 0 17.4241 0 12.1412C0 5.43648 6.26724 0 14 0C21.7328 0 28 5.43648 28 12.1412C28 17.603 23.805 22.3498 17.8346 23.8213L17.1094 24V6.7335H10.112L5.7809 12.5161Z" fill="url(#paint0_linear)"/>
<defs>
<linearGradient id="paint0_linear" x1="-1.28553e-06" y1="24" x2="-3.49459" y2="0.52011" gradientUnits="userSpaceOnUse">
<stop stop-color="#5EEDFD"/>
<stop offset="1" stop-color="#1AAAFF"/>
</linearGradient>
</defs>
</svg>
