<svg width="27" height="25" viewBox="0 0 27 25" fill="none" xmlns="http://www.w3.org/2000/svg">
<path fill-rule="evenodd" clip-rule="evenodd" d="M5.23413 6.27417C5.23413 2.81506 8.01182 0 11.4267 0C14.8415 0 17.6192 2.81476 17.6192 6.27417C17.6192 9.73359 14.8415 12.5484 11.4267 12.5484C8.01182 12.5484 5.23413 9.73359 5.23413 6.27417ZM6.19389 6.27417C6.19389 9.19728 8.54147 11.5757 11.4267 11.5757C14.3116 11.5757 16.6592 9.19728 16.6592 6.27417C16.6592 3.35106 14.3116 0.972969 11.4267 0.972969C8.54147 0.972969 6.19389 3.35106 6.19389 6.27417Z" fill="#999999"/>
<path fill-rule="evenodd" clip-rule="evenodd" d="M0 21.335C0 19.5151 2.05283 14.791 11.4265 14.791C20.8002 14.791 22.8525 19.5151 22.8528 21.335C22.8528 23.0802 21.4321 24.124 20.0588 24.124H2.79398C1.42039 24.124 0 23.0802 0 21.335ZM2.79398 23.151H20.0588C20.9477 23.151 21.8924 22.5147 21.8927 21.335C21.8927 19.8896 19.9699 15.7637 11.4265 15.7637C2.88285 15.7637 0.96006 19.8896 0.96006 21.335C0.96006 22.5147 1.90472 23.151 2.79398 23.151Z" fill="#999999"/>
<path d="M26.1801 9.00343C24.6069 9.00343 23.3316 7.72812 23.3316 6.15494V6.11783C23.3316 5.84893 23.1168 5.63135 22.8514 5.63135C22.586 5.63135 22.3715 5.84893 22.3715 6.11783V6.15524C22.3715 7.72825 21.0963 9.00343 19.5233 9.00343C19.2579 9.00343 19.0435 9.22101 19.0435 9.48961C19.0435 9.75821 19.2582 9.9761 19.5233 9.9761C21.0963 9.9761 22.3715 11.2513 22.3715 12.8243V12.8614C22.3715 13.1303 22.5863 13.3479 22.8514 13.3479C23.1168 13.3479 23.3316 13.13 23.3316 12.8614V12.8246C23.3316 11.2514 24.6069 9.9761 26.1801 9.9761C26.4455 9.9761 26.66 9.75821 26.66 9.48961C26.66 9.22101 26.4452 9.00343 26.1801 9.00343Z" fill="#999999"/>
</svg>
