<svg width="37" height="40" viewBox="0 0 37 40" fill="none" xmlns="http://www.w3.org/2000/svg">
<rect y="0.982788" width="36.19" height="36.19" rx="11.25" fill="url(#paint0_linear)"/>
<path d="M16.6322 22.8591V31H10.8479V7.00586H20.4225C22.2572 7.00586 23.8777 7.34644 25.2839 8.02759C26.7012 8.69775 27.7943 9.65906 28.5634 10.9115C29.3434 12.153 29.7334 13.5647 29.7334 15.1467C29.7334 17.4868 28.8929 19.36 27.212 20.7662C25.5421 22.1615 23.246 22.8591 20.3236 22.8591H16.6322ZM16.6322 18.3932H20.4225C21.5431 18.3932 22.3945 18.113 22.9768 17.5527C23.5701 16.9924 23.8667 16.2014 23.8667 15.1797C23.8667 14.0591 23.5646 13.1637 22.9603 12.4935C22.3561 11.8234 21.5321 11.4828 20.4884 11.4718H16.6322V18.3932Z" fill="white"/>
<defs>
<linearGradient id="paint0_linear" x1="0" y1="0.982788" x2="0" y2="37.1728" gradientUnits="userSpaceOnUse">
<stop stop-color="#1AAAFF"/>
<stop offset="1" stop-color="#5EEDFD"/>
</linearGradient>
</defs>
</svg>
