<svg width="36" height="36" viewBox="0 0 36 36" fill="none" xmlns="http://www.w3.org/2000/svg">
<path d="M22.7631 8.39099L22.763 8.39109C21.4871 9.63737 21.4867 11.662 22.763 12.9091L22.7631 8.39099ZM22.7631 8.39099C23.384 7.78419 24.2093 7.44922 25.0933 7.44922C25.9764 7.44922 26.8016 7.78419 27.4217 8.39051L27.4218 8.39061M22.7631 8.39099L27.4218 8.39061M27.4218 8.39061C28.6979 9.63771 28.6978 11.6624 27.4215 12.9091L27.4214 12.9092M27.4218 8.39061L27.4214 12.9092M27.4214 12.9092C26.8009 13.5156 25.9757 13.8506 25.0921 13.8506M27.4214 12.9092L25.0921 13.8506M25.0921 13.8506C24.2094 13.8506 23.3841 13.5157 22.7631 12.9092L25.0921 13.8506ZM27.2205 12.7447C26.6509 13.302 25.8929 13.6074 25.0925 13.6074C24.2916 13.6074 23.5342 13.3009 22.9651 12.745C21.7835 11.5909 21.7834 9.70989 22.9649 8.55571L27.2205 12.7447ZM27.2205 12.7447C28.4014 11.5906 28.4018 9.70944 27.2208 8.55493M27.2205 12.7447L27.2208 8.55493M27.2208 8.55493C26.6516 7.99814 25.894 7.69281 25.0937 7.69281M27.2208 8.55493L25.0937 7.69281M25.0937 7.69281C24.2927 7.69281 23.5349 7.99865 22.9651 8.55557L25.0937 7.69281Z" fill="white" stroke="url(#paint0_linear)"/>
<path d="M34.5009 2.70251L34.501 2.70246C34.3998 2.48204 34.2127 2.22735 33.9741 1.99429C33.7361 1.76174 33.4741 1.57747 33.2449 1.47658C33.2446 1.47649 33.2444 1.47639 33.2442 1.4763L33.244 1.47619L33.2439 1.47614C33.2 1.45714 32.6607 1.22367 32.0032 1.02444L34.5009 2.70251ZM34.5009 2.70251L34.5058 2.71265M34.5009 2.70251L34.5058 2.71265M34.5058 2.71265C34.5057 2.71245 34.506 2.7131 34.5067 2.71457C34.5145 2.7319 34.5745 2.86369 34.6587 3.07182C34.7488 3.2944 34.8632 3.59595 34.9674 3.92548M34.5058 2.71265L7.46656 20.5573M15.1478 28.3189C16.2059 27.9106 17.4142 28.3643 17.7805 29.4377L19.3034 33.9004C19.5242 34.5474 19.9738 34.9928 20.5374 35.1229C20.649 35.1487 20.7626 35.1616 20.877 35.1616L15.1478 28.3189ZM15.1478 28.3189C14.8674 28.4295 14.5558 28.4846 14.2206 28.4846C13.4766 28.4846 12.7226 28.1998 12.2522 27.7407M15.1478 28.3189L7.59655 23.1938M12.2522 27.7407L7.59655 23.1938M12.2522 27.7407L12.6015 27.383L12.6014 27.3829M12.2522 27.7407L12.6014 27.3829M7.59655 23.1938C6.89455 22.5085 6.63495 21.2661 7.00495 20.3651M7.59655 23.1938L7.46656 20.5573M12.6014 27.3829L7.9459 22.836L7.94582 22.836C7.67771 22.5742 7.47793 22.1873 7.38817 21.758C7.29857 21.3294 7.32695 20.8988 7.46656 20.5573M12.6014 27.3829C12.9657 27.7384 13.5883 27.9846 14.2206 27.9846C14.501 27.9846 14.7494 27.9385 14.9643 27.8538L14.9677 27.8524C16.2464 27.359 17.781 27.8912 18.2537 29.2762L19.7766 33.7389C19.9534 34.2571 20.2877 34.5521 20.6498 34.6357L20.6499 34.6358C20.7245 34.653 20.8003 34.6616 20.877 34.6616C21.1841 34.6616 21.5313 34.5236 21.851 34.211L21.8512 34.2108L26.3072 29.8581L26.3075 29.8578C26.6935 29.4813 26.8601 28.7833 26.6896 28.2856L26.6893 28.285C25.5049 24.8134 26.8568 21.1057 29.4722 18.6604C33.812 14.6029 36.7542 9.58402 34.9674 3.92548M7.46656 20.5573C7.99284 19.3076 7.44918 17.7862 6.08529 17.342L1.44578 15.8311L1.44558 15.831C0.905093 15.6553 0.608372 15.3252 0.525732 14.984L7.46656 20.5573ZM7.46656 20.5573C7.46686 20.5565 7.46716 20.5558 7.46747 20.555L7.21684 20.4521L7.14283 20.4217L7.1428 20.4217L7.00495 20.3651M7.46656 20.5573L0.606555 13.4763C0.113756 13.9584 -0.0934443 14.5511 0.039756 15.1016C0.172956 15.6517 0.628955 16.0913 1.29096 16.3065L5.93047 17.8174C6.97951 18.1591 7.43394 19.3464 7.00575 20.3632L7.00495 20.3651M7.46656 20.5573L7.46563 20.5595L7.46482 20.5614L7.00495 20.3651M34.9674 3.92548C34.9674 3.92553 34.9674 3.92559 34.9674 3.92565L35.4442 3.77492L34.9674 3.92548ZM5.41366 9.48151L5.41345 9.4817L0.956215 13.8337C0.956163 13.8338 0.956112 13.8338 0.95606 13.8339C0.557032 14.2243 0.443648 14.6447 0.525713 14.984L5.41366 9.48151ZM5.41366 9.48151C5.79981 9.10404 6.5265 8.93434 7.05086 9.10473M5.41366 9.48151L7.05086 9.10473M0.792603 14.9329C0.845196 15.1506 0.991351 15.2986 1.10988 15.3876C1.23615 15.4824 1.38565 15.5524 1.53813 15.6021C1.53814 15.6021 1.53815 15.6021 1.53816 15.6021L6.97157 17.3715C8.01695 17.7119 9.14984 17.2564 9.68386 16.3042L9.68394 16.304C11.1252 13.7321 10.008 10.3269 7.14385 9.39378L6.9597 9.33379L6.80375 9.80885L6.95864 9.33344L6.95886 9.33351C6.71968 9.25525 6.45483 9.27499 6.24876 9.32262C6.04271 9.37024 5.79547 9.46885 5.61518 9.64494L1.15762 13.9981L1.15717 13.9985C1.04315 14.1101 0.940402 14.2392 0.869878 14.3808C0.803519 14.5141 0.739283 14.7133 0.792603 14.9329ZM0.792603 14.9329C0.792526 14.9326 0.79245 14.9323 0.792374 14.932L1.27856 14.8152M0.792603 14.9329C0.792679 14.9332 0.792756 14.9336 0.792833 14.9339L1.27856 14.8152M1.27856 14.8152C1.24936 14.6957 1.33536 14.5238 1.50696 14.3558L7.1264 16.8961L1.69296 15.1266C1.46256 15.0516 1.30736 14.9352 1.27856 14.8152ZM20.5106 33.5074L20.0374 33.6689L18.2346 28.386C17.8798 27.3464 18.3408 26.2112 19.3016 25.6965L19.3022 25.6963C21.97 24.2711 25.4329 25.4389 26.4282 28.3555C26.5103 28.5963 26.4896 28.8616 26.44 29.0668C26.3902 29.2724 26.2875 29.5168 26.1059 29.694L20.5106 33.5074ZM20.5106 33.5074L20.0374 33.6689C20.089 33.8201 20.1616 33.9682 20.2596 34.0927C20.352 34.2104 20.5013 34.3495 20.7153 34.3991C20.9291 34.4494 21.1249 34.3905 21.2596 34.3267C21.4025 34.2589 21.534 34.1592 21.6487 34.0468L20.5106 33.5074ZM33.1206 1.69312L33.126 1.69541L33.1259 1.69544C33.356 1.79717 33.5881 1.97883 33.7718 2.15825C33.9549 2.33703 34.1429 2.56514 34.2481 2.79415L34.2479 2.79423C34.2972 2.90092 34.5188 3.40476 34.7042 3.99207C36.2796 8.98003 34.0688 13.4543 30.6902 17.0867C27.3098 20.721 22.6791 23.6091 19.1622 25.4882M33.1206 1.69312L12.8024 27.2181C13.1501 27.5581 13.7173 27.741 14.2198 27.741C14.4358 27.741 14.6579 27.7087 14.8572 27.6294L14.8572 27.6293C15.0063 27.57 16.2107 27.0657 19.1622 25.4882M33.1206 1.69312L33.1185 1.69223C33.0736 1.67295 32.5453 1.44627 31.9154 1.25575C30.7952 0.916664 29.6544 0.743979 28.5254 0.743979C24.1858 0.743979 20.3308 3.26919 17.1928 6.43972C14.0463 9.61884 11.5515 13.5157 9.92799 16.4121L9.92797 16.4122C8.28115 19.3508 7.77476 20.5203 7.72878 20.628L7.72865 20.6279L7.72377 20.6398C7.58383 20.9798 7.58442 21.3752 7.65537 21.7139C7.72639 22.0529 7.88455 22.4149 8.14758 22.6716C8.14765 22.6717 8.14772 22.6717 8.14779 22.6718L12.8021 27.2178L33.1206 1.69312ZM19.1622 25.4882L18.9266 25.0472L19.1622 25.4882ZM7.05086 9.10473C10.6229 10.2686 14.4057 8.90353 16.9861 6.29764C20.2596 2.99172 24.1751 0.5 28.5254 0.5C29.6807 0.5 30.8503 0.6762 32.0028 1.02432L7.05086 9.10473ZM21.6496 34.0459L26.1055 29.6944L21.6496 34.0459Z" fill="white" stroke="url(#paint1_linear)"/>
<path d="M3.6305 31.6123C4.3385 32.3034 5.3297 32.5499 6.3837 32.5499C8.7933 32.5499 11.5305 31.2606 11.9529 31.0547C12.2669 30.9008 12.3945 30.5277 12.2373 30.221C12.0809 29.9143 11.6989 29.7908 11.3837 29.9424M3.6305 31.6123L3.97987 31.2546C3.97984 31.2545 3.9798 31.2545 3.97977 31.2545M3.6305 31.6123L3.97977 31.2545M3.6305 31.6123C1.3041 29.34 3.8981 24.0765 4.2017 23.483C4.3589 23.1763 4.7405 23.0517 5.0553 23.2056L4.89519 23.8124M3.97977 31.2545C4.5571 31.8181 5.39672 32.0499 6.3837 32.0499C7.50999 32.0499 8.73752 31.7464 9.75458 31.4055C10.7653 31.0667 11.5341 30.7027 11.7338 30.6053L11.9529 31.0547L11.7328 30.6058C11.8028 30.5715 11.8184 30.4999 11.7923 30.4491L11.7919 30.4481C11.7635 30.3926 11.6806 30.355 11.6012 30.3927M3.97977 31.2545C3.50707 30.7927 3.26496 30.1627 3.1933 29.419C3.12128 28.6714 3.22551 27.841 3.41644 27.0331C3.79829 25.4174 4.5013 23.9952 4.64683 23.7108L4.20171 23.483L4.64665 23.7111C4.6768 23.6523 4.76014 23.6179 4.83565 23.6548L4.83633 23.6551C4.90524 23.6887 4.92209 23.7597 4.89519 23.8124M11.6012 30.3927C11.6017 30.3924 11.6022 30.3922 11.6027 30.3919L11.3837 29.9424M11.6012 30.3927C11.6009 30.3928 11.6007 30.3929 11.6004 30.393L11.3837 29.9424M11.6012 30.3927C10.8635 30.7518 9.46916 31.3141 8.06334 31.6098C7.36027 31.7577 6.63049 31.8442 5.96719 31.7938C5.30842 31.7438 4.65667 31.5537 4.18223 31.09M11.3837 29.9424C9.9625 30.6347 5.9601 32.1284 4.5317 30.7324M4.5317 30.7324L4.18238 31.0902C4.18233 31.0901 4.18228 31.0901 4.18223 31.09M4.5317 30.7324L4.18223 31.09M4.5317 30.7324L4.89519 23.8124M4.18223 31.09C3.70595 30.6248 3.50905 29.9828 3.45731 29.3332C3.40535 28.6807 3.49452 27.9643 3.64622 27.276C3.94976 25.8988 4.5267 24.5337 4.89519 23.8124M4.89519 23.8124L5.34039 24.0397L4.89524 23.8123C4.89522 23.8123 4.89521 23.8124 4.89519 23.8124Z" fill="white" stroke="url(#paint2_linear)"/>
<defs>
<linearGradient id="paint0_linear" x1="21.3059" y1="10.6499" x2="28.8788" y2="10.6499" gradientUnits="userSpaceOnUse">
<stop stop-color="#1AAAFF"/>
<stop offset="1" stop-color="#5EEDFD"/>
</linearGradient>
<linearGradient id="paint1_linear" x1="0.000244141" y1="17.5808" x2="36" y2="17.5808" gradientUnits="userSpaceOnUse">
<stop stop-color="#1AAAFF"/>
<stop offset="1" stop-color="#5EEDFD"/>
</linearGradient>
<linearGradient id="paint2_linear" x1="2.67041" y1="27.8448" x2="12.3046" y2="27.8448" gradientUnits="userSpaceOnUse">
<stop stop-color="#1AAAFF"/>
<stop offset="1" stop-color="#5EEDFD"/>
</linearGradient>
</defs>
</svg>
