<svg width="11" height="12" viewBox="0 0 11 12" fill="none" xmlns="http://www.w3.org/2000/svg">
<path d="M5.14001 10.2134C5.25519 10.2134 5.34863 10.1198 5.34863 10.0046V4.94873C5.34863 4.83342 5.25519 4.73999 5.14001 4.73999C5.02483 4.73999 4.9314 4.83342 4.9314 4.94873V10.0047C4.9314 10.1199 5.02483 10.2134 5.14001 10.2134Z" fill="#645F5F"/>
<path fill-rule="evenodd" clip-rule="evenodd" d="M3.56003 0H6.72016C7.18364 0 7.56091 0.376999 7.56091 0.840614C7.56091 1.249 7.89197 1.58007 8.30036 1.58007H9.24803C9.71152 1.58007 10.0888 1.9572 10.0888 2.42081V2.73675C10.0888 3.2001 9.71152 3.57736 9.24803 3.57736C9.18175 3.57736 9.12704 3.6292 9.12348 3.69539L8.76319 10.3843C8.72139 11.1612 8.05453 11.7935 7.27642 11.7935H3.0039C2.22566 11.7935 1.55867 11.1612 1.51687 10.3843L1.15671 3.69552C1.15314 3.62926 1.09838 3.57736 1.03202 3.57736C0.568406 3.57736 0.191406 3.2001 0.191406 2.73675V2.42081C0.191406 1.9572 0.568406 1.58007 1.03202 1.58007H1.97996C2.38835 1.58007 2.71941 1.249 2.71941 0.840614C2.71941 0.376999 3.09641 0 3.56003 0ZM3.56003 0.417228C3.32651 0.417228 3.13664 0.607103 3.13664 0.840614C3.13664 1.249 3.4677 1.58007 3.87609 1.58007H6.40383C6.81222 1.58007 7.14328 1.249 7.14328 0.840614C7.14328 0.607103 6.95354 0.417228 6.72003 0.417228H3.56003ZM8.34675 10.3618C8.31674 10.9213 7.83648 11.3763 7.27642 11.3763H3.0039C2.44371 11.3763 1.96358 10.9212 1.93357 10.3618L1.76024 7.14421C1.65584 5.20612 3.19922 3.57736 5.14013 3.57736C7.08101 3.57736 8.62438 5.20608 8.52001 7.14415L8.34675 10.3618ZM9.67155 2.42068C9.67155 2.18704 9.48167 1.99729 9.24816 1.99729H1.03202C0.79851 1.99729 0.608635 2.18704 0.608635 2.42068V2.73662C0.608635 2.97013 0.79851 3.15987 1.03202 3.15987H9.24816C9.48167 3.15987 9.67155 2.97013 9.67155 2.73662V2.42068Z" fill="#645F5F"/>
<path d="M3.4227 10.2135C3.42467 10.2135 3.4265 10.2132 3.42833 10.2132C3.54352 10.2103 3.63433 10.1142 3.63131 9.9991L3.49517 4.94297C3.49215 4.82975 3.39938 4.73999 3.28681 4.73999C3.28472 4.73999 3.28288 4.73999 3.28118 4.73999C3.16599 4.74314 3.07518 4.83906 3.0782 4.95411L3.21435 10.0102C3.21736 10.1237 3.31014 10.2135 3.4227 10.2135Z" fill="#645F5F"/>
<path d="M6.85186 10.2132C6.85383 10.2132 6.85553 10.2135 6.85763 10.2135C6.97019 10.2135 7.06283 10.1236 7.06598 10.0102L7.20213 4.95411C7.20527 4.83906 7.11446 4.74327 6.99928 4.73999C6.99731 4.73999 6.99548 4.73999 6.99351 4.73999C6.88095 4.73999 6.78818 4.82975 6.78503 4.94297L6.64901 9.9991C6.64574 10.1143 6.73668 10.2103 6.85186 10.2132Z" fill="#645F5F"/>
</svg>
