<svg width="28" height="24" viewBox="0 0 28 24" fill="none" xmlns="http://www.w3.org/2000/svg">
<mask id="path-1-inside-1" fill="white">
<path fill-rule="evenodd" clip-rule="evenodd" d="M26.4861 1.30813C25.4168 0.711584 23.6715 0 21.4275 0C18.2289 0 15.1776 1.42511 14.1338 1.96639C14.06 2.00485 13.9403 2.00485 13.8665 1.96639C12.8228 1.42479 9.77107 0 6.57253 0C4.3288 0 2.58316 0.711584 1.51418 1.30845C0.693156 1.76701 0.436489 1.9874 0.392933 2.0265C0.161778 2.23817 0 2.61011 0 2.93036V22.8803C0 23.5628 0.368667 23.8682 0.734222 23.8682C1.08131 23.8682 1.36446 23.6006 1.66758 23.4315L1.98147 23.2564C2.95058 22.7152 4.53382 22.0704 6.57222 22.0704C8.80818 22.0704 11.0034 22.8299 12.4519 23.4668L13.2726 23.8278C13.4773 23.9393 13.7343 24 14.0003 24C14.266 24 14.5227 23.9393 14.7271 23.8278L15.5465 23.4674C16.9951 22.8302 19.1912 22.0704 21.4275 22.0704C23.4662 22.0704 25.0494 22.7152 26.0185 23.2564L26.3326 23.4315C26.6358 23.6006 26.919 23.8682 27.2661 23.8682C27.6316 23.8682 28 23.5631 28 22.8803V2.93036C28 2.61011 27.8382 2.23881 27.6074 2.02682C27.5644 1.9874 27.3075 1.76668 26.4861 1.30813ZM13.5047 22.657C13.5047 22.7429 13.4431 22.7853 13.3666 22.752L12.8383 22.5193C11.3055 21.8455 8.97462 21.0412 6.57222 21.0412C4.32787 21.0412 2.5816 21.7531 1.51231 22.3503L1.12249 22.5671C1.05 22.6082 0.990578 22.5716 0.990578 22.4854V2.93456C0.997976 2.84065 1.07824 2.77342 1.15534 2.71928C1.28491 2.62828 1.53851 2.46252 1.98333 2.21425C2.95213 1.67361 4.53476 1.02892 6.57253 1.02892C9.47987 1.02892 12.3514 2.34287 13.3706 2.86153C13.445 2.89934 13.505 3.00048 13.505 3.08677L13.5047 22.657ZM26.8769 22.5671C26.9503 22.6082 27.0094 22.5717 27.0094 22.4854V2.92972C27.0069 2.89869 26.9727 2.82114 26.9488 2.79463C26.9287 2.77862 26.6932 2.59109 26.017 2.21393C25.0485 1.67329 23.4659 1.0286 21.4275 1.0286C18.5204 1.0286 15.6489 2.34287 14.6297 2.86121C14.555 2.89869 14.495 2.99984 14.495 3.08644V22.6566C14.495 22.7426 14.5569 22.7853 14.6331 22.7516L15.1595 22.5199C16.6927 21.8452 19.0248 21.0409 21.4272 21.0409C23.6718 21.0409 25.4178 21.7528 26.4874 22.35L26.8769 22.5671Z"/>
</mask>
<path fill-rule="evenodd" clip-rule="evenodd" d="M26.4861 1.30813C25.4168 0.711584 23.6715 0 21.4275 0C18.2289 0 15.1776 1.42511 14.1338 1.96639C14.06 2.00485 13.9403 2.00485 13.8665 1.96639C12.8228 1.42479 9.77107 0 6.57253 0C4.3288 0 2.58316 0.711584 1.51418 1.30845C0.693156 1.76701 0.436489 1.9874 0.392933 2.0265C0.161778 2.23817 0 2.61011 0 2.93036V22.8803C0 23.5628 0.368667 23.8682 0.734222 23.8682C1.08131 23.8682 1.36446 23.6006 1.66758 23.4315L1.98147 23.2564C2.95058 22.7152 4.53382 22.0704 6.57222 22.0704C8.80818 22.0704 11.0034 22.8299 12.4519 23.4668L13.2726 23.8278C13.4773 23.9393 13.7343 24 14.0003 24C14.266 24 14.5227 23.9393 14.7271 23.8278L15.5465 23.4674C16.9951 22.8302 19.1912 22.0704 21.4275 22.0704C23.4662 22.0704 25.0494 22.7152 26.0185 23.2564L26.3326 23.4315C26.6358 23.6006 26.919 23.8682 27.2661 23.8682C27.6316 23.8682 28 23.5631 28 22.8803V2.93036C28 2.61011 27.8382 2.23881 27.6074 2.02682C27.5644 1.9874 27.3075 1.76668 26.4861 1.30813ZM13.5047 22.657C13.5047 22.7429 13.4431 22.7853 13.3666 22.752L12.8383 22.5193C11.3055 21.8455 8.97462 21.0412 6.57222 21.0412C4.32787 21.0412 2.5816 21.7531 1.51231 22.3503L1.12249 22.5671C1.05 22.6082 0.990578 22.5716 0.990578 22.4854V2.93456C0.997976 2.84065 1.07824 2.77342 1.15534 2.71928C1.28491 2.62828 1.53851 2.46252 1.98333 2.21425C2.95213 1.67361 4.53476 1.02892 6.57253 1.02892C9.47987 1.02892 12.3514 2.34287 13.3706 2.86153C13.445 2.89934 13.505 3.00048 13.505 3.08677L13.5047 22.657ZM26.8769 22.5671C26.9503 22.6082 27.0094 22.5717 27.0094 22.4854V2.92972C27.0069 2.89869 26.9727 2.82114 26.9488 2.79463C26.9287 2.77862 26.6932 2.59109 26.017 2.21393C25.0485 1.67329 23.4659 1.0286 21.4275 1.0286C18.5204 1.0286 15.6489 2.34287 14.6297 2.86121C14.555 2.89869 14.495 2.99984 14.495 3.08644V22.6566C14.495 22.7426 14.5569 22.7853 14.6331 22.7516L15.1595 22.5199C16.6927 21.8452 19.0248 21.0409 21.4272 21.0409C23.6718 21.0409 25.4178 21.7528 26.4874 22.35L26.8769 22.5671Z" fill="url(#paint0_linear)"/>
<path d="M26.4861 1.30813L26.9736 0.434991L26.9733 0.434835L26.4861 1.30813ZM14.1338 1.96639L13.6734 1.07866L13.6713 1.07974L14.1338 1.96639ZM13.8665 1.96639L14.329 1.07973L14.3271 1.07877L13.8665 1.96639ZM1.51418 1.30845L1.02667 0.435332L1.02656 0.435394L1.51418 1.30845ZM0.392933 2.0265L-0.275125 1.28232L-0.2824 1.28899L0.392933 2.0265ZM1.98147 23.2564L2.4686 24.1298L2.46908 24.1295L1.98147 23.2564ZM12.4519 23.4668L12.8545 22.5514L12.8544 22.5514L12.4519 23.4668ZM13.2726 23.8278L13.751 22.9496L13.7139 22.9294L13.6752 22.9124L13.2726 23.8278ZM14.7271 23.8278L14.3246 22.9123L14.2856 22.9295L14.2482 22.9499L14.7271 23.8278ZM15.5465 23.4674L15.949 24.3828L15.9492 24.3828L15.5465 23.4674ZM26.0185 23.2564L25.5309 24.1295L25.5316 24.1298L26.0185 23.2564ZM27.6074 2.02682L28.2838 1.29027L28.2837 1.29026L27.6074 2.02682ZM13.5047 22.657L12.5047 22.657V22.657H13.5047ZM13.3666 22.752L12.9635 23.6671L12.9675 23.6689L13.3666 22.752ZM12.8383 22.5193L13.2414 21.6041L13.2407 21.6038L12.8383 22.5193ZM1.51231 22.3503L1.99843 23.2242L1.9999 23.2234L1.51231 22.3503ZM1.12249 22.5671L0.636361 21.6932L0.629931 21.6969L1.12249 22.5671ZM1.98333 2.21425L1.49603 1.34102L1.49597 1.34105L1.98333 2.21425ZM13.3706 2.86153L12.9171 3.75276L12.9174 3.75292L13.3706 2.86153ZM13.505 3.08677L14.505 3.08678V3.08677H13.505ZM26.8769 22.5671L27.3647 21.6942L27.3639 21.6937L26.8769 22.5671ZM27.0094 2.92972H28.0094V2.88967L28.0062 2.84975L27.0094 2.92972ZM26.017 2.21393L25.5296 3.08709L25.5299 3.08727L26.017 2.21393ZM14.6297 2.86121L15.0784 3.75492L15.083 3.75255L14.6297 2.86121ZM14.6331 22.7516L14.2303 21.8364L14.2294 21.8367L14.6331 22.7516ZM15.1595 22.5199L14.7567 21.6047L14.7567 21.6047L15.1595 22.5199ZM26.4874 22.35L25.9999 23.2231L26.0004 23.2234L26.4874 22.35ZM1.15534 2.71928L1.73004 3.53764L1.15534 2.71928ZM26.3326 23.4315L25.8456 24.305L26.3326 23.4315ZM1.66758 23.4315L2.15471 24.3048L1.66758 23.4315ZM26.9733 0.434835C25.7988 -0.220401 23.886 -1 21.4275 -1V1C23.4571 1 25.0349 1.64357 25.9989 2.18142L26.9733 0.434835ZM21.4275 -1C17.9792 -1 14.75 0.520385 13.6734 1.07866L14.5941 2.85412C15.6051 2.32983 18.4786 1 21.4275 1V-1ZM13.6713 1.07974C13.8138 1.00544 13.9345 0.995233 14.0002 0.995233C14.0658 0.995233 14.1865 1.00544 14.329 1.07974L13.4041 2.85305C13.6203 2.9658 13.8378 2.99523 14.0002 2.99523C14.1625 2.99523 14.38 2.9658 14.5962 2.85305L13.6713 1.07974ZM14.3271 1.07877C13.2502 0.519985 10.0207 -1 6.57253 -1V1C9.52144 1 12.3953 2.32959 13.406 2.85401L14.3271 1.07877ZM6.57253 -1C4.11438 -1 2.20112 -0.220425 1.02667 0.435332L2.00169 2.18157C2.96519 1.64359 4.54322 1 6.57253 1V-1ZM1.02656 0.435394C0.169896 0.913856 -0.156126 1.17556 -0.275092 1.28236L1.06096 2.77064C1.0291 2.79923 1.21642 2.62016 2.0018 2.18151L1.02656 0.435394ZM-0.2824 1.28899C-0.72529 1.69454 -1 2.33629 -1 2.93036H1C1 2.93309 0.999842 2.92394 1.00436 2.90393C1.00877 2.88438 1.0162 2.86095 1.02685 2.83644C1.03752 2.8119 1.04914 2.79156 1.05919 2.77687C1.06957 2.7617 1.07407 2.7587 1.06827 2.76401L-0.2824 1.28899ZM-1 2.93036V22.8803H1V2.93036H-1ZM-1 22.8803C-1 23.3988 -0.858292 23.8951 -0.530864 24.279C-0.19957 24.6675 0.263982 24.8682 0.734222 24.8682V22.8682C0.782576 22.8682 0.833147 22.8784 0.880988 22.9003C0.929805 22.9226 0.966681 22.9529 0.99092 22.9813C1.04263 23.0419 1 23.0443 1 22.8803H-1ZM2.15471 24.3048L2.4686 24.1298L1.49434 22.3831L1.18045 22.5582L2.15471 24.3048ZM2.46908 24.1295C3.33215 23.6474 4.74781 23.0704 6.57222 23.0704V21.0704C4.31984 21.0704 2.56901 21.7829 1.49385 22.3834L2.46908 24.1295ZM6.57222 23.0704C8.60575 23.0704 10.6521 23.7678 12.0494 24.3822L12.8544 22.5514C11.3546 21.8919 9.01061 21.0704 6.57222 21.0704V23.0704ZM12.0493 24.3822L12.87 24.7431L13.6752 22.9124L12.8545 22.5514L12.0493 24.3822ZM12.7943 24.7059C13.1656 24.9082 13.5914 25 14.0003 25V23C13.8772 23 13.789 22.9703 13.751 22.9496L12.7943 24.7059ZM14.0003 25C14.4091 25 14.8347 24.9081 15.206 24.7056L14.2482 22.9499C14.2106 22.9704 14.1229 23 14.0003 23V25ZM15.1296 24.7432L15.949 24.3828L15.144 22.552L14.3246 22.9123L15.1296 24.7432ZM15.9492 24.3828C17.3464 23.7681 19.3936 23.0704 21.4275 23.0704V21.0704C18.9888 21.0704 16.6438 21.8922 15.1439 22.5521L15.9492 24.3828ZM21.4275 23.0704C23.2522 23.0704 24.6679 23.6475 25.5309 24.1295L26.5061 22.3834C25.431 21.7829 23.6801 21.0704 21.4275 21.0704V23.0704ZM25.5316 24.1298L25.8456 24.305L26.8196 22.5581L26.5055 22.383L25.5316 24.1298ZM27.2661 24.8682C27.7361 24.8682 28.1997 24.6678 28.5311 24.279C28.8585 23.895 29 23.3986 29 22.8803H27C27 23.0448 26.9573 23.0423 27.0091 22.9815C27.0335 22.953 27.0705 22.9226 27.1194 22.9003C27.1673 22.8784 27.2179 22.8682 27.2661 22.8682V24.8682ZM29 22.8803V2.93036H27V22.8803H29ZM29 2.93036C29 2.33563 28.7249 1.69534 28.2838 1.29027L26.931 2.76337C26.9256 2.7584 26.9303 2.7617 26.9408 2.77701C26.9509 2.79185 26.9626 2.81227 26.9732 2.8368C26.9839 2.86128 26.9913 2.88465 26.9957 2.90411C27.0002 2.92403 27 2.93311 27 2.93036H29ZM28.2837 1.29026C28.1592 1.1759 27.8267 0.911261 26.9736 0.434991L25.9987 2.18126C26.7883 2.6221 26.9697 2.79889 26.931 2.76338L28.2837 1.29026ZM12.5047 22.657C12.5047 22.4703 12.5785 22.1447 12.8977 21.9252C13.2259 21.6995 13.5726 21.751 13.7656 21.835L12.9675 23.6689C13.2371 23.7862 13.6528 23.8332 14.031 23.5732C14.4001 23.3193 14.5047 22.9296 14.5047 22.657H12.5047ZM13.7697 21.8368L13.2414 21.6041L12.4352 23.4345L12.9635 23.6671L13.7697 21.8368ZM13.2407 21.6038C11.6546 20.9067 9.17566 20.0412 6.57222 20.0412V22.0412C8.77358 22.0412 10.9564 22.7844 12.4359 23.4348L13.2407 21.6038ZM6.57222 20.0412C4.11341 20.0412 2.1995 20.8211 1.02472 21.4772L1.9999 23.2234C2.9637 22.6851 4.54232 22.0412 6.57222 22.0412V20.0412ZM1.0262 21.4764L0.636374 21.6932L1.6086 23.441L1.99843 23.2242L1.0262 21.4764ZM0.629931 21.6969C0.792377 21.6049 1.16758 21.4838 1.55517 21.7234C1.9291 21.9546 1.99058 22.3235 1.99058 22.4854H-0.00942224C-0.00942224 22.7336 0.0817652 23.1639 0.503527 23.4246C0.938952 23.6938 1.38011 23.5704 1.61505 23.4374L0.629931 21.6969ZM1.99058 22.4854V2.93456H-0.00942224V22.4854H1.99058ZM1.73004 3.53764C1.82574 3.47043 2.04912 3.32275 2.4707 3.08745L1.49597 1.34105C1.0279 1.6023 0.74407 1.78614 0.580634 1.90091L1.73004 3.53764ZM2.47064 3.08748C3.33371 2.60585 4.74882 2.02892 6.57253 2.02892V0.0289221C4.32069 0.0289221 2.57056 0.74138 1.49603 1.34102L2.47064 3.08748ZM6.57253 2.02892C9.23164 2.02892 11.9257 3.24824 12.9171 3.75276L13.8242 1.97029C12.7772 1.43749 9.72809 0.0289221 6.57253 0.0289221V2.02892ZM12.9174 3.75292C12.7451 3.6653 12.6524 3.54457 12.6066 3.46778C12.5596 3.3889 12.505 3.26071 12.505 3.08677H14.505C14.505 2.82654 14.4204 2.60463 14.3248 2.44416C14.2304 2.28578 14.0705 2.09557 13.8239 1.97014L12.9174 3.75292ZM12.505 3.08675L12.5047 22.657L14.5047 22.657L14.505 3.08678L12.505 3.08675ZM26.3891 23.4401C26.6201 23.5692 27.06 23.694 27.4958 23.425C27.9195 23.1636 28.0094 22.7316 28.0094 22.4854H26.0094C26.0094 22.3254 26.0698 21.9548 26.4456 21.723C26.8335 21.4836 27.2071 21.6061 27.3647 21.6942L26.3891 23.4401ZM28.0094 22.4854V2.92972H26.0094V22.4854H28.0094ZM28.0062 2.84975C27.9902 2.6496 27.9154 2.48668 27.9003 2.45297C27.8808 2.40913 27.8141 2.26071 27.6906 2.12405L26.2069 3.46522C26.1435 3.3951 26.1091 3.33486 26.1015 3.3218C26.0883 3.29884 26.0796 3.2807 26.0739 3.26798C26.0683 3.25546 26.0603 3.23616 26.0516 3.20955C26.0472 3.19599 26.0407 3.17462 26.0341 3.14709C26.0284 3.1229 26.0178 3.07396 26.0126 3.00968L28.0062 2.84975ZM27.572 2.01257C27.5004 1.95558 27.2173 1.73842 26.5041 1.34059L25.5299 3.08727C25.8498 3.26572 26.0565 3.3943 26.1791 3.47503C26.2403 3.51532 26.2803 3.54345 26.3026 3.55966C26.3138 3.56775 26.3206 3.57292 26.3236 3.57521C26.3251 3.57635 26.3258 3.57688 26.3257 3.57682C26.3255 3.57665 26.3251 3.57633 26.3256 3.5767L27.572 2.01257ZM26.5044 1.34076C25.43 0.741027 23.6799 0.0285978 21.4275 0.0285978V2.0286C23.2519 2.0286 24.6669 2.60556 25.5296 3.08709L26.5044 1.34076ZM21.4275 0.0285978C18.2722 0.0285978 15.223 1.43756 14.1764 1.96986L15.083 3.75255C16.0748 3.24817 18.7687 2.0286 21.4275 2.0286V0.0285978ZM14.181 1.96751C13.9319 2.09257 13.7706 2.28379 13.6756 2.443C13.5792 2.60448 13.495 2.82663 13.495 3.08644H15.495C15.495 3.25965 15.4407 3.38793 15.3931 3.46781C15.3468 3.54542 15.2528 3.66733 15.0784 3.7549L14.181 1.96751ZM13.495 3.08644V22.6566H15.495V3.08644H13.495ZM13.495 22.6566C13.495 22.9306 13.6005 23.3195 13.9685 23.5727C14.3467 23.833 14.764 23.7869 15.0368 23.6665L14.2294 21.8367C14.426 21.75 14.7742 21.6994 15.1024 21.9252C15.4204 22.1441 15.495 22.4686 15.495 22.6566H13.495ZM15.036 23.6669L15.5624 23.4352L14.7567 21.6047L14.2303 21.8364L15.036 23.6669ZM15.5623 23.4352C17.0417 22.7842 19.2258 22.0409 21.4272 22.0409V20.0409C18.8238 20.0409 16.3436 20.9063 14.7567 21.6047L15.5623 23.4352ZM21.4272 22.0409C23.4573 22.0409 25.0357 22.6848 25.9999 23.2231L26.9749 21.4768C25.7999 20.8208 23.8863 20.0409 21.4272 20.0409V22.0409ZM26.0004 23.2234L26.3899 23.4406L27.3639 21.6937L26.9743 21.4765L26.0004 23.2234ZM1.98749 3.01309C1.96922 3.24498 1.86122 3.39924 1.80227 3.46721C1.74999 3.52749 1.70684 3.55393 1.73004 3.53764L0.580634 1.90091C0.526732 1.93877 0.404907 2.02589 0.291368 2.1568C0.171162 2.2954 0.0193299 2.53023 -0.00633415 2.85603L1.98749 3.01309ZM25.8456 24.305C25.8861 24.3275 25.9327 24.3572 26.0097 24.4077C26.077 24.4517 26.177 24.518 26.2819 24.5787C26.4904 24.6994 26.8317 24.8682 27.2661 24.8682V22.8682C27.3533 22.8682 27.3795 22.9031 27.2838 22.8478C27.2367 22.8205 27.1874 22.7882 27.1054 22.7345C27.0332 22.6872 26.9307 22.6201 26.8196 22.5581L25.8456 24.305ZM0.734222 24.8682C1.16859 24.8682 1.50991 24.6994 1.7184 24.5787C1.82337 24.5179 1.92337 24.4516 1.99062 24.4076C2.06766 24.3571 2.11424 24.3274 2.15471 24.3048L1.18045 22.5582C1.06936 22.6201 0.966882 22.6873 0.894726 22.7345C0.812789 22.7882 0.763477 22.8205 0.716379 22.8478C0.620748 22.9032 0.646942 22.8682 0.734222 22.8682V24.8682Z" fill="url(#paint1_linear)" mask="url(#path-1-inside-1)"/>
<defs>
<linearGradient id="paint0_linear" x1="-1.04308e-07" y1="12" x2="28" y2="12" gradientUnits="userSpaceOnUse">
<stop stop-color="#1AAAFF"/>
<stop offset="1" stop-color="#5EEDFD"/>
</linearGradient>
<linearGradient id="paint1_linear" x1="0" y1="12" x2="28" y2="12" gradientUnits="userSpaceOnUse">
<stop stop-color="#1AAAFF"/>
<stop offset="1" stop-color="#5EEDFD"/>
</linearGradient>
</defs>
</svg>
