<svg width="27" height="24" viewBox="0 0 27 24" fill="none" xmlns="http://www.w3.org/2000/svg">
<path fill-rule="evenodd" clip-rule="evenodd" d="M26.3953 4.66613C26.3473 6.93533 24.2269 8.73763 21.6691 8.68348C19.9876 8.64788 18.5335 7.81618 17.7451 6.60708L9.13949 10.0213C9.39482 10.5451 9.53487 11.1224 9.52205 11.7282C9.50922 12.334 9.34458 12.9045 9.0676 13.4173L17.5208 17.192C18.3596 16.0178 19.8478 15.2482 21.5294 15.2838C24.0875 15.3379 26.1294 17.2283 26.0813 19.4978C26.0333 21.7673 23.9132 23.5698 21.3551 23.5157C18.7976 23.4615 16.7557 21.5708 16.8037 19.3016C16.814 18.8147 16.9247 18.3513 17.1098 17.9206L8.58819 14.115C7.72293 15.1312 6.34131 15.7788 4.79582 15.7461C2.23828 15.6919 0.196116 13.8007 0.24415 11.5318C0.2922 9.26207 2.41256 7.45977 4.97009 7.51391C6.51559 7.54663 7.86856 8.25211 8.69004 9.30398L17.365 5.86246C17.1981 5.42463 17.1071 4.95686 17.1174 4.46997C17.1655 2.2 19.2858 0.39795 21.8434 0.452094C24.4015 0.50625 26.4434 2.39642 26.3953 4.66613ZM25.4757 4.64691C25.5142 2.82694 23.8773 1.3112 21.8261 1.26778C19.7754 1.22436 18.0759 2.66947 18.037 4.48944C17.9985 6.30915 19.6354 7.82464 21.6864 7.86806C23.7376 7.91148 25.4372 6.46663 25.4757 4.64691ZM4.81309 14.9301C2.76215 14.8867 1.12524 13.3712 1.16377 11.5513C1.2023 9.73128 2.90217 8.28618 4.95283 8.32959C7.00377 8.37301 8.64096 9.88876 8.60243 11.7087C8.5639 13.5287 6.86403 14.9735 4.81309 14.9301ZM25.1617 19.4786C25.2002 17.6589 23.5633 16.1434 21.5121 16.1C19.4614 16.0565 17.7619 17.5014 17.723 19.3211C17.6845 21.1411 19.3214 22.6566 21.3724 22.7C23.4236 22.7434 25.1232 21.2986 25.1617 19.4786Z" fill="#8776CC"/>
<path fill-rule="evenodd" clip-rule="evenodd" d="M26.3953 4.66613C26.3473 6.93533 24.2269 8.73763 21.6691 8.68348C19.9876 8.64788 18.5335 7.81618 17.7451 6.60708L9.13949 10.0213C9.39482 10.5451 9.53487 11.1224 9.52205 11.7282C9.50922 12.334 9.34458 12.9045 9.0676 13.4173L17.5208 17.192C18.3596 16.0178 19.8478 15.2482 21.5294 15.2838C24.0875 15.3379 26.1294 17.2283 26.0813 19.4978C26.0333 21.7673 23.9132 23.5698 21.3551 23.5157C18.7976 23.4615 16.7557 21.5708 16.8037 19.3016C16.814 18.8147 16.9247 18.3513 17.1098 17.9206L8.58819 14.115C7.72293 15.1312 6.34131 15.7788 4.79582 15.7461C2.23828 15.6919 0.196116 13.8007 0.24415 11.5318C0.2922 9.26207 2.41256 7.45977 4.97009 7.51391C6.51559 7.54663 7.86856 8.25211 8.69004 9.30398L17.365 5.86246C17.1981 5.42463 17.1071 4.95686 17.1174 4.46997C17.1655 2.2 19.2858 0.39795 21.8434 0.452094C24.4015 0.50625 26.4434 2.39642 26.3953 4.66613ZM25.4757 4.64691C25.5142 2.82694 23.8773 1.3112 21.8261 1.26778C19.7754 1.22436 18.0759 2.66947 18.037 4.48944C17.9985 6.30915 19.6354 7.82464 21.6864 7.86806C23.7376 7.91148 25.4372 6.46663 25.4757 4.64691ZM4.81309 14.9301C2.76215 14.8867 1.12524 13.3712 1.16377 11.5513C1.2023 9.73128 2.90217 8.28618 4.95283 8.32959C7.00377 8.37301 8.64096 9.88876 8.60243 11.7087C8.5639 13.5287 6.86403 14.9735 4.81309 14.9301ZM25.1617 19.4786C25.2002 17.6589 23.5633 16.1434 21.5121 16.1C19.4614 16.0565 17.7619 17.5014 17.723 19.3211C17.6845 21.1411 19.3214 22.6566 21.3724 22.7C23.4236 22.7434 25.1232 21.2986 25.1617 19.4786Z" fill="url(#paint0_linear)"/>
<defs>
<linearGradient id="paint0_linear" x1="13.4854" y1="0.275152" x2="12.9971" y2="23.3387" gradientUnits="userSpaceOnUse">
<stop stop-color="#1AAAFF"/>
<stop offset="1" stop-color="#5EEDFD"/>
</linearGradient>
</defs>
</svg>
