<svg width="29" height="23" viewBox="0 0 29 23" fill="none" xmlns="http://www.w3.org/2000/svg">
<path fill-rule="evenodd" clip-rule="evenodd" d="M14.5 23C22.4953 23 29 17.8408 29 11.5C29 5.15916 22.4953 0 14.5 0C6.5047 0 0 5.15916 0 11.5C0 17.8408 6.50502 23 14.5 23ZM18.2233 21.7679C19.6472 20.769 20.8359 19.2162 21.6424 17.3136C22.8923 17.4887 24.0826 17.7118 25.2055 17.9788C23.4717 19.7772 21.0344 21.1257 18.2233 21.7679ZM21.9475 16.5296C23.3114 16.7243 24.6084 16.9753 25.8258 17.2776C27.0956 15.7172 27.867 13.8803 27.9608 11.9066H22.7759C22.734 13.5593 22.4418 15.1243 21.9475 16.5296ZM27.9608 11.0932H22.7762C22.7344 9.44052 22.4421 7.87525 21.9475 6.46995C23.3118 6.27547 24.6087 6.02426 25.8261 5.72168C27.0956 7.28236 27.867 9.1198 27.9608 11.0932ZM21.6423 5.68565C22.8923 5.5111 24.0829 5.288 25.2055 5.02095C23.4713 3.22235 21.034 1.87403 18.2226 1.23157C19.6468 2.23053 20.8358 3.78329 21.6423 5.68565ZM15.013 0.843018C17.3826 1.0881 19.4413 3.01447 20.6419 5.81638C18.8519 6.02568 16.9602 6.13838 15.013 6.15576V0.843018ZM20.947 6.60095C19.0607 6.82763 17.0668 6.95157 15.013 6.96921V11.0931H21.7507C21.7094 9.47876 21.4236 7.95616 20.947 6.60095ZM15.013 11.9069H21.7507C21.7094 13.5207 21.4236 15.0435 20.947 16.399C19.0607 16.1716 17.0668 16.0486 15.013 16.0302V11.9069ZM20.6416 17.1833C18.8519 16.9737 16.9602 16.861 15.013 16.8439V22.1564C17.3829 21.9113 19.4413 19.9854 20.6416 17.1833ZM13.9871 22.1564C11.6174 21.9113 9.55876 19.9854 8.35816 17.1833C10.1481 16.9737 12.0399 16.861 13.9871 16.8439V22.1564ZM8.053 16.399C9.93929 16.1718 11.9332 16.0486 13.987 16.0302V11.9069H7.24905C7.29062 13.5207 7.57643 15.0435 8.053 16.399ZM13.987 11.0931H7.24905C7.29062 9.47876 7.57643 7.95616 8.053 6.60095C9.93929 6.82763 11.9335 6.95157 13.987 6.96921V11.0931ZM13.9871 6.15602V0.843018C11.6174 1.0881 9.55844 3.01447 8.35816 5.81664C10.1481 6.02594 12.0399 6.13864 13.9871 6.15602ZM10.7774 1.23157C9.35314 2.23053 8.16446 3.78329 7.35794 5.68565C6.10772 5.51136 4.91743 5.288 3.79416 5.02095C5.52869 3.22235 7.96597 1.87403 10.7774 1.23157ZM7.05283 6.47018C5.68854 6.2757 4.3916 6.02449 3.17424 5.72217C1.90404 7.28233 1.13264 9.11978 1.03887 11.0934H6.2244C6.26596 9.44076 6.55822 7.87548 7.05283 6.47018ZM1.03887 11.9069H6.2244C6.26596 13.5595 6.55822 15.1246 7.05283 16.5296C5.68854 16.7241 4.39127 16.9755 3.17392 17.2779C1.90404 15.7172 1.13264 13.88 1.03887 11.9069ZM10.777 21.7679C9.35282 20.769 8.16414 19.216 7.35794 17.3136C6.10772 17.4887 4.91743 17.7118 3.79416 17.9788C5.52836 19.7772 7.96533 21.1257 10.777 21.7679Z" fill="url(#paint0_linear)"/>
<defs>
<linearGradient id="paint0_linear" x1="14.5" y1="0" x2="14.5" y2="23" gradientUnits="userSpaceOnUse">
<stop stop-color="#1AAAFF"/>
<stop offset="1" stop-color="$second-color"/>
</linearGradient>
</defs>
</svg>
