<svg width="24" height="24" viewBox="0 0 24 24" fill="none" xmlns="http://www.w3.org/2000/svg">
<path d="M14.148 18.0061H4.70749C4.47283 18.0061 4.28296 18.196 4.28296 18.4306C4.28296 18.6653 4.47283 18.8552 4.70749 18.8552H14.1478C14.3824 18.8552 14.5723 18.6653 14.5723 18.4306C14.5723 18.196 14.3827 18.0061 14.148 18.0061Z" fill="#8776CC"/>
<path d="M14.148 18.0061H4.70749C4.47283 18.0061 4.28296 18.196 4.28296 18.4306C4.28296 18.6653 4.47283 18.8552 4.70749 18.8552H14.1478C14.3824 18.8552 14.5723 18.6653 14.5723 18.4306C14.5723 18.196 14.3827 18.0061 14.148 18.0061Z" fill="url(#paint0_linear)"/>
<path d="M14.148 13.5046H4.70749C4.47283 13.5046 4.28296 13.6948 4.28296 13.9292C4.28296 14.1638 4.47283 14.354 4.70749 14.354H14.1478C14.3824 14.354 14.5723 14.1638 14.5723 13.9292C14.5723 13.6945 14.3827 13.5046 14.148 13.5046Z" fill="#8776CC"/>
<path d="M14.148 13.5046H4.70749C4.47283 13.5046 4.28296 13.6948 4.28296 13.9292C4.28296 14.1638 4.47283 14.354 4.70749 14.354H14.1478C14.3824 14.354 14.5723 14.1638 14.5723 13.9292C14.5723 13.6945 14.3827 13.5046 14.148 13.5046Z" fill="url(#paint1_linear)"/>
<path fill-rule="evenodd" clip-rule="evenodd" d="M23.1509 8.56587C23.1509 8.3312 23.3408 8.14133 23.5755 8.14133C23.8101 8.14133 24 8.3312 24 8.56587V21.0032C24 22.6555 22.6555 24 21.0029 24H2.9968C1.34453 24 0 22.6555 0 21.0029V2.9968C0 1.34453 1.34453 0 2.9968 0H15.8587C17.5109 0 18.8552 1.34453 18.8549 2.9968V21.0032C18.8549 22.1877 19.8187 23.1512 21.0029 23.1512C22.1877 23.1512 23.1509 22.1875 23.1509 21.0032V8.56587ZM0.8488 21.0029C0.8488 22.1875 1.81253 23.1509 2.9968 23.1509H18.9157C18.3552 22.6056 18.0064 21.8445 18.0064 21.0029V2.9968C18.0064 1.81227 17.0429 0.8488 15.8587 0.8488H2.9968C1.81227 0.8488 0.8488 1.81253 0.8488 2.9968V21.0029Z" fill="#8776CC"/>
<path fill-rule="evenodd" clip-rule="evenodd" d="M23.1509 8.56587C23.1509 8.3312 23.3408 8.14133 23.5755 8.14133C23.8101 8.14133 24 8.3312 24 8.56587V21.0032C24 22.6555 22.6555 24 21.0029 24H2.9968C1.34453 24 0 22.6555 0 21.0029V2.9968C0 1.34453 1.34453 0 2.9968 0H15.8587C17.5109 0 18.8552 1.34453 18.8549 2.9968V21.0032C18.8549 22.1877 19.8187 23.1512 21.0029 23.1512C22.1877 23.1512 23.1509 22.1875 23.1509 21.0032V8.56587ZM0.8488 21.0029C0.8488 22.1875 1.81253 23.1509 2.9968 23.1509H18.9157C18.3552 22.6056 18.0064 21.8445 18.0064 21.0029V2.9968C18.0064 1.81227 17.0429 0.8488 15.8587 0.8488H2.9968C1.81227 0.8488 0.8488 1.81253 0.8488 2.9968V21.0029Z" fill="url(#paint2_linear)"/>
<path fill-rule="evenodd" clip-rule="evenodd" d="M5.56931 3.85864H13.2861C14.2293 3.85864 14.9968 4.62638 14.9968 5.56931V8.14158C14.9968 9.08531 14.2293 9.85224 13.2861 9.85224H5.56931C4.62584 9.85224 3.85864 9.08531 3.85864 8.14158V5.56931C3.85864 4.62638 4.62584 3.85864 5.56931 3.85864ZM13.2864 9.00291C13.7616 9.00291 14.148 8.61678 14.148 8.14131H14.1477V5.56904C14.1477 5.09358 13.7613 4.70744 13.2861 4.70744H5.56931C5.09384 4.70744 4.70771 5.09358 4.70771 5.56904V8.14131C4.70771 8.61678 5.09384 9.00291 5.56931 9.00291H13.2864Z" fill="#8776CC"/>
<path fill-rule="evenodd" clip-rule="evenodd" d="M5.56931 3.85864H13.2861C14.2293 3.85864 14.9968 4.62638 14.9968 5.56931V8.14158C14.9968 9.08531 14.2293 9.85224 13.2861 9.85224H5.56931C4.62584 9.85224 3.85864 9.08531 3.85864 8.14158V5.56931C3.85864 4.62638 4.62584 3.85864 5.56931 3.85864ZM13.2864 9.00291C13.7616 9.00291 14.148 8.61678 14.148 8.14131H14.1477V5.56904C14.1477 5.09358 13.7613 4.70744 13.2861 4.70744H5.56931C5.09384 4.70744 4.70771 5.09358 4.70771 5.56904V8.14131C4.70771 8.61678 5.09384 9.00291 5.56931 9.00291H13.2864Z" fill="url(#paint3_linear)"/>
<defs>
<linearGradient id="paint0_linear" x1="9.42763" y1="18.0061" x2="9.42763" y2="18.8552" gradientUnits="userSpaceOnUse">
<stop stop-color="#1AAAFF"/>
<stop offset="1" stop-color="#5EEDFD"/>
</linearGradient>
<linearGradient id="paint1_linear" x1="9.42763" y1="13.5046" x2="9.42763" y2="14.354" gradientUnits="userSpaceOnUse">
<stop stop-color="#1AAAFF"/>
<stop offset="1" stop-color="#5EEDFD"/>
</linearGradient>
<linearGradient id="paint2_linear" x1="12" y1="0" x2="12" y2="24" gradientUnits="userSpaceOnUse">
<stop stop-color="#1AAAFF"/>
<stop offset="1" stop-color="#5EEDFD"/>
</linearGradient>
<linearGradient id="paint3_linear" x1="9.42771" y1="3.85864" x2="9.42771" y2="9.85224" gradientUnits="userSpaceOnUse">
<stop stop-color="#1AAAFF"/>
<stop offset="1" stop-color="#5EEDFD"/>
</linearGradient>
</defs>
</svg>
