<svg width="23" height="21" viewBox="0 0 23 21" fill="none" xmlns="http://www.w3.org/2000/svg">
<path d="M22.5 10.5C22.5 15.981 17.6189 20.5 11.5 20.5C5.38108 20.5 0.5 15.981 0.5 10.5C0.5 5.01899 5.38108 0.5 11.5 0.5C17.6189 0.5 22.5 5.01899 22.5 10.5Z" fill="white" stroke="#1AAAFF"/>
<path d="M16.3069 9.80694H12.1931V5.69349C12.1931 5.31017 11.8829 5 11.4996 5C11.1162 5 10.8065 5.31017 10.8065 5.69349V9.80694H6.69306C6.30974 9.80694 6 10.1171 6 10.5C6 10.8829 6.31016 11.1935 6.69306 11.1935H10.8065V15.3065C10.8065 15.6898 11.1167 16 11.4996 16C11.8829 16 12.1931 15.6894 12.1931 15.3065V11.1935H16.3069C16.6903 11.1935 17 10.8829 17 10.5C17 10.1171 16.6898 9.80694 16.3069 9.80694Z" fill="#1AAAFF"/>
</svg>
