<svg width="14" height="15" viewBox="0 0 14 15" fill="none" xmlns="http://www.w3.org/2000/svg">
<path fill-rule="evenodd" clip-rule="evenodd" d="M1.72502 8.60834H1.16668C0.555517 8.60834 0.0583496 8.111 0.0583496 7.5V6.66667C0.0583496 6.0555 0.555517 5.55834 1.16668 5.55834H1.72502V0.275C1.72502 0.123167 1.84819 0 2.00002 0C2.15185 0 2.27485 0.123167 2.27485 0.275V5.55817H2.83335C3.44452 5.55817 3.94169 6.05534 3.94169 6.6665V7.49984C3.94169 8.111 3.44452 8.60834 2.83335 8.60834H2.27485V14.725C2.27485 14.877 2.15185 15 2.00002 15C1.84819 15 1.72502 14.877 1.72502 14.725V8.60834ZM1.16668 6.10834C0.858684 6.10834 0.60835 6.35884 0.60835 6.66667V7.5C0.60835 7.808 0.858684 8.05834 1.16668 8.05834H2.83335C3.14119 8.05834 3.39169 7.808 3.39169 7.5V6.66667C3.39169 6.35884 3.14119 6.10834 2.83335 6.10834H1.16668Z" fill="#999999"/>
<path fill-rule="evenodd" clip-rule="evenodd" d="M6.725 11.9417H6.16667C5.5555 11.9417 5.05817 11.4443 5.05817 10.8335V10C5.05817 9.38867 5.5555 8.89167 6.16667 8.89167H6.725V0.275C6.725 0.123167 6.84817 0 7 0C7.152 0 7.275 0.123167 7.275 0.275V8.89167H7.83334C8.4445 8.89167 8.94167 9.38867 8.94167 10V10.8335C8.94167 11.4443 8.4445 11.9417 7.83334 11.9417H7.275V14.725C7.275 14.877 7.152 15 7 15C6.84817 15 6.725 14.877 6.725 14.725V11.9417ZM6.16667 9.44167C5.85867 9.44167 5.60833 9.692 5.60833 10V10.8335C5.60833 11.1413 5.85867 11.3917 6.16667 11.3917H7.83334C8.14134 11.3917 8.39167 11.1413 8.39167 10.8335V10C8.39167 9.692 8.14134 9.44167 7.83334 9.44167H6.16667Z" fill="#999999"/>
<path fill-rule="evenodd" clip-rule="evenodd" d="M11.725 6.10817H11.1667C10.5555 6.10817 10.0583 5.61117 10.0583 5V4.16667C10.0583 3.5555 10.5555 3.05833 11.1667 3.05833H11.725V0.275C11.725 0.123167 11.848 0 12 0C12.152 0 12.275 0.123167 12.275 0.275V3.05817H12.8333C13.4445 3.05817 13.9417 3.55533 13.9417 4.1665V4.99983C13.9417 5.611 13.4445 6.10817 12.8333 6.10817H12.275V14.7248C12.275 14.8768 12.152 14.9998 12 14.9998C11.848 14.9998 11.725 14.8768 11.725 14.7248V6.10817ZM11.1667 3.60833C10.8588 3.60833 10.6084 3.85867 10.6084 4.16667V5C10.6084 5.30783 10.8588 5.55833 11.1667 5.55833H12.8333C13.1413 5.55833 13.3917 5.30783 13.3917 5V4.16667C13.3917 3.85867 13.1413 3.60833 12.8333 3.60833H11.1667Z" fill="#999999"/>
</svg>
