<svg width="14" height="12" viewBox="0 0 14 12" fill="none" xmlns="http://www.w3.org/2000/svg">
<mask id="path-1-inside-1" fill="white">
<path fill-rule="evenodd" clip-rule="evenodd" d="M11.5261 10.8853C11.047 11.28 10.4115 11.4971 9.73648 11.4976C6.64279 11.4974 -3.05176e-05 5.99934 -3.05176e-05 3.43919C-3.05176e-05 2.88034 0.262594 2.35441 0.739139 1.9582C1.31941 1.47794 1.88226 1.24463 2.46068 1.24463C3.2148 1.24463 3.83561 1.6527 4.39415 2.0938C4.95823 2.53886 5.40026 3.12985 5.40026 3.43906C5.40026 3.83641 5.18125 4.10595 4.98782 4.34372C4.61362 4.80422 4.31801 5.16802 5.98253 6.54568C6.85039 7.26398 7.49231 7.61299 7.94543 7.61299C8.20512 7.61299 8.40826 7.5001 8.64345 7.36896L8.64399 7.36867C8.93113 7.20891 9.25653 7.02786 9.73648 7.02786C10.1095 7.02786 10.8235 7.39371 11.362 7.86058L11.3626 7.86113C12.0143 8.42699 13.2257 9.47901 11.5261 10.8853ZM2.46053 1.65091C2.01897 1.65091 1.5697 1.84519 1.08622 2.24509C0.702458 2.56437 0.490848 2.98852 0.490848 3.43919C0.490848 4.49476 1.8892 6.33674 4.05354 8.13178C6.22096 9.9295 8.45156 11.0913 9.73648 11.0913C10.2807 11.0911 10.7933 10.9158 11.1795 10.5978C12.4359 9.55791 11.815 8.84242 11.0068 8.14109C10.4718 7.67677 9.89538 7.43415 9.73648 7.43415C9.40604 7.43415 9.17964 7.56005 8.91748 7.70598L8.9172 7.70613C8.65356 7.85292 8.35479 8.01927 7.94543 8.01927C7.33942 8.01927 6.62676 7.6533 5.6356 6.83282C3.82513 5.33436 4.05631 4.762 4.58079 4.11679C4.75726 3.89994 4.90938 3.71255 4.90938 3.43893C4.90938 3.30716 4.61624 2.83008 4.05539 2.3877C3.60365 2.03117 3.07085 1.65091 2.46053 1.65091Z"/>
</mask>
<path fill-rule="evenodd" clip-rule="evenodd" d="M11.5261 10.8853C11.047 11.28 10.4115 11.4971 9.73648 11.4976C6.64279 11.4974 -3.05176e-05 5.99934 -3.05176e-05 3.43919C-3.05176e-05 2.88034 0.262594 2.35441 0.739139 1.9582C1.31941 1.47794 1.88226 1.24463 2.46068 1.24463C3.2148 1.24463 3.83561 1.6527 4.39415 2.0938C4.95823 2.53886 5.40026 3.12985 5.40026 3.43906C5.40026 3.83641 5.18125 4.10595 4.98782 4.34372C4.61362 4.80422 4.31801 5.16802 5.98253 6.54568C6.85039 7.26398 7.49231 7.61299 7.94543 7.61299C8.20512 7.61299 8.40826 7.5001 8.64345 7.36896L8.64399 7.36867C8.93113 7.20891 9.25653 7.02786 9.73648 7.02786C10.1095 7.02786 10.8235 7.39371 11.362 7.86058L11.3626 7.86113C12.0143 8.42699 13.2257 9.47901 11.5261 10.8853ZM2.46053 1.65091C2.01897 1.65091 1.5697 1.84519 1.08622 2.24509C0.702458 2.56437 0.490848 2.98852 0.490848 3.43919C0.490848 4.49476 1.8892 6.33674 4.05354 8.13178C6.22096 9.9295 8.45156 11.0913 9.73648 11.0913C10.2807 11.0911 10.7933 10.9158 11.1795 10.5978C12.4359 9.55791 11.815 8.84242 11.0068 8.14109C10.4718 7.67677 9.89538 7.43415 9.73648 7.43415C9.40604 7.43415 9.17964 7.56005 8.91748 7.70598L8.9172 7.70613C8.65356 7.85292 8.35479 8.01927 7.94543 8.01927C7.33942 8.01927 6.62676 7.6533 5.6356 6.83282C3.82513 5.33436 4.05631 4.762 4.58079 4.11679C4.75726 3.89994 4.90938 3.71255 4.90938 3.43893C4.90938 3.30716 4.61624 2.83008 4.05539 2.3877C3.60365 2.03117 3.07085 1.65091 2.46053 1.65091Z" fill="url(#paint0_linear)"/>
<path d="M11.5261 10.8853L12.1619 11.6572L12.1636 11.6558L11.5261 10.8853ZM9.73648 11.4976L9.7364 12.4976L9.73724 12.4976L9.73648 11.4976ZM0.739139 1.9582L0.101535 1.18784L0.0998281 1.18926L0.739139 1.9582ZM4.39415 2.0938L3.77437 2.87858L3.77473 2.87887L4.39415 2.0938ZM4.98782 4.34372L4.21208 3.71268L4.21176 3.71308L4.98782 4.34372ZM8.64345 7.36896L8.16538 6.49058L8.15647 6.49555L8.64345 7.36896ZM8.64399 7.36867L9.12205 8.24705L9.13017 8.24253L8.64399 7.36867ZM11.362 7.86058L12.0177 7.10558L12.0171 7.10501L11.362 7.86058ZM11.3626 7.86113L10.7069 8.61613L10.707 8.61617L11.3626 7.86113ZM1.08622 2.24509L0.448858 1.47452L0.44665 1.47636L1.08622 2.24509ZM4.05354 8.13178L4.69194 7.36208L4.69192 7.36206L4.05354 8.13178ZM9.73648 11.0913V12.0913H9.73695L9.73648 11.0913ZM11.1795 10.5978L11.8152 11.3698L11.8171 11.3682L11.1795 10.5978ZM11.0068 8.14109L10.3513 8.8963L10.3514 8.89637L11.0068 8.14109ZM8.91748 7.70598L9.39981 8.58198L9.40384 8.57973L8.91748 7.70598ZM8.9172 7.70613L8.43487 6.83013L8.43075 6.83242L8.9172 7.70613ZM5.6356 6.83282L6.27326 6.06251L6.2732 6.06246L5.6356 6.83282ZM4.58079 4.11679L3.80516 3.48561L3.80482 3.48602L4.58079 4.11679ZM4.05539 2.3877L3.43584 3.17267L3.43608 3.17285L4.05539 2.3877ZM10.8904 10.1134C10.6065 10.3473 10.2013 10.4973 9.73573 10.4976L9.73724 12.4976C10.6218 12.4969 11.4875 12.2127 12.1619 11.6572L10.8904 10.1134ZM9.73656 10.4976C9.21004 10.4976 8.39056 10.2464 7.37491 9.71304C6.38917 9.19541 5.32615 8.46948 4.34569 7.65799C3.36375 6.84528 2.49402 5.9711 1.87989 5.16996C1.22626 4.31729 0.999969 3.724 0.999969 3.43919H-1.00003C-1.00003 4.43445 -0.395973 5.48847 0.292605 6.38673C1.02068 7.33651 2.00501 8.31688 3.07049 9.19873C4.13744 10.0818 5.31519 10.8904 6.44508 11.4837C7.54507 12.0614 8.71608 12.4975 9.7364 12.4976L9.73656 10.4976ZM0.999969 3.43919C0.999969 3.2125 1.10209 2.95692 1.37845 2.72715L0.0998281 1.18926C-0.5769 1.75189 -1.00003 2.54819 -1.00003 3.43919H0.999969ZM1.37674 2.72857C1.83264 2.35124 2.17759 2.24463 2.46068 2.24463V0.244629C1.58693 0.244629 0.806183 0.60463 0.101537 1.18784L1.37674 2.72857ZM2.46068 2.24463C2.84727 2.24463 3.23209 2.45032 3.77437 2.87858L5.01392 1.30902C4.43912 0.855075 3.58233 0.244629 2.46068 0.244629V2.24463ZM3.77473 2.87887C3.99327 3.05129 4.18256 3.24867 4.30793 3.4163C4.37069 3.50022 4.40469 3.55972 4.41903 3.58991C4.4411 3.63641 4.40026 3.57509 4.40026 3.43906H6.40026C6.40026 3.14842 6.30415 2.89729 6.22572 2.7321C6.13955 2.5506 6.02779 2.37657 5.90954 2.21845C5.67288 1.90202 5.35911 1.58138 5.01356 1.30874L3.77473 2.87887ZM4.40026 3.43906C4.40026 3.44095 4.40289 3.44592 4.38584 3.47761C4.37508 3.49764 4.35767 3.52549 4.32822 3.56554C4.29725 3.60767 4.26259 3.65059 4.21208 3.71268L5.76357 4.97477C5.93794 4.76042 6.40026 4.23459 6.40026 3.43906H4.40026ZM4.21176 3.71308C4.06645 3.89188 3.5172 4.48785 3.75583 5.36366C3.85405 5.72415 4.06402 6.04412 4.3115 6.33421C4.56426 6.63049 4.90619 6.95292 5.34493 7.31605L6.62013 5.77532C6.22661 5.44961 5.9813 5.20995 5.83303 5.03616C5.67948 4.85618 5.67464 4.79811 5.68548 4.83788C5.70793 4.92026 5.69575 5.02661 5.66279 5.09964C5.6537 5.11979 5.65114 5.11313 5.76389 4.97437L4.21176 3.71308ZM5.34493 7.31605C5.80537 7.69714 6.23813 8.00773 6.64182 8.22723C7.0324 8.43959 7.47882 8.61299 7.94543 8.61299V6.61299C7.95892 6.61299 7.85782 6.61188 7.59719 6.47016C7.34968 6.33559 7.02755 6.11252 6.62013 5.77532L5.34493 7.31605ZM7.94543 8.61299C8.50442 8.61299 8.92859 8.35491 9.13043 8.24238L8.15647 6.49555C8.09522 6.5297 8.05234 6.55349 8.01266 6.57399C7.97461 6.59365 7.95077 6.60433 7.93539 6.61042C7.91124 6.61998 7.9216 6.61299 7.94543 6.61299V8.61299ZM9.12149 8.2473L9.12202 8.24701L8.16595 6.49033L8.16541 6.49062L9.12149 8.2473ZM9.13017 8.24253C9.40999 8.08684 9.53667 8.02786 9.73648 8.02786V6.02786C8.97639 6.02786 8.45227 6.33098 8.1578 6.49481L9.13017 8.24253ZM9.73648 8.02786C9.68336 8.02786 9.686 8.0183 9.76263 8.04323C9.82923 8.06491 9.92077 8.10257 10.0312 8.15915C10.2538 8.2732 10.4998 8.43661 10.7069 8.61615L12.0171 7.10501C11.6857 6.81769 11.3054 6.56474 10.9431 6.37914C10.6199 6.21356 10.171 6.02786 9.73648 6.02786V8.02786ZM10.7063 8.61558L10.7069 8.61613L12.0184 7.10613L12.0177 7.10558L10.7063 8.61558ZM10.707 8.61617C10.8749 8.76201 11.0259 8.89464 11.156 9.04048C11.287 9.18721 11.3522 9.29947 11.3785 9.37768C11.3971 9.43257 11.4005 9.47488 11.3737 9.54584C11.3387 9.6385 11.2279 9.83419 10.8886 10.1149L12.1636 11.6558C12.6742 11.2333 13.0493 10.7701 13.2448 10.2523C13.4485 9.71282 13.427 9.19307 13.2736 8.73843C12.9996 7.92606 12.2982 7.34913 12.0183 7.10609L10.707 8.61617ZM2.46053 0.65091C1.7054 0.65091 1.03743 0.987698 0.448861 1.47452L1.72358 3.01565C2.10198 2.70267 2.33254 2.65091 2.46053 2.65091V0.65091ZM0.44665 1.47636C-0.137416 1.96229 -0.509152 2.65679 -0.509152 3.43919H1.49085C1.49085 3.32024 1.54233 3.16646 1.72579 3.01382L0.44665 1.47636ZM-0.509152 3.43919C-0.509152 3.90818 -0.35879 4.37371 -0.161064 4.79236C0.0417253 5.22173 0.325555 5.66694 0.664096 6.11286C1.34147 7.00508 2.29008 7.9684 3.41515 8.9015L4.69192 7.36206C3.65265 6.50012 2.81992 5.64493 2.25704 4.9035C1.97545 4.5326 1.77442 4.20721 1.64738 3.93823C1.51528 3.65854 1.49085 3.49798 1.49085 3.43919H-0.509152ZM3.41513 8.90148C4.54355 9.83742 5.70165 10.6193 6.76404 11.1726C7.7943 11.7092 8.84831 12.0913 9.73648 12.0913V10.0913C9.33974 10.0913 8.63598 9.89255 7.68786 9.39877C6.77185 8.92171 5.73094 8.22385 4.69194 7.36208L3.41513 8.90148ZM9.73695 12.0913C10.491 12.091 11.2338 11.8484 11.8152 11.3698L10.5439 9.8258C10.3528 9.98317 10.0704 10.0912 9.73601 10.0913L9.73695 12.0913ZM11.8171 11.3682C12.5773 10.739 13.0727 9.94007 12.8375 8.99975C12.7373 8.59937 12.5226 8.277 12.3183 8.03288C12.113 7.78751 11.8732 7.56891 11.6622 7.38581L10.3514 8.89637C10.5445 9.06394 10.6853 9.19777 10.7845 9.3163C10.8847 9.43608 10.8982 9.48908 10.8973 9.48522C10.8894 9.4537 10.9017 9.4263 10.8919 9.44707C10.8703 9.49272 10.79 9.62211 10.5419 9.82742L11.8171 11.3682ZM11.6622 7.38589C11.3286 7.09627 10.9828 6.87584 10.6879 6.72418C10.5404 6.64835 10.3952 6.58433 10.2605 6.53664C10.1605 6.50124 9.95791 6.43415 9.73648 6.43415V8.43415C9.64625 8.43415 9.58785 8.4194 9.58546 8.41884C9.57358 8.41604 9.57548 8.41576 9.59304 8.42198C9.62783 8.4343 9.68993 8.45995 9.77331 8.50282C9.94003 8.58855 10.15 8.72159 10.3513 8.8963L11.6622 7.38589ZM9.73648 6.43415C9.117 6.43415 8.68256 6.69226 8.43111 6.83223L9.40384 8.57973C9.54657 8.50029 9.60549 8.46956 9.65697 8.44998C9.68969 8.43753 9.70844 8.43415 9.73648 8.43415V6.43415ZM8.43515 6.82999L8.43487 6.83014L9.39952 8.58212L9.3998 8.58197L8.43515 6.82999ZM8.43075 6.83242C8.16106 6.98258 8.06788 7.01927 7.94543 7.01927V9.01927C8.6417 9.01927 9.14606 8.72326 9.40364 8.57984L8.43075 6.83242ZM7.94543 7.01927C7.72163 7.01927 7.25035 6.87133 6.27326 6.06251L4.99794 7.60314C6.00317 8.43527 6.95721 9.01927 7.94543 9.01927V7.01927ZM6.2732 6.06246C5.84772 5.71031 5.57574 5.43962 5.40696 5.23349C5.23622 5.02497 5.20571 4.92422 5.20262 4.91188C5.20212 4.90987 5.20522 4.92282 5.20348 4.94456C5.2018 4.96549 5.19704 4.97699 5.19818 4.97412C5.20644 4.95348 5.23804 4.8936 5.35675 4.74757L3.80482 3.48602C3.52023 3.83612 3.03411 4.48573 3.26255 5.3978C3.45141 6.15182 4.08712 6.84929 4.998 7.60319L6.2732 6.06246ZM5.35642 4.74798C5.49645 4.5759 5.90938 4.12127 5.90938 3.43893H3.90938C3.90938 3.41215 3.91345 3.38256 3.92149 3.35451C3.9291 3.32792 3.93725 3.31324 3.93711 3.3135C3.93606 3.31538 3.92833 3.32873 3.90528 3.3596C3.88086 3.39231 3.85174 3.42836 3.80516 3.48561L5.35642 4.74798ZM5.90938 3.43893C5.90938 3.26209 5.8656 3.11951 5.84143 3.04916C5.81228 2.96431 5.77682 2.8873 5.74328 2.82236C5.67579 2.6917 5.58928 2.55847 5.49247 2.4295C5.2974 2.1696 5.02331 1.87753 4.67469 1.60255L3.43608 3.17285C3.64831 3.34025 3.80121 3.50791 3.89293 3.6301C3.93951 3.69217 3.96134 3.73056 3.96634 3.74023C3.96904 3.74547 3.96087 3.7308 3.94994 3.69899C3.94428 3.68251 3.9354 3.65427 3.92743 3.61643C3.91994 3.58089 3.90938 3.51888 3.90938 3.43893H5.90938ZM4.67493 1.60274C4.24715 1.26511 3.46043 0.65091 2.46053 0.65091V2.65091C2.68128 2.65091 2.96016 2.79723 3.43584 3.17267L4.67493 1.60274Z" fill="url(#paint1_linear)" mask="url(#path-1-inside-1)"/>
<mask id="path-3-inside-2" fill="white">
<path d="M7.18265 2.88885C8.90234 2.9886 10.2808 4.12938 10.4013 5.55284C10.4109 5.66471 10.5199 5.75578 10.6553 5.75578C10.7908 5.75578 10.9016 5.66471 10.8933 5.55271C10.7712 3.90526 9.17313 2.5827 7.18265 2.48167C7.04733 2.47491 6.93759 2.56663 6.93759 2.6785C6.93759 2.79088 7.04763 2.88107 7.18265 2.88885Z"/>
</mask>
<path d="M7.18265 2.88885C8.90234 2.9886 10.2808 4.12938 10.4013 5.55284C10.4109 5.66471 10.5199 5.75578 10.6553 5.75578C10.7908 5.75578 10.9016 5.66471 10.8933 5.55271C10.7712 3.90526 9.17313 2.5827 7.18265 2.48167C7.04733 2.47491 6.93759 2.56663 6.93759 2.6785C6.93759 2.79088 7.04763 2.88107 7.18265 2.88885Z" fill="url(#paint2_linear)"/>
<path d="M7.18265 2.88885L7.24055 1.89053L7.24018 1.89051L7.18265 2.88885ZM10.4013 5.55284L9.4049 5.6372L9.40496 5.63794L10.4013 5.55284ZM10.8933 5.55271L9.89602 5.6266L9.89604 5.62681L10.8933 5.55271ZM7.18265 2.48167L7.23334 1.48296L7.23254 1.48292L7.18265 2.48167ZM7.12474 3.88717C8.49656 3.96675 9.3378 4.84468 9.4049 5.6372L11.3978 5.46847C11.2238 3.41409 9.30812 2.01046 7.24055 1.89053L7.12474 3.88717ZM9.40496 5.63794C9.46792 6.37509 10.1164 6.75578 10.6553 6.75578V4.75578C10.9233 4.75578 11.3539 4.95433 11.3977 5.46773L9.40496 5.63794ZM10.6553 6.75578C11.1206 6.75578 11.9586 6.39455 11.8905 5.4786L9.89604 5.62681C9.87231 5.30742 10.0278 5.06313 10.1835 4.93182C10.3339 4.80501 10.5055 4.75578 10.6553 4.75578V6.75578ZM11.8906 5.47882C11.7209 3.18936 9.57433 1.60178 7.23334 1.48296L7.13196 3.48039C8.77194 3.56363 9.82153 4.62115 9.89602 5.6266L11.8906 5.47882ZM7.23254 1.48292C6.68147 1.45539 5.93759 1.85023 5.93759 2.6785H7.93759C7.93759 3.28303 7.41318 3.49444 7.13275 3.48043L7.23254 1.48292ZM5.93759 2.6785C5.93759 3.51329 6.67741 3.86139 7.12511 3.88719L7.24018 1.89051C7.37234 1.89812 7.52201 1.9466 7.65551 2.05958C7.79229 2.17535 7.93759 2.38818 7.93759 2.6785H5.93759Z" fill="url(#paint3_linear)" mask="url(#path-3-inside-2)"/>
<mask id="path-5-inside-3" fill="white">
<path d="M7.18265 0.423865C10.5428 0.528337 13.2534 2.7715 13.3794 5.55246C13.3844 5.66459 13.4938 5.75566 13.6296 5.75566C13.765 5.75566 13.8754 5.66459 13.8706 5.55246C13.7439 2.54763 10.8135 0.122311 7.18265 0.0173279C7.04733 0.0135011 6.93759 0.104835 6.93759 0.216833C6.93759 0.329215 7.04733 0.419528 7.18265 0.423865Z"/>
</mask>
<path d="M7.18265 0.423865C10.5428 0.528337 13.2534 2.7715 13.3794 5.55246C13.3844 5.66459 13.4938 5.75566 13.6296 5.75566C13.765 5.75566 13.8754 5.66459 13.8706 5.55246C13.7439 2.54763 10.8135 0.122311 7.18265 0.0173279C7.04733 0.0135011 6.93759 0.104835 6.93759 0.216833C6.93759 0.329215 7.04733 0.419528 7.18265 0.423865Z" fill="url(#paint4_linear)"/>
<path d="M7.18265 0.423865L7.15061 1.42335L7.15157 1.42338L7.18265 0.423865ZM13.3794 5.55246L14.3785 5.50852L14.3784 5.50717L13.3794 5.55246ZM13.8706 5.55246L12.8715 5.59458L12.8715 5.59503L13.8706 5.55246ZM7.18265 0.0173279L7.21155 -0.982255L7.21091 -0.982272L7.18265 0.0173279ZM7.15157 1.42338C10.1545 1.51675 12.2849 3.48919 12.3805 5.59775L14.3784 5.50717C14.2219 2.05381 10.9312 -0.460071 7.21372 -0.575652L7.15157 1.42338ZM12.3804 5.5964C12.4149 6.38023 13.1073 6.75566 13.6296 6.75566V4.75566C13.8802 4.75566 14.3539 4.94894 14.3785 5.50852L12.3804 5.5964ZM13.6296 6.75566C14.1123 6.75566 14.9072 6.38988 14.8697 5.50989L12.8715 5.59503C12.8585 5.28885 13.0089 5.05652 13.1606 4.92945C13.3086 4.80558 13.4785 4.75566 13.6296 4.75566V6.75566ZM14.8697 5.51034C14.7146 1.82975 11.2004 -0.866919 7.21155 -0.982254L7.15374 1.01691C10.4265 1.11154 12.7733 3.26551 12.8715 5.59458L14.8697 5.51034ZM7.21091 -0.982272C6.68066 -0.997268 5.93759 -0.613494 5.93759 0.216833H7.93759C7.93759 0.504165 7.79461 0.723 7.64334 0.847008C7.49335 0.969963 7.3169 1.02152 7.15438 1.01693L7.21091 -0.982272ZM5.93759 0.216833C5.93759 1.05116 6.67845 1.40822 7.15061 1.42335L7.21468 -0.575622C7.35528 -0.571116 7.51291 -0.521885 7.65171 -0.40556C7.79356 -0.286678 7.93759 -0.0718493 7.93759 0.216833H5.93759Z" fill="url(#paint5_linear)" mask="url(#path-5-inside-3)"/>
<defs>
<linearGradient id="paint0_linear" x1="-3.05637e-05" y1="6.37112" x2="12.3931" y2="6.37112" gradientUnits="userSpaceOnUse">
<stop stop-color="#1AAAFF"/>
<stop offset="1" stop-color="#5EEDFD"/>
</linearGradient>
<linearGradient id="paint1_linear" x1="-3.05176e-05" y1="6.37112" x2="12.3931" y2="6.37112" gradientUnits="userSpaceOnUse">
<stop stop-color="#1AAAFF"/>
<stop offset="1" stop-color="#5EEDFD"/>
</linearGradient>
<linearGradient id="paint2_linear" x1="6.93759" y1="4.11855" x2="10.8937" y2="4.11855" gradientUnits="userSpaceOnUse">
<stop stop-color="#1AAAFF"/>
<stop offset="1" stop-color="#5EEDFD"/>
</linearGradient>
<linearGradient id="paint3_linear" x1="6.93759" y1="4.11855" x2="10.8937" y2="4.11855" gradientUnits="userSpaceOnUse">
<stop stop-color="#1AAAFF"/>
<stop offset="1" stop-color="#5EEDFD"/>
</linearGradient>
<linearGradient id="paint4_linear" x1="6.93759" y1="2.88644" x2="13.8708" y2="2.88644" gradientUnits="userSpaceOnUse">
<stop stop-color="#1AAAFF"/>
<stop offset="1" stop-color="#5EEDFD"/>
</linearGradient>
<linearGradient id="paint5_linear" x1="6.93759" y1="2.88644" x2="13.8708" y2="2.88644" gradientUnits="userSpaceOnUse">
<stop stop-color="#1AAAFF"/>
<stop offset="1" stop-color="#5EEDFD"/>
</linearGradient>
</defs>
</svg>
