<svg width="24" height="23" viewBox="0 0 24 23" fill="none" xmlns="http://www.w3.org/2000/svg">
<mask id="path-1-inside-1" fill="white">
<path fill-rule="evenodd" clip-rule="evenodd" d="M4.57141 19.0186H2.48163C1.52373 19.0186 0.744507 18.2332 0.744507 17.2684V11.6097C0.744507 10.6448 1.52373 9.85974 2.48163 9.85974H4.57141C5.52931 9.85974 6.30854 10.6448 6.30854 11.6097V17.2684C6.30854 18.2332 5.52931 19.0186 4.57141 19.0186ZM2.48163 10.728C1.9989 10.728 1.60654 11.1236 1.60654 11.6097V17.2684C1.60654 17.7548 1.9989 18.1501 2.48163 18.1501H4.57141C5.05415 18.1501 5.44651 17.7548 5.44651 17.2684V11.6097C5.44651 11.1236 5.05415 10.728 4.57141 10.728H2.48163Z"/>
</mask>
<path fill-rule="evenodd" clip-rule="evenodd" d="M4.57141 19.0186H2.48163C1.52373 19.0186 0.744507 18.2332 0.744507 17.2684V11.6097C0.744507 10.6448 1.52373 9.85974 2.48163 9.85974H4.57141C5.52931 9.85974 6.30854 10.6448 6.30854 11.6097V17.2684C6.30854 18.2332 5.52931 19.0186 4.57141 19.0186ZM2.48163 10.728C1.9989 10.728 1.60654 11.1236 1.60654 11.6097V17.2684C1.60654 17.7548 1.9989 18.1501 2.48163 18.1501H4.57141C5.05415 18.1501 5.44651 17.7548 5.44651 17.2684V11.6097C5.44651 11.1236 5.05415 10.728 4.57141 10.728H2.48163Z" fill="url(#paint0_linear)"/>
<path d="M4.57141 18.0186H2.48163V20.0186H4.57141V18.0186ZM2.48163 18.0186C2.08319 18.0186 1.74451 17.6882 1.74451 17.2684H-0.255493C-0.255493 18.7783 0.964275 20.0186 2.48163 20.0186V18.0186ZM1.74451 17.2684V11.6097H-0.255493V17.2684H1.74451ZM1.74451 11.6097C1.74451 11.1901 2.083 10.8597 2.48163 10.8597V8.85974C0.96447 8.85974 -0.255493 10.0996 -0.255493 11.6097H1.74451ZM2.48163 10.8597H4.57141V8.85974H2.48163V10.8597ZM4.57141 10.8597C4.97005 10.8597 5.30854 11.1901 5.30854 11.6097H7.30854C7.30854 10.0996 6.08858 8.85974 4.57141 8.85974V10.8597ZM5.30854 11.6097V17.2684H7.30854V11.6097H5.30854ZM5.30854 17.2684C5.30854 17.6882 4.96986 18.0186 4.57141 18.0186V20.0186C6.08877 20.0186 7.30854 18.7783 7.30854 17.2684H5.30854ZM2.48163 9.72802C1.43934 9.72802 0.60654 10.5786 0.60654 11.6097H2.60654C2.60654 11.6686 2.55845 11.728 2.48163 11.728V9.72802ZM0.60654 11.6097V17.2684H2.60654V11.6097H0.60654ZM0.60654 17.2684C0.60654 18.2999 1.43954 19.1501 2.48163 19.1501V17.1501C2.55826 17.1501 2.60654 17.2096 2.60654 17.2684H0.60654ZM2.48163 19.1501H4.57141V17.1501H2.48163V19.1501ZM4.57141 19.1501C5.61351 19.1501 6.44651 18.2999 6.44651 17.2684H4.44651C4.44651 17.2096 4.49479 17.1501 4.57141 17.1501V19.1501ZM6.44651 17.2684V11.6097H4.44651V17.2684H6.44651ZM6.44651 11.6097C6.44651 10.5786 5.6137 9.72802 4.57141 9.72802V11.728C4.4946 11.728 4.44651 11.6686 4.44651 11.6097H6.44651ZM4.57141 9.72802H2.48163V11.728H4.57141V9.72802Z" fill="url(#paint1_linear)" mask="url(#path-1-inside-1)"/>
<mask id="path-3-inside-2" fill="white">
<path fill-rule="evenodd" clip-rule="evenodd" d="M12.7999 19.019H10.7101C9.75225 19.019 8.97302 18.2336 8.97302 17.2687V6.87255C8.97302 5.90742 9.75225 5.12231 10.7101 5.12231H12.7999C13.7578 5.12231 14.5371 5.90742 14.5371 6.87255V17.2687C14.5371 18.2336 13.7578 19.019 12.7999 19.019ZM10.7101 5.99085C10.2274 5.99085 9.83506 6.38643 9.83506 6.87255V17.2687C9.83506 17.7551 10.2274 18.1504 10.7101 18.1504H12.7999C13.2827 18.1504 13.675 17.7551 13.675 17.2687V6.87255C13.675 6.38643 13.2827 5.99085 12.7999 5.99085H10.7101Z"/>
</mask>
<path fill-rule="evenodd" clip-rule="evenodd" d="M12.7999 19.019H10.7101C9.75225 19.019 8.97302 18.2336 8.97302 17.2687V6.87255C8.97302 5.90742 9.75225 5.12231 10.7101 5.12231H12.7999C13.7578 5.12231 14.5371 5.90742 14.5371 6.87255V17.2687C14.5371 18.2336 13.7578 19.019 12.7999 19.019ZM10.7101 5.99085C10.2274 5.99085 9.83506 6.38643 9.83506 6.87255V17.2687C9.83506 17.7551 10.2274 18.1504 10.7101 18.1504H12.7999C13.2827 18.1504 13.675 17.7551 13.675 17.2687V6.87255C13.675 6.38643 13.2827 5.99085 12.7999 5.99085H10.7101Z" fill="url(#paint2_linear)"/>
<path d="M12.7999 18.019H10.7101V20.019H12.7999V18.019ZM10.7101 18.019C10.3117 18.019 9.97302 17.6885 9.97302 17.2687H7.97302C7.97302 18.7787 9.19279 20.019 10.7101 20.019V18.019ZM9.97302 17.2687V6.87255H7.97302V17.2687H9.97302ZM9.97302 6.87255C9.97302 6.4526 10.3116 6.12231 10.7101 6.12231V4.12231C9.19289 4.12231 7.97302 5.36224 7.97302 6.87255H9.97302ZM10.7101 6.12231H12.7999V4.12231H10.7101V6.12231ZM12.7999 6.12231C13.1985 6.12231 13.5371 6.4526 13.5371 6.87255H15.5371C15.5371 5.36224 14.3172 4.12231 12.7999 4.12231V6.12231ZM13.5371 6.87255V17.2687H15.5371V6.87255H13.5371ZM13.5371 17.2687C13.5371 17.6885 13.1984 18.019 12.7999 18.019V20.019C14.3173 20.019 15.5371 18.7787 15.5371 17.2687H13.5371ZM10.7101 4.99085C9.66786 4.99085 8.83506 5.84145 8.83506 6.87255H10.8351C10.8351 6.93142 10.787 6.99085 10.7101 6.99085V4.99085ZM8.83506 6.87255V17.2687H10.8351V6.87255H8.83506ZM8.83506 17.2687C8.83506 18.3003 9.66805 19.1504 10.7101 19.1504V17.1504C10.7868 17.1504 10.8351 17.2099 10.8351 17.2687H8.83506ZM10.7101 19.1504H12.7999V17.1504H10.7101V19.1504ZM12.7999 19.1504C13.842 19.1504 14.675 18.3003 14.675 17.2687H12.675C12.675 17.2099 12.7233 17.1504 12.7999 17.1504V19.1504ZM14.675 17.2687V6.87255H12.675V17.2687H14.675ZM14.675 6.87255C14.675 5.84145 13.8422 4.99085 12.7999 4.99085V6.99085C12.7231 6.99085 12.675 6.93142 12.675 6.87255H14.675ZM12.7999 4.99085H10.7101V6.99085H12.7999V4.99085Z" fill="url(#paint3_linear)" mask="url(#path-3-inside-2)"/>
<mask id="path-5-inside-3" fill="white">
<path fill-rule="evenodd" clip-rule="evenodd" d="M21.0283 19.0186H18.9385C17.9806 19.0186 17.2014 18.2333 17.2014 17.2684V2.13476C17.2014 1.16963 17.9806 0.384521 18.9385 0.384521H21.0283C21.9862 0.384521 22.7655 1.16963 22.7655 2.13476V17.2684C22.7655 18.2333 21.9862 19.0186 21.0283 19.0186ZM18.9385 1.25306C18.4558 1.25306 18.0635 1.64864 18.0635 2.13476V17.2684C18.0635 17.7548 18.4558 18.1501 18.9385 18.1501H21.0283C21.5111 18.1501 21.9034 17.7548 21.9034 17.2684V2.13476C21.9034 1.64864 21.5111 1.25306 21.0283 1.25306H18.9385Z"/>
</mask>
<path fill-rule="evenodd" clip-rule="evenodd" d="M21.0283 19.0186H18.9385C17.9806 19.0186 17.2014 18.2333 17.2014 17.2684V2.13476C17.2014 1.16963 17.9806 0.384521 18.9385 0.384521H21.0283C21.9862 0.384521 22.7655 1.16963 22.7655 2.13476V17.2684C22.7655 18.2333 21.9862 19.0186 21.0283 19.0186ZM18.9385 1.25306C18.4558 1.25306 18.0635 1.64864 18.0635 2.13476V17.2684C18.0635 17.7548 18.4558 18.1501 18.9385 18.1501H21.0283C21.5111 18.1501 21.9034 17.7548 21.9034 17.2684V2.13476C21.9034 1.64864 21.5111 1.25306 21.0283 1.25306H18.9385Z" fill="url(#paint4_linear)"/>
<path d="M21.0283 18.0186H18.9385V20.0186H21.0283V18.0186ZM18.9385 18.0186C18.5401 18.0186 18.2014 17.6882 18.2014 17.2684H16.2014C16.2014 18.7784 17.4212 20.0186 18.9385 20.0186V18.0186ZM18.2014 17.2684V2.13476H16.2014V17.2684H18.2014ZM18.2014 2.13476C18.2014 1.71481 18.54 1.38452 18.9385 1.38452V-0.615479C17.4213 -0.615479 16.2014 0.624448 16.2014 2.13476H18.2014ZM18.9385 1.38452H21.0283V-0.615479H18.9385V1.38452ZM21.0283 1.38452C21.4269 1.38452 21.7655 1.71481 21.7655 2.13476H23.7655C23.7655 0.624448 22.5456 -0.615479 21.0283 -0.615479V1.38452ZM21.7655 2.13476V17.2684H23.7655V2.13476H21.7655ZM21.7655 17.2684C21.7655 17.6882 21.4268 18.0186 21.0283 18.0186V20.0186C22.5457 20.0186 23.7655 18.7784 23.7655 17.2684H21.7655ZM18.9385 0.253062C17.8963 0.253062 17.0635 1.10366 17.0635 2.13476H19.0635C19.0635 2.19363 19.0154 2.25306 18.9385 2.25306V0.253062ZM17.0635 2.13476V17.2684H19.0635V2.13476H17.0635ZM17.0635 17.2684C17.0635 18.3 17.8964 19.1501 18.9385 19.1501V17.1501C19.0152 17.1501 19.0635 17.2096 19.0635 17.2684H17.0635ZM18.9385 19.1501H21.0283V17.1501H18.9385V19.1501ZM21.0283 19.1501C22.0704 19.1501 22.9034 18.3 22.9034 17.2684H20.9034C20.9034 17.2096 20.9517 17.1501 21.0283 17.1501V19.1501ZM22.9034 17.2684V2.13476H20.9034V17.2684H22.9034ZM22.9034 2.13476C22.9034 1.10366 22.0706 0.253062 21.0283 0.253062V2.25306C20.9515 2.25306 20.9034 2.19363 20.9034 2.13476H22.9034ZM21.0283 0.253062H18.9385V2.25306H21.0283V0.253062Z" fill="url(#paint5_linear)" mask="url(#path-5-inside-3)"/>
<mask id="path-7-inside-4" fill="white">
<path d="M23.079 21.7034H0.431017C0.192782 21.7034 0 21.8976 0 22.1376C0 22.3777 0.192782 22.5719 0.431017 22.5719H23.079C23.3172 22.5719 23.51 22.3777 23.51 22.1376C23.51 21.8976 23.3172 21.7034 23.079 21.7034Z"/>
</mask>
<path d="M23.079 21.7034H0.431017C0.192782 21.7034 0 21.8976 0 22.1376C0 22.3777 0.192782 22.5719 0.431017 22.5719H23.079C23.3172 22.5719 23.51 22.3777 23.51 22.1376C23.51 21.8976 23.3172 21.7034 23.079 21.7034Z" fill="url(#paint6_linear)"/>
<path d="M23.079 20.7034H0.431017V22.7034H23.079V20.7034ZM0.431017 20.7034C-0.36658 20.7034 -1 21.3524 -1 22.1376H1C1 22.4428 0.752144 22.7034 0.431017 22.7034V20.7034ZM-1 22.1376C-1 22.9229 -0.36658 23.5719 0.431017 23.5719V21.5719C0.752144 21.5719 1 21.8325 1 22.1376H-1ZM0.431017 23.5719H23.079V21.5719H0.431017V23.5719ZM23.079 23.5719C23.8766 23.5719 24.51 22.9229 24.51 22.1376H22.51C22.51 21.8325 22.7579 21.5719 23.079 21.5719V23.5719ZM24.51 22.1376C24.51 21.3524 23.8766 20.7034 23.079 20.7034V22.7034C22.7579 22.7034 22.51 22.4428 22.51 22.1376H24.51Z" fill="url(#paint7_linear)" mask="url(#path-7-inside-4)"/>
<defs>
<linearGradient id="paint0_linear" x1="0.744507" y1="14.4392" x2="6.30854" y2="14.4392" gradientUnits="userSpaceOnUse">
<stop stop-color="#1AAAFF"/>
<stop offset="1" stop-color="$second-color"/>
</linearGradient>
<linearGradient id="paint1_linear" x1="0.744507" y1="14.4392" x2="6.30854" y2="14.4392" gradientUnits="userSpaceOnUse">
<stop stop-color="#1AAAFF"/>
<stop offset="1" stop-color="$second-color"/>
</linearGradient>
<linearGradient id="paint2_linear" x1="8.97302" y1="12.0706" x2="14.5371" y2="12.0706" gradientUnits="userSpaceOnUse">
<stop stop-color="#1AAAFF"/>
<stop offset="1" stop-color="$second-color"/>
</linearGradient>
<linearGradient id="paint3_linear" x1="8.97302" y1="12.0706" x2="14.5371" y2="12.0706" gradientUnits="userSpaceOnUse">
<stop stop-color="#1AAAFF"/>
<stop offset="1" stop-color="$second-color"/>
</linearGradient>
<linearGradient id="paint4_linear" x1="17.2014" y1="9.70158" x2="22.7654" y2="9.70158" gradientUnits="userSpaceOnUse">
<stop stop-color="#1AAAFF"/>
<stop offset="1" stop-color="$second-color"/>
</linearGradient>
<linearGradient id="paint5_linear" x1="17.2014" y1="9.70158" x2="22.7655" y2="9.70158" gradientUnits="userSpaceOnUse">
<stop stop-color="#1AAAFF"/>
<stop offset="1" stop-color="$second-color"/>
</linearGradient>
<linearGradient id="paint6_linear" x1="-8.75816e-08" y1="22.1376" x2="23.51" y2="22.1376" gradientUnits="userSpaceOnUse">
<stop stop-color="#1AAAFF"/>
<stop offset="1" stop-color="$second-color"/>
</linearGradient>
<linearGradient id="paint7_linear" x1="0" y1="22.1376" x2="23.51" y2="22.1376" gradientUnits="userSpaceOnUse">
<stop stop-color="#1AAAFF"/>
<stop offset="1" stop-color="$second-color"/>
</linearGradient>
</defs>
</svg>
