<svg width="37" height="35" viewBox="0 0 37 35" fill="none" xmlns="http://www.w3.org/2000/svg">
<path fill-rule="evenodd" clip-rule="evenodd" d="M0 17.5C0 7.85043 8.29903 0 18.5 0C28.701 0 37 7.85043 37 17.5C37 27.1498 28.701 35 18.5 35C8.29903 35 0 27.1498 0 17.5ZM1.64445 17.5C1.64445 26.0142 8.96726 32.9412 17.968 32.9412C26.9687 32.9412 34.2915 26.0142 34.2915 17.5C34.2915 8.98608 26.9687 2.05882 17.968 2.05882C8.96726 2.05882 1.64445 8.98608 1.64445 17.5ZM19.5888 7.20588H20.1329C23.4327 7.20588 26.1182 9.7462 26.1182 12.8676V14.4118H23.9418V12.8676C23.9418 10.8807 22.2334 9.26471 20.1329 9.26471H16.8682C14.7678 9.26471 13.0594 10.8807 13.0594 12.8676C13.0594 14.8545 14.7678 16.4706 16.8682 16.4706H20.1329C23.4327 16.4706 26.1182 19.0109 26.1182 22.1324C26.1182 25.2538 23.4327 27.7941 20.1329 27.7941H19.5888V30.8824H17.4123V27.7941H16.8682C13.5684 27.7941 10.8829 25.2538 10.8829 22.1324V20.5882H13.0594V22.1324C13.0594 24.1193 14.7678 25.7353 16.8682 25.7353H20.1329C22.2334 25.7353 23.9418 24.1193 23.9418 22.1324C23.9418 20.1455 22.2334 18.5294 20.1329 18.5294H16.8682C13.5684 18.5294 10.8829 15.9891 10.8829 12.8676C10.8829 9.7462 13.5684 7.20588 16.8682 7.20588H17.4123V4.11765H19.5888V7.20588Z" fill="url(#paint0_linear)"/>
<defs>
<linearGradient id="paint0_linear" x1="18.5" y1="0" x2="18.5" y2="35" gradientUnits="userSpaceOnUse">
<stop stop-color="#1AAAFF"/>
<stop offset="1" stop-color="#5EEDFD"/>
</linearGradient>
</defs>
</svg>
