<svg width="17" height="16" viewBox="0 0 17 16" fill="none" xmlns="http://www.w3.org/2000/svg">
<path d="M0.340057 16.0001H16.2875C16.4754 16.0001 16.6278 15.8732 16.6278 15.7171C16.6278 15.5607 16.4754 15.4341 16.2875 15.4341H0.340057C0.152409 15.4341 0 15.5607 0 15.7171C0 15.8732 0.152409 16.0001 0.340057 16.0001Z" fill="#1AAAFF"/>
<path d="M2.66322 6.22218C2.73302 6.22218 2.8035 6.2044 2.86388 6.16742L10.6825 1.39779L10.219 3.9811C10.1914 4.13576 10.3198 4.27959 10.5052 4.3027C10.522 4.30483 10.5391 4.3059 10.5561 4.3059C10.7216 4.3059 10.867 4.20492 10.8919 4.06465L11.445 0.979471C11.4668 0.859648 11.4306 0.739825 11.3435 0.642046C11.2567 0.544445 11.1294 0.480801 10.9853 0.463023L7.27699 0.00310698C7.09203 -0.0198266 6.9183 0.0866631 6.89047 0.241154C6.86264 0.395822 6.99058 0.539823 7.17666 0.562757L10.2711 0.94676L2.46143 5.71124C2.31014 5.80369 2.27759 5.98076 2.3887 6.1068C2.45514 6.18218 2.55862 6.22218 2.66322 6.22218Z" fill="#1AAAFF"/>
<path fill-rule="evenodd" clip-rule="evenodd" d="M14.6661 14.198H13.1254C12.4828 14.198 11.9602 13.7632 11.9604 13.2291V5.40273C11.9604 4.86833 12.483 4.43384 13.1254 4.43384H14.6661C15.3083 4.43384 15.8308 4.86851 15.8308 5.40273V13.2291C15.8308 13.7632 15.3083 14.198 14.6661 14.198ZM13.1252 4.99971C12.8583 4.99971 12.6406 5.18051 12.6406 5.40273H12.6408V13.2291C12.6408 13.451 12.8585 13.632 13.1254 13.632H14.6661C14.933 13.632 15.1505 13.451 15.1505 13.2291V5.40273C15.1505 5.18051 14.933 4.99971 14.6661 4.99971H13.1252Z" fill="#1AAAFF"/>
<path fill-rule="evenodd" clip-rule="evenodd" d="M7.54365 7.08765H9.08412C9.72607 7.08765 10.2486 7.52232 10.2486 8.05654V13.2292C10.2486 13.7633 9.72607 14.1981 9.08412 14.1981H7.54365C6.90169 14.1981 6.37915 13.7633 6.37915 13.2292V8.05654C6.37915 7.52232 6.90169 7.08765 7.54365 7.08765ZM9.08412 13.6321C9.35122 13.6321 9.56828 13.4511 9.56828 13.2292V8.05654C9.56828 7.83432 9.35122 7.65352 9.08412 7.65352H7.54365C7.27654 7.65352 7.05949 7.83432 7.05949 8.05654V13.2292C7.05949 13.4511 7.27654 13.6321 7.54365 13.6321H9.08412Z" fill="#1AAAFF"/>
<path fill-rule="evenodd" clip-rule="evenodd" d="M3.5022 14.198H1.96196C1.31978 14.198 0.797241 13.7632 0.797241 13.2291V10.7096C0.797241 10.1752 1.31978 9.74072 1.96196 9.74072H3.5022C4.1446 9.74072 4.66715 10.1752 4.66715 10.7096V13.2291C4.66715 13.7632 4.1446 14.198 3.5022 14.198ZM1.96196 10.3066C1.69463 10.3066 1.47713 10.4874 1.47713 10.7096V13.2291C1.47713 13.451 1.69463 13.632 1.96196 13.632H3.5022C3.76953 13.632 3.98681 13.451 3.98681 13.2291V10.7096C3.98681 10.4874 3.76953 10.3066 3.5022 10.3066H1.96196Z" fill="#1AAAFF"/>
</svg>
