<svg width="14" height="12" viewBox="0 0 14 12" fill="none" xmlns="http://www.w3.org/2000/svg">
<mask id="path-1-inside-1" fill="white">
<path fill-rule="evenodd" clip-rule="evenodd" d="M12.252 0H1.748C0.78432 0 0 0.78352 0 1.74656V9.99256C0 9.99389 0.000120103 9.99512 0.000238451 9.99632H0.000238637C0.000353512 9.99748 0.000466672 9.99863 0.000466672 9.99986L0.000933344 10.0075C0.00902232 10.9637 0.789142 11.7394 1.748 11.7394H12.2518C13.2126 11.7394 13.9939 10.9612 13.9994 10.0025C13.9995 10.0011 13.9997 9.99955 13.9997 9.99831C13.9997 9.9978 13.9997 9.99733 13.9997 9.99686C13.9998 9.9964 13.9998 9.99596 13.9998 9.99551C13.9999 9.99462 14 9.99372 14 9.99271V1.74656C14.0002 0.78352 13.216 0 12.252 0ZM12.252 11.2444H1.748C1.08812 11.2444 0.546784 10.7318 0.499806 10.0838L3.54282 6.76724C3.76495 6.52462 4.0602 6.39141 4.37427 6.39141C4.68834 6.39141 4.98343 6.52462 5.20572 6.76724L8.31843 10.16C8.36712 10.2128 8.43385 10.2402 8.50089 10.2402C8.56063 10.2402 8.62067 10.2184 8.66812 10.175C8.76892 10.0827 8.77561 9.92619 8.68336 9.82531L7.94089 9.01599L9.36657 7.50491C9.59322 7.26493 9.89484 7.13266 10.2159 7.13266C10.537 7.13266 10.8385 7.26493 11.0653 7.50491L13.5005 10.0857C13.4523 10.7326 12.9114 11.2444 12.252 11.2444ZM11.4251 7.16576L13.5049 9.3696H13.505V1.74656C13.505 1.0563 12.943 0.494576 12.252 0.494576H1.74815C1.05717 0.494576 0.495294 1.0563 0.495294 1.74656V9.35685L3.17788 6.43276C3.49491 6.08724 3.91973 5.89684 4.37427 5.89684C4.8285 5.89684 5.25348 6.08708 5.57066 6.43276L7.60504 8.65042L9.00614 7.16576C9.32706 6.82522 9.75671 6.63792 10.2156 6.63792C10.6745 6.63792 11.1041 6.82537 11.4251 7.16576Z"/>
</mask>
<path fill-rule="evenodd" clip-rule="evenodd" d="M12.252 0H1.748C0.78432 0 0 0.78352 0 1.74656V9.99256C0 9.99389 0.000120103 9.99512 0.000238451 9.99632H0.000238637C0.000353512 9.99748 0.000466672 9.99863 0.000466672 9.99986L0.000933344 10.0075C0.00902232 10.9637 0.789142 11.7394 1.748 11.7394H12.2518C13.2126 11.7394 13.9939 10.9612 13.9994 10.0025C13.9995 10.0011 13.9997 9.99955 13.9997 9.99831C13.9997 9.9978 13.9997 9.99733 13.9997 9.99686C13.9998 9.9964 13.9998 9.99596 13.9998 9.99551C13.9999 9.99462 14 9.99372 14 9.99271V1.74656C14.0002 0.78352 13.216 0 12.252 0ZM12.252 11.2444H1.748C1.08812 11.2444 0.546784 10.7318 0.499806 10.0838L3.54282 6.76724C3.76495 6.52462 4.0602 6.39141 4.37427 6.39141C4.68834 6.39141 4.98343 6.52462 5.20572 6.76724L8.31843 10.16C8.36712 10.2128 8.43385 10.2402 8.50089 10.2402C8.56063 10.2402 8.62067 10.2184 8.66812 10.175C8.76892 10.0827 8.77561 9.92619 8.68336 9.82531L7.94089 9.01599L9.36657 7.50491C9.59322 7.26493 9.89484 7.13266 10.2159 7.13266C10.537 7.13266 10.8385 7.26493 11.0653 7.50491L13.5005 10.0857C13.4523 10.7326 12.9114 11.2444 12.252 11.2444ZM11.4251 7.16576L13.5049 9.3696H13.505V1.74656C13.505 1.0563 12.943 0.494576 12.252 0.494576H1.74815C1.05717 0.494576 0.495294 1.0563 0.495294 1.74656V9.35685L3.17788 6.43276C3.49491 6.08724 3.91973 5.89684 4.37427 5.89684C4.8285 5.89684 5.25348 6.08708 5.57066 6.43276L7.60504 8.65042L9.00614 7.16576C9.32706 6.82522 9.75671 6.63792 10.2156 6.63792C10.6745 6.63792 11.1041 6.82537 11.4251 7.16576Z" fill="#666666"/>
<path d="M0.000238451 9.99632L-0.994908 10.0947L-0.905752 10.9963H0.000238451V9.99632ZM0.000238637 9.99632L0.995418 9.89825L0.906539 8.99632H0.000238637V9.99632ZM0.000466672 9.99986H-0.999533V10.0305L-0.997662 10.061L0.000466672 9.99986ZM0.000933344 10.0075L1.0009 9.99902L1.00067 9.97265L0.999062 9.94632L0.000933344 10.0075ZM13.9994 10.0025L13.0055 9.89198L12.9997 9.94424L12.9994 9.99682L13.9994 10.0025ZM13.9998 9.99551L14.9945 10.0985L14.9953 10.0907L14.996 10.083L13.9998 9.99551ZM14 1.74656L13 1.7464V1.74656H14ZM0.499806 10.0838L-0.237034 9.40773L-0.528781 9.7257L-0.497577 10.1561L0.499806 10.0838ZM3.54282 6.76724L4.27966 7.44331L4.28038 7.44252L3.54282 6.76724ZM5.20572 6.76724L4.4684 7.44278L4.46886 7.44329L5.20572 6.76724ZM8.31843 10.16L7.58156 10.836L7.58299 10.8375L8.31843 10.16ZM8.66812 10.175L9.34277 10.9132L9.34354 10.9125L8.66812 10.175ZM8.68336 9.82531L9.42133 9.15047L9.42025 9.14929L8.68336 9.82531ZM7.94089 9.01599L7.21353 8.32974L6.57506 9.00645L7.20401 9.69201L7.94089 9.01599ZM9.36657 7.50491L8.63955 6.81829L8.63921 6.81866L9.36657 7.50491ZM11.0653 7.50491L11.7926 6.8186L11.792 6.81804L11.0653 7.50491ZM13.5005 10.0857L14.4977 10.16L14.5305 9.72015L14.2278 9.39935L13.5005 10.0857ZM11.4251 7.16576L10.6974 7.85175L10.6978 7.85211L11.4251 7.16576ZM13.5049 9.3696L12.7776 10.0559L13.0736 10.3696H13.5049V9.3696ZM13.505 9.3696V10.3696H14.505V9.3696H13.505ZM0.495294 9.35685H-0.504706V11.9261L1.23218 10.0329L0.495294 9.35685ZM3.17788 6.43276L2.44104 5.75669L2.441 5.75674L3.17788 6.43276ZM5.57066 6.43276L6.30757 5.75676L6.30748 5.75667L5.57066 6.43276ZM7.60504 8.65042L6.86814 9.32642L7.59467 10.1184L8.33232 9.33677L7.60504 8.65042ZM9.00614 7.16576L9.73342 7.85211L9.73392 7.85158L9.00614 7.16576ZM12.252 -1H1.748V1H12.252V-1ZM1.748 -1C0.232869 -1 -1 0.230402 -1 1.74656H1C1 1.33664 1.33577 1 1.748 1V-1ZM-1 1.74656V9.99256H1V1.74656H-1ZM-1 9.99256C-1 10.0232 -0.998617 10.0486 -0.997353 10.0662C-0.996727 10.0749 -0.996102 10.082 -0.995671 10.0867C-0.995273 10.0911 -0.994908 10.0947 -0.994908 10.0947L0.995385 9.89791C0.995188 9.89592 0.996447 9.90812 0.997503 9.92281C0.998678 9.93916 1 9.96328 1 9.99256H-1ZM0.000238451 10.9963H0.000238637V8.99632H0.000238451V10.9963ZM-0.994941 10.0944C-0.994688 10.097 -0.995933 10.0849 -0.996972 10.0706C-0.998142 10.0545 -0.999533 10.0299 -0.999533 9.99986H1.00047C1.00047 9.96859 0.999019 9.94283 0.997763 9.92555C0.997141 9.91699 0.996524 9.91 0.996117 9.90558C0.995911 9.90333 0.995734 9.90149 0.99562 9.90031C0.995514 9.89922 0.995421 9.89827 0.995418 9.89825L-0.994941 10.0944ZM-0.997662 10.061L-0.997195 10.0686L0.999062 9.94632L0.998595 9.93871L-0.997662 10.061ZM-0.999031 10.0159C-0.986304 11.5204 0.239483 12.7394 1.748 12.7394V10.7394C1.3388 10.7394 1.00435 10.4069 1.0009 9.99902L-0.999031 10.0159ZM1.748 12.7394H12.2518V10.7394H1.748V12.7394ZM12.2518 12.7394C13.7629 12.7394 14.9908 11.5167 14.9994 10.0082L12.9994 9.99682C12.9971 10.4057 12.6623 10.7394 12.2518 10.7394V12.7394ZM14.9933 10.113C14.9937 10.1094 14.995 10.097 14.9963 10.0812C14.9975 10.0671 14.9997 10.0367 14.9997 9.99831H12.9997C12.9997 9.96112 13.0018 9.93214 13.0029 9.91949C13.004 9.90518 13.0053 9.8942 13.0055 9.89198L14.9933 10.113ZM14.9997 9.99831C14.9997 10.0184 14.9991 10.0402 14.9975 10.0634L13.002 9.93029C13.0003 9.95445 12.9997 9.97718 12.9997 9.99831H14.9997ZM14.9975 10.0634C14.9974 10.065 14.9965 10.0798 14.9945 10.0985L13.0052 9.89253C13.0031 9.91216 13.0021 9.9278 13.002 9.93029L14.9975 10.0634ZM14.996 10.083C14.996 10.0829 14.9963 10.0796 14.9966 10.0756C14.997 10.0713 14.9975 10.0649 14.998 10.0571C14.999 10.0411 15 10.019 15 9.99271H13C13 9.9674 13.001 9.94627 13.0019 9.93124C13.0024 9.92389 13.0029 9.9179 13.0032 9.91407C13.0033 9.91214 13.0035 9.91058 13.0035 9.9096C13.0036 9.90911 13.0036 9.90871 13.0036 9.90846C13.0037 9.90833 13.0037 9.90823 13.0037 9.90816C13.0037 9.9081 13.0037 9.90806 13.0037 9.90805L14.996 10.083ZM15 9.99271V1.74656H13V9.99271H15ZM15 1.74672C15.0002 0.230406 13.7674 -1 12.252 -1V1C12.6646 1 13.0001 1.33663 13 1.7464L15 1.74672ZM12.252 10.2444H1.748V12.2444H12.252V10.2444ZM1.748 10.2444C1.61709 10.2444 1.5066 10.1413 1.49719 10.0115L-0.497577 10.1561C-0.413035 11.3222 0.559161 12.2444 1.748 12.2444V10.2444ZM1.23665 10.7599L4.27966 7.44331L2.80598 6.09117L-0.237034 9.40773L1.23665 10.7599ZM4.28038 7.44252C4.32265 7.39635 4.35457 7.39141 4.37427 7.39141V5.39141C3.76583 5.39141 3.20726 5.65288 2.80525 6.09196L4.28038 7.44252ZM4.37427 7.39141C4.39377 7.39141 4.42573 7.39621 4.4684 7.44278L5.94305 6.09171C5.54114 5.65302 4.98291 5.39141 4.37427 5.39141V7.39141ZM4.46886 7.44329L7.58157 10.836L9.05529 9.48391L5.94258 6.0912L4.46886 7.44329ZM7.58299 10.8375C7.8266 11.102 8.16278 11.2402 8.50089 11.2402V9.24016C8.70492 9.24016 8.90763 9.32365 9.05386 9.48236L7.58299 10.8375ZM8.50089 11.2402C8.803 11.2402 9.10569 11.1299 9.34277 10.9132L7.99346 9.4369C8.13566 9.30693 8.31826 9.24016 8.50089 9.24016V11.2402ZM9.34354 10.9125C9.85271 10.4461 9.88485 9.65736 9.42133 9.15047L7.9454 10.5002C7.66636 10.195 7.68513 9.71931 7.9927 9.4376L9.34354 10.9125ZM9.42025 9.14929L8.67777 8.33997L7.20401 9.69201L7.94648 10.5013L9.42025 9.14929ZM8.66825 9.70225L10.0939 8.19116L8.63921 6.81866L7.21353 8.32974L8.66825 9.70225ZM10.0936 8.19153C10.1375 8.14505 10.1788 8.13266 10.2159 8.13266V6.13266C9.61086 6.13266 9.04895 6.38481 8.63955 6.81829L10.0936 8.19153ZM10.2159 8.13266C10.2528 8.13266 10.2942 8.14491 10.3385 8.19178L11.792 6.81804C11.3827 6.38494 10.8212 6.13266 10.2159 6.13266V8.13266ZM10.3379 8.19122L12.7732 10.772L14.2278 9.39935L11.7926 6.8186L10.3379 8.19122ZM12.5033 10.0113C12.4936 10.1414 12.3827 10.2444 12.252 10.2444V12.2444C13.4401 12.2444 14.411 11.3237 14.4977 10.16L12.5033 10.0113ZM10.6978 7.85211L12.7776 10.0559L14.2321 8.68325L12.1523 6.47942L10.6978 7.85211ZM13.5049 10.3696H13.505V8.3696H13.5049V10.3696ZM14.505 9.3696V1.74656H12.505V9.3696H14.505ZM14.505 1.74656C14.505 0.503319 13.4946 -0.505424 12.252 -0.505424V1.49458C12.3914 1.49458 12.505 1.60928 12.505 1.74656H14.505ZM12.252 -0.505424H1.74815V1.49458H12.252V-0.505424ZM1.74815 -0.505424C0.505416 -0.505424 -0.504706 0.50348 -0.504706 1.74656H1.49529C1.49529 1.60912 1.60892 1.49458 1.74815 1.49458V-0.505424ZM-0.504706 1.74656V9.35685H1.49529V1.74656H-0.504706ZM1.23218 10.0329L3.91476 7.10878L2.441 5.75674L-0.241588 8.68083L1.23218 10.0329ZM3.91472 7.10883C4.0493 6.96215 4.21 6.89684 4.37427 6.89684V4.89684C3.62946 4.89684 2.94051 5.21233 2.44104 5.75669L3.91472 7.10883ZM4.37427 6.89684C4.53839 6.89684 4.6992 6.96211 4.83384 7.10884L6.30748 5.75667C5.80776 5.21205 5.11861 4.89684 4.37427 4.89684V6.89684ZM4.83376 7.10876L6.86814 9.32642L8.34194 7.97442L6.30757 5.75676L4.83376 7.10876ZM8.33232 9.33677L9.73342 7.85211L8.27887 6.47942L6.87776 7.96408L8.33232 9.33677ZM9.73392 7.85158C9.86974 7.70744 10.0378 7.63792 10.2156 7.63792V5.63792C9.47561 5.63792 8.78438 5.94299 8.27837 6.47994L9.73392 7.85158ZM10.2156 7.63792C10.3932 7.63792 10.5614 7.70746 10.6974 7.85175L12.1527 6.47978C11.6469 5.94328 10.9558 5.63792 10.2156 5.63792V7.63792Z" fill="#666666" mask="url(#path-1-inside-1)"/>
<path fill-rule="evenodd" clip-rule="evenodd" d="M8.25305 3.39564C8.25305 2.43244 9.03722 1.64893 10.0012 1.64893C10.965 1.64893 11.7494 2.43244 11.7494 3.39564C11.7494 4.35868 10.965 5.14235 10.0012 5.14235C9.03722 5.14235 8.25305 4.35868 8.25305 3.39564ZM8.74819 3.39564C8.74819 4.08606 9.31022 4.64747 10.0012 4.64747C10.692 4.64747 11.2541 4.08606 11.2541 3.39564C11.2541 2.70538 10.692 2.14366 10.0012 2.14366C9.31006 2.14366 8.74819 2.70538 8.74819 3.39564Z" fill="#666666"/>
</svg>
