<svg width="24" height="24" viewBox="0 0 24 24" fill="none" xmlns="http://www.w3.org/2000/svg">
<path fill-rule="evenodd" clip-rule="evenodd" d="M19.4067 21.4216C19.4067 22.8435 17.9973 24 16.2648 24H3.14226C1.40945 24 0 22.8435 0 21.4216V6.34693C0 4.92507 1.40945 3.7688 3.14226 3.7688H4.59333V2.9968C4.59333 1.34453 6.00278 0 7.73494 0H10.3595H16.9502C17.4295 0 18.0473 0.209867 18.3859 0.488L23.405 4.60613C23.7442 4.88427 24 5.39093 24 5.78453V11.1923V17.2347C24 18.8869 22.3618 20.2312 20.3479 20.2312H19.4067V21.4216ZM22.2337 4.84587L18.0948 1.44933V3.984C18.0948 4.45893 18.5653 4.84587 19.1445 4.84587H22.2337ZM5.62775 2.9968C5.62775 1.81227 6.5728 0.848533 7.73494 0.848533H10.3595H16.9501C16.9833 0.848533 17.0207 0.852533 17.0597 0.857867V3.98373C17.0597 4.92693 17.9946 5.69413 19.1444 5.69413H22.9536C22.9604 5.72613 22.9653 5.7568 22.9653 5.78453V11.192V17.2347C22.9653 18.4187 21.7911 19.3824 20.3475 19.3824H8.24549C6.80192 19.3824 5.62743 18.4189 5.62743 17.2347V2.9968H5.62775ZM1.03475 6.34693V21.4216C1.03475 22.3752 1.98012 23.1509 3.14226 23.1509H16.2647C17.4266 23.1509 18.3716 22.3752 18.3716 21.4216V20.2312H8.24549C6.23186 20.2312 4.59333 18.8869 4.59333 17.2347V4.6176H3.14226C1.98012 4.6176 1.03475 5.39307 1.03475 6.34693Z" fill="#8776CC"/>
<path fill-rule="evenodd" clip-rule="evenodd" d="M19.4067 21.4216C19.4067 22.8435 17.9973 24 16.2648 24H3.14226C1.40945 24 0 22.8435 0 21.4216V6.34693C0 4.92507 1.40945 3.7688 3.14226 3.7688H4.59333V2.9968C4.59333 1.34453 6.00278 0 7.73494 0H10.3595H16.9502C17.4295 0 18.0473 0.209867 18.3859 0.488L23.405 4.60613C23.7442 4.88427 24 5.39093 24 5.78453V11.1923V17.2347C24 18.8869 22.3618 20.2312 20.3479 20.2312H19.4067V21.4216ZM22.2337 4.84587L18.0948 1.44933V3.984C18.0948 4.45893 18.5653 4.84587 19.1445 4.84587H22.2337ZM5.62775 2.9968C5.62775 1.81227 6.5728 0.848533 7.73494 0.848533H10.3595H16.9501C16.9833 0.848533 17.0207 0.852533 17.0597 0.857867V3.98373C17.0597 4.92693 17.9946 5.69413 19.1444 5.69413H22.9536C22.9604 5.72613 22.9653 5.7568 22.9653 5.78453V11.192V17.2347C22.9653 18.4187 21.7911 19.3824 20.3475 19.3824H8.24549C6.80192 19.3824 5.62743 18.4189 5.62743 17.2347V2.9968H5.62775ZM1.03475 6.34693V21.4216C1.03475 22.3752 1.98012 23.1509 3.14226 23.1509H16.2647C17.4266 23.1509 18.3716 22.3752 18.3716 21.4216V20.2312H8.24549C6.23186 20.2312 4.59333 18.8869 4.59333 17.2347V4.6176H3.14226C1.98012 4.6176 1.03475 5.39307 1.03475 6.34693Z" fill="url(#paint0_linear)"/>
<path d="M9.49279 11H18.5072C18.7793 11 19 10.7761 19 10.4998C19 10.2235 18.7793 10 18.5072 10H9.49279C9.22101 10 9 10.2235 9 10.4998C9 10.7761 9.22101 11 9.49279 11Z" fill="#8776CC"/>
<path d="M9.49279 11H18.5072C18.7793 11 19 10.7761 19 10.4998C19 10.2235 18.7793 10 18.5072 10H9.49279C9.22101 10 9 10.2235 9 10.4998C9 10.7761 9.22101 11 9.49279 11Z" fill="url(#paint1_linear)"/>
<path d="M9.49279 15H18.5072C18.7793 15 19 14.7764 19 14.5C19 14.2236 18.7793 14 18.5072 14H9.49279C9.22101 14 9 14.2236 9 14.5C9 14.7764 9.22101 15 9.49279 15Z" fill="#8776CC"/>
<path d="M9.49279 15H18.5072C18.7793 15 19 14.7764 19 14.5C19 14.2236 18.7793 14 18.5072 14H9.49279C9.22101 14 9 14.2236 9 14.5C9 14.7764 9.22101 15 9.49279 15Z" fill="url(#paint2_linear)"/>
<defs>
<linearGradient id="paint0_linear" x1="12" y1="0" x2="12" y2="24" gradientUnits="userSpaceOnUse">
<stop stop-color="#1AAAFF"/>
<stop offset="1" stop-color="#5EEDFD"/>
</linearGradient>
<linearGradient id="paint1_linear" x1="14" y1="10" x2="14" y2="11" gradientUnits="userSpaceOnUse">
<stop stop-color="#1AAAFF"/>
<stop offset="1" stop-color="#5EEDFD"/>
</linearGradient>
<linearGradient id="paint2_linear" x1="14" y1="14" x2="14" y2="15" gradientUnits="userSpaceOnUse">
<stop stop-color="#1AAAFF"/>
<stop offset="1" stop-color="#5EEDFD"/>
</linearGradient>
</defs>
</svg>
