<svg width="37" height="40" viewBox="0 0 37 40" fill="none" xmlns="http://www.w3.org/2000/svg">
<rect y="1.98279" width="36.19" height="36.19" rx="11.25" fill="url(#paint0_linear)"/>
<path d="M9.84839 31V7.00586H17.5773C19.6976 7.00586 21.6038 7.48926 23.2957 8.45605C24.9875 9.41187 26.3059 10.7687 27.2507 12.5265C28.2065 14.2733 28.6899 16.2344 28.7009 18.4097V19.5138C28.7009 21.7111 28.234 23.6831 27.3002 25.4299C26.3773 27.1658 25.0699 28.5281 23.3781 29.5168C21.6971 30.4946 19.8185 30.989 17.7421 31H9.84839ZM15.6327 11.4718V26.5505H17.6432C19.3021 26.5505 20.5765 25.9628 21.4664 24.7872C22.3563 23.6007 22.8013 21.8429 22.8013 19.5138V18.4756C22.8013 16.1575 22.3563 14.4106 21.4664 13.2351C20.5765 12.0596 19.2802 11.4718 17.5773 11.4718H15.6327Z" fill="white"/>
<defs>
<linearGradient id="paint0_linear" x1="1.14923" y1="39.7684" x2="39.0054" y2="39.7684" gradientUnits="userSpaceOnUse">
<stop stop-color="#C3DEA5"/>
<stop offset="0.0001" stop-color="#43A047"/>
<stop offset="1" stop-color="#C3DEA5"/>
</linearGradient>
</defs>
</svg>
