<svg width="24" height="26" viewBox="0 0 24 26" fill="none" xmlns="http://www.w3.org/2000/svg">
<mask id="path-1-inside-1" fill="white">
<path fill-rule="evenodd" clip-rule="evenodd" d="M11.9999 0C15.3084 0 18 2.91601 18 6.50027C18 10.084 15.3084 13 11.9999 13C8.69158 13 6 10.084 6 6.50027C6 2.91601 8.69158 0 11.9999 0ZM11.9999 0.88839C9.14383 0.88839 6.82053 3.40596 6.82053 6.50027C6.82053 9.594 9.14383 12.1116 11.9999 12.1116C14.8561 12.1116 17.1795 9.594 17.1795 6.50027C17.1795 3.40596 14.8564 0.88839 11.9999 0.88839Z"/>
</mask>
<path fill-rule="evenodd" clip-rule="evenodd" d="M11.9999 0C15.3084 0 18 2.91601 18 6.50027C18 10.084 15.3084 13 11.9999 13C8.69158 13 6 10.084 6 6.50027C6 2.91601 8.69158 0 11.9999 0ZM11.9999 0.88839C9.14383 0.88839 6.82053 3.40596 6.82053 6.50027C6.82053 9.594 9.14383 12.1116 11.9999 12.1116C14.8561 12.1116 17.1795 9.594 17.1795 6.50027C17.1795 3.40596 14.8564 0.88839 11.9999 0.88839Z" fill="#1AAAFF"/>
<path d="M11.9999 1C14.6822 1 17 3.39139 17 6.50027H19C19 2.44063 15.9345 -1 11.9999 -1V1ZM17 6.50027C17 9.60852 14.6823 12 11.9999 12V14C15.9345 14 19 10.5594 19 6.50027H17ZM11.9999 12C9.31772 12 7 9.60854 7 6.50027H5C5 10.5594 8.06544 14 11.9999 14V12ZM7 6.50027C7 3.39138 9.31777 1 11.9999 1V-1C8.0654 -1 5 2.44064 5 6.50027H7ZM11.9999 -0.11161C8.51752 -0.11161 5.82053 2.93073 5.82053 6.50027H7.82053C7.82053 3.88119 9.77014 1.88839 11.9999 1.88839V-0.11161ZM5.82053 6.50027C5.82053 10.0693 8.51757 13.1116 11.9999 13.1116V11.1116C9.77009 11.1116 7.82053 9.11872 7.82053 6.50027H5.82053ZM11.9999 13.1116C15.4824 13.1116 18.1795 10.0693 18.1795 6.50027H16.1795C16.1795 9.1187 14.2299 11.1116 11.9999 11.1116V13.1116ZM18.1795 6.50027C18.1795 2.93075 15.4827 -0.11161 11.9999 -0.11161V1.88839C14.2301 1.88839 16.1795 3.88118 16.1795 6.50027H18.1795Z" fill="#1AAAFF" mask="url(#path-1-inside-1)"/>
<path d="M11.9999 1C14.6822 1 17 3.39139 17 6.50027H19C19 2.44063 15.9345 -1 11.9999 -1V1ZM17 6.50027C17 9.60852 14.6823 12 11.9999 12V14C15.9345 14 19 10.5594 19 6.50027H17ZM11.9999 12C9.31772 12 7 9.60854 7 6.50027H5C5 10.5594 8.06544 14 11.9999 14V12ZM7 6.50027C7 3.39138 9.31777 1 11.9999 1V-1C8.0654 -1 5 2.44064 5 6.50027H7ZM11.9999 -0.11161C8.51752 -0.11161 5.82053 2.93073 5.82053 6.50027H7.82053C7.82053 3.88119 9.77014 1.88839 11.9999 1.88839V-0.11161ZM5.82053 6.50027C5.82053 10.0693 8.51757 13.1116 11.9999 13.1116V11.1116C9.77009 11.1116 7.82053 9.11872 7.82053 6.50027H5.82053ZM11.9999 13.1116C15.4824 13.1116 18.1795 10.0693 18.1795 6.50027H16.1795C16.1795 9.1187 14.2299 11.1116 11.9999 11.1116V13.1116ZM18.1795 6.50027C18.1795 2.93075 15.4827 -0.11161 11.9999 -0.11161V1.88839C14.2301 1.88839 16.1795 3.88118 16.1795 6.50027H18.1795Z" fill="#1AAAFF" mask="url(#path-1-inside-1)"/>
<mask id="path-3-inside-2" fill="white">
<path fill-rule="evenodd" clip-rule="evenodd" d="M2.88543 26C1.46759 26 0 24.8919 0 23.0387C0 21.081 2.15595 16 12 16C21.844 16 24 21.0807 24 23.0387C24 24.8919 22.5326 26 21.1146 26H2.88543ZM23.1149 23.0387C23.1149 21.4518 21.0729 16.9223 12 16.9223C2.92711 16.9223 0.885113 21.4518 0.885113 23.0387C0.885113 24.3631 1.91584 25.078 2.88543 25.078H21.1146C22.0842 25.078 23.1149 24.3631 23.1149 23.0387Z"/>
</mask>
<path fill-rule="evenodd" clip-rule="evenodd" d="M2.88543 26C1.46759 26 0 24.8919 0 23.0387C0 21.081 2.15595 16 12 16C21.844 16 24 21.0807 24 23.0387C24 24.8919 22.5326 26 21.1146 26H2.88543ZM23.1149 23.0387C23.1149 21.4518 21.0729 16.9223 12 16.9223C2.92711 16.9223 0.885113 21.4518 0.885113 23.0387C0.885113 24.3631 1.91584 25.078 2.88543 25.078H21.1146C22.0842 25.078 23.1149 24.3631 23.1149 23.0387Z" fill="#1AAAFF"/>
<path d="M2.88543 25C1.95536 25 1 24.2772 1 23.0387H-1C-1 25.5065 0.979818 27 2.88543 27V25ZM1 23.0387C1 22.3677 1.39897 20.8803 2.95884 19.5448C4.50177 18.2238 7.24905 17 12 17V15C6.90688 15 3.65417 16.3166 1.65812 18.0256C-0.320995 19.72 -1 21.7519 -1 23.0387H1ZM12 17C16.7509 17 19.4982 18.2238 21.0412 19.5447C22.601 20.8801 23 22.3676 23 23.0387H25C25 21.7518 24.321 19.7198 22.3419 18.0254C20.3458 16.3166 17.0931 15 12 15V17ZM23 23.0387C23 24.2772 22.0448 25 21.1146 25V27C23.0204 27 25 25.5065 25 23.0387H23ZM21.1146 25H2.88543V27H21.1146V25ZM24.1149 23.0387C24.1149 20.7122 21.417 15.9223 12 15.9223V17.9223C20.7288 17.9223 22.1149 22.1915 22.1149 23.0387H24.1149ZM12 15.9223C2.58304 15.9223 -0.114887 20.7122 -0.114887 23.0387H1.88511C1.88511 22.1915 3.27118 17.9223 12 17.9223V15.9223ZM-0.114887 23.0387C-0.114887 25.0033 1.4558 26.078 2.88543 26.078V24.078C2.37589 24.078 1.88511 23.7229 1.88511 23.0387H-0.114887ZM2.88543 26.078H21.1146V24.078H2.88543V26.078ZM21.1146 26.078C22.5442 26.078 24.1149 25.0033 24.1149 23.0387H22.1149C22.1149 23.7229 21.6241 24.078 21.1146 24.078V26.078Z" fill="#1AAAFF" mask="url(#path-3-inside-2)"/>
<path d="M2.88543 25C1.95536 25 1 24.2772 1 23.0387H-1C-1 25.5065 0.979818 27 2.88543 27V25ZM1 23.0387C1 22.3677 1.39897 20.8803 2.95884 19.5448C4.50177 18.2238 7.24905 17 12 17V15C6.90688 15 3.65417 16.3166 1.65812 18.0256C-0.320995 19.72 -1 21.7519 -1 23.0387H1ZM12 17C16.7509 17 19.4982 18.2238 21.0412 19.5447C22.601 20.8801 23 22.3676 23 23.0387H25C25 21.7518 24.321 19.7198 22.3419 18.0254C20.3458 16.3166 17.0931 15 12 15V17ZM23 23.0387C23 24.2772 22.0448 25 21.1146 25V27C23.0204 27 25 25.5065 25 23.0387H23ZM21.1146 25H2.88543V27H21.1146V25ZM24.1149 23.0387C24.1149 20.7122 21.417 15.9223 12 15.9223V17.9223C20.7288 17.9223 22.1149 22.1915 22.1149 23.0387H24.1149ZM12 15.9223C2.58304 15.9223 -0.114887 20.7122 -0.114887 23.0387H1.88511C1.88511 22.1915 3.27118 17.9223 12 17.9223V15.9223ZM-0.114887 23.0387C-0.114887 25.0033 1.4558 26.078 2.88543 26.078V24.078C2.37589 24.078 1.88511 23.7229 1.88511 23.0387H-0.114887ZM2.88543 26.078H21.1146V24.078H2.88543V26.078ZM21.1146 26.078C22.5442 26.078 24.1149 25.0033 24.1149 23.0387H22.1149C22.1149 23.7229 21.6241 24.078 21.1146 24.078V26.078Z" fill="#1AAAFF" mask="url(#path-3-inside-2)"/>
</svg>
