<svg width="14" height="10" viewBox="0 0 14 10" fill="none" xmlns="http://www.w3.org/2000/svg">
<path fill-rule="evenodd" clip-rule="evenodd" d="M12.2519 0H1.74813C0.784311 0 0 0.765285 0 1.70588V8.29412C0 9.23471 0.784311 10 1.74813 10H12.2517C13.2157 10 14 9.23471 14 8.29412V1.70588C14 0.765285 13.2157 0 12.2519 0ZM1.74813 0.483121H12.2517C12.4984 0.483121 12.7279 0.553851 12.9218 0.674518L7.92104 5.28308C7.413 5.75102 6.58684 5.75102 6.07911 5.28308L1.07816 0.674518C1.27213 0.553851 1.50158 0.483121 1.74813 0.483121ZM12.2517 9.51673C12.9428 9.51673 13.5047 8.96818 13.5047 8.29412H13.5046V1.70588C13.5046 1.44678 13.4212 1.20712 13.2799 1.00905L8.26062 5.6343C7.91327 5.95471 7.4564 6.11498 6.99984 6.11498C6.54329 6.11498 6.08658 5.95471 5.73922 5.6343L0.719756 1.00905C0.578511 1.20697 0.495133 1.44678 0.495133 1.70588V8.29412C0.495133 8.96833 1.05731 9.51673 1.74813 9.51673H12.2517Z" fill="#1AAAFF"/>
</svg>
