<svg width="29" height="24" viewBox="0 0 29 24" fill="none" xmlns="http://www.w3.org/2000/svg">
<path d="M24.3629 11.7049C24.9436 11.7049 25.4144 11.1416 25.4144 10.4467C25.4144 9.7518 24.9436 9.18848 24.3629 9.18848C23.7823 9.18848 23.3115 9.7518 23.3115 10.4467C23.3115 11.1416 23.7823 11.7049 24.3629 11.7049Z" fill="url(#paint0_linear)"/>
<path fill-rule="evenodd" clip-rule="evenodd" d="M24.2347 9.69745C24.1578 9.7895 24.0166 10.0407 24.0166 10.4467C24.0166 10.8527 24.1578 11.1039 24.2347 11.1959C24.3091 11.285 24.3591 11.2851 24.3629 11.2851C24.3668 11.2851 24.4168 11.285 24.4912 11.1959C24.5681 11.1038 24.7093 10.8526 24.7093 10.4467C24.7093 10.0408 24.5681 9.78955 24.4912 9.69747C24.4168 9.6084 24.3668 9.60832 24.3629 9.60832C24.3591 9.60832 24.3091 9.60841 24.2347 9.69745ZM25.4144 10.4467C25.4144 11.1416 24.9436 11.7049 24.3629 11.7049C23.7823 11.7049 23.3115 11.1416 23.3115 10.4467C23.3115 9.7518 23.7823 9.18848 24.3629 9.18848C24.9436 9.18848 25.4144 9.7518 25.4144 10.4467Z" fill="url(#paint1_linear)"/>
<path d="M19.857 11.7049C20.4376 11.7049 20.9084 11.1416 20.9084 10.4467C20.9084 9.7518 20.4376 9.18848 19.857 9.18848C19.2763 9.18848 18.8055 9.7518 18.8055 10.4467C18.8055 11.1416 19.2763 11.7049 19.857 11.7049Z" fill="url(#paint2_linear)"/>
<path fill-rule="evenodd" clip-rule="evenodd" d="M19.7287 9.69745C19.6518 9.7895 19.5106 10.0407 19.5106 10.4467C19.5106 10.8527 19.6518 11.1039 19.7287 11.1959C19.8031 11.285 19.8531 11.2851 19.857 11.2851C19.8608 11.2851 19.9108 11.285 19.9852 11.1959C20.0621 11.1038 20.2033 10.8526 20.2033 10.4467C20.2033 10.0408 20.0621 9.78955 19.9852 9.69747C19.9108 9.6084 19.8608 9.60832 19.857 9.60832C19.8531 9.60832 19.8031 9.60841 19.7287 9.69745ZM20.9084 10.4467C20.9084 11.1416 20.4376 11.7049 19.857 11.7049C19.2763 11.7049 18.8055 11.1416 18.8055 10.4467C18.8055 9.7518 19.2763 9.18848 19.857 9.18848C20.4376 9.18848 20.9084 9.7518 20.9084 10.4467Z" fill="url(#paint3_linear)"/>
<path d="M22.1103 9.00595C22.6911 9.00595 23.162 8.44245 23.162 7.74736C23.162 7.05228 22.6911 6.48877 22.1103 6.48877C21.5294 6.48877 21.0585 7.05228 21.0585 7.74736C21.0585 8.44245 21.5294 9.00595 22.1103 9.00595Z" fill="url(#paint4_linear)"/>
<path fill-rule="evenodd" clip-rule="evenodd" d="M21.9823 6.9984C21.9054 7.09042 21.7643 7.34156 21.7643 7.74736C21.7643 8.15316 21.9054 8.4043 21.9823 8.49632C22.0566 8.58533 22.1065 8.58537 22.1103 8.58537C22.114 8.58537 22.1639 8.58532 22.2383 8.49633C22.3152 8.40435 22.4563 8.15321 22.4563 7.74736C22.4563 7.34151 22.3152 7.09038 22.2383 6.99839C22.1639 6.90941 22.114 6.90936 22.1103 6.90936C22.1065 6.90936 22.0566 6.9094 21.9823 6.9984ZM23.162 7.74736C23.162 8.44245 22.6911 9.00595 22.1103 9.00595C21.5294 9.00595 21.0585 8.44245 21.0585 7.74736C21.0585 7.05228 21.5294 6.48877 22.1103 6.48877C22.6911 6.48877 23.162 7.05228 23.162 7.74736Z" fill="url(#paint5_linear)"/>
<path d="M22.11 14.4014C22.6906 14.4014 23.1614 13.8381 23.1614 13.1432C23.1614 12.4483 22.6906 11.885 22.11 11.885C21.5293 11.885 21.0585 12.4483 21.0585 13.1432C21.0585 13.8381 21.5293 14.4014 22.11 14.4014Z" fill="url(#paint6_linear)"/>
<path fill-rule="evenodd" clip-rule="evenodd" d="M21.9817 12.394C21.9048 12.4861 21.7636 12.7373 21.7636 13.1432C21.7636 13.5491 21.9048 13.8004 21.9817 13.8925C22.0562 13.9815 22.1061 13.9816 22.11 13.9816C22.1138 13.9816 22.1638 13.9815 22.2382 13.8925C22.3151 13.8004 22.4563 13.5492 22.4563 13.1432C22.4563 12.7373 22.3151 12.486 22.2382 12.394C22.1638 12.3049 22.1138 12.3048 22.11 12.3048C22.1061 12.3048 22.0562 12.3049 21.9817 12.394ZM23.1614 13.1432C23.1614 13.8381 22.6906 14.4014 22.11 14.4014C21.5293 14.4014 21.0585 13.8381 21.0585 13.1432C21.0585 12.4483 21.5293 11.885 22.11 11.885C22.6906 11.885 23.1614 12.4483 23.1614 13.1432Z" fill="url(#paint7_linear)"/>
<path d="M11.2005 7.40457H10.8366C10.0437 7.40457 9.40091 6.44043 9.40091 5.25109C9.40091 4.85299 9.13134 4.53003 8.79867 4.53003C8.466 4.53003 8.19611 4.85262 8.19611 5.25109C8.19611 6.44043 7.55334 7.40457 6.76044 7.40457H6.39626C6.0639 7.40457 5.7937 7.72716 5.7937 8.12563C5.7937 8.52411 6.06359 8.84707 6.39626 8.84707H6.76069C7.55345 8.84707 8.19611 9.81105 8.19611 11.0002C8.19611 11.3979 8.46568 11.7212 8.79867 11.7212C9.13102 11.7212 9.40091 11.3983 9.40091 11.0002C9.40091 9.81105 10.0436 8.84707 10.8363 8.84707H11.2005C11.5331 8.84707 11.8033 8.52411 11.8033 8.12563C11.8033 7.72716 11.5334 7.40457 11.2005 7.40457Z" fill="url(#paint8_linear)"/>
<path fill-rule="evenodd" clip-rule="evenodd" d="M9.96054 9.29413C10.1296 9.09855 10.3286 8.95825 10.5454 8.89131C10.6394 8.86231 10.7367 8.84707 10.8363 8.84707H11.2005C11.5331 8.84707 11.8033 8.52411 11.8033 8.12563C11.8033 7.72716 11.5334 7.40457 11.2005 7.40457H10.8366C10.8367 7.40457 10.8365 7.40457 10.8366 7.40457C10.7369 7.40454 10.6393 7.38927 10.5453 7.36022C10.3285 7.29322 10.1296 7.15293 9.96059 6.95738C9.7769 6.74489 9.62848 6.46715 9.53076 6.1473C9.51134 6.08373 9.49392 6.01851 9.47862 5.9518C9.42825 5.73213 9.40091 5.4964 9.40091 5.25109C9.40091 4.85299 9.13134 4.53003 8.79867 4.53003C8.466 4.53003 8.19611 4.85262 8.19611 5.25109C8.19611 5.49641 8.16877 5.73214 8.1184 5.95181C8.1031 6.01851 8.08568 6.08374 8.06626 6.1473C7.96854 6.46715 7.82012 6.74489 7.63643 6.95738C7.46737 7.15294 7.26844 7.29324 7.05166 7.36024C6.9577 7.38928 6.86038 7.40454 6.76069 7.40457C6.76077 7.40457 6.7606 7.40457 6.76069 7.40457H6.39626C6.0639 7.40457 5.7937 7.72716 5.7937 8.12563C5.7937 8.52411 6.06359 8.84707 6.39626 8.84707H6.76044C6.86012 8.84707 6.95767 8.86231 7.05163 8.89132C7.26844 8.95827 7.4674 9.09856 7.63648 9.29413C7.82014 9.50657 7.96854 9.78425 8.06626 10.104C8.08567 10.1676 8.10308 10.2327 8.11837 10.2994C8.16876 10.5191 8.19611 10.7548 8.19611 11.0002C8.19611 11.3979 8.46568 11.7212 8.79867 11.7212C9.13102 11.7212 9.40091 11.3983 9.40091 11.0002C9.40091 10.7548 9.42827 10.5191 9.47866 10.2994C9.49395 10.2327 9.51135 10.1675 9.53076 10.104C9.62848 9.78425 9.77688 9.50658 9.96054 9.29413Z" fill="url(#paint9_linear)"/>
<path fill-rule="evenodd" clip-rule="evenodd" d="M8.33097 0H19.7817C23.7722 0 26.3642 5.93486 27.46 11.4892C28.4608 16.5651 28.443 22.3201 26.4717 23.4995C25.9085 23.8366 25.3934 24 24.8964 24C23.2923 24 22.3634 22.2833 21.4648 20.6227L21.4644 20.6219C20.9456 19.662 20.4089 18.6703 19.7423 17.9661C18.6956 16.86 17.6692 16.7501 15.4045 16.7501L14.0563 16.7538L12.7082 16.7501C10.4435 16.7501 9.41707 16.86 8.37033 17.9661C7.70374 18.6699 7.1671 19.662 6.64825 20.6219L6.64679 20.6247C5.74823 22.2846 4.81972 24 3.21628 24C2.719 24 2.20422 23.8366 1.64102 23.4995C-0.330012 22.3201 -0.347817 16.5647 0.652693 11.4892C1.74847 5.93486 4.34112 0 8.33097 0ZM24.8964 22.8113C25.2306 22.8113 25.6111 22.6846 26.0272 22.436C27.1376 21.7721 27.589 17.3246 26.4926 11.7628C25.4843 6.65107 23.1921 1.18907 19.782 1.18907H8.33129C4.92149 1.18907 2.62935 6.65107 1.62103 11.7628C0.523686 17.3246 0.97568 21.7721 2.08552 22.436C2.5019 22.6846 2.88268 22.8113 3.2166 22.8113C4.27983 22.8106 4.99074 21.4968 5.81374 19.976L5.81392 19.9756C6.36931 18.9484 6.94375 17.8868 7.71249 17.0746C9.07565 15.6332 10.4994 15.5599 12.7082 15.5599L14.0563 15.5636L15.4048 15.5599C17.6139 15.5599 19.0373 15.6335 20.4005 17.0742C21.1692 17.8868 21.7437 18.9484 22.2991 19.9756C23.1218 21.4974 23.8328 22.8113 24.8964 22.8113Z" fill="url(#paint10_linear)"/>
<path fill-rule="evenodd" clip-rule="evenodd" d="M0.681324 11.3457C1.79321 5.83313 4.37546 0 8.33097 0H19.7817C19.7816 0 19.7818 0 19.7817 0C23.7378 0.000307919 26.3196 5.8336 27.4314 11.3461C27.4314 11.3461 27.4315 11.3462 27.4314 11.3461C27.4411 11.3938 27.4506 11.4416 27.46 11.4892C28.4608 16.5651 28.443 22.3201 26.4717 23.4995C26.4245 23.5277 26.3777 23.5547 26.3313 23.5805C26.3313 23.5804 26.3312 23.5805 26.3313 23.5805C25.8224 23.8628 25.3517 24 24.8964 24C23.3637 24 22.4473 22.4325 21.5849 20.8444C21.5448 20.7705 21.5048 20.6965 21.4648 20.6227C20.9875 19.7395 20.4946 18.8286 19.8997 18.1403C19.8998 18.1403 19.8997 18.1402 19.8997 18.1403C19.8481 18.0805 19.7956 18.0223 19.7423 17.9661C18.6959 16.8603 17.6697 16.7502 15.4063 16.7501C15.4058 16.7501 15.4053 16.7501 15.4048 16.7501C15.4049 16.7501 15.4047 16.7501 15.4048 16.7501L14.0563 16.7538L12.7082 16.7501C12.7077 16.7501 12.7072 16.7501 12.7067 16.7501C10.4431 16.7501 9.41685 16.8602 8.37033 17.9661C8.31714 18.0222 8.26477 18.0803 8.21317 18.1399C8.21325 18.1398 8.21309 18.14 8.21317 18.1399C7.61831 18.8281 7.12563 19.7387 6.64825 20.6219L6.64679 20.6247C6.60725 20.6977 6.56757 20.771 6.52786 20.8441C6.528 20.8439 6.52771 20.8444 6.52786 20.8441C6.52506 20.8493 6.52183 20.8552 6.51903 20.8604C6.51909 20.8603 6.51897 20.8605 6.51903 20.8604C5.65908 22.4427 4.74405 23.9995 3.21697 24C2.76141 24 2.29048 23.8629 1.78179 23.5807C1.78196 23.5808 1.78162 23.5806 1.78179 23.5807C1.73537 23.5549 1.6881 23.5277 1.64102 23.4995C-0.330012 22.3201 -0.347817 16.5647 0.652693 11.4892C0.66212 11.4414 0.671675 11.3935 0.681324 11.3457C0.68133 11.3456 0.681318 11.3457 0.681324 11.3457ZM1.62103 11.7628C2.62932 6.65123 4.92135 1.1894 8.33097 1.18907C8.33108 1.18907 8.33087 1.18907 8.33097 1.18907H19.7817C23.1918 1.18907 25.4843 6.65107 26.4926 11.7628C26.502 11.8106 26.5113 11.8583 26.5205 11.906C26.5205 11.906 26.5205 11.9059 26.5205 11.906C27.5368 17.1709 27.1633 21.4099 26.1618 22.3341C26.1617 22.3342 26.1619 22.3341 26.1618 22.3341C26.1181 22.3744 26.0731 22.4085 26.0272 22.436C25.6111 22.6846 25.2306 22.8113 24.8964 22.8113C23.8328 22.8113 23.1218 21.4974 22.2991 19.9756C22.2591 19.9017 22.219 19.8276 22.1788 19.7535C22.1788 19.7534 22.1788 19.7535 22.1788 19.7535C21.6601 18.7972 21.1137 17.8281 20.4005 17.0742C20.3466 17.0172 20.2926 16.9624 20.2385 16.9097C20.2385 16.9096 20.2385 16.9097 20.2385 16.9097C18.9236 15.6279 17.5265 15.5599 15.4048 15.5599L14.0563 15.5636L12.7082 15.5599C10.5868 15.5599 9.18954 15.6275 7.87461 16.9098C7.87453 16.9099 7.8747 16.9097 7.87461 16.9098C7.82053 16.9626 7.76634 17.0176 7.71249 17.0746C6.99905 17.8284 6.45297 18.797 5.93415 19.7535C5.9338 19.7542 5.93345 19.7548 5.9331 19.7555C5.93299 19.7557 5.93321 19.7553 5.9331 19.7555C5.93261 19.7564 5.93179 19.7579 5.93129 19.7588C5.89204 19.8312 5.85293 19.9035 5.81392 19.9756C4.99093 21.4965 4.27983 22.8106 3.2166 22.8113C3.21649 22.8113 3.2167 22.8113 3.2166 22.8113C2.88275 22.8112 2.50177 22.6845 2.08552 22.436C2.03955 22.4085 1.99472 22.3745 1.95107 22.3342C1.95103 22.3342 1.95112 22.3343 1.95107 22.3342C0.950096 21.41 0.575925 17.1713 1.59297 11.9066C1.59299 11.9065 1.59295 11.9067 1.59297 11.9066C1.60219 11.8588 1.61158 11.8107 1.62103 11.7628Z" fill="url(#paint11_linear)"/>
<defs>
<linearGradient id="paint0_linear" x1="23.3115" y1="10.4467" x2="25.4144" y2="10.4467" gradientUnits="userSpaceOnUse">
<stop stop-color="#1AAAFF"/>
<stop offset="1" stop-color="#5EEDFD"/>
</linearGradient>
<linearGradient id="paint1_linear" x1="23.3115" y1="10.4467" x2="25.4144" y2="10.4467" gradientUnits="userSpaceOnUse">
<stop stop-color="#1AAAFF"/>
<stop offset="1" stop-color="#5EEDFD"/>
</linearGradient>
<linearGradient id="paint2_linear" x1="18.8055" y1="10.4467" x2="20.9084" y2="10.4467" gradientUnits="userSpaceOnUse">
<stop stop-color="#1AAAFF"/>
<stop offset="1" stop-color="#5EEDFD"/>
</linearGradient>
<linearGradient id="paint3_linear" x1="18.8055" y1="10.4467" x2="20.9084" y2="10.4467" gradientUnits="userSpaceOnUse">
<stop stop-color="#1AAAFF"/>
<stop offset="1" stop-color="#5EEDFD"/>
</linearGradient>
<linearGradient id="paint4_linear" x1="21.0585" y1="7.74736" x2="23.162" y2="7.74736" gradientUnits="userSpaceOnUse">
<stop stop-color="#1AAAFF"/>
<stop offset="1" stop-color="#5EEDFD"/>
</linearGradient>
<linearGradient id="paint5_linear" x1="21.0585" y1="7.74736" x2="23.162" y2="7.74736" gradientUnits="userSpaceOnUse">
<stop stop-color="#1AAAFF"/>
<stop offset="1" stop-color="#5EEDFD"/>
</linearGradient>
<linearGradient id="paint6_linear" x1="21.0585" y1="13.1432" x2="23.1614" y2="13.1432" gradientUnits="userSpaceOnUse">
<stop stop-color="#1AAAFF"/>
<stop offset="1" stop-color="#5EEDFD"/>
</linearGradient>
<linearGradient id="paint7_linear" x1="21.0585" y1="13.1432" x2="23.1614" y2="13.1432" gradientUnits="userSpaceOnUse">
<stop stop-color="#1AAAFF"/>
<stop offset="1" stop-color="#5EEDFD"/>
</linearGradient>
<linearGradient id="paint8_linear" x1="5.7937" y1="8.12563" x2="11.8033" y2="8.12563" gradientUnits="userSpaceOnUse">
<stop stop-color="#1AAAFF"/>
<stop offset="1" stop-color="#5EEDFD"/>
</linearGradient>
<linearGradient id="paint9_linear" x1="5.7937" y1="8.12563" x2="11.8033" y2="8.12563" gradientUnits="userSpaceOnUse">
<stop stop-color="#1AAAFF"/>
<stop offset="1" stop-color="#1AAAFF"/>
</linearGradient>
<linearGradient id="paint10_linear" x1="-1.04729e-07" y1="12" x2="28.1129" y2="12" gradientUnits="userSpaceOnUse">
<stop stop-color="#1AAAFF"/>
<stop offset="1" stop-color="#5EEDFD"/>
</linearGradient>
<linearGradient id="paint11_linear" x1="0" y1="12" x2="28.1129" y2="12" gradientUnits="userSpaceOnUse">
<stop stop-color="#1AAAFF"/>
<stop offset="1" stop-color="#5EEDFD"/>
</linearGradient>
</defs>
</svg>
