<svg width="100" height="100" viewBox="0 0 100 100" fill="none" xmlns="http://www.w3.org/2000/svg">
<path d="M50 0C22.4288 0 0 22.4288 0 50C0 77.5712 22.4288 100 50 100C77.5712 100 100 77.5712 100 50C100 22.4288 77.5712 0 50 0ZM50 96.1538C24.5519 96.1538 3.84615 75.4481 3.84615 50C3.84615 24.5519 24.5519 3.84615 50 3.84615C75.4481 3.84615 96.1538 24.5519 96.1538 50C96.1538 75.4481 75.4481 96.1538 50 96.1538Z" fill="url(#paint0_linear)"/>
<path d="M50 71.1538C48.9365 71.1538 48.0769 72.0135 48.0769 73.0769V76.9231C48.0769 77.9865 48.9365 78.8462 50 78.8462C51.0634 78.8462 51.9231 77.9865 51.9231 76.9231V73.0769C51.9231 72.0135 51.0634 71.1538 50 71.1538Z" fill="url(#paint1_linear)"/>
<path d="M50.2173 17.3096C50.1442 17.3096 50.0711 17.3077 49.9961 17.3077C45.9269 17.3077 42.1 18.875 39.198 21.7385C36.2442 24.6519 34.6154 28.5423 34.6154 32.6923C34.6154 33.7558 35.475 34.6154 36.5384 34.6154C37.6019 34.6154 38.4615 33.7558 38.4615 32.6923C38.4615 29.5808 39.6827 26.6615 41.898 24.4769C44.1154 22.2904 47.0673 21.0827 50.1654 21.1558C56.2442 21.2404 61.4519 26.4481 61.5365 32.5269C61.5923 36.5346 59.6154 40.2231 56.2461 42.3962C51.1307 45.6962 48.0769 51.5269 48.0769 57.9962V63.4615C48.0769 64.525 48.9365 65.3846 50 65.3846C51.0634 65.3846 51.923 64.525 51.923 63.4615V57.9962C51.923 52.9154 54.3769 48.1788 58.3307 45.6269C62.8211 42.7308 65.4577 37.8135 65.3827 32.4731C65.2673 24.2288 58.4634 17.425 50.2173 17.3096Z" fill="url(#paint2_linear)"/>
<defs>
<linearGradient id="paint0_linear" x1="50" y1="0" x2="50" y2="100" gradientUnits="userSpaceOnUse">
<stop stop-color="#1AAAFF"/>
<stop offset="1" stop-color="#5EEDFD"/>
</linearGradient>
<linearGradient id="paint1_linear" x1="50" y1="71.1538" x2="50" y2="78.8462" gradientUnits="userSpaceOnUse">
<stop stop-color="#1AAAFF"/>
<stop offset="1" stop-color="#5EEDFD"/>
</linearGradient>
<linearGradient id="paint2_linear" x1="49.9998" y1="17.3077" x2="49.9998" y2="65.3846" gradientUnits="userSpaceOnUse">
<stop stop-color="#1AAAFF"/>
<stop offset="1" stop-color="#5EEDFD"/>
</linearGradient>
</defs>
</svg>
