<svg width="14" height="19" viewBox="0 0 14 19" fill="none" xmlns="http://www.w3.org/2000/svg">
<path fill-rule="evenodd" clip-rule="evenodd" d="M7 3.98804C8.59606 3.98804 9.89475 5.24942 9.89475 6.79987C9.89475 8.35032 8.59606 9.61171 7 9.61171C5.40395 9.61171 4.10547 8.35032 4.10547 6.79987C4.10547 5.24942 5.40395 3.98804 7 3.98804ZM7 4.62655C5.76636 4.62655 4.76276 5.60148 4.76276 6.79987C4.76276 7.99827 5.76636 8.97299 7 8.97299C8.23364 8.97299 9.23724 7.99807 9.23724 6.79987C9.23724 5.60168 8.23364 4.62655 7 4.62655Z" fill="#1AAAFF"/>
<path fill-rule="evenodd" clip-rule="evenodd" d="M8.05502 17.5711C7.77707 17.8826 7.40227 18.0542 7 18.0542C6.59753 18.0542 6.22293 17.8826 5.94498 17.5705C5.70214 17.2991 0 10.8604 0 6.8C0 3.05055 3.14028 0 7 0C10.8597 0 14 3.05055 14 6.8002C14 10.8606 8.29786 17.2993 8.05502 17.5711ZM13.3425 6.8C13.3425 3.40261 10.4975 0.638515 7 0.638515C3.50248 0.638515 0.657295 3.40261 0.657089 6.8C0.657089 10.6227 6.38359 17.0877 6.44162 17.1527C6.59278 17.322 6.79102 17.4154 7 17.4154C7.20877 17.4154 7.40722 17.322 7.55838 17.1527C7.6162 17.0877 13.3425 10.6229 13.3425 6.8Z" fill="#1AAAFF"/>
</svg>
