<svg width="14" height="14" viewBox="0 0 14 14" fill="none" xmlns="http://www.w3.org/2000/svg">
<path fill-rule="evenodd" clip-rule="evenodd" d="M9.75068 8.44049C10.0652 8.23152 10.4221 7.99472 10.9555 7.99472C11.3733 7.99503 12.2305 8.42476 12.8409 9.06425C13.573 9.83212 14.9355 11.2614 13.0276 13.1694C12.4894 13.7047 11.776 13.9994 11.0188 14H11.0185C7.51722 13.9994 0 6.48063 0 2.979C0 2.22094 0.294778 1.50724 0.829578 0.969503C1.48198 0.3171 2.11353 0 2.76096 0C3.60593 0 4.30485 0.55578 4.93422 1.15606C5.57371 1.76584 6.00351 2.6233 6.00351 3.04186C6.00351 3.57485 5.7671 3.9315 5.55845 4.24625L5.558 4.24693C5.14889 4.86323 4.82565 5.35024 6.73649 7.2614C7.74247 8.26778 8.47965 8.75697 8.99016 8.75697C9.27405 8.75697 9.49479 8.61055 9.75068 8.44049ZM11.0185 13.5046C11.6443 13.5043 12.2337 13.2609 12.6781 12.8186C14.1238 11.3728 13.4107 10.3795 12.4824 9.40595C11.8684 8.76272 11.1407 8.48965 10.9548 8.48965C10.5721 8.48965 10.3068 8.66555 10.0257 8.85186L10.024 8.85296L10.0223 8.8541C9.72742 9.04963 9.42241 9.2519 8.99001 9.2519C8.32345 9.2519 7.52034 8.74591 6.38618 7.61133C4.34685 5.57135 4.58547 4.81625 5.14531 3.97261C5.33213 3.6913 5.50838 3.42555 5.50838 3.04155C5.50838 2.81951 5.18513 2.0792 4.59262 1.51408C4.07571 1.02116 3.46516 0.495099 2.76096 0.495099C2.25151 0.495099 1.73429 0.764431 1.18004 1.31881C0.738422 1.76288 0.494978 2.35273 0.494978 2.97884C0.494978 4.43442 2.08553 6.96904 4.5472 9.43675C7.01245 11.9076 9.5525 13.5046 11.0185 13.5046Z" fill="#1AAAFF"/>
</svg>
