<svg width="16" height="16" viewBox="0 0 16 16" fill="none" xmlns="http://www.w3.org/2000/svg">
<path fill-rule="evenodd" clip-rule="evenodd" d="M12.2952 6.14759C12.2952 7.73924 11.6867 9.19223 10.6904 10.2849L15.916 15.5107C16.028 15.6227 16.028 15.804 15.916 15.916C15.804 16.028 15.6227 16.028 15.5107 15.916L10.2849 10.6902C9.19212 11.6865 7.7397 12.295 6.14752 12.295C2.75785 12.295 0 9.53712 0 6.14741C0 2.75771 2.75785 -0.000177771 6.14752 8.59457e-09C9.53737 8.59457e-09 12.2952 2.75788 12.2952 6.14759ZM0.57333 6.14759C0.57333 9.22121 3.07376 11.7218 6.1477 11.7218C9.22128 11.7218 11.7221 9.22103 11.7221 6.14759C11.7221 3.07362 9.22146 0.572981 6.1477 0.572981C3.07376 0.572981 0.57333 3.07362 0.57333 6.14759Z" fill="#666666"/>
<path fill-rule="evenodd" clip-rule="evenodd" d="M12.2952 6.14759C12.2952 7.73924 11.6867 9.19223 10.6904 10.2849L15.916 15.5107C16.028 15.6227 16.028 15.804 15.916 15.916C15.804 16.028 15.6227 16.028 15.5107 15.916L10.2849 10.6902C9.19212 11.6865 7.7397 12.295 6.14752 12.295C2.75785 12.295 0 9.53712 0 6.14741C0 2.75771 2.75785 -0.000177771 6.14752 8.59457e-09C9.53737 8.59457e-09 12.2952 2.75788 12.2952 6.14759ZM0.57333 6.14759C0.57333 9.22121 3.07376 11.7218 6.1477 11.7218C9.22128 11.7218 11.7221 9.22103 11.7221 6.14759C11.7221 3.07362 9.22146 0.572981 6.1477 0.572981C3.07376 0.572981 0.57333 3.07362 0.57333 6.14759Z" fill="#1AAAFF"/>
</svg>
