<svg width="36" height="36" viewBox="0 0 36 36" fill="none" xmlns="http://www.w3.org/2000/svg">
<path d="M7.56781 9.14516C7.56781 4.33623 11.136 0.5 15.4299 0.5C19.7237 0.5 23.2919 4.33581 23.2919 9.14516C23.2919 13.9545 19.7237 17.7903 15.4299 17.7903C11.136 17.7903 7.56781 13.9545 7.56781 9.14516ZM7.86382 9.14516C7.86382 13.6389 11.2165 17.3726 15.4299 17.3726C19.6428 17.3726 22.9955 13.6389 22.9955 9.14516C22.9955 4.65136 19.6428 0.918188 15.4299 0.918188C11.2166 0.918188 7.86382 4.65134 7.86382 9.14516Z" fill="white" stroke="url(#paint0_linear)"/>
<path d="M3.30318 25.7053C1.13089 27.6654 0.5 29.9161 0.5 31.098C0.5 33.3569 2.1854 34.6632 3.77282 34.6632H27.0861C28.6732 34.6632 30.3589 33.3569 30.359 31.0981L3.30318 25.7053ZM3.30318 25.7053C5.46537 23.7542 9.1928 22.0596 15.4297 22.0596M3.30318 25.7053L15.4297 22.0596M15.4297 22.0596C21.6665 22.0596 25.3938 23.7542 27.5558 25.7052M15.4297 22.0596L27.5558 25.7052M27.5558 25.7052C29.7279 27.6653 30.3587 29.9159 30.359 31.098L27.5558 25.7052ZM30.0625 31.0981V31.098C30.0625 28.6395 27.16 22.4773 15.4297 22.4773C3.69898 22.4773 0.796406 28.6395 0.796406 31.098C0.796406 33.1163 2.31901 34.245 3.77282 34.245H27.0861C28.5396 34.245 30.0621 33.1163 30.0625 31.0981Z" fill="white" stroke="url(#paint1_linear)"/>
<path d="M31.0056 9.27718C31.0056 11.6776 32.9515 13.6236 35.352 13.6236C35.3777 13.6236 35.4097 13.634 35.4413 13.6685C35.4735 13.7038 35.5 13.7604 35.5 13.8323C35.5 13.9044 35.4735 13.9611 35.4412 13.9964C35.4096 14.031 35.3778 14.0413 35.352 14.0413C32.9515 14.0413 31.0056 15.9873 31.0056 18.3878V18.7469C31.0056 18.8189 30.9791 18.8755 30.9467 18.911C30.915 18.9456 30.883 18.956 30.8572 18.956C30.8314 18.956 30.7996 18.9457 30.768 18.9111C30.7357 18.8758 30.7092 18.8192 30.7092 18.7469V18.3874C30.7092 15.9871 28.7634 14.0413 26.3632 14.0413C26.3376 14.0413 26.3057 14.0311 26.274 13.9964C26.2416 13.9609 26.2151 13.9042 26.2151 13.8323C26.2151 13.7602 26.2416 13.7036 26.2738 13.6684C26.3052 13.634 26.3371 13.6236 26.3632 13.6236C28.7634 13.6236 30.7092 11.6778 30.7092 9.27758V8.91759C30.7092 8.84514 30.7358 8.78851 30.7679 8.75331C30.7993 8.71893 30.8311 8.7085 30.8572 8.7085C30.8833 8.7085 30.9152 8.71898 30.9468 8.75347C30.979 8.78874 31.0056 8.84534 31.0056 8.91759V9.27718Z" fill="white" stroke="url(#paint2_linear)"/>
<defs>
<linearGradient id="paint0_linear" x1="7.06781" y1="9.14517" x2="23.7919" y2="9.14517" gradientUnits="userSpaceOnUse">
<stop stop-color="#1AAAFF"/>
<stop offset="1" stop-color="#5EEDFD"/>
</linearGradient>
<linearGradient id="paint1_linear" x1="0" y1="28.3614" x2="30.859" y2="28.3614" gradientUnits="userSpaceOnUse">
<stop stop-color="#1AAAFF"/>
<stop offset="1" stop-color="#5EEDFD"/>
</linearGradient>
<linearGradient id="paint2_linear" x1="25.7151" y1="13.8323" x2="36" y2="13.8323" gradientUnits="userSpaceOnUse">
<stop stop-color="#1AAAFF"/>
<stop offset="1" stop-color="#5EEDFD"/>
</linearGradient>
</defs>
</svg>
