<svg width="28" height="24" viewBox="0 0 28 24" fill="none" xmlns="http://www.w3.org/2000/svg">
<path fill-rule="evenodd" clip-rule="evenodd" d="M27.0981 8.67279L15.7254 0.516931C15.2609 0.183881 14.6477 0 14 0C13.3516 0 12.7394 0.183881 12.2746 0.516931L0.901911 8.67279C0.387956 9.04142 0 9.77264 0 10.373V11.4798C0 12.1895 0.625956 12.7666 1.39564 12.7666H3.34631C3.56969 12.7666 3.75138 12.9342 3.75138 13.1399V20.7762C3.75138 22.5536 5.32 24 7.24764 24H20.752C22.68 24 24.2486 22.5536 24.2486 20.7762V13.1399C24.2486 12.9342 24.4303 12.7666 24.6537 12.7666H26.6044C27.374 12.7666 28 12.1892 28 11.4798V10.373C28 9.77264 27.612 9.04142 27.0981 8.67279ZM11.0441 23.0864V17.7324C11.0441 16.2292 12.37 15.0069 13.9999 15.0069C15.6298 15.0069 16.9558 16.2292 16.9558 17.7324V23.0864H11.0441ZM26.6041 11.8538C26.8278 11.8538 27.0095 11.6859 27.0095 11.48V10.373C27.0095 10.0551 26.7615 9.58867 26.4902 9.39361L15.1172 1.23746C14.8298 1.03149 14.4225 0.913298 13.9997 0.913298C13.5769 0.913298 13.1697 1.03149 12.8825 1.23746L1.50955 9.39361C1.23732 9.58867 0.98999 10.0551 0.98999 10.373V11.4797C0.98999 11.6857 1.17168 11.8535 1.39506 11.8535H3.34572C4.11541 11.8535 4.74137 12.4301 4.74137 13.1398V20.7761C4.74137 22.0501 5.86572 23.0865 7.24706 23.0865H10.053V17.7325C10.053 15.7256 11.8232 14.0933 13.9994 14.0933C16.1756 14.0933 17.9459 15.7259 17.9459 17.7325V23.0868H20.7518C22.134 23.0868 23.2578 22.0501 23.2578 20.7764V13.1401C23.2578 12.4306 23.8837 11.8538 24.6534 11.8538H26.6041Z" fill="#8776CC"/>
<path fill-rule="evenodd" clip-rule="evenodd" d="M27.0981 8.67279L15.7254 0.516931C15.2609 0.183881 14.6477 0 14 0C13.3516 0 12.7394 0.183881 12.2746 0.516931L0.901911 8.67279C0.387956 9.04142 0 9.77264 0 10.373V11.4798C0 12.1895 0.625956 12.7666 1.39564 12.7666H3.34631C3.56969 12.7666 3.75138 12.9342 3.75138 13.1399V20.7762C3.75138 22.5536 5.32 24 7.24764 24H20.752C22.68 24 24.2486 22.5536 24.2486 20.7762V13.1399C24.2486 12.9342 24.4303 12.7666 24.6537 12.7666H26.6044C27.374 12.7666 28 12.1892 28 11.4798V10.373C28 9.77264 27.612 9.04142 27.0981 8.67279ZM11.0441 23.0864V17.7324C11.0441 16.2292 12.37 15.0069 13.9999 15.0069C15.6298 15.0069 16.9558 16.2292 16.9558 17.7324V23.0864H11.0441ZM26.6041 11.8538C26.8278 11.8538 27.0095 11.6859 27.0095 11.48V10.373C27.0095 10.0551 26.7615 9.58867 26.4902 9.39361L15.1172 1.23746C14.8298 1.03149 14.4225 0.913298 13.9997 0.913298C13.5769 0.913298 13.1697 1.03149 12.8825 1.23746L1.50955 9.39361C1.23732 9.58867 0.98999 10.0551 0.98999 10.373V11.4797C0.98999 11.6857 1.17168 11.8535 1.39506 11.8535H3.34572C4.11541 11.8535 4.74137 12.4301 4.74137 13.1398V20.7761C4.74137 22.0501 5.86572 23.0865 7.24706 23.0865H10.053V17.7325C10.053 15.7256 11.8232 14.0933 13.9994 14.0933C16.1756 14.0933 17.9459 15.7259 17.9459 17.7325V23.0868H20.7518C22.134 23.0868 23.2578 22.0501 23.2578 20.7764V13.1401C23.2578 12.4306 23.8837 11.8538 24.6534 11.8538H26.6041Z" fill="url(#paint0_linear)"/>
<defs>
<linearGradient id="paint0_linear" x1="14" y1="0" x2="14" y2="24" gradientUnits="userSpaceOnUse">
<stop stop-color="#1AAAFF"/>
<stop offset="1" stop-color="#5EEDFD"/>
</linearGradient>
</defs>
</svg>
