<svg width="24" height="24" viewBox="0 0 24 24" fill="none" xmlns="http://www.w3.org/2000/svg">
<g clip-path="url(#clip0)">
<path d="M5.14851 23.2599L4.44281 22.2658C4.293 22.0547 4.00036 22.0051 3.78924 22.1549C3.57816 22.3048 3.52847 22.5974 3.67838 22.8085L4.38408 23.8026C4.47548 23.9313 4.61995 24 4.76672 24C4.86056 24 4.9553 23.9719 5.03765 23.9134C5.24873 23.7636 5.29842 23.471 5.14851 23.2599Z" fill="#1AAAFF"/>
<path d="M10.5574 23.4352L9.78942 19.7749C9.41597 17.995 8.3791 16.4559 6.86992 15.4411L5.23019 14.3385C4.57268 13.8965 3.6889 13.9915 3.13934 14.5519V8.90368C3.13934 8.16231 2.63389 7.5324 1.91014 7.37176C1.44303 7.26798 0.961254 7.38039 0.588084 7.67978C0.21496 7.97917 0.000976562 8.42527 0.000976562 8.90368V16.1717C0.000976562 17.1239 0.29235 18.0376 0.843551 18.8141L1.67947 19.9916C1.77088 20.1204 1.91534 20.1891 2.06211 20.1891C2.15595 20.1891 2.25069 20.1609 2.33305 20.1025C2.54412 19.9526 2.59381 19.66 2.4439 19.4489L1.60799 18.2714C1.16999 17.6544 0.938473 16.9283 0.938473 16.1717V8.90368C0.938473 8.71112 1.02463 8.53154 1.17482 8.41098C1.32496 8.29046 1.51888 8.24523 1.70703 8.28699C1.99836 8.35163 2.20184 8.60523 2.20184 8.90368V14.67C2.20184 15.4863 2.50175 16.264 3.04657 16.8691C3.06992 16.8971 3.09392 16.9248 3.11928 16.9516C3.43057 17.2815 3.79657 17.6702 4.14129 18.0365L4.62386 18.5501C4.62541 18.5518 4.6271 18.5532 4.62869 18.5548C5.04152 18.9939 5.34597 19.3181 5.35235 19.3248C5.52949 19.5135 5.8262 19.5229 6.01492 19.3457C6.20364 19.1684 6.21297 18.8718 6.03569 18.6831C6.02716 18.674 5.47844 18.0897 4.85182 17.4236L3.77702 16.2798C3.77431 16.2769 3.77182 16.2738 3.7691 16.2709C3.5171 15.9695 3.52024 15.5325 3.78438 15.2343C4.01805 14.9705 4.4148 14.9199 4.70716 15.1165L6.3468 16.2191C7.65216 17.0968 8.54893 18.4279 8.87189 19.9674L9.63994 23.6278C9.6863 23.8487 9.88116 24.0004 10.0982 24.0004C10.1301 24.0004 10.1625 23.9971 10.1949 23.9903C10.4483 23.9371 10.6106 23.6886 10.5574 23.4352Z" fill="#1AAAFF"/>
<path d="M3.47298 20.9L3.46998 20.8957C3.31951 20.685 3.02683 20.6361 2.81613 20.7864C2.60542 20.9368 2.55649 21.2295 2.70681 21.4402L2.70981 21.4445C2.80131 21.5727 2.94545 21.641 3.0918 21.641C3.18601 21.641 3.28112 21.6127 3.36367 21.5538C3.57432 21.4034 3.62331 21.1107 3.47298 20.9Z" fill="#1AAAFF"/>
<path d="M23.4128 7.6797C23.0396 7.38031 22.5576 7.26809 22.0908 7.37169C21.367 7.53228 20.8615 8.16223 20.8615 8.9036V14.5518C20.312 13.9914 19.4281 13.8964 18.7707 14.3384L17.1309 15.441C15.6217 16.4557 14.5849 17.9948 14.2114 19.7748L13.4434 23.4352C13.3903 23.6885 13.5526 23.937 13.8059 23.9902C13.8384 23.997 13.8708 24.0002 13.9026 24.0002C14.1197 24.0002 14.3146 23.8486 14.3609 23.6276L15.1289 19.9672C15.4519 18.4278 16.3486 17.0966 17.654 16.2189L19.2937 15.1164C19.586 14.9198 19.9827 14.9704 20.2165 15.2341C20.4803 15.532 20.4838 15.9683 20.2328 16.2697C20.2298 16.273 20.2269 16.2764 20.2239 16.2796C20.2239 16.2796 17.9737 18.674 17.9652 18.683C17.788 18.8717 17.7973 19.1683 17.986 19.3455C18.1747 19.5228 18.4713 19.5134 18.6486 19.3247C18.6549 19.318 20.5703 17.2814 20.8816 16.9515C20.907 16.9247 20.931 16.897 20.9543 16.869C21.4991 16.2639 21.7991 15.4862 21.7991 14.67V8.90355C21.7991 8.6051 22.0025 8.35151 22.2939 8.28687C22.482 8.24515 22.6759 8.29038 22.8261 8.41085C22.9763 8.53137 23.0625 8.71095 23.0625 8.90355V16.1716C23.0625 16.9282 22.831 17.6543 22.393 18.2713L18.8515 23.26C18.7017 23.4711 18.7513 23.7638 18.9624 23.9136C19.0448 23.9721 19.1395 24.0002 19.2333 24.0002C19.38 24.0002 19.5245 23.9315 19.616 23.8028L23.1574 18.814C23.7086 18.0375 24 17.1238 24 16.1716V8.90355C23.9998 8.42515 23.7859 7.97909 23.4128 7.6797Z" fill="#1AAAFF"/>
<path d="M7.625 13V10.5H11.375V13.625H8.25C8.08073 13.625 7.93099 13.5599 7.80078 13.4297C7.68359 13.3125 7.625 13.1693 7.625 13ZM12.625 13.625V10.5H16.375V13C16.375 13.1693 16.3099 13.3125 16.1797 13.4297C16.0625 13.5599 15.9193 13.625 15.75 13.625H12.625ZM16.375 7.375C16.5443 7.375 16.6875 7.4401 16.8047 7.57031C16.9349 7.6875 17 7.83073 17 8V9.5625C17 9.65365 16.9674 9.73177 16.9023 9.79688C16.8503 9.84896 16.7786 9.875 16.6875 9.875H7.3125C7.22135 9.875 7.14323 9.84896 7.07812 9.79688C7.02604 9.73177 7 9.65365 7 9.5625V8C7 7.83073 7.05859 7.6875 7.17578 7.57031C7.30599 7.4401 7.45573 7.375 7.625 7.375H8.48438C8.35417 7.1276 8.28906 6.86719 8.28906 6.59375C8.28906 6.125 8.45833 5.72135 8.79688 5.38281C9.13542 5.04427 9.53906 4.875 10.0078 4.875C10.3984 4.875 10.7435 4.97917 11.043 5.1875C11.3424 5.39583 11.668 5.73438 12.0195 6.20312C12.3711 5.73438 12.6966 5.39583 12.9961 5.1875C13.2956 4.97917 13.6406 4.875 14.0312 4.875C14.5 4.875 14.9036 5.04427 15.2422 5.38281C15.5807 5.72135 15.75 6.125 15.75 6.59375C15.75 6.85417 15.6849 7.11458 15.5547 7.375H16.375ZM10.0078 7.375H11.6875C11.2318 6.6849 10.8932 6.25521 10.6719 6.08594C10.4635 5.90365 10.2422 5.8125 10.0078 5.8125C9.86458 5.8125 9.73438 5.85156 9.61719 5.92969C9.5 5.99479 9.40234 6.08594 9.32422 6.20312C9.25911 6.32031 9.22656 6.45052 9.22656 6.59375C9.22656 6.8151 9.29818 7.00391 9.44141 7.16016C9.59766 7.30339 9.78646 7.375 10.0078 7.375ZM14.0312 7.375C14.2526 7.375 14.4349 7.30339 14.5781 7.16016C14.7344 7.00391 14.8125 6.8151 14.8125 6.59375C14.8125 6.3724 14.7344 6.1901 14.5781 6.04688C14.4349 5.89062 14.2526 5.8125 14.0312 5.8125C13.875 5.8125 13.7383 5.83854 13.6211 5.89062C13.5169 5.92969 13.3607 6.06641 13.1523 6.30078C12.944 6.53516 12.6771 6.89323 12.3516 7.375H14.0312Z" fill="#1AAAFF"/>
</g>
<defs>
<clipPath id="clip0">
<rect width="24" height="24" fill="white"/>
</clipPath>
</defs>
</svg>
