<svg width="13" height="11" viewBox="0 0 13 11" fill="none" xmlns="http://www.w3.org/2000/svg">
<path d="M11.8281 0.976562C11.4062 0.617188 10.9297 0.390625 10.3984 0.296875C9.86719 0.203125 9.34375 0.242188 8.82812 0.414062C8.3125 0.585937 7.85938 0.875 7.46875 1.28125L7 1.75L6.53125 1.28125C6.14062 0.875 5.6875 0.585937 5.17188 0.414062C4.65625 0.242188 4.13281 0.203125 3.60156 0.296875C3.07031 0.390625 2.59375 0.617188 2.17188 0.976562C1.6875 1.38281 1.35156 1.88281 1.16406 2.47656C0.976562 3.07031 0.945312 3.67188 1.07031 4.28125C1.21094 4.875 1.5 5.39844 1.9375 5.85156L6.46094 10.5156C6.61719 10.6719 6.79688 10.75 7 10.75C7.20312 10.75 7.38281 10.6719 7.53906 10.5156L12.0625 5.82812C12.5 5.39062 12.7812 4.875 12.9062 4.28125C13.0469 3.67188 13.0234 3.07031 12.8359 2.47656C12.6484 1.88281 12.3125 1.38281 11.8281 0.976562Z" fill="#CCCCCC"/>
</svg>
