<svg width="220" height="40" viewBox="0 0 220 40" fill="none" xmlns="http://www.w3.org/2000/svg">
<path d="M26.2206 37.7985C33.5432 35.2254 38.6003 28.2312 38.6003 20.2354C38.6003 9.96148 30.3242 1.63484 20.1176 1.63484C9.91096 1.63484 1.63484 9.96148 1.63484 20.2354C1.63484 27.9399 6.33169 34.7345 13.268 37.5174V22.495H5.3052L13.6402 9.58765H26.2206V37.7985ZM8.30698 20.8602H14.9028V39.8174L13.8287 39.4622C5.64181 36.7544 0 29.0402 0 20.2354C0 9.0608 9.00583 0 20.1176 0C31.2293 0 40.2351 9.0608 40.2351 20.2354C40.2351 29.3383 34.207 37.2497 25.6278 39.7021L24.5858 40V11.2225H14.5306L8.30698 20.8602Z" fill="url(#paint0_linear)"/>
<path fill-rule="evenodd" clip-rule="evenodd" d="M56.1068 10.5457C61.6451 10.5457 65.2008 14.2677 65.2008 20.2665C65.2008 26.278 61.6579 30 56.1068 30C50.5302 30 47 26.278 47 20.2665C47 14.2677 50.5557 10.5457 56.1068 10.5457ZM56.1068 14.434C53.5103 14.434 51.7836 16.7107 51.7836 20.2665C51.7836 23.835 53.4848 26.1117 56.1068 26.1117C58.6905 26.1117 60.4172 23.835 60.4172 20.2665C60.4172 16.7107 58.6905 14.434 56.1068 14.434Z" fill="#333333"/>
<path fill-rule="evenodd" clip-rule="evenodd" d="M65.009 29.4799V15.2441H69.4089V17.5592H69.652C70.2787 15.9476 71.7624 14.9115 73.8217 14.9115C76.9937 14.9115 78.6437 16.8685 78.6437 20.2835V29.4799H74.1158V21.294C74.1158 19.5673 73.4124 18.608 71.8775 18.608C70.4066 18.608 69.5241 19.708 69.5241 21.3451V29.4799H65.009Z" fill="#333333"/>
<path fill-rule="evenodd" clip-rule="evenodd" d="M126.13 29.4799V15.2441H130.53V17.5592H130.773C131.4 15.9476 132.883 14.9115 134.943 14.9115C138.115 14.9115 139.765 16.8685 139.765 20.2835V29.4799H135.237V21.294C135.237 19.5673 134.533 18.608 132.999 18.608C131.528 18.608 130.645 19.708 130.645 21.3451V29.4799H126.13Z" fill="#333333"/>
<path fill-rule="evenodd" clip-rule="evenodd" d="M85.2179 18.1219C83.7342 18.1219 82.6982 19.158 82.5831 20.7696H87.7504C87.6737 19.1068 86.7272 18.1219 85.2179 18.1219ZM87.9167 25.2846H92.048C91.5492 28.0601 88.94 29.8124 85.2563 29.8124C80.7157 29.8124 78.1064 27.1264 78.1064 22.4579C78.1064 17.7638 80.7796 14.9115 85.1924 14.9115C89.5795 14.9115 92.1376 17.5719 92.1376 22.1126V23.366H82.5575V23.5962C82.5959 25.4509 83.6575 26.602 85.3842 26.602C86.7016 26.602 87.6097 26.116 87.9167 25.2846Z" fill="#333333"/>
<path fill-rule="evenodd" clip-rule="evenodd" d="M119.599 18.1219C118.115 18.1219 117.079 19.158 116.964 20.7696H122.131C122.055 19.1068 121.108 18.1219 119.599 18.1219ZM122.298 25.2846H126.429C125.93 28.0601 123.321 29.8124 119.637 29.8124C115.097 29.8124 112.487 27.1264 112.487 22.4579C112.487 17.7638 115.161 14.9115 119.573 14.9115C123.96 14.9115 126.518 17.5719 126.518 22.1126V23.366H116.938V23.5962C116.977 25.4509 118.038 26.602 119.765 26.602C121.082 26.602 121.991 26.116 122.298 25.2846Z" fill="#333333"/>
<path fill-rule="evenodd" clip-rule="evenodd" d="M146.339 18.1219C144.856 18.1219 143.82 19.158 143.704 20.7696H148.872C148.795 19.1068 147.849 18.1219 146.339 18.1219ZM149.038 25.2846H153.169C152.671 28.0601 150.061 29.8124 146.378 29.8124C141.837 29.8124 139.228 27.1264 139.228 22.4579C139.228 17.7638 141.901 14.9115 146.314 14.9115C150.701 14.9115 153.259 17.5719 153.259 22.1126V23.366H143.679V23.5962C143.717 25.4509 144.779 26.602 146.506 26.602C147.823 26.602 148.731 26.116 149.038 25.2846Z" fill="#333333"/>
<path fill-rule="evenodd" clip-rule="evenodd" d="M106.616 29.5481H97.7522V11.0915H106.36C110.044 11.0915 112.218 12.831 112.218 15.696C112.218 17.6785 110.735 19.3541 108.778 19.6227V19.8657C111.195 19.9936 113.062 21.8738 113.062 24.2272C113.062 27.4632 110.568 29.5481 106.616 29.5481ZM102.446 14.4042V18.6122H104.928C106.642 18.6122 107.639 17.8192 107.639 16.5146C107.639 15.1972 106.706 14.4042 105.107 14.4042H102.446ZM102.446 26.2353H105.286C107.23 26.2353 108.292 25.3784 108.292 23.8179C108.292 22.3087 107.204 21.4645 105.26 21.4645H102.446V26.2353Z" fill="#333333"/>
<path fill-rule="evenodd" clip-rule="evenodd" d="M154.602 29.7101V19.0301H152.325V15.6662H154.602V14.2848C154.602 11.4453 156.06 10 159.872 10C160.754 10 161.445 10.0512 162.02 10.1407V13.1209C161.803 13.0825 161.394 13.0441 160.869 13.0441C159.501 13.0441 159.002 13.543 159.002 14.6429V15.6662H161.905V19.0301H159.117V29.7101H154.602Z" fill="#333333"/>
<path fill-rule="evenodd" clip-rule="evenodd" d="M167.311 26.5381C168.744 26.5381 169.856 25.5916 169.856 24.3637V23.43L167.465 23.5835C166.122 23.6858 165.418 24.2102 165.418 25.0671C165.418 25.9753 166.173 26.5381 167.311 26.5381ZM165.661 29.6973C162.924 29.6973 161.057 27.9962 161.057 25.3869C161.057 22.7904 163.078 21.2812 166.748 21.0637L169.856 20.8847V19.7719C169.856 18.8126 169.14 18.2371 167.887 18.2371C166.697 18.2371 165.93 18.6336 165.636 19.3882H161.568C161.773 16.6255 164.293 14.9115 168.143 14.9115C172.069 14.9115 174.308 16.7022 174.308 19.7719V29.4799H169.908V27.7148H169.665C169.025 28.9299 167.465 29.6973 165.661 29.6973Z" fill="#333333"/>
<path fill-rule="evenodd" clip-rule="evenodd" d="M187.904 20.5138H183.747C183.555 19.1835 182.736 18.3905 181.355 18.3905C179.59 18.3905 178.695 19.708 178.695 22.3428C178.695 25.0032 179.603 26.3334 181.355 26.3334C182.711 26.3334 183.542 25.6427 183.747 24.3125H187.904C187.635 27.7148 185.218 29.8124 181.355 29.8124C176.661 29.8124 174.154 27.2032 174.154 22.3428C174.154 17.508 176.661 14.9115 181.355 14.9115C185.282 14.9115 187.622 17.022 187.904 20.5138Z" fill="#333333"/>
<path fill-rule="evenodd" clip-rule="evenodd" d="M188.893 12.1829H193.408V15.6363H196.273V19.0002H193.408V24.7687C193.408 25.8431 193.958 26.3675 195.135 26.3675C195.659 26.3675 195.941 26.3419 196.273 26.3036V29.5268C195.8 29.6291 194.968 29.7058 194.111 29.7058C190.364 29.7058 188.893 28.5675 188.893 25.7792V19.0002H186.706V15.6363H188.893V12.1829Z" fill="#333333"/>
<path fill-rule="evenodd" clip-rule="evenodd" d="M202.69 29.8124C198.136 29.8124 195.438 27.0369 195.438 22.3556C195.438 17.751 198.213 14.9115 202.69 14.9115C207.192 14.9115 209.942 17.7254 209.942 22.3556C209.942 27.0497 207.256 29.8124 202.69 29.8124ZM202.69 26.359C204.352 26.359 205.299 24.8881 205.299 22.3556C205.299 19.8742 204.327 18.365 202.69 18.365C201.053 18.365 200.08 19.8742 200.08 22.3556C200.08 24.9009 201.027 26.359 202.69 26.359Z" fill="#333333"/>
<path fill-rule="evenodd" clip-rule="evenodd" d="M209.626 29.3647V15.129H214.026V17.4696H214.269C214.615 16.0371 215.996 14.9115 217.774 14.9115C218.375 14.9115 219.079 14.9883 219.411 15.129V18.9789C219.066 18.8382 218.158 18.7231 217.467 18.7231C215.472 18.7231 214.141 19.8486 214.141 21.8312V29.3647H209.626Z" fill="#333333"/>
<defs>
<linearGradient id="paint0_linear" x1="-1.84727e-06" y1="40" x2="40" y2="-3.74348e-06" gradientUnits="userSpaceOnUse">
<stop stop-color="#1AAAFF"/>
<stop offset="1" stop-color="$second-color"/>
</linearGradient>
</defs>
</svg>
