<svg width="18" height="14" viewBox="0 0 18 14" fill="none" xmlns="http://www.w3.org/2000/svg">
<path d="M16.3125 14H1.6875C1.21875 14 0.820312 13.8359 0.492188 13.5078C0.164063 13.1797 0 12.7812 0 12.3125V2.1875C0 1.71875 0.164063 1.32031 0.492188 0.992188C0.820312 0.664063 1.21875 0.5 1.6875 0.5H16.3125C16.7812 0.5 17.1797 0.664063 17.5078 0.992188C17.8359 1.32031 18 1.71875 18 2.1875V12.3125C18 12.7812 17.8359 13.1797 17.5078 13.5078C17.1797 13.8359 16.7812 14 16.3125 14ZM3.9375 2.46875C3.39844 2.46875 2.92969 2.66797 2.53125 3.06641C2.15625 3.44141 1.96875 3.89844 1.96875 4.4375C1.96875 4.97656 2.15625 5.44531 2.53125 5.84375C2.92969 6.21875 3.39844 6.40625 3.9375 6.40625C4.47656 6.40625 4.93359 6.21875 5.30859 5.84375C5.70703 5.44531 5.90625 4.97656 5.90625 4.4375C5.90625 3.89844 5.70703 3.44141 5.30859 3.06641C4.93359 2.66797 4.47656 2.46875 3.9375 2.46875ZM2.25 11.75H15.75V7.8125L12.6562 4.71875C12.5859 4.64844 12.4922 4.61328 12.375 4.61328C12.2578 4.61328 12.1641 4.64844 12.0938 4.71875L7.3125 9.5L5.34375 7.53125C5.27344 7.46094 5.17969 7.42578 5.0625 7.42578C4.94531 7.42578 4.85156 7.46094 4.78125 7.53125L2.25 10.0625V11.75Z" fill="#999999"/>
</svg>
