<svg width="40" height="40" viewBox="0 0 40 40" fill="none" xmlns="http://www.w3.org/2000/svg">
<path d="M26.2206 37.7985C33.5432 35.2254 38.6003 28.2312 38.6003 20.2354C38.6003 9.96148 30.3242 1.63484 20.1176 1.63484C9.91096 1.63484 1.63484 9.96148 1.63484 20.2354C1.63484 27.9399 6.33169 34.7345 13.268 37.5174V22.495H5.3052L13.6402 9.58765H26.2206V37.7985ZM8.30698 20.8602H14.9028V39.8174L13.8287 39.4622C5.64181 36.7544 0 29.0402 0 20.2354C0 9.0608 9.00583 0 20.1176 0C31.2293 0 40.2351 9.0608 40.2351 20.2354C40.2351 29.3383 34.207 37.2497 25.6278 39.7021L24.5858 40V11.2225H14.5306L8.30698 20.8602Z" fill="url(#paint0_linear)"/>
<defs>
<linearGradient id="paint0_linear" x1="-1.84727e-06" y1="40" x2="40" y2="-3.74348e-06" gradientUnits="userSpaceOnUse">
<stop stop-color="#1AAAFF"/>
<stop offset="1" stop-color="$second-color"/>
</linearGradient>
</defs>
</svg>
