<svg width="27" height="27" viewBox="0 0 27 27" fill="none" xmlns="http://www.w3.org/2000/svg">
<path d="M26.5 13.5C26.5 20.6797 20.6797 26.5 13.5 26.5C6.3203 26.5 0.5 20.6797 0.5 13.5C0.5 6.3203 6.3203 0.5 13.5 0.5C20.6797 0.5 26.5 6.3203 26.5 13.5Z" fill="white" stroke="url(#paint0_linear)"/>
<path d="M17.2169 12.9355L10.671 7.103C10.5169 6.96567 10.2697 6.96567 10.1156 7.103C9.96147 7.24032 9.96147 7.46056 10.1156 7.59789L16.3824 13.1817L10.1156 18.7654C9.96147 18.9028 9.96147 19.123 10.1156 19.2603C10.1912 19.3277 10.293 19.364 10.3919 19.364C10.4907 19.364 10.5925 19.3303 10.6681 19.2603L17.214 13.4278C17.3682 13.2931 17.3682 13.0702 17.2169 12.9355Z" fill="#1AAAFF"/>
<defs>
<linearGradient id="paint0_linear" x1="0" y1="13.5" x2="27" y2="13.5" gradientUnits="userSpaceOnUse">
<stop stop-color="#1AAAFF"/>
<stop offset="1" stop-color="$second-color"/>
</linearGradient>
</defs>
</svg>
