<svg width="28" height="28" viewBox="0 0 28 28" fill="none" xmlns="http://www.w3.org/2000/svg">
<path fill-rule="evenodd" clip-rule="evenodd" d="M26.4843 19.7213L24.886 18.385C24.7415 18.2655 24.7608 17.7123 24.7608 17.5421V11.7923C24.7608 7.89971 21.5751 4.48433 17.1844 3.26077V3.15383C17.1844 1.60598 15.6177 0.292725 13.7566 0.292725C11.901 0.292725 10.3274 1.60598 10.3274 3.15383V3.26077C5.93676 4.48433 2.75242 7.89971 2.75242 11.7923V17.5421C2.75242 17.7123 2.77031 18.2655 2.62725 18.385L1.02889 19.7213C0.533703 20.1353 0 20.9035 0 21.6141C0 22.5111 0.972495 23.2413 2.16783 23.2413H8.18712C8.75246 25.2411 10.912 26.7349 13.4815 26.7349C16.051 26.7349 18.692 25.2917 19.2587 23.2919L25.3454 23.2413C26.5407 23.2413 27.5119 22.5111 27.5119 21.6141C27.5119 20.9058 26.9795 20.1364 26.4843 19.7213ZM13.4815 24.7133C12.2641 24.7133 11.2132 24.1084 10.7373 23.2414H16.2243C15.7483 24.1084 14.6974 24.7133 13.4815 24.7133ZM17.8831 20.992C17.6933 20.9529 18.073 20.9529 17.8831 20.992H9.62999C9.44017 20.9529 9.81982 20.9529 9.62999 20.992H2.75237C2.8129 20.7942 2.72624 21.0127 2.75237 20.992L4.34385 19.8121C4.93946 19.3153 5.50342 18.2459 5.50342 17.5421V11.7923C5.50342 8.51721 7.96423 5.77571 11.8226 5.00408C12.3673 4.89484 12.7511 4.4889 12.7511 4.02087V3.1538C12.7511 2.73291 13.2517 2.59262 13.7566 2.59262C14.2751 2.59262 14.7593 2.72486 14.7593 3.1538V4.02087C14.7593 4.4889 15.1445 4.89484 15.6892 5.00408C19.5475 5.77571 22.0097 8.51721 22.0097 11.7923V17.5421C22.0097 18.2459 22.5737 19.3153 23.1693 19.8133L24.7663 21.1472C24.7924 21.1691 24.736 20.9655 24.7608 20.992H17.8831Z" fill="white"/>
</svg>
