<svg width="25" height="7" viewBox="0 0 25 7" fill="none" xmlns="http://www.w3.org/2000/svg">
<path fill-rule="evenodd" clip-rule="evenodd" d="M21.5 7C19.5679 7 18 5.4334 18 3.5C18 1.5666 19.5679 0 21.5 0C23.4335 0 25 1.5666 25 3.5C25 5.4334 23.4335 7 21.5 7ZM12.5 7C10.5667 7 9 5.4334 9 3.5C9 1.5666 10.5667 0 12.5 0C14.4333 0 16 1.5666 16 3.5C16 5.4334 14.4333 7 12.5 7ZM3.5 7C1.56647 7 0 5.4334 0 3.5C0 1.5666 1.56647 0 3.5 0C5.43208 0 7 1.5666 7 3.5C7 5.4334 5.43208 7 3.5 7Z" fill="#D0D7DD" fill-opacity="0.72727"/>
</svg>
