<svg width="18" height="17" viewBox="0 0 18 17" fill="none" xmlns="http://www.w3.org/2000/svg">
<path d="M1.125 15C1.125 15.3047 1.23047 15.5625 1.44141 15.7734C1.67578 16.0078 1.94531 16.125 2.25 16.125H7.875V10.5H1.125V15ZM16.875 4.875H15.3984C15.6328 4.40625 15.75 3.9375 15.75 3.46875C15.75 2.625 15.4453 1.89844 14.8359 1.28906C14.2266 0.679688 13.5 0.375 12.6562 0.375C11.9531 0.375 11.3203 0.574219 10.7578 0.972656C10.2422 1.32422 9.66797 1.92188 9.03516 2.76562C8.40234 1.92188 7.82812 1.32422 7.3125 0.972656C6.75 0.574219 6.11719 0.375 5.41406 0.375C4.57031 0.375 3.84375 0.679688 3.23438 1.28906C2.625 1.89844 2.32031 2.625 2.32031 3.46875C2.32031 3.96094 2.4375 4.42969 2.67188 4.875H1.125C0.820312 4.875 0.550781 4.99219 0.316406 5.22656C0.105469 5.4375 0 5.69531 0 6V8.8125C0 8.97656 0.046875 9.11719 0.140625 9.23438C0.257812 9.32812 0.398438 9.375 0.5625 9.375H17.4375C17.6016 9.375 17.7305 9.32812 17.8242 9.23438C17.9414 9.11719 18 8.97656 18 8.8125V6C18 5.69531 17.8828 5.4375 17.6484 5.22656C17.4375 4.99219 17.1797 4.875 16.875 4.875ZM5.41406 4.875C5.01562 4.875 4.67578 4.74609 4.39453 4.48828C4.13672 4.20703 4.00781 3.86719 4.00781 3.46875C4.00781 3.07031 4.13672 2.74219 4.39453 2.48438C4.67578 2.20312 5.01562 2.0625 5.41406 2.0625C5.69531 2.0625 5.92969 2.10937 6.11719 2.20312C6.375 2.32031 6.66797 2.56641 6.99609 2.94141C7.37109 3.36328 7.85156 4.00781 8.4375 4.875H5.41406ZM12.6562 4.875H9.63281C10.2188 4.00781 10.6992 3.36328 11.0742 2.94141C11.4023 2.56641 11.6953 2.32031 11.9531 2.20312C12.1406 2.10937 12.375 2.0625 12.6562 2.0625C13.0547 2.0625 13.3828 2.20312 13.6406 2.48438C13.9219 2.74219 14.0625 3.07031 14.0625 3.46875C14.0625 3.86719 13.9219 4.20703 13.6406 4.48828C13.3828 4.74609 13.0547 4.875 12.6562 4.875ZM10.125 16.125H15.75C16.0547 16.125 16.3125 16.0078 16.5234 15.7734C16.7578 15.5625 16.875 15.3047 16.875 15V10.5H10.125V16.125Z" fill="white"/>
</svg>
