<?xml version="1.0" encoding="UTF-8" standalone="no"?>
<svg
   xmlns:dc="http://purl.org/dc/elements/1.1/"
   xmlns:cc="http://creativecommons.org/ns#"
   xmlns:rdf="http://www.w3.org/1999/02/22-rdf-syntax-ns#"
   xmlns:svg="http://www.w3.org/2000/svg"
   xmlns="http://www.w3.org/2000/svg"
   viewBox="0 0 712 708"
   height="708"
   width="712"
   xml:space="preserve"
   id="svg2"
   version="1.1"><metadata
     id="metadata8"><rdf:RDF><cc:Work
         rdf:about=""><dc:format>image/svg+xml</dc:format><dc:type
           rdf:resource="http://purl.org/dc/dcmitype/StillImage" /></cc:Work></rdf:RDF></metadata><defs
     id="defs6"><linearGradient
       id="linearGradient28"
       gradientTransform="matrix(3,0,0,-3,1.2,529.8)"
       gradientUnits="userSpaceOnUse"
       y2="1024"
       x2="0"
       y1="0"
       x1="0"><stop
         id="stop24"
         offset="0"
         style="stop-opacity:1;stop-color:$second-color" /><stop
         id="stop26"
         offset="1"
         style="stop-opacity:1;stop-color:#ff3727" /></linearGradient><linearGradient
       id="linearGradient38"
       spreadMethod="pad"
       gradientTransform="matrix(3,0,0,-3,1.2,529.8)"
       gradientUnits="userSpaceOnUse"
       y2="176.1644"
       x2="0"
       y1="0"
       x1="177.2"><stop
         id="stop34"
         offset="0"
         style="stop-opacity:1;stop-color:$second-color" /><stop
         id="stop36"
         offset="1"
         style="stop-opacity:1;stop-color:#ff3727" /></linearGradient></defs><g
     transform="matrix(1.3333333,0,0,-1.3333333,0,708)"
     id="g10"><g
       id="g12" /><g
       id="g14"><g
         id="g16"><g
           id="g22"><path
             id="path30"
             style="fill:url(#linearGradient28);stroke:none"
             d="M 347.635,30.39312 C 444.3837,64.38989 511.2,156.8006 511.2,262.4434 511.2,398.1857 401.8532,508.2 267,508.2 132.1468,508.2 22.8,398.1857 22.8,262.4434 22.8,160.6493 84.85643,70.87622 176.5009,34.10783 V 232.5886 H 71.29406 L 181.419,403.1248 H 347.635 Z M 110.9546,254.1886 h 87.1463 V 3.718951 l -14.1913,4.6937 C 75.74142,44.18859 1.2,146.1117 1.2,262.4434 1.2,410.0857 120.188,529.8 267,529.8 413.812,529.8 532.8,410.0857 532.8,262.4434 532.8,142.1727 453.154,37.64453 339.8033,5.242599 L 326.035,1.306838 V 381.5248 H 193.1828 Z m 177.1145,72.772 c 0,-3.3276 -0.4555,-6.2234 -1.3667,-8.6875 -0.9111,-2.4641 -2.2142,-4.37 -3.9093,-5.7179 -1.6952,-1.3479 -3.6869,-2.0218 -5.9754,-2.0218 -2.3308,0 -4.3649,0.6844 -6.1024,2.0534 -1.7375,1.3689 -2.9241,3.2327 -3.5598,5.5915 -0.5509,-2.8221 -1.8434,-5.0439 -3.8776,-6.6656 -2.0341,-1.6217 -4.492,-2.4325 -7.3738,-2.4325 -2.5003,0 -4.6933,0.695 -6.5792,2.085 -1.8858,1.39 -3.3266,3.3697 -4.3225,5.9391 -0.9959,2.5693 -1.4939,5.581 -1.4939,9.0349 V 348 h 44.5606 z m -17.7352,0.6318 c 0,-1.6006 0.392,-2.8642 1.176,-3.7909 0.784,-0.9267 1.8752,-1.39 3.2737,-1.39 1.3561,0 2.4049,0.4633 3.1466,1.39 0.7416,0.9267 1.0912,2.1903 1.0488,3.7909 v 8.8454 h -8.6451 z m -17.7988,0 c 0,-2.0218 0.4238,-3.6224 1.2713,-4.8018 0.8476,-1.1794 2.0342,-1.7691 3.5598,-1.7691 1.3985,0 2.5109,0.5897 3.3373,1.7691 0.8263,1.1794 1.2183,2.78 1.176,4.8018 v 8.8454 h -9.3444 z m 25.7447,-39.4288 c 0,-5.56 -1.6527,-9.8352 -4.9583,-12.8258 -3.3055,-2.9906 -7.8399,-4.4859 -13.6033,-4.4859 -0.89,0 -1.568,0.0211 -2.0342,0.0632 v 23.7562 c -1.9494,-0.5476 -3.4432,-1.4953 -4.4815,-2.8432 -1.0382,-1.3478 -1.5574,-2.9905 -1.5574,-4.9281 0,-1.4743 0.2967,-2.8958 0.89,-4.2648 0.5933,-1.3689 1.462,-2.622 2.6062,-3.7593 l -5.9117,-5.8758 c -1.9918,1.7691 -3.5068,3.9067 -4.5451,6.4129 -1.0382,2.5062 -1.5574,5.3388 -1.5574,8.4979 0,3.6645 0.7205,6.8657 2.1613,9.6036 1.4409,2.7379 3.475,4.8334 6.1025,6.2865 2.6274,1.4532 5.6786,2.1798 9.1536,2.1798 3.5174,0 6.6216,-0.7371 9.3126,-2.2114 2.6911,-1.4742 4.7676,-3.5592 6.2296,-6.2549 1.4621,-2.6958 2.1931,-5.8127 2.1931,-9.3509 z m -14.5569,-6.3813 c 1.9918,0 3.5915,0.5791 4.7993,1.7375 1.2078,1.1583 1.8117,2.6852 1.8117,4.5806 0,1.7691 -0.5933,3.2539 -1.7799,4.4543 -1.1866,1.2005 -2.7969,1.9902 -4.8311,2.3693 z m 14.6205,-38.797 c 0,-3.7487 -1.1866,-6.7498 -3.5598,-9.0033 -2.3732,-2.2535 -5.5727,-3.3802 -9.5987,-3.3802 h -21.6764 v 11.1831 h 18.4345 c 1.9494,0 3.4856,0.5265 4.6086,1.5795 1.1231,1.0531 1.6846,2.4641 1.6846,4.2332 -0.0424,1.8533 -0.6569,3.3802 -1.8435,4.5807 -1.1866,1.2004 -2.7545,1.9059 -4.7039,2.1165 h -18.1803 v 11.2463 h 34.3899 v -11.2463 h -5.5939 c 1.9918,-1.2215 3.4962,-2.7905 4.5132,-4.707 1.0171,-1.9165 1.5257,-4.1173 1.5257,-6.6025 z m -0.0636,-34.6269 c 0,-5.56 -1.6527,-9.8353 -4.9583,-12.8259 -3.3055,-2.9906 -7.8399,-4.4858 -13.6033,-4.4858 -0.89,0 -1.568,0.021 -2.0342,0.0631 v 23.7563 c -1.9494,-0.5476 -3.4432,-1.4953 -4.4815,-2.8432 -1.0382,-1.3479 -1.5574,-2.9906 -1.5574,-4.9282 0,-1.4742 0.2967,-2.8958 0.89,-4.2647 0.5933,-1.3689 1.462,-2.622 2.6062,-3.7593 l -5.9117,-5.8759 c -1.9918,1.7691 -3.5068,3.9067 -4.5451,6.4129 -1.0382,2.5063 -1.5574,5.3389 -1.5574,8.498 0,3.6645 0.7205,6.8657 2.1613,9.6035 1.4409,2.7379 3.475,4.8334 6.1025,6.2866 2.6274,1.4532 5.6786,2.1798 9.1536,2.1798 3.5174,0 6.6216,-0.7372 9.3126,-2.2114 2.6911,-1.4742 4.7676,-3.5592 6.2296,-6.255 1.4621,-2.6957 2.1931,-5.8126 2.1931,-9.3508 z m -14.5569,-6.3814 c 1.9918,0 3.5915,0.5792 4.7993,1.7375 1.2078,1.1584 1.8117,2.6852 1.8117,4.5807 0,1.7691 -0.5933,3.2538 -1.7799,4.4543 -1.1866,1.2004 -2.7969,1.9902 -4.8311,2.3693 z m 18.4345,-32.7947 c 0,1.1373 -0.3179,2.064 -0.9535,2.78 -0.6357,0.7161 -1.5468,1.0741 -2.7334,1.0741 h -2.2249 v -7.5818 h -7.5009 v 7.5818 h -25.2362 v 11.1831 h 25.2362 v 4.6123 h 7.5009 v -4.6123 h 3.1784 c 3.6445,0 6.5156,-1.2109 8.6133,-3.6329 2.0978,-2.422 3.1466,-5.5284 3.1466,-9.3193 0,-2.4851 -0.4449,-4.9281 -1.3349,-7.329 l -8.5816,1.4532 c 0.5933,1.6848 0.89,2.9484 0.89,3.7908 z m -3.814,-21.3588 c 0,-4.7176 -1.0913,-8.3821 -3.2738,-10.9936 -2.1824,-2.6115 -5.2442,-3.9383 -9.1854,-3.9804 h -22.3757 v 11.0567 h 3.8776 C 244.462,146.1808 243,149.6136 243,154.2048 c 0,3.6224 0.9853,6.4761 2.9559,8.5611 1.9706,2.085 4.5662,3.1275 7.787,3.1275 3.2631,0 5.8057,-1.1267 7.628,-3.3802 1.8223,-2.2535 2.7546,-5.4863 2.797,-9.6984 v -8.9086 h 0.3814 c 1.6527,0 2.9241,0.5581 3.814,1.6743 0.8899,1.1163 1.3349,2.7274 1.3349,4.8334 0,1.4322 -0.2331,3.0433 -0.6992,4.8334 -0.4662,1.7902 -1.1442,3.5908 -2.0342,5.402 l 7.6281,3.0959 c 1.2713,-2.78 2.2142,-5.4441 2.8287,-7.9924 0.6145,-2.5484 0.9218,-5.1914 0.9218,-7.9293 z m -27.6518,2.9063 c 0,-1.6848 0.4132,-3.159 1.2396,-4.4227 0.8264,-1.2636 1.8964,-2.0639 3.2101,-2.4009 h 2.9877 v 6.6973 c 0,3.1591 -1.1866,4.7386 -3.5598,4.7386 -1.1866,0 -2.1295,-0.4107 -2.8287,-1.2321 -0.6993,-0.8213 -1.0489,-1.948 -1.0489,-3.3802 z m 14.684,-47.0737 c 2.3732,1.6006 3.5598,3.833 3.5598,6.6973 0,2.0218 -0.7734,3.6645 -2.3202,4.9281 -1.5468,1.2637 -3.5491,1.8955 -6.0071,1.8955 -2.5003,0 -4.5133,-0.6318 -6.0389,-1.8955 -1.5256,-1.2636 -2.2884,-2.9063 -2.2884,-4.9281 0,-3.117 1.2925,-5.3494 3.8776,-6.6973 l -4.7675,-8.27675 c -2.6275,1.34787 -4.6616,3.36966 -6.1025,6.06545 -1.4408,2.6957 -2.1613,5.8548 -2.1613,9.4772 0,3.4961 0.7205,6.5709 2.1613,9.2245 1.4409,2.6536 3.475,4.707 6.1025,6.1602 2.6274,1.4532 5.6786,2.1797 9.1536,2.1797 3.5174,0 6.6216,-0.7371 9.3126,-2.2113 2.6911,-1.4742 4.7676,-3.5487 6.2296,-6.2234 1.4621,-2.6747 2.1931,-5.76 2.1931,-9.2561 0,-3.4118 -0.7098,-6.4445 -2.1295,-9.0981 -1.4197,-2.65364 -3.422,-4.71755 -6.0071,-6.19179 z M 245.2884,68.39734 c -0.7204,1.26364 -1.2819,2.7168 -1.6845,4.35952 C 243.2013,74.39959 243,76.06335 243,77.7482 c 0,3.3697 0.9747,6.097 2.9241,8.182 1.9494,2.085 4.6404,3.12749 8.073,3.12749 h 14.7476 v 4.73861 h 7.5009 v -4.73861 h 9.5351 V 77.87456 h -9.5351 v -8.84541 h -7.5009 v 8.84541 H 255.777 c -2.4156,0 -3.6233,-0.98983 -3.6233,-2.96953 0,-1.22151 0.3814,-2.67467 1.1442,-4.35952 z m 32.9914,-20.60068 c 0,-3.70666 -0.731,-6.97101 -2.1931,-9.79313 -1.462,-2.82212 -3.5174,-5.01239 -6.166,-6.57087 -2.6486,-1.55849 -5.7104,-2.33772 -9.1855,-2.33772 -3.5174,0 -6.6003,0.77923 -9.249,2.33772 -2.6486,1.55848 -4.7039,3.74875 -6.166,6.57087 -1.4621,2.82212 -2.1931,6.08647 -2.1931,9.79313 0,3.70667 0.731,6.97101 2.1931,9.79313 1.4621,2.82213 3.5174,5.00187 6.166,6.53929 2.6487,1.53742 5.7316,2.30612 9.249,2.30612 3.4751,0 6.5369,-0.7687 9.1855,-2.30612 2.6486,-1.53742 4.704,-3.71716 6.166,-6.53929 1.4621,-2.82212 2.1931,-6.08646 2.1931,-9.79313 z m -9.1537,0 c 0,2.19031 -0.784,3.95937 -2.352,5.30725 -1.568,1.34788 -3.6233,2.02181 -6.166,2.02181 -2.5851,0 -4.6616,-0.67393 -6.2296,-2.02181 -1.568,-1.34788 -2.352,-3.11694 -2.352,-5.30725 0,-2.23242 0.784,-4.02254 2.352,-5.37042 1.568,-1.34788 3.6445,-2.02181 6.2296,-2.02181 2.5427,0 4.598,0.68446 6.166,2.0534 1.568,1.36894 2.352,3.14853 2.352,5.33883 z m 3.0512,-35.25878 c 1.9918,-1.17939 3.5174,-2.706261 4.5769,-4.580655 1.0594,-1.874394 1.5892,-4.012013 1.5892,-6.412921 h -10.3615 c 0.0424,0.379091 0.0636,0.947718 0.0636,1.7059 0,2.653636 -0.6251,4.801785 -1.8753,6.444512 -1.2501,1.642724 -2.9558,2.590444 -5.1171,2.843164 h -17.5446 v 11.24631 h 34.3899 V 12.53788 Z" /></g><g
           id="g32"><path
             id="path40"
             style="fill:url(#linearGradient38);stroke:none"
             d="M 347.635,30.39312 C 444.3837,64.38989 511.2,156.8006 511.2,262.4434 511.2,398.1857 401.8532,508.2 267,508.2 132.1468,508.2 22.8,398.1857 22.8,262.4434 22.8,160.6493 84.85643,70.87622 176.5009,34.10783 V 232.5886 H 71.29406 L 181.419,403.1248 H 347.635 Z M 110.9546,254.1886 h 87.1463 V 3.718951 l -14.1913,4.6937 C 75.74142,44.18859 1.2,146.1117 1.2,262.4434 1.2,410.0857 120.188,529.8 267,529.8 413.812,529.8 532.8,410.0857 532.8,262.4434 532.8,142.1727 453.154,37.64453 339.8033,5.242599 L 326.035,1.306838 V 381.5248 H 193.1828 Z m 177.1145,72.772 c 0,-3.3276 -0.4555,-6.2234 -1.3667,-8.6875 -0.9111,-2.4641 -2.2142,-4.37 -3.9093,-5.7179 -1.6952,-1.3479 -3.6869,-2.0218 -5.9754,-2.0218 -2.3308,0 -4.3649,0.6844 -6.1024,2.0534 -1.7375,1.3689 -2.9241,3.2327 -3.5598,5.5915 -0.5509,-2.8221 -1.8434,-5.0439 -3.8776,-6.6656 -2.0341,-1.6217 -4.492,-2.4325 -7.3738,-2.4325 -2.5003,0 -4.6933,0.695 -6.5792,2.085 -1.8858,1.39 -3.3266,3.3697 -4.3225,5.9391 -0.9959,2.5693 -1.4939,5.581 -1.4939,9.0349 V 348 h 44.5606 z m -17.7352,0.6318 c 0,-1.6006 0.392,-2.8642 1.176,-3.7909 0.784,-0.9267 1.8752,-1.39 3.2737,-1.39 1.3561,0 2.4049,0.4633 3.1466,1.39 0.7416,0.9267 1.0912,2.1903 1.0488,3.7909 v 8.8454 h -8.6451 z m -17.7988,0 c 0,-2.0218 0.4238,-3.6224 1.2713,-4.8018 0.8476,-1.1794 2.0342,-1.7691 3.5598,-1.7691 1.3985,0 2.5109,0.5897 3.3373,1.7691 0.8263,1.1794 1.2183,2.78 1.176,4.8018 v 8.8454 h -9.3444 z m 25.7447,-39.4288 c 0,-5.56 -1.6527,-9.8352 -4.9583,-12.8258 -3.3055,-2.9906 -7.8399,-4.4859 -13.6033,-4.4859 -0.89,0 -1.568,0.0211 -2.0342,0.0632 v 23.7562 c -1.9494,-0.5476 -3.4432,-1.4953 -4.4815,-2.8432 -1.0382,-1.3478 -1.5574,-2.9905 -1.5574,-4.9281 0,-1.4743 0.2967,-2.8958 0.89,-4.2648 0.5933,-1.3689 1.462,-2.622 2.6062,-3.7593 l -5.9117,-5.8758 c -1.9918,1.7691 -3.5068,3.9067 -4.5451,6.4129 -1.0382,2.5062 -1.5574,5.3388 -1.5574,8.4979 0,3.6645 0.7205,6.8657 2.1613,9.6036 1.4409,2.7379 3.475,4.8334 6.1025,6.2865 2.6274,1.4532 5.6786,2.1798 9.1536,2.1798 3.5174,0 6.6216,-0.7371 9.3126,-2.2114 2.6911,-1.4742 4.7676,-3.5592 6.2296,-6.2549 1.4621,-2.6958 2.1931,-5.8127 2.1931,-9.3509 z m -14.5569,-6.3813 c 1.9918,0 3.5915,0.5791 4.7993,1.7375 1.2078,1.1583 1.8117,2.6852 1.8117,4.5806 0,1.7691 -0.5933,3.2539 -1.7799,4.4543 -1.1866,1.2005 -2.7969,1.9902 -4.8311,2.3693 z m 14.6205,-38.797 c 0,-3.7487 -1.1866,-6.7498 -3.5598,-9.0033 -2.3732,-2.2535 -5.5727,-3.3802 -9.5987,-3.3802 h -21.6764 v 11.1831 h 18.4345 c 1.9494,0 3.4856,0.5265 4.6086,1.5795 1.1231,1.0531 1.6846,2.4641 1.6846,4.2332 -0.0424,1.8533 -0.6569,3.3802 -1.8435,4.5807 -1.1866,1.2004 -2.7545,1.9059 -4.7039,2.1165 h -18.1803 v 11.2463 h 34.3899 v -11.2463 h -5.5939 c 1.9918,-1.2215 3.4962,-2.7905 4.5132,-4.707 1.0171,-1.9165 1.5257,-4.1173 1.5257,-6.6025 z m -0.0636,-34.6269 c 0,-5.56 -1.6527,-9.8353 -4.9583,-12.8259 -3.3055,-2.9906 -7.8399,-4.4858 -13.6033,-4.4858 -0.89,0 -1.568,0.021 -2.0342,0.0631 v 23.7563 c -1.9494,-0.5476 -3.4432,-1.4953 -4.4815,-2.8432 -1.0382,-1.3479 -1.5574,-2.9906 -1.5574,-4.9282 0,-1.4742 0.2967,-2.8958 0.89,-4.2647 0.5933,-1.3689 1.462,-2.622 2.6062,-3.7593 l -5.9117,-5.8759 c -1.9918,1.7691 -3.5068,3.9067 -4.5451,6.4129 -1.0382,2.5063 -1.5574,5.3389 -1.5574,8.498 0,3.6645 0.7205,6.8657 2.1613,9.6035 1.4409,2.7379 3.475,4.8334 6.1025,6.2866 2.6274,1.4532 5.6786,2.1798 9.1536,2.1798 3.5174,0 6.6216,-0.7372 9.3126,-2.2114 2.6911,-1.4742 4.7676,-3.5592 6.2296,-6.255 1.4621,-2.6957 2.1931,-5.8126 2.1931,-9.3508 z m -14.5569,-6.3814 c 1.9918,0 3.5915,0.5792 4.7993,1.7375 1.2078,1.1584 1.8117,2.6852 1.8117,4.5807 0,1.7691 -0.5933,3.2538 -1.7799,4.4543 -1.1866,1.2004 -2.7969,1.9902 -4.8311,2.3693 z m 18.4345,-32.7947 c 0,1.1373 -0.3179,2.064 -0.9535,2.78 -0.6357,0.7161 -1.5468,1.0741 -2.7334,1.0741 h -2.2249 v -7.5818 h -7.5009 v 7.5818 h -25.2362 v 11.1831 h 25.2362 v 4.6123 h 7.5009 v -4.6123 h 3.1784 c 3.6445,0 6.5156,-1.2109 8.6133,-3.6329 2.0978,-2.422 3.1466,-5.5284 3.1466,-9.3193 0,-2.4851 -0.4449,-4.9281 -1.3349,-7.329 l -8.5816,1.4532 c 0.5933,1.6848 0.89,2.9484 0.89,3.7908 z m -3.814,-21.3588 c 0,-4.7176 -1.0913,-8.3821 -3.2738,-10.9936 -2.1824,-2.6115 -5.2442,-3.9383 -9.1854,-3.9804 h -22.3757 v 11.0567 h 3.8776 C 244.462,146.1808 243,149.6136 243,154.2048 c 0,3.6224 0.9853,6.4761 2.9559,8.5611 1.9706,2.085 4.5662,3.1275 7.787,3.1275 3.2631,0 5.8057,-1.1267 7.628,-3.3802 1.8223,-2.2535 2.7546,-5.4863 2.797,-9.6984 v -8.9086 h 0.3814 c 1.6527,0 2.9241,0.5581 3.814,1.6743 0.8899,1.1163 1.3349,2.7274 1.3349,4.8334 0,1.4322 -0.2331,3.0433 -0.6992,4.8334 -0.4662,1.7902 -1.1442,3.5908 -2.0342,5.402 l 7.6281,3.0959 c 1.2713,-2.78 2.2142,-5.4441 2.8287,-7.9924 0.6145,-2.5484 0.9218,-5.1914 0.9218,-7.9293 z m -27.6518,2.9063 c 0,-1.6848 0.4132,-3.159 1.2396,-4.4227 0.8264,-1.2636 1.8964,-2.0639 3.2101,-2.4009 h 2.9877 v 6.6973 c 0,3.1591 -1.1866,4.7386 -3.5598,4.7386 -1.1866,0 -2.1295,-0.4107 -2.8287,-1.2321 -0.6993,-0.8213 -1.0489,-1.948 -1.0489,-3.3802 z m 14.684,-47.0737 c 2.3732,1.6006 3.5598,3.833 3.5598,6.6973 0,2.0218 -0.7734,3.6645 -2.3202,4.9281 -1.5468,1.2637 -3.5491,1.8955 -6.0071,1.8955 -2.5003,0 -4.5133,-0.6318 -6.0389,-1.8955 -1.5256,-1.2636 -2.2884,-2.9063 -2.2884,-4.9281 0,-3.117 1.2925,-5.3494 3.8776,-6.6973 l -4.7675,-8.27675 c -2.6275,1.34787 -4.6616,3.36966 -6.1025,6.06545 -1.4408,2.6957 -2.1613,5.8548 -2.1613,9.4772 0,3.4961 0.7205,6.5709 2.1613,9.2245 1.4409,2.6536 3.475,4.707 6.1025,6.1602 2.6274,1.4532 5.6786,2.1797 9.1536,2.1797 3.5174,0 6.6216,-0.7371 9.3126,-2.2113 2.6911,-1.4742 4.7676,-3.5487 6.2296,-6.2234 1.4621,-2.6747 2.1931,-5.76 2.1931,-9.2561 0,-3.4118 -0.7098,-6.4445 -2.1295,-9.0981 -1.4197,-2.65364 -3.422,-4.71755 -6.0071,-6.19179 z M 245.2884,68.39734 c -0.7204,1.26364 -1.2819,2.7168 -1.6845,4.35952 C 243.2013,74.39959 243,76.06335 243,77.7482 c 0,3.3697 0.9747,6.097 2.9241,8.182 1.9494,2.085 4.6404,3.12749 8.073,3.12749 h 14.7476 v 4.73861 h 7.5009 v -4.73861 h 9.5351 V 77.87456 h -9.5351 v -8.84541 h -7.5009 v 8.84541 H 255.777 c -2.4156,0 -3.6233,-0.98983 -3.6233,-2.96953 0,-1.22151 0.3814,-2.67467 1.1442,-4.35952 z m 32.9914,-20.60068 c 0,-3.70666 -0.731,-6.97101 -2.1931,-9.79313 -1.462,-2.82212 -3.5174,-5.01239 -6.166,-6.57087 -2.6486,-1.55849 -5.7104,-2.33772 -9.1855,-2.33772 -3.5174,0 -6.6003,0.77923 -9.249,2.33772 -2.6486,1.55848 -4.7039,3.74875 -6.166,6.57087 -1.4621,2.82212 -2.1931,6.08647 -2.1931,9.79313 0,3.70667 0.731,6.97101 2.1931,9.79313 1.4621,2.82213 3.5174,5.00187 6.166,6.53929 2.6487,1.53742 5.7316,2.30612 9.249,2.30612 3.4751,0 6.5369,-0.7687 9.1855,-2.30612 2.6486,-1.53742 4.704,-3.71716 6.166,-6.53929 1.4621,-2.82212 2.1931,-6.08646 2.1931,-9.79313 z m -9.1537,0 c 0,2.19031 -0.784,3.95937 -2.352,5.30725 -1.568,1.34788 -3.6233,2.02181 -6.166,2.02181 -2.5851,0 -4.6616,-0.67393 -6.2296,-2.02181 -1.568,-1.34788 -2.352,-3.11694 -2.352,-5.30725 0,-2.23242 0.784,-4.02254 2.352,-5.37042 1.568,-1.34788 3.6445,-2.02181 6.2296,-2.02181 2.5427,0 4.598,0.68446 6.166,2.0534 1.568,1.36894 2.352,3.14853 2.352,5.33883 z m 3.0512,-35.25878 c 1.9918,-1.17939 3.5174,-2.706261 4.5769,-4.580655 1.0594,-1.874394 1.5892,-4.012013 1.5892,-6.412921 h -10.3615 c 0.0424,0.379091 0.0636,0.947718 0.0636,1.7059 0,2.653636 -0.6251,4.801785 -1.8753,6.444512 -1.2501,1.642724 -2.9558,2.590444 -5.1171,2.843164 h -17.5446 v 11.24631 h 34.3899 V 12.53788 Z" /></g></g></g></g></svg>