<svg width="5" height="13" viewBox="0 0 5 13" fill="none" xmlns="http://www.w3.org/2000/svg">
<path d="M2.5 4.8125C2.96875 4.8125 3.36719 4.97656 3.69531 5.30469C4.02344 5.63281 4.1875 6.03125 4.1875 6.5C4.1875 6.96875 4.02344 7.36719 3.69531 7.69531C3.36719 8.02344 2.96875 8.1875 2.5 8.1875C2.03125 8.1875 1.63281 8.02344 1.30469 7.69531C0.976562 7.36719 0.8125 6.96875 0.8125 6.5C0.8125 6.03125 0.976562 5.63281 1.30469 5.30469C1.63281 4.97656 2.03125 4.8125 2.5 4.8125ZM0.8125 2.375C0.8125 2.84375 0.976562 3.24219 1.30469 3.57031C1.63281 3.89844 2.03125 4.0625 2.5 4.0625C2.96875 4.0625 3.36719 3.89844 3.69531 3.57031C4.02344 3.24219 4.1875 2.84375 4.1875 2.375C4.1875 1.90625 4.02344 1.50781 3.69531 1.17969C3.36719 0.851562 2.96875 0.6875 2.5 0.6875C2.03125 0.6875 1.63281 0.851562 1.30469 1.17969C0.976562 1.50781 0.8125 1.90625 0.8125 2.375ZM0.8125 10.625C0.8125 11.0938 0.976562 11.4922 1.30469 11.8203C1.63281 12.1484 2.03125 12.3125 2.5 12.3125C2.96875 12.3125 3.36719 12.1484 3.69531 11.8203C4.02344 11.4922 4.1875 11.0938 4.1875 10.625C4.1875 10.1562 4.02344 9.75781 3.69531 9.42969C3.36719 9.10156 2.96875 8.9375 2.5 8.9375C2.03125 8.9375 1.63281 9.10156 1.30469 9.42969C0.976562 9.75781 0.8125 10.1562 0.8125 10.625Z" fill="#CCCCCC"/>
</svg>
