<svg width="27" height="27" viewBox="0 0 27 27" fill="none" xmlns="http://www.w3.org/2000/svg">
<path d="M26.5 13.5C26.5 20.6797 20.6797 26.5 13.5 26.5C6.3203 26.5 0.5 20.6797 0.5 13.5C0.5 6.3203 6.3203 0.5 13.5 0.5C20.6797 0.5 26.5 6.3203 26.5 13.5Z" fill="white" stroke="url(#paint0_linear)"/>
<path d="M10.1131 13.4285L16.6591 19.261C16.8132 19.3983 17.0604 19.3983 17.2145 19.261C17.3686 19.1237 17.3686 18.9034 17.2145 18.7661L10.9477 13.1823L17.2145 7.59854C17.3686 7.46121 17.3686 7.24097 17.2145 7.10364C17.1389 7.03627 17.0371 7 16.9382 7C16.8394 7 16.7376 7.03368 16.662 7.10364L10.116 12.9362C9.96191 13.0709 9.96191 13.2937 10.1131 13.4285Z" fill="#1AAAFF"/>
<defs>
<linearGradient id="paint0_linear" x1="0" y1="13.5" x2="27" y2="13.5" gradientUnits="userSpaceOnUse">
<stop stop-color="#1AAAFF"/>
<stop offset="1" stop-color="$second-color"/>
</linearGradient>
</defs>
</svg>
