<svg width="8" height="8" viewBox="0 0 8 8" fill="none" xmlns="http://www.w3.org/2000/svg">
<path d="M3.94039 3.52175L6.95694 0.505206C7.07224 0.389528 7.07243 0.20225 6.95694 0.0867582C6.84089 -0.0289194 6.6538 -0.0289194 6.53812 0.0867582L3.52176 3.10312L0.505207 0.0867582C0.390087 -0.0289194 0.20225 -0.0289194 0.0867583 0.0867582C-0.0289194 0.20225 -0.0289194 0.389528 0.0867583 0.505206L3.10312 3.52175L0.0869442 6.53792C-0.0287336 6.6536 -0.0287336 6.84088 0.0869442 6.95674C0.144783 7.01439 0.220476 7.04359 0.296168 7.04341C0.372047 7.04359 0.44774 7.01439 0.505393 6.95674L3.52176 3.94038L6.53812 6.95674C6.59596 7.01439 6.67184 7.04359 6.74753 7.04359C6.82304 7.04359 6.89891 7.01439 6.95694 6.95674C7.07243 6.84088 7.07243 6.6536 6.95675 6.53792L3.94039 3.52175Z" fill="#262D37" fill-opacity="0.5773"/>
</svg>
