<svg width="10" height="11" viewBox="0 0 10 11" fill="none" xmlns="http://www.w3.org/2000/svg">
<path d="M9.86323 8.90234L7.91011 6.94922C7.81896 6.85807 7.70828 6.8125 7.57808 6.8125H7.26558C7.83849 6.08333 8.12495 5.25 8.12495 4.3125C8.12495 3.57031 7.94266 2.89323 7.57808 2.28125C7.21349 1.65625 6.7187 1.16146 6.0937 0.796875C5.48172 0.432292 4.80464 0.25 4.06245 0.25C3.32026 0.25 2.63667 0.432292 2.01167 0.796875C1.39969 1.16146 0.91141 1.65625 0.546826 2.28125C0.182243 2.89323 -4.86374e-05 3.57031 -4.86374e-05 4.3125C-4.86374e-05 5.05469 0.182243 5.73828 0.546826 6.36328C0.91141 6.97526 1.39969 7.46354 2.01167 7.82812C2.63667 8.19271 3.32026 8.375 4.06245 8.375C4.99995 8.375 5.83328 8.08854 6.56245 7.51562V7.82812C6.56245 7.95833 6.60802 8.06901 6.69917 8.16016L8.6523 10.1133C8.74344 10.2044 8.85412 10.25 8.98433 10.25C9.11453 10.25 9.22521 10.2044 9.31636 10.1133L9.86323 9.56641C9.95438 9.47526 9.99995 9.36458 9.99995 9.23438C9.99995 9.10417 9.95438 8.99349 9.86323 8.90234ZM4.06245 6.8125C3.60672 6.8125 3.18355 6.70182 2.79292 6.48047C2.41532 6.25911 2.11584 5.95964 1.89448 5.58203C1.67313 5.19141 1.56245 4.76823 1.56245 4.3125C1.56245 3.85677 1.67313 3.4401 1.89448 3.0625C2.11584 2.67188 2.41532 2.36589 2.79292 2.14453C3.18355 1.92318 3.60672 1.8125 4.06245 1.8125C4.51818 1.8125 4.93485 1.92318 5.31245 2.14453C5.70308 2.36589 6.00907 2.67188 6.23042 3.0625C6.45177 3.4401 6.56245 3.85677 6.56245 4.3125C6.56245 4.76823 6.45177 5.19141 6.23042 5.58203C6.00907 5.95964 5.70308 6.25911 5.31245 6.48047C4.93485 6.70182 4.51818 6.8125 4.06245 6.8125Z" fill="#999999"/>
<path d="M9.86323 8.90234L7.91011 6.94922C7.81896 6.85807 7.70828 6.8125 7.57808 6.8125H7.26558C7.83849 6.08333 8.12495 5.25 8.12495 4.3125C8.12495 3.57031 7.94266 2.89323 7.57808 2.28125C7.21349 1.65625 6.7187 1.16146 6.0937 0.796875C5.48172 0.432292 4.80464 0.25 4.06245 0.25C3.32026 0.25 2.63667 0.432292 2.01167 0.796875C1.39969 1.16146 0.91141 1.65625 0.546826 2.28125C0.182243 2.89323 -4.86374e-05 3.57031 -4.86374e-05 4.3125C-4.86374e-05 5.05469 0.182243 5.73828 0.546826 6.36328C0.91141 6.97526 1.39969 7.46354 2.01167 7.82812C2.63667 8.19271 3.32026 8.375 4.06245 8.375C4.99995 8.375 5.83328 8.08854 6.56245 7.51562V7.82812C6.56245 7.95833 6.60802 8.06901 6.69917 8.16016L8.6523 10.1133C8.74344 10.2044 8.85412 10.25 8.98433 10.25C9.11453 10.25 9.22521 10.2044 9.31636 10.1133L9.86323 9.56641C9.95438 9.47526 9.99995 9.36458 9.99995 9.23438C9.99995 9.10417 9.95438 8.99349 9.86323 8.90234ZM4.06245 6.8125C3.60672 6.8125 3.18355 6.70182 2.79292 6.48047C2.41532 6.25911 2.11584 5.95964 1.89448 5.58203C1.67313 5.19141 1.56245 4.76823 1.56245 4.3125C1.56245 3.85677 1.67313 3.4401 1.89448 3.0625C2.11584 2.67188 2.41532 2.36589 2.79292 2.14453C3.18355 1.92318 3.60672 1.8125 4.06245 1.8125C4.51818 1.8125 4.93485 1.92318 5.31245 2.14453C5.70308 2.36589 6.00907 2.67188 6.23042 3.0625C6.45177 3.4401 6.56245 3.85677 6.56245 4.3125C6.56245 4.76823 6.45177 5.19141 6.23042 5.58203C6.00907 5.95964 5.70308 6.25911 5.31245 6.48047C4.93485 6.70182 4.51818 6.8125 4.06245 6.8125Z" fill="#8776CC"/>
<path d="M9.86323 8.90234L7.91011 6.94922C7.81896 6.85807 7.70828 6.8125 7.57808 6.8125H7.26558C7.83849 6.08333 8.12495 5.25 8.12495 4.3125C8.12495 3.57031 7.94266 2.89323 7.57808 2.28125C7.21349 1.65625 6.7187 1.16146 6.0937 0.796875C5.48172 0.432292 4.80464 0.25 4.06245 0.25C3.32026 0.25 2.63667 0.432292 2.01167 0.796875C1.39969 1.16146 0.91141 1.65625 0.546826 2.28125C0.182243 2.89323 -4.86374e-05 3.57031 -4.86374e-05 4.3125C-4.86374e-05 5.05469 0.182243 5.73828 0.546826 6.36328C0.91141 6.97526 1.39969 7.46354 2.01167 7.82812C2.63667 8.19271 3.32026 8.375 4.06245 8.375C4.99995 8.375 5.83328 8.08854 6.56245 7.51562V7.82812C6.56245 7.95833 6.60802 8.06901 6.69917 8.16016L8.6523 10.1133C8.74344 10.2044 8.85412 10.25 8.98433 10.25C9.11453 10.25 9.22521 10.2044 9.31636 10.1133L9.86323 9.56641C9.95438 9.47526 9.99995 9.36458 9.99995 9.23438C9.99995 9.10417 9.95438 8.99349 9.86323 8.90234ZM4.06245 6.8125C3.60672 6.8125 3.18355 6.70182 2.79292 6.48047C2.41532 6.25911 2.11584 5.95964 1.89448 5.58203C1.67313 5.19141 1.56245 4.76823 1.56245 4.3125C1.56245 3.85677 1.67313 3.4401 1.89448 3.0625C2.11584 2.67188 2.41532 2.36589 2.79292 2.14453C3.18355 1.92318 3.60672 1.8125 4.06245 1.8125C4.51818 1.8125 4.93485 1.92318 5.31245 2.14453C5.70308 2.36589 6.00907 2.67188 6.23042 3.0625C6.45177 3.4401 6.56245 3.85677 6.56245 4.3125C6.56245 4.76823 6.45177 5.19141 6.23042 5.58203C6.00907 5.95964 5.70308 6.25911 5.31245 6.48047C4.93485 6.70182 4.51818 6.8125 4.06245 6.8125Z" fill="#CCCCCC"/>
</svg>
