<svg width="20" height="17" viewBox="0 0 20 17" fill="none" xmlns="http://www.w3.org/2000/svg">
<path fill-rule="evenodd" clip-rule="evenodd" d="M15.369 6.53182C15.369 8.22294 14.6084 9.76675 13.363 10.9277L19.895 16.4801C20.035 16.5991 20.035 16.7917 19.895 16.9107C19.755 17.0297 19.5283 17.0297 19.3883 16.9107L12.8562 11.3583C11.4902 12.4169 9.67462 13.0634 7.6844 13.0634C3.44731 13.0634 0 10.1332 0 6.53163C0 2.93006 3.44731 -0.000188882 7.6844 9.13174e-09C11.9217 9.13174e-09 15.369 2.93025 15.369 6.53182ZM0.716662 6.53182C0.716662 9.79753 3.8422 12.4545 7.68462 12.4545C11.5266 12.4545 14.6526 9.79735 14.6526 6.53182C14.6526 3.26572 11.5268 0.608793 7.68462 0.608793C3.8422 0.608793 0.716662 3.26572 0.716662 6.53182Z" fill="white"/>
</svg>