<svg width="8" height="6" viewBox="0 0 8 6" fill="none" xmlns="http://www.w3.org/2000/svg">
<path d="M2.71875 5.84375L0.109375 3.24999C0.0364583 3.17708 0 3.08334 0 2.96876C0 2.85417 0.0364583 2.76041 0.109375 2.68749L0.6875 2.12499C0.760417 2.04166 0.848958 1.99999 0.953125 1.99999C1.06771 1.99999 1.16667 2.04166 1.25 2.12499L3 3.87499L6.75 0.125C6.83333 0.0416667 6.92708 0 7.03125 0C7.14583 0 7.23958 0.0416667 7.3125 0.125L7.89062 0.6875C7.96354 0.760417 8 0.854167 8 0.96875C8 1.08333 7.96354 1.17708 7.89062 1.24999L3.28125 5.84375C3.20833 5.92708 3.11458 5.96875 3 5.96875C2.88542 5.96875 2.79167 5.92708 2.71875 5.84375Z" fill="#1AAAFF"/>
</svg>
