<svg width="11" height="13" viewBox="0 0 11 13" fill="none" xmlns="http://www.w3.org/2000/svg">
<path d="M8.5 8C9.10938 8 9.64844 8.23438 10.0938 8.65625C10.5156 9.10156 10.75 9.64062 10.75 10.25C10.75 10.8828 10.5156 11.4219 10.0938 11.8438C9.64844 12.2891 9.10938 12.5 8.5 12.5C7.86719 12.5 7.32812 12.2891 6.90625 11.8438C6.46094 11.4219 6.25 10.8828 6.25 10.25C6.25 10.0859 6.25 9.92188 6.29688 9.75781L3.90625 8.25781C3.48438 8.58594 3.01562 8.75 2.5 8.75C1.86719 8.75 1.32812 8.53906 0.90625 8.09375C0.460938 7.67188 0.25 7.13281 0.25 6.5C0.25 5.89062 0.460938 5.35156 0.90625 4.90625C1.32812 4.48438 1.86719 4.25 2.5 4.25C3.01562 4.25 3.48438 4.41406 3.90625 4.74219L6.29688 3.24219C6.25 3.10156 6.25 2.9375 6.25 2.75C6.25 2.14062 6.46094 1.60156 6.90625 1.15625C7.32812 0.734375 7.86719 0.5 8.5 0.5C9.10938 0.5 9.64844 0.734375 10.0938 1.15625C10.5156 1.60156 10.75 2.14062 10.75 2.75C10.75 3.38281 10.5156 3.92188 10.0938 4.34375C9.64844 4.78906 9.10938 5 8.5 5C7.96094 5 7.49219 4.83594 7.09375 4.50781L4.70312 6.00781C4.75 6.33594 4.75 6.66406 4.70312 6.99219L7.09375 8.49219C7.49219 8.16406 7.96094 8 8.5 8Z" fill="#CCCCCC"/>
</svg>
