<svg width="22" height="24" viewBox="0 0 22 24" fill="none" xmlns="http://www.w3.org/2000/svg">
<path fill-rule="evenodd" clip-rule="evenodd" d="M21.4814 0.0405273H0.518571C0.231943 0.0405273 0 0.472738 0 1.00758C0 1.54183 0.231943 1.97463 0.518571 1.97463H21.4814C21.7681 1.97463 22 1.54183 22 1.00758C22 0.472738 21.7681 0.0405273 21.4814 0.0405273ZM21.4814 22.0377H0.518571C0.231943 22.0377 0 22.4705 0 23.0053C0 23.5401 0.231943 23.9723 0.518571 23.9723H21.4814C21.7681 23.9723 22 23.5401 22 23.0053C22 22.4705 21.7681 22.0377 21.4814 22.0377ZM0.518571 11.0388H21.4814C21.7681 11.0388 22 11.4722 22 12.0065C22 12.5407 21.7681 12.9741 21.4814 12.9741H0.518571C0.231943 12.9741 0 12.5407 0 12.0065C0 11.4722 0.231943 11.0388 0.518571 11.0388Z" fill="#666666"/>
<path fill-rule="evenodd" clip-rule="evenodd" d="M21.4814 0.0405273H0.518571C0.231943 0.0405273 0 0.472738 0 1.00758C0 1.54183 0.231943 1.97463 0.518571 1.97463H21.4814C21.7681 1.97463 22 1.54183 22 1.00758C22 0.472738 21.7681 0.0405273 21.4814 0.0405273ZM21.4814 22.0377H0.518571C0.231943 22.0377 0 22.4705 0 23.0053C0 23.5401 0.231943 23.9723 0.518571 23.9723H21.4814C21.7681 23.9723 22 23.5401 22 23.0053C22 22.4705 21.7681 22.0377 21.4814 22.0377ZM0.518571 11.0388H21.4814C21.7681 11.0388 22 11.4722 22 12.0065C22 12.5407 21.7681 12.9741 21.4814 12.9741H0.518571C0.231943 12.9741 0 12.5407 0 12.0065C0 11.4722 0.231943 11.0388 0.518571 11.0388Z" fill="white"/>
<path fill-rule="evenodd" clip-rule="evenodd" d="M21.4814 0.0405273H0.518571C0.231943 0.0405273 0 0.472738 0 1.00758C0 1.54183 0.231943 1.97463 0.518571 1.97463H21.4814C21.7681 1.97463 22 1.54183 22 1.00758C22 0.472738 21.7681 0.0405273 21.4814 0.0405273ZM21.4814 22.0377H0.518571C0.231943 22.0377 0 22.4705 0 23.0053C0 23.5401 0.231943 23.9723 0.518571 23.9723H21.4814C21.7681 23.9723 22 23.5401 22 23.0053C22 22.4705 21.7681 22.0377 21.4814 22.0377ZM0.518571 11.0388H21.4814C21.7681 11.0388 22 11.4722 22 12.0065C22 12.5407 21.7681 12.9741 21.4814 12.9741H0.518571C0.231943 12.9741 0 12.5407 0 12.0065C0 11.4722 0.231943 11.0388 0.518571 11.0388Z" fill="#1AAAFF"/>
</svg>
