<svg width="6" height="8" viewBox="0 0 6 8" fill="none" xmlns="http://www.w3.org/2000/svg">
<path d="M1.875 1.125C1.875 0.8125 1.98438 0.546875 2.20312 0.328125C2.42188 0.109375 2.6875 0 3 0C3.3125 0 3.57812 0.109375 3.79688 0.328125C4.01562 0.546875 4.125 0.8125 4.125 1.125C4.125 1.4375 4.01562 1.70312 3.79688 1.92188C3.57812 2.14062 3.3125 2.25 3 2.25C2.6875 2.25 2.42188 2.14062 2.20312 1.92188C1.98438 1.70312 1.875 1.4375 1.875 1.125ZM5.85938 1.14062C5.75521 1.04688 5.63542 1 5.5 1C5.36458 1 5.24479 1.04688 5.14062 1.14062L3.79688 2.5H2.20312L0.859375 1.14062C0.755208 1.04688 0.635417 1 0.5 1C0.364583 1 0.244792 1.05208 0.140625 1.15625C0.046875 1.25 0 1.36458 0 1.5C0 1.63542 0.046875 1.75521 0.140625 1.85938L1.625 3.32812V7.5C1.625 7.63542 1.67188 7.75 1.76562 7.84375C1.86979 7.94792 1.98958 8 2.125 8H2.375C2.51042 8 2.625 7.94792 2.71875 7.84375C2.82292 7.75 2.875 7.63542 2.875 7.5V5.75H3.125V7.5C3.125 7.63542 3.17188 7.75 3.26562 7.84375C3.36979 7.94792 3.48958 8 3.625 8H3.875C4.01042 8 4.125 7.94792 4.21875 7.84375C4.32292 7.75 4.375 7.63542 4.375 7.5V3.32812L5.85938 1.85938C5.95312 1.75521 6 1.63542 6 1.5C6 1.36458 5.95312 1.24479 5.85938 1.14062Z" fill="white"/>
</svg>
