<svg width="6" height="8" viewBox="0 0 6 8" fill="none" xmlns="http://www.w3.org/2000/svg">
<path d="M4.25 6.6875V7.125C4.25 7.20833 4.22396 7.28125 4.17188 7.34375C4.13021 7.40625 4.07292 7.45312 4 7.48438V7.625C4 7.72917 3.96354 7.81771 3.89062 7.89062C3.81771 7.96354 3.72917 8 3.625 8H2.375C2.27083 8 2.18229 7.96354 2.10938 7.89062C2.03646 7.81771 2 7.72917 2 7.625V7.48438C1.92708 7.45312 1.86458 7.40625 1.8125 7.34375C1.77083 7.28125 1.75 7.20833 1.75 7.125V6.6875C1.75 6.63542 1.76562 6.59375 1.79688 6.5625C1.83854 6.52083 1.88542 6.5 1.9375 6.5H4.0625C4.11458 6.5 4.15625 6.52083 4.1875 6.5625C4.22917 6.59375 4.25 6.63542 4.25 6.6875ZM2.01562 6C1.93229 6 1.85938 5.97917 1.79688 5.9375C1.73438 5.89583 1.69271 5.83854 1.67188 5.76562C1.55729 5.47396 1.42188 5.20833 1.26562 4.96875C1.17188 4.82292 1.04167 4.64583 0.875 4.4375C0.65625 4.16667 0.505208 3.94792 0.421875 3.78125C0.307292 3.51042 0.25 3.16667 0.25 2.75C0.25 2.25 0.369792 1.79167 0.609375 1.375C0.859375 0.947917 1.19271 0.614583 1.60938 0.375C2.03646 0.125 2.5 0 3 0C3.5 0 3.95833 0.125 4.375 0.375C4.80208 0.614583 5.13542 0.947917 5.375 1.375C5.625 1.79167 5.75 2.25 5.75 2.75C5.75 3.16667 5.69271 3.51042 5.57812 3.78125C5.49479 3.94792 5.34375 4.16667 5.125 4.4375C4.95833 4.64583 4.82812 4.82292 4.73438 4.96875C4.57812 5.20833 4.44271 5.47396 4.32812 5.76562C4.30729 5.83854 4.26562 5.89583 4.20312 5.9375C4.14062 5.97917 4.06771 6 3.98438 6H2.01562ZM1.75 2.75C1.75 2.40625 1.86979 2.11458 2.10938 1.875C2.35938 1.625 2.65625 1.5 3 1.5C3.07292 1.5 3.13021 1.47917 3.17188 1.4375C3.22396 1.38542 3.25 1.32292 3.25 1.25C3.25 1.17708 3.22396 1.11979 3.17188 1.07812C3.13021 1.02604 3.07292 1 3 1C2.6875 1 2.39583 1.07812 2.125 1.23438C1.85417 1.39062 1.64062 1.60417 1.48438 1.875C1.32812 2.14583 1.25 2.4375 1.25 2.75C1.25 2.82292 1.27083 2.88542 1.3125 2.9375C1.36458 2.97917 1.42708 3 1.5 3C1.57292 3 1.63021 2.97917 1.67188 2.9375C1.72396 2.88542 1.75 2.82292 1.75 2.75Z" fill="white"/>
</svg>
