<svg width="23" height="19" viewBox="0 0 23 19" fill="none" xmlns="http://www.w3.org/2000/svg">
<path d="M17.4062 7H12.0625V8.96875C12.0625 9.67188 11.8164 10.2695 11.3242 10.7617C10.832 11.2539 10.2344 11.5 9.53125 11.5C8.82812 11.5 8.23047 11.2539 7.73828 10.7617C7.24609 10.2695 7 9.67188 7 8.96875V4.67969L4.71484 6.05078C4.38672 6.26172 4.11719 6.54297 3.90625 6.89453C3.71875 7.22266 3.625 7.58594 3.625 7.98438V9.63672L0.8125 11.2891C0.554688 11.4297 0.378906 11.6523 0.285156 11.957C0.214844 12.2617 0.25 12.543 0.390625 12.8008L3.20312 17.6875C3.36719 17.9453 3.60156 18.1094 3.90625 18.1797C4.21094 18.2734 4.49219 18.25 4.75 18.1094L8.37109 16H13.1875C13.7969 16 14.3242 15.7773 14.7695 15.332C15.2148 14.8867 15.4375 14.3594 15.4375 13.75H16C16.3047 13.75 16.5625 13.6445 16.7734 13.4336C17.0078 13.1992 17.125 12.9297 17.125 12.625V10.375H17.4062C17.6406 10.375 17.8398 10.293 18.0039 10.1289C18.168 9.96484 18.25 9.76562 18.25 9.53125V7.84375C18.25 7.60938 18.168 7.41016 18.0039 7.24609C17.8398 7.08203 17.6406 7 17.4062 7ZM22.6094 5.69922L19.7969 0.8125C19.6328 0.554688 19.3984 0.390625 19.0938 0.320312C18.7891 0.226562 18.5078 0.25 18.25 0.390625L14.6289 2.5H11.0078C10.5859 2.5 10.1875 2.61719 9.8125 2.85156L8.65234 3.58984C8.30078 3.80078 8.125 4.11719 8.125 4.53906V8.96875C8.125 9.36719 8.25391 9.70703 8.51172 9.98828C8.79297 10.2461 9.13281 10.375 9.53125 10.375C9.92969 10.375 10.2578 10.2461 10.5156 9.98828C10.7969 9.70703 10.9375 9.36719 10.9375 8.96875V5.875H17.4062C17.9453 5.875 18.4023 6.07422 18.7773 6.47266C19.1758 6.84766 19.375 7.30469 19.375 7.84375V8.82812L22.1875 7.21094C22.4453 7.07031 22.6094 6.84766 22.6797 6.54297C22.7734 6.23828 22.75 5.95703 22.6094 5.69922Z" fill="white"/>
</svg>
