<svg width="24" height="24" viewBox="0 0 24 24" fill="none" xmlns="http://www.w3.org/2000/svg">
<path d="M20.2937 10.792H17.207C16.569 10.7913 15.9419 11.0741 15.3869 11.6127C14.9144 12.0718 14.5057 12.7011 14.1891 13.4571C13.9782 13.394 13.7644 13.3625 13.5503 13.3628H10.4608C10.2466 13.3624 10.0329 13.394 9.82194 13.4571C9.50535 12.701 9.09665 12.0717 8.62414 11.6127C8.06909 11.0741 7.44197 10.7913 6.80404 10.792H3.7173C1.66618 10.7998 0.00454337 13.6462 0 17.1599V20.7495C0.00151446 21.1255 0.179807 21.4288 0.399266 21.4288H6.73245V23.3156C6.73245 23.6933 6.91122 23.9995 7.13171 23.9995H16.8683C17.0888 23.9995 17.2676 23.6933 17.2676 23.3156V21.4288H23.6007C23.8212 21.4288 24 21.1225 24 20.7448V17.1599C23.9955 13.6536 22.3405 10.8102 20.2937 10.792ZM6.77375 19.1175V19.2637C6.77375 19.3297 6.77375 19.3911 6.77375 19.4571V19.7307V20.0609H0.798531V17.1599C0.803075 14.4017 2.10716 12.1677 3.7173 12.1599H6.80404C7.30388 12.159 7.79532 12.38 8.23038 12.8014C8.52205 13.084 8.78371 13.4493 9.00413 13.8816C7.76166 14.8054 6.90833 16.8087 6.77375 19.1175ZM16.4608 19.7307V22.6363H7.54199V19.6788C7.54199 19.6254 7.54199 19.5735 7.54199 19.5231C7.54199 19.4414 7.54199 19.3596 7.54199 19.2778V19.1552C7.54199 19.108 7.54199 19.0609 7.54199 19.0137V18.8627V18.8156V18.7637V18.6599L7.55851 18.5467L7.58605 18.3769L7.60532 18.2637C8.00087 16.21 9.11854 14.8196 10.3809 14.8109L10.4608 14.7354H13.5503C15.0163 14.7446 16.2527 16.6086 16.4442 19.0986C16.4442 19.2024 16.4442 19.3061 16.4608 19.4099C16.4608 19.5169 16.4608 19.6237 16.4608 19.7307ZM23.2125 20.0656H17.2648V19.6552C17.2648 19.6033 17.2648 19.5514 17.2648 19.4995C17.2648 19.4461 17.2648 19.3926 17.2648 19.3392C17.2648 19.2637 17.2648 19.1835 17.2648 19.108V19.0373V18.9571V18.8109V18.7873V18.7307V18.6788V18.6458V18.5844V18.5184V18.4854V18.4429V18.4005V18.358V18.2543V18.2071V18.1458V18.0844L17.2455 17.9665V17.9194V17.8769V17.8439V17.7967V17.7354L17.207 17.5514C16.8482 15.9176 16.1164 14.6045 15.1804 13.9146C15.346 13.4946 15.5474 13.1194 15.7779 12.8014C16.2129 12.38 16.7044 12.159 17.2042 12.1599H20.2937C21.9038 12.1677 23.2079 14.4017 23.2125 17.1599V20.0656Z" fill="#1AAAFF"/>
<path d="M7.24724 1.41998C6.72111 0.513375 6.00546 0.00394135 5.25917 0.00488475C3.70651 0.00252626 2.44669 2.15677 2.44531 4.81668C2.44394 7.47646 3.70149 9.6346 5.25422 9.63696C6.80695 9.63932 8.0667 7.48507 8.06808 4.82517C8.0687 3.54864 7.77351 2.32387 7.24724 1.41998ZM6.68276 7.25488C5.89683 8.6017 4.62241 8.60217 3.83614 7.25583C3.04993 5.90948 3.04965 3.72635 3.83558 2.37941C4.62152 1.0326 5.89593 1.03213 6.68221 2.37847C7.05972 3.02493 7.27189 3.90182 7.27202 4.81621C7.27278 5.73106 7.06076 6.60866 6.68276 7.25488Z" fill="#1AAAFF"/>
<path d="M18.754 1.93473e-06C17.2014 -0.00235656 15.9416 2.15189 15.9402 4.81179C15.9395 6.08833 16.2347 7.31321 16.761 8.21698C17.2872 9.12359 18.0028 9.63302 18.7491 9.63208C20.3018 9.63444 21.5616 7.48019 21.5629 4.82028C21.5643 2.16038 20.3067 0.00236043 18.754 1.93473e-06ZM20.1754 7.25271C19.3894 8.59953 18.115 8.6 17.3287 7.25366C16.9512 6.6072 16.7391 5.73031 16.7389 4.81592C16.7382 3.90106 16.9502 3.02347 17.3282 2.37724C18.1141 1.03043 19.3885 1.02996 20.1748 2.3763C20.961 3.72264 20.9613 5.9059 20.1754 7.25271Z" fill="#1AAAFF"/>
<path d="M13.9894 3.97362C13.4627 3.07432 12.7492 2.56972 12.0055 2.57031C11.2592 2.56937 10.5436 3.0788 10.0174 3.98541C8.92249 5.8676 8.92558 8.91395 10.0243 10.7897C11.1231 12.6654 12.9014 12.6601 13.9963 10.7779C15.0913 8.89567 15.0882 5.84932 13.9894 3.97362ZM12.005 10.8382C10.8933 10.8376 9.99238 9.29343 9.99266 7.38918C9.99293 5.48494 10.8944 3.94154 12.0061 3.94201C12.5398 3.94225 13.0517 4.30569 13.4291 4.95239C13.8071 5.59862 14.0191 6.47621 14.0184 7.39107C14.018 9.29543 13.1166 10.8387 12.005 10.8382Z" fill="#1AAAFF"/>
</svg>
