<svg width="254" height="127" viewBox="0 0 254 127" fill="none" xmlns="http://www.w3.org/2000/svg">
<path d="M53.6784 10.1268L54.0431 6.16414L52.3656 5.94534L51.5147 8.59523L50.7854 8.10901L50.8583 11.5368L52.5844 12.0231L53.6784 10.1268Z" fill="#F4D0C1"/>
<path d="M28.6868 30.0131L46.3122 23.3762L50.7125 11.0506L52.9248 11.8529L52.6087 27.1444L36.1016 39.154L28.6868 30.0131Z" fill="#BCBEC0"/>
<path d="M122.867 43.9432L122.673 45.9124L119.026 46.7147L117.227 44.94L117.519 42.6548L119.464 42.8006L119.61 42.3144L120.29 41.9741L122.867 43.9432Z" fill="#E4D2B8"/>
<path d="M208.271 74.6722L209.049 92.7109L206.788 123.343L203.385 123.586L199.228 95.7497L193.515 72.2168L208.271 74.6722Z" fill="#3B455A"/>
<path d="M203.506 125.02L207.323 126.6L209.025 124.631L207.056 122.905L203.36 123.172L203.506 125.02Z" fill="#2A313F"/>
<path d="M184.155 68.3027L183.401 81.9168L185.638 122.419L189.041 122.589L194.147 96.0414L198.668 66.917L184.155 68.3027Z" fill="#3B455A"/>
<path d="M188.944 124.023L185.176 125.701L183.426 123.756L185.346 122.005L189.041 122.2L188.944 124.023Z" fill="#2A313F"/>
<path d="M203.993 28.1898L193.344 27.0472C193.344 27.0472 187.412 27.6793 183.401 41.7553C181.165 49.5834 180.484 61.909 180.314 71.3173C180.557 72.6544 182.015 78.5376 188.215 77.5409C198.814 75.8391 204.479 74.113 209.098 74.9639C213.036 75.8148 212.696 70.3935 212.258 66.2606L210.678 53.4731L203.993 28.1898Z" fill="#1AAAFF"/>
<path d="M201.95 14.9404C199.276 14.3569 196.505 13.8221 193.806 14.3569C193.223 14.4785 192.591 14.6729 192.275 15.1835C192.153 15.378 192.08 15.5968 192.032 15.8399C191.351 18.3682 190.5 22.0878 192.153 24.4216C192.469 24.8592 192.882 25.2239 193.344 25.4913C193.952 25.8803 194.633 26.1234 195.338 26.2692C195.192 26.9013 194.997 27.5091 194.73 28.0925C195.338 29.0164 198.207 29.1379 198.741 28.2384C198.766 27.4605 198.79 26.7068 198.839 25.9289C199.179 25.783 199.519 25.6128 199.835 25.4183C201.051 24.6161 201.877 23.3762 202.339 22.0148C202.85 20.5319 203.579 19.0975 204.041 17.5902C204.211 17.0311 204.357 16.399 204.065 15.9128C203.749 15.378 203.093 15.2078 202.485 15.0619C202.291 15.0133 202.121 14.9647 201.95 14.9404Z" fill="#C1755D"/>
<path d="M193.004 16.3747C194.341 15.5238 196.31 15.1591 197.574 15.2564C201.343 15.5238 202.728 18.2952 202.923 21.7717C203.968 20.4589 205.913 18.7815 206.035 17.0797C206.132 15.694 205.937 13.7977 205.159 12.5822C204.43 11.4639 202.558 10.8318 201.464 10.1997C200.419 9.59195 199.373 8.98418 198.328 8.35209C198.109 8.23054 197.891 8.08467 197.647 8.06036C197.356 8.01174 197.064 8.08467 196.772 8.15761C194.292 8.78969 191.837 9.44608 189.357 10.0782C188.871 10.1997 188.336 10.3699 188.166 10.8318C188.069 11.0992 188.118 11.4153 188.19 11.707C188.482 12.9955 189.017 14.3083 189.139 15.5967C189.284 16.3504 189.746 20.2158 191.083 19.7782C191.472 19.1461 191.545 18.3439 191.837 17.6632C192.032 17.1526 192.469 16.715 193.004 16.3747Z" fill="#2E3644"/>
<path d="M157.121 118.675C157.486 118.286 157.899 118.067 158.385 118.14C158.847 118.213 159.261 118.529 159.455 118.942C159.577 119.234 159.601 119.55 159.649 119.866C159.771 121.471 159.771 125.287 157.632 125.847C156.732 126.065 155.979 125.433 155.735 124.631C155.371 123.391 155.906 120.012 157.121 118.675Z" fill="#2A313F"/>
<path d="M156.368 94.4126L156.489 104.21C156.368 108.562 157.048 112.937 156.902 117.289C156.878 118.286 156.611 119.356 156.854 120.328C157.097 121.3 157.899 121.471 158.701 120.984C159.795 120.328 159.601 118.796 159.795 117.654C160.282 114.566 160.865 111.503 161.4 108.416C161.643 106.908 161.132 104.793 161.254 103.262L162.834 95.0447L156.368 94.4126Z" fill="#EFC4B1"/>
<path d="M167.575 78.5862L163.296 97.5244L162.397 115.442L155.638 115.271L153.791 65.2152L166.918 65.4583L167.575 78.5862Z" fill="#3B455A"/>
<path d="M147.445 118.31C147.834 117.921 148.248 117.727 148.734 117.848C149.196 117.946 149.585 118.286 149.755 118.723C149.877 119.015 149.877 119.331 149.901 119.647C149.974 121.252 149.779 125.093 147.64 125.506C146.74 125.676 146.011 124.996 145.817 124.169C145.501 122.929 146.181 119.574 147.445 118.31Z" fill="#2A313F"/>
<path d="M151.019 95.7983L150.436 105.596C150.387 108.318 150.022 111.017 149.755 113.715C149.488 116.219 149.901 118.845 148.588 121.13C148.175 121.835 147.348 122.321 146.765 121.446C146.327 120.766 146.595 119.647 146.497 118.894C146.157 115.782 145.719 112.694 145.33 109.607C145.136 108.075 145.768 106.009 145.719 104.477L144.528 96.1873L151.019 95.7983Z" fill="#EFC4B1"/>
<path d="M142.462 77.4193L141.903 95.8226L144.796 114.42L151.676 114.639L151.384 94.4855L155.006 77.8083L156.246 66.8684L145.306 65.5799L142.462 77.4193Z" fill="#3B455A"/>
<path d="M151.092 27.9224L162.859 27.6306L169.69 40.3209L167.259 52.2089L166.821 66.4308L150.047 66.6496L144.528 65.7744L145.987 50.5801L145.136 30.2805L151.092 27.9224Z" fill="#D7E8F4"/>
<path d="M149.244 36.2853L144.99 49.2916L138.645 51.5768L121.311 46.9092L123.645 43.3111L138.888 43.7974L145.16 30.8397L149.244 36.2853Z" fill="#D7E8F4"/>
<path d="M151.821 18.0522C153.596 12.8983 160.403 14.8188 161.813 19.4136C162.737 22.4038 160.427 26.2935 157.316 27.1444C157.291 27.266 157.291 27.3632 157.291 27.4605C157.291 27.9467 157.218 28.4086 157.17 28.8948C157.145 29.065 154.423 28.5545 154.131 28.4815C154.034 28.4572 153.912 28.4329 153.839 28.3357C153.718 28.1655 153.912 27.655 153.936 27.4848C153.961 27.266 153.985 27.0472 154.009 26.8041C152.478 26.0504 151.505 24.4702 151.238 22.8414C150.946 21.2612 151.311 19.6081 151.821 18.0522Z" fill="#EFC4B1"/>
<path d="M156.27 13.4088C156.635 13.7734 156.781 14.3083 156.878 14.7945C156.951 15.0862 157 15.4023 156.927 15.694C156.684 16.8609 155.517 16.8123 154.617 17.1769C153.499 17.6388 152.551 18.4897 151.943 19.4865C150.971 21.0424 151.408 23.0116 151.797 24.7133C151.943 25.3211 152.21 26.1963 151.748 26.7311C151.287 27.266 150.193 27.193 149.609 26.9013C149.099 26.6339 148.661 26.172 148.102 26.0747C147.494 25.9775 146.692 26.2449 146.4 25.6857C146.327 25.5399 146.303 25.3454 146.206 25.1995C145.865 24.7133 145.039 25.2725 144.577 24.9564C144.285 24.7619 144.285 24.3 144.382 23.9597C144.479 23.6193 144.65 23.2547 144.577 22.9143C144.528 22.5983 144.309 22.3795 144.163 22.0877C143.896 21.5529 143.993 20.8236 144.382 20.3617C145.112 19.5108 146.546 19.6567 147.348 18.8544C147.761 18.4411 147.932 17.8333 148.078 17.2499C148.223 16.6664 148.418 16.083 148.855 15.694C149.39 15.2078 150.193 15.305 150.727 14.7215C151.043 14.3812 151.262 13.9436 151.603 13.6519C152.064 13.2629 152.988 12.9712 153.572 12.7767C154.544 12.5093 155.59 12.7037 156.27 13.4088Z" fill="#2E3644"/>
<path d="M160.573 21.6258C160.598 23.3276 159.771 25.1509 160.549 26.6582C161.327 28.1655 163.296 28.4329 164.974 28.5058C165.241 28.5301 168.79 28.8219 168.79 28.7489C169.058 27.5577 169.325 26.3665 169.957 25.3211C170.565 24.2757 171.61 23.4249 172.802 23.3519C172.461 23.3033 172.291 22.8657 172.315 22.5254C172.364 22.185 172.534 21.8446 172.632 21.5286C172.899 20.702 172.632 19.7296 171.999 19.1461C170.76 17.9792 168.474 18.4654 167.405 17.1283C166.748 16.3018 166.821 15.0862 166.481 14.0895C165.8 12.1203 163.661 11.707 162.056 10.8318C160.355 9.90801 158.774 9.37317 156.805 9.71352C154.374 10.1268 152.575 12.5822 153.523 14.9161C154.714 17.9063 159.504 17.6389 160.403 20.6534C160.525 20.9695 160.573 21.2855 160.573 21.6258Z" fill="#2E3644"/>
<path d="M159.382 27.8494L155.735 33.0034L154.009 32.8818L151.165 27.6306L159.382 27.8494Z" fill="#E3E3E4"/>
<path d="M64.9587 121.155L64.6913 123.245L68.581 125.871L70.9392 124.048L69.1159 121.689L65.2261 119.088L64.9587 121.155Z" fill="#2A313F"/>
<path d="M64.8129 120.474L67.8274 93.9021L64.2051 64.1456L65.0316 57.8248L81.1741 57.217L81.7575 67.5005L79.059 93.9264L68.8485 121.811L64.8129 120.474Z" fill="#3B455A"/>
<path d="M93.0377 60.1829L93.0864 86.9978L87.6893 121.519L83.7996 121.471L81.6602 89.5504L76.6765 57.606L93.0377 60.1829Z" fill="#3B455A"/>
<path d="M83.7996 123.124L87.9811 125.263L90.0961 123.172L88.0297 121.057L83.8239 121.009L83.7996 123.124Z" fill="#2A313F"/>
<path d="M62.5276 69.2995C62.5762 68.1325 62.6248 67.1601 62.6491 66.8198C62.7221 63.708 63.0138 60.5962 63.4028 57.5087C63.7431 54.7373 64.205 47.8573 64.6669 45.0858C65.0559 42.8006 66.4173 37.1362 67.4141 35.0211C69.8695 29.77 69.1158 29.2838 79.8856 27.7279C84.6019 27.0472 85.7202 29.9888 89.5856 33.368C89.9746 33.7084 89.9503 35.6775 90.0232 36.2124C90.1691 37.1362 90.3392 38.06 90.5337 38.9838C90.6796 39.7131 90.8498 40.4182 91.0442 41.1475C91.0442 41.1475 94.2776 55.9042 96.4413 59.0403C98.5806 62.1764 103.005 66.5523 95.6147 69.2265C94.3019 69.6398 92.9891 70.0531 91.6034 70.2719C91.6034 70.2719 85.55 69.5912 82.4382 69.6155C79.5695 69.6398 76.6765 69.9316 73.8565 70.4178C71.9602 70.7338 70.0397 71.1957 68.3622 72.0709C66.7577 72.9218 65.5908 74.1373 63.9619 75.0125C63.8161 75.0855 63.6459 75.1827 63.4514 75.1584C62.5033 75.0611 62.4547 71.7549 62.5276 69.2995Z" fill="#1AAAFF"/>
<path d="M79.8856 29.2108C79.3507 29.4782 78.0622 29.5755 76.7251 29.0407C76.4577 28.9434 76.2632 28.676 76.2876 28.3843C76.2876 27.582 76.3605 26.7554 76.482 25.9532C75.4853 25.5885 74.3184 25.078 74.1482 24.0326C74.0996 23.6923 74.1482 23.3519 74.1968 23.0359C74.4399 21.6745 74.6587 20.313 74.9018 18.9273C74.9748 18.4654 75.072 17.9792 75.3151 17.5659C75.777 16.8609 76.6522 16.5449 77.4788 16.399C79.5938 16.0343 81.9034 16.4962 83.5322 17.882C83.9698 18.2466 84.3588 18.6842 84.5533 19.2434C84.845 20.0699 84.6262 20.9938 84.4074 21.8446C84.2129 22.6226 83.9941 23.4248 83.7996 24.2028C83.5565 25.1023 83.2162 26.1233 82.341 26.4637C81.8791 26.6339 81.3442 26.5853 80.9066 26.8527C80.1773 27.3389 80.2745 28.4329 79.8856 29.2108Z" fill="#F4D0C1"/>
<path d="M92.0896 15.5967C92.3084 15.2564 92.5272 14.916 92.7703 14.6243C93.3052 13.9679 93.9859 13.3845 94.4235 12.6308C94.8611 11.8772 95.0069 10.8804 94.4964 10.1997C94.1561 9.76213 93.6212 9.54334 93.0864 9.37316C91.336 8.86263 89.4397 8.81401 87.665 9.27591C85.9633 9.71351 84.456 10.4185 82.7542 9.78644C81.1497 9.17867 80.0071 9.42178 78.3297 10.0296C76.5307 10.6859 74.0996 10.8318 72.4707 11.7313C71.79 12.1203 71.2309 12.7037 70.8176 13.3601C69.3346 15.6454 69.3346 18.7815 70.7933 21.0424C71.1093 21.5529 71.5226 22.0148 71.9359 22.4767C72.7868 23.4005 73.8078 24.5431 74.9748 24.8835C74.9991 23.8381 74.051 20.5319 74.8532 19.6567C76.1417 18.2953 79.0347 18.7572 80.6149 19.0975C82.341 19.4622 83.8969 20.6777 85.5986 20.9451C86.8385 21.1396 88.4187 20.5319 89.4641 19.8998C90.7282 19.1461 91.336 16.8366 92.0896 15.5967Z" fill="#2E3644"/>
<path d="M70.9391 29.77L64.205 35.6532L56.7173 51.4067L66.1742 62.6869L67.803 56.3904L70.9391 29.77Z" fill="#1AAAFF"/>
<path d="M27.2525 74.9639L12.1311 70.3691L16.6529 96.1143L16.1667 118.602L16.1424 118.748H16.1667V118.796L19.1083 118.918H19.2056L24.6026 98.6184L26.8392 77.1762L27.2525 74.9639Z" fill="#1AAAFF"/>
<path d="M19.0111 119.939L15.9722 120.036L15.3401 122.638L15.4131 122.662L20.5913 125.336L22.9738 125.482L23.1196 122.735L22.4632 122.297L19.0111 119.939Z" fill="#2A313F"/>
<path d="M38.8974 74.7937L36.9769 119.453L34.0596 119.745L29.7566 95.9442L23.2899 72.3626L38.8974 74.7937Z" fill="#1AAAFF"/>
<path d="M37.0255 120.474L41.0368 122.467L40.7936 124.315L33.7921 123.659L34.0595 121.009L37.0255 120.474Z" fill="#2A313F"/>
<path d="M8.41158 82.9865C7.87674 75.4501 13.9301 51.3094 13.9301 51.3094C14.5865 49.0485 15.0484 46.739 15.3159 44.4295C15.5104 42.8006 19.862 24.0812 19.546 24.0569C22.9252 24.2028 29.4162 23.2304 31.9688 25.5642C32.0417 25.6371 32.1147 25.7101 32.1876 25.783C34.2054 27.9467 35.348 32.4199 36.3448 35.167C37.6576 38.765 38.7029 42.4846 39.4323 46.2285C40.0886 49.5104 40.5019 52.841 40.8423 56.1716C41.134 59.0403 41.0368 61.909 41.2313 64.729C41.4257 67.8651 42.4711 71.22 43.2491 74.2346C44.0513 77.2734 45.0238 80.288 46.3365 83.1324C43.0303 84.7126 39.3107 85.2231 35.6398 85.3204C31.9688 85.4419 28.2979 85.1988 24.6512 85.3447C21.5638 85.4905 18.4277 85.9038 15.3888 85.369C12.9334 84.9557 10.6725 83.9589 8.41158 82.9865Z" fill="#BCBEC0"/>
<path d="M30.8748 15.8642C32.4307 16.5935 34.0838 18.4897 34.0595 20.3131C34.0352 21.1883 33.5733 21.8933 33.5733 22.8414C33.5976 24.689 30.8261 26.7311 32.6008 28.4815C33.5246 29.381 34.9104 29.5269 36.1745 29.5998C36.3204 29.5998 36.4906 29.6241 36.6364 29.5512C36.8795 29.4539 36.9768 29.1622 36.9525 28.9191C36.9282 28.676 36.8309 28.4329 36.758 28.1898C35.8828 25.6615 37.0254 22.6712 37.0983 20.07C37.1713 17.4687 36.4663 14.6972 34.3026 13.0684C32.8926 13.5303 31.8472 14.1624 31.1908 15.4995L30.8748 15.8642Z" fill="#2E3644"/>
<path d="M30.2427 26.9256C31.9931 26.6582 33.4518 25.3211 34.2054 23.7166C34.9833 22.1364 35.1535 20.3131 35.1049 18.5384C34.959 12.6551 27.6658 12.4606 24.87 16.7394C22.4389 20.4832 25.1618 27.7036 30.2427 26.9256Z" fill="#F4D0C1"/>
<g filter="url(#filter0_d)">
<path d="M230.175 61.6659H172.267V99.0317H230.175V61.6659Z" fill="white"/>
<path d="M222.493 49.0242H201.246H179.998L170.735 59.9155H201.246H231.731L222.493 49.0242Z" fill="white"/>
<path d="M231.707 59.9155H170.735V63.8295H231.707V59.9155Z" fill="#CCCDCE"/>
<path d="M189.795 52.6952L188.288 54.4699H212.526L211.043 52.6952H189.795Z" fill="#9D9D9E"/>
<path d="M172.267 63.8295L230.2 69.2265V63.8295H172.267Z" fill="#EAEAEA"/>
<path d="M176.448 73.2621L225.435 71.7306L224.365 73.2621L226.286 75.0855L224.706 77.8083L226.286 79.3399L225.119 80.3852L227.453 84.2264L224.073 86.9978L225.727 88.6995L176.91 90.061L177.931 88.189H176.448L178.004 84.0076L175.452 82.0141L176.959 79.9233L176.351 78.8537L177.591 77.006L175.452 74.4777L176.448 73.2621Z" fill="#F7F7F7"/>
<path d="M186.683 81.4549C186.392 78.3431 183.474 74.6965 180.071 75.5717C179.828 75.6446 179.682 75.7905 179.609 75.985C179.512 76.1308 179.463 76.3253 179.512 76.5441C180.314 79.972 180.97 83.4241 181.505 86.9006C181.578 87.3381 181.943 87.5569 182.283 87.5569C183.377 87.9216 184.811 86.4873 185.395 85.7579C186.343 84.5424 186.805 82.9865 186.683 81.4549ZM184.69 84.2264C184.471 84.6396 184.179 85.0043 183.839 85.3446C183.596 85.5878 183.328 85.7823 183.037 85.9281C182.939 85.9524 182.867 85.9767 182.794 86.001C182.307 82.9379 181.724 79.899 181.043 76.8602C183.231 76.7872 185.03 79.51 185.225 81.4792C185.322 82.4273 185.152 83.3998 184.69 84.2264Z" fill="#3B455A"/>
<path d="M191.643 76.2524C190.622 75.9363 189.479 76.1794 188.652 77.2248C187.413 78.805 187.413 81.1632 187.85 83.0351C188.288 84.8341 189.382 86.9492 191.424 87.1923C194.366 87.5326 194.706 84.3722 194.73 82.1842C194.755 80.9687 194.536 79.6802 194.074 78.5619C193.636 77.4193 192.688 76.5684 191.643 76.2524ZM191.4 85.685C187.996 84.8341 188.434 76.0579 191.886 77.8326C193.028 78.416 193.199 80.3609 193.272 81.4792C193.369 82.8163 193.442 86.1955 191.4 85.685Z" fill="#3B455A"/>
<path d="M200.905 76.4712C200.905 76.5684 200.881 76.6414 200.881 76.7386C200.881 76.8358 200.881 76.9088 200.905 76.9817C200.905 78.6348 200.93 80.288 200.93 81.9411C200.735 81.4792 200.516 81.0416 200.297 80.5797C199.495 78.9509 198.717 77.2491 197.453 75.9363C197.015 75.4744 196.238 75.8634 196.238 76.4712C196.286 79.7045 196.383 82.9136 196.554 86.1469C196.602 87.0707 198.037 87.0464 197.988 86.1226C197.866 83.6429 197.769 81.1632 197.721 78.7078C198.231 79.5587 198.644 80.4825 199.082 81.3577C199.908 83.0351 200.589 84.7612 201.002 86.5845C201.173 87.3868 202.413 87.1437 202.413 86.3657C202.388 83.0594 202.388 79.7775 202.364 76.4712C202.34 75.4987 200.978 75.5717 200.905 76.4712Z" fill="#3B455A"/>
<path d="M210.435 85.1745C209.584 81.9168 208.612 78.7078 207.469 75.5474C207.226 74.8667 206.302 74.891 206.083 75.5717C205.038 78.9023 204.309 82.3301 203.871 85.7822C203.75 86.6817 205.16 87.0464 205.281 86.1226C205.427 84.9557 205.597 83.8131 205.816 82.6704C206.618 82.5732 207.42 82.5489 208.223 82.5489C208.514 83.5456 208.782 84.5667 209.049 85.5878C209.268 86.4873 210.654 86.074 210.435 85.1745ZM206.083 81.2118C206.302 80.1664 206.545 79.1454 206.837 78.1243C207.177 79.1211 207.493 80.1178 207.785 81.1146C207.226 81.1146 206.667 81.1389 206.083 81.2118Z" fill="#3B455A"/>
<path d="M215.589 74.7451C213.474 75.0611 211.383 75.4258 209.292 75.8877C208.393 76.0822 208.806 77.4679 209.706 77.2734C210.605 77.0789 211.48 76.8845 212.38 76.7143C212.429 79.6316 212.55 82.5489 212.769 85.4662C212.842 86.39 214.276 86.3657 214.203 85.4419C213.984 82.4517 213.863 79.4614 213.814 76.4712C214.422 76.3739 215.006 76.2767 215.613 76.1794C216.537 76.0579 216.513 74.5992 215.589 74.7451Z" fill="#3B455A"/>
<path d="M222.299 84.7369C221.156 84.7855 220.014 84.8341 218.871 84.8827L218.798 81.7223C219.357 81.698 219.916 81.698 220.475 81.7223C220.864 81.7466 221.18 81.3576 221.18 80.993C221.18 80.5797 220.84 80.3123 220.451 80.288C219.892 80.2637 219.333 80.2393 218.774 80.288L218.676 76.2524C219.673 76.2767 220.67 76.301 221.667 76.3739C222.591 76.4468 222.542 74.9882 221.642 74.9396C220.67 74.8666 219.673 74.8423 218.701 74.818C217.437 74.7937 217.242 75.4987 217.266 76.617C217.291 77.6381 217.315 78.6591 217.339 79.6559C217.388 81.5764 217.412 83.5213 217.461 85.4419C217.461 85.4662 217.461 85.5148 217.461 85.5391C217.461 85.9524 217.631 86.4143 218.166 86.39C219.552 86.3171 220.962 86.2684 222.347 86.1955C223.271 86.1469 223.247 84.7125 222.299 84.7369Z" fill="#3B455A"/>
</g>
<path d="M180.581 56.7551L180.678 58.7242L183.109 61.5686L184.568 60.11L183.426 57.5087L184.009 56.5606L183.037 55.5152L180.581 56.7551Z" fill="#C1755D"/>
<path d="M193.344 27.0472L189.406 28.2384L175.038 43.2868L174.188 48.2706L181.067 59.5994L182.915 55.4423L179.998 47.055L184.617 43.8217L190.792 29.9402L193.344 27.0472Z" fill="#1AAAFF"/>
<path d="M153.523 68.8133L155.249 69.7857L154.52 73.4323L152.162 74.3805L150.193 73.1649L151.116 71.4388L150.703 71.1228L150.679 70.3692L153.523 68.8133Z" fill="#E4D2B8"/>
<path d="M163.369 30.3048L167.405 37.1119L167.21 53.8621L156.684 70.588L152.915 68.6431L161.205 53.8621L159.698 42.3387L163.369 30.3048Z" fill="#D7E8F4"/>
<path d="M203.044 29.2595L213.182 25.6128L219.552 10.5401L223.052 10.7832L218.895 27.3389L215.224 31.5204L202.728 37.7926L203.044 29.2595Z" fill="#2B292A"/>
<path d="M222.299 10.7346L223.198 8.98419L222.566 5.28894L220.573 5.79947L220.232 8.61953L219.26 9.15437L219.551 10.5401L222.299 10.7346Z" fill="#C1755D"/>
<g filter="url(#filter1_d)">
<path d="M235.612 43.1646C243.558 35.2182 243.558 22.3346 235.612 14.3882C227.665 6.44183 214.782 6.44182 206.835 14.3882C198.889 22.3346 198.889 35.2183 206.835 43.1646C214.782 51.111 227.665 51.111 235.612 43.1646Z" fill="#BCBEC0"/>
<path d="M233.446 40.9987C240.196 34.2485 240.196 23.3043 233.446 16.5542C226.696 9.80402 215.751 9.80401 209.001 16.5542C202.251 23.3043 202.251 34.2485 209.001 40.9987C215.751 47.7488 226.696 47.7488 233.446 40.9987Z" fill="#CCCDCE"/>
<path d="M230.248 14.0165C231.974 16.6907 232.971 19.8998 232.971 23.3276C232.995 32.8575 225.265 40.6126 215.735 40.6369C212.428 40.6369 209.317 39.7131 206.691 38.1086C209.779 42.8979 215.151 46.0583 221.253 46.0583C230.783 46.034 238.514 38.3031 238.49 28.7489C238.49 22.501 235.183 17.0554 230.248 14.0165Z" fill="#9D9D9E"/>
<path d="M206.983 30.3778C206.958 21.9662 213.79 15.1105 222.201 15.1105C227.136 15.1105 231.512 17.4201 234.308 21.0424C231.658 16.472 226.723 13.4088 221.059 13.4088C212.647 13.4331 205.816 20.2645 205.84 28.676C205.84 32.1768 207.031 35.3858 209.025 37.9628C207.736 35.7505 206.983 33.1492 206.983 30.3778Z" fill="#F7F7F7"/>
<path d="M222.639 17.6145V19.8268C223.514 19.9727 224.244 20.2644 224.803 20.702C225.362 21.1396 225.897 21.8203 226.407 22.7198L224.219 23.9597C223.563 22.7685 222.688 22.1607 221.642 22.1607C220.986 22.1607 220.427 22.3552 220.013 22.7441C219.576 23.1331 219.357 23.6193 219.357 24.2028C219.357 24.7376 219.527 25.1752 219.892 25.5156C220.232 25.8559 220.937 26.2692 221.983 26.7311C222.882 27.1444 223.636 27.5334 224.219 27.8981C224.803 28.2627 225.265 28.6031 225.556 28.9434C226.407 29.8672 226.82 30.9612 226.82 32.2497C226.82 33.5139 226.432 34.6565 225.678 35.6289C224.924 36.6013 223.903 37.2577 222.639 37.5981V39.9319H220.67V37.671C219.211 37.4279 218.093 36.9417 217.315 36.1637C216.537 35.3858 215.978 34.1946 215.613 32.59L218.093 32.0795C218.433 33.2221 218.847 34.0244 219.333 34.5106C219.843 34.9725 220.524 35.2156 221.375 35.1913C222.201 35.1913 222.882 34.9239 223.441 34.3891C223.976 33.8542 224.268 33.1978 224.268 32.3469C224.268 31.6176 224.049 31.0098 223.587 30.5722C223.344 30.3534 223.004 30.1103 222.566 29.8429C222.104 29.5755 221.545 29.2838 220.84 28.9434C219.381 28.287 218.433 27.7036 217.971 27.1444C217.242 26.3178 216.877 25.3454 216.877 24.2271C216.877 23.6923 216.95 23.1817 217.145 22.7198C217.315 22.2579 217.558 21.8446 217.898 21.4557C218.214 21.0667 218.628 20.7507 219.114 20.4589C219.6 20.1915 220.135 19.9727 220.743 19.8025V17.5902L222.639 17.6145Z" fill="#A9A9AA"/>
</g>
<g filter="url(#filter2_d)">
<path d="M63.2812 67.2087C62.2358 64.8749 60.3882 63.1245 58.1273 62.2493C58.1516 61.909 58.1516 61.5929 58.1516 61.2526C58.1516 57.849 57.4952 54.5428 56.1581 51.431C54.8939 48.4164 53.0706 45.7179 50.7368 43.4084C48.4273 41.0988 45.7287 39.2755 42.7142 37.9871C39.6024 36.6743 36.2961 35.9936 32.8926 35.9936C29.4891 35.9936 26.1828 36.65 23.071 37.9871C20.0565 39.2512 17.358 41.0745 15.0484 43.4084C12.7389 45.7179 10.9156 48.4164 9.6271 51.431C8.31431 54.5428 7.63361 57.849 7.63361 61.2526C7.63361 64.6561 8.29 67.9624 9.6271 71.0742C10.8913 74.0887 12.7146 76.7872 15.0484 79.0967C17.358 81.4063 20.0565 83.2296 23.071 84.5181C26.1828 85.8309 29.4891 86.5116 32.8926 86.5116C36.2961 86.5116 39.6024 85.8552 42.7142 84.5181C42.8601 84.4694 42.9816 84.3965 43.1275 84.3479L44.2701 85.2474C45.3884 86.1226 46.4824 86.9735 47.0415 87.3868C47.4305 87.6785 47.7466 87.9216 47.9897 88.0918C48.1598 88.2133 48.2814 88.3106 48.4273 88.4078C48.5488 88.5051 48.8892 88.7239 49.3997 88.7239C49.5212 88.7239 49.5942 88.7239 49.6914 88.6995H49.8373L49.9345 88.6266C50.202 88.5294 50.518 88.2863 51.1744 87.8244C51.3202 87.7028 51.5391 87.5569 51.8308 87.3381L52.0982 87.1437C52.3656 86.9249 52.6817 86.7061 53.022 86.4386C54.3105 85.4662 56.0852 84.1048 57.0819 83.2053C59.7561 80.8228 61.6767 78.5376 63.0138 76.1794C64.5211 73.5296 64.6183 70.1503 63.2812 67.2087Z" fill="white"/>
<path d="M33.0871 84.8584C29.9024 84.8584 26.8149 84.2263 23.8976 83.0108C21.0775 81.8196 18.5735 80.1178 16.4098 77.9541C14.2462 75.7905 12.5444 73.2621 11.3532 70.4664C10.1133 67.5491 9.50555 64.4616 9.50555 61.2769C9.50555 58.0921 10.1376 55.0047 11.3532 52.0874C12.5444 49.2673 14.2462 46.7633 16.4098 44.5996C18.5735 42.4359 21.1018 40.7342 23.8976 39.5429C26.8149 38.3031 29.9024 37.6953 33.0871 37.6953C36.2718 37.6953 39.3593 38.3274 42.2766 39.5429C45.0967 40.7342 47.6007 42.4359 49.7644 44.5996C51.928 46.7633 53.6298 49.2916 54.821 52.0874C56.0609 55.0047 56.6687 58.0921 56.6687 61.2769C56.6687 64.4616 56.0366 67.5491 54.821 70.4664C53.6298 73.2864 51.928 75.7905 49.7644 77.9541C47.6007 80.1178 45.0724 81.8196 42.2766 83.0108C39.3593 84.2263 36.2718 84.8584 33.0871 84.8584ZM33.0871 40.0535C27.4227 40.0535 22.0986 42.2658 18.0873 46.2771C14.076 50.264 11.888 55.6124 11.888 61.2769C11.888 66.9413 14.1003 72.2654 18.1116 76.2767C22.1229 80.288 27.447 82.5003 33.1114 82.5003C38.7759 82.5003 44.0999 80.288 48.1112 76.2767C52.1225 72.2654 54.3348 66.9413 54.3348 61.2769C54.3348 55.6124 52.1225 50.2884 48.1112 46.2771C44.0756 42.2658 38.7515 40.0535 33.0871 40.0535Z" fill="#1AAAFF"/>
<path d="M34.2783 38.8622H31.8959V83.6672H34.2783V38.8622Z" fill="#1AAAFF"/>
<path d="M54.5536 52.7681H11.9852V55.1505H54.5536V52.7681Z" fill="#1AAAFF"/>
<path d="M54.6022 66.3578H11.3046V68.7403H54.6022V66.3578Z" fill="#1AAAFF"/>
<path d="M32.0418 84.6153C31.9202 84.5181 28.7841 82.3301 25.648 78.2702C23.8004 75.8877 22.3174 73.3594 21.2721 70.7338C19.935 67.4518 19.2786 63.9997 19.2786 60.5476C19.2786 57.0711 19.9593 53.7162 21.2964 50.5558C22.366 48.0518 23.849 45.6693 25.6966 43.4813C28.8571 39.7861 32.0175 37.9384 32.139 37.8655L33.3303 39.9319C33.3059 39.9562 30.34 41.6823 27.447 45.1101C25.7453 47.1036 24.4082 49.2673 23.46 51.5525C22.2688 54.3969 21.661 57.4115 21.661 60.5719C21.661 63.7323 22.2688 66.8684 23.4843 69.8829C24.4568 72.2897 25.8182 74.6479 27.5443 76.8601C30.4616 80.6283 33.4032 82.6704 33.4275 82.6948L32.0418 84.6153Z" fill="#1AAAFF"/>
<path d="M34.4485 84.6153L33.0871 82.6704C33.1114 82.6461 36.1016 80.5554 39.0189 76.7629C40.7207 74.5506 42.0821 72.2168 43.0546 69.81C44.2701 66.8198 44.8779 63.708 44.8779 60.5476C44.8779 57.3871 44.2701 54.3483 43.0546 51.4796C42.0821 49.1944 40.7207 47.0307 39.0189 45.0372C36.126 41.6337 33.2087 39.9562 33.1843 39.9319L34.3756 37.8655C34.4971 37.9384 37.6575 39.7861 40.818 43.4813C42.6899 45.6693 44.1729 48.0275 45.2182 50.5558C46.5553 53.6919 47.236 57.0711 47.236 60.5476C47.236 64.024 46.5553 67.4518 45.2425 70.7338C44.1729 73.3594 42.7142 75.8877 40.8666 78.2702C37.7062 82.3301 34.5944 84.5181 34.4485 84.6153Z" fill="#1AAAFF"/>
<path d="M55.599 63.319C53.2894 63.1245 50.3964 64.3643 49.6914 66.3578C49.0107 64.3643 45.4856 63.1002 43.1761 63.2947C37.0984 63.7809 35.0076 70.6365 37.5603 75.2799C38.946 77.7839 40.9152 79.9719 43.0789 81.9411C44.9022 83.5942 49.5699 87.095 49.5942 87.0707C49.6185 87.0707 54.3348 83.6186 56.1581 81.9897C58.3461 80.0449 60.3396 77.8812 61.7496 75.3772C64.3266 70.7824 61.6767 63.8538 55.599 63.319Z" fill="#F4BDB8"/>
<g opacity="0.12">
<path opacity="0.12" d="M60.4125 75.8634C58.8809 77.711 57.1305 79.4614 55.21 80.9444C53.3624 82.3787 51.1987 83.6429 48.8162 84.0562C47.6736 84.2506 46.5553 84.2263 45.5099 83.9589C47.4305 85.4905 49.5456 87.0464 49.5456 87.0464C49.5699 87.0464 54.2862 83.5942 56.1095 81.9654C58.2975 80.0205 60.291 77.8569 61.701 75.3529C62.1629 74.5506 62.4546 73.6754 62.6005 72.7759C61.9441 73.8699 61.2148 74.891 60.4125 75.8634Z" fill="#000100"/>
</g>
</g>
<path d="M9.31108 67.3546C9.52988 68.2298 11.0615 70.0531 12.0096 70.199C14.2219 70.515 12.4958 68.1325 12.0825 67.1844C12.4715 67.1358 12.8362 67.1115 13.1765 66.9899C13.4926 66.8927 11.4018 64.4373 10.9885 64.3157C9.99178 63.9997 9.5785 64.5345 8.70331 64.9964C8.92211 65.7744 9.09228 66.5523 9.31108 67.3546Z" fill="#F4D0C1"/>
<path d="M19.2299 26.1234L0 50.5072L8.38725 66.0175L12.2527 64.9721L8.11983 51.8929L13.4196 45.0858L23.9705 36.8688L19.2299 26.1234Z" fill="#BCBEC0"/>
<path d="M21.4422 27.8981C22.3417 27.6063 23.2169 27.3146 23.8976 26.5123C24.9916 25.2482 25.259 22.9143 25.7452 21.3584C26.2558 19.7296 26.8635 17.9549 28.3222 17.0311C29.2703 16.4233 30.2428 16.4476 31.2881 16.6178C32.0174 16.7151 31.9931 17.0068 32.6738 16.7151C33.1844 16.4963 33.7435 15.6697 33.938 15.1835C34.2784 14.3326 34.0596 13.3601 33.5977 12.5822C32.8926 11.391 31.9202 10.686 30.5831 10.4428C25.8911 9.54334 21.8798 11.7556 19.7891 16.1316C18.7923 18.2466 18.8409 20.775 17.7956 22.7928C17.1635 24.0326 16.1668 24.762 15.5833 26.1234C14.1003 29.5998 11.3046 33.9271 10.8427 37.6953C10.8184 37.8412 10.8184 37.9871 10.9156 38.1086C11.0858 38.3274 11.4504 38.1572 11.6692 37.9628C12.9577 36.8931 14.2462 35.8234 15.5347 34.7294C16.0452 34.3161 16.5557 33.8785 16.9204 33.3437C17.8442 31.9823 17.8199 30.0374 19.0597 28.9677C19.7648 28.3843 20.6156 28.1412 21.4422 27.8981Z" fill="#2E3644"/>
<path d="M69.3832 63.2218L72.8354 65.1909L73.7349 63.7566L71.6928 61.8847L72.4221 61.3984L69.2617 60.0857L68.1191 61.4471L69.3832 63.2218Z" fill="#F4D0C1"/>
<defs>
<filter id="filter0_d" x="166.735" y="49.0242" width="68.996" height="58.0075" filterUnits="userSpaceOnUse" color-interpolation-filters="sRGB">
<feFlood flood-opacity="0" result="BackgroundImageFix"/>
<feColorMatrix in="SourceAlpha" type="matrix" values="0 0 0 0 0 0 0 0 0 0 0 0 0 0 0 0 0 0 127 0"/>
<feOffset dy="4"/>
<feGaussianBlur stdDeviation="2"/>
<feColorMatrix type="matrix" values="0 0 0 0 0 0 0 0 0 0 0 0 0 0 0 0 0 0 0.25 0"/>
<feBlend mode="normal" in2="BackgroundImageFix" result="effect1_dropShadow"/>
<feBlend mode="normal" in="SourceGraphic" in2="effect1_dropShadow" result="shape"/>
</filter>
<filter id="filter1_d" x="188.447" y="0" width="65.5529" height="65.5529" filterUnits="userSpaceOnUse" color-interpolation-filters="sRGB">
<feFlood flood-opacity="0" result="BackgroundImageFix"/>
<feColorMatrix in="SourceAlpha" type="matrix" values="0 0 0 0 0 0 0 0 0 0 0 0 0 0 0 0 0 0 127 0"/>
<feOffset dy="4"/>
<feGaussianBlur stdDeviation="2"/>
<feColorMatrix type="matrix" values="0 0 0 0 0 0 0 0 0 0 0 0 0 0 0 0 0 0 0.25 0"/>
<feBlend mode="normal" in2="BackgroundImageFix" result="effect1_dropShadow"/>
<feBlend mode="normal" in="SourceGraphic" in2="effect1_dropShadow" result="shape"/>
</filter>
<filter id="filter2_d" x="3.63361" y="35.9936" width="64.5849" height="60.7303" filterUnits="userSpaceOnUse" color-interpolation-filters="sRGB">
<feFlood flood-opacity="0" result="BackgroundImageFix"/>
<feColorMatrix in="SourceAlpha" type="matrix" values="0 0 0 0 0 0 0 0 0 0 0 0 0 0 0 0 0 0 127 0"/>
<feOffset dy="4"/>
<feGaussianBlur stdDeviation="2"/>
<feColorMatrix type="matrix" values="0 0 0 0 0 0 0 0 0 0 0 0 0 0 0 0 0 0 0.25 0"/>
<feBlend mode="normal" in2="BackgroundImageFix" result="effect1_dropShadow"/>
<feBlend mode="normal" in="SourceGraphic" in2="effect1_dropShadow" result="shape"/>
</filter>
</defs>
</svg>
