<svg width="30" height="30" viewBox="0 0 30 30" fill="none" xmlns="http://www.w3.org/2000/svg">
<circle cx="15" cy="15" r="14.5" fill="white" stroke="#1AAAFF"/>
<path fill-rule="evenodd" clip-rule="evenodd" d="M22.5027 8H7.49733C6.12044 8 4.99999 9.12242 4.99999 10.502V20.1647C4.99999 21.5442 6.12044 22.6667 7.49733 22.6667H22.5024C23.8796 22.6667 25 21.5442 25 20.1647V10.502C25 9.12242 23.8796 8 22.5027 8ZM7.49733 8.70858H22.5024C22.8549 8.70858 23.1827 8.81232 23.4598 8.98929L16.3158 15.7485C15.59 16.4348 14.4098 16.4348 13.6844 15.7485L6.54022 8.98929C6.81733 8.81232 7.1451 8.70858 7.49733 8.70858ZM22.5024 21.9579C23.4898 21.9579 24.2924 21.1533 24.2924 20.1647H24.2922V10.502C24.2922 10.122 24.1731 9.77044 23.9713 9.47994L16.8009 16.2636C16.3047 16.7336 15.652 16.9686 14.9998 16.9686C14.3476 16.9686 13.6951 16.7336 13.1989 16.2636L6.02821 9.47994C5.82644 9.77022 5.70733 10.122 5.70733 10.502V20.1647C5.70733 21.1536 6.51044 21.9579 7.49733 21.9579H22.5024Z" fill="#1AAAFF"/>
</svg>
