<svg width="154" height="142" viewBox="0 0 154 142" fill="none" xmlns="http://www.w3.org/2000/svg">
<g clip-path="url(#clip0)">
<path d="M0.176173 123.524C1.0129 133.611 4.55288 141.963 4.55288 141.963L153.968 141.998L153.998 -0.00189209L105.114 0.146254C105.114 0.146254 85.9281 -2.1185 66.2589 13.8845C65.646 14.3836 65.0437 14.8968 64.4522 15.4243C61.684 17.8856 59.1678 20.6316 56.9431 23.6196C50.9422 31.7171 47.1513 41.3149 45.9615 51.4223C45.0129 59.3434 42.6085 69.4111 36.756 77.753C36.5517 78.0377 36.3473 78.3214 36.143 78.604C32.1065 84.0523 26.5268 88.6906 18.8262 91.3777C11.5409 93.923 6.88375 98.049 4.02725 102.883C0.266589 109.215 -0.38624 116.761 0.176173 123.524Z" fill="#EC6433"/>
<path opacity="0.1" d="M153.985 27.0903H127.78V102.897H153.985V27.0903Z" fill="black"/>
<path opacity="0.1" d="M67.0942 102.896H97.4369V43.7946L67.0942 43.7946V102.896Z" fill="black"/>
<path opacity="0.1" d="M36.7515 77.7627V102.897H67.0942V23.623H56.937C50.9338 31.7214 47.1412 41.3209 45.9508 51.4305C45.0038 59.3516 42.6024 69.424 36.7515 77.7627Z" fill="black"/>
<path opacity="0.1" d="M97.4369 102.896H127.78L127.78 11.0133H97.4369L97.4369 102.896Z" fill="black"/>
<path opacity="0.1" d="M0.18814 123.543H153.984V102.897H4.02542C0.275492 109.234 -0.375806 116.78 0.18814 123.543Z" fill="white"/>
<g opacity="0.5">
<path opacity="0.5" d="M81.6924 59.3122C82.3728 59.6274 83.0716 59.9883 83.5114 60.6077C84.2501 61.6416 84.0646 63.1183 83.4992 64.2625C82.9337 65.4067 82.0464 66.346 81.366 67.4146C80.6856 68.4831 80.2074 69.8306 80.5997 71.0505C80.9921 72.2703 82.0862 73.0221 83.0655 73.788C84.3477 74.793 85.523 75.9346 86.5717 77.1938C87.4529 78.2497 88.2789 79.7154 87.669 80.9542C87.1709 81.9692 85.9618 82.3096 84.9458 82.7619C83.0471 83.6082 81.4411 85.2331 80.8204 87.2599C80.189 89.3229 80.5844 91.6334 79.7906 93.6365C79.5899 94.1455 79.2972 94.6404 78.842 94.9304C78.5027 95.123 78.1289 95.2426 77.7432 95.2819C76.7609 95.4316 75.751 95.4253 74.7871 95.6412C72.7643 96.0904 71.0556 97.4552 69.5292 98.8925C68.0276 100.306 66.625 101.826 65.3318 103.443C64.5886 102 63.0791 101.142 62.178 99.7972C60.2625 96.9351 61.4838 92.5585 59.2158 89.9833C58.1431 88.765 56.3853 88.1015 55.8658 86.5475C55.6114 85.7895 55.7126 84.9479 55.967 84.1835C56.4269 82.8122 57.3345 81.6472 58.5354 80.8864C59.3721 80.36 60.3636 80.018 60.972 79.2253C61.4915 78.5476 61.6417 77.6493 61.6478 76.7809C61.6693 74.3239 60.69 71.8416 61.28 69.4602C61.8332 67.2286 63.8591 65.4697 66.0919 65.2838C66.6773 65.2349 67.2719 65.2838 67.8481 65.1719C68.8075 64.9843 69.6335 64.3665 70.3568 63.692C72.0915 62.0718 73.5152 59.9552 75.6315 58.8063C77.5563 57.7614 79.8289 58.447 81.6924 59.3122Z" fill="#F55F44"/>
<g opacity="0.6">
<path d="M81.6679 59.3911C81.6679 59.3911 60.7191 91.8178 63.9296 101.313L81.6679 59.3911Z" fill="#F55F44"/>
<path d="M81.6679 59.3911C81.6679 59.3911 60.7191 91.8178 63.9296 101.313" stroke="#535461" stroke-miterlimit="10"/>
</g>
<g opacity="0.6">
<path d="M88.0031 80.3316C88.0031 80.3316 82.1353 75.9487 71.8479 76.3159L88.0031 80.3316Z" fill="#F55F44"/>
<path d="M88.0031 80.3316C88.0031 80.3316 82.1353 75.9487 71.8479 76.3159" stroke="#535461" stroke-miterlimit="10"/>
</g>
<g opacity="0.6">
<path d="M69.7637 80.4246C69.7637 80.4246 69.517 72.4736 62.647 67.0063L69.7637 80.4246Z" fill="#F55F44"/>
<path d="M69.7637 80.4246C69.7637 80.4246 69.517 72.4736 62.647 67.0063" stroke="#535461" stroke-miterlimit="10"/>
</g>
<g opacity="0.6">
<path d="M79.8672 93.742C79.8672 93.742 71.9919 87.1953 66.613 87.4112L79.8672 93.742Z" fill="#F55F44"/>
<path d="M79.8672 93.742C79.8672 93.742 71.9919 87.1953 66.613 87.4112" stroke="#535461" stroke-miterlimit="10"/>
</g>
<g opacity="0.6">
<path d="M65.2113 91.1732C65.2113 91.1732 61.8169 86.4151 55.7469 85.1843L65.2113 91.1732Z" fill="#F55F44"/>
<path d="M65.2113 91.1732C65.2113 91.1732 61.8169 86.4151 55.7469 85.1843" stroke="#535461" stroke-miterlimit="10"/>
</g>
</g>
<g opacity="0.5">
<path opacity="0.5" d="M125.936 59.3894C126.639 59.1325 127.386 58.8977 128.12 59.0285C129.346 59.2492 130.21 60.4469 130.572 61.6747C130.933 62.9024 130.926 64.2121 131.159 65.4729C131.392 66.7337 131.949 68.0402 133.05 68.6454C134.15 69.2506 135.45 69.0111 136.671 68.8661C138.272 68.676 139.889 68.6607 141.494 68.8204C142.841 68.9543 144.421 69.4224 144.816 70.7526C145.139 71.84 144.497 72.9464 144.068 73.9945C143.267 75.9535 143.202 78.2718 144.12 80.1772C145.054 82.1157 146.894 83.5026 147.669 85.5121C147.866 86.0227 147.99 86.5885 147.856 87.1196C147.741 87.5006 147.552 87.8534 147.3 88.1566C146.687 88.9636 145.964 89.6743 145.409 90.5207C144.252 92.2858 143.938 94.486 143.803 96.6104C143.671 98.699 143.682 100.795 143.837 102.881C142.329 102.371 140.661 102.826 139.108 102.497C135.799 101.796 133.733 97.7688 130.363 97.523C128.77 97.4079 127.055 98.1786 125.633 97.4284C124.94 97.0628 124.448 96.3803 124.119 95.6538C123.527 94.3368 123.398 92.8498 123.752 91.4458C124.002 90.4702 124.488 89.5167 124.393 88.5128C124.312 87.6539 123.812 86.8958 123.236 86.2686C121.595 84.4798 119.213 83.386 118.039 81.2442C116.936 79.2395 117.215 76.5271 118.7 74.8045C119.089 74.3522 119.552 73.9645 119.892 73.4728C120.458 72.6548 120.638 71.621 120.706 70.6186C120.867 68.2152 120.47 65.673 121.225 63.3389C121.912 61.2192 124.005 60.0955 125.936 59.3894Z" fill="#4DB6AC"/>
<path opacity="0.6" d="M125.974 59.4603C125.974 59.4603 132.682 97.7751 141.394 102.344" stroke="#535461" stroke-miterlimit="10"/>
<path opacity="0.6" d="M144.638 70.0654C144.638 70.0654 137.454 71.0804 130.276 78.669" stroke="#535461" stroke-miterlimit="10"/>
<path opacity="0.6" d="M131.539 83.1165C131.539 83.1165 126.008 77.5547 117.374 78.5019" stroke="#535461" stroke-miterlimit="10"/>
<path opacity="0.6" d="M147.795 85.5341C147.795 85.5341 137.705 86.4151 133.969 90.4009" stroke="#535461" stroke-miterlimit="10"/>
<path opacity="0.6" d="M135.486 94.1109C135.486 94.1109 129.833 93.0927 124.621 96.5222" stroke="#535461" stroke-miterlimit="10"/>
</g>
<g opacity="0.5">
<path opacity="0.5" d="M83.6601 118.185C85.096 117.31 85.853 114.39 86.0798 113.36L87.7916 90.6105C87.7916 90.6105 89.0773 83.0818 93.9597 72.3554C94.018 65.9693 94.2478 45.7773 94.8041 43.6039L98.0989 39.4794C97.9369 39.1878 97.7567 38.9072 97.5595 38.6394L96.7166 41.0901L93.6716 40.7403L95.3144 37.511C94.2302 36.6099 93.5203 35.3181 93.3287 33.8981C93.1371 32.4781 93.4784 31.0363 94.2831 29.8657C94.0927 29.6107 93.9943 29.2956 94.0046 28.9742C94.015 28.6529 94.1334 28.3452 94.3398 28.1037C94.8524 27.4902 95.4616 26.9697 96.142 26.5639C97.3265 25.3976 98.9004 24.7421 100.54 24.7321C102.18 24.7221 103.761 25.3584 104.959 26.5103C106.157 27.6621 106.881 29.242 106.981 30.9253C107.081 32.6087 106.551 34.2677 105.499 35.5614C105.67 35.7595 105.892 35.9051 106.138 35.9822C107.291 36.3148 108.207 37.1532 108.805 37.8467C108.911 37.9701 108.99 38.1158 109.037 38.2738C109.083 38.4317 109.096 38.5982 109.074 38.7617C109.052 38.9251 108.995 39.0817 108.909 39.2206C108.822 39.3595 108.707 39.4774 108.572 39.5661L108.074 39.8924C107.876 40.0215 107.644 40.0831 107.411 40.0684C107.178 40.0537 106.955 39.9634 106.774 39.8104L105.744 38.9357C105.728 38.9205 105.707 38.9123 105.686 38.913C105.664 38.9138 105.643 38.9234 105.629 38.9397C105.614 38.956 105.606 38.9777 105.607 39C105.607 39.0223 105.617 39.0434 105.632 39.0586C105.752 39.1894 105.836 39.3501 105.877 39.5247C105.917 39.6994 105.913 39.8819 105.863 40.0541C105.814 40.2263 105.722 40.3823 105.596 40.5066C105.47 40.6308 105.315 40.719 105.145 40.7623H105.124L105.145 40.7734L105.116 40.7986C106.036 41.7442 106.996 43.1343 107.853 45.1642C109.232 46.8899 110.487 50.3808 110.398 57.3894C110.501 58.666 110.569 60.0319 110.602 61.4871L112.19 68.2214C112.19 68.2214 124.424 91.4253 121.388 94.4828C121.388 94.4828 119.549 94.8185 116.974 95.5198L124.298 105.502L124.197 105.602L128.868 109.113C128.868 109.113 128.008 111.357 127.412 111.698C126.816 112.038 126.618 113.466 126.618 113.466C126.618 113.466 124.368 118.159 122.715 117.888C121.061 117.617 122.255 115.712 122.715 113.671C123.075 112.084 121.714 109.673 121.092 108.68L120.929 108.837C120.929 108.837 112.234 102.12 108.909 98.3614C107.088 99.1935 105.351 100.166 103.93 101.285C103.93 101.285 101.43 95.0249 99.0858 84.6594L99.0659 84.6909C97.0124 87.843 93.5567 93.3717 93.4172 95.0927C93.2195 97.5418 92.4257 106.453 91.235 108.834L90.3753 113.46H90.3232L91.1201 119.594C91.1201 119.594 88.9486 120.508 88.2988 120.301C87.6491 120.095 86.5074 120.932 86.5074 120.932C86.5074 120.932 81.6556 122.508 80.7024 121.089C79.7492 119.671 81.9008 119.252 83.6601 118.185Z" fill="url(#paint0_linear)"/>
</g>
<path d="M100.761 39.4495C104.151 39.4495 106.9 36.6228 106.9 33.136C106.9 29.6491 104.151 26.8224 100.761 26.8224C97.3703 26.8224 94.6218 29.6491 94.6218 33.136C94.6218 36.6228 97.3703 39.4495 100.761 39.4495Z" fill="black"/>
<path d="M115.474 93.2409L123.443 104.115L120.215 107.305C120.215 107.305 109.028 98.6671 107.638 95.8177C107.556 95.6679 107.507 95.5009 107.496 95.3291C107.501 93.1763 115.474 93.2409 115.474 93.2409Z" fill="#252A62"/>
<path d="M100.729 82.0464C100.729 82.0464 94.0808 91.8036 93.8938 94.1518C93.7069 96.5001 92.9453 105.026 91.8051 107.299L90.9822 111.725H86.869L88.5149 89.8556C88.5149 89.8556 89.9707 81.3293 95.7297 69.6147L103.007 73.7124L100.729 82.0464Z" fill="#252A62"/>
<path d="M95.6347 71.2112H101.457V45.8277H95.6347V71.2112Z" fill="white"/>
<path opacity="0.1" d="M96.2998 70.1363L93.7605 74.0449C93.7605 74.0449 94.7811 47.3564 95.414 44.8884L99.5272 39.7474L100.92 43.5298L97.7587 47.5519C97.7587 47.5519 95.7972 53.5408 96.1128 59.3973C96.4285 65.2538 96.2998 70.1363 96.2998 70.1363Z" fill="black"/>
<path d="M96.2983 37.9192L94.1467 42.1492L97.0584 42.4755L98.5142 38.2438L96.2983 37.9192Z" fill="#FFC533"/>
<path d="M99.0199 40.2628C101.921 40.2628 104.273 37.8439 104.273 34.8601C104.273 31.8764 101.921 29.4575 99.0199 29.4575C96.1186 29.4575 93.7666 31.8764 93.7666 34.8601C93.7666 37.8439 96.1186 40.2628 99.0199 40.2628Z" fill="#FDA57D"/>
<path d="M99.0199 42.4093C99.0199 42.4093 98.5142 40.5874 97.1212 39.2856L102.057 37.9838L103.26 40.7828L99.0199 42.4093Z" fill="#FDA57D"/>
<path d="M101.236 40.2675C101.236 40.2675 109.779 39.6166 110.349 62.0056L111.868 68.4484C111.868 68.4484 123.576 90.642 120.664 93.5718C120.664 93.5718 109.652 95.5892 103.961 100.081C103.961 100.081 99.5946 89.1464 97.1258 72.3554C97.1258 72.3554 95.7972 54.0735 98.3916 47.8828L97.1258 44.7591L101.236 40.2675Z" fill="#3AD29F"/>
<path d="M96.1098 70.1363L93.7605 74.0449C93.7605 74.0449 94.5911 47.3564 95.224 44.8884L99.3371 39.7474L100.73 43.5298L97.5656 47.5645C97.5656 47.5645 95.6041 53.5534 95.9198 59.4099C96.2354 65.2664 96.1098 70.1363 96.1098 70.1363Z" fill="#3AD29F"/>
<path opacity="0.05" d="M96.1098 70.1363L93.7605 74.0449C93.7605 74.0449 94.5911 47.3564 95.224 44.8884L99.3371 39.7474L100.73 43.5298L97.5656 47.5645C97.5656 47.5645 95.6041 53.5534 95.9198 59.4099C96.2354 65.2664 96.1098 70.1363 96.1098 70.1363Z" fill="black"/>
<path d="M97.8169 52.1728C97.9566 52.1728 98.0698 52.0564 98.0698 51.9128C98.0698 51.7691 97.9566 51.6527 97.8169 51.6527C97.6773 51.6527 97.5641 51.7691 97.5641 51.9128C97.5641 52.0564 97.6773 52.1728 97.8169 52.1728Z" fill="#4D8AF0"/>
<path d="M97.8169 61.9347C97.9566 61.9347 98.0698 61.8183 98.0698 61.6747C98.0698 61.531 97.9566 61.4146 97.8169 61.4146C97.6773 61.4146 97.5641 61.531 97.5641 61.6747C97.5641 61.8183 97.6773 61.9347 97.8169 61.9347Z" fill="#4D8AF0"/>
<path d="M122.879 103.851L127.815 107.564C127.815 107.564 126.992 109.712 126.422 110.037C125.852 110.361 125.656 111.729 125.656 111.729C125.656 111.729 123.51 116.219 121.921 115.959C120.332 115.699 121.478 113.876 121.921 111.925C122.364 109.974 120.082 106.724 120.082 106.724L122.879 103.851Z" fill="black"/>
<path d="M90.8856 111.362L91.6948 117.594C91.6948 117.594 89.6167 118.468 88.9946 118.27C88.3724 118.071 87.2813 118.877 87.2813 118.877C87.2813 118.877 82.6395 120.385 81.7276 119.034C80.8158 117.683 82.8831 117.264 84.5612 116.243C86.2392 115.222 86.9487 111.279 86.9487 111.279L90.8856 111.362Z" fill="black"/>
<path opacity="0.1" d="M105.127 42.1824L98.5449 48.0389L98.3564 47.9096L105.001 42.1177L105.127 42.1824Z" fill="black"/>
<path d="M103.26 42.1177L99.5578 41.4006L96.3304 45.8261L98.197 46.9861L103.26 42.1177Z" fill="#3AD29F"/>
<path opacity="0.05" d="M94.8164 32.0437L97.2162 34.6599V36.2628C97.2157 37.3119 97.4146 38.3511 97.8016 39.3218L99.4138 43.3659C99.5196 43.6315 99.7229 43.8434 99.9796 43.9558C100.236 44.0682 100.526 44.072 100.785 43.9664L102.145 43.4132C102.277 43.3591 102.397 43.2781 102.498 43.1752C102.6 43.0722 102.68 42.9493 102.734 42.8139C102.788 42.6784 102.815 42.5331 102.813 42.3867C102.811 42.2403 102.781 42.0958 102.724 41.9617L102.342 41.0555C102.332 41.0369 102.33 41.0149 102.335 40.9943C102.341 40.9738 102.354 40.9564 102.372 40.9459C102.39 40.9355 102.412 40.9328 102.432 40.9386C102.452 40.9444 102.469 40.9581 102.479 40.9767L103.254 42.1114C103.377 42.2916 103.551 42.4291 103.752 42.5059C103.952 42.5827 104.171 42.5952 104.379 42.5417L105.128 42.3494C105.29 42.3069 105.438 42.2218 105.557 42.1026C105.677 41.9834 105.764 41.8341 105.811 41.6696C105.857 41.505 105.861 41.3309 105.822 41.1643C105.783 40.9977 105.702 40.8445 105.588 40.7198C105.574 40.7049 105.566 40.6851 105.566 40.6645C105.566 40.6439 105.574 40.624 105.588 40.6091C105.602 40.5941 105.62 40.5852 105.64 40.5841C105.66 40.5829 105.68 40.5898 105.695 40.6031L106.681 41.44C106.853 41.5862 107.066 41.6726 107.29 41.6868C107.513 41.7009 107.735 41.6421 107.924 41.5188L108.4 41.2036C108.53 41.1187 108.64 41.0059 108.723 40.873C108.806 40.7401 108.86 40.5902 108.881 40.4337C108.902 40.2772 108.89 40.1179 108.845 39.9667C108.801 39.8156 108.724 39.6762 108.622 39.5582C108.052 38.8947 107.174 38.0925 106.072 37.7742C104.915 37.4401 104.502 35.3408 104.361 33.604C104.276 32.4775 103.882 31.3989 103.224 30.4943C102.565 29.5898 101.67 28.8967 100.643 28.4961C98.9188 27.8389 96.8009 27.8925 94.7827 30.2297C94.5647 30.4807 94.447 30.8071 94.4532 31.1435C94.4595 31.48 94.5892 31.8015 94.8164 32.0437Z" fill="black"/>
<path d="M94.8164 31.8531L97.2162 34.4693V36.0721C97.2163 37.1197 97.4151 38.1572 97.8016 39.1264L99.4138 43.1705C99.5196 43.436 99.7229 43.648 99.9796 43.7604C100.236 43.8728 100.526 43.8766 100.785 43.771L102.145 43.2178C102.277 43.1637 102.397 43.0827 102.498 42.9798C102.6 42.8768 102.68 42.7539 102.734 42.6185C102.788 42.483 102.815 42.3377 102.813 42.1913C102.811 42.0449 102.781 41.9004 102.724 41.7663L102.342 40.8727C102.332 40.8541 102.33 40.8321 102.335 40.8115C102.341 40.791 102.354 40.7736 102.372 40.7631C102.39 40.7527 102.412 40.75 102.432 40.7558C102.452 40.7616 102.469 40.7753 102.479 40.7939L103.254 41.9286C103.377 42.1088 103.551 42.2463 103.752 42.3231C103.952 42.3999 104.171 42.4124 104.379 42.3589L105.128 42.1666C105.29 42.1241 105.438 42.039 105.557 41.9198C105.677 41.8006 105.764 41.6514 105.811 41.4868C105.857 41.3222 105.861 41.1481 105.822 40.9815C105.783 40.8149 105.702 40.6617 105.588 40.537C105.574 40.5221 105.566 40.5023 105.566 40.4817C105.566 40.4611 105.574 40.4412 105.588 40.4263C105.602 40.4113 105.62 40.4024 105.64 40.4013C105.66 40.4002 105.68 40.407 105.695 40.4203L106.681 41.2572C106.853 41.4034 107.066 41.4898 107.29 41.504C107.513 41.5181 107.735 41.4593 107.924 41.336L108.4 41.0208C108.529 40.9368 108.639 40.8251 108.722 40.6933C108.805 40.5615 108.86 40.4128 108.881 40.2573C108.903 40.1018 108.892 39.9434 108.849 39.7928C108.805 39.6421 108.731 39.503 108.63 39.3849C108.06 38.7198 107.179 37.9129 106.072 37.593C104.915 37.2573 104.502 35.1454 104.364 33.4055C104.275 32.2609 103.865 31.1674 103.186 30.2566C102.506 29.3458 101.584 28.6567 100.532 28.2723C98.8345 27.664 96.7718 27.7664 94.8026 30.0422C94.5841 30.2911 94.4643 30.6151 94.4669 30.9504C94.4695 31.2857 94.5942 31.6078 94.8164 31.8531Z" fill="#FFC533"/>
<path opacity="0.1" d="M97.0492 71.2096L97.0691 71.5374L95.7834 71.3735L95.8508 71.2096H97.0492Z" fill="black"/>
<path opacity="0.1" d="M97.0905 71.5358H96.6155C96.6155 71.5358 97.9349 84.0921 99.2207 84.3222L99.3203 84.1645C99.3203 84.1645 97.2162 73.944 97.0905 71.5358Z" fill="black"/>
<path opacity="0.05" d="M94.7873 30.2471C95.2777 29.6608 95.8599 29.1628 96.5097 28.7735C97.642 27.6517 99.1498 27.0196 100.722 27.0075C102.294 26.9954 103.811 27.6043 104.959 28.7087C106.108 29.813 106.801 31.3285 106.894 32.9425C106.988 34.5566 106.476 36.1462 105.464 37.3834C105.236 37.6623 99.8107 35.7727 99.8107 35.7727C97.9345 34.8606 96.2407 33.5959 94.8164 32.0438C94.798 32.0233 94.7796 32.0012 94.7627 31.9792C94.565 31.735 94.4588 31.4262 94.4633 31.1085C94.4678 30.7908 94.5827 30.4852 94.7873 30.2471Z" fill="black"/>
<path d="M94.7873 30.0564C95.2777 29.4701 95.8599 28.972 96.5097 28.5828C97.642 27.461 99.1498 26.8288 100.722 26.8168C102.294 26.8047 103.811 27.4136 104.959 28.5179C106.108 29.6222 106.801 31.1377 106.894 32.7518C106.988 34.3659 106.476 35.9554 105.464 37.1926C105.236 37.4716 99.8107 35.5819 99.8107 35.5819C97.9345 34.6699 96.2407 33.4052 94.8164 31.8531C94.798 31.8326 94.7796 31.8105 94.7627 31.7884C94.565 31.5443 94.4588 31.2354 94.4633 30.9177C94.4678 30.6001 94.5827 30.2945 94.7873 30.0564Z" fill="#252A62"/>
<g opacity="0.5">
<path opacity="0.5" d="M29.3037 97.824C29.339 100.413 31.4645 102.462 33.9823 102.462H34.3333C34.6429 102.461 34.9405 102.585 35.1623 102.807C35.331 102.97 35.4485 103.181 35.4995 103.413C35.5231 103.506 35.5349 103.603 35.5347 103.699V108.27C35.5336 109.149 35.7783 110.009 36.2396 110.749C36.9105 111.798 37.2744 113.022 37.2878 114.278C37.2878 114.571 37.3445 114.861 37.4546 115.131C37.5647 115.401 37.726 115.646 37.9292 115.851C38.1323 116.057 38.3732 116.218 38.6377 116.327C38.9023 116.436 39.1852 116.489 39.4701 116.484C40.6485 116.462 41.5711 115.42 41.5711 114.21V113.066L42.1549 113.135V114.281C42.1549 114.574 42.2116 114.864 42.3217 115.134C42.4318 115.404 42.5931 115.649 42.7963 115.855C42.9994 116.06 43.2403 116.222 43.5048 116.33C43.7694 116.439 44.0523 116.492 44.3372 116.487C45.5156 116.465 46.4382 115.423 46.4382 114.213V113.635C47.022 113.885 50.3321 113.885 51.2516 113.643L51.5014 113.622V114.286C51.5014 114.579 51.5581 114.869 51.6682 115.139C51.7783 115.409 51.9396 115.654 52.1427 115.859C52.3459 116.065 52.5867 116.226 52.8513 116.335C53.1159 116.444 53.3988 116.497 53.6836 116.492C54.8621 116.47 55.7846 115.428 55.7846 114.218V113.272L55.9793 113.255V114.297C55.9792 114.481 56.0013 114.665 56.0452 114.843C56.1654 115.324 56.4396 115.749 56.8237 116.05C57.2077 116.35 57.679 116.509 58.1615 116.5C58.6791 116.48 59.1728 116.271 59.5541 115.91C59.9355 115.55 60.1796 115.062 60.2426 114.533C60.2554 114.428 60.2621 114.323 60.2625 114.218V109.42C60.2657 107.776 59.7314 106.179 58.7453 104.885C58.5743 104.656 58.4786 104.377 58.472 104.089C58.4654 103.8 58.5482 103.517 58.7086 103.28C59.7997 101.638 61.4118 98.8673 61.3582 96.902C61.369 96.3689 61.1872 95.8505 60.8479 95.4473L60.7835 95.378C59.2143 93.6948 56.4513 95.0218 56.6888 97.3448C56.7697 98.1231 56.7137 98.9101 56.5233 99.6679C56.4152 100.096 56.2684 100.513 56.085 100.913C55.9019 101.315 55.6003 101.647 55.2232 101.863C54.8461 102.078 54.4125 102.166 53.984 102.114C53.6926 102.078 53.3994 102.06 53.1059 102.06H44.1027C43.5744 102.06 43.0593 101.89 42.6298 101.574C42.2002 101.258 41.8777 100.811 41.7075 100.297C41.6162 100.027 41.5701 99.7437 41.5711 99.4583V92.248C41.5709 92.0603 41.5342 91.8745 41.463 91.7017C41.3918 91.5289 41.2876 91.3725 41.1565 91.2418C41.0255 91.1112 40.8703 91.0089 40.7001 90.9411C40.5299 90.8732 40.3482 90.8412 40.1658 90.8469C39.9875 90.8531 39.8123 90.8962 39.6507 90.9736C39.489 91.0511 39.3442 91.1613 39.2249 91.2976C38.9808 91.5743 38.8453 91.9343 38.8448 92.3079C38.8448 92.5047 38.7688 92.6936 38.6334 92.8328C38.4981 92.972 38.3145 93.0502 38.123 93.0502H33.8796C33.2731 93.0499 32.6725 93.1737 32.1129 93.4143C31.5533 93.655 31.0458 94.0077 30.62 94.4519C30.1942 94.8962 29.8585 95.4231 29.6325 96.002C29.4065 96.5809 29.2948 97.2002 29.3037 97.824Z" fill="url(#paint1_linear)"/>
<path opacity="0.5" d="M56.0467 114.823C56.1669 115.304 56.4412 115.729 56.8252 116.029C57.2092 116.33 57.6805 116.488 58.163 116.479C58.6806 116.459 59.1743 116.25 59.5557 115.89C59.937 115.53 60.1811 115.041 60.2441 114.513C58.9476 114.153 57.1485 113.904 56.0467 114.823Z" fill="url(#paint2_linear)"/>
<path opacity="0.5" d="M51.5673 114.823C51.6875 115.304 51.9618 115.729 52.3458 116.029C52.7298 116.33 53.2011 116.488 53.6836 116.479C54.202 116.46 54.6968 116.252 55.0791 115.891C55.4614 115.531 55.7062 115.042 55.7693 114.513C54.4698 114.153 52.6722 113.904 51.5673 114.823Z" fill="url(#paint3_linear)"/>
<path opacity="0.5" d="M42.2208 114.823C42.341 115.304 42.6153 115.729 42.9993 116.029C43.3833 116.33 43.8547 116.488 44.3372 116.479C44.8553 116.46 45.3497 116.251 45.7317 115.891C46.1137 115.53 46.3582 115.042 46.4213 114.513C45.1233 114.153 43.3257 113.904 42.2208 114.823Z" fill="url(#paint4_linear)"/>
<path opacity="0.5" d="M37.3537 114.823C37.4739 115.304 37.7482 115.729 38.1322 116.029C38.5162 116.33 38.9876 116.488 39.47 116.479C39.9876 116.459 40.4813 116.25 40.8627 115.89C41.2441 115.53 41.4881 115.041 41.5511 114.513C40.2547 114.153 38.4525 113.904 37.3537 114.823Z" fill="url(#paint5_linear)"/>
<path opacity="0.5" d="M56.5263 99.6679C58.0389 99.0375 59.8855 97.8996 61.3597 96.9067C61.3705 96.3736 61.1887 95.8553 60.8494 95.4521L60.785 95.3827C59.2143 93.6948 56.4512 95.0218 56.6888 97.3449C56.7707 98.123 56.7157 98.9099 56.5263 99.6679Z" fill="url(#paint6_linear)"/>
<path opacity="0.5" d="M54.6966 102.074C54.6966 102.074 50.5298 107.468 43.715 102.06L54.6966 102.074Z" fill="url(#paint7_linear)"/>
<path opacity="0.5" d="M41.5711 92.0478C41.5711 92.0478 39.0394 95.452 41.5711 99.6584V92.0478Z" fill="url(#paint8_linear)"/>
<path opacity="0.5" d="M35.5408 103.663C35.5408 103.663 37.7706 106.513 35.5684 108.776L35.5408 103.663Z" fill="url(#paint9_linear)"/>
<g opacity="0.1">
<path opacity="0.1" d="M35.3401 103.063C35.5056 103.22 35.4489 103.378 35.4933 103.611L42.7434 101.66C42.3541 101.345 41.8714 100.986 41.712 100.497C40.8385 101.19 39.1237 102.352 35.3401 103.063Z" fill="url(#paint10_linear)"/>
</g>
<path opacity="0.5" d="M35.1623 102.806C35.331 102.968 35.4485 103.179 35.4995 103.411L42.5488 101.52C42.1546 101.208 41.8591 100.783 41.6998 100.298C40.8386 100.989 38.946 102.095 35.1623 102.806Z" fill="url(#paint11_linear)"/>
<path opacity="0.1" d="M41.4423 100.697C41.4423 100.697 39.2341 102.404 35.5408 102.933L41.4423 100.697Z" fill="url(#paint12_linear)"/>
<path opacity="0.5" d="M41.4423 100.497C41.4423 100.497 39.2341 102.205 35.5408 102.733L41.4423 100.497Z" fill="url(#paint13_linear)"/>
<g opacity="0.1">
<path opacity="0.1" d="M35.9239 100.659C35.9239 100.659 32.2246 101.86 31.2499 98.0557L35.9239 100.659Z" fill="url(#paint14_linear)"/>
</g>
<path opacity="0.5" d="M35.9239 100.459C35.9239 100.459 32.2246 101.66 31.2499 97.8555L35.9239 100.459Z" fill="url(#paint15_linear)"/>
<path opacity="0.5" d="M29.3022 98.0556C29.5172 98.0556 29.6914 97.7416 29.6914 97.3543C29.6914 96.9669 29.5172 96.653 29.3022 96.653C29.0872 96.653 28.9129 96.9669 28.9129 97.3543C28.9129 97.7416 29.0872 98.0556 29.3022 98.0556Z" fill="url(#paint16_linear)"/>
<path opacity="0.1" d="M58.8036 111.773L58.0251 105.357C58.0251 105.357 60.3621 109.162 58.8036 111.765" fill="url(#paint17_linear)"/>
<path opacity="0.5" d="M57.8305 105.357C57.8305 105.357 60.1675 109.162 58.609 111.765L57.8305 105.357Z" fill="url(#paint18_linear)"/>
</g>
<path d="M30.024 98.0904C30.0577 100.562 32.0851 102.516 34.488 102.516H34.8221C35.118 102.515 35.4024 102.633 35.6144 102.845C35.7753 103 35.8874 103.201 35.9362 103.422C35.9587 103.511 35.97 103.603 35.9699 103.695V108.057C35.9692 108.895 36.2027 109.716 36.6427 110.421C37.2824 111.422 37.6292 112.59 37.6418 113.788C37.642 114.067 37.6963 114.344 37.8014 114.601C37.9066 114.859 38.0607 115.092 38.2545 115.288C38.4484 115.484 38.6782 115.638 38.9306 115.741C39.183 115.844 39.4528 115.895 39.7244 115.89C40.8493 115.87 41.7289 114.875 41.7289 113.72V112.629L42.2867 112.695V113.789C42.2869 114.069 42.3411 114.345 42.4463 114.603C42.5515 114.86 42.7056 115.094 42.8994 115.289C43.0933 115.485 43.3231 115.639 43.5755 115.743C43.8279 115.846 44.0977 115.897 44.3693 115.892C45.4942 115.871 46.3738 114.877 46.3738 113.721V113.17C46.9316 113.409 50.09 113.409 50.9712 113.17L51.2087 113.151V113.781C51.2089 114.061 51.2631 114.337 51.3683 114.595C51.4735 114.852 51.6275 115.086 51.8214 115.282C52.0153 115.477 52.2451 115.631 52.4975 115.735C52.7498 115.838 53.0197 115.889 53.2913 115.884C54.4161 115.863 55.2958 114.869 55.2958 113.714V112.806L55.4812 112.788V113.781C55.4811 113.957 55.5022 114.132 55.544 114.303C55.6596 114.761 55.9218 115.165 56.2882 115.451C56.6546 115.737 57.104 115.888 57.5638 115.879C58.0588 115.861 58.5315 115.663 58.8967 115.319C59.2619 114.974 59.4957 114.508 59.556 114.002C59.5678 113.904 59.574 113.806 59.5744 113.707V109.137C59.5761 107.569 59.0656 106.046 58.1247 104.812C57.9615 104.594 57.8701 104.328 57.8638 104.053C57.8575 103.778 57.9365 103.508 58.0895 103.282C59.13 101.715 60.6686 99.0707 60.618 97.1952C60.6286 96.6867 60.4549 96.1924 60.1307 95.8083L60.0694 95.7421C58.5722 94.1298 55.9318 95.3985 56.1632 97.6144C56.2418 98.3565 56.1899 99.1071 56.0099 99.8303C55.9067 100.239 55.7667 100.637 55.5915 101.019C55.4167 101.402 55.129 101.719 54.7693 101.924C54.4095 102.13 53.9959 102.214 53.5871 102.164C53.3089 102.13 53.029 102.112 52.7488 102.112H44.1502C43.6462 102.112 43.1549 101.95 42.7451 101.648C42.3354 101.346 42.0278 100.92 41.8653 100.429C41.7782 100.172 41.7342 99.9011 41.735 99.6286V92.7713C41.7351 92.5921 41.7002 92.4147 41.6323 92.2496C41.5645 92.0845 41.4651 91.9352 41.34 91.8104C41.2149 91.6856 41.0667 91.5879 40.9043 91.5231C40.7418 91.4583 40.5683 91.4278 40.3941 91.4332C40.224 91.4392 40.0568 91.4803 39.9025 91.5543C39.7482 91.6282 39.61 91.7334 39.4961 91.8635C39.2638 92.1273 39.1349 92.4705 39.1345 92.8264C39.1345 93.0145 39.0618 93.1949 38.9325 93.3279C38.8031 93.4609 38.6277 93.5357 38.4448 93.5357H34.3945C33.8154 93.5348 33.2419 93.6524 32.7075 93.8817C32.173 94.111 31.6882 94.4475 31.2815 94.8714C30.8747 95.2953 30.554 95.7982 30.3381 96.3509C30.1222 96.9035 30.0154 97.4949 30.024 98.0904Z" fill="#F3AD55"/>
<path d="M55.5471 114.312C55.6627 114.77 55.9248 115.175 56.2912 115.461C56.6577 115.746 57.107 115.897 57.5669 115.888C58.0619 115.871 58.5346 115.672 58.8998 115.328C59.265 114.984 59.4988 114.517 59.5591 114.011C58.3147 113.672 56.5999 113.434 55.5471 114.312Z" fill="#F38143"/>
<path d="M51.2731 114.312C51.3887 114.77 51.6508 115.175 52.0172 115.461C52.3836 115.746 52.833 115.897 53.2928 115.888C53.7879 115.871 54.2605 115.672 54.6257 115.328C54.991 114.984 55.2248 114.517 55.285 114.011C54.0422 113.672 52.3274 113.434 51.2731 114.312Z" fill="#F38143"/>
<path d="M42.3541 114.312C42.4697 114.77 42.7319 115.175 43.0983 115.461C43.4647 115.746 43.9141 115.897 44.3739 115.888C44.8689 115.871 45.3416 115.672 45.7068 115.328C46.072 114.984 46.3058 114.517 46.3661 114.011C45.1233 113.672 43.4085 113.434 42.3541 114.312Z" fill="#F38143"/>
<path d="M37.7092 114.312C37.8248 114.77 38.087 115.175 38.4534 115.461C38.8198 115.746 39.2692 115.897 39.729 115.888C40.224 115.871 40.6967 115.672 41.0619 115.328C41.4271 114.984 41.6609 114.517 41.7212 114.011C40.4784 113.672 38.759 113.434 37.7092 114.312Z" fill="#F38143"/>
<path d="M56.0038 99.8508C57.4473 99.255 59.2097 98.1629 60.6149 97.2157C60.6255 96.7072 60.4518 96.2128 60.1276 95.8287L60.0663 95.7626C58.5691 94.1503 55.9287 95.419 56.1601 97.6349C56.2377 98.3772 56.1848 99.1278 56.0038 99.8508Z" fill="#F8DEA5"/>
<path d="M54.2568 102.147C54.2568 102.147 50.2816 107.294 43.7778 102.134L54.2568 102.147Z" fill="#F8DEA5"/>
<path d="M41.7335 92.5806C41.7335 92.5806 39.3183 95.8288 41.7335 99.8413V92.5806Z" fill="#F8DEA5"/>
<path d="M35.9745 103.663C35.9745 103.663 38.1016 106.382 36.0006 108.549L35.9745 103.663Z" fill="#F8DEA5"/>
<path opacity="0.1" d="M35.7891 103.089C35.9423 103.247 35.8933 103.389 35.9423 103.613L42.8507 101.751C42.4798 101.457 42.0185 101.107 41.8653 100.648C41.0362 101.302 39.398 102.412 35.7891 103.089Z" fill="black"/>
<path d="M35.619 102.845C35.7799 103 35.892 103.201 35.9408 103.422L42.6744 101.616C42.2979 101.318 42.0157 100.912 41.8638 100.45C41.0362 101.112 39.2295 102.166 35.619 102.845Z" fill="#383F4D"/>
<path opacity="0.1" d="M41.6109 100.833C41.6109 100.833 39.5038 102.462 35.9745 102.967L41.6109 100.833Z" fill="black"/>
<path d="M41.6109 100.642C41.6109 100.642 39.5038 102.272 35.9745 102.776L41.6109 100.642Z" fill="#F3AD55"/>
<path opacity="0.1" d="M35.2726 101.427C35.2726 101.427 31.748 102.572 30.8132 98.9429L35.2726 101.427Z" fill="black"/>
<path d="M35.2726 101.236C35.2726 101.236 31.748 102.382 30.8132 98.7523L35.2726 101.236Z" fill="#F3AD55"/>
<path d="M30.0286 98.3125C30.2334 98.3125 30.3994 98.0134 30.3994 97.6443C30.3994 97.2753 30.2334 96.9761 30.0286 96.9761C29.8237 96.9761 29.6577 97.2753 29.6577 97.6443C29.6577 98.0134 29.8237 98.3125 30.0286 98.3125Z" fill="#383F4D"/>
<path opacity="0.1" d="M58.1783 111.401L57.4351 105.286C57.4351 105.286 59.6648 108.911 58.1783 111.401Z" fill="black"/>
<path d="M57.2496 105.286C57.2496 105.286 59.4794 108.911 57.9929 111.401L57.2496 105.286Z" fill="#F3AD55"/>
<path opacity="0.1" d="M41.7335 101.9C41.7335 101.9 52.6477 108.24 60.7804 104.965C63.9266 103.704 66.1916 100.845 66.9394 97.4568C67.3596 95.5616 68.0959 93.7556 69.1155 92.1188C72.0624 87.3907 77.2375 84.6594 82.6977 84.7398C88.354 84.8218 98.9709 84.0322 102.085 77.2758" stroke="#383F4D" stroke-width="2" stroke-miterlimit="10"/>
<path d="M41.7335 101.709C41.7335 101.709 52.6477 108.049 60.7804 104.774C63.9266 103.513 66.1916 100.654 66.9394 97.266C67.3605 95.3735 68.0967 93.5703 69.1155 91.9359C72.0624 87.2078 77.2375 84.4766 82.6977 84.557C88.354 84.6389 98.9709 83.8493 102.085 77.0929" stroke="#383F4D" stroke-width="2" stroke-miterlimit="10"/>
<path opacity="0.1" d="M105.602 72.3491C105.602 72.3491 106.051 79.2253 101.656 80.6736C101.52 80.7188 101.375 80.7314 101.233 80.7104C101.092 80.6895 100.957 80.6355 100.838 80.5526C100.72 80.4698 100.622 80.3602 100.551 80.2323C100.48 80.1044 100.439 79.9616 100.43 79.8147C100.356 78.6453 100.719 76.2371 102.814 71.3735L105.602 72.3491Z" fill="black"/>
<path d="M105.349 72.2182C105.349 72.2182 105.798 79.0945 101.403 80.5428C101.267 80.588 101.122 80.6006 100.981 80.5796C100.839 80.5587 100.704 80.5047 100.586 80.4218C100.467 80.339 100.369 80.2294 100.298 80.1015C100.227 79.9736 100.186 79.8308 100.177 79.6839C100.103 78.5145 100.467 76.1063 102.561 71.2427L105.349 72.2182Z" fill="#FDA57D"/>
<path opacity="0.1" d="M104.526 44.8175C104.526 44.8175 110.855 43.5157 110.095 60.0467C110.095 60.0467 108.576 72.1521 105.918 72.9338L101.933 71.8921L103.515 60.5667L101.933 54.7086C101.933 54.7086 100.67 45.8593 104.526 44.8175Z" fill="black"/>
<path opacity="0.1" d="M103.956 44.8175C103.956 44.8175 110.285 43.5157 109.525 60.0467C109.525 60.0467 108.006 72.1521 105.347 72.9338L101.363 71.8921L102.945 60.5667L101.363 54.7086C101.363 54.7086 100.096 45.8593 103.956 44.8175Z" fill="black"/>
<path d="M104.273 44.8175C104.273 44.8175 110.602 43.5157 109.842 60.0467C109.842 60.0467 108.323 72.1521 105.665 72.9338L101.68 71.8921L103.262 60.5667L101.68 54.7086C101.68 54.7086 100.413 45.8593 104.273 44.8175Z" fill="#3AD29F"/>
<path opacity="0.1" d="M105.361 73.2711V72.855L102.229 72.037L102.083 72.3885L105.361 73.2711Z" fill="black"/>
</g>
<defs>
<linearGradient id="paint0_linear" x1="104.661" y1="121.691" x2="104.661" y2="24.7263" gradientUnits="userSpaceOnUse">
<stop stop-color="#808080" stop-opacity="0.25"/>
<stop offset="0.54" stop-color="#808080" stop-opacity="0.12"/>
<stop offset="1" stop-color="#808080" stop-opacity="0.1"/>
</linearGradient>
<linearGradient id="paint1_linear" x1="17343.2" y1="19038.1" x2="17343.2" y2="14865.5" gradientUnits="userSpaceOnUse">
<stop stop-color="#808080" stop-opacity="0.25"/>
<stop offset="0.54" stop-color="#808080" stop-opacity="0.12"/>
<stop offset="1" stop-color="#808080" stop-opacity="0.1"/>
</linearGradient>
<linearGradient id="paint2_linear" x1="1972.12" y1="1806.67" x2="1972.12" y2="1773.35" gradientUnits="userSpaceOnUse">
<stop stop-color="#808080" stop-opacity="0.25"/>
<stop offset="0.54" stop-color="#808080" stop-opacity="0.12"/>
<stop offset="1" stop-color="#808080" stop-opacity="0.1"/>
</linearGradient>
<linearGradient id="paint3_linear" x1="2092.56" y1="1806.67" x2="2092.56" y2="1773.35" gradientUnits="userSpaceOnUse">
<stop stop-color="#808080" stop-opacity="0.25"/>
<stop offset="0.54" stop-color="#808080" stop-opacity="0.12"/>
<stop offset="1" stop-color="#808080" stop-opacity="0.1"/>
</linearGradient>
<linearGradient id="paint4_linear" x1="2338.66" y1="1806.67" x2="2338.66" y2="1773.35" gradientUnits="userSpaceOnUse">
<stop stop-color="#808080" stop-opacity="0.25"/>
<stop offset="0.54" stop-color="#808080" stop-opacity="0.12"/>
<stop offset="1" stop-color="#808080" stop-opacity="0.1"/>
</linearGradient>
<linearGradient id="paint5_linear" x1="2465.47" y1="1806.67" x2="2465.47" y2="1773.35" gradientUnits="userSpaceOnUse">
<stop stop-color="#808080" stop-opacity="0.25"/>
<stop offset="0.54" stop-color="#808080" stop-opacity="0.12"/>
<stop offset="1" stop-color="#808080" stop-opacity="0.1"/>
</linearGradient>
<linearGradient id="paint6_linear" x1="2237.99" y1="3283.17" x2="2237.99" y2="3121.55" gradientUnits="userSpaceOnUse">
<stop stop-color="#808080" stop-opacity="0.25"/>
<stop offset="0.54" stop-color="#808080" stop-opacity="0.12"/>
<stop offset="1" stop-color="#808080" stop-opacity="0.1"/>
</linearGradient>
<linearGradient id="paint7_linear" x1="5697.49" y1="1696.29" x2="5697.49" y2="1659.54" gradientUnits="userSpaceOnUse">
<stop stop-color="#808080" stop-opacity="0.25"/>
<stop offset="0.54" stop-color="#808080" stop-opacity="0.12"/>
<stop offset="1" stop-color="#808080" stop-opacity="0.1"/>
</linearGradient>
<linearGradient id="paint8_linear" x1="679.901" y1="4900.68" x2="679.901" y2="4533.24" gradientUnits="userSpaceOnUse">
<stop stop-color="#808080" stop-opacity="0.25"/>
<stop offset="0.54" stop-color="#808080" stop-opacity="0.12"/>
<stop offset="1" stop-color="#808080" stop-opacity="0.1"/>
</linearGradient>
<linearGradient id="paint9_linear" x1="635.849" y1="3629.79" x2="635.849" y2="3463.94" gradientUnits="userSpaceOnUse">
<stop stop-color="#808080" stop-opacity="0.25"/>
<stop offset="0.54" stop-color="#808080" stop-opacity="0.12"/>
<stop offset="1" stop-color="#808080" stop-opacity="0.1"/>
</linearGradient>
<linearGradient id="paint10_linear" x1="4337.93" y1="2146.29" x2="4337.93" y2="2084.75" gradientUnits="userSpaceOnUse">
<stop stop-color="#808080" stop-opacity="0.25"/>
<stop offset="0.54" stop-color="#808080" stop-opacity="0.12"/>
<stop offset="1" stop-color="#808080" stop-opacity="0.1"/>
</linearGradient>
<linearGradient id="paint11_linear" x1="4336.67" y1="2141.11" x2="4336.67" y2="2079.6" gradientUnits="userSpaceOnUse">
<stop stop-color="#808080" stop-opacity="0.25"/>
<stop offset="0.54" stop-color="#808080" stop-opacity="0.12"/>
<stop offset="1" stop-color="#808080" stop-opacity="0.1"/>
</linearGradient>
<linearGradient id="paint12_linear" x1="3486.57" y1="1560.2" x2="3486.57" y2="1528.47" gradientUnits="userSpaceOnUse">
<stop stop-color="#808080" stop-opacity="0.25"/>
<stop offset="0.54" stop-color="#808080" stop-opacity="0.12"/>
<stop offset="1" stop-color="#808080" stop-opacity="0.1"/>
</linearGradient>
<linearGradient id="paint13_linear" x1="3486.57" y1="1557.17" x2="3486.57" y2="1525.43" gradientUnits="userSpaceOnUse">
<stop stop-color="#808080" stop-opacity="0.25"/>
<stop offset="0.54" stop-color="#808080" stop-opacity="0.12"/>
<stop offset="1" stop-color="#808080" stop-opacity="0.1"/>
</linearGradient>
<linearGradient id="paint14_linear" x1="2913.94" y1="1877.59" x2="2913.94" y2="1828.44" gradientUnits="userSpaceOnUse">
<stop stop-color="#808080" stop-opacity="0.25"/>
<stop offset="0.54" stop-color="#808080" stop-opacity="0.12"/>
<stop offset="1" stop-color="#808080" stop-opacity="0.1"/>
</linearGradient>
<linearGradient id="paint15_linear" x1="2913.94" y1="1873.87" x2="2913.94" y2="1824.72" gradientUnits="userSpaceOnUse">
<stop stop-color="#808080" stop-opacity="0.25"/>
<stop offset="0.54" stop-color="#808080" stop-opacity="0.12"/>
<stop offset="1" stop-color="#808080" stop-opacity="0.1"/>
</linearGradient>
<linearGradient id="paint16_linear" x1="-402.706" y1="968.726" x2="-402.706" y2="956.242" gradientUnits="userSpaceOnUse">
<stop stop-color="#808080" stop-opacity="0.25"/>
<stop offset="0.54" stop-color="#808080" stop-opacity="0.12"/>
<stop offset="1" stop-color="#808080" stop-opacity="0.1"/>
</linearGradient>
<linearGradient id="paint17_linear" x1="653.413" y1="4652.46" x2="653.413" y2="4391.58" gradientUnits="userSpaceOnUse">
<stop stop-color="#808080" stop-opacity="0.25"/>
<stop offset="0.54" stop-color="#808080" stop-opacity="0.12"/>
<stop offset="1" stop-color="#808080" stop-opacity="0.1"/>
</linearGradient>
<linearGradient id="paint18_linear" x1="654.889" y1="4646.87" x2="654.889" y2="4386.31" gradientUnits="userSpaceOnUse">
<stop stop-color="#808080" stop-opacity="0.25"/>
<stop offset="0.54" stop-color="#808080" stop-opacity="0.12"/>
<stop offset="1" stop-color="#808080" stop-opacity="0.1"/>
</linearGradient>
<clipPath id="clip0">
<rect width="154" height="142" fill="white"/>
</clipPath>
</defs>
</svg>
