<svg width="42" height="22" viewBox="0 0 42 22" fill="none" xmlns="http://www.w3.org/2000/svg">
<path d="M31 1H11C5.47715 1 1 5.47715 1 11C1 16.5228 5.47715 21 11 21H31C36.5228 21 41 16.5228 41 11C41 5.47715 36.5228 1 31 1Z" stroke="#1AAAFF" stroke-width="2" stroke-miterlimit="10" stroke-linecap="round" stroke-linejoin="round"/>
<path d="M23.5 16.625V15.375C23.5 14.712 23.2366 14.0761 22.7678 13.6072C22.2989 13.1384 21.663 12.875 21 12.875H16.625C15.962 12.875 15.3261 13.1384 14.8572 13.6072C14.3884 14.0761 14.125 14.712 14.125 15.375V16.625" stroke="#1AAAFF" stroke-width="2" stroke-miterlimit="10" stroke-linecap="round" stroke-linejoin="round"/>
<path d="M18.8125 10.375C20.1932 10.375 21.3125 9.25571 21.3125 7.875C21.3125 6.49429 20.1932 5.375 18.8125 5.375C17.4318 5.375 16.3125 6.49429 16.3125 7.875C16.3125 9.25571 17.4318 10.375 18.8125 10.375Z" stroke="#1AAAFF" stroke-width="2" stroke-miterlimit="10" stroke-linecap="round" stroke-linejoin="round"/>
<path d="M24.125 10.375L25.375 11.625L27.875 9.125" stroke="#1AAAFF" stroke-width="2" stroke-miterlimit="10" stroke-linecap="round" stroke-linejoin="round"/>
</svg>
