<svg width="40" height="40" viewBox="0 0 40 40" fill="none" xmlns="http://www.w3.org/2000/svg">
<circle cx="20" cy="20" r="19" fill="url(#paint0_linear)" stroke="white" stroke-width="2"/>
<path d="M13 26C13 26.2708 13.0938 26.5 13.2812 26.6875C13.4896 26.8958 13.7292 27 14 27H19V22H13V26ZM27 17H25.6875C25.8958 16.5833 26 16.1667 26 15.75C26 15 25.7292 14.3542 25.1875 13.8125C24.6458 13.2708 24 13 23.25 13C22.625 13 22.0625 13.1771 21.5625 13.5312C21.1042 13.8438 20.5938 14.375 20.0312 15.125C19.4688 14.375 18.9583 13.8438 18.5 13.5312C18 13.1771 17.4375 13 16.8125 13C16.0625 13 15.4167 13.2708 14.875 13.8125C14.3333 14.3542 14.0625 15 14.0625 15.75C14.0625 16.1875 14.1667 16.6042 14.375 17H13C12.7292 17 12.4896 17.1042 12.2812 17.3125C12.0938 17.5 12 17.7292 12 18V20.5C12 20.6458 12.0417 20.7708 12.125 20.875C12.2292 20.9583 12.3542 21 12.5 21H27.5C27.6458 21 27.7604 20.9583 27.8438 20.875C27.9479 20.7708 28 20.6458 28 20.5V18C28 17.7292 27.8958 17.5 27.6875 17.3125C27.5 17.1042 27.2708 17 27 17ZM16.8125 17C16.4583 17 16.1562 16.8854 15.9062 16.6562C15.6771 16.4062 15.5625 16.1042 15.5625 15.75C15.5625 15.3958 15.6771 15.1042 15.9062 14.875C16.1562 14.625 16.4583 14.5 16.8125 14.5C17.0625 14.5 17.2708 14.5417 17.4375 14.625C17.6667 14.7292 17.9271 14.9479 18.2188 15.2812C18.5521 15.6562 18.9792 16.2292 19.5 17H16.8125ZM23.25 17H20.5625C21.0833 16.2292 21.5104 15.6562 21.8438 15.2812C22.1354 14.9479 22.3958 14.7292 22.625 14.625C22.7917 14.5417 23 14.5 23.25 14.5C23.6042 14.5 23.8958 14.625 24.125 14.875C24.375 15.1042 24.5 15.3958 24.5 15.75C24.5 16.1042 24.375 16.4062 24.125 16.6562C23.8958 16.8854 23.6042 17 23.25 17ZM21 27H26C26.2708 27 26.5 26.8958 26.6875 26.6875C26.8958 26.5 27 26.2708 27 26V22H21V27Z" fill="white"/>
<defs>
<linearGradient id="paint0_linear" x1="20" y1="0" x2="20" y2="40" gradientUnits="userSpaceOnUse">
<stop stop-color="#1AAAFF"/>
<stop offset="1" stop-color="#5EEDFD"/>
</linearGradient>
</defs>
</svg>
