<svg width="59" height="32" viewBox="0 0 59 32" fill="none" xmlns="http://www.w3.org/2000/svg">
<path d="M0.5 16C0.5 7.43959 7.43959 0.5 16 0.5H43C51.5604 0.5 58.5 7.43959 58.5 16C58.5 24.5604 51.5604 31.5 43 31.5H16C7.43959 31.5 0.5 24.5604 0.5 16Z" stroke="url(#paint0_linear)"/>
<path d="M30.7191 17.1633L30.7118 22.1351C30.7114 22.4334 30.6033 22.6902 30.3875 22.9053C30.1718 23.1204 29.9065 23.236 29.5915 23.2522L28.4977 23.2506C28.1829 23.2335 27.9179 23.1171 27.7028 22.9014C27.4876 22.6856 27.3803 22.4286 27.3807 22.1303L27.3879 17.1584L22.4161 17.1512C22.1178 17.1508 21.8611 17.0427 21.6459 16.8269C21.4308 16.6112 21.3152 16.3458 21.2991 16.0309L21.3006 14.9371C21.3177 14.6223 21.4341 14.3573 21.6498 14.1421C21.8656 13.927 22.1226 13.8196 22.4209 13.8201L27.3928 13.8273L27.4 8.85546C27.4004 8.55715 27.5085 8.30043 27.7243 8.0853C27.9401 7.87017 28.2054 7.75454 28.5203 7.73843L29.6141 7.74002C29.929 7.75705 30.194 7.87344 30.4091 8.0892C30.6242 8.30496 30.7316 8.562 30.7311 8.86031L30.7239 13.8321L35.6958 13.8394C35.9941 13.8398 36.2508 13.9479 36.4659 14.1637C36.681 14.3794 36.7967 14.6448 36.8128 14.9597L36.8112 16.0535C36.7942 16.3683 36.6778 16.6333 36.462 16.8485C36.2463 17.0636 35.9892 17.1709 35.6909 17.1705L30.7191 17.1633Z" fill="#8776CC"/>
<path d="M30.7191 17.1633L30.7118 22.1351C30.7114 22.4334 30.6033 22.6902 30.3875 22.9053C30.1718 23.1204 29.9065 23.236 29.5915 23.2522L28.4977 23.2506C28.1829 23.2335 27.9179 23.1171 27.7028 22.9014C27.4876 22.6856 27.3803 22.4286 27.3807 22.1303L27.3879 17.1584L22.4161 17.1512C22.1178 17.1508 21.8611 17.0427 21.6459 16.8269C21.4308 16.6112 21.3152 16.3458 21.2991 16.0309L21.3006 14.9371C21.3177 14.6223 21.4341 14.3573 21.6498 14.1421C21.8656 13.927 22.1226 13.8196 22.4209 13.8201L27.3928 13.8273L27.4 8.85546C27.4004 8.55715 27.5085 8.30043 27.7243 8.0853C27.9401 7.87017 28.2054 7.75454 28.5203 7.73843L29.6141 7.74002C29.929 7.75705 30.194 7.87344 30.4091 8.0892C30.6242 8.30496 30.7316 8.562 30.7311 8.86031L30.7239 13.8321L35.6958 13.8394C35.9941 13.8398 36.2508 13.9479 36.4659 14.1637C36.681 14.3794 36.7967 14.6448 36.8128 14.9597L36.8112 16.0535C36.7942 16.3683 36.6778 16.6333 36.462 16.8485C36.2463 17.0636 35.9892 17.1709 35.6909 17.1705L30.7191 17.1633Z" fill="#1AAAFF"/>
<defs>
<linearGradient id="paint0_linear" x1="0" y1="16" x2="59" y2="16" gradientUnits="userSpaceOnUse">
<stop stop-color="#1AAAFF"/>
<stop offset="1" stop-color="#5EEDFD"/>
</linearGradient>
</defs>
</svg>
