<svg width="21" height="19" viewBox="0 0 21 19" fill="none" xmlns="http://www.w3.org/2000/svg">
<path d="M17.8125 0H2.83924C1.27372 0 0 1.27346 0 2.83924V12.0026C0 13.5648 1.26817 14.8363 2.82915 14.8418V19L8.80497 14.8418H17.8125C19.378 14.8418 20.6517 13.5681 20.6517 12.0026V2.83924C20.6517 1.27346 19.378 0 17.8125 0ZM19.4417 12.0026C19.4417 12.9008 18.7108 13.6317 17.8125 13.6317H8.42531L4.03921 16.6839V13.6317H2.83924C1.94089 13.6317 1.21006 12.9008 1.21006 12.0026V2.83924C1.21006 1.94076 1.94089 1.21006 2.83924 1.21006H17.8125C18.7108 1.21006 19.4417 1.94076 19.4417 2.83924V12.0026Z" fill="black"/>
</svg>
