<svg width="18" height="17" viewBox="0 0 18 17" fill="none" xmlns="http://www.w3.org/2000/svg">
<path d="M2.8849 12.776V15.6609L7.00618 12.3639H14.4245C16.073 12.6936 16.4851 11.1275 16.4851 10.3032V2.88491C16.4851 1.56609 15.1114 1.23638 14.4245 1.23638C10.8527 1.37376 3.46188 1.56608 2.47277 1.23638C1.48366 0.906678 0.686881 1.92326 0.412128 2.47277V10.3032C0.412128 12.2814 2.06064 12.776 2.8849 12.776Z" fill="#98CCFD"/>
<path d="M14.6821 0.824249H2.34026C1.04987 0.824249 0 1.87391 0 3.16451V10.7174C0 12.0051 1.0453 13.0531 2.33195 13.0577V16.4851L7.25756 13.0577H14.6821C15.9725 13.0577 17.0223 12.0078 17.0223 10.7174V3.16451C17.0223 1.87391 15.9725 0.824249 14.6821 0.824249ZM16.0249 10.7174C16.0249 11.4578 15.4225 12.0603 14.6821 12.0603H6.94462L3.32935 14.576V12.0603H2.34026C1.59979 12.0603 0.997403 11.4578 0.997403 10.7174V3.16451C0.997403 2.42394 1.59979 1.82165 2.34026 1.82165H14.6821C15.4225 1.82165 16.0249 2.42394 16.0249 3.16451V10.7174Z" fill="#4B8BC9"/>
</svg>
