<svg width="36" height="36" viewBox="0 0 36 36" fill="none" xmlns="http://www.w3.org/2000/svg">
<circle cx="18" cy="18" r="17.5" fill="#DFF0FE" stroke="#4788C7"/>
<path d="M9.40002 20.3625C9.40002 20.8637 9.66678 21.2414 10.0639 21.5438L9.40002 21.0791V22.0394V23.4C9.40002 24.0594 9.86172 24.505 10.4745 24.8466C11.0769 25.1998 11.8616 25.4664 12.8378 25.6618C13.8022 25.8612 14.8522 25.925 15.975 25.925C17.0684 25.925 18.1169 25.8609 19.1106 25.6622L19.1138 25.6615C20.0637 25.4649 20.8433 25.1978 21.4702 24.8496L21.4703 24.8497L21.4809 24.8434C22.0384 24.5155 22.55 24.0702 22.55 23.4V22.0394V21.0791L21.7633 21.6298C21.2044 22.0211 20.3891 22.3496 19.3177 22.5949C18.2841 22.8073 17.1817 22.9 15.975 22.9C14.7344 22.9 13.6325 22.8069 12.6323 22.595C11.6056 22.3666 10.8521 22.0652 10.2997 21.706C10.3563 21.7414 10.4147 21.7757 10.4745 21.8091C11.0769 22.1623 11.8617 22.429 12.8379 22.6243C13.8023 22.8237 14.8522 22.8875 15.975 22.8875C17.0684 22.8875 18.1169 22.8234 19.1106 22.6246L19.1106 22.6247L19.1138 22.624C20.0637 22.4274 20.8433 22.1603 21.4702 21.8121L21.4703 21.8122L21.4809 21.8059C22.0384 21.478 22.55 21.0327 22.55 20.3625V18.7172V17.6359L21.7262 18.3362C21.1702 18.8088 20.3621 19.1936 19.2993 19.4669L19.2993 19.4669L19.2959 19.4678C18.2702 19.7393 17.1437 19.8625 15.975 19.8625C14.7753 19.8625 13.6803 19.7394 12.6541 19.4678L12.6542 19.4677L12.6475 19.4661C11.6002 19.2043 10.8406 18.8392 10.2875 18.3891C10.3365 18.4257 10.3873 18.4615 10.4398 18.4967C11.0406 18.9194 11.8273 19.2553 12.8142 19.4866C13.7875 19.7538 14.8453 19.85 15.975 19.85C17.0767 19.85 18.1333 19.7531 19.1356 19.4866C20.097 19.2539 20.8793 18.9173 21.5047 18.5004L21.5048 18.5005L21.5157 18.4928C22.1151 18.0697 22.55 17.5268 22.55 16.8187C22.55 16.6605 22.5262 16.5076 22.4819 16.3607L22.5765 16.6209L22.9865 16.5525C23.9705 16.3885 24.8214 16.1218 25.4569 15.7687C26.0451 15.4419 26.6 14.9663 26.6 14.2875V12.9269V11.9927L25.8227 12.5109C25.7725 12.5443 25.7208 12.5773 25.6676 12.6099C26.1693 12.2905 26.6 11.8649 26.6 11.25C26.6 10.6176 26.0982 10.1402 25.5309 9.80651L25.531 9.80638L25.5202 9.8004C24.8844 9.44719 24.0981 9.21342 23.1638 9.02011L23.1638 9.0201L23.1606 9.01945C22.1757 8.82248 21.1301 8.72498 20.025 8.72498C18.8902 8.72498 17.8437 8.82215 16.8879 9.01977C15.9276 9.21191 15.1353 9.44543 14.5245 9.80339C13.9023 10.1504 13.45 10.6287 13.45 11.25C13.45 11.9094 13.9117 12.355 14.5245 12.6966C15.1269 13.0498 15.9117 13.3165 16.8879 13.5118C17.8523 13.7112 18.9022 13.775 20.025 13.775C21.1184 13.775 22.1669 13.7109 23.1606 13.5121L23.1606 13.5122L23.1638 13.5115C23.2051 13.5029 23.2461 13.4943 23.2868 13.4854C22.6017 13.6449 21.8437 13.731 20.9912 13.7561L20.7823 14.703C21.6933 15.1586 22.1939 15.6545 22.4048 16.1547C22.2301 15.7647 21.9105 15.4233 21.5157 15.1446L21.5158 15.1445L21.5047 15.1371C20.8709 14.7145 20.0846 14.4126 19.1455 14.1535L19.1359 14.1509L19.1261 14.1486C18.141 13.9187 17.0904 13.7875 15.975 13.7875C14.8293 13.7875 13.7773 13.9184 12.8202 14.1495L12.8202 14.1493L12.8087 14.1524C11.8422 14.4101 11.049 14.7123 10.4398 15.1408C9.7818 15.5813 9.40002 16.1607 9.40002 16.8187C9.40002 17.3387 9.61706 17.7756 9.99938 18.1454L9.40002 17.6359V18.7172V20.3625ZM22.5625 19.0652V19.6588L23.1475 19.5579C24.1084 19.3923 24.8919 19.1236 25.5202 18.7746L25.5203 18.7747L25.5309 18.7684C26.0884 18.4405 26.6 17.9952 26.6 17.325V15.9644V14.9825L25.8059 15.5601C25.1952 16.0042 24.266 16.3644 22.9803 16.5787L22.5625 16.6483V17.0719V19.0652Z" fill="#98CCFD" stroke="#4788C7"/>
</svg>
