<svg width="24" height="24" viewBox="0 0 24 24" fill="none" xmlns="http://www.w3.org/2000/svg">
<mask id="mask0" mask-type="alpha" maskUnits="userSpaceOnUse" x="0" y="0" width="24" height="24">
<circle cx="12" cy="12" r="12" fill="#C4C4C4"/>
</mask>
<g mask="url(#mask0)">
</g>
<g clip-path="url(#clip0)">
<path d="M12.019 6.51525L10.5794 6.39148C10.1336 6.35316 9.74116 6.71253 9.7028 7.15836L9.34676 11.271L9.77581 13.8082L8.73663 16.5634C8.60955 16.9004 8.77966 17.2766 9.11664 17.4037C9.19241 17.4322 9.27019 17.4458 9.34666 17.4458C9.6102 17.4458 9.85839 17.2848 9.9569 17.0237L11.0569 14.1073C11.0967 14.0017 11.1084 13.8876 11.0909 13.7761L10.695 11.387L12.4008 11.5336L12.7569 7.42094C12.7952 6.97511 12.4648 6.55357 12.019 6.51525Z" fill="#414B82"/>
<path d="M14.4822 11.3333C14.3601 11.3333 14.2374 11.2923 14.1361 11.2082L12.291 9.67724C12.2477 9.64129 12.2102 9.5988 12.1799 9.5513L10.586 7.46777C10.425 7.21512 10.4993 6.87981 10.752 6.71884C11.0046 6.55782 11.3399 6.63219 11.5009 6.88485L13.0492 8.89667L14.8289 10.3734C15.0594 10.5647 15.0913 10.9067 14.9 11.1372C14.7927 11.2665 14.638 11.3333 14.4822 11.3333Z" fill="#FF9D7D"/>
<path d="M13.3157 17.4458C13.018 17.4458 12.7492 17.2406 12.6805 16.9381L11.9556 13.75L10.8165 11.2294C10.6682 10.9012 10.814 10.5149 11.1422 10.3666C11.4703 10.2183 11.8567 10.3641 12.0049 10.6923L13.1711 13.2728C13.1891 13.3127 13.2031 13.3542 13.2128 13.3968L13.9522 16.649C14.032 17.0002 13.8121 17.3496 13.4609 17.4294C13.4122 17.4405 13.3636 17.4458 13.3157 17.4458Z" fill="#343E6B"/>
<path d="M15.5015 14.2591C15.642 14.2956 15.6717 14.3013 15.8348 14.3109C16.019 14.3217 16.1316 14.4696 16.1224 14.6245C16.1128 14.7878 15.9727 14.9123 15.8094 14.9026C15.7753 14.9006 15.759 14.8953 15.6516 14.8688C14.8893 14.6802 14.3897 13.9537 14.2676 13.2315C14.2465 13.1065 14.4262 13.0599 14.4692 13.1782C14.6406 13.6487 14.9853 14.0891 15.5015 14.2591Z" fill="#792304"/>
<path d="M12.4008 11.5336L9.34677 11.271L9.70284 7.1293C9.74116 6.68347 10.1337 6.3531 10.5795 6.39146L12.019 6.51523C12.4649 6.55355 12.7952 6.94604 12.7569 7.39188L12.4008 11.5336Z" fill="#64AFFF"/>
<path d="M11.6463 6.04424C12.3087 6.04424 12.8457 5.50727 12.8457 4.84488C12.8457 4.18248 12.3087 3.64551 11.6463 3.64551C10.9839 3.64551 10.4469 4.18248 10.4469 4.84488C10.4469 5.50727 10.9839 6.04424 11.6463 6.04424Z" fill="#FFB69E"/>
<path d="M7.55144 10.3236C7.54443 10.2649 7.5469 10.2041 7.56025 10.1431L8.02348 8.02209C8.0623 7.8443 8.18754 7.69776 8.35708 7.6317L10.823 6.67101C11.1026 6.56205 11.4176 6.70045 11.5266 6.98011C11.6357 7.25967 11.4971 7.57475 11.2175 7.68371L9.02306 8.53862L8.62199 10.375C8.55794 10.6682 8.26839 10.854 7.97518 10.7899C7.74295 10.7392 7.57815 10.547 7.55144 10.3236Z" fill="#FFB69E"/>
<path d="M11.5266 6.98008C11.4176 6.70045 11.1026 6.56205 10.823 6.67101L9.49274 7.18924L9.86473 8.21072L11.2175 7.68368C11.4971 7.57472 11.6357 7.25964 11.5266 6.98008Z" fill="#78BEFF"/>
<path d="M20.4986 13.5559C20.4832 13.5361 20.4634 13.5204 20.442 13.5073L20.1556 13.3319C20.0921 13.078 19.8924 12.8807 19.6378 12.8202L19.5302 12.7946C19.5302 12.7946 19.1534 12.65 18.9802 12.8758C18.9341 12.9141 18.2993 13.7738 18.2993 13.7738L15.6069 14.1667C15.296 14.2121 15.0778 14.4967 15.1145 14.8088C15.1531 15.1367 15.1877 15.4344 15.1914 15.4909C15.5109 15.5667 18.3215 15.9139 18.59 15.9314L18.5908 15.9267C18.7913 15.8016 19.1123 14.9091 19.2821 14.4002C19.2927 14.3685 19.3065 14.3377 19.3262 14.3107C19.4253 14.1742 19.5941 14.1311 19.7362 14.1855C19.9469 14.2662 20.1849 14.2127 20.3266 14.0371L20.4982 13.8244C20.5587 13.7497 20.564 13.6399 20.4986 13.5559Z" fill="#80391B"/>
<path d="M18.9138 17.4459C18.7881 17.4459 18.6725 17.363 18.6365 17.236L18.1941 15.678C18.1506 15.5247 18.2395 15.3651 18.3929 15.3216C18.546 15.2781 18.7057 15.367 18.7492 15.5203L19.1916 17.0784C19.2351 17.2317 19.1462 17.3913 18.9928 17.4348C18.9665 17.4423 18.94 17.4459 18.9138 17.4459Z" fill="#80391B"/>
<path d="M16.2561 15.5498C16.3495 15.4032 16.4053 15.2187 16.4053 15.018C16.4053 14.5415 16.0916 14.1553 15.7048 14.1553C15.3593 14.1553 15.0723 14.4635 15.0149 14.8688V14.8688C15.0136 14.8779 15.0124 14.887 15.0114 14.8962C14.9951 15.0256 14.9317 15.588 14.9975 15.9977L14.4778 17.0384C14.4121 17.1836 14.4766 17.3545 14.6218 17.4201C14.6603 17.4376 14.7007 17.4459 14.7405 17.4459C14.8504 17.4459 14.9554 17.3827 15.0036 17.2761L15.4829 16.3249C15.7673 16.1674 16.1076 15.7884 16.2561 15.5498Z" fill="#AA4F20"/>
<path d="M19.3348 12.7521C19.3695 12.8503 19.4286 13.5106 19.2376 13.5781C19.0466 13.6456 18.6778 13.0946 18.6431 12.9964C18.6084 12.8982 18.7248 12.7347 18.9159 12.6673C19.1068 12.5997 19.3001 12.6538 19.3348 12.7521Z" fill="#AA4F20"/>
<path d="M19.2343 14.427C19.2157 14.427 19.197 14.4248 19.1782 14.4201C17.3856 13.9765 16.2151 13.1269 15.5488 12.4923C14.8199 11.7982 14.5196 11.209 14.5073 11.1843C14.4496 11.0695 14.4959 10.9298 14.6107 10.8722C14.7254 10.8146 14.8649 10.8608 14.9226 10.9753C14.9279 10.9856 15.2115 11.5335 15.8859 12.1712C16.5099 12.7614 17.6071 13.5523 19.2899 13.9687C19.4146 13.9996 19.4906 14.1256 19.4598 14.2502C19.4335 14.3562 19.3386 14.427 19.2343 14.427Z" fill="#343E6B"/>
<path d="M9.29183 13.4636C9.28081 13.4 9.24296 13.3442 9.18791 13.3105L8.88545 13.1254C8.81879 12.8587 8.60909 12.6514 8.34165 12.5879L8.22862 12.5611C8.22862 12.5611 7.83286 12.4092 7.651 12.6463C7.60263 12.6866 7.09631 13.5732 7.09631 13.5732C7.09631 13.5732 6.77042 14.0132 5.41607 14.9093C4.32726 15.8873 4.49075 16.212 4.4795 16.5537H5.08904C5.68808 16.1805 7.13821 16.2104 7.24125 15.8554L7.24209 15.8505C7.45259 15.7191 7.7897 14.7819 7.96808 14.2475C8 14.1518 8.07013 14.0737 8.16169 14.0315C8.25325 13.9893 8.3584 13.9866 8.4518 14.0246C8.66881 14.1128 8.91796 14.0484 9.06504 13.8661L9.24526 13.6426C9.28589 13.5924 9.30278 13.5272 9.29183 13.4636Z" fill="#80391B"/>
<path d="M7.50264 17.4459C7.36314 17.4459 7.23763 17.349 7.20682 17.2071L6.85138 15.5708C6.81589 15.4072 6.91964 15.2459 7.08314 15.2103C7.24691 15.1748 7.40807 15.2786 7.44362 15.4421L7.79906 17.0785C7.83454 17.242 7.73079 17.4034 7.56729 17.4389C7.54556 17.4436 7.52397 17.4459 7.50264 17.4459Z" fill="#80391B"/>
<path d="M8.02343 12.5164C8.05985 12.6195 8.12193 13.313 7.92132 13.3839C7.72073 13.4548 7.33342 12.8761 7.29696 12.773C7.26051 12.6698 7.38279 12.4981 7.58337 12.4272C7.78402 12.3564 7.98701 12.4132 8.02343 12.5164Z" fill="#AA4F20"/>
<path d="M4.79081 16.3386C4.91252 16.3591 5.0186 16.3627 5.01036 16.3622C5.17125 16.3717 5.29396 16.5098 5.28451 16.6707C5.274 16.8487 5.10576 16.9806 4.9233 16.9369C4.33236 16.7953 3.92822 16.4502 3.68147 15.9641C3.51554 15.644 3.47702 15.3792 3.45645 15.2979C3.43562 15.1746 3.61271 15.1288 3.65514 15.2453C3.84243 15.7595 4.23269 16.223 4.79081 16.3386Z" fill="#792304"/>
<path d="M6.48026 16.8261H6.15303C6.17707 16.7473 6.19005 16.6635 6.19005 16.5768C6.19005 16.1044 5.80711 15.7214 5.33467 15.7214C4.86224 15.7214 4.47929 16.1044 4.47929 16.5768C4.47929 17.0246 4.82345 17.3918 5.26164 17.4289C5.27556 17.4309 5.28964 17.4322 5.3041 17.4322H6.48026C6.64764 17.4322 6.78329 17.2966 6.78329 17.1292C6.78329 16.9618 6.64757 16.8261 6.48026 16.8261Z" fill="#AA4F20"/>
<path d="M7.99141 14.4264C7.96154 14.4264 7.93113 14.4206 7.90185 14.4083C7.28588 14.1509 6.89933 13.7436 6.75296 13.198C6.39365 11.8591 7.65467 10.1813 7.70854 10.1105C7.78632 10.0083 7.9322 9.98856 8.03437 10.0663C8.13655 10.144 8.15635 10.2899 8.07857 10.3921C8.06228 10.4136 6.90203 11.9623 7.20223 13.0783C7.31105 13.4828 7.59856 13.7776 8.08121 13.9794C8.19971 14.0289 8.25559 14.165 8.20605 14.2835C8.1687 14.3727 8.08234 14.4264 7.99141 14.4264Z" fill="#FF3C3C"/>
</g>
<circle cx="11.8907" cy="11.3999" r="10.3" stroke="url(#paint0_linear)"/>
<defs>
<linearGradient id="paint0_linear" x1="11.8907" y1="0.599854" x2="11.8907" y2="22.1999" gradientUnits="userSpaceOnUse">
<stop stop-color="#1AAAFF"/>
<stop offset="1" stop-color="#5EEDFD"/>
</linearGradient>
<clipPath id="clip0">
<rect width="17.0909" height="17.0909" fill="white" transform="translate(3.45474 2.00024)"/>
</clipPath>
</defs>
</svg>
