<svg width="22" height="22" viewBox="0 0 22 22" fill="none" xmlns="http://www.w3.org/2000/svg">
<mask id="mask0" mask-type="alpha" maskUnits="userSpaceOnUse" x="0" y="0" width="22" height="22">
<circle cx="11" cy="11" r="11" fill="#C4C4C4"/>
</mask>
<g mask="url(#mask0)">
</g>
<g clip-path="url(#clip0)">
<path d="M13.4235 11.5507C13.1915 11.5507 12.9594 11.458 12.7828 11.2725C12.4295 10.9015 12.4295 10.2979 12.7828 9.92692C13.1361 9.55594 13.711 9.55594 14.0643 9.92692C14.4176 10.2979 14.4176 10.9015 14.0643 11.2725C13.8876 11.458 13.6556 11.5507 13.4235 11.5507ZM13.4235 9.98061C13.2724 9.98061 13.1214 10.041 13.0064 10.1617C12.7764 10.4032 12.7764 10.7962 13.0064 11.0377C13.2364 11.2792 13.6106 11.2792 13.8406 11.0377C14.0706 10.7962 14.0706 10.4032 13.8406 10.1617C13.7257 10.041 13.5746 9.98061 13.4235 9.98061Z" fill="#46738C"/>
<path d="M17.3606 11.808C17.3249 11.7863 17.2802 11.7892 17.2474 11.8155L16.7447 12.2184L15.5192 12.0684L15.8931 11.6758C16.0114 11.5516 16.0114 11.3501 15.8931 11.2259L14.5453 9.8107C14.427 9.68647 14.2352 9.68647 14.1168 9.8107L12.2986 11.7199C12.1802 11.8441 12.1802 12.0455 12.2986 12.1698L13.6464 13.585C13.7647 13.7092 13.9565 13.7092 14.0748 13.585L14.6063 13.0269L16.6287 12.7142L17.0571 13.3035C17.0821 13.3379 17.1245 13.3531 17.1644 13.342C17.2043 13.3309 17.2339 13.2956 17.2394 13.2527L17.4104 11.9149C17.416 11.872 17.3962 11.8298 17.3606 11.808Z" fill="#6C9BAA"/>
<path d="M9.62353 2.93335C10.335 2.93335 10.9118 3.53897 10.9118 4.28602C10.9118 5.03304 10.335 5.63867 9.62353 5.63867C8.91208 5.63867 8.3353 5.03304 8.3353 4.28602C8.33527 3.53897 8.91205 2.93335 9.62353 2.93335Z" fill="#FFB69E"/>
<path d="M7.18101 18.2761C7.09358 18.2761 7.00464 18.2598 6.91801 18.2255C6.53252 18.0729 6.33785 17.6211 6.48317 17.2164L7.69629 13.8375L7.82909 11.6525C7.85536 11.2209 8.20919 10.8933 8.62098 10.9208C9.03207 10.9483 9.34408 11.3206 9.31784 11.7523L9.17797 14.054C9.17324 14.1315 9.1576 14.2078 9.13153 14.2804L7.87908 17.7689C7.76641 18.0827 7.48248 18.2761 7.18101 18.2761Z" fill="#414B82"/>
<path d="M10.579 18.2759C10.167 18.2759 9.83307 17.9252 9.83307 17.4927V14.0594L9.5027 11.6184C9.44495 11.1902 9.72883 10.7938 10.1367 10.7332C10.5441 10.6725 10.922 10.9706 10.9798 11.3988L11.3175 13.8944C11.3224 13.9308 11.3249 13.9675 11.3249 14.0042V17.4927C11.3249 17.9252 10.9909 18.2759 10.579 18.2759Z" fill="#343E6B"/>
<path d="M11.0225 11.6979H7.82724V7.00969C7.82724 6.50501 8.18417 6.09595 8.62443 6.09595H10.2252C10.6655 6.09595 11.0224 6.50507 11.0224 7.00969V11.6979H11.0225Z" fill="#64AFFF"/>
<path d="M13.0574 10.5575C12.9919 10.5751 12.9226 10.5816 12.8515 10.5753L10.3769 10.356C10.1694 10.3376 9.98459 10.2114 9.88433 10.0199L8.48593 7.37531C8.32064 7.0594 8.43058 6.66258 8.73148 6.48903C9.03226 6.3153 9.41027 6.43092 9.57556 6.74686L10.8135 9.08474L12.956 9.27462C13.2981 9.30494 13.552 9.62067 13.5231 9.97987C13.5002 10.2644 13.3068 10.4907 13.0574 10.5575Z" fill="#FFB69E"/>
<path d="M9.26657 8.85151L10.3804 8.26667L9.5756 6.74685C9.41031 6.43094 9.03233 6.31529 8.73152 6.48902C8.43065 6.66257 8.32068 7.05936 8.48597 7.37528L9.26657 8.85151Z" fill="#78BEFF"/>
<path d="M17.0031 15.837C17.0556 15.7385 17.0361 15.7732 17.0937 15.6747C17.4039 15.123 17.8099 14.7676 18.3468 14.4895C18.4584 14.4317 18.5619 14.5936 18.4502 14.6812C17.9336 15.0865 17.6807 15.4824 17.4945 16.0671C17.3665 16.4617 17.2834 17.034 17.3276 17.6081C17.3298 17.6344 17.3358 17.7035 17.3409 17.7294C17.3854 17.9224 17.2467 18.2126 16.9701 18.2522C16.7321 18.2863 16.5129 18.1114 16.4804 17.8615C16.4571 17.683 16.5572 16.6682 17.0031 15.837Z" fill="#82BE50"/>
<path d="M16.6192 15.6544C17.0029 16.2772 17.1485 16.7843 17.2559 17.5793C17.283 17.7797 17.1502 17.9652 16.9594 17.9936C16.7686 18.022 16.5919 17.8826 16.5648 17.6823C16.5582 17.6333 16.5634 17.5859 16.5631 17.591C16.5766 17.3622 16.6098 16.9821 16.5236 16.4713C16.4238 15.9193 16.1979 15.4272 16.0111 15.2284C15.9382 15.1507 16.034 15.0277 16.1209 15.0869C16.284 15.198 16.4973 15.4779 16.6192 15.6544Z" fill="#256E1B"/>
<path d="M17.9459 17.8916C17.9459 17.8894 17.9462 17.8873 17.9462 17.8851C17.9462 17.6367 17.7544 17.4354 17.5179 17.4354C17.3665 17.4354 17.2338 17.5181 17.1576 17.6425C17.1296 17.6326 17.0999 17.6268 17.0691 17.6253C16.9952 17.3187 16.7308 17.0918 16.4159 17.0918C16.0732 17.0918 15.7904 17.3606 15.7479 17.7084C15.6884 17.6886 15.6251 17.6779 15.5593 17.6779C15.2143 17.6779 14.9345 17.9713 14.9338 18.3334H18.3885C18.3455 18.104 18.1681 17.9255 17.9459 17.8916Z" fill="#C8462D"/>
</g>
<circle cx="11" cy="11" r="10.5" stroke="url(#paint0_linear)"/>
<defs>
<linearGradient id="paint0_linear" x1="11" y1="0" x2="11" y2="22" gradientUnits="userSpaceOnUse">
<stop stop-color="#1AAAFF"/>
<stop offset="1" stop-color="#5EEDFD"/>
</linearGradient>
<clipPath id="clip0">
<rect width="14.6667" height="15.4" fill="white" transform="translate(5.1333 2.93335)"/>
</clipPath>
</defs>
</svg>
