<svg width="24" height="24" viewBox="0 0 24 24" fill="none" xmlns="http://www.w3.org/2000/svg">
<mask id="mask0" mask-type="alpha" maskUnits="userSpaceOnUse" x="0" y="0" width="24" height="24">
<circle cx="12" cy="12" r="12" fill="#C4C4C4"/>
</mask>
<g mask="url(#mask0)">
</g>
<g clip-path="url(#clip0)">
<path d="M19.3528 18.3824H15.8833C15.769 18.3824 15.6764 18.2898 15.6764 18.1755C15.6764 18.0612 15.769 17.9685 15.8833 17.9685H19.3528C19.4671 17.9685 19.5598 18.0612 19.5598 18.1755C19.5598 18.2898 19.4671 18.3824 19.3528 18.3824Z" fill="#3C5064"/>
<path d="M17.5152 15.2037H14.015L13.2688 11.4077C13.2342 11.2317 13.0799 11.1047 12.9005 11.1047H11.7758C11.5685 11.1047 11.4005 11.2728 11.4005 11.4801C11.4005 11.6874 11.5685 11.8555 11.7758 11.8555H12.5917L13.3379 15.6515C13.3725 15.8275 13.5268 15.9544 13.7062 15.9544H17.5151L17.5152 15.2037Z" fill="#3C5064"/>
<path d="M15.2159 10.2132C15.8461 10.2132 16.357 9.70226 16.357 9.07203C16.357 8.44181 15.8461 7.93091 15.2159 7.93091C14.5857 7.93091 14.0748 8.44181 14.0748 9.07203C14.0748 9.70226 14.5857 10.2132 15.2159 10.2132Z" fill="#FFB69E"/>
<path d="M19.1076 17.1137L18.0121 14.4201C17.9167 14.1854 17.6885 14.0318 17.4347 14.0335L16.5755 14.0373L16.1372 11.2937C16.1008 11.0657 15.9748 10.8616 15.7872 10.727C15.5996 10.5923 15.366 10.5381 15.1383 10.5765L14.7734 10.638C14.4344 10.6952 14.1323 10.8855 13.9344 11.1666C13.7365 11.4477 13.6592 11.7963 13.7197 12.1347L14.1615 14.6055C14.202 14.8322 14.3312 15.0335 14.5205 15.1647C14.7098 15.2959 14.9436 15.3463 15.1701 15.3047L15.4024 15.2621C15.4529 15.2754 15.506 15.2826 15.5607 15.2826C15.5616 15.2826 15.5625 15.2826 15.5635 15.2826L17.0208 15.2762L17.9582 17.5812C18.0562 17.822 18.2882 17.968 18.5331 17.968C18.611 17.968 18.6901 17.9533 18.7667 17.9221C19.084 17.793 19.2367 17.4311 19.1076 17.1137Z" fill="#50374B"/>
<path d="M16.0369 15.2804L15.1157 15.3774C14.6642 15.4249 14.2527 15.1156 14.1728 14.6688L13.7197 12.1347C13.6592 11.7963 13.7365 11.4477 13.9344 11.1666C14.1324 10.8855 14.4344 10.6952 14.7734 10.638L15.1383 10.5765C15.366 10.5381 15.5996 10.5923 15.7872 10.7269C15.9748 10.8616 16.1007 11.0656 16.1372 11.2936L16.5755 14.0372L16.0369 15.2804Z" fill="#FF3C3C"/>
<path d="M7.20428 13.2039L7.20348 15.1452L5.90684 18.0588C5.75449 18.4285 5.93075 18.8517 6.30046 19.004C6.39071 19.0412 6.4841 19.0588 6.57598 19.0588C6.8606 19.0588 7.13055 18.8899 7.24567 18.6104L8.59782 15.5534C8.62997 15.4753 8.64826 15.3922 8.65178 15.3079L8.65121 13.2039H7.20428V13.2039Z" fill="#414B82"/>
<path d="M10.9507 14.9444C10.9472 14.8707 10.9326 14.798 10.9072 14.7288L10.3479 13.2039H8.80554L9.5094 15.1229L9.66045 18.3685C9.67851 18.7565 9.99873 19.0589 10.3831 19.0589C10.3944 19.0589 10.4059 19.0587 10.4173 19.0581C10.8167 19.0395 11.1255 18.7006 11.1069 18.3012L10.9507 14.9444Z" fill="#343E6B"/>
<path d="M10.4 13.3431H7.20419V8.64231C7.20419 8.17579 7.58237 7.79761 8.0489 7.79761H9.55527C10.0218 7.79761 10.4 8.17579 10.4 8.64231L10.4 13.3431Z" fill="#64AFFF"/>
<path d="M8.71903 7.44202C9.40962 7.44202 9.96945 6.88218 9.96945 6.19159C9.96945 5.501 9.40962 4.94116 8.71903 4.94116C8.02843 4.94116 7.4686 5.501 7.4686 6.19159C7.4686 6.88218 8.02843 7.44202 8.71903 7.44202Z" fill="#FFB69E"/>
<path d="M11.9229 11.6656L9.72866 11.4799C9.52676 11.4881 9.33421 11.3947 9.21562 11.2311L8.02789 8.93777C7.83234 8.66796 7.89253 8.29072 8.16234 8.09516C8.43205 7.89944 8.80937 7.9598 9.00495 8.22962L10.0028 10.2611L11.8739 10.4599C12.2069 10.4464 12.4877 10.7053 12.5013 11.0382C12.5148 11.3707 12.2562 11.6521 11.9229 11.6656Z" fill="#FFB69E"/>
<path d="M9.59341 9.42203L9.00495 8.22962C8.8094 7.9598 8.43205 7.89944 8.16234 8.09516C7.89253 8.29072 7.83234 8.66796 8.02789 8.93777L8.58867 10.0234L9.65159 9.53982L9.59341 9.42203Z" fill="#78BEFF"/>
<path d="M17.4945 12.7798L15.8996 12.774L15.4333 11.3215C15.3461 11.0497 15.0551 10.9 14.7831 10.9873C14.5112 11.0746 14.3615 11.3657 14.4488 11.6376L15.0298 13.4477C15.1003 13.6671 15.3033 13.8069 15.522 13.8069C15.528 13.8069 15.5341 13.8064 15.5401 13.8062C15.5435 13.8063 15.5469 13.8068 15.5503 13.8068L17.4908 13.8138C17.4914 13.8138 17.492 13.8138 17.4927 13.8138C17.7773 13.8138 18.0086 13.5835 18.0096 13.2986C18.0107 13.0131 17.78 12.7808 17.4945 12.7798Z" fill="#FFB69E"/>
<path d="M14.7591 12.6044L15.7614 12.3436L15.4334 11.3215C15.3461 11.0497 15.0551 10.9 14.7831 10.9873C14.5112 11.0746 14.3616 11.3657 14.4488 11.6376L14.7591 12.6044Z" fill="#FF4F38"/>
<path d="M14.7335 18.9345C13.5384 18.9345 12.5662 17.9622 12.5662 16.7672C12.5662 15.5721 13.5384 14.5999 14.7335 14.5999C15.9286 14.5999 16.9008 15.5721 16.9008 16.7672C16.9008 17.9623 15.9286 18.9345 14.7335 18.9345Z" fill="#BCE7EC"/>
<path d="M14.7335 14.5999V18.9345C15.9286 18.9345 16.9008 17.9622 16.9008 16.7671C16.9008 15.5721 15.9286 14.5999 14.7335 14.5999Z" fill="#A5C8CD"/>
<path d="M14.7335 14.8498C15.7925 14.8498 16.6511 15.7083 16.6511 16.7674C16.6511 17.8265 15.7925 18.685 14.7335 18.685C13.6744 18.685 12.8159 17.8265 12.8159 16.7674C12.8159 15.7083 13.6744 14.8498 14.7335 14.8498ZM14.7335 14.4758C13.4699 14.4758 12.442 15.5038 12.442 16.7673C12.442 18.0309 13.4699 19.0589 14.7335 19.0589C15.997 19.0589 17.025 18.0309 17.025 16.7673C17.025 15.5038 15.997 14.4758 14.7335 14.4758Z" fill="#46738C"/>
<path d="M14.7335 17.3163C15.0468 17.3163 15.3007 17.0623 15.3007 16.7491C15.3007 16.4358 15.0468 16.1819 14.7335 16.1819C14.4203 16.1819 14.1663 16.4358 14.1663 16.7491C14.1663 17.0623 14.4203 17.3163 14.7335 17.3163Z" fill="#81888D"/>
</g>
<circle cx="11.8907" cy="12.1059" r="10.3" stroke="url(#paint0_linear)"/>
<defs>
<linearGradient id="paint0_linear" x1="11.8907" y1="1.30591" x2="11.8907" y2="22.9059" gradientUnits="userSpaceOnUse">
<stop stop-color="#1AAAFF"/>
<stop offset="1" stop-color="#5EEDFD"/>
</linearGradient>
<clipPath id="clip0">
<rect width="14.1176" height="14.1176" fill="white" transform="translate(5.64709 4.94116)"/>
</clipPath>
</defs>
</svg>
