<svg width="14" height="10" viewBox="0 0 14 10" fill="none" xmlns="http://www.w3.org/2000/svg">
<path d="M13.9073 4.60429C12.3852 1.54141 10.0843 0 7 0C3.91404 0 1.61482 1.54141 0.0927157 4.60583C0.0316634 4.72932 0 4.8642 0 5.00077C0 5.13734 0.0316634 5.27221 0.0927157 5.39571C1.61482 8.45859 3.91564 10 7 10C10.086 10 12.3852 8.45859 13.9073 5.39417C14.0309 5.14571 14.0309 4.85736 13.9073 4.60429ZM7 8.89571C4.41017 8.89571 2.51396 7.6411 1.17649 5C2.51396 2.3589 4.41017 1.10429 7 1.10429C9.58982 1.10429 11.486 2.3589 12.8235 5C11.4876 7.6411 9.59143 8.89571 7 8.89571ZM6.93577 2.30061C5.37513 2.30061 4.10992 3.5092 4.10992 5C4.10992 6.4908 5.37513 7.69939 6.93577 7.69939C8.49641 7.69939 9.76162 6.4908 9.76162 5C9.76162 3.5092 8.49641 2.30061 6.93577 2.30061ZM6.93577 6.71779C5.94191 6.71779 5.1375 5.94939 5.1375 5C5.1375 4.05061 5.94191 3.28221 6.93577 3.28221C7.92964 3.28221 8.73404 4.05061 8.73404 5C8.73404 5.94939 7.92964 6.71779 6.93577 6.71779Z" fill="#4F4F4F"/>
</svg>
