<svg width="20" height="18" viewBox="0 0 20 18" fill="none" xmlns="http://www.w3.org/2000/svg">
<path fill-rule="evenodd" clip-rule="evenodd" d="M4.23608 5.11879C4.23608 2.65129 6.17876 0.643219 8.56706 0.643219C10.9554 0.643219 12.898 2.65108 12.898 5.11879C12.898 7.5865 10.9554 9.59436 8.56706 9.59436C6.17876 9.59436 4.23608 7.5865 4.23608 5.11879ZM4.90733 5.11879C4.90733 7.20394 6.54919 8.90053 8.56706 8.90053C10.5847 8.90053 12.2266 7.20394 12.2266 5.11879C12.2266 3.03364 10.5847 1.33727 8.56706 1.33727C6.54919 1.33727 4.90733 3.03364 4.90733 5.11879Z" fill="white"/>
<path fill-rule="evenodd" clip-rule="evenodd" d="M0.574951 15.862C0.574951 14.5638 2.01067 11.194 8.5665 11.194C15.1223 11.194 16.5576 14.5638 16.5578 15.862C16.5578 17.1069 15.5642 17.8515 14.6038 17.8515H2.52902C1.56835 17.8515 0.574951 17.1069 0.574951 15.862ZM2.52902 17.1574H14.6038C15.2255 17.1574 15.8862 16.7036 15.8864 15.862C15.8864 14.831 14.5416 11.8878 8.5665 11.8878C2.59117 11.8878 1.2464 14.831 1.2464 15.862C1.2464 16.7036 1.90708 17.1574 2.52902 17.1574Z" fill="white"/>
<path d="M18.8841 7.06575H16.8919V5.00736C16.8919 4.81555 16.7417 4.66034 16.556 4.66034C16.3704 4.66034 16.2204 4.81555 16.2204 5.00736V7.06575H14.2284C14.0428 7.06575 13.8928 7.22096 13.8928 7.41256C13.8928 7.60417 14.043 7.75959 14.2284 7.75959H16.2204V9.81776C16.2204 10.0096 16.3706 10.1648 16.556 10.1648C16.7417 10.1648 16.8919 10.0094 16.8919 9.81776V7.75959H18.8841C19.0697 7.75959 19.2197 7.60417 19.2197 7.41256C19.2197 7.22096 19.0695 7.06575 18.8841 7.06575Z" fill="white"/>
</svg>
