<svg width="29" height="27" viewBox="0 0 29 27" fill="none" xmlns="http://www.w3.org/2000/svg">
<path fill-rule="evenodd" clip-rule="evenodd" d="M5.55021 6.85657C5.55021 3.11574 8.49539 0.0714111 12.1162 0.0714111C15.7369 0.0714111 18.6821 3.11541 18.6821 6.85657C18.6821 10.5977 15.7369 13.6417 12.1162 13.6417C8.49539 13.6417 5.55021 10.5977 5.55021 6.85657ZM6.56785 6.85657C6.56785 10.0177 9.05697 12.5898 12.1162 12.5898C15.175 12.5898 17.6642 10.0177 17.6642 6.85657C17.6642 3.69539 15.175 1.12362 12.1162 1.12362C9.05697 1.12362 6.56785 3.69539 6.56785 6.85657Z" fill="#20AFFF"/>
<path fill-rule="evenodd" clip-rule="evenodd" d="M0 23.1437C0 21.1756 2.17661 16.0668 12.1155 16.0668C22.0544 16.0668 24.2304 21.1756 24.2307 23.1437C24.2307 25.031 22.7244 26.1598 21.2683 26.1598H2.96245C1.50604 26.1598 0 25.031 0 23.1437ZM2.96245 25.1076H21.2683C22.2109 25.1076 23.2125 24.4196 23.2128 23.1437C23.2128 21.5807 21.1741 17.1187 12.1155 17.1187C3.05668 17.1187 1.01795 21.5807 1.01795 23.1437C1.01795 24.4196 2.01957 25.1076 2.96245 25.1076Z" fill="#20AFFF"/>
<path d="M27.7575 9.80827H24.7373V6.68767C24.7373 6.39686 24.5096 6.16156 24.2281 6.16156C23.9467 6.16156 23.7193 6.39686 23.7193 6.68767V9.80827H20.6994C20.418 9.80827 20.1906 10.0436 20.1906 10.3341C20.1906 10.6245 20.4183 10.8602 20.6994 10.8602H23.7193V13.9804C23.7193 14.2712 23.947 14.5065 24.2281 14.5065C24.5096 14.5065 24.7373 14.2709 24.7373 13.9804V10.8602H27.7575C28.0389 10.8602 28.2663 10.6245 28.2663 10.3341C28.2663 10.0436 28.0386 9.80827 27.7575 9.80827Z" fill="#20AFFF"/>
</svg>
