<svg width="17" height="14" viewBox="0 0 17 14" fill="none" xmlns="http://www.w3.org/2000/svg">
<path d="M6.00483 3.0856V3.0571L5.24758 3.51145L3.72251 4.42649C3.39974 4.62015 3.18224 4.87632 3.01137 5.16109C2.81356 5.49077 2.75242 5.8196 2.75242 6.14568V6.96227L1.13476 7.91265C0.813485 8.07969 0.615656 8.36664 0.538391 8.6757L0.538223 8.67565L0.535369 8.6885C0.465609 9.00242 0.495297 9.32038 0.659727 9.60814L0.660499 9.60948L2.53117 12.8598C2.70067 13.1874 2.99347 13.3846 3.32524 13.46C3.63669 13.5362 3.94405 13.4915 4.22683 13.3501L4.2411 13.343L4.25489 13.335L6.55489 11.9952H9.63426C10.1672 11.9952 10.6459 11.8006 11.0436 11.4029C11.2972 11.1494 11.4832 10.8436 11.5738 10.492C11.8648 10.4774 12.1564 10.3605 12.381 10.1359C12.5989 9.91808 12.7621 9.60839 12.7621 9.24275V8.19563C12.918 8.14861 13.0694 8.06321 13.2022 7.93046C13.3257 7.80694 13.427 7.64217 13.4777 7.44997L14.0129 7.14224L15.8888 6.06363C15.889 6.0635 15.8892 6.06338 15.8894 6.06326C16.1645 5.90588 16.375 5.654 16.4558 5.29879C16.5217 5.03103 16.5294 4.71692 16.3695 4.397L16.3629 4.3839L16.3556 4.3712L14.4786 1.10989L14.4664 1.08864L14.4521 1.06868C14.2722 0.816862 14.0107 0.624103 13.6973 0.545752L13.6973 0.545584L13.6845 0.54273C13.42 0.483966 13.0853 0.460497 12.7648 0.643627L12.7648 0.643612L12.7612 0.645707L10.4612 1.98551H8.17957C7.79074 1.98551 7.42128 2.11338 7.1246 2.29139L7.12451 2.29124L7.11341 2.2983L6.34408 2.78787C6.20781 2.87059 6.09447 2.97082 6.00483 3.0856Z" fill="#98CCFD" stroke="#4788C7"/>
</svg>
