<svg width="17" height="17" viewBox="0 0 17 17" fill="none" xmlns="http://www.w3.org/2000/svg">
<path d="M0.5 11.3125C0.5 11.6219 0.606367 11.881 0.782012 12.1023L0.5 11.9049V12.8652V14.125C0.5 14.7562 0.942866 15.1785 1.51351 15.4966C2.0761 15.8264 2.80695 16.0743 3.71294 16.2556C4.60932 16.4409 5.58425 16.5 6.625 16.5C7.63868 16.5 8.61217 16.4406 9.53556 16.2559L9.53556 16.2559L9.5388 16.2553C10.4208 16.0728 11.1464 15.8244 11.7311 15.4996L11.7312 15.4997L11.7418 15.4935C12.2595 15.189 12.75 14.7671 12.75 14.125V12.8652V11.9049L12.4429 12.1199C12.6286 11.8968 12.75 11.6319 12.75 11.3125V10.6941L13.2725 10.6041C14.1654 10.4501 14.895 10.2002 15.4811 9.87458L15.4812 9.87471L15.4918 9.86847C16.0095 9.56396 16.5 9.14206 16.5 8.5V7.24023V6.25835L16.2055 6.47256C16.3843 6.2509 16.5 5.99105 16.5 5.6875V4.42773V3.49348L16.1612 3.71935C16.3647 3.4887 16.5 3.21221 16.5 2.875C16.5 2.26837 16.0192 1.8168 15.4918 1.50653L15.4919 1.5064L15.4811 1.50042C14.8875 1.17066 14.1551 0.953286 13.2888 0.774042L13.2888 0.774031L13.2856 0.773382C12.371 0.590475 11.4004 0.5 10.375 0.5C9.32218 0.5 8.3507 0.590144 7.46284 0.773703C6.57287 0.95178 5.83447 1.1689 5.26353 1.50341C4.68342 1.82699 4.25 2.27955 4.25 2.875C4.25 3.50624 4.69288 3.92847 5.26353 4.24659C5.82609 4.57637 6.55689 4.82428 7.46281 5.00559C8.35922 5.19088 9.3342 5.25 10.375 5.25C10.6708 5.25 10.9633 5.24494 11.252 5.23318L11.0702 6.05728C10.6273 5.85151 10.1272 5.68136 9.57046 5.52777L9.56084 5.52511L9.55112 5.52284C8.63631 5.30939 7.6607 5.1875 6.625 5.1875C5.56129 5.1875 4.58435 5.3091 3.69518 5.52372L3.69515 5.52359L3.68367 5.52665C2.78749 5.76563 2.04814 6.04671 1.4788 6.44707C0.862991 6.85943 0.5 7.40603 0.5 8.03125C0.5 8.3723 0.598561 8.67494 0.77799 8.94413L0.5 8.70784V9.78906V11.3125ZM12.6875 8.47094V8.76097L12.4448 8.96729C12.552 8.81434 12.6352 8.64926 12.6875 8.47094Z" fill="#98CCFD" stroke="#4788C7"/>
</svg>
