<svg width="17" height="16" viewBox="0 0 17 16" fill="none" xmlns="http://www.w3.org/2000/svg">
<path d="M1.4375 8.99968V9.4375V13.1875C1.4375 13.5664 1.56648 13.9337 1.84762 14.2149C2.12875 14.496 2.49605 14.625 2.875 14.625H7.5625H8.0625V14.125V9.4375V9H8.9375V9.4375V14.125V14.625H9.4375H14.125C14.4831 14.625 14.8474 14.4906 15.1231 14.2149C15.376 13.962 15.5625 13.6056 15.5625 13.1875V9.4375V8.99958C15.7534 8.99439 16.0036 8.9398 16.2071 8.73637C16.3784 8.565 16.5 8.32423 16.5 8.03125V5.6875C16.5 5.29051 16.3065 4.93537 16.0606 4.68941C15.8146 4.44346 15.4595 4.25 15.0625 4.25H14.5413C14.5938 4.03637 14.625 3.81295 14.625 3.57812C14.625 2.72996 14.2998 2.02512 13.7268 1.41841L13.717 1.40802L13.7066 1.39821C13.0999 0.825208 12.395 0.5 11.5469 0.5C10.8555 0.5 10.2312 0.708933 9.68453 1.084C9.30225 1.33947 8.92064 1.71359 8.52725 2.18665C8.12333 1.70923 7.73456 1.34132 7.38437 1.09118L7.38442 1.09111L7.37701 1.08603C6.82961 0.709685 6.20435 0.5 5.51172 0.5C4.67143 0.5 3.9303 0.819621 3.34176 1.40817C2.72083 2.02909 2.43359 2.74213 2.43359 3.57812C2.43359 3.79982 2.45554 4.02645 2.50483 4.25H1.9375C1.51936 4.25 1.16299 4.43654 0.910119 4.68941C0.634439 4.96509 0.5 5.32944 0.5 5.6875V8.03125C0.5 8.2386 0.541175 8.51391 0.763634 8.73637C0.975091 8.94782 1.2343 8.99548 1.4375 8.99968ZM10.5971 3.47653L10.5971 3.47655L10.6002 3.47315C10.8395 3.20723 11.0191 3.05807 11.1666 2.97988C11.2706 2.94041 11.4033 2.90625 11.5469 2.90625C11.7256 2.90625 11.865 2.96273 12.0136 3.11137C12.1623 3.26 12.2188 3.39941 12.2188 3.57812C12.2188 3.79291 12.1572 3.93058 12.0136 4.07418C11.8882 4.19958 11.7597 4.25 11.5469 4.25H9.98191C10.2172 3.92593 10.4239 3.66542 10.5971 3.47653ZM6.46038 3.47611C6.62121 3.67031 6.82094 3.93109 7.05536 4.25H5.51172C5.26275 4.25 5.13698 4.1955 5.01566 4.07418C4.89434 3.95286 4.83984 3.8271 4.83984 3.57812C4.83984 3.36529 4.89026 3.23676 5.01566 3.11137C5.15926 2.96777 5.29694 2.90625 5.51172 2.90625C5.64216 2.90625 5.74183 2.93289 5.88807 2.98075C6.02365 3.06647 6.20375 3.22052 6.46038 3.47611Z" fill="#98CCFD" stroke="#4889C8"/>
</svg>
