<svg width="18" height="18" viewBox="0 0 18 18" fill="none" xmlns="http://www.w3.org/2000/svg">
<circle cx="9" cy="9" r="8.5" fill="white" stroke="url(#paint0_linear)"/>
<path fill-rule="evenodd" clip-rule="evenodd" d="M13.5016 4.80005H4.4984C3.67227 4.80005 3 5.4735 3 6.30122V12.0989C3 12.9266 3.67227 13.6 4.4984 13.6H13.5015C14.3277 13.6 15 12.9266 15 12.0989V6.30122C15 5.4735 14.3277 4.80005 13.5016 4.80005ZM4.4984 5.2252H13.5015C13.7129 5.2252 13.9096 5.28744 14.0759 5.39362L9.78947 9.44915C9.354 9.86094 8.64587 9.86094 8.21067 9.44915L3.92413 5.39362C4.0904 5.28744 4.28707 5.2252 4.4984 5.2252ZM13.5015 13.1748C14.0939 13.1748 14.5755 12.692 14.5755 12.0989H14.5753V6.30122C14.5753 6.07322 14.5039 5.86232 14.3828 5.68801L10.0805 9.75823C9.7828 10.0402 9.3912 10.1812 8.99987 10.1812C8.60853 10.1812 8.21707 10.0402 7.91933 9.75823L3.61693 5.68801C3.49587 5.86218 3.4244 6.07322 3.4244 6.30122V12.0989C3.4244 12.6922 3.90627 13.1748 4.4984 13.1748H13.5015Z" fill="#1AAAFF"/>
<defs>
<linearGradient id="paint0_linear" x1="9" y1="0" x2="9" y2="18" gradientUnits="userSpaceOnUse">
<stop stop-color="#1AAAFF"/>
<stop offset="1" stop-color="#5EEDFD"/>
</linearGradient>
</defs>
</svg>
