<svg width="15" height="15" viewBox="0 0 15 15" fill="none" xmlns="http://www.w3.org/2000/svg">
<path d="M14.3809 0H0.619392C0.40817 0 0.235352 0.172818 0.235352 0.384041C0.235352 0.595263 0.40817 0.768082 0.619392 0.768082H1.44828V14.6064C1.44828 14.7472 1.52509 14.8784 1.6499 14.9456C1.77472 15.0128 1.92513 15.0064 2.04354 14.9264L3.71092 13.8159L5.3847 14.9296C5.51271 15.016 5.68233 15.016 5.81035 14.9296L7.47772 13.8191L9.1515 14.9328C9.27952 15.0192 9.44913 15.0192 9.57715 14.9328L11.2445 13.8223L12.9183 14.936C12.9823 14.9776 13.0559 15 13.1295 15C13.1903 15 13.2543 14.984 13.3119 14.9552C13.4368 14.888 13.5136 14.7568 13.5136 14.616L13.5072 0.777683H14.3809C14.5921 0.777683 14.7649 0.604865 14.7649 0.393642C14.7649 0.182419 14.5921 0 14.3809 0ZM12.7487 13.8895L11.4589 13.0318C11.3309 12.9454 11.1613 12.9454 11.0333 13.0318L9.36592 14.1455L7.69215 13.0318C7.56413 12.9454 7.39451 12.9454 7.2665 13.0318L5.59912 14.1423L3.92534 13.0318C3.79733 12.9454 3.62771 12.9454 3.4997 13.0318L2.21636 13.8863V0.764882H12.7455L12.7487 13.8895Z" fill="#666666"/>
<path d="M3.98267 6.13185H8.00549C8.21671 6.13185 8.38953 5.95903 8.38953 5.74781C8.38953 5.53659 8.21671 5.36377 8.00549 5.36377H3.98267C3.77145 5.36377 3.59863 5.53659 3.59863 5.74781C3.59863 5.95903 3.76825 6.13185 3.98267 6.13185Z" fill="#666666"/>
<path d="M3.98267 7.46681H6.9974C7.20862 7.46681 7.38144 7.29399 7.38144 7.08277C7.38144 6.87155 7.20862 6.69873 6.9974 6.69873H3.98267C3.77145 6.69873 3.59863 6.87155 3.59863 7.08277C3.59863 7.29399 3.76825 7.46681 3.98267 7.46681Z" fill="#666666"/>
<path d="M10.0154 6.13185H11.0203C11.2315 6.13185 11.4043 5.95903 11.4043 5.74781C11.4043 5.53659 11.2315 5.36377 11.0203 5.36377H10.0154C9.80417 5.36377 9.63135 5.53659 9.63135 5.74781C9.63135 5.95903 9.80097 6.13185 10.0154 6.13185Z" fill="#666666"/>
<path d="M10.0154 7.46681H11.0203C11.2315 7.46681 11.4043 7.29399 11.4043 7.08277C11.4043 6.87155 11.2315 6.69873 11.0203 6.69873H10.0154C9.80417 6.69873 9.63135 6.87155 9.63135 7.08277C9.63135 7.29399 9.80097 7.46681 10.0154 7.46681Z" fill="#666666"/>
<path d="M3.98267 3.05031H8.00549C8.21671 3.05031 8.38953 2.87749 8.38953 2.66627C8.38953 2.45505 8.21671 2.28223 8.00549 2.28223H3.98267C3.77145 2.28223 3.59863 2.45505 3.59863 2.66627C3.59863 2.87749 3.76825 3.05031 3.98267 3.05031Z" fill="#666666"/>
<path d="M3.98267 4.38137H6.9974C7.20862 4.38137 7.38144 4.20855 7.38144 3.99733C7.38144 3.7861 7.20862 3.61328 6.9974 3.61328H3.98267C3.77145 3.61328 3.59863 3.7861 3.59863 3.99733C3.59863 4.20855 3.76825 4.38137 3.98267 4.38137Z" fill="#666666"/>
<path d="M10.0154 3.05031H11.0203C11.2315 3.05031 11.4043 2.87749 11.4043 2.66627C11.4043 2.45505 11.2315 2.28223 11.0203 2.28223H10.0154C9.80417 2.28223 9.63135 2.45505 9.63135 2.66627C9.63135 2.87749 9.80097 3.05031 10.0154 3.05031Z" fill="#666666"/>
<path d="M10.0154 4.38137H11.0203C11.2315 4.38137 11.4043 4.20855 11.4043 3.99733C11.4043 3.7861 11.2315 3.61328 11.0203 3.61328H10.0154C9.80417 3.61328 9.63135 3.7861 9.63135 3.99733C9.63135 4.20855 9.80097 4.38137 10.0154 4.38137Z" fill="#666666"/>
<path d="M3.98267 9.25197H8.00549C8.21671 9.25197 8.38953 9.07915 8.38953 8.86793C8.38953 8.65671 8.21671 8.48389 8.00549 8.48389H3.98267C3.77145 8.48389 3.59863 8.65671 3.59863 8.86793C3.59863 9.07915 3.76825 9.25197 3.98267 9.25197Z" fill="#666666"/>
<path d="M3.98267 10.5835H6.9974C7.20862 10.5835 7.38144 10.4107 7.38144 10.1995C7.38144 9.98825 7.20862 9.81543 6.9974 9.81543H3.98267C3.77145 9.81543 3.59863 9.98825 3.59863 10.1995C3.59863 10.4107 3.76825 10.5835 3.98267 10.5835Z" fill="#666666"/>
<path d="M10.0154 9.25197H11.0203C11.2315 9.25197 11.4043 9.07915 11.4043 8.86793C11.4043 8.65671 11.2315 8.48389 11.0203 8.48389H10.0154C9.80417 8.48389 9.63135 8.65671 9.63135 8.86793C9.63135 9.07915 9.80097 9.25197 10.0154 9.25197Z" fill="#666666"/>
<path d="M10.0154 10.5835H11.0203C11.2315 10.5835 11.4043 10.4107 11.4043 10.1995C11.4043 9.98825 11.2315 9.81543 11.0203 9.81543H10.0154C9.80417 9.81543 9.63135 9.98825 9.63135 10.1995C9.63135 10.4107 9.80097 10.5835 10.0154 10.5835Z" fill="#666666"/>
</svg>
