<svg width="18" height="18" viewBox="0 0 18 18" fill="none" xmlns="http://www.w3.org/2000/svg">
<circle cx="9" cy="9" r="8.5" fill="white" stroke="url(#paint0_linear)"/>
<path fill-rule="evenodd" clip-rule="evenodd" d="M6.00293 6.45575C6.00293 5.02309 7.14157 3.85718 8.54141 3.85718C9.94125 3.85718 11.0799 5.02297 11.0799 6.45575C11.0799 7.88853 9.94125 9.05432 8.54141 9.05432C7.14157 9.05432 6.00293 7.88853 6.00293 6.45575ZM6.39636 6.45575C6.39636 7.66641 7.35869 8.65147 8.54141 8.65147C9.72402 8.65147 10.6863 7.66641 10.6863 6.45575C10.6863 5.24509 9.72402 4.26015 8.54141 4.26015C7.35869 4.26015 6.39636 5.24509 6.39636 6.45575Z" fill="#1AAAFF"/>
<path fill-rule="evenodd" clip-rule="evenodd" d="M3.85742 12.6933C3.85742 11.9396 4.69893 9.98303 8.54145 9.98303C12.384 9.98303 13.2252 11.9396 13.2253 12.6933C13.2253 13.4161 12.643 13.8484 12.08 13.8484H5.00275C4.43968 13.8484 3.85742 13.4161 3.85742 12.6933ZM5.00275 13.4455H12.08C12.4444 13.4455 12.8317 13.182 12.8318 12.6933C12.8318 12.0947 12.0436 10.3859 8.54145 10.3859C5.03917 10.3859 4.25098 12.0947 4.25098 12.6933C4.25098 13.182 4.63821 13.4455 5.00275 13.4455Z" fill="#1AAAFF"/>
<path d="M14.5895 7.58619H13.4219V6.39106C13.4219 6.27969 13.3338 6.18958 13.225 6.18958C13.1162 6.18958 13.0283 6.27969 13.0283 6.39106V7.58619H11.8608C11.752 7.58619 11.6641 7.6763 11.6641 7.78755C11.6641 7.8988 11.7521 7.98904 11.8608 7.98904H13.0283V9.18404C13.0283 9.29541 13.1164 9.38553 13.225 9.38553C13.3338 9.38553 13.4219 9.29529 13.4219 9.18404V7.98904H14.5895C14.6983 7.98904 14.7863 7.8988 14.7863 7.78755C14.7863 7.6763 14.6982 7.58619 14.5895 7.58619Z" fill="#1AAAFF"/>
<defs>
<linearGradient id="paint0_linear" x1="9" y1="0" x2="9" y2="18" gradientUnits="userSpaceOnUse">
<stop stop-color="#1AAAFF"/>
<stop offset="1" stop-color="#5EEDFD"/>
</linearGradient>
</defs>
</svg>
