<svg width="18" height="18" viewBox="0 0 18 18" fill="none" xmlns="http://www.w3.org/2000/svg">
<circle cx="9" cy="9" r="8.5" fill="white" stroke="url(#paint0_linear)"/>
<path fill-rule="evenodd" clip-rule="evenodd" d="M6.00293 6.45575C6.00293 5.02309 7.14157 3.85718 8.54141 3.85718C9.94125 3.85718 11.0799 5.02297 11.0799 6.45575C11.0799 7.88853 9.94125 9.05432 8.54141 9.05432C7.14157 9.05432 6.00293 7.88853 6.00293 6.45575ZM6.39636 6.45575C6.39636 7.66641 7.35869 8.65147 8.54141 8.65147C9.72402 8.65147 10.6863 7.66641 10.6863 6.45575C10.6863 5.24509 9.72402 4.26015 8.54141 4.26015C7.35869 4.26015 6.39636 5.24509 6.39636 6.45575Z" fill="#1AAAFF"/>
<path fill-rule="evenodd" clip-rule="evenodd" d="M3.85742 12.6933C3.85742 11.9396 4.69893 9.98303 8.54145 9.98303C12.384 9.98303 13.2252 11.9396 13.2253 12.6933C13.2253 13.4161 12.643 13.8484 12.08 13.8484H5.00275C4.43968 13.8484 3.85742 13.4161 3.85742 12.6933ZM5.00275 13.4455H12.08C12.4444 13.4455 12.8317 13.182 12.8318 12.6933C12.8318 12.0947 12.0436 10.3859 8.54145 10.3859C5.03917 10.3859 4.25098 12.0947 4.25098 12.6933C4.25098 13.182 4.63821 13.4455 5.00275 13.4455Z" fill="#1AAAFF"/>
<path d="M12.3959 8.88931L13.2269 8.069L14.0665 8.91952C14.1447 8.99878 14.2707 9.00106 14.3481 8.92463C14.4255 8.84819 14.4248 8.7223 14.3465 8.64304L13.5069 7.79252L14.3378 6.97229C14.4153 6.89585 14.4145 6.76996 14.3364 6.69079C14.2582 6.61162 14.1322 6.60924 14.0548 6.68559L13.2239 7.50582L12.3844 6.65539C12.3062 6.57613 12.1802 6.57385 12.1029 6.6502C12.0254 6.72663 12.0262 6.8527 12.1043 6.93187L12.9439 7.7823L12.1129 8.60262C12.0354 8.67905 12.0363 8.80504 12.1144 8.88421C12.1926 8.96338 12.3185 8.96566 12.3959 8.88931Z" fill="#FF3627"/>
<defs>
<linearGradient id="paint0_linear" x1="9" y1="0" x2="9" y2="18" gradientUnits="userSpaceOnUse">
<stop stop-color="#1AAAFF"/>
<stop offset="1" stop-color="#5EEDFD"/>
</linearGradient>
</defs>
</svg>
