<svg width="22" height="19" viewBox="0 0 22 19" fill="none" xmlns="http://www.w3.org/2000/svg">
<path d="M21.3684 10.4009C22.4828 9.31763 22.1385 7.12638 20.2081 7.12638L15.129 7.12971C15.3219 6.07951 15.6013 4.33859 15.5902 4.17422C15.4836 2.61747 14.4673 0.722844 14.4233 0.645298C14.2379 0.308247 13.302 -0.148723 12.3602 0.047082C11.1425 0.301601 11.0181 1.06003 11.0231 1.26913C11.0231 1.26913 11.0756 3.34392 11.0807 3.89754C10.4985 5.14604 8.49111 8.42709 7.88268 8.67994C7.73717 8.59395 7.57209 8.5477 7.40034 8.5477H0.983403C0.438376 8.5477 0 8.97808 0 9.50775L0.00085094 18.1671C0.0390014 18.6339 0.445183 19 0.924972 19H6.68867C7.1998 19 7.61535 18.5943 7.61535 18.0952V17.8077C7.61535 17.8077 7.8295 17.7921 7.92679 17.8531C8.29737 18.0829 8.75532 18.372 9.35268 18.372H17.9538C21.1695 18.372 20.8243 15.585 20.5306 15.2049C21.074 14.6273 21.4099 13.6086 20.9513 12.8038C21.3033 12.4394 21.9228 11.438 21.3684 10.4009ZM6.49069 18.0935H0.92327V9.45153H6.49069V18.0935ZM19.868 10.3266L19.8156 10.5405C21.2973 10.9519 20.5086 12.6194 19.4457 12.7276L19.3932 12.9415C20.814 13.2944 20.1362 15.0113 19.0233 15.1286L18.9709 15.3417C20.1311 15.5277 19.8502 17.4611 18.0924 17.4611L9.34389 17.4644C8.72611 17.4644 8.16335 16.777 7.70895 16.777H7.31241V10.1249C7.80667 9.82583 8.41424 9.43755 8.75192 9.15741C9.38998 8.62608 12.0015 4.50559 12.0015 3.98991C12.0015 3.47422 11.9439 1.24338 11.9439 1.24338C11.9439 1.24338 12.4559 0.598908 13.5992 1.06903C13.5992 1.06903 14.5613 2.83059 14.6594 4.23445C14.6594 4.23445 14.2262 7.12638 13.9934 8.03368H20.0585C21.5486 8.03534 21.2643 10.1126 19.868 10.3266Z" fill="black"/>
</svg>
