<svg width="19" height="16" viewBox="0 0 19 16" fill="none" xmlns="http://www.w3.org/2000/svg">
<path d="M0.41214 7.41829H5.35768H7.0062L9.47897 3.297V0.824232C10.1384 0.164826 11.1275 0.274727 11.5396 0.412103L12.3639 3.297L11.9517 6.1819H16.8973C18.2161 6.84131 17.4468 8.10517 16.8973 8.65467C17.5567 8.98438 17.172 10.1658 16.8973 10.7153C17.227 11.3747 16.7599 12.3638 16.4852 12.776C16.8149 13.7651 16.073 14.5618 15.6609 14.8366H7.41832L5.76981 14.0123V14.8366L5.35768 15.2487H0.41214V7.41829Z" fill="#98CCFD"/>
<path d="M17.613 8.57303C18.5316 7.68012 18.2478 5.87397 16.6567 5.87397L12.4702 5.87671C12.6292 5.01108 12.8595 3.57611 12.8503 3.44063C12.7624 2.15747 11.9247 0.595809 11.8885 0.531891C11.7357 0.254075 10.9643 -0.122586 10.188 0.0388076C9.18428 0.248596 9.08176 0.873739 9.08585 1.04609C9.08585 1.04609 9.1291 2.75625 9.13331 3.21258C8.65344 4.24166 6.99885 6.94609 6.49736 7.1545C6.37742 7.08362 6.24135 7.0455 6.09978 7.0455H0.810577C0.361334 7.0455 0 7.40025 0 7.83683L0.000701393 14.9743C0.0321472 15.3591 0.366946 15.6609 0.762414 15.6609H5.51318C5.93449 15.6609 6.277 15.3265 6.277 14.9151V14.6781C6.277 14.6781 6.45352 14.6652 6.53371 14.7156C6.83917 14.9049 7.21663 15.1433 7.70901 15.1433H14.7986C17.4491 15.1433 17.1646 12.8461 16.9225 12.5328C17.3704 12.0567 17.6473 11.217 17.2692 10.5536C17.5594 10.2533 18.07 9.42783 17.613 8.57303ZM5.34999 14.9137H0.761012V7.79049H5.34999V14.9137ZM16.3764 8.51174L16.3331 8.68809C17.5545 9.02719 16.9044 10.4017 16.0282 10.4908L15.985 10.6672C17.1561 10.958 16.5974 12.3732 15.6801 12.4699L15.6369 12.6455C16.5932 12.7988 16.3616 14.3924 14.9128 14.3924L7.70177 14.3952C7.19255 14.3952 6.7287 13.8286 6.35416 13.8286H6.02731V8.34555C6.4347 8.09901 6.93549 7.77896 7.21383 7.54806C7.73976 7.1101 9.89233 3.71376 9.89233 3.28871C9.89233 2.86365 9.84487 1.02486 9.84487 1.02486C9.84487 1.02486 10.2669 0.493654 11.2092 0.881159C11.2092 0.881159 12.0022 2.33313 12.0831 3.49028C12.0831 3.49028 11.726 5.87397 11.5342 6.62182H16.5334C17.7616 6.62318 17.5272 8.33539 16.3764 8.51174Z" fill="#4B8BC9"/>
</svg>
