<svg width="30" height="22" viewBox="0 0 30 22" fill="none" xmlns="http://www.w3.org/2000/svg">
<path fill-rule="evenodd" clip-rule="evenodd" d="M26.0508 0H3.71701C1.66766 0 0 1.6706 0 3.72389V18.1059C0 20.1592 1.66766 21.8298 3.71701 21.8298H26.0505C28.1002 21.8298 29.7679 20.1592 29.7679 18.1059V3.72389C29.7679 1.6706 28.1002 0 26.0508 0ZM3.71701 1.05464H26.0505C26.5751 1.05464 27.063 1.20904 27.4754 1.47246L16.8423 11.5328C15.7621 12.5543 14.0054 12.5543 12.9259 11.5328L2.29246 1.47246C2.70491 1.20904 3.19277 1.05464 3.71701 1.05464ZM26.0505 20.7748C27.5201 20.7748 28.7147 19.5773 28.7147 18.1059H28.7144V3.72389C28.7144 3.1583 28.5371 2.63512 28.2368 2.20272L17.5644 12.2995C16.8258 12.999 15.8544 13.3489 14.8836 13.3489C13.9128 13.3489 12.9417 12.999 12.2032 12.2995L1.5304 2.20272C1.23007 2.63479 1.05279 3.1583 1.05279 3.72389V18.1059C1.05279 19.5777 2.24813 20.7748 3.71701 20.7748H26.0505Z" fill="#20AFFF"/>
</svg>
