<svg width="21" height="15" viewBox="0 0 21 15" fill="none" xmlns="http://www.w3.org/2000/svg">
<path fill-rule="evenodd" clip-rule="evenodd" d="M18.1058 0.234619H3.37415C2.02237 0.234619 0.922363 1.33657 0.922363 2.69094V12.1775C0.922363 13.5318 2.02237 14.6338 3.37415 14.6338H18.1056C19.4576 14.6338 20.5576 13.5318 20.5576 12.1775V2.69094C20.5576 1.33657 19.4576 0.234619 18.1058 0.234619ZM3.37415 0.930274H18.1056C18.4516 0.930274 18.7734 1.03212 19.0455 1.20587L12.0318 7.84181C11.3192 8.5156 10.1605 8.5156 9.44842 7.84181L2.43449 1.20587C2.70655 1.03212 3.02835 0.930274 3.37415 0.930274ZM18.1056 13.9379C19.0749 13.9379 19.8629 13.1481 19.8629 12.1775H19.8627V2.69094C19.8627 2.31787 19.7458 1.97277 19.5477 1.68756L12.508 8.34755C12.0209 8.80891 11.3801 9.03969 10.7398 9.03969C10.0994 9.03969 9.45889 8.80891 8.97172 8.34755L1.93183 1.68756C1.73373 1.97256 1.6168 2.31787 1.6168 2.69094V12.1775C1.6168 13.1483 2.40526 13.9379 3.37415 13.9379H18.1056Z" fill="white"/>
</svg>
