<svg width="38" height="29" viewBox="0 0 38 29" fill="none" xmlns="http://www.w3.org/2000/svg">
<path d="M36.9513 14.9773C36.0633 13.4316 34.0952 12.8908 32.5422 13.7665L24.8657 17.6801C24.4423 17.1923 23.8824 16.8429 23.2584 16.6762L15.2223 14.5244C14.6075 14.3584 13.9575 14.3781 13.3536 14.5802L10.5949 15.5C10.3959 15.566 10.1874 15.6 9.97756 15.6H7.8V13H0V14.3H6.5V27.3H0V28.6H7.8V26.65H8.78008C8.9394 26.65 9.09809 26.6697 9.25266 26.7084L13.8312 27.8526C14.0893 27.9173 14.354 27.95 14.6199 27.95H20.104C20.6743 27.9503 21.2348 27.8002 21.729 27.5152L35.7636 19.413C36.7669 18.8313 37.3858 17.7607 37.3886 16.601C37.3893 16.0307 37.2382 15.4702 36.9513 14.9773ZM35.113 18.287L21.0783 26.3901C20.7816 26.5605 20.4455 26.65 20.1033 26.65H14.6199C14.4606 26.65 14.3019 26.6303 14.1473 26.5916L9.56877 25.4474C9.31074 25.3827 9.04604 25.35 8.78008 25.35H7.8V16.9H9.9782C10.3276 16.9 10.6749 16.8438 11.0065 16.7337L13.7649 15.8139C14.127 15.6924 14.5171 15.6806 14.8856 15.78L22.9223 17.9328C23.9614 18.2162 24.574 19.2883 24.2906 20.3274C24.0072 21.3665 22.935 21.9791 21.8959 21.6957L15.7533 20.2239L15.4505 21.489L21.5754 22.956C22.7262 23.2642 23.9532 22.9179 24.7733 22.054C25.5931 21.1901 25.8749 19.9466 25.5074 18.8135L33.1624 14.9091C33.7664 14.5637 34.5081 14.5653 35.1105 14.9132C35.7129 15.2614 36.0852 15.9034 36.0874 16.5991C36.0861 17.2951 35.7151 17.9378 35.113 18.287Z" fill="black"/>
<path d="M24.7001 0C20.3923 0 16.9001 3.49216 16.9001 7.8C16.9001 12.1078 20.3923 15.6 24.7001 15.6C29.008 15.6 32.5001 12.1078 32.5001 7.8C32.4954 3.49407 29.0061 0.00476076 24.7001 0ZM24.7001 14.3C21.1102 14.3 18.2001 11.3899 18.2001 7.8C18.2001 4.21008 21.1102 1.3 24.7001 1.3C28.2901 1.3 31.2001 4.21008 31.2001 7.8C31.1963 11.3883 28.2885 14.2962 24.7001 14.3Z" fill="#20AFFF"/>
<path d="M24.6999 4.55001C25.4178 4.55001 25.9999 5.13209 25.9999 5.85001H27.2999C27.2954 4.66808 26.4943 3.63785 25.3499 3.34237V1.95001H24.0499V3.34237C22.7835 3.66832 21.9573 4.88549 22.1227 6.18263C22.2877 7.48009 23.3922 8.4516 24.6999 8.45001C25.4178 8.45001 25.9999 9.03209 25.9999 9.75001C25.9999 10.4679 25.4178 11.05 24.6999 11.05C23.9819 11.05 23.3999 10.4679 23.3999 9.75001H22.0999C22.1043 10.9319 22.9054 11.9622 24.0499 12.2577V13.65H25.3499V12.2577C26.6162 11.9317 27.4424 10.7145 27.277 9.4174C27.112 8.11993 26.0075 7.14843 24.6999 7.15001C23.9819 7.15001 23.3999 6.56793 23.3999 5.85001C23.3999 5.13209 23.9819 4.55001 24.6999 4.55001Z" fill="#20AFFF"/>
<path d="M0 13.65H7.15V27.95H0V13.65Z" fill="#20AFFF"/>
</svg>
