<svg width="994" height="676" viewBox="0 0 994 676" fill="none" xmlns="http://www.w3.org/2000/svg">
<path d="M629.87 243.684C629.87 243.684 578.97 268.584 563.66 259.294C561.72 258.114 516.34 240.144 516.34 240.144L507 250.564L559.11 286.134L576.43 289.074L620.19 276.534L629.87 243.684Z" fill="#CCD2D9"/>
<path d="M833.36 670.9C827.62 670.9 821.85 670.67 816.02 670.1C793.73 667.94 771.13 666.86 748.95 663.77C698.04 656.68 647.12 656.26 595.84 656.26C575.48 656.26 555.13 656.06 534.78 656.06C505.14 656.06 475.51 656.48 445.92 658.54C399.77 661.75 353.55 662.26 307.32 662.26C300.35 662.26 293.37 662.25 286.41 662.23C285.96 662.23 285.51 662.23 285.06 662.23C259.46 662.23 233.97 663.87 208.41 665.03C182.74 666.19 157.78 668.11 132.26 668.11C129.96 668.11 127.64 668.09 125.33 668.06C99.8299 667.7 61 659.97 42.8 640.28C32 628.58 33.46 600.43 44.28 589.15C49.01 584.22 56.6199 580.36 62.8499 578.01C80.5799 571.32 98.62 571.3 117.15 571.17C117.38 571.17 117.61 571.17 117.83 571.17C130.61 571.17 143.9 573.85 156.15 577.57C167.3 580.96 178.69 582.14 190.02 584.25C199.3 585.98 209.22 586.8 219.04 586.8C225.43 586.8 231.77 586.45 237.85 585.77C254.31 583.93 270.89 583.08 287.4 581.63C307.9 579.83 327.96 575.93 348.39 573.84C358.62 572.79 368.6 570.2 378.81 569.02C405.87 565.89 432.98 565.21 460.09 565.13C462.28 565.12 464.48 565.12 466.67 565.12C479.58 565.12 492.49 565.22 505.39 565.22C515.88 565.22 526.37 565.19 536.86 565.19C572.74 565.19 608.59 565.57 644.37 568.96C655.46 570.01 666.48 569.37 677.41 571.87C688.39 574.38 699.47 576.66 710.72 577.11C720.34 577.49 729.99 577.62 739.66 577.62C756.85 577.62 774.07 577.22 791.2 577.16C792.91 577.15 795.3 577.14 798.26 577.14C836.6 577.14 970.18 578.97 960.6 616.04C956.92 630.28 935.51 648.82 923.5 654.79C908.33 662.33 891.74 666.79 875.04 668.29C860.97 669.54 847.25 670.9 833.36 670.9Z" fill="#1AAAFF" fill-opacity="0.13"/>
<path d="M856.73 404.45L859.93 478.57L850.56 604.6L836.54 605.59L819.51 491.13L795.95 394.27L856.73 404.45Z" fill="#3B455A"/>
<path d="M837.04 611.5L852.74 618L859.78 609.88L851.66 602.84L836.5 603.92L837.04 611.5Z" fill="#2A313F"/>
<path d="M757.5 378.22L754.42 434.25L763.55 600.83L777.59 601.53L798.62 492.28L817.18 372.46L757.5 378.22Z" fill="#3B455A"/>
<path d="M777.21 607.45L761.65 614.28L754.44 606.31L762.41 599.1L777.59 599.86L777.21 607.45Z" fill="#2A313F"/>
<path d="M839.11 213.17L795.31 208.48C795.31 208.48 770.94 211.08 754.41 268.95C745.21 301.14 742.41 351.86 741.74 390.53C742.77 396.05 748.78 420.21 774.19 416.11C817.83 409.07 841.05 402.03 860.06 405.55C876.25 409.07 874.88 386.78 873.1 369.77L866.65 317.14L839.11 213.17Z" fill="#305399"/>
<path d="M830.65 158.66C819.61 156.23 808.25 154.05 797.2 156.23C794.78 156.71 792.18 157.55 790.87 159.64C790.36 160.45 790.09 161.38 789.84 162.31C787.05 172.68 783.51 188.04 790.34 197.59C791.64 199.41 793.39 200.86 795.27 202.03C797.78 203.6 800.56 204.67 803.44 205.23C802.85 207.81 802.02 210.33 800.97 212.76C803.5 216.57 815.29 217.03 817.47 213.37C817.59 210.21 817.71 207.05 817.84 203.89C819.28 203.31 820.66 202.61 821.96 201.75C827 198.43 830.32 193.4 832.25 187.76C834.35 181.63 837.3 175.79 839.22 169.54C839.92 167.26 840.47 164.66 839.27 162.6C837.99 160.41 835.24 159.66 832.76 159.11C832.05 158.97 831.35 158.81 830.65 158.66Z" fill="#C1755D"/>
<path d="M793.91 164.58C799.37 161.07 807.55 159.56 812.68 159.93C828.19 161.05 833.87 172.44 834.7 186.71C838.97 181.28 846.99 174.45 847.48 167.46C847.88 161.74 847.08 153.94 843.88 149C840.88 144.38 833.21 141.84 828.65 139.16C824.35 136.63 820.05 134.11 815.75 131.58C814.86 131.06 813.94 130.52 812.92 130.34C811.71 130.13 810.48 130.44 809.29 130.75C799.13 133.37 788.97 136 778.81 138.63C776.86 139.13 774.63 139.87 773.92 141.75C773.48 142.9 773.74 144.18 774 145.37C775.15 150.64 777.37 156.04 777.92 161.38C778.54 164.48 780.39 180.39 785.89 178.56C787.5 175.92 787.75 172.67 789 169.85C789.93 167.76 791.69 166.01 793.91 164.58Z" fill="#2E3644"/>
<path d="M112.08 405.61L49.91 386.68L68.54 492.64L66.5 585.09L66.34 585.71L66.49 585.72L66.48 585.92L78.5601 586.38V586.37L79.01 586.4L101.17 502.88L110.39 414.73L112.08 405.61Z" fill="#305399"/>
<path d="M78.17 590.61L65.7 591.01L63.12 601.7L63.4401 601.78L63.36 601.79L84.65 612.82L94.5 613.35L95.11 602.09L92.35 600.3L78.17 590.61Z" fill="#2A313F"/>
<path d="M160.01 404.9L152.13 588.59L140.1 589.82L122.38 491.89L95.8 394.87L160.01 404.9Z" fill="#305399"/>
<path d="M152.34 592.83L168.82 600.98L167.75 608.59L138.98 605.92L140.04 594.97L152.34 592.83Z" fill="#2A313F"/>
<path d="M34.5701 438.57C32.4101 407.62 57.3101 308.29 57.3101 308.29C59.9801 298.95 61.94 289.47 63.01 279.99C63.77 273.24 81.7601 196.27 80.4201 196.21C94.3201 196.83 120.99 192.8 131.54 202.36C131.84 202.63 132.13 202.92 132.4 203.21C140.67 212.12 145.36 230.51 149.47 241.79C154.87 256.61 159.13 271.84 162.17 287.32C164.84 300.85 166.58 314.54 167.93 328.26C169.09 340.05 168.76 351.82 169.5 363.44C170.31 376.3 174.56 390.14 177.8 402.58C181.06 415.11 185.09 427.46 190.52 439.22C176.92 445.71 161.62 447.79 146.56 448.27C131.5 448.75 116.41 447.72 101.35 448.38C88.62 448.94 75.76 450.69 63.21 448.49C53.21 446.73 43.9301 442.57 34.5701 438.57Z" fill="#BCBEC0"/>
<path d="M127.01 162.46C133.43 165.41 140.26 173.29 140.06 180.81C139.97 184.43 138.05 187.3 138.1 191.18C138.17 198.83 126.81 207.16 134.11 214.33C137.86 218.02 143.58 218.6 148.83 218.98C149.47 219.03 150.13 219.07 150.71 218.8C151.66 218.36 152.1 217.2 152.05 216.15C152 215.1 151.56 214.12 151.22 213.12C147.6 202.75 152.28 190.4 152.57 179.72C152.86 169.06 150.02 157.64 141.1 150.95C135.3 152.9 131.01 155.49 128.29 160.97L127.01 162.46Z" fill="#2E3644"/>
<path d="M124.35 207.99C131.54 206.88 137.52 201.38 140.7 194.84C143.88 188.3 144.6 180.82 144.43 173.55C143.86 149.35 113.87 148.56 102.33 166.18C92.2599 181.52 103.45 211.22 124.35 207.99Z" fill="#F4D0C1"/>
<path d="M946.88 504.64H708.63V350.9H946.88V504.64Z" fill="#7DB5DB"/>
<path d="M915.14 298.85H827.75H740.36L702.34 343.65H827.75H953.17L915.14 298.85Z" fill="#7DB5DB"/>
<path d="M953.17 359.8H702.34V343.65H953.17V359.8Z" fill="#6C9FBC"/>
<path d="M780.67 314L774.51 321.25H874.24L868.08 314H780.67Z" fill="#5C8BA0"/>
<path d="M708.63 359.8L946.88 382.01V359.8H708.63Z" fill="#9DD0ED"/>
<path d="M725.78 398.58L927.34 392.34L922.86 398.58L930.77 406.11L924.27 417.28L930.77 423.63L925.97 427.87L935.54 443.69L921.73 455.08L928.51 462.08L727.65 467.7L731.89 460H725.78L732.17 442.84L721.72 434.59L727.93 426L725.39 421.6L730.47 414L721.72 403.57L725.78 398.58Z" fill="#F7F7F7"/>
<path d="M759.64 443.72C758.71 445.4 757.55 446.95 756.16 448.27C755.17 449.22 754.08 450.04 752.89 450.72C752.52 450.83 752.2 450.93 751.92 451.03C749.91 438.43 747.52 425.9 744.7 413.46C753.73 413.16 761.08 424.38 761.92 432.42C762.33 436.32 761.55 440.27 759.64 443.72ZM767.85 432.27C766.68 419.5 754.66 404.47 740.61 408.11C739.57 408.38 738.97 409.03 738.71 409.79C738.3 410.41 738.12 411.19 738.33 412.1C741.6 426.18 744.36 440.37 746.55 454.66C746.82 456.45 748.33 457.34 749.77 457.39C754.28 458.89 760.21 452.99 762.6 449.94C766.5 444.97 768.42 438.57 767.85 432.27Z" fill="#3B455A"/>
<path d="M787.28 449.7C773.3 446.24 775.1 410.06 789.31 417.35C793.96 419.74 794.75 427.79 795.03 432.35C795.35 437.85 795.72 451.78 787.28 449.7ZM788.28 410.89C784.04 409.61 779.41 410.56 775.97 414.93C770.9 421.38 770.85 431.18 772.66 438.8C774.41 446.17 779.01 454.9 787.39 455.88C799.45 457.28 800.88 444.24 800.99 435.28C801.05 430.27 800.2 425.02 798.31 420.37C796.45 415.75 792.56 412.18 788.28 410.89Z" fill="#3B455A"/>
<path d="M826.41 411.83C826.38 412.19 826.35 412.55 826.33 412.91C826.3 413.28 826.35 413.6 826.42 413.9C826.45 420.69 826.48 427.48 826.51 434.28C825.68 432.41 824.8 430.55 823.89 428.71C820.59 422.03 817.42 415.01 812.19 409.59C810.36 407.7 807.15 409.32 807.18 411.8C807.35 425.07 807.78 438.34 808.48 451.6C808.68 455.4 814.61 455.28 814.41 451.46C813.87 441.28 813.5 431.1 813.28 420.92C815.36 424.45 817.09 428.25 818.85 431.82C822.27 438.74 825.1 445.79 826.73 453.34C827.46 456.69 832.55 455.67 832.54 452.42C832.48 438.85 832.42 425.27 832.36 411.7C832.32 407.8 826.7 408.1 826.41 411.83Z" fill="#3B455A"/>
<path d="M847.72 431.26C848.62 427 849.64 422.77 850.78 418.56C852.16 422.65 853.46 426.76 854.72 430.89C852.38 430.92 850.05 431.05 847.72 431.26ZM865.56 447.58C862.14 434.17 858.07 420.96 853.35 407.95C852.34 405.16 848.52 405.25 847.63 408.08C843.34 421.82 840.32 435.83 838.55 450.12C838.09 453.87 843.84 455.34 844.3 451.56C844.89 446.78 845.63 442.03 846.51 437.31C849.82 436.96 853.13 436.79 856.46 436.81C857.65 440.95 858.8 445.1 859.87 449.28C860.82 452.99 866.5 451.28 865.56 447.58Z" fill="#3B455A"/>
<path d="M886.78 404.68C878.1 405.95 869.48 407.51 860.92 409.42C857.2 410.25 858.91 415.93 862.63 415.1C866.28 414.29 869.94 413.54 873.61 412.85C873.81 424.87 874.33 436.88 875.18 448.87C875.45 452.66 881.38 452.55 881.11 448.73C880.24 436.43 879.71 424.12 879.52 411.79C881.98 411.37 884.44 410.97 886.92 410.61C890.65 410.06 890.56 404.13 886.78 404.68Z" fill="#3B455A"/>
<path d="M914.43 445.83C909.74 446.04 905.06 446.24 900.37 446.45L900.09 433.43C902.41 433.31 904.72 433.32 907.04 433.47C908.64 433.57 909.97 431.94 909.94 430.44C909.9 428.72 908.51 427.65 906.91 427.54C904.59 427.39 902.28 427.38 899.97 427.5L899.61 410.87C903.7 410.92 907.8 411.06 911.89 411.33C915.7 411.58 915.54 405.65 911.75 405.4C907.72 405.13 903.69 404.97 899.65 404.91C894.4 404.83 893.61 407.75 893.71 412.33C893.8 416.51 893.89 420.69 893.98 424.87C894.15 432.81 894.33 440.75 894.5 448.69C894.5 448.82 894.51 448.94 894.51 449.07C894.55 450.81 895.21 452.62 897.39 452.53C903.12 452.28 908.85 452.03 914.58 451.77C918.38 451.6 918.26 445.67 914.43 445.83Z" fill="#3B455A"/>
<path d="M742.75 330.72L743.22 338.77L753.21 350.51L759.23 344.47L754.44 333.8L756.85 329.89L752.86 325.55L742.75 330.72Z" fill="#C1755D"/>
<path d="M795.31 208.48L779.12 213.41L720 275.35L716.48 295.76L744.75 342.42L752.38 325.32L740.41 290.83L759.42 277.46L784.75 220.45L795.31 208.48Z" fill="#305399"/>
<path d="M449.38 468.02C449.17 468.02 427.42 447.29 407.53 427.18C407.59 427.2 407.64 427.22 407.7 427.24C426.34 446.09 446.68 465.54 449.42 468C449.4 468.02 449.38 468.02 449.38 468.02Z" fill="#BBCAD6"/>
<path d="M835.19 217.6L876.89 202.6L903.07 140.62L917.49 141.56L900.4 209.68L885.25 226.93L833.85 252.71L835.19 217.6Z" fill="#2B292A"/>
<path d="M914.4 141.36L918.12 134.2L915.53 119L907.27 121.11L905.94 132.73L901.86 134.85L903.07 140.62L914.4 141.36Z" fill="#C1755D"/>
<path d="M826.25 215.77C826.17 169.52 863.59 131.97 909.84 131.89C956.09 131.81 993.64 169.23 993.72 215.48C993.8 261.73 956.37 299.28 910.13 299.36C863.89 299.44 826.34 262.01 826.25 215.77Z" fill="#BCBEC0"/>
<path d="M838.92 215.74C838.85 176.49 870.62 144.62 909.86 144.55C949.11 144.48 980.98 176.25 981.05 215.49C981.12 254.73 949.35 286.61 910.11 286.68C870.87 286.75 838.99 254.99 838.92 215.74Z" fill="#CCCDCE"/>
<path d="M947.07 154.9C954.17 165.94 958.29 179.07 958.32 193.16C958.38 232.41 926.62 264.28 887.37 264.35C873.74 264.37 861 260.55 850.17 253.92C862.84 273.62 884.96 286.65 910.11 286.6C949.36 286.53 981.12 254.66 981.05 215.41C981.01 189.8 967.42 167.37 947.07 154.9Z" fill="#9D9D9E"/>
<path d="M851.39 222.22C851.33 187.57 879.37 159.44 914.01 159.38C934.26 159.35 952.29 168.91 963.78 183.79C952.92 165 932.59 152.38 909.33 152.42C874.68 152.48 846.65 180.62 846.71 215.26C846.73 229.66 851.61 242.91 859.78 253.48C854.46 244.28 851.4 233.61 851.39 222.22Z" fill="#F7F7F7"/>
<path d="M915.78 169.74L915.8 178.79C919.43 179.37 922.41 180.56 924.72 182.38C927.03 184.19 929.24 186.98 931.34 190.73L922.34 195.78C919.62 190.86 916.07 188.4 911.7 188.41C908.99 188.41 906.74 189.22 904.96 190.82C903.18 192.42 902.29 194.43 902.29 196.83C902.29 199.02 903.02 200.83 904.47 202.28C905.89 203.69 908.75 205.37 913.07 207.3C916.8 208.99 919.88 210.58 922.32 212.07C924.76 213.56 926.59 215 927.82 216.38C931.31 220.13 933.06 224.67 933.06 230C933.07 235.24 931.51 239.86 928.37 243.87C925.27 247.85 921.11 250.54 915.91 251.93L915.93 261.49L907.85 261.5L907.83 252.21C901.79 251.23 897.18 249.16 894.01 246C890.84 242.84 888.48 237.94 886.96 231.32L897.12 229.18C898.51 233.86 900.21 237.2 902.22 239.19C904.32 241.1 907.11 242.05 910.58 242.04C913.97 242.03 916.8 240.94 919.07 238.75C921.31 236.59 922.43 233.8 922.43 230.38C922.42 227.33 921.48 224.89 919.6 223.04C918.64 222.15 917.23 221.14 915.37 220.02C913.51 218.9 911.12 217.68 908.23 216.36C902.25 213.69 898.32 211.24 896.44 208.99C893.45 205.64 891.95 201.62 891.94 196.94C891.94 194.72 892.29 192.66 892.99 190.75C893.7 188.84 894.72 187.11 896.05 185.55C897.39 183.99 899.04 182.64 901.01 181.5C902.98 180.36 905.21 179.46 907.7 178.81L907.68 169.76L915.78 169.74Z" fill="#A9A9AA"/>
<path d="M260.33 373.72C256 364.13 248.46 356.93 239.16 353.33C239.21 351.97 239.24 350.61 239.24 349.27C239.24 335.25 236.49 321.64 231.07 308.82C225.84 296.44 218.35 285.33 208.81 275.8C199.27 266.26 188.16 258.77 175.79 253.54C162.97 248.12 149.37 245.37 135.34 245.37C121.32 245.37 107.71 248.12 94.89 253.54C82.51 258.77 71.41 266.26 61.87 275.8C52.33 285.34 44.84 296.45 39.61 308.82C34.19 321.64 31.4401 335.24 31.4401 349.27C31.4401 363.29 34.19 376.9 39.61 389.72C44.84 402.09 52.33 413.2 61.87 422.74C71.41 432.28 82.52 439.77 94.89 445C107.71 450.42 121.32 453.17 135.34 453.17C149.36 453.17 162.97 450.42 175.79 445C176.35 444.76 176.91 444.52 177.48 444.26L182.18 447.98C186.74 451.59 191.26 455.04 193.54 456.77C195.14 457.98 196.49 458.99 197.45 459.7C198.11 460.19 198.68 460.62 199.23 460.97C199.77 461.35 201.15 462.22 203.19 462.23H203.22C203.67 462.23 204.06 462.21 204.43 462.15H204.99L205.41 461.9C206.54 461.47 207.81 460.54 210.48 458.58C211.1 458.13 212.01 457.45 213.14 456.61L214.21 455.81C215.35 454.96 216.65 453.98 218.05 452.92C223.39 448.88 230.61 443.3 234.73 439.63C245.7 429.86 253.68 420.4 259.13 410.72C265.36 399.68 265.81 385.85 260.33 373.72Z" fill="white"/>
<path d="M136.11 262C112.8 262 90.88 271.08 74.4 287.56C57.92 304.04 48.84 325.96 48.84 349.27C48.84 372.58 57.92 394.5 74.4 410.98C90.88 427.46 112.8 436.54 136.11 436.54C159.42 436.54 181.34 427.46 197.82 410.98C214.3 394.5 223.38 372.58 223.38 349.27C223.38 325.96 214.3 304.04 197.82 287.56C181.34 271.08 159.42 262 136.11 262ZM136.11 446.3C123.01 446.3 110.3 443.73 98.34 438.67C86.79 433.78 76.41 426.79 67.5 417.88C58.59 408.97 51.59 398.59 46.71 387.04C41.65 375.07 39.08 362.37 39.08 349.27C39.08 336.17 41.65 323.46 46.71 311.5C51.6 299.94 58.59 289.57 67.5 280.66C76.41 271.75 86.79 264.75 98.34 259.87C110.31 254.81 123.02 252.24 136.11 252.24C149.21 252.24 161.92 254.81 173.88 259.87C185.43 264.76 195.81 271.75 204.72 280.66C213.63 289.57 220.63 299.95 225.51 311.5C230.57 323.47 233.14 336.17 233.14 349.27C233.14 362.37 230.57 375.08 225.51 387.04C220.62 398.6 213.63 408.97 204.72 417.88C195.81 426.79 185.43 433.79 173.88 438.67C161.92 443.74 149.21 446.3 136.11 446.3Z" fill="#1AAAFF"/>
<path d="M140.99 441.42H131.23V257.12H140.99V441.42Z" fill="#1AAAFF"/>
<path d="M224.44 324.03H49.34V314.27H224.44V324.03Z" fill="#1AAAFF"/>
<path d="M224.6 379.95H46.46V370.18H224.6V379.95Z" fill="#1AAAFF"/>
<path d="M131.8 445.29C131.26 444.91 118.41 435.9 105.47 419.24C97.86 409.44 91.7901 399.01 87.4301 388.23C81.9601 374.69 79.1801 360.58 79.1801 346.29C79.1801 331.97 81.97 318.14 87.46 305.2C91.84 294.87 97.95 285.1 105.61 276.14C118.64 260.91 131.6 253.35 132.14 253.04L137.02 261.5C136.9 261.57 124.75 268.7 112.8 282.76C105.85 290.94 100.32 299.84 96.36 309.22C91.44 320.89 88.9401 333.36 88.9401 346.29C88.9401 359.32 91.48 372.2 96.48 384.58C100.5 394.53 106.12 404.18 113.18 413.26C125.21 428.75 137.25 437.2 137.37 437.28L131.8 445.29Z" fill="#1AAAFF"/>
<path d="M141.71 445.29L136.13 437.27C136.25 437.18 148.49 428.56 160.52 412.99C167.53 403.92 173.1 394.29 177.09 384.38C182.04 372.06 184.55 359.25 184.55 346.28C184.55 333.28 182.02 320.74 177.04 309.01C173.05 299.6 167.47 290.68 160.46 282.48C148.51 268.51 136.59 261.56 136.47 261.49L141.35 253.03C141.9 253.34 154.86 260.9 167.88 276.13C175.54 285.08 181.64 294.86 186.03 305.19C191.53 318.13 194.31 331.96 194.31 346.28C194.31 360.57 191.53 374.69 186.06 388.22C181.7 399 175.63 409.44 168.02 419.23C155.11 435.9 142.26 444.91 141.71 445.29Z" fill="#1AAAFF"/>
<path d="M228.7 357.72C219.23 356.89 207.28 361.97 204.4 370.18C201.6 361.95 187.09 356.83 177.61 357.57C152.6 359.52 143.99 387.8 154.5 406.9C160.15 417.18 168.31 426.18 177.21 434.27C184.67 441.04 203.91 455.43 203.97 455.38C204.03 455.43 223.42 441.23 230.94 434.52C239.93 426.51 248.17 417.59 253.93 407.37C264.63 388.35 253.69 359.9 228.7 357.72Z" fill="#D34E4E"/>
<path d="M203.85 442.6H187.22V455.29H203.85V442.6Z" fill="#E0E0E0"/>
<path d="M203.85 455.28C202.77 454.53 194.71 448.5 187.28 442.62C189.72 443.2 192.25 443.49 194.82 443.49C196.8 443.49 198.81 443.32 200.85 442.96C210.63 441.27 219.53 436.12 227.13 430.19C234.99 424.06 242.24 416.92 248.52 409.3C251.81 405.31 254.84 401.1 257.45 396.67C256.86 400.36 255.65 403.96 253.79 407.26C248.03 417.48 239.79 426.41 230.81 434.41C223.39 441.04 204.46 454.93 203.85 455.28Z" fill="#D6A6A2"/>
<path d="M38.24 374.27C39.14 377.85 45.4 385.37 49.33 385.94C58.42 387.27 51.29 377.47 49.59 373.52C51.15 373.34 52.66 373.22 54.13 372.75C55.47 372.32 46.83 362.26 45.11 361.7C40.96 360.36 39.33 362.6 35.75 364.54C36.65 367.76 37.42 371.03 38.24 374.27Z" fill="#F4D0C1"/>
<path d="M79.11 204.69L0 304.96L34.48 368.82L50.4401 364.51L33.36 310.71L55.14 282.65L98.58 248.88L79.11 204.69Z" fill="#BCBEC0"/>
<path d="M88.1901 211.96C91.8801 210.8 95.5201 209.53 98.3101 206.3C102.82 201.09 103.93 191.5 105.95 185.12C108.07 178.39 110.6 171.11 116.55 167.33C120.44 164.86 124.43 164.93 128.78 165.58C131.76 166.03 131.69 167.17 134.47 165.99C136.6 165.09 138.86 161.71 139.66 159.65C141.01 156.17 140.2 152.13 138.29 148.92C135.35 143.99 131.36 141.12 125.86 140.07C106.55 136.4 90.08 145.47 81.45 163.49C77.3 172.16 77.5501 182.61 73.2901 190.91C70.6601 196.03 66.59 199.06 64.22 204.58C58.08 218.92 46.6301 236.65 44.6801 252.21C44.6101 252.79 44.5701 253.43 44.9301 253.88C45.6701 254.8 47.1401 254.07 48.0401 253.32C53.3401 248.9 58.6401 244.49 63.9401 240.07C66.0201 238.33 68.1301 236.57 69.6501 234.33C73.4401 228.75 73.31 220.69 78.49 216.37C81.33 214.02 84.7801 213.04 88.1901 211.96Z" fill="#2E3644"/>
<path d="M644.09 9.06065C609.09 -0.469354 531.11 -9.11936 419.48 19.7906C330.45 42.8506 268.86 41.2006 230.94 34.7506L238.6 152.641C276.5 159.121 330.48 161.581 419.65 138.481C531.09 109.611 602.95 119.461 638.02 128.971L644.09 9.06065Z" fill="white"/>
<path d="M345.64 122.501C343.53 124.041 339.16 125.851 333.36 126.571C319.93 128.231 308.65 120.051 306.51 102.691C304.46 86.1206 313.18 73.6407 327.96 71.8107C333.9 71.0807 337.82 72.0306 339.56 72.7706L338.76 78.5307C336.27 77.5607 332.83 77.0306 328.87 77.5206C317.7 78.9006 311.25 87.7507 312.97 101.651C314.57 114.611 322.32 122.111 333.91 120.681C337.66 120.221 341.37 118.881 343.68 117.241L345.64 122.501Z" fill="#1AAAFF"/>
<path d="M351.5 68.9306L356 90.8006L378.75 86.1206L374.25 64.2506L380.39 62.9906L391.14 115.251L385 116.511L379.96 92.0106L357.21 96.6906L362.25 121.191L356.18 122.441L345.43 70.1806L351.5 68.9306Z" fill="#1AAAFF"/>
<path d="M420.36 84.9507L412.18 71.1307C410.32 67.9907 408.88 65.0907 407.46 62.2507L407.32 62.2807C407.37 65.5307 407.37 68.8607 407.24 72.2407L406.3 88.3507L420.36 84.9507ZM406.33 93.8907L405.43 111.381L399.2 112.891L402.5 57.1907L409.77 55.4307L438.25 103.431L431.81 104.991L422.87 89.8907L406.33 93.8907Z" fill="#1AAAFF"/>
<path d="M291 245C291 245 249.619 278.263 234.618 271.679C232.71 270.846 189.708 260.768 189.708 260.768L220 287L234.663 299L250.483 298.97L287.407 279.136L291 245Z" fill="#EBB044"/>
<path d="M445.53 73.3306L451.77 72.2206C458.29 71.0606 461.73 66.3506 460.66 60.3506C459.46 53.5706 454.51 51.3906 448.05 52.4606C445.1 52.9806 443.06 53.6706 442.13 54.1506L445.53 73.3306ZM435.19 50.4806C438.15 49.2306 442.5 48.0606 446.71 47.3106C453.23 46.1506 457.68 46.7306 461.15 49.1706C463.95 51.0906 465.92 54.4306 466.64 58.4906C467.87 65.4306 464.76 70.7206 460.11 73.4806L460.15 73.7106C464.05 74.4706 466.88 77.8206 468.97 83.0806C471.81 90.1306 473.83 95.0006 475.18 96.8506L468.87 97.9706C467.83 96.6306 465.98 92.2906 463.49 85.9806C460.8 78.9806 457.79 76.7006 452.21 77.4506L446.46 78.4706L450.5 101.231L444.4 102.311L435.19 50.4806Z" fill="#1AAAFF"/>
<path d="M480.91 42.5006L487.73 95.4206L481.58 96.2106L474.77 43.2906L480.91 42.5006Z" fill="#1AAAFF"/>
<path d="M503.21 46.0706L488.65 47.2106L488.19 41.3706L523.63 38.5906L524.09 44.4306L509.46 45.5806L513.18 92.9206L506.93 93.4206L503.21 46.0706Z" fill="#1AAAFF"/>
<path d="M544.69 91.7507L544.84 69.1107L529.88 38.2906L536.93 38.3407L543.6 53.1107C545.42 57.1607 546.83 60.4107 548.3 64.1507H548.44C549.82 60.6807 551.48 57.2006 553.36 53.1806L560.37 38.5006L567.42 38.5507L551.11 69.0706L550.96 91.7906L544.69 91.7507Z" fill="#1AAAFF"/>
<path d="M539.53 592.871L540.58 600.911L525.55 611.041L516.46 604.051L523.45 594.971L538.48 584.831L539.53 592.871Z" fill="#353A49"/>
<path d="M540.03 590.171L528.24 487.661L541.98 372.841L538.8 348.431L476.44 346.181L474.26 385.931L484.92 487.901L524.51 595.441L540.03 590.171Z" fill="#3B455A"/>
<path d="M430.7 357.761L430.74 461.231L451.81 594.391L466.8 594.211L474.81 471.021L493.87 347.691L430.7 357.761Z" fill="#3B455A"/>
<path d="M548.47 392.731C548.32 388.251 548.06 384.501 548.02 383.171C547.68 371.141 546.58 359.141 545.05 347.201C543.68 336.501 541.93 309.941 540.08 299.301C538.55 290.521 533.24 268.611 529.42 260.471C519.91 240.231 522.84 238.351 481.23 232.421C463 229.821 458.71 241.191 443.83 254.281C442.36 255.571 442.46 263.241 442.12 265.281C441.53 268.861 440.89 272.431 440.16 275.991C439.59 278.781 438.95 281.571 438.24 284.341C438.24 284.341 425.84 341.301 417.59 353.401C409.34 365.511 392.28 382.441 420.89 392.711C425.96 394.341 431.06 395.891 436.34 396.711C436.34 396.711 459.72 394.071 471.74 394.131C482.81 394.191 493.94 395.291 504.83 397.151C512.11 398.351 519.55 400.111 526.07 403.501C532.29 406.731 536.78 411.501 543.09 414.851C543.69 415.171 544.34 415.501 545.02 415.401C548.65 414.891 548.79 402.161 548.47 392.731Z" fill="white"/>
<path d="M481.2 238.131C483.3 239.161 488.25 239.521 493.42 237.491C494.46 237.081 495.16 236.081 495.15 234.961C495.1 231.821 494.84 228.691 494.38 225.581C498.25 224.211 502.73 222.161 503.4 218.101C503.61 216.821 503.39 215.521 503.16 214.251C502.24 208.981 501.32 203.711 500.4 198.441C500.08 196.621 499.74 194.741 498.75 193.181C497.01 190.441 493.63 189.251 490.43 188.701C482.26 187.301 473.37 189.081 467.06 194.441C465.38 195.871 463.86 197.581 463.12 199.661C461.98 202.861 462.84 206.391 463.71 209.681C464.51 212.711 465.31 215.751 466.12 218.781C467.04 222.271 468.37 226.231 471.74 227.541C473.53 228.231 475.64 228.021 477.25 229.051C480.09 230.861 479.71 235.101 481.2 238.131Z" fill="#AA6755"/>
<path d="M434 185.661C433.2 184.351 432.33 183.081 431.36 181.891C429.26 179.311 426.68 177.111 424.99 174.251C423.3 171.391 422.7 167.511 424.72 164.871C426.02 163.161 428.14 162.311 430.19 161.701C436.96 159.691 444.28 159.541 451.13 161.271C457.66 162.921 463.5 165.661 470.06 163.191C476.22 160.871 480.68 161.811 487.13 164.091C494.11 166.571 503.48 167.141 509.8 170.641C512.44 172.101 514.55 174.391 516.19 176.921C521.89 185.691 521.94 197.791 516.32 206.601C515.06 208.581 513.55 210.391 511.96 212.111C508.68 215.691 504.75 220.101 500.22 221.431C500.11 217.381 503.77 204.601 500.65 201.291C495.7 196.031 484.55 197.891 478.43 199.201C471.75 200.631 465.81 205.371 459.19 206.391C454.43 207.131 448.34 204.801 444.28 202.341C439.28 199.321 436.93 190.461 434 185.661Z" fill="#3B455A"/>
<path d="M468.39 234.341L401.2 262.031L358.73 252.721L354.6 260.851L393.37 289.281L446.72 282.831L468.39 234.341Z" fill="white"/>
<path d="M561.9 130.011L560.8 113.181L553.58 113.331L551.79 125.031L548.34 123.521L551.04 137.811L558.57 138.651L561.9 130.011Z" fill="#AA6755"/>
<path d="M497.38 243.551L534.18 194.591L551.04 137.811L561.07 138.151L561.23 203.771L526.42 273.121L497.38 243.551Z" fill="white"/>
<path d="M375.31 384.381L386.12 473.681L381.86 590.801L368.91 592.221L349.1 486.741L319.75 382.301L375.31 384.381Z" fill="#282F3D"/>
<path d="M380.52 369.501C367.13 342.351 361.74 312.561 354.69 283.261C352.61 274.621 350.45 265.791 345.62 258.321C340.08 249.741 332.44 245.911 323.99 244.451C313.23 242.591 301.14 244.561 290.37 245.481C283.89 265.851 279.62 254.311 272.01 274.281C270.43 278.421 266 314.271 264.33 318.381C264.33 318.381 246.85 373.481 252.56 417.021C252.62 417.451 252.66 417.871 252.72 418.291C253.86 418.481 254.95 418.681 255.96 418.881C271.15 421.931 286.63 423.551 302.13 423.321C315.87 423.111 329.62 421.421 342.96 418.101C361.22 413.551 382.92 415.351 397.84 403.281C393.44 394.381 384.91 378.411 380.52 369.501Z" fill="#EBB044"/>
<path d="M388.11 165.661L387.52 150.351L380.96 150.311L379.04 160.891L375.95 159.441L378.05 172.491L384.87 173.441L388.11 165.661Z" fill="#AA6755"/>
<path d="M325.45 243.421L364.55 213.811L378.05 172.491L387.15 173.041L392.01 220.881L350.38 280.241L325.45 243.421Z" fill="#EBB044"/>
<path d="M281.75 210.291C287.22 193.021 312.23 186.691 318.34 206.601C320.17 212.581 321.32 218.941 320.2 225.101C319.09 231.261 315.42 237.201 309.72 239.801L309.62 239.841C309.86 241.431 310.11 243.021 310.36 244.611C310.41 244.951 310.46 245.331 310.27 245.621C310.06 245.951 309.62 246.041 309.23 246.111C307.33 246.421 305.43 246.731 303.53 247.041C302.59 247.191 301.61 247.341 300.7 247.061C298.7 246.451 297.84 244.081 297.73 241.991C297.7 241.491 297.7 240.991 297.7 240.481C286.39 236.781 278.18 221.581 281.75 210.291Z" fill="#AA6755"/>
<path d="M316.28 181.891C320.92 181.641 324.4 186.451 328.4 189.181C331.73 191.451 335.66 192.341 339.15 194.291C342.64 196.241 345.9 199.931 345.58 204.141C349.45 202.571 353.63 200.981 357.69 202.171C361.75 203.361 365.12 208.661 363.08 212.571C361.26 216.071 356.43 216.481 354.51 219.921C351.47 225.351 357.4 234.801 352.43 238.131C351.24 238.931 349.7 239.001 348.53 239.831C347.07 240.861 346.44 242.801 345.67 244.511C342.18 252.261 333.62 256.721 325.75 254.891C321.02 252.101 317.52 246.931 316.27 241.271C314.76 234.451 318.52 232.471 319.71 226.321C321.01 219.591 319.53 212.201 315.75 206.521C313.29 202.831 309.59 199.491 305.42 198.691C303.73 198.361 304.13 199.841 302.33 198.341C301.56 197.691 300.63 195.441 300.5 194.391C305.45 191.121 310.18 182.221 316.28 181.891Z" fill="#3B455A"/>
<path d="M267 185.751C264.58 186.181 262.02 185.841 259.68 186.621C256.16 187.781 256.03 191.311 254.79 194.261C253.41 197.531 251.44 201.911 248.97 204.321C247.19 206.061 244.84 206.921 242.75 208.201C240.66 209.471 238.66 211.461 238.45 214.091C238.25 216.581 239.72 218.981 239.73 221.491C239.68 225.231 238.86 227.061 239.64 230.961C240.04 232.971 240.51 235.111 241.85 236.581C243.62 238.521 246.38 238.751 248.83 238.571C251.29 238.391 253.85 237.961 256.16 238.991C261.17 241.221 259.71 246.361 260.67 250.881C262.13 257.751 269.5 262.381 275.65 260.571C280.86 259.031 284.32 253.481 284.64 247.701C284.8 244.811 283.91 242.011 284.1 239.121C284.28 236.331 286.21 232.631 283.9 230.181C283.34 229.581 282.58 229.231 282.08 228.561C281.68 228.021 281.5 227.331 281.41 226.661C281.09 224.311 281.83 221.851 283.36 220.221C284.45 219.051 285.94 218.261 286.68 216.791C287.53 215.111 287.18 213.011 287.25 211.071C287.41 206.371 290.4 202.031 294.46 200.601C297.14 199.651 299.51 199.171 301.93 197.581C302.3 197.341 307.82 193.311 307.86 194.301C307.79 192.581 306.94 191.011 306.07 189.551C304.64 187.161 303.01 184.811 300.82 183.251C293.73 178.211 292.41 188.241 286.51 186.341C285.09 185.881 284.12 184.451 282.89 183.531C280.56 181.791 277.48 182.041 274.84 182.931C272.2 183.811 269.73 185.261 267 185.751Z" fill="#3B455A"/>
<path d="M209.99 494.001L359.6 551.801L523.56 497.041L384.45 443.231L209.99 494.001Z" fill="#AD8762"/>
<path d="M478.72 502.991C478.79 468.651 451 440.761 416.66 440.701C382.32 440.631 354.43 468.421 354.37 502.761C354.31 537.101 382.09 564.991 416.43 565.051C450.76 565.111 478.65 537.331 478.72 502.991Z" fill="white"/>
<path d="M456.98 465.461L458.43 464.381C458.14 463.991 451.07 454.671 437.11 449.281L436.46 450.961C449.94 456.171 456.91 465.371 456.98 465.461Z" fill="#5C5955"/>
<path d="M375.87 465.311C375.94 465.221 382.98 456.041 396.45 450.901L395.81 449.211C381.83 454.551 374.73 463.831 374.43 464.231L375.87 465.311Z" fill="#5C5955"/>
<path d="M462.06 536.061C466.31 531.541 469.66 524.331 472.03 514.641C473.78 507.461 474.31 501.511 474.32 501.451L472.52 501.291C472.5 501.521 470.39 524.561 460.74 534.821L462.06 536.061Z" fill="#5C5955"/>
<path d="M370.72 535.891L372.04 534.661C362.43 524.351 360.41 501.311 360.39 501.081L358.59 501.231C358.6 501.291 359.1 507.251 360.83 514.431C363.16 524.131 366.49 531.351 370.72 535.891Z" fill="#5C5955"/>
<path d="M415.31 560.031C423.42 560.051 429.82 558.511 430.22 558.411L429.79 556.661C429.65 556.701 415.22 560.141 402.44 556.611L401.96 558.351C406.47 559.601 411.12 560.021 415.31 560.031Z" fill="#5C5955"/>
<path d="M416.57 479.571L437.68 494.981L429.56 519.821L403.42 519.771L395.39 494.901L416.57 479.571Z" fill="#3B455A"/>
<path d="M416.59 466.121L395.47 450.721L403.6 425.871L429.73 425.921L437.76 450.791L416.59 466.121Z" fill="#3B455A"/>
<path d="M436.28 533.281L462.42 533.651L470.14 558.621L448.78 573.681L427.86 558.021L436.28 533.281Z" fill="#3B455A"/>
<path d="M438.17 539.141L439.78 538.341L427.3 513.261L425.69 514.071L438.17 539.141Z" fill="#3B455A"/>
<path d="M450.8 489.671L456.77 464.231L482.81 462.041L492.94 486.141L473.15 503.221L450.8 489.671Z" fill="#3B455A"/>
<path d="M432.51 498.461L458.2 487.321L457.48 485.661L431.79 496.811L432.51 498.461Z" fill="#3B455A"/>
<path d="M396.51 533.531L370.38 533.801L362.56 558.741L383.86 573.891L404.85 558.301L396.51 533.531Z" fill="#3B455A"/>
<path d="M394.61 539.391L407.18 514.361L405.57 513.541L393 538.581L394.61 539.391Z" fill="#3B455A"/>
<path d="M381.95 489.701L375.7 464.321L349.63 462.421L339.77 486.621L359.74 503.481L381.95 489.701Z" fill="#3B455A"/>
<path d="M400.34 498.281L401.04 496.621L375.22 485.751L374.52 487.421L400.34 498.281Z" fill="#3B455A"/>
<path d="M415.66 482.561H417.46L417.52 453.061L415.71 453.051L415.66 482.561Z" fill="#3B455A"/>
<path d="M359.36 675.741L209.79 600.061L209.99 493.871L359.54 551.691L359.36 675.741Z" fill="#AD8762"/>
<path d="M359.36 675.741L523.36 603.611L523.56 497.001L359.54 551.691L359.36 675.741Z" fill="#AD8762"/>
<path d="M346.55 467.451C339.21 469.801 335.16 477.661 337.51 485.001C339.86 492.341 347.72 496.391 355.06 494.041L374.33 487.881C381.67 485.531 385.72 477.671 383.37 470.331C381.02 462.991 373.16 458.941 365.82 461.291L346.55 467.451Z" fill="#CCD2D9"/>
<path d="M366.95 512.501C358.64 508.221 348.43 511.481 344.15 519.791C339.87 528.101 343.13 538.311 351.44 542.591L373.24 553.821C381.55 558.101 391.75 554.841 396.04 546.531C400.32 538.221 397.06 528.011 388.75 523.731L366.95 512.501Z" fill="#CCD2D9"/>
<path d="M265.46 493.381C258.12 495.731 254.07 503.591 256.42 510.931C258.77 518.271 266.63 522.321 273.97 519.971L293.24 513.811C300.58 511.461 304.63 503.601 302.28 496.261C299.93 488.921 292.07 484.871 284.73 487.221L265.46 493.381Z" fill="#CCD2D9"/>
<path d="M293.01 531.821C299.54 552.241 321.39 563.491 341.8 556.961C362.22 550.431 373.48 528.581 366.94 508.171L362.62 494.661C356.09 474.241 334.24 462.991 313.83 469.521C293.41 476.051 282.15 497.901 288.69 518.311L293.01 531.821Z" fill="#CCD2D9"/>
<path d="M267.07 460.911C274.12 482.961 297.71 495.111 319.76 488.061C341.81 481.011 353.96 457.421 346.91 435.371C339.86 413.321 316.27 401.171 294.22 408.221C272.17 415.271 260.02 438.861 267.07 460.911Z" fill="#CCD2D9"/>
<path d="M307.75 450.511C322.03 445.941 336.95 449.441 347.61 458.451C344.16 471.981 334.03 483.491 319.75 488.051C305.47 492.621 290.55 489.131 279.88 480.111C283.34 466.591 293.47 455.081 307.75 450.511Z" fill="#F2F1F0"/>
<path d="M313.83 419.831C317.12 430.131 328.15 435.811 338.45 432.521C348.75 429.221 354.43 418.201 351.14 407.901C347.84 397.601 336.82 391.921 326.52 395.211C316.22 398.501 310.53 409.531 313.83 419.831Z" fill="#CCD2D9"/>
<path d="M247.68 440.981C250.97 451.281 262 456.961 272.3 453.671C282.6 450.371 288.28 439.351 284.99 429.051C281.7 418.751 270.67 413.071 260.37 416.361C250.07 419.661 244.39 430.681 247.68 440.981Z" fill="#CCD2D9"/>
<path d="M320.24 437.171C320.96 439.421 323.37 440.671 325.63 439.951C327.89 439.231 329.13 436.821 328.41 434.561C327.69 432.311 325.28 431.061 323.02 431.781C320.76 432.511 319.52 434.921 320.24 437.171Z" fill="#3B455A"/>
<path d="M281.67 449.511C282.39 451.761 284.8 453.011 287.06 452.291C289.31 451.571 290.56 449.161 289.84 446.901C289.12 444.651 286.71 443.401 284.45 444.121C282.19 444.841 280.95 447.261 281.67 449.511Z" fill="#3B455A"/>
<path d="M300.16 468.121C300.77 466.931 302.24 466.461 303.43 467.071C305.83 468.301 308.43 468.721 310.92 468.411L307.84 458.771C302.47 457.061 301.49 453.231 301.49 453.231C300.87 451.301 301.87 449.021 303.81 448.411L309.74 446.511C311.67 445.891 313.81 447.161 314.42 449.091L314.43 449.121C314.56 449.481 315.66 453.021 312.46 457.291L315.54 466.931C317.75 465.731 319.63 463.891 320.86 461.491C321.47 460.301 322.94 459.831 324.13 460.451C325.32 461.061 325.79 462.531 325.18 463.721C322.93 468.081 319.12 471.121 314.77 472.521C310.43 473.911 305.56 473.641 301.19 471.401C300.02 470.771 299.55 469.311 300.16 468.121Z" fill="#3B455A"/>
<path d="M336.62 405.361C341.53 408.461 343 414.961 339.9 419.871L322.11 408.641C325.21 403.731 331.71 402.261 336.62 405.361Z" fill="#EDE6E6"/>
<path d="M258.03 430.501C260.23 425.121 266.37 422.551 271.75 424.751L263.78 444.221C258.41 442.021 255.83 435.871 258.03 430.501Z" fill="#EDE6E6"/>
<path d="M359.54 551.691L388.7 601.771L547.88 538.931L523.42 497.001L359.54 551.691Z" fill="#B89C82"/>
<path d="M183.11 527.241L325.18 594.771L359.54 551.691L209.83 493.871L183.11 527.241Z" fill="#956F49"/>
<path d="M688.93 405.094L665.71 500.094L665.32 570.084L653.97 572.564L649.4 507.474L638.03 388.284L688.93 405.094Z" fill="#EAC1A4"/>
<path d="M653.82 574.524L652 581.624L653.64 595.554H662.85L666.25 575.414L665.18 572.044L653.82 574.524Z" fill="#3B455A"/>
<path d="M599.58 394.774L597.67 476.824L608.84 592.684L620.06 593.494L623.89 487.244L646.54 390.884L599.58 394.774Z" fill="#EAC1A4"/>
<path d="M609.19 590.754L594.1 598.804L595.31 605.854L621.99 602.534L620.69 592.384L609.19 590.754Z" fill="#3B455A"/>
<path d="M596.32 405.364L588.89 500.174L596.75 565.174L627.12 563.394L632.4 489.474L645.38 408.864L643.32 396.324L599.54 397.044L596.32 405.364Z" fill="#CCD2D9"/>
<path d="M642.53 493.174L646.23 561.164L672.63 559.764L671.97 495.274L688.47 414.264L684.63 391.634L640.23 394.484L642.53 493.174Z" fill="#CCD2D9"/>
<path d="M580.72 407.084C607.9 411.184 653.13 414.264 680.32 418.364C681.69 369.224 676.75 312.484 664.8 264.954C662.63 256.334 659.44 247.034 651.89 242.654C643.81 237.964 626.68 238.634 621.77 247.784C614.59 261.174 613.2 282.474 610.01 297.364C602.81 331.064 585.16 372.904 580.72 407.084Z" fill="white"/>
<path d="M622.91 204.504C630.08 185.354 654.23 193.044 658.55 210.304C661.4 221.674 652.28 236.214 640.85 239.014C641.07 241.824 641.17 244.644 641.15 247.464C638.09 247.144 635.03 246.834 631.97 246.514C631.02 246.414 629.92 246.224 629.48 245.374C629.21 244.864 629.27 244.254 629.34 243.674C629.57 241.744 629.79 239.814 630.02 237.884C629.8 237.774 629.58 237.674 629.36 237.554C623.93 234.674 620.69 228.624 619.97 222.524C619.25 216.424 620.75 210.264 622.91 204.504Z" fill="#EAC1A4"/>
<path d="M624.52 210.324C620.43 215.784 621.21 223.314 621.95 229.774C622.6 235.504 622.32 239.034 616.02 238.424C612.47 238.084 606.16 237.544 604.11 234.054C602.56 231.414 605.75 225.924 607.6 223.934C609.01 222.414 611.46 222.224 612.83 220.664C613.39 220.024 613.72 219.204 614 218.404C615.15 215.104 615.79 211.644 615.91 208.154C615.99 205.784 615.83 203.384 616.38 201.074C617.18 197.734 620.74 194.714 622.94 192.134C627.03 187.334 637.33 182.484 642.42 189.024C643.58 190.514 643.89 192.474 644.07 194.354C644.18 195.474 644.25 196.634 643.91 197.704C642.54 201.984 638.41 201.404 635.05 202.544C630.89 203.934 627.13 206.834 624.52 210.324Z" fill="#3B455A"/>
<path d="M655.13 221.624C654.37 224.724 651.67 227.554 652.48 230.634C652.84 232.014 653.86 233.094 654.62 234.294C656.71 237.564 656.89 241.964 655.08 245.404C661.2 247.184 667.32 248.964 673.44 250.744C674.36 251.014 675.33 251.284 676.27 251.074C678.27 250.624 679.14 248.304 679.68 246.324C680.74 242.424 681.8 238.214 680.41 234.414C679.77 232.654 678.63 231.104 678 229.334C674.94 220.854 684.05 210.774 679.47 203.004C677.43 199.534 673.31 197.964 670.27 195.324C664.97 190.734 663.04 183.004 657.45 178.764C646.89 170.754 630.52 181.434 634.04 194.394C636.94 204.954 658.2 209.144 655.13 221.624Z" fill="#3B455A"/>
<path d="M656.46 246.054C656.46 246.054 665.33 368.054 646.43 392.144C627.53 416.234 619.44 425.314 619.44 425.314L697.14 457.584C697.15 457.584 695.13 279.674 656.46 246.054Z" fill="#CCD2D9"/>
<path d="M733.06 286.484C718.65 284.524 700.01 291.264 694.99 303.394C691.31 290.794 669.51 281.994 654.97 282.384C616.59 283.434 601.36 325.344 616.01 354.874C623.9 370.764 635.7 384.924 648.71 397.774C659.61 408.534 687.97 431.634 688.07 431.564C688.16 431.644 718.84 411.734 730.84 402.214C745.16 390.844 758.42 378.034 767.97 363.084C785.72 335.304 771.1 291.664 733.06 286.484Z" fill="#D34E4E"/>
</svg>
