<svg width="21" height="21" viewBox="0 0 21 21" fill="none" xmlns="http://www.w3.org/2000/svg">
<path d="M19.2644 1.02523C18.0389 -0.200303 16.052 -0.200303 14.8264 1.02523L2.38537 13.4663C2.30011 13.5516 2.23855 13.6572 2.20641 13.7733L0.570369 19.6797C0.503086 19.9219 0.571458 20.1812 0.749063 20.3591C0.926941 20.5367 1.18627 20.6051 1.42843 20.5381L7.33489 18.9018C7.45093 18.8696 7.55662 18.8081 7.64188 18.7228L20.0827 6.28146C21.3063 5.05512 21.3063 3.06986 20.0827 1.84352L19.2644 1.02523ZM3.90482 13.9196L14.0869 3.73724L17.3707 7.02103L7.18834 17.2034L3.90482 13.9196ZM3.24888 15.2358L5.87237 17.8596L2.24345 18.865L3.24888 15.2358ZM19.0966 5.29537L18.357 6.03494L15.073 2.75088L15.8128 2.01132C16.4935 1.33059 17.5973 1.33059 18.278 2.01132L19.0966 2.82961C19.7762 3.51115 19.7762 4.6141 19.0966 5.29537Z" fill="#20AFFF"/>
</svg>
