<svg width="36" height="36" viewBox="0 0 36 36" fill="none" xmlns="http://www.w3.org/2000/svg">
<circle cx="18" cy="18" r="17.5" fill="#DFF0FE" stroke="#4788C7"/>
<path d="M11.2 18.4992V18.9V22.5C11.2 22.8684 11.3255 23.2263 11.5996 23.5004C11.8737 23.7746 12.2317 23.9 12.6 23.9H17.1H17.6V23.4V18.9V18.5H18.4V18.9V23.4V23.9H18.9H23.4C23.7487 23.9 24.1037 23.7691 24.3724 23.5004C24.6182 23.2546 24.8 22.9076 24.8 22.5V18.9V18.4989C24.984 18.4907 25.2198 18.4343 25.413 18.2411C25.5808 18.0732 25.7 17.8371 25.7 17.55V15.3C25.7 14.9124 25.5113 14.5666 25.2724 14.3277C25.0334 14.0888 24.6877 13.9 24.3 13.9H23.8251C23.8723 13.7011 23.9 13.4932 23.9 13.275C23.9 12.455 23.5854 11.7736 23.0323 11.188L23.0225 11.1776L23.0121 11.1678C22.4265 10.6147 21.7451 10.3 20.925 10.3C20.2571 10.3 19.6539 10.5019 19.126 10.8641C18.7619 11.1074 18.3991 11.4618 18.0261 11.9081C17.643 11.4577 17.274 11.1094 16.9407 10.8713L16.9407 10.8712L16.9333 10.8661C16.4047 10.5027 15.8005 10.3 15.1313 10.3C14.3191 10.3 13.6026 10.6091 13.034 11.1777C12.4342 11.7775 12.1563 12.4672 12.1563 13.275C12.1563 13.4811 12.1759 13.6917 12.2199 13.9H11.7C11.2925 13.9 10.9455 14.0819 10.6996 14.3277C10.431 14.5964 10.3 14.9513 10.3 15.3V17.55C10.3 17.7515 10.3401 18.0221 10.559 18.2411C10.7603 18.4424 11.0053 18.4924 11.2 18.4992ZM20.028 13.191L20.028 13.191L20.0311 13.1876C20.2597 12.9336 20.43 12.7925 20.5683 12.719C20.6663 12.6819 20.7908 12.65 20.925 12.65C21.0909 12.65 21.2197 12.7018 21.359 12.8411C21.4983 12.9803 21.55 13.1092 21.55 13.275C21.55 13.4757 21.4932 13.6029 21.359 13.7371C21.243 13.8531 21.125 13.9 20.925 13.9H19.462C19.678 13.6041 19.8681 13.3655 20.028 13.191ZM16.0272 13.1906C16.1758 13.3701 16.3592 13.6089 16.5736 13.9H15.1313C14.8964 13.9 14.7812 13.849 14.6692 13.7371C14.5573 13.6251 14.5063 13.5099 14.5063 13.275C14.5063 13.0751 14.5532 12.9571 14.6692 12.8411C14.8035 12.7068 14.9306 12.65 15.1313 12.65C15.2526 12.65 15.3454 12.6745 15.484 12.7198C15.6117 12.8009 15.7826 12.947 16.0272 13.1906Z" fill="#98CCFD" stroke="#4889C8"/>
</svg>
