<svg width="40" height="40" viewBox="0 0 40 40" fill="none" xmlns="http://www.w3.org/2000/svg">
<path d="M38.6536 13.48C38.0932 12.9872 37.4035 12.6695 36.6588 12.5613L27.5409 11.2364L23.4634 2.9743C23.1303 2.2995 22.615 1.74155 21.9732 1.36097C21.3778 1.00796 20.6955 0.821289 19.9999 0.821289C19.3043 0.821289 18.6219 1.00789 18.0266 1.36097C17.3848 1.74155 16.8696 2.29943 16.5365 2.9743L12.4589 11.2365L3.34115 12.5613C2.5964 12.6695 1.90658 12.9872 1.34631 13.48C0.826558 13.9371 0.438272 14.5284 0.223303 15.1899C0.00840092 15.8515 -0.0250136 16.5581 0.126713 17.2334C0.290332 17.9614 0.661677 18.6239 1.20063 19.1491L7.7983 25.5803L6.24077 34.6613C6.04779 35.7865 6.35755 36.9306 7.09068 37.8002C7.82925 38.6763 8.90689 39.1787 10.0472 39.1787C10.6683 39.1787 11.2899 39.0245 11.8448 38.7328L20 34.4454L28.1552 38.7328C28.7101 39.0245 29.3316 39.1787 29.9526 39.1787C31.093 39.1787 32.1706 38.6763 32.9092 37.8002C33.6424 36.9306 33.9521 35.7866 33.7592 34.6613L32.2017 25.5803L38.7994 19.1491C39.3382 18.6238 39.7096 17.9614 39.8732 17.2334C40.025 16.5581 39.9916 15.8515 39.7767 15.1899C39.5617 14.5284 39.1733 13.9371 38.6536 13.48ZM36.8128 17.1112L29.5264 24.2139C29.2869 24.4474 29.1775 24.7838 29.2341 25.1135L30.9542 35.1424C31.0669 35.7994 30.5449 36.3329 29.9526 36.3329C29.7963 36.3329 29.6352 36.2957 29.4795 36.2139L20.473 31.4789C20.3249 31.401 20.1625 31.3621 20 31.3621C19.8376 31.3621 19.6751 31.401 19.527 31.4789L10.5205 36.2139C10.3649 36.2957 10.2036 36.3329 10.0474 36.3329C9.45507 36.3329 8.93313 35.7994 9.04579 35.1424L10.7659 25.1135C10.8225 24.7838 10.7131 24.4474 10.4736 24.2139L3.18703 17.1112C2.58377 16.5233 2.91666 15.4988 3.75029 15.3776L13.8199 13.9144C14.151 13.8663 14.4372 13.6584 14.5852 13.3584L19.0885 4.23376C19.2749 3.85603 19.6375 3.66717 20 3.66717C20.3625 3.66717 20.725 3.8561 20.9113 4.23376L25.4146 13.3584C25.5627 13.6583 25.8488 13.8663 26.1799 13.9144L36.2495 15.3776C37.0832 15.4988 37.416 16.5233 36.8128 17.1112Z" fill="#1AAAFF"/>
<path d="M29.9526 39.2118C29.3262 39.2118 28.6993 39.0562 28.1397 38.762L20 34.4826L11.8603 38.762C11.3006 39.0563 10.6737 39.2118 10.0473 39.2118C8.89709 39.2118 7.81023 38.7051 7.06528 37.8215C6.32584 36.9444 6.01342 35.7905 6.20806 34.6555L7.7626 25.5918L1.17742 19.1728C0.633888 18.643 0.25942 17.9749 0.0943405 17.2406C-0.058715 16.5594 -0.0250348 15.8468 0.191727 15.1796C0.408556 14.5124 0.80023 13.916 1.32443 13.455C1.88955 12.958 2.58535 12.6376 3.33647 12.5284L12.437 11.206L16.5068 2.95957C16.8428 2.27892 17.3624 1.71625 18.0098 1.33235C18.6103 0.976284 19.2985 0.788086 20.0001 0.788086C20.7016 0.788086 21.3898 0.976284 21.9903 1.33235C22.6376 1.71619 23.1574 2.27892 23.4933 2.95957L27.5632 11.206L36.6637 12.5284C37.4148 12.6375 38.1104 12.9579 38.6756 13.455C39.1999 13.916 39.5916 14.5124 39.8083 15.1797C40.0252 15.8469 40.0588 16.5596 39.9057 17.2407C39.7407 17.9749 39.3662 18.643 38.8226 19.1729L32.2374 25.5918L33.7919 34.6555C33.9866 35.7905 33.6742 36.9444 32.9347 37.8215C32.1896 38.705 31.1027 39.2118 29.9526 39.2118ZM19.9999 34.4077L20.0154 34.4158L28.1705 38.7032C28.7206 38.9925 29.3369 39.1453 29.9525 39.1453C31.083 39.1453 32.1514 38.6472 32.8838 37.7787C33.6105 36.9165 33.9176 35.7823 33.7263 34.6667L32.1659 25.5685L38.7761 19.1252C39.3104 18.6043 39.6785 17.9476 39.8407 17.226C39.9912 16.5565 39.9581 15.8559 39.745 15.2001C39.5319 14.5442 39.147 13.9579 38.6317 13.5047C38.0762 13.0162 37.3923 12.7013 36.654 12.5941L27.5189 11.2667L27.5112 11.251L23.4337 2.9888C23.1034 2.31971 22.5926 1.76667 21.9564 1.38935C21.3661 1.03933 20.6896 0.854317 20 0.854317C19.3104 0.854317 18.6339 1.03933 18.0436 1.38935C17.4074 1.76661 16.8966 2.31971 16.5663 2.9888L12.481 11.2666L12.4637 11.2691L3.34597 12.594C2.60767 12.7013 1.92377 13.0161 1.36828 13.5047C0.853042 13.9579 0.468011 14.5441 0.254903 15.2C0.0417941 15.8559 0.00871177 16.5564 0.159177 17.2259C0.3214 17.9476 0.689557 18.6043 1.22386 19.1252L7.83401 25.5685L7.83109 25.5858L6.27356 34.6667C6.08224 35.7823 6.38935 36.9165 7.11616 37.7787C7.84843 38.6472 8.91676 39.1453 10.0473 39.1453C10.663 39.1453 11.2792 38.9924 11.8294 38.7032L19.9999 34.4077ZM29.9526 36.3659C29.7834 36.3659 29.6191 36.3246 29.4641 36.243L20.4576 31.508C20.1766 31.3602 19.8237 31.3602 19.5425 31.508L10.536 36.243C10.381 36.3246 10.2166 36.3659 10.0474 36.3659C9.73804 36.3659 9.44421 36.2278 9.2412 35.9871C9.04078 35.7494 8.95981 35.4473 9.01308 35.1365L10.7332 25.1076C10.7879 24.7886 10.6821 24.4633 10.4504 24.2374L3.16389 17.1348C2.87571 16.854 2.77394 16.4417 2.8983 16.0589C3.02266 15.6762 3.3473 15.4025 3.74562 15.3446L13.8153 13.8814C14.1355 13.8348 14.4123 13.6338 14.5555 13.3436L19.0588 4.21896C19.2369 3.85804 19.5975 3.63384 20 3.63384C20.4024 3.63384 20.7631 3.85804 20.9411 4.21896L25.4444 13.3436C25.5877 13.6338 25.8644 13.8349 26.1847 13.8814L36.2543 15.3446C36.6526 15.4025 36.9773 15.6762 37.1017 16.059C37.2261 16.4417 37.1243 16.854 36.836 17.1348L29.5496 24.2375C29.3178 24.4633 29.2121 24.7886 29.2668 25.1076L30.9869 35.1366C31.0402 35.4473 30.9592 35.7494 30.7587 35.9871C30.5558 36.2278 30.262 36.3659 29.9526 36.3659ZM19.9999 31.3286C20.1695 31.3286 20.3384 31.3704 20.4884 31.4492L29.4949 36.1842C29.6403 36.2606 29.7943 36.2994 29.9526 36.2994C30.2423 36.2994 30.5177 36.1699 30.708 35.9441C30.8956 35.7216 30.9714 35.4388 30.9214 35.1477L29.2013 25.1188C29.1429 24.7782 29.2557 24.431 29.5033 24.1898L36.7897 17.0872C37.0596 16.8241 37.1549 16.4379 37.0385 16.0795C36.9219 15.7209 36.6178 15.4645 36.2447 15.4102L26.1751 13.947C25.8333 13.8973 25.5378 13.6827 25.3848 13.3729L20.8815 4.24825C20.7147 3.91019 20.3769 3.7002 19.9999 3.7002C19.6229 3.7002 19.2851 3.91019 19.1183 4.24825L14.615 13.3729C14.4621 13.6827 14.1667 13.8974 13.8248 13.947L3.75512 15.4103C3.38205 15.4645 3.07793 15.7209 2.96148 16.0795C2.84502 16.438 2.94035 16.8241 3.21026 17.0873L10.4967 24.1898C10.7441 24.431 10.857 24.7783 10.7985 25.1189L9.07845 35.1478C9.02856 35.4389 9.10436 35.7218 9.29189 35.9442C9.48221 36.1699 9.75757 36.2994 10.0473 36.2994C10.2056 36.2994 10.3596 36.2606 10.505 36.1842L19.5115 31.4493C19.6616 31.3704 19.8305 31.3286 19.9999 31.3286Z" fill="#1AAAFF"/>
</svg>
