<svg width="40" height="40" viewBox="0 0 40 40" fill="none" xmlns="http://www.w3.org/2000/svg">
<path d="M13.75 4.21961C9.31031 4.21961 5.57 7.27094 4.5157 11.3866C4.50969 11.4077 4.50422 11.429 4.5 11.4508C4.31672 12.1877 4.21875 12.958 4.21875 13.7509C4.21875 19.0064 8.49445 23.2821 13.75 23.2821C19.0055 23.2821 23.2812 19.0064 23.2812 13.7509C23.2812 8.49532 19.0055 4.21961 13.75 4.21961ZM12.9883 17.7548C12.5568 17.7548 12.207 18.1045 12.207 18.536C12.207 18.9675 12.5568 19.3173 12.9883 19.3173H19.4463C17.9985 20.7985 15.98 21.7196 13.75 21.7196C9.35602 21.7196 5.78125 18.1448 5.78125 13.7509C5.78125 13.2841 5.82195 12.8267 5.8993 12.3818H9.30117C9.48367 12.3818 9.585 12.4904 9.62906 12.5552C9.6732 12.6199 9.73727 12.7539 9.67055 12.9238L9.61609 13.0624C9.37906 13.6661 9.45555 14.3464 9.82086 14.8823C10.1862 15.4181 10.7914 15.7381 11.4399 15.7381H14.395C14.8265 15.7381 15.1762 15.3884 15.1762 14.9569C15.1762 14.5254 14.8265 14.1756 14.395 14.1756H11.4399C11.2574 14.1756 11.1561 14.067 11.112 14.0023C11.0678 13.9375 11.0037 13.8035 11.0705 13.6336L11.1249 13.495C11.362 12.8913 11.2855 12.211 10.9202 11.6752C10.5548 11.1393 9.94961 10.8193 9.30109 10.8193H6.34C7.51023 7.87164 10.3906 5.78211 13.75 5.78211C16.3341 5.78211 18.6345 7.01883 20.0915 8.93117H15.4691C15.0376 8.93117 14.6878 9.28094 14.6878 9.71242C14.6878 10.1439 15.0376 10.4937 15.4691 10.4937H21.0222C21.4696 11.4886 21.7188 12.5912 21.7188 13.7509C21.7188 15.2095 21.3245 16.5775 20.6375 17.7548H12.9883Z" fill="#666666"/>
<path d="M35.368 30.2313C35.2226 30.086 35.0211 30.0023 34.8156 30.0023C34.6101 30.0023 34.4086 30.0859 34.2633 30.2313C34.118 30.3773 34.0344 30.5781 34.0344 30.7836C34.0344 30.9891 34.118 31.1906 34.2633 31.3367C34.4086 31.482 34.6101 31.5648 34.8156 31.5648C35.0211 31.5648 35.2226 31.482 35.368 31.3367C35.514 31.1906 35.5969 30.9899 35.5969 30.7836C35.5969 30.5781 35.514 30.3766 35.368 30.2313Z" fill="#666666"/>
<path d="M38.9359 33.7992L37.2823 32.1457C36.9772 31.8407 36.4825 31.8407 36.1774 32.1457C35.8723 32.4508 35.8723 32.9454 36.1774 33.2506L37.8311 34.9042C38.2221 35.2952 38.4375 35.8151 38.4375 36.3681C38.4375 36.9212 38.2222 37.441 37.8312 37.832C37.0239 38.6392 35.7105 38.6394 34.9033 37.832L28.6198 31.5485L31.5477 28.6207L32.3103 29.3833C32.6155 29.6883 33.1101 29.6884 33.4152 29.3833C33.7203 29.0783 33.7203 28.5836 33.4152 28.2784L30.0967 24.9598C29.7206 24.5837 29.2205 24.3765 28.6886 24.3765C28.1566 24.3765 27.6566 24.5836 27.2804 24.9598L26.6722 25.568L24.2713 23.1672C26.4721 20.7065 27.8125 17.4606 27.8125 13.9072C27.8125 6.23926 21.5741 0.000900269 13.9062 0.000900269C6.23836 0.000900269 0 6.23918 0 13.9072C0 21.5751 6.23836 27.8134 13.9062 27.8134C17.4597 27.8134 20.7055 26.473 23.1664 24.2722L25.5673 26.673L24.9591 27.2813C24.583 27.6574 24.3758 28.1576 24.3758 28.6893C24.3758 29.2214 24.583 29.7214 24.9591 30.0975L26.9618 32.1002C26.962 32.1004 26.9622 32.1007 26.9624 32.1009C26.9627 32.1011 26.9629 32.1013 26.9631 32.1015L33.7984 38.9369C34.5066 39.645 35.4369 39.9992 36.3671 39.9992C37.2973 39.9992 38.2277 39.6451 38.9359 38.9369C40.3523 37.5204 40.3523 35.2157 38.9359 33.7992ZM13.9062 26.2509C7.09984 26.2509 1.5625 20.7135 1.5625 13.9072C1.5625 7.10075 7.09984 1.5634 13.9062 1.5634C20.7127 1.5634 26.25 7.10075 26.25 13.9072C26.25 20.7135 20.7127 26.2509 13.9062 26.2509ZM26.0639 28.9926C25.9829 28.9115 25.9383 28.8039 25.9383 28.6893C25.9383 28.5748 25.9829 28.4671 26.0639 28.3861L28.3852 26.0647C28.4662 25.9838 28.5739 25.9392 28.6884 25.9392C28.803 25.9392 28.9107 25.9838 28.9917 26.0648L30.4427 27.5158L27.5149 30.4436L26.0639 28.9926Z" fill="#666666"/>
<path d="M12.7277 32.1144C12.696 32.1046 12.6642 32.0977 12.6323 32.092C12.3761 31.5773 12.0352 31.0943 11.6068 30.6659C10.5738 29.633 9.20055 29.0641 7.73977 29.0641C6.27898 29.0641 4.9057 29.633 3.87273 30.6659C3.44313 31.0955 3.09516 31.5846 2.83359 32.1138C2.76969 32.1177 2.70523 32.1286 2.64148 32.1491C0.458281 32.8506 0 33.8327 0 34.5329C0 35.6762 1.17711 36.482 2.8482 36.9808C3.10812 37.4988 3.45102 37.9781 3.87281 38.3999C4.93891 39.466 6.33938 39.9991 7.73984 39.9991C9.14023 39.9991 10.5407 39.466 11.6068 38.3999C12.033 37.9737 12.3726 37.4934 12.6284 36.9817C14.3011 36.4831 15.4795 35.6768 15.4795 34.5329C15.4796 33.817 15.0022 32.8163 12.7277 32.1144ZM2.30125 35.1063C1.73695 34.8293 1.57023 34.5927 1.5625 34.534C1.57023 34.4743 1.73672 34.2372 2.30125 33.9597C2.28164 34.1489 2.27109 34.3401 2.27109 34.5329C2.27109 34.7258 2.28164 34.917 2.30125 35.1063ZM5.13742 37.4456C5.98391 37.5528 6.86961 37.6052 7.73977 37.6052C8.61 37.6052 9.49563 37.5528 10.3422 37.4456C8.86453 38.7673 6.61508 38.7673 5.13742 37.4456ZM11.477 35.6663C10.3892 35.9106 9.09578 36.0427 7.73977 36.0427C6.38375 36.0427 5.09031 35.9106 4.00258 35.6663C3.60039 34.3319 3.92516 32.8233 4.97766 31.7708C5.71547 31.033 6.69641 30.6266 7.73977 30.6266C8.78312 30.6266 9.76406 31.0329 10.5019 31.7708C11.5544 32.8233 11.8791 34.3319 11.477 35.6663ZM13.175 35.108C13.2151 34.7256 13.2151 34.3401 13.175 33.9577C13.7408 34.2349 13.9093 34.4721 13.9172 34.5319C13.9094 34.5923 13.742 34.8301 13.175 35.108Z" fill="#666666"/>
<path d="M35.1562 0.000854492C32.4854 0.000854492 30.3125 2.17374 30.3125 4.8446C30.3125 7.51546 32.4854 9.68835 35.1562 9.68835C37.8271 9.68835 40 7.51546 40 4.8446C40 2.17374 37.8271 0.000854492 35.1562 0.000854492ZM35.1562 8.12585C33.347 8.12585 31.875 6.6539 31.875 4.8446C31.875 3.03531 33.347 1.56335 35.1562 1.56335C36.9655 1.56335 38.4375 3.03531 38.4375 4.8446C38.4375 6.6539 36.9655 8.12585 35.1562 8.12585Z" fill="#666666"/>
<path d="M38.1291 19.4583L35.5524 16.8816C35.2474 16.5766 34.7527 16.5766 34.4475 16.8816L31.8709 19.4583C31.5658 19.7634 31.5658 20.258 31.8709 20.5632L34.4475 23.1398C34.594 23.2863 34.7927 23.3687 34.9999 23.3687C35.2071 23.3687 35.4059 23.2863 35.5524 23.1398L38.129 20.5632C38.4342 20.2581 38.4342 19.7634 38.1291 19.4583ZM35 21.4826L33.5282 20.0108L35 18.539L36.4718 20.0108L35 21.4826Z" fill="#666666"/>
<path d="M17.9765 14.4047C17.8312 14.2586 17.6297 14.1758 17.4242 14.1758C17.2179 14.1758 17.0164 14.2586 16.8711 14.4047C16.7258 14.55 16.6429 14.7508 16.6429 14.957C16.6429 15.1625 16.7258 15.364 16.8711 15.5094C17.0172 15.6547 17.2179 15.7383 17.4242 15.7383C17.6297 15.7383 17.8312 15.6547 17.9765 15.5094C18.1219 15.364 18.2054 15.1625 18.2054 14.957C18.2054 14.7508 18.1219 14.5501 17.9765 14.4047Z" fill="#666666"/>
<path d="M22.4273 34.9954C22.282 34.8501 22.0805 34.7665 21.875 34.7665C21.6695 34.7665 21.468 34.85 21.3227 34.9954C21.1773 35.1407 21.0938 35.3423 21.0938 35.5477C21.0938 35.7532 21.1773 35.9548 21.3227 36.1C21.468 36.2453 21.6695 36.329 21.875 36.329C22.0805 36.329 22.282 36.2454 22.4273 36.1C22.5727 35.9548 22.6562 35.7532 22.6562 35.5477C22.6562 35.3423 22.5727 35.1407 22.4273 34.9954Z" fill="#666666"/>
<path d="M33.2867 12.7259C33.1414 12.5805 32.9398 12.4977 32.7344 12.4977C32.5289 12.4977 32.3273 12.5805 32.182 12.7259C32.0367 12.8719 31.9531 13.0735 31.9531 13.279C31.9531 13.4844 32.0367 13.686 32.182 13.8313C32.3273 13.9766 32.5289 14.0602 32.7344 14.0602C32.9398 14.0602 33.1414 13.9766 33.2867 13.8313C33.432 13.686 33.5156 13.4844 33.5156 13.279C33.5156 13.0735 33.432 12.8719 33.2867 12.7259Z" fill="#666666"/>
<path d="M39.3078 27.3876C39.1625 27.2423 38.9609 27.1587 38.7555 27.1587C38.5492 27.1587 38.3484 27.2422 38.2023 27.3876C38.057 27.5329 37.9742 27.7345 37.9742 27.9399C37.9742 28.1462 38.057 28.347 38.2023 28.4922C38.3484 28.6383 38.55 28.7212 38.7555 28.7212C38.9609 28.7212 39.1625 28.6383 39.3078 28.4922C39.4531 28.347 39.5367 28.1454 39.5367 27.9399C39.5367 27.7345 39.4531 27.5329 39.3078 27.3876Z" fill="#666666"/>
</svg>
