<svg width="23" height="22" viewBox="0 0 23 22" fill="none" xmlns="http://www.w3.org/2000/svg">
<path d="M23 11C23 17.0752 17.8514 22 11.5 22C5.14864 22 0 17.0752 0 11C0 4.92479 5.14864 0 11.5 0C17.8514 0 23 4.92479 23 11Z" fill="#1AAAFF"/>
<path d="M10.0214 17.6602H7.85687C7.15795 17.6602 6.58923 17.1162 6.58923 16.4476V5.55237C6.58923 4.88383 7.15795 4.33984 7.85687 4.33984H15.8137C16.5128 4.33984 17.0813 4.88383 17.0813 5.55237V9.35947C17.0813 9.71547 17.3831 10.004 17.7551 10.004C18.1273 10.004 18.429 9.71547 18.429 9.35947V5.55237C18.429 4.173 17.2557 3.05078 15.8137 3.05078H7.85705C6.41481 3.05078 5.24158 4.173 5.24158 5.55237V16.4476C5.24158 17.827 6.41499 18.9492 7.85705 18.9492H10.0215C10.3936 18.9492 10.6954 18.6607 10.6954 18.3047C10.6954 17.9487 10.3936 17.6602 10.0214 17.6602Z" fill="white"/>
<path d="M15.1665 6.76506H8.50049C8.12848 6.76506 7.82666 7.05359 7.82666 7.40959C7.82666 7.76559 8.12848 8.05412 8.50049 8.05412H15.1665C15.5387 8.05412 15.8403 7.76559 15.8403 7.40959C15.8403 7.05359 15.5387 6.76506 15.1665 6.76506Z" fill="white"/>
<path d="M15.8403 9.88567C15.8403 9.52983 15.5387 9.24113 15.1665 9.24113H8.50049C8.12848 9.24113 7.82666 9.52983 7.82666 9.88567C7.82666 10.2417 8.12848 10.5302 8.50049 10.5302H15.1665C15.5387 10.5302 15.8403 10.2417 15.8403 9.88567Z" fill="white"/>
<path d="M8.50049 11.7174C8.1283 11.7174 7.82666 12.0059 7.82666 12.3619C7.82666 12.7179 8.1283 13.0064 8.50049 13.0064H12.5491C12.9211 13.0064 13.2229 12.7179 13.2229 12.3619C13.2229 12.0059 12.9211 11.7174 12.5491 11.7174H8.50049Z" fill="white"/>
<path d="M19.5676 12.0212C18.8002 11.287 17.5515 11.2872 16.7847 12.0207L13.2315 15.4117C13.1531 15.4867 13.095 15.579 13.0627 15.6807L12.289 18.1174C12.2176 18.3423 12.2797 18.5865 12.4513 18.7547C12.58 18.8807 12.7546 18.9492 12.9337 18.9492C12.9937 18.9492 13.0541 18.9415 13.1136 18.9257L15.7257 18.2337C15.8377 18.204 15.9396 18.1471 16.0217 18.0687L19.5676 14.6836C20.3349 13.9496 20.3349 12.7552 19.5676 12.0212ZM18.6148 12.9326C18.8566 13.164 18.8566 13.5407 18.6151 13.7717L18.5086 13.8734L17.631 13.034L17.737 12.9326C17.979 12.7013 18.3726 12.7013 18.6148 12.9326ZM15.1952 17.0366L13.9345 17.3706L14.3031 16.2101L16.677 13.9444L17.5547 14.7839L15.1952 17.0366Z" fill="white"/>
</svg>
