<svg width="12" height="13" viewBox="0 0 12 13" fill="none" xmlns="http://www.w3.org/2000/svg">
<path d="M9 8C9.625 8 10.1562 8.21875 10.5938 8.65625C11.0312 9.09375 11.25 9.625 11.25 10.25C11.25 10.875 11.0312 11.4062 10.5938 11.8438C10.1562 12.2812 9.625 12.5 9 12.5C8.375 12.5 7.84375 12.2812 7.40625 11.8438C6.96875 11.4062 6.75 10.875 6.75 10.25C6.75 10.0781 6.76562 9.91406 6.79688 9.75781L4.40625 8.25781C4 8.58594 3.53125 8.75 3 8.75C2.375 8.75 1.84375 8.53125 1.40625 8.09375C0.96875 7.65625 0.75 7.125 0.75 6.5C0.75 5.875 0.96875 5.34375 1.40625 4.90625C1.84375 4.46875 2.375 4.25 3 4.25C3.53125 4.25 4 4.41406 4.40625 4.74219L6.79688 3.24219C6.76562 3.08594 6.75 2.92187 6.75 2.75C6.75 2.125 6.96875 1.59375 7.40625 1.15625C7.84375 0.71875 8.375 0.5 9 0.5C9.625 0.5 10.1562 0.71875 10.5938 1.15625C11.0312 1.59375 11.25 2.125 11.25 2.75C11.25 3.375 11.0312 3.90625 10.5938 4.34375C10.1562 4.78125 9.625 5 9 5C8.46875 5 8 4.83594 7.59375 4.50781L5.20312 6.00781C5.23438 6.16406 5.25 6.32812 5.25 6.5C5.25 6.67188 5.23438 6.83594 5.20312 6.99219L7.59375 8.49219C8 8.16406 8.46875 8 9 8Z" fill="#CCCCCC"/>
</svg>
