<svg width="36" height="36" viewBox="0 0 36 36" fill="none" xmlns="http://www.w3.org/2000/svg">
<circle cx="18" cy="18" r="17.5" fill="#DFF0FE" stroke="#4788C7"/>
<path d="M14.9 13.6891V13.4606L14.1428 13.915L12.3146 15.0119C11.9452 15.2335 11.6951 15.5269 11.4963 15.8583C11.2705 16.2347 11.2 16.6101 11.2 16.9875V18.0232L9.2096 19.1926C8.85087 19.3782 8.62966 19.6979 8.54305 20.0443L8.54289 20.0443L8.54003 20.0571C8.46095 20.413 8.4953 20.7683 8.67838 21.0887L8.67915 21.09L10.9227 24.9882C11.1108 25.3533 11.4364 25.5738 11.8102 25.6585C12.1589 25.7441 12.5036 25.6947 12.8236 25.5347L12.8379 25.5275L12.8517 25.5195L15.6319 23.9H19.35C19.9622 23.9 20.5109 23.6775 20.9692 23.2192C21.2787 22.9096 21.4999 22.5341 21.5962 22.1H21.6C21.9487 22.1 22.3037 21.969 22.5723 21.7004L22.2188 21.3468L22.5723 21.7004C22.8181 21.4546 23 21.1076 23 20.7V19.3686C23.197 19.3225 23.39 19.2234 23.5567 19.0567C23.7015 18.9118 23.8188 18.7155 23.8709 18.486L24.5492 18.0959L26.7981 16.8028C26.7983 16.8027 26.7985 16.8026 26.7987 16.8025C27.1064 16.6265 27.3402 16.3466 27.4304 15.9494C27.5055 15.6444 27.5133 15.293 27.3347 14.9357L27.3282 14.9226L27.3209 14.9099L25.0709 11.0006L25.0586 10.9793L25.0444 10.9594C24.8412 10.6749 24.547 10.4588 24.1963 10.3712L24.1963 10.371L24.1835 10.3681C23.8771 10.3 23.505 10.2766 23.1519 10.4784L23.1519 10.4783L23.1483 10.4804L20.3681 12.1H17.6062C17.1615 12.1 16.7361 12.2465 16.3928 12.4525L16.3927 12.4523L16.3816 12.4594L15.4585 13.0468C15.1928 13.2079 15.0053 13.4272 14.9 13.6891Z" fill="#98CCFD" stroke="#4788C7"/>
</svg>
