<svg width="21" height="21" viewBox="0 0 21 21" fill="none" xmlns="http://www.w3.org/2000/svg">
<path d="M10.1 20.2C15.6781 20.2 20.2 15.6781 20.2 10.1C20.2 4.52192 15.6781 0 10.1 0C4.52192 0 0 4.52192 0 10.1C0 15.6781 4.52192 20.2 10.1 20.2Z" fill="#666666"/>
<path d="M16.287 7.25955C15.8541 7.45147 15.3886 7.58128 14.9003 7.63926C15.3988 7.34057 15.7814 6.86796 15.962 6.30388C15.4955 6.58061 14.9786 6.78136 14.4289 6.88956C13.9886 6.42055 13.3611 6.12744 12.6663 6.12744C11.3333 6.12744 10.2521 7.2086 10.2521 8.54163C10.2521 8.73085 10.2736 8.91504 10.315 9.09184C8.30858 8.99119 6.52959 8.03013 5.33879 6.56908C5.13102 6.92557 5.01183 7.34057 5.01183 7.78293C5.01183 8.62031 5.43835 9.35956 6.08578 9.79238C5.69023 9.77996 5.31772 9.67139 4.99239 9.49009C4.99221 9.50035 4.99221 9.51062 4.99221 9.5207C4.99221 10.6904 5.82472 11.6661 6.92892 11.8877C6.72655 11.9432 6.51284 11.9725 6.29301 11.9725C6.13709 11.9725 5.98604 11.9576 5.83876 11.9295C6.14592 12.8884 7.0373 13.5864 8.09397 13.606C7.26758 14.2536 6.22675 14.6395 5.09537 14.6395C4.90092 14.6395 4.70828 14.6281 4.51978 14.6056C5.58761 15.2909 6.8569 15.6904 8.22018 15.6904C12.6607 15.6904 15.0891 12.0118 15.0891 8.82123C15.0891 8.71663 15.0868 8.61238 15.0821 8.50904C15.5542 8.16876 15.9634 7.74368 16.287 7.25955Z" fill="#F1F2F2"/>
</svg>
