<svg width="21" height="21" viewBox="0 0 21 21" fill="none" xmlns="http://www.w3.org/2000/svg">
<path d="M10.1 20.2C15.6781 20.2 20.2 15.6781 20.2 10.1C20.2 4.52192 15.6781 0 10.1 0C4.52192 0 0 4.52192 0 10.1C0 15.6781 4.52192 20.2 10.1 20.2Z" fill="#666666"/>
<path d="M16.1363 10.9145V15.0785H13.7221V11.1936C13.7221 10.2181 13.3735 9.55193 12.4994 9.55193C11.8324 9.55193 11.4361 10.0004 11.2611 10.4347C11.1975 10.5899 11.1812 10.8054 11.1812 11.0231V15.0783H8.76679C8.76679 15.0783 8.7992 8.49851 8.76679 7.81741H11.1813V8.84635C11.1765 8.85445 11.1696 8.86237 11.1653 8.87011H11.1813V8.84635C11.5022 8.35267 12.0744 7.64691 13.3572 7.64691C14.9455 7.64691 16.1363 8.68467 16.1363 10.9145ZM6.24116 4.31738C5.41531 4.31738 4.875 4.85949 4.875 5.57174C4.875 6.26886 5.39964 6.82663 6.20947 6.82663H6.22514C7.06719 6.82663 7.59076 6.26886 7.59076 5.57174C7.57473 4.85949 7.06719 4.31738 6.24116 4.31738ZM5.01849 15.0785H7.43196V7.81741H5.01849V15.0785Z" fill="#F1F2F2"/>
</svg>
