<svg width="21" height="21" viewBox="0 0 21 21" fill="none" xmlns="http://www.w3.org/2000/svg">
<path d="M10.1 20.2C15.6781 20.2 20.2 15.6781 20.2 10.1C20.2 4.52192 15.6781 0 10.1 0C4.52192 0 0 4.52192 0 10.1C0 15.6781 4.52192 20.2 10.1 20.2Z" fill="#666666"/>
<path d="M3.51623 10.5537C3.4804 12.2915 4.67732 13.9499 6.32381 14.4907C7.87469 15.0117 9.78152 14.622 10.8135 13.2938C11.567 12.3631 11.7382 11.1225 11.6567 9.96336C10.3285 9.95147 9.00032 9.95543 7.67413 9.95741C7.67197 10.4306 7.67413 10.9019 7.67611 11.3751C8.47135 11.397 9.26678 11.387 10.062 11.403C9.86128 12.0909 9.40397 12.7311 8.70991 12.9796C7.36985 13.5701 5.65999 12.7987 5.23833 11.3929C4.72935 10.0467 5.56259 8.42219 6.93829 8.0306C7.79133 7.73047 8.67012 8.06841 9.40001 8.51185C9.76982 8.16581 10.1159 7.796 10.4558 7.42224C9.62651 6.72835 8.56084 6.30291 7.46528 6.39635C5.31575 6.42192 3.43467 8.40635 3.51623 10.5537Z" fill="#DC4E41"/>
<path d="M14.2408 8.76099C14.2369 9.15672 14.2327 9.55443 14.2307 9.94999C13.833 9.95395 13.4375 9.95593 13.0417 9.95791C13.0417 10.3536 13.0417 10.7472 13.0417 11.1429C13.4375 11.1449 13.8352 11.1469 14.2307 11.151C14.2347 11.5468 14.2347 11.9423 14.2387 12.34C14.6324 12.34 15.0282 12.3381 15.4237 12.34C15.4259 11.9423 15.4277 11.5468 15.4318 11.1491C15.8274 11.1471 16.2251 11.1451 16.6208 11.1431C16.6208 10.7474 16.6208 10.3538 16.6208 9.95809C16.2253 9.95611 15.8275 9.95413 15.4318 9.95017C15.4296 9.55443 15.4259 9.15672 15.4237 8.76117C15.0282 8.76099 14.6344 8.76099 14.2408 8.76099Z" fill="#DC4E41"/>
<path d="M3.51623 10.5529C3.43467 8.40555 5.31557 6.42112 7.46509 6.39538C8.56065 6.30194 9.6265 6.72738 10.4556 7.42126C10.1155 7.79521 9.76945 8.16484 9.39983 8.51088C8.66994 8.06743 7.79115 7.72949 6.93811 8.02962C5.56223 8.4214 4.72899 10.0459 5.23815 11.3919C5.65981 12.7977 7.36967 13.5692 8.70973 12.9786C9.40361 12.7302 9.8611 12.0899 10.0618 11.402C9.2666 11.3862 8.47117 11.3961 7.67592 11.3741C7.67394 10.9009 7.67196 10.4296 7.67394 9.95644C9.00013 9.95446 10.3283 9.9505 11.6565 9.96238C11.738 11.1217 11.567 12.3623 10.8133 13.2928C9.78134 14.621 7.87469 15.0108 6.32363 14.4897C4.6775 13.9491 3.4804 12.2907 3.51623 10.5529Z" fill="white"/>
<path d="M14.2408 8.76099C14.6346 8.76099 15.0282 8.76099 15.4237 8.76099C15.4259 9.15672 15.4296 9.55443 15.4318 9.94999C15.8274 9.95395 16.2251 9.95593 16.6208 9.95791C16.6208 10.3536 16.6208 10.7472 16.6208 11.1429C16.2253 11.1449 15.8275 11.1469 15.4318 11.1489C15.4278 11.5466 15.4259 11.9422 15.4237 12.3399C15.0282 12.3379 14.6322 12.3399 14.2387 12.3399C14.2349 11.9422 14.2349 11.5466 14.2307 11.1509C13.8352 11.1467 13.4375 11.1449 13.0417 11.1428C13.0417 10.747 13.0417 10.3535 13.0417 9.95773C13.4375 9.95575 13.8332 9.95377 14.2307 9.94981C14.2327 9.55443 14.2367 9.15672 14.2408 8.76099Z" fill="white"/>
</svg>
